<svg xmlns="http://www.w3.org/2000/svg" viewBox="0 0 1000 1000" role="img" aria-label="Map of Afghanistan"><path d="M880.57,293.06L880.29,297.04L875.82,294.22L872.33,294.91L863.54,301.06L857.65,301.31L855.68,305.80L852.41,306.85L837.83,301.74L805.57,302.74L774.34,305.69L764.60,310.71L751.24,312.82L747.90,314.45L748.91,317.69L726.78,329.31L727.31,334.90L717.74,330.79L714.23,336.57L714.85,339.50L696.23,353.05L693.33,359.63L703.63,365.92L712.46,381.42L711.21,387.57L716.80,391.60L718.32,400.92L713.27,408.23L719.27,415.68L712.11,423.55L709.92,431.74L699.92,436.74L695.12,445.23L688.32,450.26L687.50,457.92L681.45,459.70L683.37,465.65L690.62,471.42L687.32,491.67L677.42,494.83L676.19,497.66L657.30,499.41L628.47,492.37L621.23,494.15L619.82,500.19L625.95,511.86L634.87,514.28L637.98,519.93L636.91,528.33L644.17,536.61L644.66,540.89L635.24,548.91L630.97,549.25L628.01,553.71L621.70,556.26L615.64,554.55L603.18,557.21L599.86,560.34L599.28,571.82L593.67,577.50L596.43,585.32L585.70,598.20L589.37,633.34L575.00,651.05L561.88,655.77L554.77,644.25L546.53,641.02L540.49,643.69L547.77,645.66L544.90,647.56L531.40,644.80L524.93,640.90L519.82,650.02L515.35,653.38L508.50,654.37L500.37,661.24L493.30,660.63L495.66,668.60L504.49,669.68L504.17,673.74L480.93,682.19L463.66,680.31L462.64,675.41L458.55,675.03L444.88,682.99L442.99,690.54L436.71,697.64L426.51,701.26L421.05,722.78L424.04,733.76L423.12,746.65L418.35,759.16L425.08,765.94L417.03,774.05L352.65,793.81L321.63,791.79L304.68,797.55L299.88,804.09L271.14,796.66L210.55,802.67L119.85,772.52L173.05,706.33L174.39,695.10L169.72,674.62L166.64,671.12L118.60,662.99L116.00,627.35L119.07,612.51L104.22,558.33L104.48,552.11L119.00,534.37L119.18,529.81L124.10,527.83L119.95,525.04L109.37,524.76L101.38,519.51L100.33,486.00L108.71,474.78L122.41,473.96L111.82,460.74L125.58,452.60L126.27,446.90L132.13,440.77L136.68,421.54L134.19,411.19L138.89,408.27L139.33,402.26L144.60,391.69L143.47,386.97L148.02,386.35L150.33,391.32L162.08,399.55L184.44,398.99L197.01,408.71L199.92,418.96L208.01,409.59L213.77,413.15L222.55,411.75L235.02,402.39L244.02,399.12L243.82,386.56L251.47,381.57L245.79,376.84L245.35,371.05L263.46,370.07L271.89,364.18L282.10,362.96L288.98,359.46L297.61,361.52L298.28,354.40L303.91,350.71L309.88,351.23L311.96,347.28L321.63,343.26L328.11,333.05L328.69,317.23L338.35,298.63L338.35,286.61L354.14,278.90L380.45,277.30L385.29,271.41L387.22,260.36L391.70,259.10L392.92,255.80L398.13,260.51L422.52,272.34L462.03,268.78L476.09,282.12L489.65,275.64L492.88,279.79L496.87,277.50L503.17,279.15L504.63,287.15L510.47,290.20L518.36,299.48L527.59,293.28L532.66,293.83L533.25,287.60L539.00,287.45L539.66,284.36L552.05,280.70L554.38,275.88L562.80,277.71L563.66,272.48L568.10,275.83L566.55,271.88L571.95,273.07L579.64,283.18L586.42,287.56L590.10,286.65L597.33,279.54L593.79,265.23L601.02,255.76L617.32,255.59L623.80,253.20L628.73,257.77L637.07,258.27L644.03,247.33L642.03,239.68L637.48,234.95L637.87,231.19L642.83,231.64L642.41,229.36L654.43,219.51L661.63,204.35L666.34,201.70L665.23,200.44L671.47,197.69L680.30,198.60L681.11,195.91L703.73,210.76L698.18,232.50L702.79,234.72L713.67,231.29L717.04,234.38L716.62,239.91L713.25,243.56L711.27,273.92L707.78,290.02L714.55,309.93L720.11,315.46L730.30,314.64L753.81,296.70L775.90,292.58L783.29,279.77L798.66,273.42L811.37,263.39L821.86,262.32L836.75,265.84L835.96,271.86L828.08,276.99L834.30,279.98L860.87,271.86L862.88,267.51L867.32,267.72L867.97,265.93L879.39,269.37L887.12,268.14L900.00,279.04L894.54,280.19L890.51,274.58L885.06,279.06L878.22,279.01L875.81,282.64L870.90,283.33L880.57,293.06Z" fill="currentColor" fill-rule="evenodd"/></svg>
