<svg xmlns="http://www.w3.org/2000/svg" viewBox="0 0 1000 1000" role="img" aria-label="Map of Albania"><path d="M588.82,284.04L569.08,344.08L575.93,383.53L557.85,392.97L559.42,407.83L577.02,432.46L565.34,448.23L569.01,476.25L584.36,513.89L599.71,518.73L612.36,561.69L622.12,566.85L636.36,558.81L660.16,566.58L657.57,600.91L676.13,634.18L671.51,658.27L656.20,678.51L636.87,678.75L623.03,691.91L622.99,707.66L608.75,729.98L598.46,778.85L555.58,786.86L544.34,805.43L528.66,807.24L548.44,852.00L543.37,860.96L525.09,855.74L528.37,878.70L505.94,900.00L487.02,887.86L467.00,886.82L471.14,839.39L450.51,828.58L457.44,819.68L441.93,791.75L423.38,786.95L415.82,774.55L364.63,747.13L327.37,692.33L339.06,689.61L354.12,716.29L364.37,711.42L365.14,683.44L353.16,673.38L347.69,665.45L346.70,659.75L356.12,669.66L360.31,656.95L352.55,649.10L346.70,657.78L330.32,630.63L341.53,615.62L343.19,591.13L350.76,586.20L352.25,573.45L345.66,563.00L357.58,552.30L357.58,572.54L374.05,559.72L368.47,537.98L365.31,550.89L358.95,556.09L364.83,545.31L357.52,533.20L357.78,500.54L372.69,470.71L366.99,457.44L353.20,453.17L348.06,429.06L355.15,432.30L372.69,402.58L357.58,383.50L391.92,378.22L380.88,363.57L387.67,321.62L355.99,308.42L342.44,312.72L338.72,283.78L343.92,245.95L323.87,225.69L393.68,113.21L409.16,100.00L418.48,114.82L416.15,134.58L426.16,147.78L465.54,138.19L477.02,125.73L499.65,142.71L516.65,188.78L535.73,189.32L565.34,212.43L576.71,233.79L588.82,284.04Z" fill="currentColor" fill-rule="evenodd"/></svg>
