<svg xmlns="http://www.w3.org/2000/svg" viewBox="0 0 1000 1000" role="img" aria-label="Map of Algeria"><path d="M249.56,633.38L100.00,532.87L100.14,471.10L141.18,440.52L151.63,440.79L159.48,435.27L173.56,438.03L176.81,434.96L187.91,432.81L213.36,430.67L214.71,434.65L221.75,434.65L235.83,414.72L257.22,401.22L266.96,391.40L295.12,382.51L294.58,376.99L298.64,371.77L291.79,362.10L287.48,362.37L288.55,355.04L294.04,352.76L294.58,341.41L326.80,334.97L322.50,323.82L324.73,322.60L338.87,320.15L389.46,322.02L390.03,319.54L385.61,318.60L388.15,310.29L396.37,304.25L381.20,293.37L375.96,284.98L378.25,279.42L371.49,271.62L373.69,257.73L368.68,251.24L371.66,234.70L366.24,221.83L370.37,217.12L363.86,211.99L367.79,205.64L351.36,194.13L350.24,190.37L360.55,190.99L368.12,188.60L377.83,181.32L386.18,178.29L390.50,168.99L396.33,164.33L405.29,160.32L412.08,162.56L416.07,160.07L417.77,155.22L422.84,154.48L425.28,157.94L433.12,159.42L437.68,156.40L441.27,148.17L449.60,141.36L476.82,129.03L488.51,126.48L512.77,125.75L527.44,122.38L537.09,124.23L549.97,114.91L557.99,117.85L561.36,114.75L571.17,116.29L586.41,110.14L621.79,111.10L634.10,116.11L633.53,118.94L641.83,122.18L648.04,121.20L658.46,113.87L676.41,110.80L679.11,105.73L684.88,102.43L689.86,103.93L692.00,107.69L705.52,111.34L716.54,107.96L717.41,105.84L714.55,103.14L716.14,102.57L735.12,108.13L738.45,106.79L737.48,111.34L742.71,113.11L755.28,108.35L764.20,110.83L769.59,109.17L771.11,113.69L762.26,115.99L764.14,118.24L762.92,121.32L752.83,127.32L760.11,131.51L755.60,157.96L759.31,170.68L757.65,180.02L762.96,183.68L757.89,191.32L755.41,209.75L739.73,219.99L737.16,227.44L727.56,234.00L726.10,242.83L734.95,263.86L735.60,271.91L749.62,277.93L757.21,289.24L759.08,302.79L786.73,322.80L805.12,403.68L796.09,408.59L810.86,430.92L816.99,451.97L817.97,467.01L815.09,489.76L821.18,509.08L812.93,532.58L816.97,548.88L820.11,551.65L819.71,560.63L817.37,567.15L803.69,573.81L799.63,581.87L824.04,618.62L824.97,639.47L831.22,644.14L833.11,650.94L839.63,656.28L850.81,652.65L883.44,664.00L900.00,698.24L726.21,814.31L660.81,876.76L565.46,897.57L556.59,890.55L562.66,879.45L560.26,860.49L550.47,855.17L529.33,850.13L521.60,840.59L516.58,843.25L509.61,842.44L505.22,839.25L500.62,835.16L500.03,829.67L496.76,826.39L489.18,823.74L486.58,820.42L481.07,820.18L480.76,804.26L249.56,633.38Z" fill="currentColor" fill-rule="evenodd"/></svg>
