<svg xmlns="http://www.w3.org/2000/svg" viewBox="0 0 1000 1000" role="img" aria-label="Map of Angola"><path d="M224.32,114.32L208.74,120.45L201.61,131.27L188.12,138.94L193.08,145.25L191.83,178.30L174.66,180.48L171.02,171.95L175.68,166.42L175.74,163.09L169.72,146.55L163.88,138.40L168.33,140.40L170.43,136.59L169.04,135.82L168.18,138.88L163.10,136.86L170.08,130.60L173.34,122.10L176.08,124.21L181.07,122.69L184.82,112.57L198.44,109.86L206.37,100.00L212.59,101.22L224.32,114.32Z M851.05,480.12L853.56,503.61L856.47,511.47L850.31,524.96L852.36,535.94L850.29,555.17L854.69,568.84L848.82,579.20L845.19,592.57L852.96,604.99L736.70,604.99L736.93,790.59L740.46,795.65L738.53,795.65L741.07,802.24L743.93,803.11L742.46,807.71L746.58,815.91L751.54,819.89L757.05,820.37L767.11,834.01L778.73,842.76L781.88,849.46L795.31,856.74L806.30,870.98L813.81,871.55L817.35,877.11L702.58,899.01L689.61,894.09L669.18,900.00L655.33,897.29L642.14,889.65L624.77,892.05L610.94,890.08L609.62,891.73L603.96,888.93L589.50,889.91L579.45,886.66L558.94,886.39L551.57,883.36L544.72,876.93L533.83,862.38L289.54,862.27L276.49,864.35L250.07,846.66L247.68,840.11L229.65,836.64L213.59,841.26L209.63,845.66L195.18,853.26L186.59,851.44L176.51,852.69L172.37,848.26L167.62,847.67L152.33,855.02L148.63,853.54L149.21,825.92L151.26,829.19L152.31,808.96L149.84,786.71L151.44,781.96L147.33,772.48L148.27,769.07L151.33,767.32L153.59,768.75L162.09,758.41L165.79,735.88L170.91,732.10L169.17,727.72L178.24,707.58L181.61,688.98L180.63,674.24L183.02,671.91L181.46,668.97L186.46,656.44L191.46,655.07L192.20,629.89L199.05,625.05L200.32,619.90L206.36,616.22L216.91,603.87L216.60,594.15L230.35,581.55L242.68,579.71L247.08,575.28L249.17,568.04L256.89,560.84L265.66,534.00L265.06,515.82L268.78,494.28L268.60,484.42L262.16,473.78L264.48,468.72L250.43,452.80L249.36,445.20L238.34,427.57L238.90,422.27L231.08,410.78L233.04,407.33L229.66,393.01L219.87,375.81L219.64,372.54L225.05,363.99L227.94,362.74L222.54,368.11L220.83,375.22L232.97,357.04L235.01,355.93L231.47,359.94L236.60,356.00L241.95,355.94L243.72,349.89L239.76,339.07L241.94,338.27L241.88,332.01L211.45,268.60L210.50,247.86L207.40,248.01L194.23,231.46L178.63,203.02L179.25,200.02L181.74,198.96L182.51,201.40L199.69,196.06L209.58,196.22L215.91,193.25L219.27,188.56L230.72,185.93L239.79,187.94L241.97,185.93L274.36,185.07L310.78,188.76L410.84,185.83L416.40,188.30L422.31,187.73L427.04,189.94L427.83,199.62L434.48,205.45L433.30,221.63L436.86,235.90L440.59,242.91L445.31,245.03L448.66,253.87L447.97,257.07L446.13,256.56L447.08,265.01L449.98,270.48L455.57,273.67L456.19,277.41L460.36,278.12L458.75,280.73L466.68,289.67L468.38,297.21L476.23,304.85L475.18,306.72L481.07,312.54L481.07,316.11L484.73,317.43L500.14,314.26L506.69,317.83L513.38,318.07L514.66,312.97L536.94,311.51L537.45,307.68L550.22,307.69L552.25,311.77L585.72,311.77L585.73,286.68L590.80,286.74L594.79,281.13L592.67,271.54L593.30,262.03L596.48,256.07L595.29,253.12L639.73,253.12L641.18,248.23L657.98,248.08L652.97,261.40L652.74,269.80L725.49,269.63L729.86,280.56L723.70,311.50L729.65,320.86L734.63,338.40L729.80,361.30L729.32,384.02L725.89,394.13L730.89,408.84L741.07,421.65L747.06,424.94L755.89,450.57L753.50,457.21L756.24,473.61L747.38,478.95L751.89,492.20L751.53,502.24L763.19,496.22L766.68,490.10L779.73,493.28L786.94,490.72L796.21,493.62L806.71,491.82L821.62,485.32L843.35,489.28L851.05,480.12Z M144.55,809.73L142.64,813.94L147.79,823.19L146.36,810.04L144.55,809.73Z" fill="currentColor" fill-rule="evenodd"/></svg>
