<svg xmlns="http://www.w3.org/2000/svg" viewBox="0 0 1000 1000" role="img" aria-label="Map of Antigua and Barbuda"><path d="M619.31,782.32L636.02,744.28L609.19,730.53L675.31,661.93L741.38,716.83L753.96,689.34L787.27,703.08L771.45,731.23L826.63,751.76L800.39,751.76L809.26,802.90L762.90,796.56L759.89,842.42L721.78,812.96L649.92,823.93L619.31,782.32Z M662.19,235.08L628.68,136.74L669.37,214.46L645.39,126.75L663.28,100.00L669.37,131.50L743.45,159.24L768.87,239.99L727.71,283.11L662.19,235.08Z M169.64,900.83L173.85,904.45L177.35,903.50L182.86,896.79L181.04,893.27L172.14,893.97L169.14,896.76L169.64,900.83Z" fill="currentColor" fill-rule="evenodd"/></svg>
