<svg xmlns="http://www.w3.org/2000/svg" viewBox="0 0 1000 1000" role="img" aria-label="Map of Argentina"><path d="M432.61,124.90L435.64,117.74L440.31,115.41L441.24,110.54L449.31,106.98L450.91,100.00L459.91,107.87L473.56,107.45L481.55,110.09L486.66,126.09L493.77,105.31L515.31,105.22L518.69,112.46L525.93,118.07L531.29,130.00L547.24,143.77L549.19,148.54L561.80,153.62L567.52,153.39L590.59,171.90L610.47,181.62L613.84,190.85L610.09,194.15L608.24,201.57L602.99,205.68L602.47,216.97L593.53,229.13L594.45,232.98L605.43,231.62L621.29,237.09L633.23,236.31L635.99,239.48L641.18,232.56L648.14,236.04L654.56,224.89L659.76,224.26L666.26,216.83L669.90,191.10L672.78,193.85L679.01,189.17L679.34,191.63L682.90,192.40L687.58,207.57L684.41,229.14L677.87,231.22L675.80,235.67L666.04,238.03L664.00,243.09L660.84,244.09L661.81,245.83L656.45,247.37L647.81,255.00L649.28,259.04L645.30,258.51L635.46,275.15L631.89,277.34L622.91,291.55L619.19,293.07L618.55,297.06L612.74,301.93L607.92,310.76L609.68,318.40L604.42,332.99L606.22,335.97L604.92,340.74L602.02,343.05L604.02,352.37L601.69,357.39L603.07,370.87L597.73,372.13L595.49,386.63L598.71,398.24L595.09,400.65L599.90,409.52L614.85,418.08L619.99,423.75L622.27,428.38L618.04,435.26L617.78,441.52L625.83,451.07L629.57,449.43L630.86,456.26L630.59,464.12L615.50,485.88L614.16,492.82L599.60,501.76L571.98,510.08L539.55,514.24L523.32,509.11L525.31,512.87L524.34,520.09L530.02,522.74L525.12,521.43L529.42,524.83L528.32,533.72L524.72,533.47L523.69,542.62L521.24,545.41L525.49,551.27L524.26,554.10L527.05,553.08L524.11,559.00L516.73,563.05L509.75,565.78L496.94,565.88L491.62,562.05L475.62,557.82L478.75,557.18L477.78,555.41L471.46,558.27L473.85,588.35L483.73,592.23L481.44,596.26L484.40,596.85L490.83,596.40L491.50,592.59L486.39,591.82L497.15,587.98L500.36,593.32L499.94,604.18L490.75,607.36L488.05,604.75L488.97,601.39L484.54,598.30L474.96,601.84L474.00,604.98L487.09,609.70L475.00,615.92L467.71,626.11L470.43,635.06L468.13,639.02L469.86,643.02L468.68,646.62L461.82,650.27L460.24,653.68L464.12,656.62L460.93,659.77L451.33,658.09L445.75,660.38L446.18,662.31L444.03,661.61L445.23,663.45L437.59,664.43L425.36,682.13L424.53,686.24L428.29,695.95L440.28,706.51L455.49,707.95L459.91,711.27L458.01,724.20L454.50,724.14L447.77,727.13L456.95,724.87L459.59,729.17L456.47,729.00L456.66,733.14L453.06,733.37L448.67,738.89L434.11,746.61L425.77,754.83L420.60,763.58L424.81,760.83L419.40,778.43L410.98,781.33L405.09,772.68L403.48,771.95L406.54,776.76L398.32,778.69L406.42,777.79L410.83,782.08L400.90,786.45L397.13,791.97L396.00,800.23L390.84,804.57L395.41,802.03L399.28,816.02L391.47,815.95L386.95,817.59L392.84,816.83L394.83,819.06L399.07,817.46L410.53,833.97L409.23,836.00L408.85,833.81L380.62,826.78L342.70,825.89L342.39,822.87L333.57,815.84L337.17,808.45L334.43,805.10L337.04,801.61L336.34,794.11L327.81,793.33L319.86,796.53L317.85,786.51L313.21,781.89L312.42,776.88L314.44,772.73L322.08,767.80L319.98,759.01L323.02,754.22L330.39,750.12L331.18,741.28L336.35,738.76L335.59,732.10L331.80,728.36L335.24,717.20L338.84,716.16L341.48,711.11L344.30,711.69L341.95,707.84L342.99,701.88L347.94,698.90L346.51,688.19L343.66,685.97L349.35,681.60L346.60,678.65L346.48,672.02L351.68,670.25L354.91,664.68L349.80,657.73L340.66,655.90L340.38,653.03L355.28,653.34L358.58,647.42L356.94,644.49L344.68,643.28L344.71,636.80L348.46,632.44L345.46,628.39L347.43,624.64L342.89,620.83L346.89,614.73L339.61,611.17L339.25,600.36L341.31,597.68L339.53,593.03L341.30,589.59L347.02,588.13L343.44,577.76L344.85,560.58L342.89,555.33L348.19,545.80L345.37,543.06L349.27,535.84L347.43,528.42L351.40,528.43L353.36,511.81L361.93,507.88L363.95,503.97L357.40,482.84L357.02,472.90L359.21,468.35L357.21,461.99L360.08,453.46L366.19,451.78L366.35,448.21L372.44,443.23L371.66,426.35L368.83,424.01L372.45,421.77L373.77,411.65L378.65,400.72L382.96,399.33L381.35,388.23L383.73,378.79L382.81,376.06L379.54,376.86L377.67,373.74L379.73,366.70L376.80,363.37L372.40,346.89L375.13,344.23L370.99,341.73L368.62,335.22L369.01,328.88L370.69,323.89L372.03,325.18L374.71,322.44L373.34,320.08L376.47,306.29L380.40,306.53L382.83,301.41L380.10,299.26L381.32,292.84L378.97,280.62L383.43,275.84L386.27,258.99L394.99,248.25L402.07,228.26L406.38,229.29L411.19,226.45L411.66,222.92L406.20,212.32L409.71,204.79L406.00,187.78L407.69,181.69L410.51,180.24L406.63,171.74L412.81,162.49L429.86,153.24L436.00,129.19L432.61,124.90Z M405.79,901.93L411.03,899.92L412.65,896.21L410.13,890.41L405.94,888.00L401.35,889.49L399.37,893.89L399.56,898.21L405.79,901.93Z M405.32,893.53L405.59,841.98L411.55,848.54L413.16,853.11L410.83,851.04L407.04,856.39L415.32,858.92L417.73,865.11L425.49,872.49L446.02,885.90L458.04,890.27L471.27,890.26L467.18,896.99L455.74,896.39L446.61,900.00L435.68,896.47L405.32,893.53Z M482.57,891.91L496.33,892.25L481.02,896.43L478.49,894.72L482.94,893.50L482.57,891.91Z M533.72,512.65L526.35,511.81L523.97,514.76L525.79,520.81L530.95,524.12L537.26,521.93L536.85,515.87L533.72,512.65Z M532.79,520.36L536.08,517.29L534.30,510.67L528.57,508.75L523.29,511.70L522.80,516.09L525.71,519.41L532.79,520.36Z M523.28,544.99L521.41,551.36L523.09,553.99L530.43,555.84L534.02,551.30L533.87,546.35L529.01,542.38L523.28,544.99Z M523.89,540.20L526.16,548.38L529.17,550.62L532.82,549.76L534.63,542.36L532.32,538.32L526.39,537.11L523.89,540.20Z" fill="currentColor" fill-rule="evenodd"/></svg>
