<svg xmlns="http://www.w3.org/2000/svg" viewBox="0 0 1000 1000" role="img" aria-label="Map of Armenia"><path d="M495.18,100.00L503.36,130.58L528.48,133.82L544.96,148.72L536.63,160.22L511.68,159.18L512.24,175.28L522.58,179.42L524.85,169.50L573.41,196.86L600.29,190.03L599.62,208.50L645.71,241.02L634.78,269.40L588.82,302.79L592.39,324.48L627.30,380.01L741.58,451.70L737.48,478.70L714.98,522.19L655.90,517.03L640.73,535.24L681.93,545.02L700.61,578.43L741.58,601.73L793.29,659.50L833.52,651.14L846.82,664.97L879.07,672.23L870.78,701.31L837.85,719.82L898.83,784.03L876.51,794.27L846.53,790.73L870.91,828.07L866.66,871.20L876.49,893.91L842.23,879.89L781.09,900.00L736.25,805.12L743.24,772.84L685.94,733.26L697.15,707.32L695.63,678.26L687.66,669.94L642.50,675.27L604.26,693.91L573.52,679.09L560.14,657.37L531.99,665.43L532.80,634.95L503.02,601.10L437.70,623.38L416.89,593.64L393.22,581.12L374.04,547.32L324.47,513.98L268.68,513.56L250.50,522.57L157.93,489.09L154.67,479.59L172.05,469.57L139.97,411.53L147.81,386.90L131.21,367.87L154.67,350.88L168.46,323.68L171.85,273.92L150.55,217.66L106.23,188.21L101.17,160.61L180.31,160.07L207.83,143.34L273.79,137.05L287.81,119.95L314.21,132.83L329.33,125.45L357.08,136.25L372.65,127.56L381.44,137.39L396.92,122.20L456.18,126.88L444.44,110.53L449.35,105.64L483.26,109.15L495.18,100.00Z M489.39,168.70L486.23,180.97L498.54,188.09L499.34,171.06L489.39,168.70Z M541.69,205.36L550.19,202.66L539.26,197.78L541.69,205.36Z M624.15,326.97L615.47,324.38L615.47,311.05L636.01,311.91L624.15,326.97Z" fill="currentColor" fill-rule="evenodd"/></svg>
