<svg xmlns="http://www.w3.org/2000/svg" viewBox="0 0 1000 1000" role="img" aria-label="Map of Austria"><path d="M878.68,358.06L878.87,368.10L870.28,380.82L868.13,395.23L879.65,409.64L882.55,427.07L892.86,436.99L891.75,446.65L900.00,451.36L893.42,456.86L891.53,470.65L884.87,473.51L890.28,481.44L889.74,494.12L892.35,497.63L874.23,501.75L868.73,496.94L863.20,502.78L839.11,490.51L822.33,504.98L845.66,511.11L851.84,524.19L846.35,531.18L846.77,537.45L825.07,546.19L824.06,554.24L829.19,564.90L823.75,570.14L822.85,578.87L825.89,580.43L825.04,585.32L833.00,586.60L827.21,595.30L831.28,600.37L824.09,604.28L830.57,608.26L808.39,607.36L791.10,628.61L777.63,634.88L776.46,648.08L781.31,659.35L763.90,650.97L741.37,652.04L740.43,657.76L731.93,659.16L723.19,668.08L715.38,663.26L681.16,662.64L671.22,670.32L667.70,667.07L658.97,670.19L652.49,684.91L631.68,696.16L626.45,704.86L622.45,698.67L611.30,695.14L585.50,695.29L575.02,688.38L515.03,676.04L489.13,677.82L402.48,656.32L395.94,644.63L388.23,640.98L387.97,628.58L373.31,622.23L371.66,609.12L381.35,599.72L378.95,594.75L332.19,612.61L304.60,606.93L298.24,612.63L273.42,613.67L264.75,621.68L260.66,636.87L254.79,644.01L226.05,641.31L227.73,634.59L218.10,629.26L201.23,631.97L197.82,629.16L198.31,617.91L189.39,608.62L181.24,620.08L174.89,619.98L171.35,628.78L161.90,631.86L137.13,619.34L135.33,605.62L106.30,599.17L109.92,591.40L103.24,582.03L100.00,567.08L113.46,544.19L113.55,537.58L102.76,524.73L116.31,526.59L127.37,516.34L130.62,523.61L144.55,523.77L148.40,533.07L152.60,532.00L158.68,541.43L155.81,544.94L158.92,552.08L172.18,549.99L166.99,565.78L182.31,560.94L195.15,546.32L197.63,539.66L194.24,531.20L195.24,518.12L200.84,525.00L211.45,520.38L230.02,527.99L240.29,525.34L243.81,527.80L240.26,532.43L250.90,540.64L252.96,547.17L275.44,541.19L279.97,546.64L295.38,538.71L293.45,534.90L298.39,529.17L312.93,527.98L320.19,516.15L378.21,513.74L381.69,507.43L378.52,498.05L385.41,493.96L385.04,502.24L404.49,500.27L412.09,510.03L428.50,502.83L439.92,504.12L445.29,512.69L441.70,521.57L465.09,535.41L468.80,531.20L472.45,505.27L466.97,496.94L453.56,495.28L463.97,476.03L438.76,440.56L438.15,433.41L468.33,411.13L493.65,404.35L507.43,393.52L512.57,362.85L530.38,364.11L540.04,370.91L549.05,356.88L550.57,343.81L547.08,340.74L550.45,332.77L567.92,342.11L573.42,349.18L571.37,355.53L577.63,360.00L603.90,365.15L617.83,351.98L640.64,362.41L643.60,347.32L653.73,331.20L668.33,333.34L672.78,295.14L689.08,297.46L689.55,306.12L699.64,304.05L703.46,298.44L746.13,318.43L760.52,316.27L788.51,336.44L817.14,338.88L825.25,328.39L834.05,326.67L847.01,330.93L850.36,337.84L871.12,340.16L878.68,358.06Z" fill="currentColor" fill-rule="evenodd"/></svg>
