<svg xmlns="http://www.w3.org/2000/svg" viewBox="0 0 1000 1000" role="img" aria-label="Map of Australia"><path d="M443.66,500.66L427.29,490.85L422.14,493.19L398.44,494.04L369.94,504.89L350.84,504.89L333.34,515.34L323.91,518.33L320.20,527.63L313.85,534.16L308.31,535.41L306.35,532.79L292.51,535.58L291.18,532.09L281.16,531.99L261.31,533.94L254.90,537.74L254.71,541.98L249.80,544.59L243.98,543.20L234.43,553.11L229.01,553.37L230.69,554.88L211.15,553.70L207.42,550.31L201.32,549.93L195.86,543.08L186.89,539.55L186.57,526.82L192.21,528.76L197.32,522.42L195.69,511.71L197.19,509.10L196.27,511.63L197.38,513.80L197.49,496.09L187.64,474.11L184.39,449.26L174.30,431.64L172.01,417.73L159.26,397.28L161.03,398.74L161.48,394.55L161.81,399.44L162.65,401.34L162.33,394.84L164.18,403.05L164.58,399.43L165.35,404.55L166.24,402.35L166.90,406.09L169.03,405.15L170.11,400.64L165.53,396.18L163.19,389.83L164.60,385.99L168.20,392.59L167.77,398.08L169.66,393.63L172.15,401.48L175.32,400.18L175.68,391.83L167.24,378.88L162.76,366.73L163.77,357.88L168.38,349.92L168.96,340.66L166.56,334.45L171.04,323.46L174.40,320.84L173.48,332.70L176.86,332.98L181.47,321.54L193.87,315.53L204.57,304.03L208.38,303.46L213.43,298.54L214.40,301.66L218.85,299.62L221.83,301.93L227.53,300.72L233.71,295.40L243.47,294.08L247.79,288.56L255.16,290.30L278.10,280.72L288.28,262.12L296.27,256.11L296.22,253.69L293.62,253.60L293.66,241.00L298.14,235.00L299.96,235.90L299.77,232.53L303.33,232.53L302.41,229.45L304.75,226.14L306.30,225.55L305.40,229.03L314.51,246.87L314.87,236.14L319.62,240.20L317.85,236.41L320.21,233.39L317.82,234.48L313.60,230.32L315.08,228.43L312.32,227.46L316.61,226.38L314.50,221.94L318.03,222.19L318.87,226.38L320.80,225.47L319.58,222.65L324.23,225.78L334.39,225.90L326.90,224.62L327.38,219.84L328.67,221.93L331.83,215.43L328.16,218.80L326.52,210.48L331.09,209.58L330.80,205.65L338.58,210.35L337.97,206.75L334.11,206.47L336.64,204.10L333.88,205.65L333.46,203.73L336.89,200.70L338.28,204.10L338.28,201.45L342.26,203.67L337.84,196.61L341.00,192.44L342.37,194.90L343.18,192.30L344.60,193.26L345.03,187.60L346.75,188.43L345.32,194.83L346.74,190.68L349.51,194.88L352.88,187.10L350.32,184.05L352.16,184.11L352.01,181.73L355.03,187.71L358.59,182.42L357.48,185.03L359.72,187.71L363.60,179.16L367.57,183.10L371.87,182.65L383.99,196.30L380.90,209.98L382.41,204.45L384.85,208.31L383.46,202.25L385.22,199.58L387.25,202.00L386.33,197.79L388.48,196.90L396.98,199.59L397.72,205.18L398.86,198.38L406.29,204.65L405.13,198.31L410.10,197.84L410.26,196.42L406.82,198.08L404.22,194.45L407.22,193.02L403.43,193.26L401.01,189.46L402.64,184.58L406.42,183.53L408.74,173.79L409.89,175.42L415.31,172.18L412.19,168.99L412.29,165.05L415.11,164.44L417.91,159.00L419.10,160.98L420.69,160.83L418.98,155.56L422.04,156.16L423.77,159.76L422.65,155.56L426.03,155.08L425.66,151.10L429.10,152.67L429.68,149.28L431.94,153.61L438.64,152.31L441.04,153.91L443.92,151.26L445.95,155.20L446.73,151.24L451.47,150.86L449.02,144.72L450.54,142.42L447.56,139.31L441.76,140.13L436.71,136.40L439.96,133.21L442.78,138.08L442.38,133.35L444.43,135.65L445.29,133.08L450.22,139.87L453.76,136.77L457.57,143.32L463.01,144.10L463.01,146.15L468.74,143.63L467.66,145.97L472.05,146.40L472.76,149.86L481.45,147.59L488.14,153.80L498.32,144.28L495.59,148.57L498.56,147.95L494.62,152.09L495.81,153.99L500.60,149.65L498.84,152.27L500.70,152.60L500.31,156.70L504.05,155.82L505.22,152.43L502.45,151.52L508.34,146.69L506.82,148.27L509.70,153.15L511.15,151.40L514.47,154.59L510.84,156.88L508.91,163.11L506.84,162.12L509.61,166.02L507.21,165.66L506.85,170.35L504.61,171.51L504.77,166.92L502.17,170.71L502.01,168.24L500.60,171.58L499.93,169.88L498.07,171.82L498.12,178.64L500.97,177.74L498.46,187.10L490.39,196.38L491.90,200.34L503.16,208.43L510.48,217.70L514.59,216.44L525.84,223.26L532.37,231.08L544.66,234.57L548.62,242.53L559.43,248.82L567.24,247.49L572.04,244.16L580.78,219.91L584.27,201.45L581.32,181.31L584.69,170.50L583.05,165.84L586.42,160.25L588.34,164.48L589.38,161.08L585.45,156.51L583.15,158.02L586.74,148.62L589.75,149.24L588.47,146.69L591.51,130.07L597.40,125.44L596.74,130.02L598.06,128.56L600.32,130.50L602.26,137.66L602.11,145.65L607.88,147.95L605.31,154.29L610.63,159.29L609.51,163.99L612.27,163.15L612.07,179.28L615.83,190.74L618.20,192.66L626.32,186.52L629.17,193.44L639.13,200.24L637.62,208.78L640.87,219.89L639.95,226.62L645.52,236.20L648.22,234.18L647.13,237.45L651.09,247.53L649.04,258.14L653.95,263.25L653.86,270.84L662.38,276.92L664.16,274.68L665.79,278.78L670.08,278.82L669.79,276.90L674.00,286.12L676.08,284.12L677.65,287.34L682.86,288.54L684.70,292.63L687.05,290.07L690.36,293.37L692.67,298.54L689.16,296.86L688.55,299.20L691.04,304.80L694.45,304.94L697.06,308.30L697.97,315.70L700.88,316.14L703.50,332.98L705.73,330.94L709.22,335.64L707.38,329.54L709.32,326.79L717.60,335.03L716.63,330.75L718.62,330.59L720.84,336.57L720.66,350.83L731.64,361.06L735.06,359.85L740.17,369.86L745.34,373.62L746.80,380.17L751.96,382.09L753.56,394.07L754.16,391.40L756.31,393.47L754.35,400.18L756.38,413.55L753.82,415.59L759.89,426.10L762.65,441.40L753.59,475.04L754.13,483.86L746.48,500.85L746.39,507.85L739.24,512.35L741.10,513.56L735.34,515.79L729.75,526.94L726.87,527.06L727.62,534.40L724.85,535.49L726.88,535.95L720.46,544.88L722.19,545.85L719.36,550.61L721.11,554.18L718.89,553.28L719.84,555.96L716.78,556.57L711.37,565.59L706.67,589.66L709.32,592.70L708.30,596.69L704.32,597.04L700.94,601.74L683.27,602.45L675.09,605.29L661.53,617.59L652.23,618.11L653.16,621.55L656.00,619.80L654.77,625.68L651.60,620.82L647.71,621.49L646.05,616.98L639.54,614.99L642.28,612.32L640.90,609.68L637.79,609.80L637.39,612.82L633.15,614.52L629.16,611.41L633.73,611.55L635.76,608.35L633.01,603.23L624.63,607.64L629.58,608.12L628.80,610.58L625.06,610.85L612.17,620.64L596.75,612.14L585.71,610.16L582.66,613.28L580.23,612.61L576.35,607.80L565.38,604.14L556.38,592.70L554.55,587.16L557.31,581.56L555.40,576.94L551.34,569.66L543.31,562.96L551.20,569.12L554.55,574.40L551.62,568.58L545.15,563.44L546.85,561.67L549.57,564.90L547.80,561.73L549.94,559.44L547.18,558.36L543.95,560.09L544.99,561.92L541.46,561.33L544.43,562.44L537.54,564.17L531.22,563.73L536.16,558.84L537.83,548.98L530.79,537.50L525.89,555.12L512.32,557.32L515.01,551.09L521.37,551.37L521.46,537.98L528.59,528.50L526.80,522.23L530.22,519.10L526.25,509.22L526.32,517.36L521.46,520.12L518.07,529.14L508.86,533.53L501.32,544.64L498.86,544.64L496.82,549.40L500.05,548.32L499.28,552.95L496.57,550.31L494.33,551.99L489.19,545.65L486.51,545.72L488.03,542.83L490.43,546.28L492.41,546.00L487.73,533.36L482.53,528.76L480.52,520.70L474.96,521.26L471.01,516.42L471.09,512.63L473.18,514.26L474.43,512.01L472.20,508.12L467.97,509.69L469.24,506.93L464.76,501.87L459.12,503.93L451.75,499.22L443.66,500.66Z M376.85,201.64L378.27,207.47L382.99,210.24L386.99,208.90L388.95,205.18L387.35,199.00L383.51,196.34L378.98,197.48L376.85,201.64Z M381.43,195.61L381.68,204.04L386.26,207.37L392.37,203.57L388.30,194.03L381.43,195.61Z M408.48,193.00L402.74,191.51L398.46,194.76L398.56,201.23L402.61,205.05L408.12,204.29L410.99,199.51L408.48,193.00Z M403.40,192.16L399.50,193.35L397.89,200.03L401.85,205.60L405.58,206.00L408.71,203.94L409.75,198.94L408.29,195.09L403.40,192.16Z M352.43,183.67L355.03,187.18L360.12,188.11L364.73,185.70L365.87,180.63L362.75,176.48L358.41,175.27L354.59,176.43L352.43,183.67Z M477.25,152.29L481.79,156.64L486.51,156.13L489.54,152.46L489.59,147.24L485.53,143.54L480.34,143.35L476.77,147.12L477.25,152.29Z M479.14,153.59L487.17,155.17L490.72,151.46L490.42,146.34L485.30,142.74L479.86,143.65L477.13,148.45L479.14,153.59Z M487.84,140.94L482.33,141.62L479.42,145.63L480.67,151.63L484.28,153.95L489.26,153.19L492.84,149.25L492.23,143.96L487.84,140.94Z M455.83,137.85L455.81,146.46L463.39,147.85L467.96,143.71L468.06,139.58L465.48,136.35L459.57,135.78L455.83,137.85Z M459.48,133.43L454.84,140.50L456.64,144.85L460.99,146.64L466.67,144.46L468.75,140.78L467.46,135.78L463.93,133.05L459.48,133.43Z M678.68,697.50L676.96,695.76L675.61,697.74L673.15,694.20L674.12,692.32L677.02,694.05L676.32,691.72L671.75,690.57L672.13,693.05L670.30,694.26L670.91,691.84L668.03,689.55L667.64,697.92L663.39,695.75L665.28,698.71L663.24,699.43L662.71,704.20L659.48,704.50L657.16,701.70L649.25,703.16L648.04,699.86L652.31,699.07L647.65,696.89L646.38,698.59L637.94,686.49L636.79,679.31L641.02,684.88L642.30,681.87L639.13,678.46L637.39,679.31L637.06,675.28L630.25,665.57L628.10,658.23L629.49,652.32L635.75,655.15L637.99,653.37L646.05,658.76L657.62,661.45L659.98,659.44L660.94,661.04L663.04,661.12L661.10,659.61L664.06,657.88L670.43,658.44L673.50,655.27L676.46,656.33L678.47,653.66L681.83,655.49L683.65,658.33L684.14,679.46L682.55,680.16L681.40,674.94L677.05,685.45L678.68,697.50Z M667.61,693.27L660.27,700.61L661.60,704.34L670.05,706.90L673.62,702.43L672.85,696.34L667.61,693.27Z M667.69,689.58L662.97,697.64L666.78,702.81L671.83,702.82L675.17,700.01L675.32,695.64L671.54,689.92L667.69,689.58Z M673.78,689.01L676.88,694.19L680.98,694.14L685.80,690.44L686.77,686.57L680.09,680.56L675.84,682.22L673.78,689.01Z M682.06,674.93L677.17,677.47L676.09,682.37L679.02,686.46L685.03,688.15L688.76,685.75L689.93,681.47L686.82,676.50L682.06,674.93Z M629.11,647.53L626.50,652.69L628.35,657.40L635.18,658.71L639.10,656.85L640.48,652.74L638.47,648.89L632.73,645.99L629.11,647.53Z M677.58,655.85L683.49,656.92L687.09,653.68L688.17,647.42L685.39,644.05L679.26,643.88L674.73,648.67L677.58,655.85Z M627.03,644.18L624.85,652.61L627.59,655.99L631.93,656.32L636.36,648.13L634.77,644.25L630.92,642.62L627.03,644.18Z M634.66,654.60L639.20,649.61L638.56,644.58L634.39,641.67L628.49,642.82L625.44,648.54L629.02,653.90L634.66,654.60Z M677.13,651.05L685.56,652.43L689.29,648.54L683.91,642.71L678.25,643.89L675.46,647.05L677.13,651.05Z M673.10,637.98L679.67,647.36L685.66,644.72L684.87,638.84L678.17,633.56L673.10,637.98Z M621.77,643.15L622.16,633.25L616.63,631.88L615.59,643.63L621.77,643.15Z M652.25,622.91L660.80,624.03L664.10,620.44L663.31,615.62L659.04,613.26L652.02,614.69L650.33,618.85L652.25,622.91Z M632.24,618.73L640.90,620.46L644.27,616.76L642.33,610.50L637.14,608.44L633.13,610.13L630.52,615.04L632.24,618.73Z M637.07,618.06L645.62,615.33L645.36,608.31L641.44,605.76L635.14,606.44L633.51,615.34L637.07,618.06Z M531.56,567.17L524.09,568.82L521.56,571.85L518.11,570.04L510.48,571.50L507.75,568.85L508.72,566.13L519.71,563.07L531.56,567.17Z M506.07,562.40L511.42,560.98L513.79,556.78L512.36,551.61L507.49,548.77L502.21,550.70L499.86,555.68L501.62,560.29L506.07,562.40Z M501.74,546.03L497.36,547.36L495.94,554.74L500.55,559.61L505.55,559.35L508.41,555.95L508.08,551.53L501.74,546.03Z M514.84,540.04L514.46,547.97L518.44,550.93L522.92,550.42L525.96,547.10L526.57,542.58L523.93,538.30L519.01,537.24L514.84,540.04Z M470.90,529.62L472.24,535.52L476.54,537.78L481.18,536.35L484.45,531.77L483.79,527.52L479.62,524.27L473.91,524.75L470.90,529.62Z M467.49,510.25L471.17,504.06L468.77,499.48L463.70,498.45L459.17,500.71L457.18,504.95L458.58,509.17L462.79,511.70L467.49,510.25Z M755.82,417.91L756.59,428.03L762.73,427.92L764.90,417.37L760.62,415.13L755.82,417.91Z M761.96,421.72L763.12,409.97L756.45,409.95L754.59,413.54L755.89,419.90L758.48,422.28L761.96,421.72Z M159.75,398.27L158.24,385.55L155.98,384.34L155.02,390.76L159.75,398.27Z M746.93,385.13L752.32,389.40L757.77,387.52L759.81,382.92L758.13,378.44L753.22,375.49L748.75,376.69L746.23,380.56L746.93,385.13Z M162.55,382.60L162.04,373.99L158.19,372.57L154.71,374.75L154.45,384.96L157.51,386.53L162.55,382.60Z M163.70,375.64L163.00,369.67L156.15,368.90L154.62,379.69L160.82,381.35L163.70,375.64Z M758.76,376.84L754.73,390.35L754.07,391.05L753.46,380.75L756.62,377.52L755.29,373.82L757.44,371.65L758.76,376.84Z M722.55,354.63L723.31,359.02L727.41,362.94L734.51,359.69L731.55,350.12L727.69,349.24L722.55,354.63Z M729.91,347.64L720.89,346.89L719.07,350.12L725.47,359.46L731.63,356.58L729.91,347.64Z M698.65,328.35L698.44,333.37L701.36,337.34L706.26,337.87L709.97,334.63L710.98,329.21L708.11,325.36L702.61,324.44L698.65,328.35Z M710.09,329.96L714.28,336.05L719.90,334.67L722.57,330.81L721.55,326.22L717.00,322.39L712.96,322.88L710.09,329.96Z M705.69,319.90L701.30,327.81L704.04,332.86L708.32,333.46L711.66,330.71L712.63,324.58L710.28,320.58L705.69,319.90Z M709.08,324.93L715.16,326.54L719.41,323.13L719.95,317.00L716.02,313.38L708.12,315.43L706.49,320.40L709.08,324.93Z M716.88,313.03L711.49,311.21L707.34,313.33L705.68,318.65L708.49,324.02L714.51,324.74L718.82,321.38L719.42,316.84L716.88,313.03Z M198.35,299.66L195.33,296.16L188.96,297.75L186.14,303.01L187.90,308.41L193.83,309.28L197.70,306.04L198.35,299.66Z M689.13,295.14L688.85,300.78L693.13,304.32L699.42,302.01L701.12,295.89L697.51,291.00L692.46,291.03L689.13,295.14Z M687.41,296.05L696.55,299.67L699.81,296.32L698.39,289.67L695.35,286.73L691.13,286.85L688.27,289.96L687.41,296.05Z M687.93,295.26L692.71,298.07L696.92,295.99L698.77,291.97L697.63,286.29L694.15,284.18L689.33,285.35L686.36,289.72L687.93,295.26Z M679.14,288.54L680.28,293.49L683.59,295.89L688.77,295.46L692.02,290.52L690.65,285.06L686.24,282.31L681.28,283.82L679.14,288.54Z M660.25,267.42L655.54,269.93L654.17,273.86L656.11,278.56L662.84,280.75L667.10,277.97L668.02,272.84L665.35,268.39L660.25,267.42Z M653.54,253.10L645.93,257.23L646.56,260.80L651.43,266.63L655.35,266.55L658.68,261.21L657.15,255.62L653.54,253.10Z M548.31,243.92L557.81,241.09L558.50,236.54L555.73,232.04L551.23,230.57L545.87,235.08L545.39,240.37L548.31,243.92Z M539.94,236.03L544.65,240.30L550.99,238.40L553.37,233.13L550.23,227.80L544.15,227.08L539.86,230.92L539.94,236.03Z M548.34,234.14L555.89,230.56L557.74,225.32L552.47,223.28L546.71,225.58L544.10,231.81L548.34,234.14Z M505.38,208.87L503.02,213.27L503.92,216.99L507.84,220.62L511.91,220.50L515.67,216.49L514.93,209.68L509.87,206.92L505.38,208.87Z M511.03,206.48L506.16,208.60L504.62,212.65L505.91,218.09L509.23,220.25L514.06,219.52L518.26,214.30L516.69,208.97L511.03,206.48Z M510.58,209.81L509.36,215.79L512.48,219.55L518.26,220.22L520.95,213.82L518.91,208.98L514.39,206.91L510.58,209.81Z M507.24,204.58L501.45,210.90L502.39,215.74L507.99,218.34L512.33,217.03L514.72,210.96L512.66,205.79L507.24,204.58Z M518.92,210.90L516.42,205.34L511.92,204.31L507.47,207.85L506.68,212.82L508.68,216.81L512.93,218.19L517.60,215.30L518.92,210.90Z M323.75,200.60L319.87,205.49L321.03,210.23L325.27,212.63L330.53,211.92L333.36,208.15L333.25,203.39L329.27,199.96L323.75,200.60Z M324.85,203.11L323.19,210.25L326.90,213.90L332.76,213.01L335.76,209.32L333.97,202.93L330.64,200.42L324.85,203.11Z M331.13,195.07L327.63,200.15L329.30,205.02L334.66,207.95L339.13,206.11L340.91,201.63L339.25,195.95L335.35,193.98L331.13,195.07Z M490.03,195.46L488.90,200.96L491.23,204.60L496.47,205.90L501.69,202.91L502.11,196.90L498.24,192.45L493.54,192.33L490.03,195.46Z M332.83,191.61L334.75,199.23L341.46,198.82L343.99,195.09L341.18,187.28L337.06,186.37L332.83,191.61Z M517.51,184.39L518.89,179.33L516.45,174.86L511.62,173.26L506.88,175.50L505.06,181.52L508.86,186.54L513.59,187.04L517.51,184.39Z M499.64,173.95L496.16,180.54L498.53,184.91L504.29,186.29L508.45,183.01L509.35,177.38L505.00,172.98L499.64,173.95Z M510.53,176.20L504.64,180.58L504.01,188.82L514.58,189.69L515.38,185.44L512.43,185.34L514.46,178.96L510.53,176.20Z M496.18,171.01L498.26,179.68L501.77,181.18L505.37,179.91L508.07,173.88L501.86,167.23L496.18,171.01Z M506.26,146.86L506.72,154.59L511.10,157.32L516.21,155.88L518.52,149.65L515.42,144.38L510.30,143.62L506.26,146.86Z M441.85,155.75L447.00,157.27L450.83,155.38L452.74,150.66L450.57,145.12L444.78,143.71L439.72,146.88L438.96,151.75L441.85,155.75Z M507.15,143.34L497.50,145.13L496.13,148.81L500.31,155.02L506.49,154.13L510.00,147.11L507.15,143.34Z M513.15,147.44L512.07,141.08L507.71,138.79L502.74,140.68L500.74,145.63L502.68,151.00L506.76,152.76L510.98,151.33L513.15,147.44Z M502.46,148.42L511.20,150.56L514.49,147.01L514.94,141.71L511.14,138.00L505.85,138.58L501.46,143.57L502.46,148.42Z M498.93,149.62L505.73,145.99L506.80,141.30L504.22,137.24L498.42,136.40L493.47,140.74L495.16,148.19L498.93,149.62Z M443.32,146.36L448.00,149.51L452.81,148.21L455.68,143.69L454.24,138.36L449.83,136.38L443.62,138.04L441.78,142.14L443.32,146.36Z M506.94,134.28L498.48,140.41L497.91,144.47L500.72,147.46L507.77,145.47L511.63,140.11L510.40,135.78L506.94,134.28Z M412.39,135.51L409.01,146.40L412.28,147.81L420.43,147.38L422.12,144.78L416.52,134.32L412.39,135.51Z M432.99,137.63L432.33,141.49L424.69,147.35L417.76,142.35L415.84,134.53L420.73,138.57L424.09,136.37L425.61,138.20L427.55,135.32L428.53,137.96L429.36,134.27L432.99,137.63Z M509.08,128.81L503.77,139.49L507.25,142.03L513.20,136.32L513.80,129.39L509.08,128.81Z M444.80,128.62L445.81,138.66L451.09,140.11L453.26,134.62L450.77,127.08L444.80,128.62Z M587.77,120.52L585.50,125.39L586.57,128.63L590.77,132.17L594.45,131.76L598.54,127.88L598.10,123.06L592.36,118.32L587.77,120.52Z M586.84,124.55L589.01,129.33L592.83,131.01L597.63,129.47L600.38,125.39L598.97,119.87L592.57,117.12L587.95,119.79L586.84,124.55Z M592.39,110.00L587.03,113.64L586.81,119.37L590.79,123.28L595.63,123.50L599.26,120.05L599.41,113.97L592.39,110.00Z M595.58,110.13L590.18,108.56L585.63,112.60L585.68,118.36L590.70,122.39L595.59,120.63L597.90,115.88L595.58,110.13Z M191.94,498.58L191.44,507.67L194.61,510.07L198.71,510.23L203.08,503.82L200.15,497.63L195.86,496.54L191.94,498.58Z M194.30,506.55L200.13,503.56L200.94,498.65L197.44,494.53L192.31,494.23L187.79,497.70L187.35,502.10L189.97,505.66L194.30,506.55Z M160.62,438.52L162.99,443.30L167.53,444.78L172.82,441.72L174.57,437.10L172.56,432.59L167.51,430.82L163.33,432.41L160.62,438.52Z M651.45,265.24L652.98,271.64L657.94,273.48L663.84,271.11L665.21,266.57L662.93,262.40L657.35,259.83L651.45,265.24Z M596.57,108.20L604.24,107.14L606.55,103.00L604.90,98.56L600.44,96.94L594.26,98.77L592.60,102.21L596.57,108.20Z M589.02,94.96L585.57,99.45L586.60,104.07L592.56,106.80L597.30,105.45L599.45,101.02L598.41,96.96L594.31,94.29L589.02,94.96Z M836.66,894.92L836.98,903.10L843.93,903.30L845.96,892.63L839.51,891.36L836.66,894.92Z M837.56,492.87L839.49,497.68L843.76,499.24L849.34,496.40L850.67,492.45L849.00,488.06L843.88,485.27L839.24,486.75L837.56,492.87Z" fill="currentColor" fill-rule="evenodd"/></svg>
