<svg xmlns="http://www.w3.org/2000/svg" viewBox="0 0 1000 1000" role="img" aria-label="Map of Azerbaijan"><path d="M126.37,331.46L124.74,339.22L134.31,343.57L134.83,332.12L126.37,331.46Z M131.19,294.57L165.03,266.98L194.48,269.55L232.71,286.53L224.74,293.53L243.21,309.19L270.13,317.25L296.57,310.73L335.75,338.55L339.25,331.00L352.76,326.06L361.99,295.66L348.72,279.80L310.72,258.16L302.50,236.29L297.82,240.34L292.38,229.26L293.61,214.04L310.69,211.09L326.73,187.13L342.15,190.02L345.44,205.71L369.15,194.15L373.02,207.67L391.25,218.95L408.33,246.85L423.98,247.66L437.35,272.14L441.37,292.36L473.20,302.47L479.55,309.75L489.84,305.56L518.07,311.05L527.09,307.31L526.75,295.85L535.11,282.87L541.74,281.74L548.84,263.98L569.14,258.21L595.31,239.34L620.76,195.22L684.21,272.38L697.00,297.34L705.16,336.32L730.69,370.46L752.15,384.53L748.14,400.47L752.17,408.54L790.20,424.40L822.40,421.02L830.25,431.26L847.80,436.80L863.27,456.54L868.82,483.56L846.76,464.27L832.76,461.37L813.05,467.59L800.69,459.56L790.51,473.35L757.40,486.83L745.82,498.07L746.37,508.71L737.62,514.37L744.63,527.67L736.39,537.20L739.05,548.32L732.44,564.60L736.38,577.66L721.93,593.44L717.40,611.20L718.88,619.35L734.38,635.52L734.12,646.75L728.62,641.86L734.12,652.87L720.34,642.66L715.78,644.44L710.85,654.76L706.23,698.60L689.25,711.28L686.04,703.36L695.58,699.67L698.62,689.77L687.79,684.76L684.04,671.69L673.96,671.79L669.48,682.43L671.92,699.04L667.68,716.27L660.32,729.09L655.37,727.78L659.66,748.28L661.19,806.05L647.97,804.13L624.72,812.87L598.36,773.09L583.99,776.31L572.73,765.20L572.03,754.59L540.57,731.55L540.25,724.19L549.53,713.95L581.71,703.89L583.51,696.58L578.65,685.32L560.97,672.26L556.05,656.51L562.53,647.58L587.91,636.85L537.60,578.55L517.30,582.89L478.70,612.46L460.33,619.33L444.51,636.73L418.62,649.49L407.43,670.69L386.31,675.10L347.87,721.24L338.11,725.81L332.77,713.47L335.08,690.04L321.85,669.76L338.12,671.68L350.23,666.12L317.14,631.25L335.01,621.19L339.51,605.39L322.01,601.45L314.79,593.94L292.96,598.48L264.90,567.10L242.67,554.44L232.53,536.30L210.17,530.99L218.41,521.09L250.46,523.90L262.67,500.27L264.90,485.61L202.89,446.67L183.94,416.50L182.01,404.72L206.95,386.58L212.87,371.17L187.86,353.50L188.23,343.47L173.64,347.18L147.29,332.32L146.06,337.71L140.45,335.46L140.14,326.71L153.68,327.28L158.20,321.03L149.26,312.94L135.63,311.18L131.19,294.57Z M196.46,416.45L205.76,414.35L207.61,409.67L196.46,409.21L196.46,416.45Z M286.34,729.12L190.90,703.95L190.34,695.26L173.45,668.80L151.77,666.47L144.01,643.63L124.98,626.91L115.31,596.20L104.80,590.65L100.00,578.86L135.45,566.76L151.60,585.15L151.16,601.70L166.44,597.32L173.70,609.12L190.38,617.17L228.68,602.74L238.74,606.41L240.79,624.45L234.70,638.55L265.80,660.04L262.01,677.58L286.34,729.12Z M164.83,348.96L153.74,343.89L151.49,345.90L152.58,353.03L154.58,355.39L162.27,354.17L164.83,348.96Z M903.24,471.14L900.42,462.53L890.08,463.05L890.42,470.80L892.77,473.33L901.35,474.97L903.24,471.14Z M868.45,453.72L863.70,454.04L859.96,439.36L864.63,440.69L868.45,453.72Z" fill="currentColor" fill-rule="evenodd"/></svg>
