<svg xmlns="http://www.w3.org/2000/svg" viewBox="0 0 1000 1000" role="img" aria-label="Map of Bahamas, The"><path d="M880.81,808.79L864.15,819.00L861.44,808.54L871.34,801.48L880.81,808.79Z M861.74,701.77L850.95,697.69L854.96,686.78L874.58,694.69L877.36,694.79L875.77,692.01L891.32,696.46L900.00,703.17L896.11,708.67L882.31,699.21L861.74,701.77Z M816.66,669.04L811.83,665.70L803.39,666.88L804.95,669.69L815.19,672.10L816.66,669.04Z M794.76,865.44L792.33,858.58L805.76,856.67L810.23,849.42L819.72,848.61L824.80,843.49L830.18,852.17L840.54,856.05L851.54,851.60L864.15,831.22L869.81,833.12L866.38,853.28L855.18,874.12L844.00,879.38L833.28,881.27L829.82,877.93L812.80,882.96L800.16,880.14L794.23,884.32L788.20,870.78L794.76,865.44Z M720.38,659.65L716.43,668.51L708.49,676.31L709.52,670.83L720.38,659.65Z M754.03,661.48L751.63,657.98L756.42,659.65L761.20,656.25L758.81,653.47L770.85,651.80L767.58,659.65L765.27,656.25L766.63,659.65L770.04,661.52L773.25,676.31L769.25,684.16L751.92,703.33L739.58,707.57L721.17,723.59L721.70,716.66L732.04,713.04L732.35,706.93L741.46,703.03L743.73,695.59L751.97,693.65L755.05,687.04L767.52,681.24L766.86,671.95L749.88,665.80L754.03,661.48Z M721.02,656.92L713.28,638.64L726.83,641.25L734.01,650.06L751.63,653.47L742.93,661.48L741.37,657.55L724.45,653.47L721.02,656.92Z M792.53,606.27L777.20,608.28L774.91,604.44L790.24,604.62L792.53,606.27Z M560.36,559.00L569.31,560.73L575.51,565.97L562.26,562.06L560.36,559.00Z M530.63,535.28L559.49,559.87L543.98,557.58L526.26,542.56L515.55,541.47L519.53,539.25L516.21,532.28L521.06,530.05L530.63,535.28Z M654.83,617.69L655.40,635.61L639.28,608.39L624.46,604.99L609.88,595.80L613.14,591.36L618.80,596.60L614.82,595.80L616.82,598.55L628.71,602.81L620.40,591.79L623.51,581.76L621.33,572.25L610.21,560.56L604.37,543.21L600.31,544.00L600.31,535.28L595.52,537.97L597.99,530.05L613.94,552.01L625.72,578.69L629.70,599.61L647.26,609.11L654.83,617.69Z M643.88,528.98L658.63,525.74L662.73,528.30L657.89,534.51L643.53,533.54L643.88,528.98Z M481.90,493.24L476.08,483.96L472.99,474.92L475.87,476.96L481.90,493.24Z M697.98,492.45L697.81,488.64L696.02,494.98L688.33,495.85L691.65,477.08L699.23,471.52L703.63,479.28L697.98,492.45Z M300.19,466.11L290.63,470.47L289.03,466.04L303.77,457.78L309.77,457.38L303.32,459.92L300.19,466.11Z M293.49,452.75L283.59,456.23L282.43,459.06L294.92,462.56L296.22,454.82L293.49,452.75Z M467.16,461.50L458.91,451.66L454.56,451.57L460.78,462.88L465.47,464.35L467.16,461.50Z M341.74,498.47L342.62,507.28L340.62,511.83L336.16,511.72L339.35,516.96L336.96,523.06L325.00,520.44L325.00,525.68L312.16,522.27L315.56,518.25L324.20,520.44L335.76,509.45L318.94,517.42L313.76,512.51L325.32,507.36L325.87,504.66L309.77,508.23L305.70,487.13L293.02,477.54L304.98,463.50L324.20,451.20L329.33,458.08L314.55,467.86L317.50,469.85L314.46,471.93L321.03,475.51L316.15,485.38L320.18,484.33L328.41,463.53L332.10,462.03L338.88,473.82L341.74,493.70L332.90,502.04L341.74,498.47Z M323.35,444.83L309.10,448.10L319.05,442.41L323.35,444.83Z M599.95,462.14L602.78,471.42L577.14,471.76L575.81,469.14L588.27,462.68L588.81,455.04L580.57,450.38L567.96,424.40L561.08,422.32L560.46,414.73L548.33,405.53L551.18,400.63L563.54,407.49L565.14,418.04L574.54,433.06L599.95,462.14Z M347.00,363.22L337.43,359.71L349.80,352.28L372.25,354.70L347.00,363.22Z M234.50,410.11L249.87,399.17L251.98,405.72L248.13,415.11L254.52,409.23L258.48,418.75L259.30,411.86L263.29,412.73L255.41,395.43L255.32,404.00L250.73,396.85L265.93,372.39L264.09,368.93L267.83,362.10L261.21,338.52L268.78,336.62L275.69,341.74L280.98,338.72L288.95,344.43L288.52,361.88L293.94,365.16L306.21,390.46L316.95,400.44L315.04,412.98L319.11,426.04L302.16,436.83L301.20,442.15L284.76,449.77L283.04,455.05L276.89,441.42L270.58,438.29L270.55,425.81L259.80,430.43L234.50,410.11Z M478.81,318.85L506.70,347.44L501.44,366.96L503.89,374.62L499.45,389.48L501.05,407.49L492.27,393.45L480.60,385.77L494.27,386.40L498.58,381.45L499.36,375.60L495.83,379.49L495.25,374.77L501.85,361.44L500.62,345.53L489.08,337.37L476.48,320.91L462.69,317.22L446.23,306.75L428.25,307.63L433.83,290.09L441.01,290.96L439.42,299.77L441.25,297.37L466.04,316.81L478.81,318.85Z M308.38,273.14L304.38,261.98L298.84,260.09L298.91,265.03L306.07,272.88L308.38,273.14Z M341.94,193.19L336.67,188.93L333.28,189.63L334.50,201.98L338.15,201.65L342.21,196.81L341.94,193.19Z M251.98,154.92L206.10,171.46L196.67,169.39L169.68,144.70L192.09,160.48L202.81,161.41L219.24,146.89L211.30,142.95L216.88,130.74L225.47,141.16L248.87,146.59L289.56,141.09L296.13,135.10L297.68,149.67L294.54,152.63L289.12,149.75L251.98,154.92Z M308.17,118.44L290.63,120.19L301.65,115.68L332.18,116.70L364.76,143.70L373.80,146.44L367.41,148.19L371.54,154.44L397.25,168.34L396.20,180.23L401.06,185.00L401.35,193.98L393.20,195.20L383.80,202.96L380.79,245.02L376.59,249.01L366.27,235.48L355.38,230.52L376.98,215.69L373.12,208.26L376.19,201.26L373.82,194.32L377.53,188.92L376.19,177.14L380.15,175.17L384.30,162.22L364.55,157.06L359.83,145.13L353.19,145.49L340.64,124.01L308.17,118.44Z M112.43,549.70L105.57,547.01L102.07,549.17L100.99,553.13L105.36,558.82L111.48,559.56L114.51,556.57L112.43,549.70Z M103.02,541.00L99.33,539.94L95.61,544.39L104.64,553.88L109.22,549.77L103.02,541.00Z M136.37,300.53L141.41,300.46L144.73,297.00L144.71,292.21L141.00,287.61L136.39,287.31L132.78,290.20L132.33,295.93L136.37,300.53Z M130.80,294.21L135.57,298.03L139.90,297.25L142.54,293.73L141.10,287.41L137.20,284.32L132.31,285.21L129.75,289.48L130.80,294.21Z M546.40,717.42L548.93,726.55L552.51,726.75L556.96,723.37L550.90,713.13L547.60,714.17L546.40,717.42Z M551.59,707.23L546.11,707.29L543.54,711.58L544.57,718.58L547.97,720.47L553.92,716.33L554.16,709.71L551.59,707.23Z M537.02,693.95L540.64,705.01L546.59,702.95L546.97,698.61L542.67,691.82L537.02,693.95Z M794.89,664.67L793.08,675.10L796.79,677.25L800.84,675.84L806.13,668.59L804.57,664.88L800.81,663.43L794.89,664.67Z M616.66,513.52L620.21,518.81L624.48,519.31L627.98,516.80L630.24,510.58L628.18,506.89L622.10,505.56L617.35,508.15L616.66,513.52Z M301.79,454.07L310.76,445.46L309.52,441.95L305.39,440.21L301.12,442.01L296.78,449.42L301.79,454.07Z M422.30,420.20L424.36,427.45L427.89,428.69L433.00,427.33L434.62,424.32L431.64,417.13L427.98,414.74L423.83,416.10L422.30,420.20Z M304.23,303.88L296.07,307.13L294.77,311.53L300.18,312.91L306.96,309.00L307.89,305.22L304.23,303.88Z M139.10,261.34L134.79,264.45L132.87,274.45L140.89,274.13L137.97,269.40L142.18,269.73L142.30,262.92L139.10,261.34Z M372.87,169.08L366.29,173.66L369.85,181.06L374.90,182.47L378.65,180.09L378.95,172.81L376.85,169.41L372.87,169.08Z M295.50,155.76L298.53,164.07L302.72,165.67L309.09,155.65L305.04,152.76L298.21,153.77L295.50,155.76Z M428.28,297.43L436.58,294.97L437.08,290.98L434.23,288.14L424.05,290.40L423.40,293.65L428.28,297.43Z M417.14,293.10L414.75,298.05L416.43,300.31L428.32,295.98L427.22,291.71L417.14,293.10Z" fill="currentColor" fill-rule="evenodd"/></svg>
