<svg xmlns="http://www.w3.org/2000/svg" viewBox="0 0 1000 1000" role="img" aria-label="Map of Bahrain"><path d="M447.22,196.84L491.61,235.68L517.51,206.89L544.03,252.34L512.22,291.94L500.66,585.63L461.29,660.05L360.93,467.71L384.72,364.22L341.50,234.19L375.01,141.52L490.10,146.08L500.66,192.93L447.22,196.84Z M288.80,219.17L310.90,229.00L315.32,281.83L276.65,278.14L288.80,219.17Z M498.73,100.00L553.97,102.46L578.28,181.09L509.78,143.00L498.73,100.00Z M642.58,792.08L703.81,726.89L658.21,900.00L642.58,792.08Z M683.41,712.07L695.09,707.19L693.46,698.39L682.05,710.17L683.41,712.07Z M711.63,803.67L723.35,787.01L720.10,797.87L711.63,803.67Z M693.39,842.05L720.10,826.12L714.89,840.61L693.39,842.05Z" fill="currentColor" fill-rule="evenodd"/></svg>
