<svg xmlns="http://www.w3.org/2000/svg" viewBox="0 0 1000 1000" role="img" aria-label="Map of Bangladesh"><path d="M779.88,731.59L781.67,797.12L787.08,826.11L779.22,830.86L773.48,815.39L758.02,814.05L748.36,801.69L743.61,807.51L737.60,807.78L730.38,823.73L729.97,840.61L741.19,856.17L740.74,872.60L748.71,900.00L731.38,863.69L714.72,843.44L713.82,823.76L702.33,804.42L710.42,797.45L706.94,788.08L712.64,777.42L711.83,768.65L706.18,776.10L706.18,768.59L703.54,770.74L701.93,767.15L706.94,756.43L695.64,757.15L701.93,744.28L697.69,747.24L691.65,709.86L688.25,712.65L684.90,704.02L688.25,695.01L684.39,686.89L692.50,682.86L696.74,670.80L692.93,679.14L682.21,687.50L686.52,694.76L681.68,696.19L676.27,672.65L667.85,655.86L651.93,633.33L641.26,624.96L644.75,605.57L635.32,626.07L626.82,623.20L628.52,627.48L619.89,628.15L625.12,630.63L623.20,633.76L606.33,629.78L608.49,633.54L604.72,635.43L616.62,641.42L608.93,654.69L594.79,654.53L585.97,635.68L588.41,648.52L576.44,648.89L558.16,627.75L548.51,600.67L537.55,583.84L542.27,556.21L541.50,548.79L535.30,546.04L533.92,531.43L538.04,526.42L548.21,524.85L548.31,519.85L543.63,517.14L545.76,523.55L534.86,525.83L532.90,516.13L538.04,511.49L535.38,510.20L527.32,515.95L518.49,513.35L531.01,519.25L527.91,540.26L490.24,530.69L512.54,548.26L530.04,552.49L535.24,561.22L530.40,581.48L528.76,577.55L515.08,585.02L526.43,606.66L518.49,608.35L509.98,620.51L511.47,624.10L505.58,625.03L516.67,626.74L520.56,632.03L523.02,645.41L516.37,649.79L514.23,661.43L518.02,650.29L524.44,649.27L534.72,665.22L532.17,664.21L535.57,685.73L528.66,700.89L521.58,704.52L515.22,717.55L510.04,716.86L507.43,714.59L511.69,701.50L508.28,689.35L510.59,704.33L493.15,747.92L482.20,755.59L470.77,751.61L474.91,737.79L467.52,748.46L462.23,747.24L463.42,736.21L472.35,721.16L486.10,711.78L488.96,705.12L488.59,701.50L484.82,710.46L477.65,713.48L463.94,730.36L458.74,728.51L468.95,706.24L465.74,707.40L457.05,722.47L457.05,730.36L451.03,728.85L443.86,691.19L460.45,661.90L449.29,675.27L443.37,671.63L444.30,682.01L439.11,692.14L443.18,716.05L433.95,718.21L440.26,723.93L444.30,744.28L432.60,751.79L422.99,751.64L417.03,749.02L415.24,738.72L411.76,746.23L421.93,757.78L417.89,762.40L408.83,761.16L407.77,769.21L400.35,753.98L410.14,713.15L405.32,700.96L410.14,693.61L412.69,682.86L403.07,700.63L406.83,713.15L401.04,730.62L401.57,716.44L393.93,688.42L393.93,714.59L396.22,709.93L399.23,717.53L395.75,725.28L399.66,733.66L392.54,747.68L392.69,758.27L385.30,766.96L380.72,763.43L382.87,741.97L378.55,732.30L379.01,743.15L372.21,754.45L370.05,752.72L368.77,769.48L371.74,772.29L360.90,775.56L358.06,754.16L353.94,757.51L347.73,753.57L346.09,728.51L341.84,719.69L344.18,704.74L335.83,689.71L331.09,656.77L325.73,654.02L329.27,649.01L323.26,627.83L327.79,613.26L314.63,595.88L316.19,582.38L329.72,565.04L296.92,558.29L295.60,552.72L306.08,526.14L299.77,528.96L277.62,505.76L282.11,476.34L291.51,474.35L299.11,466.83L300.46,451.43L294.12,445.42L294.62,435.68L303.13,427.55L302.02,417.62L292.39,410.67L289.20,416.67L269.39,413.77L223.89,388.55L220.39,375.10L212.92,368.89L216.83,354.02L227.75,341.84L224.51,332.07L235.41,328.15L240.42,336.94L250.38,337.74L263.21,313.77L265.14,294.92L307.83,298.83L311.93,293.95L325.26,297.89L325.87,289.52L332.82,281.97L315.03,275.46L309.75,266.93L311.66,258.37L306.36,252.47L302.57,251.00L293.16,257.78L276.22,252.71L262.96,240.20L262.42,231.83L242.56,213.45L226.10,215.37L221.10,207.74L219.46,197.25L229.01,180.51L230.59,165.67L250.82,155.41L252.11,146.46L263.95,135.53L272.15,136.82L267.61,123.06L254.22,118.89L251.99,123.84L249.43,121.55L258.17,100.00L261.37,110.66L291.91,128.33L298.87,140.14L290.61,147.24L292.79,148.82L303.32,145.00L312.89,153.97L319.23,147.06L331.63,154.27L337.12,152.89L339.64,151.16L335.69,144.37L332.42,145.09L321.16,132.32L327.35,125.03L340.14,132.96L347.51,140.27L343.34,145.70L349.54,164.83L376.44,184.96L395.16,184.94L402.14,190.24L410.81,174.95L405.29,172.93L409.92,168.35L404.76,165.38L411.19,162.45L411.05,154.94L415.99,154.49L416.34,162.84L424.15,164.98L428.80,180.36L437.86,187.57L433.30,191.68L438.58,194.04L432.19,209.99L438.58,234.42L433.67,269.84L436.67,281.97L447.76,280.35L504.59,300.32L536.81,297.40L561.53,301.37L613.03,293.26L637.45,301.96L654.17,298.96L663.20,303.85L674.59,297.94L712.42,296.01L745.98,310.61L768.41,330.47L767.66,339.21L755.59,342.91L744.34,335.49L735.95,335.48L737.29,350.95L728.55,380.63L721.99,386.74L721.58,401.46L715.99,406.21L701.96,405.62L704.72,413.69L695.72,410.70L692.89,435.17L688.79,435.54L684.16,426.59L674.94,424.80L674.90,434.31L671.30,437.22L662.01,427.38L656.12,443.59L628.89,443.08L625.90,457.30L617.82,458.25L610.61,469.11L609.24,487.70L600.17,494.63L605.51,501.47L601.08,503.75L601.22,509.38L619.45,544.26L616.78,547.82L622.72,578.86L629.86,584.06L627.97,562.12L632.78,556.89L641.40,567.57L648.88,593.25L656.65,600.14L671.71,593.22L682.73,580.43L676.27,555.57L685.49,538.09L700.81,525.28L698.56,494.31L710.55,505.58L726.96,493.13L732.37,504.48L735.84,496.38L740.47,496.55L739.66,509.76L751.59,544.46L748.97,569.29L752.99,602.57L761.26,610.12L763.22,624.82L769.92,633.97L780.02,705.61L775.08,711.05L779.88,731.59Z M700.16,761.16L706.18,781.66L704.48,793.30L692.89,799.09L689.95,765.81L692.29,761.87L695.48,763.43L694.20,771.36L696.92,765.68L695.89,759.22L700.16,761.16Z M340.38,739.81L351.19,766.38L341.11,756.65L340.38,739.81Z M694.20,746.73L691.10,757.09L687.34,765.81L687.34,745.30L691.65,737.79L694.20,746.73Z M533.08,730.36L534.72,736.86L526.52,745.40L521.89,747.24L525.36,745.30L524.18,736.86L533.08,730.36Z M498.86,743.11L508.28,728.51L499.40,749.76L498.86,743.11Z M506.15,720.67L502.09,724.85L500.61,733.94L508.45,725.82L508.93,720.92L506.15,720.67Z M513.38,722.94L519.72,731.69L510.93,742.06L508.28,736.86L513.38,722.94Z M526.97,720.15L519.41,723.78L521.83,715.44L535.57,706.24L528.88,725.31L522.57,728.62L526.97,720.15Z M575.51,700.26L572.77,706.97L575.00,713.65L579.28,708.62L577.42,700.44L575.51,700.26Z M580.36,705.25L585.29,697.32L582.09,691.36L579.62,692.78L578.74,703.26L580.36,705.25Z M582.99,687.47L575.87,696.90L580.75,679.14L582.99,687.47Z M602.22,680.00L606.94,697.58L601.30,708.66L591.57,716.32L586.49,715.64L584.33,712.66L591.05,702.43L593.00,675.71L602.22,680.00Z M538.89,686.57L534.09,667.59L541.20,676.94L538.89,686.57Z M541.66,673.16L545.17,668.03L543.44,661.99L540.27,659.82L537.56,662.53L536.81,670.51L537.47,672.69L541.66,673.16Z M602.75,659.43L597.16,665.14L597.07,666.37L604.21,667.96L610.89,661.24L602.75,659.43Z M641.90,648.83L652.95,663.53L652.81,673.88L646.87,674.60L639.28,666.92L636.45,657.13L641.90,648.83Z M557.61,661.20L565.64,669.45L563.30,704.32L555.65,718.22L539.80,729.35L544.08,714.59L537.13,724.84L534.33,722.55L544.85,677.20L539.80,654.00L528.76,646.57L532.08,624.13L540.19,621.49L557.61,661.20Z M532.93,608.65L543.63,618.65L532.77,617.89L525.37,623.97L524.06,631.78L515.93,624.21L518.13,610.93L532.93,608.65Z M542.27,598.98L538.04,598.98L542.27,603.71L538.40,603.29L533.78,598.14L522.45,595.89L532.17,587.85L542.27,598.98Z M512.76,584.78L514.48,592.28L517.94,594.79L526.63,585.69L524.02,582.35L516.56,580.87L512.76,584.78Z M532.17,551.57L519.83,549.22L512.69,540.24L526.35,545.01L532.17,551.57Z" fill="currentColor" fill-rule="evenodd"/></svg>
