<svg xmlns="http://www.w3.org/2000/svg" viewBox="0 0 1000 1000" role="img" aria-label="Map of Belarus"><path d="M136.89,808.24L133.05,802.87L130.71,788.21L133.05,786.38L133.05,774.70L138.77,766.89L135.92,762.14L142.77,740.82L139.51,728.03L129.04,722.38L126.97,714.29L102.02,705.96L100.00,699.05L118.98,667.90L158.89,645.22L163.38,634.95L162.44,597.83L158.09,588.94L160.96,577.06L153.17,564.26L135.61,512.10L126.79,465.70L138.64,471.51L184.07,462.93L191.39,472.11L201.51,473.12L225.70,457.99L228.95,462.18L237.39,460.61L238.64,454.30L235.39,443.98L238.66,438.09L259.63,438.42L266.71,432.27L270.87,420.80L284.56,422.06L292.07,414.84L299.99,424.41L295.61,425.75L297.89,429.45L294.28,432.31L296.81,436.64L308.32,438.91L317.50,434.99L319.69,423.71L311.88,411.72L297.87,411.72L304.90,397.46L306.43,385.22L315.60,376.71L312.92,363.35L313.99,348.68L318.79,343.23L319.14,334.12L326.47,324.34L348.95,320.08L359.48,295.87L387.66,298.60L392.35,285.23L404.39,277.03L401.70,273.22L375.02,269.43L382.83,250.68L381.89,242.67L387.21,235.35L388.89,218.39L406.24,215.82L419.49,198.74L433.75,197.95L443.10,204.35L450.35,198.13L470.70,203.36L475.08,185.17L483.41,179.95L486.49,171.94L498.70,158.79L514.10,152.08L530.84,168.22L537.45,161.73L556.01,161.74L566.10,181.78L574.38,183.07L576.80,177.59L591.12,170.84L621.67,181.65L625.76,187.42L620.71,191.23L617.32,204.38L628.81,219.36L645.83,206.70L656.01,206.58L664.56,196.43L681.18,199.44L689.05,194.34L711.54,203.46L712.53,209.05L721.47,214.10L722.21,221.59L730.37,223.45L734.43,231.62L746.48,230.76L749.27,246.06L746.07,251.84L749.17,260.84L738.79,275.31L752.65,292.69L756.49,312.43L748.75,312.21L749.09,322.20L740.51,325.87L741.45,333.02L736.60,339.74L736.81,345.95L770.08,369.21L761.43,387.49L773.52,393.75L783.20,424.70L798.42,436.76L817.71,443.80L820.60,450.25L824.90,449.56L826.18,462.47L818.37,486.13L829.13,488.64L846.75,484.04L876.77,497.58L880.80,502.78L873.17,508.69L875.71,519.12L900.00,536.39L899.83,551.18L877.84,556.06L879.87,559.67L875.22,569.64L849.57,587.08L822.69,582.65L819.34,572.16L807.43,568.88L787.71,572.81L786.47,585.99L776.70,596.51L802.98,628.67L803.76,637.41L796.26,643.46L808.65,662.47L802.85,663.53L804.24,665.77L802.12,667.58L805.24,671.72L806.93,687.30L803.52,695.94L814.58,704.42L813.15,711.42L819.87,718.79L820.02,725.76L788.09,723.36L775.19,734.58L764.08,728.72L749.22,731.61L751.09,740.86L747.38,740.22L738.28,754.04L734.38,754.42L724.04,773.74L726.39,774.70L724.61,781.55L720.03,782.42L718.89,793.21L715.41,796.03L717.76,799.02L716.04,801.83L721.18,804.72L719.41,807.62L724.04,815.34L721.50,820.97L726.33,829.44L718.39,847.92L702.02,838.24L698.83,833.24L699.09,824.54L684.72,812.90L662.76,815.68L657.93,820.60L641.95,811.98L630.87,819.54L627.59,826.95L615.33,829.71L607.61,816.97L607.51,808.00L601.98,796.08L593.84,792.23L586.94,800.87L571.79,806.08L565.83,824.66L563.75,818.81L558.17,817.82L555.38,803.12L543.43,800.56L532.76,806.68L522.40,789.20L510.74,802.55L501.02,802.10L490.68,794.73L487.44,808.25L480.88,815.83L476.68,811.71L479.07,798.08L461.04,793.21L443.47,798.32L444.31,789.32L436.90,787.53L435.96,775.75L433.72,774.38L408.91,775.43L393.08,768.07L374.65,767.48L371.48,761.11L352.02,760.25L344.10,754.03L317.90,750.09L283.07,751.09L265.16,747.20L230.31,756.62L202.59,756.95L195.95,764.37L190.31,779.83L168.30,798.53L148.91,790.26L138.80,792.45L135.90,795.85L138.77,806.28L136.89,808.24Z" fill="currentColor" fill-rule="evenodd"/></svg>
