<svg xmlns="http://www.w3.org/2000/svg" viewBox="0 0 1000 1000" role="img" aria-label="Map of Belgium"><path d="M100.00,307.28L225.22,228.25L271.85,213.37L272.64,241.65L280.62,255.30L303.37,257.42L306.10,244.12L325.86,241.05L360.48,252.77L367.22,268.83L391.79,268.53L441.94,238.95L452.93,215.73L470.97,247.32L475.63,239.21L467.02,234.94L461.15,215.28L492.33,219.41L485.25,191.29L496.11,185.06L516.00,180.50L515.23,195.94L537.79,199.34L568.62,174.16L578.02,180.59L577.77,200.82L565.19,200.92L595.97,207.93L620.30,180.21L631.18,192.71L628.74,213.60L640.11,233.56L655.56,235.21L659.32,251.40L717.00,242.32L732.61,268.07L786.75,284.78L790.25,302.11L774.78,316.88L776.04,328.17L764.58,349.10L773.23,349.10L744.26,391.26L760.03,402.59L761.30,416.09L821.17,417.49L824.63,431.00L843.04,433.36L855.34,459.12L873.95,461.72L855.60,484.84L857.70,493.21L865.26,503.53L892.19,505.27L892.36,542.13L900.00,559.30L881.61,563.10L878.67,574.99L854.87,589.58L856.52,602.91L847.81,608.46L846.63,622.96L839.72,610.28L814.26,608.22L795.74,630.66L781.26,661.47L783.32,669.60L763.87,697.74L772.01,708.57L766.56,708.00L765.70,727.50L791.13,755.63L790.21,771.12L798.45,778.64L788.47,805.55L709.30,825.84L698.08,792.05L676.44,788.53L676.77,772.45L668.42,763.04L649.77,764.39L608.56,728.53L583.24,729.47L585.56,690.57L569.72,675.90L586.12,634.84L586.07,614.11L570.69,612.22L548.54,634.89L543.30,665.84L503.45,683.30L434.28,670.45L435.46,654.10L450.55,642.65L444.43,620.75L433.06,620.45L447.97,577.91L432.95,578.35L407.63,549.97L356.08,549.23L344.00,564.94L336.70,558.05L333.09,516.86L325.60,506.74L302.94,503.38L298.37,492.59L274.27,502.40L255.58,490.28L247.55,435.12L226.13,407.97L193.36,414.91L175.81,434.88L155.01,426.16L135.31,398.26L113.49,386.31L111.45,364.74L117.99,348.55L100.00,307.28Z" fill="currentColor" fill-rule="evenodd"/></svg>
