<svg xmlns="http://www.w3.org/2000/svg" viewBox="0 0 1000 1000" role="img" aria-label="Map of Belize"><path d="M287.37,895.62L312.99,544.78L311.60,266.90L342.26,249.04L394.51,282.29L436.97,228.31L445.78,194.11L469.15,176.50L495.31,109.32L506.63,100.00L561.04,100.97L566.09,106.67L535.46,134.99L557.03,133.69L545.15,155.53L569.27,138.78L593.07,144.18L621.79,133.50L607.20,153.82L622.32,146.28L625.66,184.27L622.37,217.24L589.06,285.05L587.29,318.49L565.76,370.35L601.09,398.67L579.08,406.20L566.18,451.60L562.00,501.28L587.08,566.02L567.05,589.29L577.24,613.31L561.68,626.03L560.33,662.52L549.00,701.94L543.71,707.68L558.85,659.63L536.81,691.28L542.83,693.56L534.82,693.56L536.81,712.43L492.73,779.72L480.53,788.11L480.53,775.34L472.39,782.99L460.45,775.02L458.31,783.91L433.04,792.35L431.38,815.48L378.00,867.99L382.01,895.61L370.89,900.00L287.37,895.62Z M697.63,436.61L704.70,438.82L707.81,466.15L701.64,466.15L697.63,436.61Z M700.72,388.37L712.03,392.54L712.63,403.31L699.68,425.78L679.51,435.59L671.75,470.35L676.73,425.01L707.71,404.84L705.81,394.49L697.63,398.67L700.72,388.37Z M627.51,358.81L634.45,369.72L637.33,386.09L633.85,383.12L627.51,358.81Z M603.10,346.23L609.25,343.38L629.32,330.41L619.76,346.52L603.10,346.23Z M675.58,240.83L675.09,254.10L669.38,266.33L660.21,275.29L647.53,278.75L666.05,263.60L664.18,246.42L678.10,201.74L692.06,196.69L694.49,207.72L669.57,242.93L671.75,249.42L675.58,240.83Z M615.77,398.40L630.32,405.26L627.57,414.31L615.77,398.40Z M651.48,223.09L654.32,230.47L657.28,230.33L662.83,227.66L664.83,223.18L660.75,220.47L654.34,221.20L651.48,223.09Z M659.01,220.06L663.97,225.67L672.82,216.56L671.04,213.56L667.58,213.10L661.56,215.12L659.01,220.06Z M678.62,188.63L679.49,195.34L683.89,198.43L690.52,187.57L686.96,184.55L682.26,184.51L678.62,188.63Z" fill="currentColor" fill-rule="evenodd"/></svg>
