<svg xmlns="http://www.w3.org/2000/svg" viewBox="0 0 1000 1000" role="img" aria-label="Map of Benin"><path d="M665.07,190.99L653.40,208.99L648.74,226.72L673.51,262.46L681.11,266.44L685.20,292.99L682.13,305.85L688.92,317.58L693.99,319.36L695.83,332.72L687.55,357.59L672.18,353.95L662.01,373.36L674.15,391.36L666.27,403.31L664.19,416.93L654.44,430.15L646.76,429.31L630.55,435.96L631.28,455.32L620.31,457.69L620.04,464.07L605.87,480.51L608.27,502.32L598.65,527.34L586.79,531.81L559.49,532.27L557.18,565.08L553.62,567.73L556.37,604.54L550.29,627.51L555.05,644.42L546.97,682.19L554.13,695.72L553.29,722.46L562.44,736.55L561.70,743.84L555.91,745.53L558.59,777.35L555.16,785.91L560.83,792.98L552.59,800.94L553.67,824.23L560.01,830.01L560.69,837.29L554.63,844.65L551.15,880.02L446.58,892.12L412.77,900.00L414.49,895.89L433.53,891.80L428.65,872.60L405.92,839.95L410.40,831.12L409.00,815.49L401.57,799.37L413.54,798.74L413.52,634.01L410.40,620.92L415.90,605.16L411.23,596.72L410.41,533.25L406.08,521.97L384.88,498.10L382.17,479.84L375.33,472.14L379.12,455.91L375.93,410.77L304.17,362.83L305.76,320.68L316.18,307.35L321.10,281.91L328.99,284.32L327.61,275.49L331.30,270.61L348.25,277.40L341.63,262.60L348.67,257.83L353.90,259.51L350.98,247.33L353.63,244.04L367.93,248.91L368.57,239.82L375.85,243.62L376.96,233.62L384.49,229.41L383.43,225.57L389.79,219.70L406.35,222.35L410.46,230.70L440.97,223.36L459.19,227.43L496.23,196.64L511.11,165.02L509.93,158.38L519.61,154.35L513.08,145.60L507.42,123.33L524.50,115.00L546.04,113.93L550.71,106.74L569.08,100.00L581.93,113.81L590.14,115.90L621.12,148.52L628.14,164.26L652.18,172.65L665.07,190.99Z" fill="currentColor" fill-rule="evenodd"/></svg>
