<svg xmlns="http://www.w3.org/2000/svg" viewBox="0 0 1000 1000" role="img" aria-label="Map of Bhutan"><path d="M515.68,353.60L561.46,348.77L619.12,364.26L653.04,383.02L687.04,354.07L709.78,348.48L740.43,374.45L792.62,389.21L790.33,412.59L775.09,412.95L775.49,421.09L792.10,431.44L777.21,475.17L782.40,494.87L797.25,512.93L813.85,518.08L872.92,514.73L884.48,521.62L900.00,563.10L875.92,613.68L894.81,642.98L896.18,671.77L872.92,682.82L853.40,673.49L849.95,694.53L837.20,679.64L807.91,694.41L764.68,695.99L753.82,677.74L740.75,676.13L711.31,702.17L655.45,694.11L573.28,704.19L542.48,700.69L485.57,669.38L444.74,686.73L432.78,708.40L376.38,718.21L363.17,713.73L358.10,723.24L309.54,718.92L303.89,699.63L269.79,696.14L245.67,680.75L214.99,691.84L187.28,689.59L169.43,665.08L148.18,663.32L142.06,646.70L128.97,656.28L123.24,615.33L100.00,601.08L105.79,584.52L144.09,552.75L163.58,552.75L152.64,525.28L159.14,499.19L179.55,476.18L193.99,476.48L217.87,424.65L244.33,408.19L270.18,364.65L298.03,336.87L344.33,323.51L382.50,288.26L419.36,280.30L438.96,286.49L456.21,276.76L471.91,302.83L494.64,292.68L542.47,310.37L544.82,319.21L518.16,339.55L515.68,353.60Z" fill="currentColor" fill-rule="evenodd"/></svg>
