<svg xmlns="http://www.w3.org/2000/svg" viewBox="0 0 1000 1000" role="img" aria-label="Map of Bolivia"><path d="M155.32,580.84L153.84,565.56L145.48,560.67L148.02,554.45L159.37,548.47L173.62,526.79L182.06,523.25L183.73,521.06L181.88,517.86L182.60,510.16L193.89,502.58L185.26,495.38L177.19,496.66L173.47,494.47L159.22,460.04L164.26,448.89L167.60,446.66L167.29,443.36L175.61,436.24L161.88,421.01L162.68,410.10L168.66,407.02L170.58,396.34L174.31,396.54L174.67,392.02L184.78,384.51L183.63,376.45L192.09,373.14L189.69,363.94L185.21,359.88L183.29,346.62L178.31,341.38L182.83,339.46L185.92,331.38L185.32,293.02L191.39,286.18L197.81,283.49L199.15,280.78L196.22,278.02L202.57,270.89L150.64,177.03L161.20,175.98L190.96,180.91L195.57,179.59L198.30,180.64L197.24,188.43L206.55,186.73L225.29,178.64L239.79,159.75L250.32,159.26L258.51,162.09L266.48,149.75L273.25,146.75L276.14,142.47L280.53,141.92L281.65,138.67L289.72,139.15L296.72,134.93L321.23,113.79L353.52,106.32L356.86,107.76L368.22,104.73L369.83,106.31L370.86,103.20L382.75,109.51L392.50,100.00L399.31,109.76L397.12,117.38L400.14,131.89L390.54,147.71L391.37,157.26L394.55,161.63L393.17,167.76L397.68,170.86L399.28,178.08L396.87,186.37L393.75,189.21L395.77,193.17L394.19,196.72L397.72,199.76L396.08,203.07L398.12,208.76L403.75,211.25L403.95,215.31L406.96,217.19L405.29,224.83L407.89,226.73L410.10,221.73L412.88,225.52L416.80,234.95L416.15,239.51L428.75,242.44L431.83,249.22L434.72,246.79L436.17,251.42L446.37,254.97L446.35,263.09L458.10,270.57L462.30,269.15L466.40,271.97L467.85,270.12L479.39,273.43L482.78,268.88L486.36,268.01L494.71,269.25L504.70,274.22L514.46,282.97L519.22,282.76L524.99,278.84L528.57,279.98L533.63,291.56L537.07,291.69L545.15,301.06L551.15,298.90L553.76,302.83L563.61,305.16L566.40,308.68L581.03,308.15L584.39,310.11L584.69,316.09L598.47,328.63L600.56,333.75L614.47,331.66L619.91,334.21L628.96,330.91L640.51,332.49L646.43,329.14L647.89,333.42L655.17,334.49L679.82,349.33L684.79,360.55L679.77,368.66L680.30,378.42L684.55,383.19L687.62,393.81L685.83,394.43L690.34,399.71L691.61,427.16L673.45,428.10L692.97,451.07L697.95,498.70L796.52,502.72L803.20,499.64L803.62,511.31L795.62,524.06L800.33,557.59L822.94,573.29L835.11,575.51L835.97,584.24L841.15,593.17L839.22,594.44L849.62,614.88L854.52,618.27L848.71,619.27L836.18,658.89L839.12,659.59L840.05,667.01L835.79,667.90L816.29,708.51L831.68,723.66L814.30,734.86L813.34,714.05L760.21,681.67L706.92,682.36L605.40,703.42L594.29,731.17L575.43,758.35L575.03,789.44L553.25,860.16L545.52,853.89L543.48,846.01L495.77,845.81L489.90,849.02L485.67,846.14L478.70,846.07L465.48,872.51L460.24,878.70L455.91,898.75L454.14,891.49L448.44,884.89L449.92,878.80L443.93,871.73L441.57,866.74L443.27,862.64L440.16,858.47L415.51,851.81L373.42,852.87L362.49,842.60L355.87,840.99L353.08,835.84L345.64,833.06L340.70,850.62L315.80,859.59L312.95,871.85L298.55,877.72L298.91,884.67L289.19,895.74L268.66,900.00L255.62,899.77L248.90,895.53L250.52,879.10L245.13,866.19L244.62,852.19L236.74,843.17L236.08,833.22L230.80,820.04L230.27,802.63L218.14,782.98L210.07,780.20L209.05,769.84L214.38,762.69L202.49,756.15L197.85,750.37L198.30,746.92L202.90,744.76L200.12,734.00L196.27,731.32L208.14,728.23L210.86,720.04L209.72,715.43L201.46,707.64L216.32,690.63L189.53,668.42L184.82,661.07L187.04,656.28L182.25,643.09L182.22,632.72L178.38,617.95L175.18,612.25L179.47,606.18L166.64,602.32L164.79,592.00L155.32,580.84Z" fill="currentColor" fill-rule="evenodd"/></svg>
