<svg xmlns="http://www.w3.org/2000/svg" viewBox="0 0 1000 1000" role="img" aria-label="Map of Bosnia and Herzegovina"><path d="M497.86,794.75L477.97,782.25L490.59,785.96L482.93,780.17L499.79,773.43L492.74,750.37L454.47,720.19L423.23,677.13L419.24,631.57L369.95,607.26L304.66,543.66L297.68,523.94L261.21,480.59L225.44,455.03L202.63,419.16L196.83,397.99L199.97,375.93L186.71,370.84L191.10,359.87L182.23,329.82L159.56,324.25L167.50,310.46L164.12,300.38L151.94,296.24L135.47,272.00L118.40,279.87L102.55,259.21L100.00,249.49L111.78,237.57L103.04,214.12L109.76,200.35L115.66,139.25L162.51,132.37L183.27,165.95L223.26,193.02L238.24,160.06L266.94,130.00L325.01,141.70L348.15,112.25L352.86,126.17L365.39,123.75L365.39,131.74L371.14,127.66L402.11,151.01L414.10,149.07L418.92,139.33L442.22,153.56L454.73,147.17L455.64,155.08L465.59,152.97L462.64,160.75L504.31,146.62L535.32,175.00L569.77,150.79L600.61,165.56L617.91,148.48L675.24,177.45L681.93,166.35L695.70,165.53L702.28,175.50L708.33,168.46L720.68,188.84L731.66,192.93L729.94,217.97L751.76,232.95L788.48,229.06L812.80,214.03L850.14,225.56L839.74,274.51L811.32,325.03L801.11,330.72L803.47,355.67L796.44,369.39L806.67,394.80L837.55,400.33L852.71,428.02L900.00,462.97L899.79,473.02L882.98,485.01L849.31,486.13L830.44,474.98L821.53,490.58L869.24,546.34L878.29,571.57L874.97,602.71L863.11,600.80L858.78,609.46L845.60,590.05L826.33,595.81L819.09,611.73L785.72,619.17L769.80,607.90L756.15,619.01L788.73,675.59L772.88,687.49L758.70,664.76L737.71,666.31L740.23,671.22L705.49,697.16L710.43,699.65L696.51,728.70L700.29,757.88L662.04,765.53L658.20,781.65L666.26,802.84L660.36,815.81L682.01,858.30L670.12,887.75L648.18,887.25L568.09,837.66L539.99,815.84L530.40,789.35L507.77,786.61L497.86,794.75Z" fill="currentColor" fill-rule="evenodd"/></svg>
