<svg xmlns="http://www.w3.org/2000/svg" viewBox="0 0 1000 1000" role="img" aria-label="Map of Botswana"><path d="M548.38,101.08L545.09,108.60L547.99,119.26L558.75,131.37L568.58,154.21L589.16,174.51L593.50,190.64L603.69,200.06L605.89,207.06L604.32,216.05L621.13,254.15L633.15,257.67L635.59,260.81L633.86,264.18L653.12,275.83L656.88,282.11L666.49,288.42L691.89,295.68L697.63,300.84L706.12,302.96L711.34,315.36L711.53,338.33L737.72,336.36L746.44,339.50L745.16,350.76L747.37,361.24L743.87,388.86L761.61,409.85L770.18,431.07L797.10,435.60L808.69,440.60L820.97,439.43L840.88,449.12L855.33,452.68L856.86,455.43L853.30,465.19L855.47,472.26L860.95,476.50L871.62,476.80L880.62,486.82L855.33,490.09L848.95,497.67L849.58,503.83L846.53,509.14L839.72,509.94L837.30,513.71L813.39,521.78L801.56,520.92L795.47,523.45L786.89,529.40L783.54,538.22L774.78,543.92L774.00,550.46L765.88,555.06L765.27,563.25L752.61,569.23L753.84,572.62L750.94,577.62L746.46,575.23L742.29,578.22L739.11,577.27L734.31,589.92L724.26,594.48L723.07,592.43L719.07,595.34L718.16,592.62L706.18,601.45L706.43,604.17L700.08,604.34L700.83,608.31L694.73,611.31L695.42,615.85L690.85,614.31L687.06,621.35L676.66,669.38L664.79,674.73L651.65,686.33L641.35,701.63L631.15,701.24L597.81,711.75L598.49,723.86L595.12,735.31L574.98,788.27L564.51,796.32L541.72,800.90L528.35,799.12L513.38,806.41L500.06,806.17L483.15,799.12L473.58,799.89L460.95,788.84L446.51,791.36L445.08,788.27L439.94,789.13L402.13,758.65L382.37,757.33L370.65,762.50L367.31,760.17L352.20,776.12L349.41,793.36L343.74,802.11L345.77,806.45L341.17,812.12L341.31,821.41L337.33,823.53L327.87,839.90L320.22,840.13L311.44,849.56L303.76,852.15L288.28,875.92L265.78,881.24L264.29,892.33L256.35,897.48L237.02,893.93L212.32,897.68L194.87,891.94L177.25,900.00L171.07,887.83L172.51,873.96L170.31,865.00L171.71,859.23L189.49,833.22L186.44,827.95L185.65,812.37L182.53,805.79L180.15,806.53L179.36,798.20L172.96,788.35L175.68,785.79L171.53,777.83L174.47,774.95L170.42,774.44L170.85,771.72L165.19,767.44L163.09,758.78L156.43,751.42L157.27,748.66L150.78,736.79L129.90,723.36L119.64,712.14L119.38,470.48L200.09,470.48L201.13,467.26L200.34,147.20L241.01,145.46L363.31,120.92L388.60,119.07L396.97,135.97L405.56,140.02L410.37,149.76L411.87,160.25L414.36,161.11L422.96,155.96L438.97,139.86L439.22,136.83L463.78,120.27L470.13,121.46L474.53,115.30L480.29,115.34L487.12,124.46L491.89,123.80L505.40,109.67L523.48,100.58L531.91,104.03L539.78,100.00L548.38,101.08Z" fill="currentColor" fill-rule="evenodd"/></svg>
