<svg xmlns="http://www.w3.org/2000/svg" viewBox="0 0 1000 1000" role="img" aria-label="Map of Brazil"><path d="M390.92,791.69L411.74,771.20L421.00,758.55L424.74,758.96L423.36,755.88L436.52,748.91L440.50,742.98L449.68,741.19L451.63,737.81L457.78,736.23L460.77,719.83L456.36,708.30L452.71,705.83L446.84,709.39L444.13,707.30L450.42,679.43L443.44,674.93L434.12,678.82L429.59,677.68L425.99,653.62L421.79,647.23L415.53,646.98L412.10,643.33L404.15,647.30L384.12,643.30L387.11,622.81L381.07,608.39L386.37,605.01L381.67,600.44L388.92,587.90L387.74,585.45L393.35,572.79L387.41,560.28L376.81,554.86L375.37,544.74L377.86,537.53L345.59,537.08L344.07,522.70L338.12,515.76L343.66,515.48L340.06,491.98L329.88,485.88L315.89,487.27L310.96,480.13L298.99,477.40L293.94,471.04L289.64,471.94L281.07,467.42L272.45,468.19L268.88,463.48L259.87,459.04L252.96,445.90L254.52,440.27L251.85,431.10L254.78,426.32L252.77,416.81L249.48,419.56L245.85,417.66L230.72,420.85L211.59,435.44L205.88,434.73L201.46,440.44L195.75,442.88L181.92,439.63L159.85,441.02L160.15,414.60L161.91,412.13L148.18,422.42L132.30,422.64L130.23,413.99L114.24,411.73L118.47,403.99L108.46,392.54L104.14,384.88L105.43,382.10L100.00,377.62L100.63,374.20L105.41,373.26L104.59,365.63L115.43,358.11L113.89,350.82L118.46,343.04L119.50,333.53L137.42,322.31L154.05,319.88L159.75,314.95L165.36,315.45L167.57,319.11L171.72,318.16L181.86,261.33L177.95,249.29L170.01,242.63L170.25,228.95L180.47,226.30L186.50,227.81L183.82,220.71L173.84,220.33L173.76,208.48L203.77,208.23L201.69,206.25L203.25,202.86L207.92,207.86L216.86,200.61L222.31,208.44L222.86,218.20L226.60,217.35L237.05,226.06L249.26,221.72L251.00,227.66L257.40,219.10L270.30,212.14L271.29,214.73L275.90,210.03L276.90,204.46L287.97,200.40L288.67,198.26L288.45,195.44L276.70,194.52L273.95,173.98L266.15,167.06L263.52,161.37L267.10,164.39L274.95,164.55L276.88,168.72L283.37,167.55L286.22,169.23L289.04,167.32L297.23,174.60L299.71,172.78L299.41,166.19L305.41,163.22L314.98,163.82L320.93,161.91L325.12,157.04L331.12,156.79L337.95,149.20L335.32,144.59L344.65,143.40L348.74,146.71L345.60,156.92L353.99,159.60L353.07,162.86L356.81,167.67L350.87,174.21L348.55,187.46L349.97,196.21L353.01,198.31L352.71,205.65L361.55,214.33L369.10,218.02L374.68,216.53L378.20,210.43L383.40,211.97L384.15,209.39L391.66,208.46L395.94,203.55L420.14,205.82L420.77,202.21L416.72,198.45L419.84,193.44L424.21,195.88L437.77,192.00L442.29,197.20L452.38,201.11L458.94,196.39L473.21,199.93L479.75,193.91L483.92,182.08L497.56,162.29L500.19,167.86L498.78,158.50L504.62,165.13L504.81,173.00L506.52,168.72L507.64,184.20L513.62,199.99L511.84,201.84L514.68,201.21L517.39,206.51L526.53,208.23L527.73,215.79L523.00,217.37L527.65,218.22L511.65,236.60L502.14,241.16L503.48,242.03L497.65,249.30L491.37,264.19L485.99,264.32L477.66,268.96L485.27,267.46L486.60,270.60L510.78,256.39L508.71,260.33L514.05,271.48L510.07,273.56L510.70,275.45L514.84,272.87L518.29,277.61L520.12,274.60L526.07,273.09L528.98,278.24L528.38,274.47L532.87,276.48L531.78,274.35L535.90,272.23L536.63,276.11L531.62,288.66L534.03,287.76L543.99,268.95L545.93,268.21L542.79,273.46L549.46,264.99L553.51,270.09L552.54,267.34L555.34,266.59L552.30,266.42L552.55,263.13L555.17,263.72L560.43,251.80L561.77,254.00L564.49,250.03L565.91,253.53L568.46,250.27L570.02,253.68L571.86,254.56L570.64,250.54L571.60,252.16L573.61,250.54L576.35,254.31L577.45,251.87L577.81,255.56L579.37,252.42L579.76,256.18L582.03,252.71L583.27,256.94L584.92,254.36L585.94,255.56L583.27,258.33L588.97,255.58L588.13,258.81L592.14,259.70L593.00,256.30L591.90,261.33L594.74,259.33L595.65,261.83L596.91,258.99L597.47,262.58L598.89,259.15L599.90,263.95L601.48,260.45L602.30,264.68L604.63,262.93L604.88,265.59L606.90,263.24L604.65,266.96L606.10,267.97L608.49,263.71L608.53,271.60L611.38,266.81L613.15,265.83L614.85,268.85L616.61,265.69L615.44,269.97L617.16,268.34L617.42,271.87L619.45,271.10L617.63,272.85L621.39,271.60L620.30,273.34L622.59,273.23L623.34,276.04L621.05,276.98L623.23,277.11L617.39,281.37L620.19,281.22L620.42,284.12L623.81,278.91L625.55,282.37L620.36,287.11L622.41,286.11L620.96,295.49L618.14,298.15L617.88,300.04L624.32,293.64L626.80,285.06L631.38,283.86L625.81,291.08L628.68,290.15L628.44,292.16L633.35,286.27L634.15,287.88L640.19,284.24L641.69,286.38L642.16,282.45L663.19,291.52L670.30,289.61L680.82,294.83L680.60,292.27L703.13,291.78L729.86,307.30L737.80,317.18L752.80,329.49L764.12,333.45L773.82,331.99L782.44,333.75L787.53,341.77L788.82,353.35L790.81,353.73L793.97,366.13L793.00,370.07L794.33,367.19L795.15,370.91L794.95,377.09L792.75,377.85L794.94,379.07L793.13,381.10L794.83,384.74L786.08,407.78L779.15,416.56L777.31,414.94L776.28,417.68L775.44,415.68L774.42,415.42L776.01,418.07L777.12,417.87L766.53,431.72L757.76,436.67L753.59,443.12L751.17,441.24L753.40,444.25L750.20,448.51L748.91,448.13L751.22,445.38L750.74,444.38L747.71,447.38L747.33,450.26L749.65,449.14L744.44,460.01L732.64,476.20L728.88,477.69L729.30,472.32L726.08,469.55L724.03,474.37L723.05,471.06L721.95,472.57L723.19,474.67L725.48,475.07L721.41,484.20L719.90,483.47L718.55,488.35L720.39,486.48L720.96,492.67L718.98,490.42L717.96,490.86L720.70,493.18L719.28,493.74L720.96,496.79L719.34,497.07L719.28,498.24L719.90,498.88L719.48,497.68L721.36,496.88L721.84,493.80L721.95,495.75L719.41,508.01L723.05,529.57L716.90,553.49L718.17,562.95L708.91,573.81L706.67,598.10L702.40,601.07L698.75,610.25L696.33,609.63L698.28,611.25L696.70,614.52L689.44,621.17L684.14,632.50L685.24,642.20L668.03,651.73L667.56,654.74L669.74,655.69L667.19,659.89L649.16,659.75L647.39,658.75L648.37,654.11L644.92,655.60L646.69,659.67L639.78,661.46L631.92,661.89L639.01,660.37L634.65,658.25L628.69,661.12L624.70,659.08L619.58,662.19L620.45,665.43L623.11,665.65L615.70,666.60L606.95,671.52L606.71,675.41L598.95,674.05L591.45,678.90L589.72,676.19L589.88,678.96L560.19,697.46L563.10,697.84L557.40,705.16L558.85,701.91L555.20,703.34L555.34,700.97L553.03,701.33L552.72,705.49L547.93,703.23L548.50,705.87L554.70,707.23L551.51,712.25L547.47,712.65L551.12,712.62L550.60,718.44L548.10,719.18L546.99,716.33L546.96,720.65L550.33,723.06L550.34,735.27L552.66,736.17L550.11,737.87L549.83,755.85L547.61,760.55L545.61,757.97L547.70,761.30L537.31,768.53L529.01,778.03L512.87,807.31L488.84,827.83L488.67,821.63L493.11,822.12L503.59,814.98L505.07,807.91L508.36,808.89L508.32,804.54L513.38,801.49L512.80,794.85L515.64,796.44L514.76,791.61L509.06,796.10L502.91,788.35L502.14,792.32L506.33,794.65L503.50,796.66L503.16,802.50L501.25,799.95L500.08,807.97L490.86,812.57L490.07,818.31L488.74,816.71L486.34,820.04L487.84,823.51L485.63,825.76L488.77,825.36L488.60,827.81L478.78,845.56L465.77,856.60L462.93,854.93L462.98,846.18L470.53,837.98L462.54,833.00L459.07,825.78L449.91,821.55L444.06,814.90L432.72,810.97L426.56,803.72L419.12,807.99L419.12,802.80L404.59,790.08L400.24,790.15L397.26,793.57L390.92,791.69Z M715.69,483.71L715.80,487.66L720.23,493.65L726.32,491.57L725.09,481.11L719.89,480.15L715.69,483.71Z M724.62,470.72L719.71,480.12L724.06,484.51L732.44,478.35L728.24,471.11L724.62,470.72Z M620.78,286.54L617.75,294.78L621.26,299.40L625.99,296.10L627.20,291.15L626.51,286.96L620.78,286.54Z M662.27,293.90L668.30,295.32L671.84,292.60L672.02,287.41L667.79,283.66L661.19,283.88L658.73,287.17L662.27,293.90Z M636.41,275.87L631.30,283.24L633.01,287.96L637.85,289.29L644.33,282.98L642.79,277.37L636.41,275.87Z M542.61,268.67L536.91,265.79L533.49,267.25L530.69,276.18L538.71,279.40L542.96,274.49L542.61,268.67Z M609.00,261.83L609.48,268.60L612.58,270.52L620.99,267.35L621.92,262.25L617.01,257.23L611.42,257.99L609.00,261.83Z M554.20,253.73L548.60,257.11L547.58,262.50L551.31,266.58L555.84,267.30L560.85,262.67L560.48,257.31L554.20,253.73Z M558.80,249.65L551.14,254.48L550.52,258.77L552.33,262.31L557.99,263.33L562.39,259.92L563.31,254.62L558.80,249.65Z M557.55,247.19L555.99,255.16L560.19,259.01L567.08,256.63L568.60,249.17L564.62,245.85L557.55,247.19Z M508.98,246.07L502.06,251.52L501.74,255.27L505.56,259.21L515.03,253.84L514.96,248.48L512.81,245.98L508.98,246.07Z M569.64,245.44L564.61,244.27L560.98,246.92L560.32,252.40L564.08,257.63L572.02,255.32L572.53,249.50L569.64,245.44Z M503.73,249.54L505.28,251.75L503.05,258.44L491.45,266.59L498.47,251.31L503.73,249.54Z M502.41,239.12L497.21,246.09L496.96,249.60L499.54,252.00L507.24,248.68L509.73,243.47L506.28,238.31L502.41,239.12Z M554.56,245.15L549.71,259.51L544.78,260.57L546.34,265.59L544.40,263.39L543.56,263.33L546.23,266.21L544.83,267.21L539.88,265.09L540.40,268.71L536.52,266.84L537.03,269.64L533.96,267.09L533.48,271.23L531.18,272.05L530.19,268.60L528.78,272.91L525.16,269.97L521.68,271.50L521.08,266.84L520.96,271.60L520.23,269.97L518.48,273.18L514.96,272.10L511.42,265.94L511.61,259.56L515.74,261.33L517.21,258.70L511.61,258.33L512.59,249.79L513.53,251.40L515.94,252.09L512.83,248.48L515.32,243.21L519.13,241.63L536.52,244.41L545.27,242.50L554.56,245.15Z M504.12,243.58L509.38,249.11L516.18,244.78L517.72,240.58L515.89,237.32L511.02,235.66L505.89,238.34L504.12,243.58Z M527.63,244.10L536.71,244.26L539.44,238.33L535.45,235.57L529.33,237.17L526.59,239.82L527.63,244.10Z M510.72,241.96L515.90,244.90L521.70,243.15L522.86,237.05L520.93,233.37L515.87,231.32L511.41,232.52L509.11,237.83L510.72,241.96Z M528.89,230.82L524.38,227.71L519.77,229.14L515.91,235.52L518.37,239.97L527.09,239.10L529.77,235.35L528.89,230.82Z M518.96,235.89L531.86,232.64L533.98,233.23L528.01,239.90L519.54,238.83L518.96,235.89Z M517.10,239.27L522.82,234.75L522.02,228.19L518.96,225.51L515.85,227.81L513.81,236.88L517.10,239.27Z M521.29,237.48L529.20,231.00L525.77,223.72L520.11,224.77L516.40,228.30L516.44,234.16L521.29,237.48Z M527.76,228.33L529.69,221.70L526.61,218.92L521.49,218.83L516.71,223.19L518.19,229.90L524.10,230.50L527.76,228.33Z M527.10,227.65L532.07,222.08L531.82,217.64L528.35,214.86L520.88,217.60L518.45,221.64L520.73,226.72L527.10,227.65Z M512.12,200.46L512.22,205.29L515.53,209.56L520.76,209.59L523.96,206.60L524.18,201.41L520.55,196.77L515.84,196.77L512.12,200.46Z M512.16,204.87L518.22,206.87L522.90,204.44L524.16,200.83L522.07,196.11L516.60,193.85L511.76,196.33L510.20,201.15L512.16,204.87Z M551.02,738.09L548.59,750.32L552.71,751.11L555.39,748.94L557.30,739.98L551.02,738.09Z M552.10,713.51L543.97,720.53L547.56,726.19L551.60,727.38L556.63,721.46L556.04,716.41L552.10,713.51Z M567.95,688.86L561.44,693.79L561.23,699.97L572.60,693.52L572.82,688.78L567.95,688.86Z M591.31,671.33L585.32,673.01L583.26,676.99L584.16,680.71L589.44,683.88L594.00,683.58L596.97,680.10L595.88,674.37L591.31,671.33Z M602.88,680.01L612.18,682.13L615.04,675.48L612.83,670.38L608.09,668.72L601.50,676.32L602.88,680.01Z M627.79,667.90L634.75,664.83L633.92,660.18L628.18,657.02L621.07,662.52L622.48,666.79L627.79,667.90Z M835.27,303.83L831.62,306.35L830.07,311.44L832.87,315.96L838.12,316.83L842.95,313.85L843.88,308.93L840.79,304.33L835.27,303.83Z M550.49,707.96L554.99,711.37L559.79,710.02L562.28,705.33L560.66,699.17L556.69,697.45L552.65,699.01L549.39,704.07L550.49,707.96Z M788.39,378.80L788.40,385.35L792.09,388.15L797.16,387.72L799.92,384.26L799.48,377.75L795.30,374.62L791.02,375.36L788.39,378.80Z M657.33,290.15L664.14,295.86L668.91,294.94L671.20,290.66L669.32,286.18L664.81,283.70L660.88,283.70L657.33,290.15Z M633.72,291.48L640.14,289.36L642.33,284.17L637.42,278.14L631.32,278.99L628.68,284.74L630.44,289.66L633.72,291.48Z M634.26,287.72L640.29,290.35L645.05,287.24L646.31,281.55L643.53,277.66L638.82,276.80L633.82,279.41L632.50,283.65L634.26,287.72Z M532.65,264.29L528.67,267.43L528.42,272.95L531.94,277.20L537.45,276.87L541.95,271.11L538.61,265.14L532.65,264.29Z M884.14,223.24L886.58,229.53L892.40,230.62L897.22,227.36L897.93,222.66L895.63,218.59L890.86,217.07L886.22,218.77L884.14,223.24Z M895.95,610.19L889.65,609.05L885.42,613.11L885.71,618.78L890.04,622.16L895.17,621.81L898.35,618.49L898.66,613.90L895.95,610.19Z M906.68,616.70L906.03,611.24L901.60,607.95L896.13,608.87L893.08,613.50L894.36,618.89L898.68,621.62L903.64,620.71L906.68,616.70Z" fill="currentColor" fill-rule="evenodd"/></svg>
