<svg xmlns="http://www.w3.org/2000/svg" viewBox="0 0 1000 1000" role="img" aria-label="Map of Brunei"><path d="M775.19,278.49L811.20,327.44L849.64,438.91L849.52,534.60L900.00,608.03L892.94,629.58L743.21,575.48L704.95,425.18L706.70,330.37L717.48,341.47L765.81,311.83L757.71,285.84L775.19,278.49Z M749.04,195.05L658.79,331.37L604.30,338.62L537.33,384.19L564.52,542.55L599.67,564.66L598.34,581.56L560.87,646.60L581.61,661.52L551.99,736.99L470.13,804.95L445.92,802.15L381.64,729.22L347.82,661.24L267.05,658.42L271.31,601.51L245.22,530.60L100.00,459.94L292.95,456.55L412.19,405.25L525.98,297.66L647.04,224.16L749.04,195.05Z" fill="currentColor" fill-rule="evenodd"/></svg>
