<svg xmlns="http://www.w3.org/2000/svg" viewBox="0 0 1000 1000" role="img" aria-label="Map of Bulgaria"><path d="M609.81,677.79L594.28,671.28L574.06,679.80L574.24,688.98L581.94,694.57L587.41,707.50L585.85,718.69L589.65,726.72L582.65,739.62L552.12,748.97L543.04,742.53L526.29,750.17L509.87,746.95L503.94,753.05L469.94,759.96L452.40,743.30L424.85,732.16L414.23,733.55L410.54,741.31L400.92,730.72L385.74,725.22L376.76,704.14L349.40,712.22L343.60,703.83L333.31,712.85L321.34,708.60L317.60,710.39L315.99,723.34L305.14,725.73L298.10,721.07L262.01,737.32L236.71,732.29L225.40,737.61L220.50,732.59L203.81,746.83L173.11,743.45L177.92,726.63L175.55,692.91L184.86,673.11L176.81,668.00L168.49,650.01L163.04,624.46L123.78,605.39L100.00,573.31L110.09,571.14L124.04,548.22L122.99,539.50L110.27,528.16L112.41,509.22L117.62,500.15L110.53,486.26L127.94,473.96L148.83,473.51L155.14,457.35L178.05,434.98L181.34,419.19L170.65,415.48L149.59,387.43L122.22,371.29L115.50,340.86L107.65,334.23L100.57,313.22L106.98,280.95L131.69,268.67L133.38,249.41L144.31,240.04L187.68,263.60L186.67,274.29L169.13,280.75L164.62,297.72L169.50,307.72L245.68,300.57L259.49,308.09L278.68,307.17L331.92,322.79L357.34,321.56L371.16,314.18L401.74,324.39L434.73,323.37L490.91,340.70L539.23,326.43L586.47,277.63L698.54,248.98L727.13,258.50L744.09,277.17L776.00,274.61L787.28,288.71L811.61,280.95L820.43,306.01L851.14,321.22L896.79,324.82L896.11,348.34L900.00,360.17L894.48,374.84L883.34,389.98L863.97,379.29L838.04,385.68L825.10,413.32L810.58,418.61L815.90,424.44L807.97,448.43L809.08,504.20L788.68,503.51L786.68,510.47L789.56,512.81L775.36,518.39L778.13,530.74L764.16,529.44L752.92,544.30L754.55,553.32L755.45,547.48L760.75,552.13L775.48,548.04L778.39,555.02L786.94,555.68L786.34,567.08L794.79,568.87L795.74,573.73L791.65,582.87L821.14,615.31L825.00,632.63L798.81,628.78L799.25,637.11L782.85,633.32L764.87,645.05L729.97,611.89L722.69,611.21L717.25,617.92L700.98,613.42L687.22,628.51L671.95,633.83L644.62,633.53L636.61,641.71L634.45,658.44L609.92,664.48L609.81,677.79Z" fill="currentColor" fill-rule="evenodd"/></svg>
