<svg xmlns="http://www.w3.org/2000/svg" viewBox="0 0 1000 1000" role="img" aria-label="Map of Burkina Faso"><path d="M900.00,535.11L889.61,559.03L861.64,583.69L844.44,581.77L820.27,587.65L817.01,580.96L803.90,578.84L798.86,583.54L799.70,586.61L793.73,589.98L792.85,597.97L787.09,594.94L786.58,602.21L775.26,598.32L772.65,602.24L775.47,610.69L771.33,609.34L765.75,613.16L771.33,624.53L757.57,619.57L754.64,623.47L755.74,630.53L726.63,629.04L707.65,634.76L707.55,627.53L627.85,611.00L626.11,617.37L621.05,621.11L615.36,617.36L612.18,624.79L598.64,629.67L594.17,637.38L589.32,632.66L590.21,629.56L574.66,627.25L567.30,631.35L564.07,627.54L521.32,628.20L500.38,625.11L496.72,628.15L371.48,628.06L373.10,637.55L368.77,641.90L361.86,665.69L369.24,683.14L378.54,687.74L371.08,695.80L371.91,699.65L379.82,704.33L375.37,713.76L381.94,749.64L375.73,760.28L381.31,767.43L378.67,775.12L386.46,784.20L378.93,794.22L374.21,792.23L364.12,778.62L356.05,761.47L345.48,758.84L341.19,748.95L334.82,747.31L333.33,740.04L324.53,747.74L322.97,741.52L293.74,739.77L288.14,736.59L278.70,737.94L263.03,742.85L248.51,752.25L238.75,750.11L225.26,759.03L222.00,770.97L217.03,770.19L216.41,774.45L212.58,767.75L203.21,767.00L202.38,757.68L199.43,757.72L198.11,762.71L192.87,759.54L185.08,764.20L179.29,756.85L173.41,756.71L172.03,753.89L175.49,753.24L173.21,747.60L156.26,741.55L156.54,727.14L145.75,719.91L148.85,717.41L143.66,712.90L144.30,707.78L141.00,709.79L140.78,700.94L122.84,697.89L112.14,700.22L100.00,687.29L109.22,643.92L104.39,630.39L102.10,630.94L101.85,620.34L119.22,615.28L126.26,601.83L126.20,587.49L130.76,584.18L129.18,568.27L121.73,563.96L123.80,549.34L111.14,542.14L125.02,541.22L143.80,526.55L176.97,523.72L197.27,508.94L194.74,504.00L204.04,496.18L204.58,491.23L212.88,492.60L208.28,479.37L214.79,469.16L205.15,457.55L204.88,450.47L216.65,447.95L227.89,449.82L232.51,439.66L230.75,426.23L218.44,409.98L220.87,403.51L230.20,402.78L228.31,397.25L237.15,392.18L245.09,379.78L256.27,373.30L254.14,371.24L256.19,369.23L262.23,374.29L256.81,380.94L274.30,385.04L299.93,402.90L309.60,403.49L309.69,393.46L329.90,390.66L326.33,364.86L328.78,352.85L326.03,348.76L328.04,346.77L335.24,351.13L342.39,350.88L348.21,358.18L365.63,353.54L362.31,338.23L368.46,317.44L395.75,294.50L409.47,288.44L440.79,301.35L452.51,298.75L456.44,268.80L486.78,266.17L521.83,243.53L549.30,235.11L585.58,205.93L611.04,205.78L615.30,213.78L634.42,207.26L680.44,223.26L676.96,232.71L680.56,241.85L674.41,266.17L697.66,291.47L692.64,304.49L695.67,313.46L704.52,323.00L704.33,327.60L719.06,341.42L718.43,349.68L735.54,350.39L736.77,355.23L749.03,357.33L758.58,364.97L760.99,372.78L786.62,385.15L778.42,383.28L775.70,388.75L757.79,382.84L757.79,417.60L770.97,421.34L816.46,459.01L844.75,461.70L851.60,452.33L857.69,449.48L871.58,451.40L880.77,462.75L885.32,480.52L867.56,484.75L865.79,489.03L900.00,535.11Z" fill="currentColor" fill-rule="evenodd"/></svg>
