<svg xmlns="http://www.w3.org/2000/svg" viewBox="0 0 1000 1000" role="img" aria-label="Map of Burma"><path d="M334.62,379.78L337.64,378.00L338.97,372.23L346.78,380.66L347.94,378.08L350.44,379.37L352.71,370.20L357.44,370.82L358.73,367.74L354.93,345.83L358.80,341.17L357.87,333.99L362.73,335.87L366.85,330.58L369.16,308.48L363.94,293.62L364.72,290.00L370.14,295.13L380.41,293.19L397.38,299.53L403.97,279.22L412.89,263.32L415.52,262.24L420.64,249.61L419.86,244.80L414.38,242.00L416.58,233.87L432.75,219.24L432.42,211.34L438.49,205.88L434.08,195.73L434.03,187.71L437.35,181.90L448.96,178.05L452.15,173.40L460.60,169.75L478.48,154.32L501.18,149.91L507.17,154.69L507.63,157.98L517.87,161.59L517.15,157.49L508.28,146.35L507.83,138.88L522.06,126.89L526.52,127.13L526.11,113.32L531.13,109.90L534.35,100.00L537.82,102.03L540.11,100.78L543.94,107.56L549.27,107.44L558.52,117.30L557.72,123.76L560.55,126.33L559.05,127.80L565.29,142.40L568.86,141.58L569.95,136.09L580.80,140.66L580.53,157.81L583.16,163.23L583.88,181.32L579.30,197.15L581.86,200.54L579.40,203.83L578.38,201.79L575.41,203.50L581.33,213.18L578.01,216.53L573.49,215.24L566.82,226.51L559.05,224.61L557.92,233.80L555.21,237.40L549.77,241.85L545.37,240.57L541.28,247.94L543.93,257.78L539.85,257.99L534.56,262.53L533.77,274.69L539.18,274.96L542.11,287.12L533.90,295.86L538.26,299.96L557.64,289.08L570.95,287.86L577.01,290.19L588.32,287.20L587.94,289.84L579.98,295.08L580.17,302.09L585.39,303.73L587.93,310.07L584.90,313.37L589.28,318.75L588.05,328.46L594.80,329.27L602.47,333.67L607.20,330.59L613.63,333.67L615.44,339.26L610.41,339.08L610.45,342.23L606.16,347.00L608.17,357.66L603.54,362.03L599.56,372.27L626.85,378.06L631.75,376.88L632.07,390.73L639.83,393.56L637.70,398.94L641.62,403.25L647.87,398.88L652.49,402.09L659.15,401.49L667.75,393.45L677.75,388.78L681.42,395.39L680.75,399.33L674.55,404.19L666.93,408.70L663.33,408.21L661.88,414.72L655.99,420.35L654.96,425.52L660.38,426.79L655.72,429.74L648.79,428.86L642.60,434.45L638.08,450.65L631.54,445.22L620.03,451.12L610.70,448.19L614.32,457.66L605.66,461.56L600.91,459.02L596.70,459.90L594.42,462.47L593.77,471.87L589.68,474.96L585.99,472.49L574.89,478.07L562.98,478.54L554.39,472.64L553.74,479.64L547.30,482.69L544.01,489.95L545.77,502.13L539.60,510.10L542.24,513.25L543.14,525.24L533.62,528.65L527.24,526.09L532.69,537.15L538.78,536.55L537.99,539.31L543.48,550.95L540.34,556.87L543.69,562.80L573.95,596.91L571.82,604.15L578.88,615.26L580.15,622.79L587.27,614.86L589.81,618.74L585.96,630.31L580.81,629.65L575.46,633.00L575.99,662.56L569.67,662.36L568.94,666.79L564.82,665.35L560.55,668.31L559.87,673.19L563.22,686.06L575.49,704.31L591.13,716.79L597.37,725.98L599.89,732.61L601.41,753.34L597.86,755.82L597.50,761.50L600.39,764.18L602.79,775.20L610.00,781.25L611.98,800.31L615.59,799.83L614.65,804.73L619.15,813.71L615.62,821.19L611.88,822.33L602.33,843.92L595.96,850.88L593.43,850.76L592.71,856.05L584.33,861.83L583.55,876.27L575.31,891.78L571.93,860.69L574.72,861.65L578.85,854.91L576.86,853.58L582.14,851.77L582.54,846.62L579.95,842.90L582.61,841.87L584.03,837.06L581.56,831.97L584.66,829.17L582.36,825.83L583.07,821.12L589.37,818.92L584.98,816.30L586.03,812.19L580.59,819.28L577.75,814.22L581.90,811.02L575.55,811.02L582.50,805.93L578.80,800.20L581.77,795.69L577.47,797.55L575.15,795.51L581.90,790.98L577.81,787.52L578.26,785.10L582.03,783.96L578.53,782.00L581.35,774.87L578.32,773.12L576.73,755.16L572.76,751.01L572.49,745.50L571.67,746.93L565.58,733.20L563.28,732.65L561.15,717.67L560.94,739.91L559.22,740.20L560.21,734.07L557.57,733.20L555.89,720.01L557.84,713.27L553.14,706.32L553.41,700.42L552.03,701.29L548.78,691.22L551.11,689.68L554.52,692.78L551.38,686.32L547.37,689.54L545.12,682.84L546.25,668.80L542.37,663.23L545.12,660.32L542.39,641.73L536.01,632.37L539.32,623.45L538.77,614.65L542.92,611.15L528.00,614.38L526.37,606.00L523.37,605.23L522.77,597.69L521.92,599.75L520.46,595.68L519.41,588.62L523.59,587.75L519.44,586.81L518.33,588.94L517.49,584.25L508.85,575.90L508.35,572.80L505.87,575.48L509.46,578.79L506.99,583.24L509.47,591.27L507.25,596.55L505.32,596.23L506.88,598.95L500.14,610.48L490.33,614.63L483.46,609.55L481.84,602.52L484.31,600.31L479.63,602.09L485.69,617.30L477.53,621.29L473.00,618.49L475.46,621.78L471.92,625.50L470.77,624.03L468.01,626.10L468.29,624.61L464.57,628.84L461.63,625.52L459.21,637.20L449.17,646.86L444.01,646.13L447.09,635.69L446.98,628.70L446.18,635.72L442.54,640.66L443.40,634.87L440.98,644.15L437.47,642.82L436.33,633.96L437.96,630.75L441.51,629.91L437.87,628.70L435.24,631.84L433.76,643.33L431.41,645.10L426.22,643.97L428.21,641.55L426.47,641.85L425.73,637.20L429.33,633.39L427.93,634.29L426.87,629.58L432.09,624.32L426.53,628.19L427.13,633.28L421.15,641.15L416.31,638.40L421.60,634.29L424.07,628.11L420.51,634.15L414.91,637.79L419.44,629.85L421.60,612.63L419.37,612.32L417.39,623.92L415.61,624.93L417.46,620.33L415.60,623.30L413.08,622.41L409.33,631.87L401.72,636.04L402.88,612.51L405.83,611.61L407.48,596.55L410.80,594.48L410.39,584.64L413.75,584.33L414.09,578.68L416.04,579.85L414.66,567.47L416.87,569.03L409.98,550.14L411.85,546.53L409.12,539.27L405.27,538.58L405.41,536.68L408.88,536.22L398.07,518.41L403.32,518.09L400.63,517.95L398.07,512.55L396.88,514.76L393.60,512.94L395.86,503.20L393.23,502.85L394.76,490.32L393.41,498.19L390.99,500.68L388.45,498.77L391.43,508.30L389.25,512.96L379.11,506.09L371.37,492.68L371.52,489.52L374.03,488.54L376.79,492.65L385.37,496.76L391.55,490.41L391.43,487.11L381.22,479.92L383.99,478.89L384.27,475.08L382.42,478.11L380.34,476.46L382.04,474.23L375.98,476.24L376.18,472.93L381.57,467.42L375.15,469.29L372.93,464.26L368.79,465.71L367.14,460.44L366.32,463.10L365.46,459.86L362.71,462.20L356.90,460.18L361.24,470.75L356.13,464.49L358.53,472.45L350.52,458.70L355.52,457.82L356.60,455.17L351.34,457.61L355.41,447.96L355.77,445.82L354.13,448.76L352.97,446.73L354.68,440.54L352.64,444.90L352.38,450.35L346.39,459.01L342.78,454.33L349.42,450.51L345.55,448.11L344.74,443.09L342.42,444.79L340.46,438.94L337.00,434.42L339.96,439.51L340.88,453.16L331.84,438.21L326.76,434.33L322.30,419.43L318.68,414.78L318.58,408.72L324.40,401.80L327.53,405.68L332.54,406.10L334.40,410.96L336.95,409.47L334.62,379.78Z M561.53,897.90L558.69,893.48L553.69,892.51L549.38,894.62L548.01,900.54L550.11,904.64L556.04,906.06L560.82,903.35L561.53,897.90Z M561.89,862.88L556.25,865.31L554.88,869.76L556.65,874.88L560.25,876.77L565.42,875.36L568.57,870.80L568.40,866.79L561.89,862.88Z M577.14,851.74L577.12,845.56L573.58,842.55L568.94,842.84L565.23,846.16L565.12,851.52L568.43,855.60L573.68,855.70L577.14,851.74Z M535.90,810.09L530.06,808.15L526.13,810.38L524.71,814.68L526.55,818.82L534.49,821.25L537.95,818.31L538.52,813.80L535.90,810.09Z M553.84,770.14L548.88,765.24L542.71,767.13L540.46,772.51L543.58,777.45L550.03,778.77L553.86,775.31L553.84,770.14Z M565.56,886.62L561.13,887.06L556.81,891.08L557.26,899.87L561.07,898.96L567.46,891.67L565.56,886.62Z M564.41,890.84L566.54,882.32L558.37,879.97L556.84,883.17L558.70,892.52L564.41,890.84Z M544.99,868.77L545.54,877.00L550.23,879.08L553.79,877.10L556.14,872.56L554.14,867.55L547.33,865.77L544.99,868.77Z M569.75,850.01L569.60,860.10L572.36,861.99L576.60,862.00L579.92,857.94L579.15,852.36L573.22,848.42L569.75,850.01Z M552.71,858.65L556.76,851.98L555.45,848.51L547.06,847.27L543.75,857.06L546.08,859.78L552.71,858.65Z M566.20,859.64L560.30,848.55L555.77,852.82L560.76,854.22L563.53,862.55L566.20,859.64Z M575.02,854.39L578.07,853.35L578.54,844.36L573.34,841.03L568.74,850.54L575.02,854.39Z M564.13,831.45L557.60,834.46L557.44,839.33L561.67,844.44L565.83,844.13L570.70,839.78L569.42,834.15L564.13,831.45Z M564.63,814.39L566.43,817.31L564.84,826.79L560.52,829.36L564.63,814.39Z M568.25,813.70L569.78,824.77L575.79,826.76L576.04,813.76L568.25,813.70Z M552.20,817.65L555.59,822.99L558.19,823.20L558.72,816.82L555.07,809.90L551.94,811.48L552.20,817.65Z M534.97,807.25L534.91,815.23L539.78,818.30L543.69,817.05L545.93,811.31L544.33,806.57L537.66,804.77L534.97,807.25Z M567.16,816.67L570.95,811.54L569.56,807.01L564.82,803.86L560.66,804.92L557.83,809.70L559.13,815.72L562.96,817.78L567.16,816.67Z M563.22,801.09L558.00,803.71L557.04,808.52L560.58,814.38L565.67,814.57L569.09,810.79L569.55,804.92L563.22,801.09Z M581.94,806.85L572.96,799.72L569.41,799.54L571.44,812.40L581.71,810.12L581.94,806.85Z M561.89,802.28L560.39,791.55L555.12,789.89L551.36,798.05L559.43,803.66L561.89,802.28Z M547.80,792.38L553.75,797.95L560.36,791.85L560.71,787.60L555.01,784.27L549.38,786.95L547.80,792.38Z M569.02,782.68L569.29,791.10L573.47,793.22L576.75,791.81L578.80,787.04L575.87,779.82L571.75,779.58L569.02,782.68Z M558.67,779.38L557.40,785.11L560.61,789.03L564.43,790.12L569.16,787.00L570.55,783.49L567.88,778.15L564.77,776.26L558.67,779.38Z M540.60,781.93L543.22,786.93L547.31,788.67L551.42,787.00L553.12,780.45L550.84,775.85L545.80,774.88L541.32,777.75L540.60,781.93Z M571.59,780.05L571.79,786.29L567.52,791.92L565.58,791.41L566.13,776.48L569.76,778.55L570.56,783.22L571.59,780.05Z M567.50,759.80L563.07,753.49L565.65,767.39L567.50,759.80Z M544.61,726.63L545.89,733.26L549.29,735.13L553.08,734.30L556.21,728.26L555.43,723.62L551.35,721.27L546.41,722.63L544.61,726.63Z M362.44,713.04L362.64,720.55L365.79,722.66L370.33,721.51L372.74,716.90L371.07,710.26L367.74,708.78L362.44,713.04Z M381.31,689.09L385.48,685.59L386.32,679.16L383.01,675.96L378.40,676.16L373.95,680.80L373.42,685.51L376.57,689.06L381.31,689.09Z M534.25,653.18L537.36,660.67L541.87,660.92L544.82,657.48L541.78,647.95L538.11,647.47L534.25,653.18Z M424.86,633.87L417.19,643.07L420.47,647.08L426.36,647.37L429.76,641.93L429.45,636.99L424.86,633.87Z M418.77,625.56L417.46,631.82L408.30,641.90L407.78,634.99L418.77,625.56Z M537.64,614.04L531.28,614.50L531.31,622.39L535.13,626.86L537.64,614.04Z M381.69,510.59L376.33,509.03L369.46,512.28L377.98,522.40L383.03,520.28L381.69,510.59Z M391.09,488.83L380.95,482.80L377.25,485.97L384.02,495.47L388.97,493.60L391.09,488.83Z M373.36,466.97L367.50,463.70L365.47,466.86L367.71,474.15L372.48,477.65L374.94,474.85L373.36,466.97Z M351.33,461.57L346.86,459.86L353.12,473.04L353.82,468.07L351.33,461.57Z" fill="currentColor" fill-rule="evenodd"/></svg>
