<svg xmlns="http://www.w3.org/2000/svg" viewBox="0 0 1000 1000" role="img" aria-label="Map of Burundi"><path d="M738.33,136.13L687.09,226.84L689.77,239.93L726.48,228.26L699.85,262.47L687.01,303.16L713.87,337.18L732.52,320.69L769.01,348.63L838.47,350.16L821.01,375.65L841.22,412.77L834.53,449.82L820.05,465.86L800.01,462.15L770.10,481.36L756.32,496.06L769.58,513.43L693.11,562.46L671.23,618.65L674.37,650.03L648.54,650.61L610.49,702.66L588.67,760.57L534.41,829.12L476.88,865.63L453.49,866.85L434.54,900.00L313.04,894.99L289.13,762.94L243.12,691.33L240.03,481.97L252.68,456.71L242.78,419.74L250.36,375.34L221.57,359.88L181.76,294.20L158.78,282.83L174.20,263.62L175.67,217.62L205.57,207.97L272.47,228.87L288.40,255.81L281.22,270.17L289.20,293.82L320.88,285.28L349.99,293.97L392.55,279.47L429.77,286.05L438.94,269.21L475.04,266.41L495.56,236.29L508.05,105.13L576.48,147.57L610.01,113.40L643.46,118.75L673.26,100.00L738.33,136.13Z" fill="currentColor" fill-rule="evenodd"/></svg>
