<svg xmlns="http://www.w3.org/2000/svg" viewBox="0 0 1000 1000" role="img" aria-label="Map of Cabo Verde"><path d="M295.80,841.34L302.09,859.46L291.72,871.42L279.50,851.95L295.80,841.34Z M410.46,806.51L416.60,853.08L393.63,867.68L371.98,860.82L348.95,833.92L360.09,813.48L397.11,796.46L410.46,806.51Z M668.12,803.20L657.01,835.79L645.72,838.91L591.03,820.34L567.90,783.92L580.14,738.07L571.80,713.79L580.14,707.24L594.57,713.23L596.33,727.96L651.82,771.01L668.12,803.20Z M766.30,713.79L771.04,757.17L745.96,772.66L727.39,756.37L735.54,734.81L729.43,730.94L747.78,707.24L766.30,713.79Z M899.20,447.73L900.00,480.46L862.29,504.46L842.08,505.09L815.19,483.88L830.24,461.10L829.63,424.34L848.45,435.94L865.97,428.26L886.85,434.07L899.20,447.73Z M485.85,309.48L496.21,325.48L424.73,317.77L409.10,350.24L395.31,317.80L377.48,301.55L398.12,288.48L418.61,300.82L485.85,309.48Z M825.57,315.85L821.93,292.27L809.88,281.67L807.19,246.85L827.59,232.99L839.85,285.03L835.75,309.48L825.57,315.85Z M214.10,213.52L244.48,236.24L240.06,247.38L211.14,256.32L179.47,243.59L214.10,213.52Z M216.14,156.30L151.50,211.92L118.42,215.27L113.89,188.08L100.00,172.47L113.02,156.68L176.94,128.58L195.76,132.98L216.14,156.30Z M326.15,312.97L335.42,314.05L338.12,306.76L335.33,305.47L325.83,308.61L326.15,312.97Z M275.16,251.01L301.93,265.38L301.50,269.43L285.09,272.12L270.84,259.54L275.16,251.01Z" fill="currentColor" fill-rule="evenodd"/></svg>
