<svg xmlns="http://www.w3.org/2000/svg" viewBox="0 0 1000 1000" role="img" aria-label="Map of Cambodia"><path d="M886.92,167.97L884.63,193.30L878.51,207.54L866.75,211.74L861.44,224.12L862.47,240.12L856.62,258.51L861.86,276.70L873.37,279.47L875.26,310.59L899.60,354.71L900.00,374.65L877.85,428.56L893.67,492.84L887.20,529.97L871.12,547.39L856.66,535.76L840.29,539.40L801.23,574.18L773.81,576.54L763.17,591.26L716.69,591.41L723.45,607.83L717.26,623.57L721.50,639.06L710.69,634.71L698.57,636.78L690.94,629.32L659.48,622.27L647.18,642.03L635.67,639.14L627.66,644.81L625.47,650.62L634.96,656.89L637.83,672.90L633.63,696.68L670.24,732.85L674.30,728.11L681.37,733.28L685.54,745.24L677.01,746.32L675.56,753.15L683.94,777.67L659.85,769.47L646.77,757.61L638.81,768.19L619.80,739.15L577.63,750.72L568.05,747.30L554.06,766.52L544.30,759.60L520.76,754.83L517.79,749.79L507.74,759.55L516.03,780.83L512.43,789.44L495.64,798.75L484.01,814.13L440.55,814.64L425.85,832.03L409.77,820.88L399.88,821.95L392.65,808.11L368.35,810.53L346.66,805.34L334.70,788.12L334.15,802.91L327.77,812.17L309.84,809.26L316.67,817.59L298.05,818.84L295.39,810.32L279.62,800.85L289.51,783.91L307.85,781.68L306.24,772.35L312.94,765.64L312.94,757.85L303.43,736.96L305.71,731.71L284.31,716.37L274.57,718.06L264.53,759.47L257.00,761.40L245.68,751.99L237.41,760.44L222.91,759.95L224.94,757.27L218.20,751.79L221.55,718.48L217.16,707.86L212.47,707.38L215.68,699.22L226.75,692.32L224.94,686.15L218.91,686.44L213.50,672.32L223.39,670.29L230.11,675.58L224.94,662.80L220.81,669.14L213.50,663.59L209.37,647.90L208.34,657.51L200.00,659.62L196.90,655.31L204.21,656.45L202.83,643.14L210.31,644.82L202.14,637.33L199.04,642.71L201.70,632.74L213.84,631.92L216.60,628.87L201.11,630.99L187.60,613.01L199.04,630.99L196.90,653.28L190.70,641.56L190.73,623.04L158.42,565.25L160.70,533.75L167.80,519.21L141.58,492.31L126.14,484.36L129.20,464.80L122.88,443.12L126.71,432.51L110.37,410.75L102.23,389.30L100.00,348.13L142.97,338.16L134.60,328.21L158.21,313.95L169.43,286.97L184.08,273.88L193.80,245.95L221.60,228.57L271.72,219.53L284.37,212.18L293.85,214.46L300.04,208.43L305.24,210.56L305.76,217.23L337.53,224.36L342.77,220.62L355.10,223.64L376.18,220.40L381.64,214.48L385.31,218.54L392.29,214.97L436.93,221.27L447.14,212.20L459.60,209.87L462.62,214.07L471.51,208.96L502.06,218.13L502.38,230.44L513.17,243.92L521.34,241.37L533.87,223.54L535.85,235.22L557.07,260.04L569.82,260.36L586.59,251.62L599.30,261.12L618.46,263.61L624.97,275.50L641.98,289.05L667.60,289.99L669.53,280.02L679.73,268.77L659.03,242.11L653.21,220.42L683.33,219.83L691.92,201.13L703.46,208.09L720.50,204.84L723.11,195.96L730.42,195.96L728.51,189.73L734.60,185.66L739.32,197.78L764.02,210.60L779.09,228.62L798.24,227.50L812.39,209.67L820.15,215.01L828.13,210.87L851.69,184.40L870.98,192.93L886.92,167.97Z M320.86,814.95L313.88,822.18L324.66,828.27L327.41,820.15L324.16,815.39L320.86,814.95Z M240.81,775.94L251.85,786.97L245.68,792.25L233.76,778.36L240.81,775.94Z M207.42,676.97L210.31,699.23L204.91,702.07L202.14,675.58L207.42,676.97Z M202.93,662.10L208.13,675.66L208.41,675.79L211.65,669.10L202.93,662.10Z M255.62,806.36L253.06,799.83L246.19,800.88L252.23,813.34L255.62,806.36Z" fill="currentColor" fill-rule="evenodd"/></svg>
