<svg xmlns="http://www.w3.org/2000/svg" viewBox="0 0 1000 1000" role="img" aria-label="Map of Cameroon"><path d="M428.00,864.21L335.58,864.22L323.07,857.27L327.72,814.10L333.13,802.27L329.41,788.18L331.31,786.79L311.35,768.06L323.68,761.84L310.25,763.79L311.35,761.37L304.68,748.42L310.12,753.28L312.78,753.24L307.68,749.12L309.90,744.55L318.46,748.42L318.98,745.55L313.73,742.16L319.85,738.77L309.74,738.57L319.16,726.29L307.00,734.88L300.00,727.99L298.04,730.17L303.74,736.53L300.80,737.14L297.18,733.66L296.10,735.20L299.88,741.68L290.62,741.68L287.78,738.24L289.42,733.55L284.15,738.53L281.40,738.29L280.41,734.47L275.34,734.54L264.77,728.73L266.14,720.56L261.14,713.52L259.47,703.55L262.31,697.05L259.87,699.27L259.94,694.67L256.15,691.00L257.60,697.66L252.79,693.70L252.08,697.88L247.62,695.15L242.83,684.10L242.15,687.90L247.52,699.86L237.38,701.35L238.56,698.49L235.41,700.24L232.77,698.89L235.67,692.75L233.84,693.47L233.00,690.82L237.14,686.50L239.15,674.09L252.81,654.60L255.96,631.31L260.10,624.11L254.22,616.53L257.20,613.11L256.02,607.60L261.34,602.45L265.57,603.06L266.34,599.68L285.75,581.57L290.45,573.78L296.13,572.01L308.64,559.70L314.89,558.57L321.52,540.12L327.50,540.62L346.13,525.22L350.84,534.21L370.64,534.53L376.38,516.59L379.30,522.69L393.97,529.59L399.35,540.86L408.19,543.92L412.38,564.32L423.38,565.66L431.32,563.86L434.58,555.72L442.68,550.60L445.14,544.02L443.00,538.08L444.64,534.43L461.80,520.72L466.20,520.20L465.97,516.85L456.79,507.32L476.54,485.41L476.39,475.42L488.41,458.50L487.75,449.20L491.51,441.95L490.84,428.70L493.94,425.79L498.08,426.04L503.12,420.98L500.68,413.06L513.82,413.34L520.93,409.58L524.29,403.17L530.24,400.53L532.16,378.95L537.45,367.36L534.47,359.26L543.29,352.50L558.08,347.77L562.76,329.60L559.28,324.81L561.62,317.57L560.49,312.54L561.72,310.16L569.49,308.68L574.71,304.98L581.92,272.21L596.20,250.57L596.92,244.53L612.71,226.36L625.43,229.02L655.17,210.95L656.73,207.99L657.09,201.61L651.57,196.01L654.95,190.87L657.49,179.19L655.90,173.56L660.34,163.23L656.34,162.84L647.76,152.04L627.06,149.76L618.45,100.22L642.98,100.00L648.98,107.85L647.97,114.53L652.06,118.41L652.46,122.00L663.24,125.41L663.49,130.01L664.91,128.06L667.33,131.36L670.82,130.97L677.01,152.81L676.30,165.00L680.93,169.22L686.81,169.77L689.01,177.68L686.73,178.30L686.44,184.28L691.08,190.89L688.19,199.44L692.79,208.54L687.58,216.57L684.85,232.92L685.82,246.08L688.86,252.84L687.95,260.19L693.78,272.09L692.97,279.19L698.54,281.61L704.30,293.89L716.45,306.42L730.68,316.33L713.88,320.50L694.17,316.66L685.67,319.72L676.30,318.48L667.58,321.20L644.53,316.05L626.56,317.25L622.26,326.08L610.19,340.04L636.25,368.71L638.21,373.94L669.06,398.78L676.39,401.53L680.26,408.40L686.98,410.67L696.13,422.20L707.35,446.22L713.98,466.98L722.46,470.27L721.49,481.59L712.50,495.19L713.43,498.47L698.92,508.42L696.40,519.55L692.83,522.58L685.78,541.38L678.69,546.04L667.56,573.48L663.87,577.71L651.09,582.46L640.83,593.03L646.28,601.32L654.54,601.13L656.81,605.22L657.76,614.11L654.92,623.19L656.81,631.10L650.04,645.43L659.69,654.26L663.74,692.24L668.08,697.63L682.96,706.85L687.81,715.25L689.71,727.26L696.55,731.37L691.10,734.39L685.18,733.96L689.27,743.78L737.93,798.24L746.84,798.94L759.22,815.37L756.71,822.62L757.16,826.58L760.48,826.71L759.08,840.07L767.23,860.20L763.87,863.07L760.06,862.26L757.24,874.70L763.63,895.48L760.78,895.48L757.66,900.00L753.77,891.83L745.17,890.29L732.45,880.58L716.91,877.51L706.80,881.31L698.14,873.04L693.91,872.94L688.57,877.26L682.04,873.50L675.91,875.37L676.94,871.69L673.45,867.70L672.35,870.50L667.05,871.23L666.81,868.84L664.44,868.84L665.87,867.89L658.13,866.13L652.97,861.20L651.93,864.15L644.00,866.56L636.18,863.87L564.96,864.54L564.27,858.85L555.88,855.99L547.35,858.72L531.19,857.33L527.14,859.24L497.40,853.83L489.14,856.24L458.98,856.20L451.28,853.24L430.06,854.77L428.00,864.21Z" fill="currentColor" fill-rule="evenodd"/></svg>
