<svg xmlns="http://www.w3.org/2000/svg" viewBox="0 0 1000 1000" role="img" aria-label="Map of Canada"><path d="M514.82,751.41L514.67,758.69L268.01,758.69L266.64,756.84L264.99,758.69L263.59,753.25L266.15,753.11L267.09,750.02L266.36,752.26L263.39,752.07L264.27,744.93L261.03,751.05L256.31,746.37L257.40,744.19L258.85,748.79L261.03,744.93L258.70,746.12L257.51,743.81L259.05,737.43L258.39,736.19L256.92,735.00L258.58,737.25L257.41,742.55L256.52,740.69L254.33,744.14L249.44,738.19L250.73,739.50L250.48,732.85L253.65,729.41L247.18,732.98L249.08,727.99L249.58,721.35L246.77,730.81L244.72,728.76L242.75,730.16L243.85,725.34L241.62,730.79L240.87,728.98L238.90,730.14L236.46,729.22L239.33,726.78L236.49,727.16L241.60,726.08L243.38,721.11L242.21,717.94L242.12,724.14L237.30,726.27L238.66,723.90L234.07,723.08L237.42,721.12L234.36,718.47L232.94,722.29L228.54,721.11L229.64,723.36L223.07,716.71L228.89,713.40L223.05,713.56L225.09,710.85L225.62,707.96L232.91,707.48L233.57,706.16L233.01,704.45L232.71,707.10L226.24,706.97L226.89,703.14L224.25,706.43L225.84,707.16L223.64,711.11L222.21,706.94L222.42,702.18L228.48,694.53L232.95,700.88L230.57,694.73L232.23,693.04L228.74,693.90L228.01,691.83L230.63,686.88L230.30,684.63L224.51,694.88L222.22,696.40L222.08,690.69L220.94,693.94L222.17,689.36L217.57,694.92L220.82,682.94L217.12,684.66L216.78,678.52L213.48,675.96L212.36,670.59L216.66,674.69L217.93,672.04L219.94,672.63L222.23,676.93L220.09,671.91L217.73,671.61L216.34,672.96L213.85,669.46L214.15,665.93L216.84,665.09L214.87,663.98L215.73,661.45L212.73,666.35L212.97,665.03L212.05,663.98L209.54,673.90L202.25,663.05L203.54,658.81L205.74,662.92L203.84,658.42L206.66,658.48L207.74,657.18L202.07,658.93L200.96,654.19L198.87,654.82L199.33,649.81L202.72,655.52L203.56,655.82L203.36,652.08L202.28,653.80L199.86,649.21L204.27,650.05L201.64,645.73L206.40,642.93L203.18,642.30L207.86,633.40L205.76,634.61L204.76,630.78L205.10,635.84L202.07,642.63L202.55,621.80L186.86,611.97L172.85,577.02L158.84,560.09L158.17,554.46L154.15,550.22L147.21,553.52L144.43,562.20L136.22,567.45L135.11,560.90L121.06,544.80L121.98,539.63L116.61,539.91L113.60,542.60L104.84,540.34L104.75,359.92L121.40,362.57L126.24,367.81L128.44,366.61L138.58,373.44L148.92,374.70L157.13,379.04L155.42,375.60L149.48,373.49L149.93,371.55L151.58,372.65L153.82,371.91L150.24,370.68L149.81,368.20L154.75,370.58L150.82,366.88L156.98,367.41L157.08,363.23L163.15,363.92L163.11,358.45L166.33,361.98L169.64,361.85L164.61,369.52L170.70,364.78L175.95,364.10L177.36,359.73L181.86,360.01L180.39,358.15L184.06,359.21L190.59,353.93L192.56,356.57L195.20,351.14L198.58,349.77L203.80,351.72L206.11,347.98L208.50,350.85L206.77,353.36L194.77,361.57L193.82,360.06L185.45,362.13L181.41,366.62L180.85,369.40L180.43,366.88L178.40,367.54L177.18,369.96L177.32,372.82L175.45,371.10L171.96,375.53L174.48,377.99L177.05,378.40L172.88,375.47L180.98,376.25L181.78,375.08L180.38,374.03L178.28,375.37L177.49,371.37L180.97,369.65L181.59,367.90L181.10,370.31L182.38,367.98L183.37,369.52L187.85,364.76L186.09,364.23L190.42,364.09L189.64,366.01L191.99,362.76L190.54,366.74L192.80,364.89L192.07,361.19L193.01,365.35L193.10,360.50L193.18,366.21L194.71,362.09L193.79,365.95L195.13,365.05L194.01,368.51L194.89,369.79L199.79,359.08L213.15,353.64L210.58,356.42L212.66,359.32L218.30,353.91L218.06,350.68L225.42,348.90L219.29,345.45L221.15,341.74L228.80,348.31L236.77,362.35L243.90,366.33L247.12,363.72L242.33,364.37L246.87,363.04L244.60,359.08L249.50,358.69L245.40,356.83L251.22,353.45L246.07,353.13L247.79,351.53L251.98,352.82L250.12,350.74L253.21,350.19L252.32,358.28L256.55,359.33L253.08,365.41L262.38,364.50L265.98,356.38L277.93,357.26L291.87,365.47L304.57,368.14L317.99,374.54L328.67,376.17L325.57,373.10L330.47,373.64L328.94,372.43L337.47,375.05L347.15,384.07L345.99,387.14L337.88,386.17L339.55,388.04L335.20,388.18L336.36,391.48L332.50,393.27L336.30,395.58L365.22,397.87L381.55,391.69L384.62,397.21L390.43,397.19L392.60,404.20L394.25,398.94L395.76,404.31L396.66,402.46L400.04,405.64L401.00,410.16L394.41,408.15L406.76,423.67L401.76,415.56L403.17,409.61L403.88,414.19L405.33,411.59L408.13,414.36L405.31,410.30L407.10,408.68L402.51,403.29L403.68,401.42L399.92,397.40L403.02,392.82L400.78,391.89L401.05,390.00L401.99,392.01L411.08,389.77L412.21,386.97L413.89,388.84L413.88,385.01L420.30,383.56L421.01,379.46L412.91,381.83L412.92,386.06L410.82,383.78L407.53,386.58L401.52,385.14L403.42,388.57L396.49,389.65L396.25,385.92L392.68,386.50L397.46,379.79L415.88,373.53L422.61,377.86L423.91,382.48L421.94,383.80L426.46,386.79L427.75,385.01L431.42,391.14L437.61,391.29L440.98,388.52L441.44,391.57L451.68,397.74L453.81,395.82L458.86,397.77L465.20,394.67L481.04,397.64L486.17,395.76L482.92,392.61L484.19,389.93L490.07,397.64L496.46,399.04L496.13,393.25L492.16,391.36L488.57,394.95L483.04,384.47L491.68,384.67L489.60,381.23L496.03,382.75L497.64,386.66L501.14,386.26L501.75,388.21L502.01,386.89L503.70,385.66L500.47,391.46L508.23,386.06L503.15,401.87L506.45,402.07L506.32,406.81L511.05,403.67L508.78,407.89L512.34,407.22L513.30,410.90L508.08,412.10L507.70,409.66L506.17,411.93L503.23,409.94L508.91,418.99L510.50,417.48L506.47,412.63L514.30,411.60L513.23,400.44L509.92,396.94L511.97,390.57L518.06,391.06L530.79,379.46L527.41,379.98L529.04,375.50L526.74,371.15L524.35,377.07L519.51,377.20L519.81,373.10L525.15,369.40L522.30,369.48L522.68,366.27L529.44,363.97L526.63,369.23L530.91,365.29L528.88,365.42L530.11,363.04L522.32,363.75L519.56,359.21L517.37,361.46L509.21,358.15L502.55,350.56L505.22,342.16L509.16,342.68L506.83,341.47L508.96,339.37L505.61,341.13L501.92,337.91L502.77,328.52L506.11,325.89L511.45,328.17L512.89,324.03L508.11,322.17L519.76,317.14L514.65,317.53L514.24,315.55L520.80,314.77L519.39,318.06L522.02,318.47L521.48,321.04L523.31,318.59L527.69,319.11L526.80,321.23L534.32,327.18L535.45,336.59L533.78,336.54L541.16,341.29L542.32,347.31L545.56,346.32L547.46,350.07L543.13,350.81L540.41,348.23L539.80,348.62L537.83,351.67L543.60,352.72L535.32,358.94L538.27,358.81L534.83,359.48L539.80,358.81L544.89,363.04L547.58,359.73L550.53,359.83L546.91,362.39L558.19,363.72L554.69,363.72L553.77,367.54L548.01,365.68L557.08,374.83L555.55,383.22L558.55,387.12L566.95,367.67L569.60,367.33L578.66,376.18L580.72,385.40L579.37,387.91L577.08,384.39L575.30,386.18L575.52,392.26L577.61,398.15L584.56,405.94L583.19,408.80L588.16,406.17L587.12,404.19L592.27,403.77L592.02,397.83L597.63,390.74L599.72,377.76L607.59,377.59L604.40,373.50L609.92,372.03L601.46,367.15L601.10,357.62L602.72,357.21L600.66,355.93L605.20,357.49L611.60,355.89L617.05,358.80L630.27,360.12L625.79,361.33L627.92,362.96L620.96,362.07L630.02,364.39L630.12,367.89L634.74,367.32L639.03,370.58L631.98,374.83L638.09,375.04L639.09,379.46L632.95,383.48L630.08,381.43L626.71,383.42L630.09,386.16L629.72,388.96L632.59,387.64L631.63,393.52L639.35,402.21L636.98,411.07L632.94,411.54L631.13,416.62L618.58,423.65L614.52,418.20L615.38,413.30L612.23,416.35L612.25,415.30L610.71,414.36L612.50,414.23L609.43,411.45L611.33,411.60L606.24,410.01L608.94,411.45L605.66,411.71L603.67,413.30L609.25,412.25L610.10,414.51L608.45,414.09L613.35,417.14L617.41,426.55L609.84,422.58L611.26,427.06L603.54,425.18L601.54,419.31L589.76,420.32L591.20,424.33L598.04,427.25L584.40,443.34L578.29,442.76L571.43,437.25L575.17,437.51L563.77,431.42L560.94,431.42L563.03,433.82L557.08,432.62L558.86,431.81L547.58,431.42L551.75,434.10L551.07,431.88L561.35,434.37L569.56,443.37L584.48,444.39L588.36,446.96L577.86,466.28L572.29,469.54L567.66,465.94L569.48,470.04L563.60,468.39L562.89,464.17L559.84,466.49L562.65,470.05L558.49,468.86L561.28,472.61L559.00,476.47L555.18,474.69L556.11,476.53L552.84,477.32L544.09,472.69L539.74,473.27L538.56,472.27L536.37,471.65L536.05,470.91L530.13,468.56L527.17,465.31L528.35,471.29L532.20,472.04L530.56,469.44L542.19,474.81L538.91,478.11L545.07,474.52L548.53,478.89L553.96,480.63L552.24,480.11L554.81,481.42L555.37,487.12L548.50,492.42L539.04,491.69L544.09,495.63L543.23,497.35L537.55,495.59L538.33,499.02L535.69,500.75L538.88,504.71L536.43,501.93L531.89,500.47L536.25,503.39L533.11,504.53L534.77,505.36L532.62,507.89L530.42,506.95L531.64,509.60L528.62,508.53L531.78,512.54L529.92,512.12L531.34,512.78L525.33,518.07L525.32,524.97L520.55,535.66L518.04,536.59L519.69,538.64L517.85,547.22L519.29,558.59L516.26,564.50L521.29,570.85L523.37,569.25L521.96,580.52L523.61,569.78L532.45,570.16L539.30,597.28L535.20,605.77L551.75,599.02L555.74,599.69L562.52,604.59L571.00,606.83L579.05,614.88L582.28,623.37L599.47,631.07L604.56,635.98L601.97,642.74L605.22,637.05L615.28,636.43L618.57,640.16L617.21,637.39L629.66,641.36L629.57,639.59L630.76,645.51L628.68,657.63L631.51,675.76L629.84,681.96L637.20,694.78L634.14,695.63L633.58,696.90L636.90,696.02L645.10,706.21L646.58,713.05L641.37,719.26L646.76,713.39L649.21,714.12L656.38,725.21L652.88,717.59L653.14,712.25L656.48,707.07L659.26,710.92L659.79,715.71L660.74,716.77L662.14,710.53L659.02,705.11L664.66,695.85L660.71,686.02L662.14,683.55L659.51,680.79L658.34,671.51L660.06,670.40L657.97,667.67L660.25,665.56L658.16,662.78L659.55,661.66L656.75,660.27L658.95,658.55L655.95,658.29L654.67,650.62L652.52,649.30L670.27,637.45L680.11,622.60L681.59,614.97L681.44,601.90L677.71,588.14L673.05,580.73L663.25,572.84L663.25,566.33L665.48,566.96L671.22,557.75L669.07,557.43L670.30,551.81L672.16,552.13L673.29,554.37L674.46,554.58L672.38,551.14L674.65,550.08L673.46,547.77L675.56,545.05L671.58,544.93L673.61,543.60L670.62,538.00L673.54,535.66L669.84,533.68L672.69,529.98L666.55,530.91L671.06,522.91L670.23,518.14L672.99,516.49L668.40,513.11L666.93,501.87L673.04,496.15L689.85,502.34L687.15,504.45L692.21,501.48L699.10,505.50L697.79,502.74L707.04,498.30L713.51,505.24L716.35,505.35L714.86,510.79L716.60,511.23L716.57,508.70L719.90,509.90L722.02,513.84L721.22,515.21L719.80,514.99L719.27,515.95L722.16,515.26L722.37,513.18L725.73,515.06L722.95,518.60L725.71,518.99L723.57,520.06L725.80,523.91L726.47,522.46L735.08,526.67L738.48,525.22L740.62,530.58L743.58,525.21L745.51,528.52L741.40,536.07L743.49,542.76L741.70,546.38L730.61,544.93L742.24,546.79L743.79,548.83L742.06,559.39L745.03,558.54L746.73,560.86L743.96,562.25L745.75,563.71L744.77,567.54L742.86,569.53L741.09,564.37L741.64,568.87L737.60,569.93L740.57,569.78L741.54,573.31L745.43,568.04L750.84,567.03L754.09,568.92L756.05,574.27L754.59,582.43L749.08,585.59L745.51,589.25L754.02,584.07L757.70,573.63L758.99,578.85L756.60,583.22L758.99,580.24L760.10,575.76L760.32,586.23L761.62,580.37L767.18,575.20L770.15,575.21L772.23,568.34L776.15,572.84L775.17,578.40L777.19,573.63L774.68,569.78L777.48,568.15L775.81,567.12L781.73,564.63L778.17,562.46L779.59,558.25L781.39,560.07L779.58,556.04L784.74,558.16L780.91,555.52L780.14,550.22L784.74,550.76L782.54,548.29L785.84,539.24L790.13,541.48L787.84,540.56L786.75,541.61L790.13,542.93L786.13,546.39L790.16,543.71L788.90,548.10L791.90,545.59L791.17,550.76L794.24,552.86L793.25,553.07L792.46,555.51L793.47,553.47L793.71,555.74L795.97,555.48L793.00,558.04L796.13,558.41L795.10,560.80L796.65,558.41L796.86,561.33L799.08,560.14L798.53,563.19L793.77,563.99L793.18,565.17L801.31,564.32L799.57,568.20L802.35,567.50L802.08,571.11L803.87,571.60L800.98,575.08L798.53,574.69L797.18,578.92L800.12,575.75L801.04,577.72L806.43,575.60L803.31,580.68L805.46,579.58L805.74,581.22L801.77,581.82L799.44,585.13L807.29,581.31L808.70,584.22L806.65,584.71L805.39,586.06L807.66,585.52L807.66,587.32L810.17,585.24L812.44,591.82L806.65,594.55L812.32,596.10L811.32,599.43L817.16,602.39L817.29,604.98L812.28,608.10L814.22,611.45L806.93,608.28L810.63,607.19L806.19,608.03L812.20,611.33L809.25,611.45L814.00,612.32L810.11,614.64L814.96,617.95L810.72,617.67L817.29,619.13L816.30,622.31L818.27,622.58L815.87,623.23L822.33,626.14L820.87,628.64L823.93,626.91L823.22,631.83L826.32,627.64L825.00,635.93L826.39,633.18L827.58,634.48L823.17,642.82L829.11,637.39L826.66,642.28L831.32,636.32L829.64,640.47L834.41,639.99L831.68,643.35L830.01,647.69L836.83,638.12L834.84,643.15L838.02,639.60L839.03,645.66L853.02,650.65L849.83,652.86L852.40,653.13L850.48,654.63L833.08,661.06L843.89,657.63L834.02,665.35L828.13,666.22L828.10,671.12L821.63,665.21L821.08,667.55L828.75,671.51L825.63,674.43L827.69,674.84L825.55,676.15L828.16,676.02L830.39,670.95L838.06,667.55L839.69,663.05L849.03,660.66L844.33,660.24L844.02,657.99L851.98,658.17L855.47,665.43L851.24,669.93L853.31,670.04L852.77,672.96L856.30,667.29L860.80,666.09L858.59,668.07L865.28,670.72L862.74,670.65L867.36,678.52L863.62,680.79L866.87,684.41L863.64,684.85L867.30,688.57L860.62,689.10L868.25,692.08L867.03,694.10L863.32,692.01L867.69,694.92L867.91,698.48L856.45,711.73L850.02,710.67L846.85,713.89L841.64,714.59L838.19,719.65L838.19,724.55L837.48,722.11L828.11,735.13L822.14,734.09L813.95,737.31L815.22,735.63L805.08,733.16L798.72,735.02L795.25,733.16L775.97,733.58L774.87,735.53L771.46,734.06L765.53,742.50L763.34,752.00L757.27,752.86L753.78,757.36L754.45,756.32L753.78,754.72L742.77,774.96L736.57,770.63L731.04,768.87L730.30,769.27L742.23,775.48L737.75,787.59L727.87,802.13L723.05,803.12L713.08,812.39L704.28,826.14L700.70,824.92L704.43,828.92L692.73,838.39L682.14,853.44L679.07,861.91L661.60,862.45L657.81,865.40L659.19,878.17L648.22,886.61L639.00,889.64L628.50,900.00L622.98,896.61L622.16,892.77L622.87,887.78L627.83,881.70L631.23,863.24L627.77,830.09L617.89,820.82L619.45,816.30L618.10,814.22L614.96,815.24L613.66,806.29L609.58,807.55L606.78,799.12L575.76,772.08L566.67,778.24L561.69,778.09L559.90,775.62L554.26,776.23L553.16,773.33L546.89,776.92L542.46,771.16L539.76,773.55L534.32,765.93L527.37,767.88L526.32,765.57L519.89,763.83L517.69,752.58L514.82,751.41Z M766.35,834.30L762.49,830.62L762.85,824.22L759.48,822.00L759.43,795.57L755.08,790.05L749.65,793.48L746.83,788.28L739.80,802.86L737.52,817.94L731.89,831.23L730.99,829.04L727.93,830.19L726.42,835.49L697.71,835.77L708.39,827.53L711.64,815.50L720.28,806.30L735.09,796.95L744.83,778.01L753.62,767.64L773.69,754.53L784.92,754.31L791.56,760.59L792.03,763.14L788.53,760.81L791.97,765.41L790.59,769.75L782.04,777.61L776.58,773.50L768.06,777.87L772.20,776.40L777.28,779.64L778.91,785.14L782.72,781.33L786.38,781.53L785.41,790.29L781.31,795.46L786.39,795.58L788.53,812.14L795.21,813.75L793.16,816.63L800.43,820.20L799.85,821.75L805.39,820.86L804.72,823.93L812.22,818.60L812.53,822.39L815.97,822.43L818.25,826.00L816.24,828.91L820.38,829.33L820.65,830.51L814.23,832.37L814.65,834.07L804.00,841.21L801.96,840.04L801.96,842.03L801.41,839.80L798.56,843.55L796.56,841.23L797.80,845.06L796.82,846.55L794.17,845.19L794.54,841.62L792.86,845.86L790.80,844.14L791.13,849.91L789.70,848.50L784.37,860.54L781.31,860.01L780.35,865.27L774.13,857.76L777.08,843.99L774.04,846.68L789.26,829.17L792.15,836.07L792.51,831.59L799.26,828.79L788.38,827.74L785.23,829.46L791.17,820.99L790.43,818.60L788.66,821.64L788.78,818.34L786.84,814.72L788.42,819.14L786.64,823.90L777.86,831.04L774.43,829.72L775.63,828.06L775.56,826.80L771.71,834.22L767.70,834.59L767.21,832.10L766.35,834.30Z M772.21,841.50L773.41,836.45L771.05,831.91L766.03,830.96L762.17,834.31L762.91,842.62L767.37,844.75L772.21,841.50Z M762.52,831.52L761.00,838.77L764.37,842.71L769.56,842.58L773.16,836.58L771.95,831.48L767.23,829.23L762.52,831.52Z M865.74,798.11L871.09,796.51L873.02,791.94L871.18,787.33L866.26,784.94L861.65,786.69L859.05,791.31L860.22,795.75L865.74,798.11Z M876.87,785.22L876.73,792.54L883.55,792.81L885.62,781.81L879.53,780.40L876.87,785.22Z M864.86,778.19L858.61,782.58L858.87,787.70L865.08,791.12L869.81,789.99L872.13,785.72L869.62,779.53L864.86,778.19Z M887.19,788.18L884.99,779.69L878.53,780.55L878.71,791.37L885.61,791.55L887.19,788.18Z M891.78,771.69L882.09,768.92L878.62,775.10L885.36,781.29L889.99,780.04L892.24,776.45L891.78,771.69Z M882.87,747.33L879.45,743.40L874.78,743.23L871.33,746.38L870.31,751.94L873.20,755.74L878.68,756.54L882.60,752.63L882.87,747.33Z M861.03,747.23L862.48,752.84L866.82,755.13L872.22,753.22L874.69,748.04L872.76,743.06L868.16,741.17L863.10,742.92L861.03,747.23Z M875.06,748.45L869.98,740.24L865.48,740.47L861.79,744.71L861.67,749.64L865.62,753.36L871.29,752.94L875.06,748.45Z M870.97,743.56L871.11,752.59L876.35,754.40L880.96,751.82L883.50,745.09L881.44,741.52L877.47,740.45L870.97,743.56Z M875.79,742.93L875.29,748.21L880.01,752.69L888.34,746.78L886.37,741.03L882.77,738.77L875.79,742.93Z M829.73,723.81L831.07,733.05L835.93,734.71L840.65,731.26L840.94,725.28L837.61,721.41L833.00,721.07L829.73,723.81Z M862.50,723.04L864.31,729.85L868.72,731.81L875.54,726.31L873.54,718.96L869.65,717.82L864.42,719.47L862.50,723.04Z M868.00,714.40L863.22,717.15L862.32,722.55L865.26,726.96L870.86,728.02L874.68,724.86L875.20,718.46L872.37,715.06L868.00,714.40Z M849.74,713.61L847.11,709.37L842.76,708.28L838.18,710.47L835.92,715.10L837.02,719.00L841.08,721.66L847.33,720.18L849.74,713.61Z M895.25,786.99L891.33,803.61L888.75,802.19L886.97,804.52L886.92,793.20L881.30,800.46L884.70,788.97L882.26,780.25L880.60,779.71L879.37,788.45L877.47,790.03L879.25,785.39L870.30,799.73L865.27,797.72L876.74,784.21L873.25,785.54L874.59,781.95L872.87,785.89L870.86,783.02L868.69,789.44L868.10,788.71L868.77,787.26L868.33,786.63L865.83,788.71L867.36,785.80L864.15,788.14L868.41,784.08L865.86,784.43L867.06,778.66L864.56,783.65L863.74,780.90L863.48,784.98L862.33,782.63L862.09,785.26L858.35,784.87L858.02,786.92L848.24,783.69L844.03,784.62L844.87,782.63L843.40,784.87L835.50,785.14L834.63,779.84L844.77,767.79L835.91,768.73L836.41,767.13L840.33,762.78L838.63,765.96L840.82,766.88L843.64,755.91L844.01,757.36L845.30,757.11L846.59,758.95L848.24,759.08L845.99,756.10L848.54,754.99L846.49,755.71L847.87,753.79L845.48,753.85L845.16,751.39L847.19,747.70L849.89,749.61L847.67,745.43L852.97,727.53L854.77,727.17L852.60,725.56L856.82,721.52L855.35,719.53L858.65,713.78L866.05,707.82L866.23,710.38L868.59,710.67L867.44,709.23L868.39,708.17L870.42,709.07L868.71,713.97L864.29,712.79L867.48,718.34L864.37,725.33L863.65,722.29L857.43,747.96L864.05,736.19L863.38,740.69L865.46,738.45L869.88,739.97L865.08,744.02L863.62,747.45L866.57,745.20L863.93,750.26L866.69,748.47L868.16,751.14L869.38,749.02L868.95,751.55L870.73,748.77L871.22,752.47L872.82,748.11L870.61,757.63L873.30,751.55L873.74,754.10L875.53,750.64L875.68,753.23L878.79,748.01L878.66,753.38L882.58,749.25L887.52,753.00L886.65,757.54L881.22,762.90L884.38,761.65L882.80,763.44L883.60,765.70L884.46,763.36L886.53,764.79L881.52,770.31L884.28,768.68L884.27,770.74L886.05,767.30L886.42,769.94L891.24,764.27L892.07,767.15L886.21,774.58L883.65,773.27L883.83,776.21L886.00,776.67L883.80,777.44L886.49,776.80L884.85,782.20L884.17,780.87L883.62,780.70L886.97,786.74L889.46,777.53L892.61,774.55L889.61,786.37L890.77,789.11L893.96,781.69L895.25,786.99Z M225.79,713.36L223.06,702.36L220.09,701.91L216.28,705.41L216.63,712.23L220.36,715.47L225.79,713.36Z M876.45,704.62L876.56,697.43L872.47,694.76L865.03,699.74L865.22,705.74L869.09,708.46L873.86,707.88L876.45,704.62Z M215.81,698.57L216.68,708.07L222.62,708.76L225.58,700.88L224.16,696.60L219.05,695.92L215.81,698.57Z M188.58,696.23L190.04,704.64L196.36,706.07L199.46,700.43L198.46,695.95L194.12,692.70L188.58,696.23Z M214.40,699.63L217.15,703.98L221.72,704.93L226.83,701.40L227.80,695.53L225.22,692.27L218.94,691.90L214.89,694.72L214.40,699.63Z M218.86,705.56L224.18,702.21L225.11,697.26L223.40,692.98L219.00,691.62L214.00,695.04L213.23,699.23L215.45,704.34L218.86,705.56Z M212.47,700.88L218.10,704.57L221.80,703.08L223.94,694.09L220.35,691.22L214.65,691.14L211.39,695.42L212.47,700.88Z M215.47,699.50L219.90,702.88L224.58,702.25L227.17,699.17L226.66,692.87L223.29,689.41L216.78,690.62L213.88,694.48L215.47,699.50Z M226.82,690.05L220.20,696.22L220.22,703.15L225.50,702.61L230.30,695.52L229.88,690.79L226.82,690.05Z M219.65,689.23L211.78,687.61L209.41,692.59L213.12,699.96L216.85,699.98L220.00,696.16L219.65,689.23Z M210.32,687.59L210.91,694.41L216.47,697.01L219.55,696.02L221.55,690.24L219.09,684.02L215.92,683.02L210.32,687.59Z M188.65,680.97L183.17,683.71L182.65,688.67L187.48,694.64L192.62,693.38L195.83,687.71L193.92,682.34L188.65,680.97Z M214.36,686.39L214.38,694.80L217.35,696.28L221.21,692.91L221.06,686.49L216.61,682.47L214.36,686.39Z M206.92,688.51L210.52,694.80L215.36,693.41L215.67,686.98L212.11,682.32L207.27,682.29L206.92,688.51Z M221.60,692.85L223.61,682.09L220.55,679.98L215.55,681.52L213.36,686.22L215.32,692.59L221.60,692.85Z M219.80,691.65L221.32,682.57L218.51,679.30L214.20,679.53L211.44,685.12L213.25,691.66L219.80,691.65Z M208.55,688.07L213.07,684.93L213.42,679.90L209.87,675.54L204.36,674.82L200.73,677.77L200.38,683.62L203.32,687.63L208.55,688.07Z M202.00,684.92L208.29,687.33L212.59,684.45L213.48,679.06L210.19,675.19L204.27,674.09L200.72,676.73L199.81,681.07L202.00,684.92Z M206.29,672.47L201.39,673.98L199.26,677.79L200.83,683.27L206.57,686.29L211.00,684.72L213.05,681.19L211.94,675.98L206.29,672.47Z M213.87,678.49L209.62,673.05L202.56,676.43L206.92,686.09L213.29,684.95L213.87,678.49Z M193.24,697.32L191.77,695.99L191.74,698.08L184.53,686.46L185.85,685.71L183.15,684.54L182.24,682.45L184.28,681.31L180.24,678.52L187.11,676.40L188.92,680.53L185.26,680.10L188.76,682.75L185.45,683.69L188.33,685.09L186.74,686.86L190.60,693.73L192.02,692.01L193.24,697.32Z M211.18,675.49L211.43,686.50L215.94,688.96L216.50,680.88L213.01,675.42L211.18,675.49Z M211.95,682.55L212.02,682.43L212.01,682.48L211.95,682.55Z M214.77,683.80L214.69,683.31L214.90,683.34L214.77,683.80Z M205.12,674.87L206.55,683.05L214.43,682.58L213.98,671.95L207.62,670.58L205.12,674.87Z M217.57,672.18L214.33,666.50L210.42,666.32L206.29,672.56L206.46,676.62L212.87,679.92L215.91,678.68L217.57,672.18Z M197.39,673.05L203.13,680.46L206.72,680.22L207.77,675.89L202.52,668.32L197.30,667.08L197.39,673.05Z M214.07,675.73L217.46,666.66L211.17,664.15L207.78,666.67L206.76,673.85L208.16,676.88L214.07,675.73Z M195.37,670.37L200.29,674.63L206.33,672.99L204.86,663.28L201.43,661.18L197.39,662.28L195.37,670.37Z M200.60,664.00L206.57,677.11L209.17,676.82L205.00,666.96L200.60,664.00Z M197.98,669.11L205.15,664.89L204.27,658.89L199.15,655.64L194.09,659.00L192.26,663.84L193.68,667.99L197.98,669.11Z M180.12,677.34L179.01,674.03L181.72,674.96L176.56,670.59L175.70,658.81L180.15,659.75L179.38,663.17L181.66,660.11L183.86,661.87L183.15,666.34L179.41,668.00L182.14,668.35L180.97,670.19L183.88,667.83L184.60,664.11L183.67,661.19L188.33,658.81L185.63,675.87L183.55,678.26L180.12,677.34Z M206.24,663.45L207.95,657.90L205.38,653.79L200.66,652.06L196.85,653.54L194.61,657.78L195.60,662.75L198.68,665.55L206.24,663.45Z M202.31,655.75L198.09,652.09L194.10,652.32L190.70,655.78L191.38,662.58L197.12,665.85L201.77,663.45L202.31,655.75Z M205.55,654.18L202.08,650.09L198.07,649.64L192.86,656.12L195.09,661.13L198.98,663.42L203.38,662.42L205.55,654.18Z M196.97,662.28L202.67,662.98L206.37,659.27L204.69,651.02L200.97,649.38L194.55,653.64L194.23,659.11L196.97,662.28Z M197.43,661.60L201.95,659.38L203.67,654.65L201.42,649.33L195.86,647.79L191.46,650.02L189.76,654.64L191.93,659.96L197.43,661.60Z M201.75,649.12L199.45,645.40L191.03,646.29L190.48,656.60L194.31,658.45L198.28,656.91L201.75,649.12Z M199.47,654.30L205.16,648.48L204.10,643.47L200.12,640.53L195.29,641.58L191.80,646.17L193.34,651.60L199.47,654.30Z M196.77,642.62L194.37,650.86L197.78,654.11L203.72,653.20L206.86,648.99L205.86,642.58L201.30,640.47L196.77,642.62Z M848.74,638.97L840.51,642.73L840.74,648.82L845.18,652.53L849.77,651.93L853.55,648.03L853.40,643.90L848.74,638.97Z M202.90,650.36L206.25,642.12L202.93,638.01L199.72,638.05L195.19,643.55L194.91,647.90L198.85,651.68L202.90,650.36Z M815.86,624.12L817.77,630.74L822.11,631.80L827.74,628.88L828.96,623.07L825.61,619.27L819.18,618.66L815.86,624.12Z M813.77,618.89L813.71,624.84L818.13,628.26L824.63,627.10L826.28,620.51L822.59,615.48L817.38,614.98L813.77,618.89Z M821.11,613.35L813.68,610.03L809.68,611.39L807.96,615.25L811.40,620.83L816.20,622.40L820.26,621.02L821.11,613.35Z M810.26,613.30L813.96,619.28L821.66,618.92L823.70,616.08L822.44,611.04L816.83,608.05L812.30,608.65L810.26,613.30Z M816.36,604.66L812.60,613.40L816.19,617.66L821.73,617.11L825.62,612.77L824.87,607.45L820.93,604.45L816.36,604.66Z M811.59,611.64L815.96,615.18L819.48,614.26L820.83,603.72L813.36,602.06L811.13,605.81L811.59,611.64Z M820.27,595.54L818.75,590.17L813.77,588.06L809.39,590.09L806.61,595.19L808.11,599.40L812.80,601.83L818.73,600.33L820.27,595.54Z M807.34,590.06L807.32,598.45L811.21,600.93L816.86,598.73L818.96,593.44L816.75,588.89L810.69,587.15L807.34,590.06Z M808.64,593.03L811.98,595.82L816.78,595.24L819.95,591.08L819.08,585.11L810.95,582.55L807.35,586.52L808.64,593.03Z M808.67,593.55L813.50,594.43L817.22,591.47L818.29,586.53L816.08,582.24L811.13,580.69L806.36,583.50L804.85,589.50L808.67,593.55Z M740.86,564.00L742.71,570.53L747.51,571.39L752.15,567.45L753.15,562.36L746.05,557.65L742.68,558.57L740.86,564.00Z M787.01,548.59L787.51,554.56L791.67,557.38L796.96,555.46L799.29,551.33L794.35,543.72L790.18,544.01L787.01,548.59Z M403.94,418.22L407.01,414.01L406.61,408.25L398.86,406.07L395.13,411.92L395.53,416.62L399.37,419.36L403.94,418.22Z M393.78,407.98L396.46,417.71L400.33,418.64L406.24,411.98L400.43,404.88L393.78,407.98Z M397.96,408.88L401.09,414.19L404.92,414.96L410.62,412.39L411.62,408.17L406.60,402.55L402.13,401.64L398.44,404.33L397.96,408.88Z M394.84,399.85L393.50,404.58L397.55,409.52L405.19,408.03L404.72,398.17L401.39,396.38L394.84,399.85Z M402.85,398.29L398.04,394.30L393.12,394.72L390.16,398.08L390.82,404.46L395.72,407.99L400.03,406.93L403.20,402.41L402.85,398.29Z M394.04,399.97L396.00,406.03L399.48,407.03L404.93,403.10L405.40,398.88L400.44,393.27L396.07,393.98L394.04,399.97Z M487.80,396.96L488.66,402.11L492.66,404.85L498.60,402.91L501.26,397.93L498.72,392.19L492.48,391.55L487.80,396.96Z M385.87,401.16L393.38,401.46L396.69,397.48L395.56,391.96L388.47,389.52L383.66,392.88L383.11,397.46L385.87,401.16Z M340.44,398.00L346.96,399.47L351.06,397.56L352.22,393.18L346.81,388.54L339.83,390.00L338.32,394.14L340.44,398.00Z M356.71,389.35L346.09,389.71L345.31,396.54L348.89,398.97L354.04,398.65L358.44,393.17L356.71,389.35Z M373.87,399.92L380.04,395.02L380.28,390.68L377.42,387.41L370.96,388.15L366.60,394.47L368.90,398.99L373.87,399.92Z M403.81,388.38L399.98,386.20L395.58,387.15L392.34,390.91L393.46,398.26L402.62,399.01L405.39,394.17L403.81,388.38Z M390.24,386.86L384.16,389.60L384.14,394.13L388.61,398.94L393.20,399.55L396.37,397.64L397.35,390.90L390.24,386.86Z M479.26,384.44L474.11,388.13L474.23,393.48L479.17,398.03L483.44,397.70L487.11,390.42L484.70,385.67L479.26,384.44Z M381.16,392.66L388.92,397.93L392.60,396.00L394.09,391.26L392.13,386.82L386.10,384.01L381.76,386.64L381.16,392.66Z M381.20,396.05L388.10,391.21L388.01,387.06L384.96,384.26L380.82,384.52L374.83,389.07L374.84,392.88L381.20,396.05Z M378.23,391.20L385.07,394.66L390.14,390.86L391.64,386.46L389.36,382.40L384.16,381.51L379.69,384.34L378.23,391.20Z M361.81,382.95L360.55,388.12L362.44,391.64L369.87,392.46L373.73,388.62L371.85,381.13L365.91,380.28L361.81,382.95Z M467.13,379.68L463.35,385.28L465.45,390.14L470.42,392.51L474.40,391.05L476.81,386.18L475.24,380.52L471.35,378.54L467.13,379.68Z M372.47,376.39L367.06,382.68L368.73,386.36L372.53,387.75L379.65,385.93L379.48,378.62L372.47,376.39Z M380.29,376.54L375.26,374.82L370.32,377.61L369.48,382.09L372.07,385.85L380.65,386.14L383.29,381.99L380.29,376.54Z M433.71,378.52L424.52,377.39L422.07,380.27L423.05,383.92L428.00,387.71L432.44,387.72L435.39,385.29L433.71,378.52Z M344.42,385.66L352.79,384.49L354.42,379.21L351.11,374.79L346.37,373.90L341.65,376.44L340.77,381.73L344.42,385.66Z M340.61,383.61L346.06,386.03L350.12,384.41L352.17,380.54L351.02,375.93L343.41,372.40L339.43,374.93L338.29,379.50L340.61,383.61Z M450.04,374.10L446.74,380.08L456.52,384.54L460.43,379.17L459.69,374.57L454.76,372.06L450.04,374.10Z M338.93,380.08L347.02,379.88L349.57,375.98L348.79,371.39L345.09,368.57L339.54,368.71L336.27,371.94L336.02,376.53L338.93,380.08Z M463.92,369.05L462.31,377.61L465.86,381.04L468.36,381.82L473.22,378.29L474.10,373.21L470.04,368.85L463.92,369.05Z M465.92,367.21L465.10,374.66L469.06,378.10L473.55,378.13L476.57,372.83L474.58,367.07L468.51,364.97L465.92,367.21Z M451.20,365.81L452.89,375.31L458.83,376.02L462.89,372.89L463.45,367.28L460.43,363.18L455.59,362.64L451.20,365.81Z M150.33,369.82L157.43,371.94L160.98,368.67L159.58,361.08L150.46,359.85L148.00,363.25L150.33,369.82Z M455.13,359.18L457.42,369.27L461.50,370.13L466.84,366.52L467.90,362.85L464.56,357.93L459.45,356.26L455.13,359.18Z M500.89,367.12L508.49,369.02L510.36,362.26L507.35,357.64L497.53,358.51L497.47,363.80L500.89,367.12Z M170.82,366.72L174.77,362.96L174.76,358.62L171.07,354.98L164.44,355.69L161.21,360.50L162.36,364.86L170.82,366.72Z M505.89,357.46L504.09,367.98L511.17,370.17L515.65,367.60L516.99,363.09L515.68,359.55L509.83,356.25L505.89,357.46Z M118.60,356.02L114.85,360.55L115.43,363.92L121.58,367.07L127.50,364.35L128.77,361.00L126.96,357.20L118.60,356.02Z M153.55,367.53L159.57,364.22L160.89,358.41L158.41,354.77L154.15,353.70L149.12,356.01L147.10,361.35L149.25,366.01L153.55,367.53Z M453.97,352.55L447.98,353.32L445.35,357.80L447.43,364.06L452.28,366.17L456.78,364.24L458.87,359.07L453.97,352.55Z M514.33,375.15L502.65,383.15L488.35,378.76L486.17,375.24L484.75,377.31L480.74,373.36L478.75,375.78L475.13,371.97L485.76,366.55L484.50,361.20L489.21,364.10L486.11,360.80L490.09,355.20L495.30,358.81L494.87,360.90L495.82,359.04L505.34,366.43L505.29,371.44L506.88,368.06L508.84,374.89L514.33,375.15Z M491.70,360.38L496.76,361.69L500.26,359.84L502.14,356.20L499.03,349.80L493.28,348.30L489.04,351.11L488.46,356.20L491.70,360.38Z M247.05,356.77L252.93,354.21L254.49,349.18L252.31,345.16L247.99,343.69L241.15,348.06L241.18,353.51L247.05,356.77Z M353.04,353.26L359.22,352.25L361.41,348.88L360.91,344.90L356.96,341.78L348.78,343.87L347.57,347.82L353.04,353.26Z M470.52,344.31L462.34,340.79L458.50,343.92L457.48,348.28L460.55,353.01L468.50,353.22L470.79,349.67L470.52,344.31Z M357.49,347.78L363.45,351.46L370.04,350.04L370.28,344.56L359.17,342.83L357.49,347.78Z M317.09,347.68L321.11,349.77L326.75,348.83L328.38,341.24L322.85,337.80L317.75,338.47L315.15,342.91L317.09,347.68Z M321.13,338.51L318.64,342.81L320.26,346.91L324.42,348.40L331.27,346.37L331.09,339.04L321.13,338.51Z M321.46,348.34L327.54,347.02L329.55,343.67L328.97,339.80L325.18,336.80L316.68,339.25L315.70,343.25L321.46,348.34Z M327.46,348.41L334.08,346.42L335.95,341.88L333.72,337.50L328.96,336.33L323.19,338.93L321.96,342.90L327.46,348.41Z M314.38,337.58L311.65,342.08L313.70,346.24L317.76,347.80L324.08,346.21L324.70,339.58L318.54,336.79L314.38,337.58Z M213.64,338.09L212.67,345.04L216.17,348.21L225.21,344.54L226.05,340.21L222.27,335.61L217.37,334.82L213.64,338.09Z M462.98,335.89L461.46,344.57L467.60,348.49L473.74,346.14L473.99,339.95L468.08,335.45L462.98,335.89Z M241.75,308.96L235.82,309.23L232.62,313.28L233.39,318.53L238.00,321.67L243.44,320.77L246.21,316.79L245.52,312.00L241.75,308.96Z M377.40,296.54L371.72,298.95L370.47,304.42L373.97,308.80L379.44,309.77L384.29,303.11L382.06,298.57L377.40,296.54Z M375.35,296.68L371.63,300.64L372.19,305.83L376.46,308.84L382.36,308.22L385.12,304.43L384.52,299.78L380.90,296.81L375.35,296.68Z M376.01,296.22L372.55,299.57L374.81,307.49L380.23,308.45L384.33,306.37L385.99,302.09L384.37,297.80L376.01,296.22Z M462.39,349.59L462.90,359.66L459.95,359.55L458.49,355.00L456.56,360.01L451.63,354.72L450.64,357.68L447.62,357.64L449.08,361.60L440.32,359.08L444.55,363.18L442.92,370.17L446.10,365.06L451.11,362.77L454.19,364.37L451.66,368.07L455.68,368.75L455.01,372.71L445.00,376.38L433.39,373.49L425.71,374.49L424.32,373.36L427.54,371.04L414.18,368.86L415.02,364.74L412.64,362.77L405.92,372.00L395.15,373.51L390.77,377.76L353.07,383.02L354.90,382.24L349.27,376.05L350.41,368.81L328.64,366.69L322.76,363.57L315.52,353.39L319.78,350.70L341.75,347.10L358.95,349.33L368.79,346.78L346.41,339.36L332.34,342.01L314.23,341.48L307.07,333.46L330.84,326.41L326.71,325.30L333.61,325.16L336.85,323.75L315.98,326.41L314.42,324.16L314.54,326.66L309.08,326.57L307.77,324.81L313.46,323.10L310.80,321.88L313.25,320.98L302.58,322.63L300.90,316.15L309.58,309.80L305.69,307.38L305.94,304.73L316.17,296.86L341.08,287.85L346.68,292.57L346.47,298.96L341.42,303.62L350.70,301.01L349.35,302.75L351.56,300.48L349.85,299.57L353.53,295.41L363.50,297.25L371.17,300.60L370.55,303.66L365.20,307.48L367.25,307.64L366.40,310.58L370.50,305.50L369.77,307.74L372.89,309.07L372.37,306.70L375.78,303.41L377.74,303.80L376.69,304.84L379.09,306.33L377.30,304.84L378.96,303.79L384.05,306.16L379.45,301.54L384.11,300.75L379.81,300.32L375.50,295.25L385.46,296.90L391.51,301.57L390.61,303.51L394.31,303.66L397.77,319.93L402.29,321.95L401.75,319.71L406.67,318.32L404.69,317.09L406.67,316.48L401.95,311.85L397.30,292.70L401.15,291.62L399.19,288.44L408.26,291.84L410.05,289.19L419.20,294.12L423.52,299.28L426.59,313.17L432.48,322.74L433.23,327.12L431.40,327.17L430.46,332.47L439.58,341.50L445.34,343.55L443.92,340.11L451.92,346.75L457.26,347.83L457.85,351.01L462.39,349.59Z M713.49,416.22L714.79,410.27L720.25,405.77L713.54,393.10L713.08,387.24L708.61,386.45L711.12,384.47L707.50,386.97L705.48,385.04L706.28,378.53L702.41,377.71L705.12,381.08L704.22,382.23L699.58,380.22L697.64,377.59L698.95,375.54L695.30,376.13L698.07,374.01L694.75,374.29L698.37,372.03L696.85,370.88L694.11,374.56L690.80,372.06L689.72,374.69L680.61,378.62L680.49,372.18L686.29,372.28L689.59,370.79L689.82,368.07L680.57,361.95L684.57,359.60L680.64,359.20L679.91,361.58L675.44,360.01L679.09,358.54L679.25,356.35L674.46,356.24L677.47,354.30L671.58,356.57L673.30,357.23L671.76,358.15L671.15,356.57L670.96,349.30L664.66,349.02L664.84,346.65L658.46,343.47L661.90,342.54L659.23,340.02L657.46,345.06L657.30,342.41L654.08,345.25L660.04,347.36L662.36,352.92L661.16,355.51L653.28,356.11L651.26,353.51L634.66,350.81L639.75,353.17L643.53,357.39L641.91,358.69L636.40,353.77L623.16,347.16L634.87,355.51L631.30,357.32L623.13,352.98L608.43,353.06L607.38,350.89L598.54,351.26L603.60,353.26L598.70,353.28L591.84,348.62L591.47,346.11L594.10,343.97L593.44,343.02L590.82,345.85L591.04,346.91L588.04,344.06L585.59,345.58L588.04,347.58L580.84,346.78L582.34,347.70L580.18,348.59L570.75,342.67L565.90,335.66L568.24,334.61L564.93,332.09L579.82,335.13L587.79,333.95L581.11,331.17L580.08,328.58L562.29,327.33L560.94,325.08L562.78,319.12L559.92,315.95L564.75,311.45L561.86,310.92L561.75,306.36L565.73,301.67L564.75,299.28L567.45,299.94L566.69,295.66L570.93,291.09L569.46,290.42L573.33,289.76L571.18,288.84L580.97,281.44L586.61,279.78L607.16,280.89L596.48,289.44L590.16,300.47L594.59,306.43L593.10,314.47L607.15,328.35L603.97,328.11L589.39,334.07L605.94,330.10L606.79,332.49L605.86,331.80L604.40,332.22L605.99,335.35L607.91,334.35L609.08,321.03L603.39,320.98L596.30,314.30L601.25,313.04L601.44,309.44L606.93,310.34L612.80,315.77L613.17,314.11L606.24,308.94L610.78,307.22L606.83,307.37L607.67,305.67L604.52,307.75L601.10,305.63L599.60,297.33L602.86,295.99L615.07,299.94L600.91,294.78L602.18,292.58L617.89,295.57L603.97,290.81L604.69,289.07L607.51,287.73L611.58,290.81L608.76,287.65L613.01,286.06L618.18,289.46L617.64,286.47L614.58,285.53L625.10,281.06L636.75,281.45L639.80,290.17L644.88,292.19L644.70,296.67L648.23,300.34L638.06,309.86L645.89,304.98L641.73,310.66L645.35,312.99L641.24,312.78L643.26,314.24L641.61,316.74L646.87,313.61L648.23,308.79L650.38,311.05L653.32,312.12L648.90,308.28L652.04,304.81L654.06,308.01L652.50,310.29L655.34,310.80L656.40,306.82L659.75,309.12L657.30,315.04L663.80,317.00L660.13,314.31L660.88,311.25L666.44,317.98L669.13,318.99L665.64,316.18L666.94,315.11L670.57,319.37L671.03,318.20L660.49,310.13L661.11,308.05L663.73,308.28L663.56,309.73L664.49,311.12L664.66,308.23L671.07,310.40L671.34,312.64L671.98,311.04L677.28,311.99L666.28,308.06L663.31,304.72L671.88,299.99L679.19,300.50L685.28,305.32L686.74,303.15L693.37,304.98L695.67,309.61L685.94,312.87L682.49,317.27L689.26,312.18L693.16,313.24L689.91,314.50L685.31,320.44L694.58,312.11L701.92,313.04L703.04,315.21L702.17,317.72L691.62,320.85L695.69,321.11L691.44,323.75L698.41,321.24L697.54,322.63L694.97,323.41L693.77,324.82L696.54,323.78L697.79,326.26L694.26,330.11L698.45,326.35L699.42,321.09L703.12,319.64L701.86,322.13L702.79,323.49L704.13,319.33L706.58,318.86L704.13,324.97L701.25,325.87L703.82,325.34L701.92,329.97L705.29,323.55L707.99,323.10L707.32,326.92L709.65,326.41L704.99,332.74L709.09,327.19L712.59,328.66L710.56,329.57L708.97,333.27L709.65,334.21L717.07,321.05L726.06,324.13L729.88,328.66L726.72,332.62L721.58,332.25L715.04,337.40L720.50,336.98L716.88,341.35L725.64,336.33L729.37,336.64L729.12,333.75L732.16,331.78L734.31,332.55L735.21,335.54L732.66,339.20L729.03,341.96L725.77,341.35L722.27,345.05L724.40,344.97L723.56,347.52L726.32,342.01L729.41,342.86L726.07,352.72L731.06,340.95L740.63,336.20L741.89,336.66L735.86,340.93L735.45,343.87L736.35,341.32L739.50,341.67L744.58,337.91L755.16,342.50L753.66,345.99L752.47,344.17L751.32,346.96L741.58,349.97L738.26,352.79L741.37,353.51L738.58,353.77L735.64,356.17L742.03,353.71L742.70,350.49L751.44,349.14L750.69,352.39L741.76,356.42L740.03,360.56L742.13,356.96L751.95,354.29L757.27,346.91L764.69,354.18L765.67,358.42L757.64,357.51L754.64,360.27L739.68,362.13L752.50,361.08L764.67,363.53L769.84,368.20L769.01,369.85L762.15,369.38L755.99,366.49L748.69,365.55L746.48,367.15L757.02,368.25L749.14,368.18L753.22,368.61L748.19,370.29L748.65,373.10L754.42,369.02L760.40,372.03L752.83,372.80L757.77,375.27L753.35,374.43L759.79,376.66L745.38,376.01L757.33,378.53L756.81,379.63L752.00,378.95L749.67,380.11L758.35,380.98L758.13,384.07L760.76,380.89L761.28,384.38L761.80,382.29L769.71,383.28L763.10,384.13L759.60,385.27L758.87,386.32L766.41,385.49L761.32,388.57L768.60,386.98L766.96,391.08L769.45,388.98L769.04,392.01L770.45,388.93L772.84,389.30L771.37,390.29L774.01,391.48L772.72,392.27L771.95,394.32L768.98,394.13L772.17,396.01L776.29,388.61L775.54,398.81L777.35,392.28L780.55,391.82L779.10,395.86L781.36,399.55L780.84,393.46L784.37,390.69L786.83,391.78L784.00,393.06L782.85,398.67L789.03,395.53L789.97,397.30L787.80,398.23L790.19,397.58L790.74,396.91L793.16,400.74L789.57,401.81L793.56,402.33L794.36,405.17L786.38,404.31L791.48,405.38L786.63,407.27L793.87,405.77L788.09,408.39L787.27,410.92L789.10,408.42L798.47,406.69L795.61,410.59L795.58,411.86L801.02,404.58L802.69,406.81L799.97,408.96L800.36,411.60L795.15,414.63L798.52,412.82L798.65,416.73L799.36,413.21L803.69,411.69L803.36,418.08L804.74,412.19L808.64,416.35L807.63,412.48L810.62,409.94L810.48,412.65L813.63,412.04L811.35,413.41L814.95,413.57L817.98,418.21L816.45,419.85L811.43,416.91L809.74,418.20L813.02,418.26L815.17,421.17L811.52,422.44L815.32,423.76L812.01,424.81L805.82,421.90L808.58,424.55L805.49,426.16L803.43,423.89L805.17,426.57L810.48,427.60L811.84,430.02L808.58,430.77L803.17,427.48L801.90,428.00L807.59,430.81L808.82,433.82L803.64,432.17L806.31,434.98L803.86,434.86L806.08,436.67L805.55,438.34L803.09,435.02L802.84,438.31L800.73,437.47L797.92,431.62L799.38,436.72L796.03,436.59L799.20,437.47L796.93,439.10L799.88,441.36L796.62,440.69L799.68,445.65L797.85,445.98L799.44,446.90L797.70,451.66L795.10,449.96L795.25,446.11L791.05,447.69L792.83,445.84L790.19,446.24L791.41,441.36L788.55,447.90L787.00,446.63L787.73,444.80L785.41,443.86L787.43,443.07L785.35,443.07L789.44,441.57L789.88,440.42L784.50,442.57L783.08,440.29L785.22,439.50L787.18,436.98L781.54,438.44L786.45,435.65L782.95,437.02L780.07,435.13L781.59,431.92L786.94,430.90L787.12,426.06L790.37,423.64L787.18,424.94L784.92,428.93L776.55,431.29L780.32,422.83L775.54,428.13L774.31,424.81L770.99,426.18L771.68,422.40L768.80,422.96L769.16,418.99L766.16,417.93L767.75,419.40L765.55,420.99L761.98,418.34L760.03,419.40L764.14,420.24L765.31,423.29L763.03,422.04L765.40,424.55L757.83,420.58L765.03,432.02L758.45,432.27L758.00,428.79L753.17,424.55L753.32,426.29L750.16,426.67L757.51,428.93L756.72,431.04L754.65,429.63L755.92,434.33L759.42,433.95L757.46,440.29L760.12,437.38L764.26,437.25L762.60,440.03L766.17,441.52L762.97,442.93L767.26,445.05L765.73,448.50L769.16,446.11L767.45,448.75L769.34,454.16L769.55,448.85L774.31,452.20L773.70,455.64L775.48,452.45L777.37,456.70L776.08,451.93L778.18,452.71L778.27,459.54L782.70,458.55L783.94,460.33L782.56,463.20L779.89,462.65L778.72,463.19L782.40,465.16L782.87,468.58L787.58,468.37L784.67,472.32L788.87,475.39L788.74,483.38L787.12,482.88L785.11,476.09L781.89,472.62L785.47,483.69L783.26,482.75L787.92,490.02L782.16,488.18L785.22,495.19L783.08,496.64L781.67,489.89L779.19,491.68L778.22,487.32L777.54,490.75L777.13,487.66L775.39,488.57L773.12,485.66L774.72,489.24L772.10,488.31L769.89,481.08L770.73,488.38L768.43,483.00L768.19,485.40L766.53,483.69L766.94,480.66L764.90,482.74L758.44,473.49L760.46,481.17L755.17,474.81L748.88,473.62L757.89,486.85L761.24,486.43L759.54,488.03L759.79,489.10L761.90,487.44L760.65,489.68L762.91,488.70L766.65,494.92L768.85,494.41L772.50,498.97L771.41,501.11L775.76,502.94L775.29,506.16L773.82,505.36L776.11,509.37L773.19,510.35L763.68,504.91L752.81,502.79L747.05,499.03L746.30,495.57L744.83,496.92L745.32,492.80L737.72,493.05L730.55,489.10L731.41,487.67L729.51,488.43L732.51,485.80L731.58,484.98L728.99,488.14L727.33,487.23L723.94,480.31L720.71,479.65L725.43,480.07L728.90,476.68L725.90,477.08L726.14,474.56L722.67,472.49L721.91,473.75L723.37,473.62L722.61,475.66L720.19,473.24L719.14,475.20L721.17,470.72L719.82,469.79L718.60,473.20L716.02,471.78L716.69,468.47L716.05,467.38L715.41,469.59L712.10,463.57L709.58,463.57L710.66,461.86L708.73,461.18L711.54,457.61L710.32,456.15L710.23,458.62L708.88,459.20L707.25,456.15L706.31,458.55L704.79,457.24L706.03,459.74L703.40,462.65L703.65,454.99L700.56,457.87L697.75,454.72L699.74,452.85L698.31,451.54L697.55,454.10L695.25,453.52L699.90,458.15L698.00,461.71L687.81,456.99L688.56,461.81L679.84,463.11L680.04,465.31L668.21,460.74L665.64,455.36L667.23,450.20L674.46,445.84L673.75,440.57L688.01,445.22L691.40,449.11L689.17,450.75L691.50,454.99L692.05,451.14L690.03,451.94L692.80,450.53L693.37,447.66L691.90,449.55L686.66,443.48L693.42,444.75L694.21,442.05L697.69,441.21L699.16,443.27L703.03,439.33L708.79,440.83L706.61,434.75L699.87,427.53L713.49,416.22Z M334.46,285.46L300.11,302.42L298.54,307.89L294.37,310.27L290.36,309.55L286.95,324.40L279.91,326.54L277.43,324.85L267.61,332.19L263.52,331.37L256.28,320.36L245.65,315.44L248.28,315.23L240.06,315.28L243.99,306.56L248.34,303.58L246.90,297.84L252.60,296.57L249.17,293.53L258.88,280.50L254.95,278.31L250.10,269.25L278.50,265.25L296.94,271.51L294.26,273.96L294.74,275.29L297.29,271.61L300.29,271.94L299.89,276.13L304.04,271.71L315.74,271.49L334.46,285.46Z M268.88,762.98L265.07,759.25L260.35,759.30L256.91,762.55L256.88,768.26L259.72,771.88L264.23,772.73L268.18,770.37L268.88,762.98Z M256.23,757.43L258.67,767.75L262.18,768.73L267.22,762.95L261.73,754.93L256.23,757.43Z M256.19,760.70L262.63,765.74L266.54,764.09L267.52,759.96L261.21,752.05L257.87,752.07L255.39,754.31L256.19,760.70Z M253.05,758.62L260.21,762.09L264.52,759.67L265.71,754.87L263.02,750.72L257.32,748.68L253.49,750.59L253.05,758.62Z M245.10,751.81L238.03,748.11L232.36,753.70L233.73,758.86L237.79,761.88L242.77,760.98L245.53,756.74L245.10,751.81Z M242.98,748.55L239.56,745.53L234.83,745.99L231.27,751.44L232.50,756.64L236.72,759.01L242.66,757.24L242.98,748.55Z M264.53,744.54L260.14,744.80L256.44,748.98L256.14,754.05L260.19,757.84L265.00,757.71L268.82,752.72L268.50,747.68L264.53,744.54Z M255.48,742.88L249.86,743.87L247.50,747.65L248.90,752.88L254.59,755.80L258.90,754.68L261.29,750.91L259.92,745.68L255.48,742.88Z M257.32,754.07L266.27,754.92L268.66,751.28L268.30,746.18L265.15,742.63L259.91,742.64L255.70,748.79L257.32,754.07Z M254.40,742.56L248.30,741.95L244.60,745.91L245.64,752.73L250.93,755.47L256.22,752.73L257.71,746.76L254.40,742.56Z M243.51,747.51L245.49,752.46L250.49,755.11L256.47,750.29L254.46,744.03L250.21,741.18L245.33,742.73L243.51,747.51Z M261.29,747.63L261.77,740.62L257.66,737.72L252.82,739.10L249.34,743.64L250.02,748.08L253.82,751.43L261.29,747.63Z M246.90,742.84L253.27,752.14L256.75,752.86L259.48,750.59L257.39,743.10L251.14,738.99L246.90,742.84Z M226.21,743.58L230.73,750.71L236.82,748.85L236.93,741.38L234.56,738.11L229.75,738.02L226.21,743.58Z M231.66,733.63L225.70,732.35L221.50,736.13L223.02,744.20L231.05,745.09L233.97,740.87L231.66,733.63Z M243.73,732.21L244.40,742.41L251.29,742.44L253.74,737.06L252.38,732.59L246.43,730.07L243.73,732.21Z M249.81,741.73L249.12,731.55L242.86,730.40L240.92,736.66L244.78,743.12L249.81,741.73Z M243.41,732.46L246.89,741.53L250.56,742.05L255.32,736.09L252.34,729.56L247.07,728.43L243.41,732.46Z M245.91,738.61L251.35,741.64L255.27,738.88L255.55,731.14L251.50,727.84L246.48,729.29L244.11,733.98L245.91,738.61Z M245.31,726.81L240.46,733.92L243.54,739.33L248.66,740.26L251.30,734.10L248.98,728.66L245.31,726.81Z M248.13,727.97L244.62,725.17L238.68,726.28L235.47,729.71L235.90,734.39L241.00,737.47L246.01,736.38L248.99,732.66L248.13,727.97Z M240.32,726.11L237.02,731.69L238.39,735.79L247.30,737.44L250.48,733.35L249.97,727.48L245.17,724.34L240.32,726.11Z M246.62,728.43L242.63,724.36L238.02,724.67L233.62,728.68L233.71,733.12L238.08,736.86L242.67,737.00L246.82,733.32L246.62,728.43Z M227.80,731.50L231.64,734.63L236.62,734.13L240.23,730.50L239.97,725.40L236.02,722.15L229.68,722.47L226.78,726.57L227.80,731.50Z M233.56,722.96L228.35,727.54L228.96,731.69L237.25,733.91L241.71,730.38L241.96,726.81L238.87,723.26L233.56,722.96Z M227.92,728.59L234.60,734.20L239.27,732.29L241.84,727.63L239.79,722.72L234.67,721.26L228.98,724.05L227.92,728.59Z M227.26,721.01L223.13,727.51L228.12,732.44L234.78,731.70L236.96,728.41L233.41,721.93L227.26,721.01Z M232.86,731.27L238.74,731.06L241.83,727.10L241.57,721.98L237.63,718.37L232.78,719.46L229.35,723.33L228.42,726.62L232.86,731.27Z M230.87,717.77L226.54,719.91L225.42,723.65L228.19,728.24L235.36,729.04L239.11,725.52L238.28,720.45L230.87,717.77Z M262.07,764.51L263.29,769.19L259.95,771.78L247.07,763.76L246.26,762.39L249.28,758.15L249.89,755.61L249.63,753.79L248.74,758.42L242.49,759.28L240.12,756.81L242.43,754.56L241.23,755.69L240.98,751.40L238.72,753.26L239.76,750.08L238.84,752.32L238.48,749.95L233.85,750.55L234.06,747.04L238.01,745.36L234.91,745.53L234.79,743.25L233.84,744.90L231.42,739.76L228.75,741.82L229.16,736.33L226.78,738.62L225.88,735.64L221.99,737.04L221.74,730.32L226.03,731.97L226.28,727.60L222.17,727.08L224.72,728.75L220.54,730.51L217.35,724.34L222.13,722.51L231.24,729.01L243.65,732.70L249.75,749.42L257.26,754.12L261.01,767.42L262.07,764.51Z M225.39,715.76L218.07,715.95L215.07,719.88L218.26,727.20L224.35,728.07L228.09,724.52L228.46,719.25L225.39,715.76Z M221.75,712.45L218.40,716.00L218.18,720.35L221.33,724.35L226.34,725.47L230.66,722.68L231.55,716.93L227.80,712.18L221.75,712.45Z M183.28,689.52L191.01,690.21L194.34,686.27L193.53,681.18L187.51,678.27L182.46,679.95L180.59,684.93L183.28,689.52Z M177.47,685.60L185.69,687.43L189.29,683.81L188.96,678.72L183.29,675.23L178.23,676.25L175.71,680.75L177.47,685.60Z M178.19,651.14L172.92,651.42L169.69,655.27L170.91,661.83L175.76,664.70L180.19,663.43L182.81,658.42L181.92,653.88L178.19,651.14Z M791.32,545.44L794.36,536.56L791.57,533.41L786.53,531.87L781.22,535.27L782.46,541.46L787.19,545.02L791.32,545.44Z M757.76,531.66L752.48,534.00L750.64,541.80L753.15,545.30L760.02,543.16L762.32,538.79L762.01,535.43L757.76,531.66Z M782.65,530.09L781.39,536.70L784.66,540.25L790.28,539.99L793.68,536.46L794.12,531.99L791.44,527.80L786.54,526.98L782.65,530.09Z M664.57,525.47L657.89,529.93L659.72,536.70L667.24,535.97L671.04,531.78L668.11,525.63L664.57,525.47Z M776.99,515.24L786.88,523.57L790.32,518.93L789.69,512.09L783.54,510.25L778.01,512.37L776.99,515.24Z M783.22,508.79L777.40,504.25L772.02,507.32L770.33,512.00L772.88,516.28L778.75,518.24L782.94,516.08L783.22,508.79Z M531.25,503.45L526.40,508.32L528.01,513.55L534.05,516.71L538.31,514.36L540.28,509.34L537.71,504.73L531.25,503.45Z M777.64,508.09L778.56,513.57L782.81,517.15L788.09,516.86L790.85,513.56L786.20,504.54L780.62,504.59L777.64,508.09Z M534.91,496.52L535.39,504.48L540.54,506.62L545.58,504.58L547.78,499.81L546.33,495.92L540.92,493.66L534.91,496.52Z M656.84,502.40L656.45,507.83L651.73,515.67L648.09,510.38L648.50,504.95L651.94,499.68L656.84,502.40Z M534.52,505.10L540.74,505.82L545.20,501.88L545.07,497.18L541.65,493.96L533.38,495.58L531.65,500.62L534.52,505.10Z M785.62,492.40L780.95,500.29L783.95,503.60L790.97,503.78L794.08,500.05L794.21,496.05L789.98,492.63L785.62,492.40Z M668.97,490.53L663.09,492.58L661.54,496.26L662.75,500.05L668.39,502.63L673.95,500.72L675.27,495.03L668.97,490.53Z M663.93,497.44L668.11,502.77L674.03,502.06L677.69,497.15L676.56,492.64L670.67,489.99L665.31,491.92L663.93,497.44Z M788.49,501.66L791.54,497.60L791.13,493.95L787.55,490.81L780.33,492.12L777.75,495.97L779.16,500.76L783.17,502.86L788.49,501.66Z M545.88,488.17L541.11,490.25L539.39,494.99L541.58,499.53L547.16,502.04L551.56,500.06L553.38,495.58L550.74,490.19L545.88,488.17Z M544.91,497.52L554.84,499.85L557.45,496.99L555.32,490.02L546.07,489.76L543.95,493.41L544.91,497.52Z M707.60,493.24L697.34,489.70L694.52,494.94L700.22,499.25L706.49,499.17L707.60,493.24Z M727.16,492.23L732.14,498.83L737.97,499.26L740.52,496.61L733.29,489.15L727.66,488.55L727.16,492.23Z M619.84,490.39L633.76,489.76L633.07,493.87L623.00,504.00L621.08,502.74L617.28,504.84L615.18,499.43L619.84,490.39Z M557.39,472.99L551.39,472.94L548.21,476.52L548.42,481.31L551.54,485.25L560.35,483.73L561.78,478.60L557.39,472.99Z M672.24,477.80L662.46,476.97L661.50,481.56L667.14,488.18L671.08,488.41L674.86,481.89L672.24,477.80Z M552.31,472.24L547.21,475.07L546.78,478.92L550.31,483.21L555.51,484.04L559.82,481.16L560.54,477.26L557.76,473.22L552.31,472.24Z M542.86,480.61L550.53,483.15L554.14,480.85L555.25,476.71L549.82,471.03L543.58,471.91L541.31,476.10L542.86,480.61Z M786.79,479.08L791.30,485.61L795.60,484.71L791.70,472.58L786.63,474.48L786.79,479.08Z M670.47,476.20L679.10,484.02L684.18,480.13L677.89,472.65L671.79,472.76L670.47,476.20Z M716.19,469.30L709.83,473.26L710.00,478.06L715.46,481.31L722.16,478.74L723.36,474.99L721.00,470.13L716.19,469.30Z M533.84,464.23L528.29,466.66L526.93,471.75L529.82,476.15L535.94,477.69L540.00,474.62L540.57,469.55L537.88,465.40L533.84,464.23Z M788.55,466.33L782.65,468.35L780.71,472.69L783.22,476.81L791.21,479.52L794.47,472.72L792.40,468.25L788.55,466.33Z M667.06,474.53L676.10,471.93L675.88,464.79L665.57,464.87L663.51,468.97L667.06,474.53Z M640.29,470.86L644.32,465.65L642.30,460.22L634.63,458.72L630.40,465.38L632.81,469.76L640.29,470.86Z M705.15,461.28L704.40,469.02L707.59,471.51L713.42,471.36L717.15,466.96L716.79,462.25L713.13,459.27L710.01,458.39L705.15,461.28Z M702.62,460.38L703.80,465.84L710.23,466.95L712.88,462.90L712.69,456.74L709.61,453.70L705.92,454.14L702.62,460.38Z M786.24,452.50L778.22,450.79L774.71,455.46L773.93,459.97L776.45,463.39L781.79,463.29L787.20,458.20L786.24,452.50Z M802.02,433.70L803.86,441.13L808.22,443.20L812.70,442.37L815.61,436.35L811.59,430.42L807.37,430.12L802.02,433.70Z M621.10,439.40L626.04,435.98L626.50,431.94L623.45,428.15L617.83,427.40L612.70,432.61L614.44,437.36L621.10,439.40Z M648.78,473.49L640.36,479.35L628.22,475.08L629.22,470.68L622.83,469.81L622.83,465.34L617.46,468.73L617.92,473.42L612.10,476.21L609.36,482.22L603.25,485.93L600.02,483.61L599.32,473.36L586.70,477.43L588.74,470.35L595.03,467.01L593.00,457.48L597.30,434.97L601.35,431.86L601.33,434.32L604.16,434.47L605.23,437.85L602.87,439.25L606.31,445.49L609.68,440.32L613.76,445.66L620.03,447.06L621.73,450.71L631.65,455.74L636.04,464.96L632.61,469.03L637.91,467.04L642.10,469.13L642.47,466.64L645.75,469.59L644.39,471.05L648.78,473.49Z M602.92,428.22L603.10,436.89L607.14,441.21L610.48,440.33L611.85,436.61L609.01,429.62L602.92,428.22Z M609.17,429.22L615.52,438.35L622.11,438.12L622.39,434.91L618.52,433.57L615.35,427.68L609.90,426.38L609.17,429.22Z M615.99,423.40L617.95,429.52L623.16,431.82L627.85,429.53L629.68,424.87L628.33,421.69L621.35,418.51L615.99,423.40Z M803.20,403.75L798.75,410.34L805.25,415.36L812.71,408.27L808.55,403.28L803.20,403.75Z M802.38,401.62L794.01,400.23L790.20,404.76L794.47,410.35L800.74,410.15L804.12,405.83L802.38,401.62Z M800.29,397.84L795.16,393.02L791.15,393.64L787.88,399.23L789.50,405.04L794.54,406.82L799.81,404.78L800.29,397.84Z M709.61,391.58L700.92,387.66L696.95,390.08L697.98,395.10L709.75,396.66L709.61,391.58Z M770.53,382.44L765.13,386.19L765.45,390.05L771.98,393.38L776.08,392.61L778.87,386.79L777.69,383.54L770.53,382.44Z M589.73,384.74L588.06,396.51L592.38,398.02L594.74,393.43L593.97,386.70L589.73,384.74Z M694.85,388.45L694.89,398.92L691.65,404.19L686.91,406.17L676.58,405.57L674.37,397.43L680.04,386.72L687.00,385.14L694.85,388.45Z M659.42,379.80L653.31,382.85L652.54,385.63L654.34,391.45L658.99,393.78L666.06,387.72L664.96,382.88L659.42,379.80Z M624.39,386.83L632.22,391.28L636.67,388.54L636.33,381.11L629.61,379.08L624.55,382.31L624.39,386.83Z M696.49,380.31L699.94,391.40L703.64,391.70L707.88,387.35L707.28,382.38L699.40,378.26L696.49,380.31Z M657.32,375.47L655.38,384.71L659.79,387.67L664.18,386.94L668.74,381.03L668.18,377.33L661.32,374.43L657.32,375.47Z M696.04,385.92L703.14,384.74L704.78,380.64L698.26,373.58L693.11,375.12L690.85,378.90L691.73,382.91L696.04,385.92Z M694.73,375.46L690.38,376.10L688.34,381.51L696.34,388.63L698.84,387.95L700.15,383.39L694.73,375.46Z M755.11,372.74L750.21,376.45L752.82,379.81L759.93,381.59L764.08,379.22L761.86,374.98L755.11,372.74Z M560.74,364.14L555.33,364.46L552.57,368.57L553.29,373.66L558.31,377.32L562.70,376.80L565.61,373.46L565.41,367.84L560.74,364.14Z M548.72,367.13L553.56,373.48L559.44,372.62L561.91,369.68L559.77,362.17L554.38,360.03L549.67,363.03L548.72,367.13Z M654.26,374.65L656.23,377.14L662.04,375.18L667.73,367.52L666.91,364.26L661.29,364.45L654.26,374.65Z M551.44,365.85L558.59,372.83L562.27,370.51L564.49,364.09L562.66,360.28L559.30,358.86L553.52,361.38L551.44,365.85Z M673.04,372.85L679.97,373.66L684.04,365.75L682.97,362.35L675.36,360.42L671.58,362.20L670.46,368.92L673.04,372.85Z M759.43,356.91L755.43,360.26L755.46,364.56L758.81,367.26L768.40,364.02L768.70,360.14L766.14,357.21L759.43,356.91Z M760.12,354.82L750.70,360.06L751.09,363.12L759.21,366.56L764.43,358.63L760.12,354.82Z M662.73,357.44L657.63,363.21L660.60,366.55L671.60,360.42L668.08,355.43L662.73,357.44Z M653.42,356.31L642.79,359.10L650.31,363.16L650.66,360.98L656.79,358.83L653.42,356.31Z M618.82,363.65L623.78,359.29L623.53,354.64L619.73,351.97L612.21,352.55L610.20,357.30L612.96,362.22L618.82,363.65Z M538.44,356.96L541.53,361.83L546.65,362.23L551.79,358.42L551.98,353.83L547.93,349.98L542.75,349.98L539.02,353.12L538.44,356.96Z M552.23,359.61L553.71,354.04L550.55,350.43L542.82,352.22L539.93,356.56L541.94,361.38L547.46,363.93L552.23,359.61Z M583.16,353.84L590.14,356.61L595.52,352.68L591.63,348.05L585.97,347.30L582.11,349.40L583.16,353.84Z M716.90,335.25L721.22,340.47L727.75,338.50L730.54,332.31L720.55,330.23L716.90,335.25Z M706.47,327.02L712.57,332.49L718.88,326.22L716.64,320.97L709.32,319.08L705.46,322.81L706.47,327.02Z M715.01,315.85L709.55,317.96L707.52,323.83L710.50,327.39L716.55,328.76L720.42,325.31L720.62,319.60L715.01,315.85Z M507.61,314.15L507.46,323.56L511.78,325.49L516.92,324.36L519.64,319.54L518.58,314.08L513.48,311.87L507.61,314.15Z M511.53,291.71L503.19,294.64L502.31,298.83L505.39,303.65L513.11,304.35L515.86,300.64L515.29,295.15L511.53,291.71Z M498.16,305.59L502.72,305.49L506.02,301.98L505.74,294.75L502.37,292.24L496.75,293.50L492.90,299.66L498.16,305.59Z M493.60,290.96L492.83,295.34L495.38,299.69L501.39,300.82L506.04,296.53L506.31,292.52L502.78,288.05L498.27,287.51L493.60,290.96Z M395.82,287.20L404.05,288.87L407.36,286.72L407.51,280.85L402.53,278.48L397.48,279.46L395.14,281.44L395.82,287.20Z M429.66,283.12L430.63,288.87L423.59,296.24L424.26,298.15L416.78,289.63L408.57,285.93L412.50,281.56L423.39,280.40L429.66,283.12Z M644.19,285.93L642.71,280.77L645.41,280.37L655.34,283.01L667.29,282.43L675.35,285.42L685.68,297.18L683.35,298.82L666.78,297.23L654.28,299.91L650.41,297.76L648.96,290.77L642.73,289.12L644.19,285.93Z M502.50,300.06L504.59,306.34L499.47,308.28L502.53,309.86L502.84,312.78L499.53,313.71L502.90,314.04L500.45,316.08L502.82,315.90L502.04,318.04L492.23,321.95L487.16,320.95L486.21,319.71L487.51,316.87L486.78,316.48L484.94,319.93L489.04,323.63L482.89,328.64L478.37,327.14L477.03,322.58L465.84,310.98L462.87,311.19L460.65,308.12L458.57,309.91L455.59,308.62L446.88,298.90L451.11,293.59L454.11,293.47L458.89,300.06L463.06,301.27L468.70,299.02L467.04,295.98L468.39,294.26L468.80,297.69L470.89,297.43L466.55,290.81L473.60,291.21L468.28,287.56L463.86,290.20L456.99,285.79L463.31,283.64L467.77,287.19L466.62,283.69L461.52,281.30L463.61,279.22L471.32,281.04L472.91,278.13L468.82,278.65L473.29,277.19L478.76,281.95L491.44,277.54L498.92,282.02L492.60,284.86L496.39,286.06L496.63,288.50L491.80,289.36L485.00,294.93L485.43,297.74L492.45,294.57L496.34,296.51L494.62,297.97L498.13,300.50L496.63,302.71L502.50,300.06Z M488.14,278.32L476.54,277.73L492.61,274.58L488.14,278.32Z M552.09,275.86L559.23,277.86L549.73,290.02L546.36,290.81L548.67,291.36L544.36,298.21L539.64,300.88L531.45,298.78L522.33,299.81L527.10,300.28L529.99,305.63L523.11,313.96L524.96,313.31L524.66,314.90L514.71,315.10L514.45,312.44L518.13,311.49L514.67,311.59L515.04,305.63L510.27,299.10L511.66,292.70L509.82,281.95L512.57,280.29L519.63,282.62L513.29,277.57L514.03,275.78L531.70,272.54L539.24,274.77L540.10,277.07L552.09,275.86Z M494.52,271.32L498.89,268.55L500.29,262.66L494.87,259.45L490.65,260.64L486.72,267.31L489.42,270.71L494.52,271.32Z M506.51,261.38L504.27,265.41L507.42,269.20L515.10,270.17L518.09,266.98L513.29,259.85L506.51,261.38Z M434.56,247.27L426.93,254.80L433.52,257.28L440.44,253.19L434.56,247.27Z M528.09,249.68L529.37,263.03L518.72,263.78L508.22,260.03L506.73,256.22L504.92,258.42L501.80,256.84L503.11,252.92L509.28,249.29L505.92,248.80L509.95,248.89L508.72,247.69L510.97,246.08L517.15,244.23L528.09,249.68Z M496.73,248.81L500.06,251.57L509.99,245.93L504.52,242.14L497.32,245.24L496.73,248.81Z M284.84,233.74L276.20,240.49L276.59,244.45L279.71,246.92L288.02,244.76L289.11,236.14L284.84,233.74Z M441.22,241.10L448.24,242.47L454.47,238.03L444.14,238.48L441.22,241.10Z M512.98,237.38L515.15,244.53L518.83,246.21L525.46,244.80L526.77,242.27L523.70,234.63L519.05,233.39L512.98,237.38Z M450.46,237.12L438.51,239.51L435.96,238.44L449.67,235.63L450.46,237.12Z M315.33,235.67L305.03,246.95L297.92,245.06L312.33,235.21L315.33,235.67Z M650.14,238.50L654.52,243.90L662.47,242.08L662.95,233.65L658.82,232.22L652.78,236.00L650.14,238.50Z M641.02,228.14L636.29,228.26L632.04,231.71L634.26,239.18L641.21,239.43L644.97,236.20L644.89,231.24L641.02,228.14Z M437.44,236.72L431.47,234.53L447.14,231.28L448.80,232.90L446.15,235.81L437.44,236.72Z M569.26,223.56L561.22,223.64L558.53,227.49L559.52,232.09L563.54,234.50L569.44,233.90L572.08,230.74L569.26,223.56Z M607.85,226.78L608.12,231.20L616.16,234.97L620.10,232.02L621.23,226.75L615.64,221.89L610.95,221.99L607.85,226.78Z M432.37,231.10L429.66,225.75L435.53,224.43L435.23,226.40L437.57,225.34L444.60,229.19L432.37,231.10Z M494.99,243.55L495.85,248.89L491.89,245.63L491.44,247.79L489.04,247.31L491.44,248.49L488.38,250.92L490.04,250.12L493.28,253.78L488.50,252.32L489.64,256.39L476.85,256.69L477.74,254.14L474.70,257.14L468.23,256.23L466.62,252.71L471.65,252.07L464.53,249.82L467.71,249.29L465.08,248.22L471.16,247.85L469.00,246.50L473.05,246.10L471.15,245.85L474.52,244.78L473.11,244.00L481.42,243.17L458.57,244.94L447.97,247.06L445.75,244.75L453.56,243.07L451.29,239.88L455.13,239.19L460.12,242.28L463.36,240.95L457.66,239.88L459.87,236.97L456.23,237.57L454.51,235.33L459.14,232.48L452.14,232.75L453.33,229.40L459.71,229.37L472.00,239.78L476.54,237.91L472.74,238.58L469.55,234.74L474.36,234.98L476.73,234.20L467.25,232.86L472.93,231.83L462.69,227.59L474.74,225.06L479.85,229.57L481.81,228.92L480.22,225.75L485.35,224.20L488.07,226.01L486.13,226.36L492.41,227.99L493.26,239.97L489.96,242.28L494.99,243.55Z M469.38,222.54L462.75,222.62L455.95,226.28L459.75,227.07L469.38,222.54Z M557.98,229.89L566.38,229.04L565.65,220.94L560.81,218.24L555.30,219.35L553.40,224.68L557.98,229.89Z M422.66,242.53L417.78,255.58L406.85,258.21L402.01,254.72L400.47,257.89L396.25,258.27L392.60,255.29L360.28,267.99L349.05,267.40L342.37,262.78L357.06,256.96L367.90,256.55L373.87,252.19L361.10,254.33L358.12,251.28L356.53,254.55L347.32,255.55L349.48,252.99L346.85,253.13L347.98,250.42L352.36,248.49L347.43,249.46L345.67,247.50L344.55,252.33L341.73,250.55L340.80,251.20L343.59,253.16L342.36,255.36L336.84,257.31L335.01,253.13L331.40,253.81L330.96,257.24L326.13,255.51L328.02,254.19L325.39,254.44L326.12,252.59L321.55,254.31L313.31,251.66L317.66,247.39L328.04,247.31L337.34,243.19L317.24,244.92L320.50,241.44L338.90,239.70L321.83,238.58L324.29,237.79L322.78,235.04L326.96,233.43L340.34,234.20L329.07,231.83L338.50,227.33L344.88,228.51L346.63,233.69L355.30,232.09L360.39,234.07L360.93,236.72L366.64,238.97L362.16,240.95L369.03,240.42L370.89,246.60L391.83,247.43L392.56,243.33L381.59,239.37L388.14,235.14L378.65,231.57L378.53,229.71L393.03,220.69L395.94,223.23L393.43,224.95L394.46,229.19L399.25,231.83L395.51,236.59L403.19,237.58L399.74,241.48L408.24,239.31L409.98,244.14L412.36,241.21L409.94,240.49L410.04,238.04L414.82,236.18L421.38,238.58L422.66,242.53Z M349.58,224.29L351.77,222.20L347.91,219.44L337.84,222.40L349.58,224.29Z M646.46,255.90L656.38,258.54L651.24,260.26L646.75,258.57L649.52,260.00L648.48,264.64L634.42,267.13L624.30,265.33L622.89,260.23L619.19,258.42L620.71,261.26L619.17,264.82L612.33,266.20L606.46,266.09L605.63,262.38L604.05,266.46L600.93,262.65L600.30,266.36L595.64,266.63L595.15,263.96L593.36,266.56L589.57,263.96L591.35,266.88L574.23,266.30L576.21,260.92L574.04,258.53L571.28,263.14L570.63,260.80L569.04,259.75L568.60,264.24L566.03,265.29L551.81,262.38L553.94,258.80L549.97,261.72L551.14,263.83L549.08,262.06L547.44,263.53L542.53,260.47L541.03,255.24L542.59,253.71L538.58,252.46L543.05,245.06L541.95,239.80L533.60,230.63L512.76,232.75L518.04,231.03L506.33,227.72L509.48,227.19L510.99,225.60L507.07,226.66L498.67,223.10L504.55,222.70L499.98,220.54L499.99,218.39L509.36,216.59L527.87,219.59L532.57,224.22L528.27,228.78L529.13,229.74L533.43,225.25L552.74,224.95L556.78,227.99L546.97,227.72L568.18,232.58L556.89,233.94L560.14,234.96L546.55,232.21L549.73,233.48L548.38,234.48L555.00,235.14L553.22,236.06L559.29,236.06L550.59,236.97L552.54,237.25L551.39,237.51L550.88,240.53L553.84,237.39L557.14,237.91L556.34,239.32L561.30,237.06L563.77,239.24L562.97,241.34L568.47,241.90L567.62,244.40L563.10,245.45L568.06,245.36L570.66,248.36L572.40,243.43L576.82,247.57L581.09,245.46L583.63,247.87L585.43,244.65L593.49,248.36L591.23,249.55L601.03,248.89L595.40,246.85L609.49,244.62L608.70,243.33L614.64,240.67L640.47,241.63L638.92,243.86L650.87,246.24L647.06,247.69L654.23,247.96L654.74,252.25L646.46,255.90Z M301.91,234.75L297.23,230.40L295.17,230.90L296.64,235.00L294.37,235.14L297.23,237.85L289.17,241.10L289.16,237.91L284.90,233.49L284.11,238.18L281.01,239.09L276.11,236.50L268.20,237.79L269.33,234.01L265.44,235.67L271.14,229.57L279.11,228.72L282.02,224.09L289.34,221.65L300.13,211.79L311.85,210.53L319.12,212.41L317.85,211.33L322.63,210.53L318.09,209.21L324.78,207.21L333.85,212.12L324.83,215.42L330.81,219.06L325.14,219.38L329.37,223.89L319.40,226.71L318.25,231.77L310.00,229.45L311.73,221.48L306.08,223.49L307.79,226.66L302.06,227.28L305.44,230.71L301.91,234.75Z M597.82,209.85L608.27,212.06L611.07,207.97L608.04,204.01L601.19,203.31L597.21,206.71L597.82,209.85Z M564.03,211.14L558.26,205.86L550.11,206.94L550.39,210.50L557.35,214.20L564.03,211.14Z M432.43,213.53L428.67,215.94L424.80,214.89L417.02,203.98L422.31,204.15L432.43,213.53Z M533.24,205.25L527.12,209.62L507.42,208.82L504.37,206.30L511.72,202.42L528.70,202.98L533.24,205.25Z M671.53,196.28L664.79,198.38L663.42,201.83L665.59,206.43L671.22,208.07L677.23,202.94L676.15,198.09L671.53,196.28Z M449.63,203.78L449.63,201.05L456.10,200.57L463.19,203.69L449.63,203.78Z M350.13,202.43L343.35,197.10L336.20,199.56L344.84,204.53L350.13,202.43Z M384.79,196.88L383.99,199.73L374.00,201.60L381.12,203.08L379.98,208.33L364.28,211.71L353.09,206.83L353.99,200.26L384.79,196.88Z M440.79,190.34L437.44,195.21L438.71,199.00L443.53,201.12L451.07,196.40L449.51,190.16L440.79,190.34Z M571.91,189.98L570.75,195.87L573.52,198.48L579.85,197.39L583.34,189.76L581.04,185.86L577.10,185.23L571.91,189.98Z M388.71,189.90L387.37,192.78L383.66,193.06L371.76,191.23L369.26,193.46L362.62,191.48L352.24,192.27L375.46,184.13L383.09,185.72L388.71,189.90Z M696.28,179.63L693.56,186.52L696.55,189.16L703.60,189.55L707.02,186.01L706.75,182.76L703.08,179.94L696.28,179.63Z M515.71,199.29L497.44,202.47L498.42,200.21L491.44,197.96L499.53,196.12L490.14,194.51L485.78,189.34L489.20,188.10L486.18,183.97L494.33,183.38L517.79,191.74L512.65,194.26L517.24,196.65L515.71,199.29Z M421.38,178.39L422.72,173.10L438.24,172.45L445.77,174.96L448.28,181.82L449.88,179.19L456.78,177.90L462.69,180.78L460.93,183.18L468.40,182.86L472.49,185.27L470.96,186.45L475.48,187.21L473.29,192.81L480.96,197.43L480.21,201.03L472.08,202.95L466.07,201.39L462.05,194.80L448.34,194.04L446.98,191.42L431.59,193.46L426.39,189.02L430.02,187.50L439.87,189.10L440.77,186.70L435.35,186.59L441.85,184.54L434.07,183.77L437.25,181.29L433.54,179.52L427.20,183.36L429.68,179.25L421.38,178.39Z M470.18,161.12L481.91,166.63L483.68,164.23L479.44,157.48L473.46,157.15L470.18,161.12Z M515.02,150.00L518.23,147.71L515.84,145.18L506.71,145.04L504.27,146.99L505.76,149.02L515.02,150.00Z M506.08,161.86L500.95,157.30L521.78,160.39L517.98,158.28L524.42,156.69L512.66,157.71L510.01,156.69L514.18,155.50L507.58,156.27L501.18,153.52L512.34,153.52L506.39,150.61L507.07,148.89L527.11,149.94L519.14,147.31L524.05,146.10L511.48,144.25L514.91,143.06L511.91,142.67L517.12,139.63L521.20,141.48L526.01,140.03L522.49,138.49L532.75,138.97L532.20,136.71L521.66,135.80L523.51,133.78L531.84,133.65L544.89,137.78L543.85,139.36L555.67,147.56L554.44,149.22L569.40,151.13L567.63,154.57L574.05,158.24L577.56,158.16L572.53,154.57L573.10,152.50L581.54,152.19L582.73,156.62L578.30,157.74L587.73,161.06L583.44,163.30L588.15,161.92L583.69,169.12L593.99,166.95L596.15,171.04L599.45,167.53L606.48,174.24L590.08,180.25L588.09,178.22L588.35,181.03L582.00,186.35L578.89,183.10L581.29,177.86L577.31,179.55L577.65,185.50L575.66,186.06L579.67,188.10L576.82,189.82L571.67,186.99L574.04,190.72L571.61,195.57L560.92,186.92L565.85,195.59L558.01,192.27L554.26,192.53L558.07,193.47L557.82,195.97L542.87,194.70L534.22,189.77L546.23,187.86L531.62,187.28L526.87,183.94L533.80,183.94L522.57,179.71L531.19,176.16L557.70,174.68L537.48,174.72L550.95,171.90L538.66,172.41L541.03,171.11L533.37,170.06L534.10,171.90L530.67,172.84L531.27,170.73L525.83,174.46L523.31,174.15L526.62,171.76L520.90,171.22L514.37,174.04L513.74,171.64L509.50,171.62L509.64,168.99L518.69,167.68L522.51,164.50L508.62,166.87L502.04,162.92L506.08,161.86Z M819.61,115.16L809.12,121.10L790.62,124.82L792.46,126.00L790.20,126.86L781.24,126.13L775.23,127.45L781.54,127.45L776.92,128.75L755.85,129.98L746.06,126.92L754.57,130.37L750.10,130.23L752.57,130.89L770.21,130.89L737.96,137.38L743.11,137.38L739.69,138.81L778.01,131.33L789.64,131.56L761.67,141.90L742.86,153.30L737.10,153.25L736.88,150.96L732.50,149.21L735.82,153.52L740.23,155.10L738.45,156.44L724.35,157.88L718.23,156.04L722.89,157.88L718.92,158.95L735.37,158.26L727.56,161.27L731.72,162.23L729.65,164.22L719.91,166.67L702.05,162.17L696.53,163.05L709.61,164.49L711.91,168.53L704.40,168.58L701.57,170.97L695.18,169.55L694.90,172.26L676.06,168.87L687.27,172.57L678.39,172.70L676.14,170.41L673.67,170.72L675.81,173.09L667.78,172.57L674.34,174.30L672.81,174.68L699.90,175.08L696.71,176.00L699.69,178.75L688.37,177.84L685.41,175.51L666.01,176.14L684.69,177.97L660.30,178.12L670.97,179.31L668.70,180.24L666.28,183.86L670.83,180.05L688.16,179.81L682.09,182.37L697.17,182.65L696.28,186.33L698.43,187.38L680.28,188.57L694.88,192.27L689.55,194.91L678.01,194.77L689.94,196.58L686.79,199.56L666.37,198.71L664.47,200.48L670.85,206.30L666.06,210.59L645.49,212.09L633.09,204.84L634.88,209.67L639.95,211.65L630.76,212.24L633.81,214.78L640.56,212.52L649.39,214.10L647.09,216.62L655.50,213.46L659.31,216.04L656.01,219.50L660.23,219.34L659.69,221.11L667.50,217.63L670.85,221.50L670.36,224.55L665.03,228.38L661.39,226.23L656.74,231.53L640.83,234.88L643.51,229.26L639.63,226.49L632.04,227.40L634.47,224.08L630.06,225.11L626.01,221.52L627.96,224.59L631.80,226.40L631.30,228.90L623.58,228.95L620.18,222.67L621.09,229.53L612.02,224.56L612.71,228.67L605.20,227.33L611.17,231.29L603.88,231.88L593.65,229.87L594.90,227.19L591.59,224.98L594.05,227.18L590.30,230.64L583.94,228.38L582.77,225.40L584.18,230.50L575.26,229.77L574.33,221.47L572.53,223.62L574.43,226.80L573.33,229.56L572.51,225.77L570.72,229.45L563.83,226.27L566.46,223.23L565.12,220.83L574.44,215.86L591.35,214.63L585.89,213.97L588.59,212.91L585.59,212.12L589.15,211.04L581.36,210.92L581.54,207.63L576.97,205.51L576.88,201.41L592.71,201.92L596.98,204.30L598.58,209.86L601.15,208.82L610.47,212.24L609.52,210.22L619.42,211.33L616.11,209.21L623.71,204.97L629.66,197.17L625.69,198.23L617.52,207.75L607.84,208.02L606.88,207.00L609.00,205.90L610.75,204.00L610.49,203.61L606.21,206.43L602.56,203.78L605.96,201.78L602.11,202.01L611.82,200.74L599.62,200.02L612.06,197.17L607.02,197.65L605.38,195.31L614.39,195.31L605.98,194.63L609.49,191.94L606.85,191.62L609.13,187.38L601.30,196.72L594.17,197.15L597.30,194.18L598.00,191.32L589.87,196.44L583.01,195.97L587.00,194.77L583.13,194.26L583.08,190.83L589.08,188.17L586.72,187.51L588.34,184.98L605.42,180.97L616.92,182.57L629.47,187.78L627.20,185.13L630.57,184.73L621.26,182.61L634.74,182.49L637.20,178.51L627.75,181.68L607.92,178.71L610.59,176.60L614.80,178.47L620.34,178.39L611.70,175.75L605.51,167.54L592.51,164.77L593.21,160.87L603.43,161.59L591.97,159.56L592.25,154.19L616.54,155.31L631.01,162.69L635.48,166.08L634.44,167.66L645.17,168.47L652.64,165.81L636.80,165.60L635.56,161.94L637.87,161.32L621.75,153.92L667.84,149.17L650.74,148.24L681.88,143.20L659.94,143.20L664.34,137.56L678.56,132.07L666.60,134.96L661.72,138.66L654.85,136.99L658.78,139.10L656.27,140.82L657.62,141.64L642.59,147.36L622.51,149.58L622.81,147.67L634.68,144.39L618.88,146.54L621.14,143.82L615.87,145.45L616.02,149.66L597.97,149.68L600.66,148.09L596.31,149.78L590.05,148.49L600.13,141.24L629.28,137.38L598.71,140.20L585.34,147.96L581.49,147.70L565.79,142.50L590.50,140.75L608.08,135.38L562.53,140.60L557.82,137.50L570.51,136.05L561.37,134.47L570.91,131.19L585.59,131.30L575.80,129.46L556.57,133.70L553.28,132.22L564.68,128.65L558.30,127.26L547.83,130.63L543.54,128.65L545.50,126.79L563.47,123.03L566.92,125.24L568.60,123.76L566.22,122.91L578.24,119.48L590.24,123.62L586.64,122.02L595.30,120.67L602.13,124.31L599.13,121.77L609.25,123.62L588.89,117.53L602.11,116.20L600.79,113.53L597.48,113.18L608.31,112.23L606.18,113.30L619.77,115.70L624.02,119.12L622.42,120.18L633.64,120.71L626.93,119.55L623.86,115.79L657.30,125.07L651.64,121.03L625.99,113.74L628.09,111.72L637.20,111.85L629.60,108.83L645.23,111.06L637.24,105.52L647.60,106.37L651.79,109.13L650.56,108.15L663.80,108.27L646.58,104.17L656.32,102.72L659.29,104.67L662.89,103.34L663.67,105.22L676.02,104.82L687.15,109.99L684.25,112.83L691.56,109.60L673.79,102.45L676.06,101.54L702.30,102.21L705.63,104.84L716.69,108.02L707.19,103.66L715.70,100.39L725.31,100.25L723.80,101.86L725.71,103.25L732.38,104.45L726.44,102.06L742.66,100.00L744.77,101.54L743.30,102.44L772.97,103.51L752.23,109.38L776.98,105.29L783.20,106.69L781.85,104.71L787.31,103.99L785.16,104.71L789.58,106.87L799.08,106.04L794.85,107.62L803.12,110.53L799.14,113.04L803.65,111.58L809.86,111.32L808.73,111.49L808.28,112.25L815.19,112.12L819.61,115.16Z M644.92,677.54L646.83,684.15L652.14,685.69L657.08,683.30L658.52,679.23L655.90,673.94L651.63,671.80L647.09,673.29L644.92,677.54Z M650.22,668.22L644.44,672.04L644.42,677.86L649.52,682.02L653.56,681.55L656.86,674.89L655.16,669.94L650.22,668.22Z M655.30,657.95L649.17,656.75L644.95,660.41L644.98,665.99L648.02,669.48L652.50,670.21L657.06,667.52L658.24,662.36L655.30,657.95Z M652.93,609.70L645.74,618.80L646.56,622.01L650.72,623.34L656.94,618.16L657.90,611.48L652.93,609.70Z M649.29,609.27L651.61,615.76L655.12,616.48L660.10,610.75L658.74,605.25L655.57,602.72L651.56,603.30L649.29,609.27Z M646.82,608.60L649.05,612.50L653.96,613.33L657.27,611.19L657.15,602.55L652.92,599.60L648.10,601.45L646.82,608.60Z M647.29,592.71L647.10,596.89L650.96,600.81L655.26,600.03L657.83,595.98L655.42,587.72L651.33,587.19L647.29,592.71Z M639.86,557.80L644.12,564.01L648.28,563.53L652.04,555.67L650.12,551.69L645.96,550.20L641.20,552.84L639.86,557.80Z M644.83,547.47L641.83,555.66L644.44,558.71L649.17,559.25L654.97,552.49L651.46,546.33L644.83,547.47Z M649.72,556.20L654.86,553.91L657.14,548.69L655.84,545.28L651.28,543.05L645.59,545.06L643.39,549.43L644.15,554.28L649.72,556.20Z M773.17,866.09L776.36,871.78L781.32,871.89L784.75,868.30L785.40,862.51L782.88,859.32L778.40,858.45L774.16,860.88L773.17,866.09Z M834.90,850.62L823.78,853.18L823.10,856.56L825.72,860.51L830.38,861.78L835.35,858.94L836.95,853.80L834.90,850.62Z M767.61,847.19L767.63,852.67L770.79,855.45L774.99,855.31L779.07,849.74L779.18,845.52L776.36,842.38L772.15,842.04L767.61,847.19Z M768.91,847.95L773.75,846.13L774.57,841.84L773.44,837.16L769.01,834.66L765.24,835.56L762.40,842.31L763.35,846.52L768.91,847.95Z M697.55,827.40L698.93,835.17L703.98,836.48L709.90,832.30L710.51,827.80L707.75,824.20L701.39,824.12L697.55,827.40Z M698.37,830.58L701.86,834.47L707.14,834.57L711.10,831.30L711.40,826.17L707.85,822.46L701.72,821.99L698.23,825.58L698.37,830.58Z M711.51,827.81L710.92,822.23L706.77,819.12L701.63,819.88L698.09,824.18L698.66,829.16L702.90,832.50L708.22,832.01L711.51,827.81Z M815.74,829.84L820.76,832.69L825.15,830.19L827.28,825.22L826.15,821.35L821.63,818.86L816.10,820.33L813.57,824.51L815.74,829.84Z M706.47,830.60L712.91,824.84L713.23,820.44L710.24,817.19L704.25,817.81L700.34,822.79L702.53,829.93L706.47,830.60Z M704.86,819.89L700.09,827.92L702.42,831.06L709.53,831.03L712.46,826.99L712.48,819.86L709.85,817.95L704.86,819.89Z M728.22,793.08L724.66,801.01L728.99,804.89L734.47,803.55L737.62,798.85L736.84,793.58L732.41,791.16L728.22,793.08Z M831.06,817.70L823.31,824.68L821.52,823.30L817.83,825.19L816.42,822.60L815.44,816.03L824.01,796.48L826.54,799.96L823.90,812.38L825.50,810.97L819.31,817.43L822.73,815.36L819.05,822.09L822.76,822.55L825.74,816.49L822.32,817.34L826.78,810.13L826.72,813.44L828.10,811.60L831.01,813.18L831.06,817.70Z M800.35,808.59L811.63,807.80L806.27,811.84L807.35,815.97L804.71,817.41L801.44,812.29L802.81,810.28L800.39,813.65L797.10,812.27L795.89,808.80L792.34,808.43L792.89,804.06L790.11,804.34L793.56,795.85L794.11,807.22L796.14,807.88L796.43,805.49L800.35,808.59Z M815.41,794.66L819.94,784.38L815.00,782.04L809.13,788.56L809.14,794.89L815.41,794.66Z M782.66,781.66L783.89,786.14L787.95,787.97L792.81,784.35L793.42,776.23L786.62,774.74L782.66,781.66Z M791.82,784.22L794.92,779.09L793.45,773.60L785.79,772.41L782.73,778.15L783.40,782.78L787.29,785.37L791.82,784.22Z M801.65,754.05L789.50,740.99L801.37,743.42L812.48,751.70L814.05,756.66L809.21,757.24L801.65,754.05Z M800.62,731.81L796.39,727.99L791.46,728.39L787.94,732.70L788.52,738.44L793.37,741.57L798.62,740.49L801.29,736.53L800.62,731.81Z M656.38,693.42L648.68,698.83L648.77,703.41L651.17,706.64L657.54,706.55L662.26,698.45L656.38,693.42Z M644.31,682.54L640.03,676.47L633.64,677.01L631.27,680.58L643.67,687.91L644.31,682.54Z M656.90,676.79L659.69,671.91L657.90,666.81L653.19,664.18L648.71,665.35L646.09,669.15L646.95,674.48L651.39,677.98L656.90,676.79Z M649.72,644.90L649.21,648.57L653.85,650.19L660.66,647.16L662.57,642.63L658.19,640.42L649.72,644.90Z M674.15,638.47L680.15,629.59L675.01,625.31L666.65,634.45L670.83,639.25L674.15,638.47Z M662.01,629.31L663.03,619.08L657.42,618.35L654.03,628.71L658.86,631.56L662.01,629.31Z M666.09,620.58L664.71,611.83L660.76,611.24L657.34,615.04L656.48,622.87L661.71,624.57L666.09,620.58Z M652.34,627.47L655.16,621.09L651.24,626.80L650.19,625.35L655.31,612.63L653.94,620.83L655.71,619.13L656.82,610.67L657.54,610.20L660.42,617.14L657.55,626.14L659.46,618.36L659.54,615.86L656.81,626.01L657.98,618.87L652.34,627.47Z M645.59,605.22L646.31,611.98L650.30,614.72L656.87,611.13L657.75,605.97L655.08,602.25L651.47,600.83L645.59,605.22Z M665.71,583.38L672.30,585.75L675.84,583.59L675.18,575.88L666.36,573.30L663.53,576.16L665.71,583.38Z M657.02,569.29L658.83,577.15L664.67,579.88L669.71,574.42L663.51,566.09L657.02,569.29Z M256.72,763.09L260.23,768.68L265.60,769.72L270.38,763.15L268.01,758.51L263.29,755.91L258.29,757.93L256.72,763.09Z M268.30,757.14L261.98,755.86L258.33,758.87L257.88,763.58L261.01,768.24L266.72,768.68L270.71,765.83L271.38,760.97L268.30,757.14Z M800.84,816.19L799.74,822.13L803.51,826.30L809.13,826.03L812.98,822.24L813.15,817.77L810.41,814.23L805.44,813.34L800.84,816.19Z M828.09,810.49L824.73,815.40L825.95,820.29L830.26,822.91L834.99,822.23L838.13,818.38L837.94,812.80L833.55,809.36L828.09,810.49Z M869.13,793.48L872.60,798.49L878.02,798.86L881.88,795.02L882.18,789.50L879.01,785.99L873.86,785.62L869.91,788.60L869.13,793.48Z M883.09,796.33L888.08,790.23L886.54,785.19L882.21,782.69L877.76,783.76L874.87,788.64L875.35,793.09L878.62,796.14L883.09,796.33Z M730.78,793.73L738.95,795.89L742.55,792.18L743.33,787.70L740.97,783.81L736.63,782.44L731.46,785.24L729.52,789.36L730.78,793.73Z M887.30,780.44L886.15,788.97L890.28,791.90L896.27,790.28L899.09,785.69L897.45,780.55L892.13,778.05L887.30,780.44Z M743.50,767.90L744.13,774.03L749.16,777.08L754.68,775.02L757.00,770.24L755.64,765.77L751.70,763.27L746.70,764.11L743.50,767.90Z M234.92,750.68L234.96,758.95L239.17,761.94L243.64,761.14L246.84,755.92L244.59,749.40L239.30,748.25L234.92,750.68Z M861.84,730.13L860.15,738.53L867.64,741.98L872.16,739.18L873.35,734.55L871.16,730.30L866.69,728.58L861.84,730.13Z M863.79,740.75L869.95,741.67L873.79,738.13L873.80,732.91L870.27,728.89L865.01,728.74L861.12,731.90L860.62,736.88L863.79,740.75Z M209.40,726.64L213.73,730.52L219.05,729.79L222.40,725.51L221.69,720.54L216.65,716.85L211.17,718.54L209.40,726.64Z M833.28,721.35L834.38,728.17L839.67,730.68L844.96,727.71L845.91,722.15L842.69,717.52L837.06,717.16L833.28,721.35Z M208.09,722.85L210.11,728.49L215.24,730.36L220.57,727.70L221.80,722.29L218.71,717.62L213.86,716.44L209.81,718.60L208.09,722.85Z M847.92,726.64L852.73,730.33L858.18,728.85L860.96,724.44L860.15,720.04L855.56,716.56L850.32,717.76L847.24,722.10L847.92,726.64Z M219.81,727.84L225.96,729.01L229.53,726.16L229.90,720.43L226.90,716.44L221.94,715.96L217.02,719.50L216.68,724.25L219.81,727.84Z M838.49,712.55L835.64,719.03L838.38,723.28L842.96,724.39L846.70,722.25L849.35,715.59L846.35,711.42L838.49,712.55Z M842.26,708.94L837.27,714.27L838.39,720.04L844.13,722.55L849.75,719.01L850.63,713.01L847.30,709.22L842.26,708.94Z M210.72,702.02L212.28,706.42L215.98,708.42L220.85,707.32L223.35,700.98L221.50,696.21L216.64,694.59L212.29,697.30L210.72,702.02Z M652.37,696.48L652.48,701.29L655.63,704.68L661.00,704.97L664.85,702.24L665.91,697.64L663.62,693.50L658.46,691.96L652.37,696.48Z M648.98,693.48L648.82,698.38L651.76,701.79L656.21,702.46L661.01,699.95L660.88,691.72L657.09,689.55L651.83,690.13L648.98,693.48Z M657.60,697.93L663.48,698.98L667.44,695.57L668.07,689.83L664.75,686.16L659.80,685.91L655.16,689.44L654.70,694.17L657.60,697.93Z M647.56,687.73L647.76,693.27L651.23,696.46L656.60,696.27L660.57,692.10L659.74,686.41L655.29,683.08L650.50,683.87L647.56,687.73Z M201.77,686.16L203.26,692.71L208.91,694.78L213.42,692.63L215.15,688.37L213.82,683.50L209.79,681.01L204.68,681.88L201.77,686.16Z M861.87,691.05L867.32,693.12L871.72,690.95L873.39,685.59L870.96,680.64L865.63,679.26L860.70,681.98L859.47,686.75L861.87,691.05Z M202.61,683.28L204.68,689.76L209.09,691.60L215.46,686.44L214.21,680.29L209.54,677.62L204.92,679.04L202.61,683.28Z M860.42,683.54L864.36,688.33L869.43,688.30L872.90,684.62L873.05,678.95L868.83,675.30L863.99,675.32L860.54,678.70L860.42,683.54Z M859.83,680.60L862.21,685.78L867.18,687.15L872.30,684.60L873.61,680.01L871.64,675.07L867.74,673.25L862.65,674.93L859.83,680.60Z M859.41,671.50L864.27,678.98L869.94,678.79L872.90,675.00L872.73,670.09L867.71,666.25L861.50,667.45L859.41,671.50Z M193.30,666.61L190.93,670.95L192.10,675.53L196.35,678.76L200.94,678.23L204.07,674.82L203.93,669.43L201.34,666.06L193.30,666.61Z M851.30,673.99L856.75,675.04L860.68,671.97L862.00,666.02L859.29,662.25L853.86,661.51L849.19,665.21L848.58,670.50L851.30,673.99Z M850.13,664.50L851.23,669.90L855.57,672.87L861.06,671.28L863.71,667.69L863.07,662.94L857.93,659.63L852.38,660.85L850.13,664.50Z M194.98,671.41L201.65,672.36L205.11,668.56L205.27,664.38L201.84,660.34L194.48,660.23L191.61,666.31L194.98,671.41Z M848.81,662.21L853.37,663.98L857.44,662.54L859.94,658.03L859.04,652.96L854.76,650.10L849.06,651.67L846.29,656.88L848.81,662.21Z M646.25,658.92L647.06,653.52L643.47,648.88L638.08,648.69L634.35,652.59L636.42,660.77L641.76,662.09L646.25,658.92Z M850.91,659.01L856.69,659.51L860.32,656.17L860.32,650.42L855.98,646.24L850.05,647.36L847.11,651.57L847.67,655.97L850.91,659.01Z M194.09,659.80L199.71,659.42L202.58,656.07L202.00,650.24L198.95,646.88L194.43,646.44L190.08,650.29L189.61,656.09L194.09,659.80Z M846.84,650.43L848.00,656.14L852.38,658.48L858.09,656.84L860.01,652.04L858.22,646.51L854.24,644.60L849.34,646.26L846.84,650.43Z M186.82,650.43L189.23,655.83L194.09,657.32L198.93,654.42L200.27,649.28L198.27,645.21L194.11,643.40L188.81,645.19L186.82,650.43Z M673.04,619.39L674.14,625.15L678.06,627.58L682.60,626.71L685.80,622.95L685.23,617.62L681.22,613.97L675.85,614.74L673.04,619.39Z M669.39,610.93L662.84,614.85L662.39,619.89L665.73,623.69L673.12,622.76L676.05,617.92L674.31,612.92L669.39,610.93Z M667.21,611.97L666.08,616.38L669.12,621.55L675.41,621.79L679.11,616.79L678.28,611.44L674.80,608.78L667.21,611.97Z M663.76,616.87L668.16,609.82L662.41,604.09L656.92,605.15L654.35,609.03L655.03,613.63L658.61,616.60L663.76,616.87Z M675.14,609.31L676.02,616.05L679.10,618.08L685.29,614.98L684.24,605.71L680.54,604.23L675.14,609.31Z M685.57,600.42L680.39,594.63L675.61,596.28L674.12,603.13L677.32,607.76L682.16,608.31L685.54,605.48L685.57,600.42Z M668.01,594.14L660.30,596.10L658.41,601.06L660.19,605.23L664.27,607.22L670.08,605.32L672.37,600.93L668.01,594.14Z M670.09,594.06L665.46,591.45L660.91,592.83L657.78,597.25L658.42,601.52L662.23,604.63L668.27,603.92L671.61,598.99L670.09,594.06Z M685.21,598.27L684.09,593.75L679.85,590.39L675.74,591.13L673.27,594.51L676.78,603.53L680.70,604.16L685.21,598.27Z M765.06,572.10L756.71,573.10L755.24,580.35L757.89,584.14L762.65,584.89L766.53,582.72L767.52,576.24L765.06,572.10Z M668.74,567.03L664.45,562.99L659.03,563.66L655.66,567.59L655.85,572.20L659.52,575.85L666.72,575.06L668.74,567.03Z M653.49,567.63L655.02,572.89L659.44,575.60L663.80,574.70L666.54,571.17L665.87,565.62L661.73,561.93L656.26,562.82L653.49,567.63Z M747.79,558.94L742.08,563.47L741.79,568.57L745.37,572.23L750.48,572.07L754.92,568.12L754.82,563.04L747.79,558.94Z M640.07,559.16L638.41,563.66L640.01,568.00L644.41,570.39L650.06,568.83L652.40,563.46L649.70,558.26L644.52,556.73L640.07,559.16Z M641.43,547.20L638.82,554.42L641.67,558.32L647.51,559.23L651.71,555.08L651.38,548.68L646.76,545.62L641.43,547.20Z M640.10,551.94L642.10,557.72L647.45,559.34L652.05,556.15L653.39,550.54L651.00,546.74L646.70,545.43L642.61,547.27L640.10,551.94Z M745.38,523.11L740.12,520.25L735.28,522.91L733.86,528.53L737.48,533.67L742.58,533.70L745.79,530.04L745.38,523.11Z M719.77,518.18L720.29,524.81L725.67,527.64L731.24,525.68L733.11,520.29L730.90,515.49L725.20,513.96L719.77,518.18Z M716.05,513.87L722.76,516.65L727.11,514.30L727.12,506.38L722.56,503.70L717.40,504.46L714.58,508.86L716.05,513.87Z M531.39,503.52L528.75,508.15L530.25,513.00L534.77,515.31L540.12,514.09L542.59,510.19L541.87,505.63L537.62,502.44L531.39,503.52Z M715.83,512.98L721.57,513.18L724.83,510.03L725.19,505.51L721.95,501.57L714.14,501.69L711.60,505.52L712.28,510.06L715.83,512.98Z M540.31,500.62L534.55,500.04L530.78,503.67L531.32,509.84L535.41,513.37L540.76,512.61L543.71,508.08L540.31,500.62Z M766.54,494.39L772.83,497.19L777.23,494.98L778.49,490.22L775.75,486.13L769.46,484.06L765.78,486.34L764.60,490.51L766.54,494.39Z M769.63,482.21L763.72,481.61L760.85,485.17L761.78,489.65L767.21,494.91L773.47,491.88L773.69,487.33L769.63,482.21Z M751.27,487.16L757.41,490.78L762.00,488.63L763.37,483.19L760.90,479.02L755.19,476.81L751.22,478.84L749.64,483.01L751.27,487.16Z M752.23,485.40L757.36,490.23L761.40,489.71L764.04,482.56L757.54,476.42L753.44,477.58L751.27,481.25L752.23,485.40Z M763.63,477.95L759.16,474.64L755.16,475.32L752.61,482.49L755.59,487.47L759.27,488.54L764.03,486.24L763.63,477.95Z M797.64,473.88L792.75,470.66L788.13,472.43L786.55,478.30L790.38,484.15L795.14,484.11L798.23,480.50L797.64,473.88Z M791.83,466.21L786.63,467.68L784.73,471.68L785.99,477.19L790.74,480.15L795.04,478.73L797.78,473.39L796.73,469.27L791.83,466.21Z M688.25,464.87L685.47,459.10L680.27,458.09L675.92,460.68L674.69,464.92L677.68,470.44L683.02,471.81L686.99,469.36L688.25,464.87Z M686.32,468.01L686.99,461.39L682.24,457.75L676.12,458.79L673.62,463.29L675.96,469.02L681.39,471.15L686.32,468.01Z M788.21,458.83L782.65,457.18L779.14,459.97L779.28,467.12L782.90,470.69L787.92,469.96L791.16,466.16L788.21,458.83Z M773.12,440.25L768.28,436.51L762.87,438.39L760.38,442.89L761.27,446.79L765.12,450.16L769.45,449.94L773.16,445.75L773.12,440.25Z M566.95,447.87L573.58,447.64L576.53,443.06L574.40,437.35L568.74,435.38L563.47,438.58L563.00,444.06L566.95,447.87Z M573.20,446.91L578.93,446.30L581.78,442.51L581.18,437.59L575.52,434.11L570.20,435.73L568.05,439.88L569.27,444.39L573.20,446.91Z M755.17,437.83L758.22,441.45L762.42,441.68L768.12,438.18L768.66,434.20L766.39,430.88L759.66,430.33L755.61,433.00L755.17,437.83Z M783.52,436.86L782.87,431.92L779.97,429.40L775.03,428.90L771.79,431.39L771.15,437.37L773.23,441.20L777.37,442.61L783.52,436.86Z M760.07,433.24L769.97,436.74L773.26,432.22L771.47,426.44L766.95,424.47L761.56,425.87L760.07,433.24Z M599.10,425.99L598.39,430.63L600.58,434.26L605.50,435.81L610.57,433.66L612.18,428.38L609.18,423.76L603.17,422.56L599.10,425.99Z M625.16,428.57L622.40,423.43L617.39,422.24L613.04,425.00L611.41,430.01L613.29,434.10L617.91,436.11L623.37,434.11L625.16,428.57Z M620.69,422.17L614.06,422.70L611.29,428.05L613.30,433.73L618.07,435.52L623.33,432.56L624.75,426.67L620.69,422.17Z M590.73,423.79L594.60,428.04L600.47,427.64L604.15,423.04L602.71,417.34L597.93,414.88L593.15,416.01L590.73,423.79Z M353.80,398.54L359.83,397.12L362.44,393.86L361.84,389.73L358.40,387.35L349.45,390.48L348.67,394.04L353.80,398.54Z M350.45,386.40L350.62,391.87L355.58,395.21L360.89,394.13L363.90,388.99L361.85,384.21L358.05,382.45L352.91,383.29L350.45,386.40Z M141.87,368.89L142.59,373.70L146.63,376.30L152.97,375.52L155.32,371.65L154.24,367.24L150.02,363.91L145.09,363.69L141.87,368.89Z M642.33,363.24L643.53,368.52L648.41,371.81L653.09,370.58L656.01,366.46L655.41,362.10L648.88,357.87L644.58,359.31L642.33,363.24Z M629.86,361.04L629.15,367.75L633.14,370.90L641.60,368.32L640.62,361.04L634.86,359.06L629.86,361.04Z M150.95,356.89L146.36,359.21L146.24,366.75L151.50,369.50L156.33,368.80L158.98,364.70L157.64,360.01L150.95,356.89Z M630.56,352.50L623.20,352.05L620.00,354.92L619.92,359.21L625.66,363.18L630.41,362.68L633.36,356.52L630.56,352.50Z" fill="currentColor" fill-rule="evenodd"/></svg>
