<svg xmlns="http://www.w3.org/2000/svg" viewBox="0 0 1000 1000" role="img" aria-label="Map of Central African Republic"><path d="M619.31,234.92L628.16,249.26L645.67,264.50L667.34,300.08L669.13,310.74L664.97,320.19L667.43,327.10L666.56,336.20L661.50,341.90L656.88,342.80L654.52,352.16L657.12,355.86L661.07,353.50L662.60,354.88L661.75,360.54L657.38,366.69L658.78,371.17L664.37,369.73L702.44,372.36L704.46,379.26L697.51,387.95L698.47,395.41L709.46,399.86L715.52,398.28L720.53,402.24L738.14,403.90L754.01,421.43L763.68,423.41L767.51,436.03L760.51,440.94L762.06,445.80L769.77,450.98L772.45,456.01L813.27,476.92L817.26,487.19L834.84,498.11L828.23,509.68L829.42,514.52L842.86,525.74L837.71,533.94L841.15,531.94L844.98,536.51L859.25,539.53L861.86,544.91L871.80,547.10L875.17,551.67L880.54,552.68L886.34,560.30L886.27,563.99L888.95,564.47L886.32,573.86L889.16,584.06L900.00,595.75L877.47,587.56L870.60,590.78L864.81,597.79L856.99,594.29L842.47,597.18L835.61,590.92L825.53,588.81L823.82,585.40L819.64,584.14L813.32,588.39L809.95,586.06L806.21,589.61L783.71,576.96L772.67,580.95L769.25,588.68L771.79,591.37L769.24,598.12L758.32,598.96L755.05,603.08L747.82,600.64L733.88,605.20L729.20,604.46L730.21,602.75L720.58,594.73L717.27,593.48L715.50,595.95L713.40,592.56L711.24,596.23L713.53,597.89L707.28,599.91L704.99,604.44L701.95,602.81L698.47,606.12L694.60,605.03L686.09,608.27L685.94,611.36L677.87,611.18L663.86,616.52L655.29,621.12L653.22,625.35L644.05,622.62L638.16,616.27L633.91,617.90L628.88,615.50L626.44,610.33L621.59,610.99L618.86,617.92L614.71,617.10L610.88,623.01L608.79,631.47L602.84,632.58L604.15,638.71L597.82,650.00L592.44,653.49L585.12,653.86L566.63,646.71L558.43,646.90L550.44,643.70L544.12,643.65L538.23,646.71L522.92,641.24L518.18,643.82L509.91,637.41L497.38,633.83L479.53,636.20L471.69,629.17L471.94,623.46L464.74,614.18L444.21,601.68L437.28,599.98L433.22,594.13L417.54,590.53L407.75,592.06L394.68,603.17L387.79,605.70L367.57,637.09L361.49,639.77L356.73,638.81L354.61,641.58L361.02,658.97L357.74,679.71L359.79,694.08L356.35,693.29L350.33,684.51L344.68,688.06L336.63,688.03L332.53,694.05L326.43,688.74L311.73,690.18L308.73,685.40L296.08,684.49L288.24,679.80L280.61,685.34L276.02,684.88L260.68,690.30L252.02,688.86L249.88,691.24L238.02,690.89L233.63,694.85L227.36,713.84L228.91,719.32L226.14,726.11L228.20,733.60L209.85,769.96L204.37,753.70L205.60,741.92L202.47,741.28L204.67,733.57L202.23,727.22L197.47,724.67L193.56,717.46L185.70,716.84L142.75,668.85L139.14,660.20L144.37,660.57L149.18,657.91L143.14,654.29L141.46,643.70L137.18,636.31L120.22,623.43L116.65,589.96L108.13,582.18L114.11,569.55L112.43,562.58L114.94,554.57L114.11,546.74L112.10,543.14L104.81,543.31L100.00,536.01L109.05,526.69L120.33,522.50L123.59,518.77L133.41,494.59L139.67,490.49L145.90,473.92L149.04,471.25L151.27,461.45L164.07,452.67L163.26,449.79L167.03,444.44L178.52,444.87L184.02,448.61L194.25,446.60L201.47,440.69L221.56,435.23L222.87,428.37L232.46,423.04L236.48,434.79L246.78,443.33L251.16,441.71L252.80,437.67L262.51,435.85L263.76,433.75L266.36,434.91L275.49,425.95L285.80,421.30L288.70,422.17L299.33,415.95L312.75,417.46L325.72,413.84L357.52,412.07L360.54,404.06L371.23,397.97L390.29,373.37L374.71,362.62L384.03,354.24L398.22,351.60L405.32,353.30L437.20,350.47L450.69,344.00L453.44,346.14L470.64,344.81L475.05,340.17L474.37,336.62L477.17,333.48L484.90,334.69L484.10,332.17L494.60,327.53L495.54,323.44L504.22,316.08L506.47,307.18L511.70,305.57L521.00,293.13L528.19,293.29L536.71,279.26L545.47,277.22L549.30,273.33L551.28,266.22L548.49,258.81L549.54,252.35L566.77,245.78L569.52,239.99L577.34,241.28L582.04,235.16L593.94,230.04L619.31,234.92Z" fill="currentColor" fill-rule="evenodd"/></svg>
