<svg xmlns="http://www.w3.org/2000/svg" viewBox="0 0 1000 1000" role="img" aria-label="Map of Chad"><path d="M275.65,618.69L253.58,587.36L245.97,550.59L256.02,545.10L255.39,540.32L261.16,536.58L260.71,530.17L264.51,521.54L290.32,485.02L343.20,427.72L356.24,277.18L367.54,255.52L348.25,234.73L347.00,227.81L350.13,224.79L335.26,202.24L329.65,197.74L329.04,172.62L319.78,122.47L368.25,100.00L753.88,297.56L754.03,486.44L752.15,487.89L735.14,485.05L722.01,488.43L711.12,487.29L702.06,495.43L705.42,503.83L704.53,512.43L690.10,529.66L690.96,538.08L680.77,541.07L675.86,545.36L678.82,549.02L679.02,559.32L683.98,561.52L684.68,565.57L668.68,574.73L661.94,583.55L667.77,593.55L671.23,605.85L665.08,612.91L656.59,617.67L649.14,632.91L655.24,640.63L663.43,640.08L668.21,635.43L679.82,642.05L676.31,649.45L681.67,664.38L680.42,671.10L687.86,668.98L684.45,690.99L695.55,702.49L702.45,702.84L704.45,712.21L702.81,718.30L699.85,726.70L679.89,722.74L670.53,726.90L666.83,731.85L660.67,730.81L658.51,735.50L644.95,740.83L644.77,757.85L641.75,761.00L634.85,762.66L628.15,774.04L622.49,773.91L615.18,784.00L611.06,785.30L609.29,792.52L602.46,798.49L601.72,801.81L593.46,805.57L594.09,807.61L588.01,806.63L582.86,815.81L569.33,816.90L567.16,815.16L556.55,820.41L514.71,823.47L507.37,830.26L519.64,838.98L504.63,858.93L496.22,863.87L493.84,870.36L468.82,871.80L458.61,874.74L448.06,873.51L429.30,881.62L422.11,888.88L411.44,891.13L407.82,895.59L398.59,888.79L395.43,879.26L387.89,883.59L386.86,889.15L371.05,893.58L365.37,898.37L357.32,900.00L352.99,896.96L343.95,896.61L347.22,891.23L347.89,883.14L342.00,880.79L329.61,848.79L315.89,834.02L289.38,814.30L269.99,790.82L281.28,773.78L293.76,772.93L309.78,776.61L328.25,773.37L341.94,776.11L353.60,773.13L343.72,766.05L335.28,757.09L331.28,748.31L327.10,745.64L327.98,741.51L323.92,733.01L321.77,713.52L323.67,701.84L327.29,696.10L323.95,688.60L326.10,683.49L322.88,678.76L324.66,674.04L323.13,668.39L315.83,664.98L316.32,656.27L312.58,641.69L307.92,638.58L306.94,639.98L306.76,636.69L299.28,634.25L296.16,628.91L296.86,624.14L292.69,618.53L275.65,618.69Z" fill="currentColor" fill-rule="evenodd"/></svg>
