<svg xmlns="http://www.w3.org/2000/svg" viewBox="0 0 1000 1000" role="img" aria-label="Map of Chile"><path d="M807.69,100.00L811.15,109.78L814.84,111.11L816.37,129.99L825.42,140.16L821.16,146.01L823.86,150.27L823.07,153.09L819.66,154.15L821.57,158.77L820.12,160.70L824.87,164.94L823.63,170.96L829.43,178.68L834.78,210.63L839.30,212.27L846.36,210.71L849.36,214.43L843.54,235.87L828.82,243.26L823.34,251.27L826.78,258.63L822.78,265.17L826.07,279.90L822.96,286.42L827.38,298.65L823.12,301.11L819.30,300.22L813.03,317.53L805.30,326.83L802.78,341.43L798.83,345.57L799.83,361.71L802.25,363.57L800.10,368.00L796.61,367.79L795.06,381.78L790.47,384.94L789.66,392.85L791.76,398.48L795.42,400.65L793.01,402.96L799.50,420.11L797.68,426.21L803.05,430.58L800.94,438.76L802.36,448.37L798.54,449.57L793.05,467.80L789.84,469.74L792.35,471.77L793.05,486.38L787.64,490.70L787.51,493.79L782.09,495.25L779.55,502.64L781.32,508.14L779.72,520.69L785.52,538.99L783.73,542.38L776.13,545.78L774.40,560.17L770.88,560.16L772.51,566.59L769.06,572.84L771.56,575.22L766.86,583.47L768.59,588.01L767.35,602.89L770.52,611.87L765.45,613.13L763.64,622.46L763.96,631.83L770.41,634.91L766.86,640.19L770.88,643.49L769.13,646.74L771.79,650.24L768.47,654.02L768.44,659.63L779.31,660.68L780.77,663.22L777.84,668.34L764.63,668.08L764.89,670.56L772.98,672.15L777.51,678.17L774.64,682.98L770.04,684.52L770.15,690.27L772.59,692.81L767.54,696.60L770.07,698.52L771.34,707.80L766.95,710.38L766.03,715.55L768.11,718.88L765.61,718.37L763.27,722.74L760.08,723.65L757.03,733.31L760.39,736.55L761.19,742.02L755.85,745.70L756.22,751.56L749.26,755.71L747.00,762.23L741.55,762.52L739.62,766.95L741.69,772.30L740.38,779.10L744.39,782.98L746.45,792.34L753.50,789.57L761.06,790.25L761.67,796.74L759.36,799.77L761.79,802.67L758.60,809.07L766.42,815.16L766.69,817.78L800.29,818.54L825.41,824.85L812.28,822.62L808.34,824.07L804.98,829.45L785.08,833.41L787.17,834.72L784.66,837.42L783.25,854.96L778.05,857.67L764.38,853.57L758.55,847.70L761.40,844.27L764.77,846.07L762.08,848.27L764.57,848.02L765.75,844.37L768.52,843.91L769.63,848.41L765.98,850.76L769.22,850.06L770.21,848.85L770.41,843.87L780.83,837.54L776.15,833.56L776.15,835.71L765.75,841.83L761.34,839.84L756.71,840.86L762.92,842.98L757.13,843.33L759.23,844.56L757.40,846.85L755.34,845.84L760.03,850.40L744.36,842.41L750.15,842.56L754.10,845.31L752.82,842.83L755.22,842.41L750.52,841.40L751.49,839.97L750.08,835.57L753.38,834.42L754.37,833.13L755.91,834.51L754.18,836.50L758.91,836.23L763.43,831.97L774.83,831.85L773.27,830.08L760.94,829.15L759.11,831.99L756.95,830.71L759.61,828.96L751.79,828.85L749.61,833.06L752.44,830.61L754.86,831.98L749.16,835.92L749.76,840.36L747.09,841.28L746.47,839.53L746.10,841.40L741.81,838.94L745.85,836.88L740.01,834.99L745.53,834.86L744.30,833.29L749.35,830.02L747.89,828.67L750.99,828.72L746.16,827.34L744.93,832.42L742.85,829.72L742.78,831.65L737.74,833.27L741.16,828.29L738.30,827.22L739.73,822.73L737.15,819.01L744.36,823.01L749.46,819.74L748.10,823.33L751.65,823.74L753.51,819.57L751.36,822.52L750.30,819.43L752.71,817.09L757.17,823.01L750.58,827.72L757.40,827.73L755.47,826.67L758.32,822.64L754.93,817.58L758.28,816.92L758.32,814.01L748.13,806.30L745.07,807.37L756.94,813.00L754.02,815.02L744.74,810.19L749.51,814.01L747.65,813.08L748.59,814.88L745.96,815.87L750.76,815.44L745.68,820.30L743.96,812.70L742.97,811.15L744.14,821.85L738.64,815.24L742.74,818.72L739.58,813.17L741.73,811.86L737.74,813.92L735.86,811.90L737.49,810.87L734.40,810.58L734.72,805.23L739.33,810.30L736.35,802.45L738.02,803.31L737.83,800.46L734.74,802.52L732.33,799.88L730.56,801.47L731.53,796.60L728.85,798.30L728.44,796.30L733.94,794.74L736.01,796.74L736.51,790.70L741.50,790.74L737.31,788.39L740.01,785.17L736.74,787.48L735.68,792.52L732.01,793.86L727.76,786.75L730.62,789.03L730.22,786.80L734.73,788.04L730.57,785.54L732.45,784.32L728.51,785.91L728.00,782.25L725.39,784.17L721.12,780.55L726.92,778.53L729.48,782.14L735.10,782.77L729.49,780.62L726.63,775.72L734.63,778.33L732.59,776.56L734.29,773.76L731.27,775.90L726.91,772.41L731.53,771.35L727.27,770.01L731.41,767.09L737.53,771.85L730.66,764.71L731.48,761.36L735.31,763.19L732.00,757.64L735.70,756.79L731.76,756.17L728.70,766.90L725.66,763.92L724.90,756.57L726.51,750.06L727.13,750.81L731.77,750.50L727.61,750.24L726.18,747.56L729.43,744.94L732.83,747.52L732.25,744.41L734.51,743.65L728.21,742.07L724.90,735.66L722.16,735.81L725.79,734.74L729.29,739.89L727.20,735.09L734.73,737.08L736.57,735.66L740.13,740.22L743.55,739.65L744.80,737.96L744.71,736.73L741.37,737.65L738.51,732.96L740.95,734.62L745.61,735.17L739.08,732.25L737.37,725.24L736.51,730.49L734.00,731.81L720.44,729.22L723.25,728.44L723.43,725.71L726.97,727.51L724.68,728.81L729.30,730.01L727.65,728.38L730.50,728.08L728.48,727.40L732.00,726.95L730.39,726.46L731.77,725.38L727.48,726.66L723.90,723.25L727.30,718.82L729.76,718.53L730.85,721.24L730.80,718.27L733.17,719.57L731.77,717.52L733.70,714.84L730.16,713.57L730.62,710.68L722.85,708.54L724.75,709.52L721.48,711.11L724.72,712.22L721.35,711.84L719.11,709.43L715.92,709.12L714.64,706.78L717.13,702.54L712.66,706.55L709.10,706.61L706.43,707.76L704.99,709.41L708.97,708.30L709.17,712.83L705.17,711.62L704.20,707.06L712.75,699.64L714.26,700.66L715.53,700.55L714.51,697.93L719.75,697.85L721.61,689.75L725.15,693.77L726.72,689.06L731.00,690.03L729.93,696.27L731.70,693.03L733.21,695.18L727.49,698.63L724.54,697.37L727.01,698.86L731.89,697.41L731.43,700.14L735.31,700.55L732.40,697.68L734.70,696.38L736.51,700.11L732.90,705.09L737.03,704.55L743.67,693.98L737.93,700.14L738.39,692.92L742.71,687.22L746.32,686.40L743.95,685.50L739.54,688.85L740.89,682.01L745.64,678.87L749.18,681.86L752.25,681.31L745.13,677.77L741.94,678.42L744.34,675.62L742.78,672.36L753.97,667.57L756.13,662.30L756.24,658.87L754.06,662.22L746.35,656.94L747.28,654.81L744.58,654.95L747.48,653.56L749.21,647.03L752.35,647.77L751.97,645.10L748.50,645.85L750.99,643.60L747.56,640.55L748.01,637.54L750.88,635.85L751.67,631.34L753.85,632.61L752.08,621.05L757.11,621.75L752.03,615.92L756.19,613.91L759.11,619.28L758.36,609.62L753.80,610.41L751.28,608.26L761.05,602.79L761.05,597.22L759.00,603.12L755.94,604.01L750.13,599.37L747.05,605.01L740.82,606.03L736.73,604.89L741.16,599.92L736.09,601.08L733.71,590.33L737.26,579.80L737.54,567.82L741.77,565.00L743.09,566.39L742.64,562.11L745.67,556.33L740.35,535.57L741.69,527.88L738.29,521.10L738.06,513.23L739.27,509.22L741.73,511.03L745.93,509.32L745.96,501.31L747.44,497.60L749.72,499.54L752.75,484.70L756.37,480.38L755.32,476.13L762.26,466.75L765.80,446.44L772.38,433.96L770.09,424.80L773.32,422.72L776.00,409.90L773.76,406.13L770.90,373.01L772.16,365.23L776.15,363.88L778.09,357.70L777.65,347.89L774.10,338.12L779.66,326.99L782.16,311.60L784.27,310.67L783.48,301.08L786.34,297.64L788.99,283.99L787.15,273.34L792.08,263.25L789.77,246.17L792.98,226.43L791.21,224.19L788.96,225.18L789.49,219.50L790.12,215.66L792.40,216.25L794.64,212.37L798.53,181.78L795.94,168.83L797.22,148.79L792.92,117.31L800.00,115.50L803.13,109.89L802.01,103.85L807.69,100.00Z M822.42,831.71L821.78,878.50L816.77,876.38L820.58,878.71L815.08,879.80L805.38,877.17L805.73,874.46L800.98,877.09L800.01,874.14L799.62,877.44L794.34,877.51L795.42,874.39L793.41,877.44L786.84,877.55L785.53,876.45L789.08,875.28L791.94,873.24L785.88,875.67L784.11,874.88L786.58,874.24L783.73,874.04L782.35,876.23L783.62,872.88L777.97,874.13L779.59,873.10L777.02,870.81L774.66,874.36L772.83,872.14L767.04,873.68L766.07,869.60L771.59,871.95L770.32,870.68L773.07,871.39L768.61,868.68L773.41,870.68L772.56,868.60L776.31,869.57L776.72,867.81L781.30,870.68L780.39,869.11L783.27,869.81L783.60,867.10L786.14,866.62L789.31,867.10L787.37,868.95L786.74,872.53L788.92,872.55L789.74,868.18L797.32,871.39L789.86,865.77L785.43,865.52L783.93,862.41L797.22,868.95L796.18,866.72L798.93,865.39L803.26,871.60L801.86,865.88L806.88,869.13L807.47,867.07L812.19,869.24L809.23,873.03L809.90,874.24L813.57,869.48L816.29,869.80L799.27,862.41L796.53,856.57L810.18,850.08L810.31,846.63L796.12,848.98L791.60,845.66L792.51,839.46L795.44,840.50L798.02,837.36L794.48,837.44L792.56,834.18L797.36,833.64L800.98,836.05L809.23,827.79L813.86,832.63L819.89,829.81L822.42,831.71Z M619.87,444.80L625.81,442.20L626.58,436.59L622.99,431.48L618.48,431.04L614.28,434.84L613.95,440.48L619.87,444.80Z M650.73,429.64L644.34,436.40L645.96,440.07L653.66,441.11L657.24,439.21L658.27,435.28L656.08,431.87L650.73,429.64Z M847.09,893.38L841.30,893.07L837.72,896.45L840.63,903.06L846.94,904.67L849.98,902.80L851.40,899.43L847.09,893.38Z M849.42,892.21L844.52,892.51L841.19,896.73L841.10,901.18L845.61,905.23L849.88,905.64L853.34,903.11L853.98,897.17L849.42,892.21Z M831.27,899.79L839.83,903.25L844.25,900.54L843.71,895.18L835.38,894.59L831.51,896.57L831.27,899.79Z M839.38,897.61L842.38,902.89L847.89,903.51L852.45,900.33L853.26,896.05L850.62,891.81L844.05,890.73L839.38,897.61Z M849.20,898.65L845.82,889.13L842.56,888.78L837.02,892.50L835.67,896.25L838.02,899.47L845.45,901.32L849.20,898.65Z M836.90,885.75L831.57,894.50L834.06,898.48L838.69,899.28L844.52,896.32L845.35,891.30L842.79,887.04L836.90,885.75Z M797.65,888.36L799.00,893.50L802.85,894.99L810.80,891.01L810.75,886.77L805.01,882.61L800.62,882.61L797.65,888.36Z M792.26,888.57L801.08,894.06L804.41,891.27L805.88,885.52L803.75,882.26L797.30,881.32L793.03,883.73L792.26,888.57Z M852.06,880.69L845.33,882.63L843.45,887.82L845.30,891.49L852.52,892.51L856.81,889.35L856.67,884.29L852.06,880.69Z M863.36,881.67L854.84,879.72L850.60,884.39L853.37,891.09L858.21,891.70L863.02,888.21L863.36,881.67Z M852.96,876.73L846.44,876.70L843.92,882.77L850.71,887.53L854.65,887.66L857.35,884.79L857.00,880.88L852.96,876.73Z M833.48,893.23L831.26,895.70L826.99,890.77L822.60,889.36L818.45,891.39L816.77,889.36L820.20,887.80L816.68,888.72L819.52,884.80L816.42,886.39L814.15,883.95L813.96,886.03L812.19,883.52L808.88,884.24L811.40,884.37L808.54,887.24L811.52,887.51L813.50,891.58L803.04,887.24L807.85,884.51L802.04,886.24L802.13,884.37L798.99,883.95L825.53,879.61L827.31,882.17L822.84,882.25L822.61,884.04L815.17,881.80L819.76,884.31L828.32,885.66L829.10,886.95L824.55,887.36L821.86,886.23L820.44,886.52L830.45,889.29L833.48,893.23Z M834.85,885.95L837.26,885.81L830.64,885.43L829.79,880.42L826.88,879.43L844.55,879.39L848.70,882.82L845.07,887.26L841.20,884.46L838.78,886.32L834.85,885.95Z M782.19,880.73L787.51,884.20L789.59,882.92L790.40,886.09L795.70,883.63L794.83,880.85L791.67,880.65L794.91,879.34L794.01,877.97L782.19,880.73Z M800.53,879.42L800.89,882.11L813.89,880.01L804.11,877.62L800.53,879.42Z M803.62,879.39L803.64,879.45L803.63,879.46L803.62,879.39Z M792.84,873.57L785.62,874.37L783.46,880.27L793.50,882.28L796.55,879.93L796.32,876.09L792.84,873.57Z M774.13,876.16L773.17,879.78L775.71,882.07L784.45,881.65L786.70,879.50L783.54,875.81L774.13,876.16Z M761.96,878.25L768.85,880.65L772.77,876.10L771.06,870.64L763.03,868.17L759.28,871.48L761.96,878.25Z M756.67,862.20L752.09,866.78L754.11,871.74L758.10,873.94L763.97,871.68L765.24,864.21L756.67,862.20Z M787.98,860.13L786.33,863.55L788.36,867.77L794.59,870.15L798.84,868.26L800.33,864.86L797.58,860.53L792.35,858.78L787.98,860.13Z M753.57,862.25L756.88,869.44L763.34,869.08L767.09,863.00L764.20,858.48L758.67,857.68L753.57,862.25Z M738.09,864.53L749.59,865.95L750.06,858.86L744.89,856.24L739.41,857.52L737.05,860.71L738.09,864.53Z M771.84,858.19L771.01,865.42L775.05,865.47L778.79,868.66L783.92,866.09L783.50,861.55L775.57,857.87L771.84,858.19Z M760.55,857.10L764.92,868.00L770.24,868.39L773.85,862.06L773.56,857.51L766.42,855.14L760.55,857.10Z M791.68,850.90L787.49,853.84L789.29,857.09L784.36,857.38L785.70,862.50L790.45,864.77L788.54,859.12L793.89,860.66L791.68,850.90Z M730.31,847.63L729.96,852.86L733.53,856.47L740.32,854.84L743.16,850.96L741.69,846.38L737.53,843.83L733.54,843.51L730.31,847.63Z M745.89,849.24L743.48,844.32L732.75,846.80L734.15,851.32L740.71,854.63L744.64,853.37L745.89,849.24Z M757.27,861.61L749.27,861.97L753.38,860.68L751.91,859.11L755.34,857.12L752.73,856.24L748.48,856.14L747.78,860.83L744.26,859.50L745.32,854.12L739.54,854.96L741.32,853.81L739.14,852.00L750.21,853.06L745.10,852.45L742.40,849.19L748.13,850.27L746.49,847.98L748.79,847.25L749.38,849.49L750.87,848.11L751.35,853.41L751.78,848.65L754.78,853.24L754.88,850.40L758.36,851.19L758.55,854.68L763.80,855.83L759.57,856.82L760.61,860.76L757.51,859.68L757.27,861.61Z M726.67,840.18L723.25,846.34L726.13,850.52L731.46,851.21L735.02,849.07L737.21,844.25L735.75,840.71L730.86,838.84L726.67,840.18Z M736.93,833.09L732.51,837.05L733.48,839.82L745.22,840.26L746.48,837.06L744.61,834.04L736.93,833.09Z M741.75,841.98L747.90,846.63L739.66,845.84L741.16,845.27L734.72,840.42L727.41,841.24L720.20,834.13L721.46,833.41L726.73,838.13L731.48,838.13L738.92,842.27L739.01,840.46L740.80,844.66L741.75,841.98Z M741.42,826.91L736.32,833.34L738.09,837.98L743.15,839.99L748.70,837.11L750.22,831.75L746.99,827.21L741.42,826.91Z M727.46,828.91L729.37,835.55L737.42,834.92L740.81,829.12L739.80,825.62L730.25,825.41L727.46,828.91Z M713.60,823.13L720.58,830.34L725.05,829.85L727.32,822.15L724.58,819.40L716.01,818.92L713.60,823.13Z M727.10,821.18L735.61,830.29L740.32,828.18L739.86,822.00L734.01,817.71L729.83,817.83L727.10,821.18Z M723.14,819.66L728.09,828.62L731.98,829.36L736.71,824.54L726.86,817.45L723.14,819.66Z M720.44,827.45L727.37,822.39L727.83,818.11L725.02,814.86L714.95,818.02L716.13,826.33L720.44,827.45Z M728.96,813.36L723.14,813.30L719.73,817.00L720.24,822.73L724.91,826.47L730.69,824.89L733.25,820.55L728.96,813.36Z M728.55,815.06L724.32,811.81L720.52,812.87L716.29,817.13L715.89,822.15L718.65,824.79L726.17,823.04L728.66,820.67L728.55,815.06Z M727.50,818.52L737.42,826.92L741.17,824.51L739.59,818.34L734.19,813.76L730.25,813.48L727.50,818.52Z M718.74,811.29L713.93,821.56L720.20,824.64L726.58,814.29L724.72,811.63L718.74,811.29Z M721.13,815.75L720.35,809.39L715.93,807.37L711.23,809.42L708.98,815.44L712.84,821.18L718.46,819.67L721.13,815.75Z M720.78,811.62L723.73,818.32L729.74,820.95L733.42,819.07L734.67,815.25L725.50,808.88L720.78,811.62Z M740.87,816.65L741.41,811.24L736.71,806.59L731.09,806.62L728.50,809.86L730.65,817.09L735.21,819.91L740.87,816.65Z M716.18,809.83L714.20,821.39L718.01,822.00L721.77,813.63L720.60,809.77L716.18,809.83Z M726.62,808.62L724.63,813.41L726.62,815.84L733.86,818.27L737.54,816.00L736.55,809.25L732.11,804.56L726.62,808.62Z M724.05,806.87L730.80,812.21L734.37,810.78L735.69,803.23L732.72,798.98L728.19,798.30L724.73,799.82L724.05,806.87Z M719.20,804.11L712.54,800.24L709.34,802.69L707.51,808.79L708.90,813.32L713.58,813.20L718.87,807.14L719.20,804.11Z M729.29,805.96L732.21,809.69L738.24,810.51L741.99,805.95L741.23,800.29L736.18,797.34L731.01,798.98L729.29,805.96Z M713.84,804.71L712.84,808.15L717.08,810.32L726.60,805.61L725.26,800.40L721.63,798.70L713.84,804.71Z M719.42,794.51L711.66,796.79L710.10,802.31L712.36,805.80L721.86,805.14L723.11,797.06L719.42,794.51Z M729.61,797.35L725.98,793.12L721.94,793.69L717.85,797.50L718.31,802.39L726.93,806.71L730.59,803.26L729.61,797.35Z M723.51,797.11L725.58,805.39L731.89,804.08L732.99,799.96L728.88,792.72L725.06,792.69L723.51,797.11Z M715.13,795.14L717.79,801.04L725.73,801.49L728.21,799.58L728.11,793.70L724.09,790.31L721.00,789.86L719.65,793.35L715.13,795.14Z M713.99,788.34L713.24,796.61L719.16,799.56L723.46,799.12L725.87,795.54L723.18,788.00L719.56,786.13L713.99,788.34Z M709.41,789.08L709.47,795.00L713.69,798.49L719.93,797.53L721.85,793.23L720.18,786.54L714.83,784.87L709.41,789.08Z M715.19,788.05L717.89,793.80L722.94,794.77L728.28,791.06L728.50,785.01L722.61,781.40L717.22,782.85L715.19,788.05Z M704.82,792.30L707.76,796.10L712.06,796.43L717.83,786.30L714.31,783.57L707.35,783.38L704.71,786.59L704.82,792.30Z M720.30,784.31L721.85,793.26L726.14,796.53L731.92,794.95L727.55,783.96L720.30,784.31Z M718.79,791.68L726.66,788.68L728.61,785.25L727.47,781.48L717.65,780.31L714.91,785.12L715.34,789.30L718.79,791.68Z M708.73,776.15L707.09,785.06L710.49,787.16L720.70,781.35L720.59,778.42L713.92,775.74L708.73,776.15Z M706.62,764.46L702.43,774.31L704.80,776.98L715.56,776.72L715.63,771.74L711.40,765.69L706.62,764.46Z M701.61,765.77L703.52,769.72L708.82,772.25L712.31,770.89L714.33,766.56L711.57,760.22L706.98,758.26L702.67,760.77L701.61,765.77Z M707.94,759.70L717.16,765.97L719.91,764.90L721.83,758.04L720.32,754.24L713.21,752.19L710.72,753.60L707.94,759.70Z M703.09,756.84L701.46,761.81L706.25,764.96L709.13,765.04L714.72,759.41L712.07,752.19L708.02,752.38L703.09,756.84Z M704.95,758.64L714.24,759.94L715.70,756.86L713.92,751.64L710.05,749.07L702.92,751.22L701.91,755.58L704.95,758.64Z M706.35,749.61L709.42,759.51L713.47,760.30L719.30,757.23L719.65,753.24L716.49,748.67L709.09,747.01L706.35,749.61Z M715.86,774.62L708.31,762.29L713.24,766.35L710.63,761.40L713.49,763.78L714.48,763.62L712.90,762.06L715.41,761.33L714.48,760.07L717.81,763.49L719.29,758.07L716.78,756.06L718.97,754.88L716.54,755.63L715.77,753.66L718.15,752.63L715.06,752.09L721.09,749.24L722.12,752.89L723.64,749.79L725.28,762.21L722.62,770.77L725.54,769.61L723.77,771.47L724.80,775.58L722.50,774.89L723.77,776.63L719.89,777.85L718.43,776.56L721.36,775.24L717.47,775.19L720.56,773.47L717.99,772.51L717.83,768.71L720.90,769.20L717.91,767.04L721.93,763.19L716.23,765.89L716.67,772.26L715.86,774.62Z M713.85,743.20L706.71,751.28L707.81,754.63L716.72,756.50L719.92,751.40L719.58,746.79L713.85,743.20Z M712.92,744.10L710.81,752.93L715.35,755.60L721.70,753.18L724.02,749.81L723.17,745.81L719.68,743.67L712.92,744.10Z M710.95,744.11L702.79,746.57L702.32,754.09L707.90,755.25L713.74,753.23L714.62,747.14L710.95,744.11Z M702.77,750.95L708.91,753.30L712.28,751.51L714.60,747.18L713.38,741.30L702.80,741.55L700.70,746.58L702.77,750.95Z M727.74,750.83L732.40,747.38L732.78,743.82L726.55,738.56L721.17,739.27L719.07,742.41L720.95,748.59L727.74,750.83Z M736.03,747.47L736.92,742.37L734.42,739.26L727.86,737.52L724.09,739.91L723.16,743.29L727.27,749.10L732.89,750.19L736.03,747.47Z M721.93,746.37L730.15,749.02L733.59,745.48L729.72,736.77L725.34,736.72L720.05,740.65L721.93,746.37Z M720.54,736.63L714.63,744.91L715.05,747.96L725.08,749.50L720.54,736.63Z M717.92,738.52L720.97,745.92L724.99,746.52L730.04,743.89L731.38,739.74L723.34,732.71L719.27,734.76L717.92,738.52Z M708.81,735.54L714.83,747.34L720.18,745.27L722.35,739.20L720.75,735.99L712.57,733.53L708.81,735.54Z M714.83,747.50L712.28,749.80L710.72,742.35L706.77,743.35L710.25,741.36L706.95,741.79L708.78,739.23L707.01,739.79L706.83,736.24L710.37,735.45L714.83,747.50Z M709.24,736.64L721.66,739.50L721.03,729.19L711.13,731.58L709.24,736.64Z M726.41,730.56L723.15,733.11L726.93,735.80L736.70,734.41L735.74,730.93L726.41,730.56Z M705.97,730.53L713.50,736.09L719.51,732.66L716.29,724.60L707.12,726.58L705.97,730.53Z M720.53,724.30L712.21,724.01L709.72,727.89L712.71,734.06L717.60,735.77L722.80,733.11L723.49,728.74L720.53,724.30Z M719.44,718.53L723.81,723.12L728.60,722.05L732.97,716.19L730.69,711.30L724.31,710.24L719.31,714.42L719.44,718.53Z M729.86,710.16L725.17,712.89L724.23,718.16L730.49,722.72L737.99,715.95L734.73,710.61L729.86,710.16Z M728.97,695.87L737.12,702.40L740.31,700.57L742.85,695.92L741.48,691.98L732.70,689.13L728.97,695.87Z M740.10,686.65L734.39,685.97L731.14,689.27L730.73,696.25L734.75,699.08L742.15,697.80L743.65,692.62L740.10,686.65Z M713.33,687.20L711.52,697.16L717.06,699.30L722.07,696.53L724.37,689.01L720.78,685.75L713.33,687.20Z M738.59,684.49L729.91,688.46L728.82,692.80L730.84,696.73L734.16,697.73L742.47,692.68L741.58,687.30L738.59,684.49Z M727.10,692.34L730.06,696.30L736.78,694.61L739.19,688.07L737.37,684.16L733.23,682.93L727.09,685.18L727.10,692.34Z M715.28,680.29L712.14,684.96L713.63,689.59L719.06,693.06L723.94,691.75L726.05,687.95L723.56,681.70L719.71,679.28L715.28,680.29Z M721.29,679.80L716.30,684.21L716.03,689.05L718.51,692.54L723.49,693.13L727.81,689.94L728.67,685.53L725.01,679.56L721.29,679.80Z M729.09,691.53L735.86,691.96L739.19,687.53L736.19,680.14L730.79,678.91L727.04,681.57L725.99,686.92L729.09,691.53Z M721.26,686.07L721.92,690.59L725.05,692.41L731.71,688.71L732.88,685.60L729.35,679.48L724.36,678.67L721.26,686.07Z M732.84,684.36L735.44,690.91L739.37,691.75L742.44,689.08L743.24,682.29L740.76,678.70L735.82,678.94L732.84,684.36Z M739.76,680.85L729.88,677.52L727.70,679.77L726.49,686.44L729.17,688.69L738.72,686.19L739.76,680.85Z M727.95,688.78L730.43,680.13L727.95,676.90L722.66,676.70L718.44,681.17L719.14,686.92L723.99,690.17L727.95,688.78Z M740.95,680.17L739.25,676.46L731.72,675.27L727.45,678.63L727.34,682.66L731.78,686.41L736.19,686.45L740.95,680.17Z M725.59,673.30L719.37,676.26L719.27,681.03L722.17,684.62L727.51,686.04L732.30,682.80L732.03,678.07L725.59,673.30Z M735.52,674.33L727.91,674.62L727.04,680.83L732.93,683.76L739.61,681.45L739.13,676.57L735.52,674.33Z M730.89,672.20L724.33,670.72L721.08,674.07L723.58,682.92L728.41,684.25L732.30,681.10L733.35,675.23L730.89,672.20Z M740.07,675.39L734.65,670.09L727.87,671.72L726.48,676.13L736.47,680.94L740.07,675.39Z M723.67,671.46L724.28,675.01L726.94,676.13L734.65,675.12L737.45,671.88L735.14,668.01L730.74,666.57L723.67,671.46Z M737.51,665.66L728.48,663.58L725.20,665.96L724.68,669.98L729.19,674.11L733.82,674.14L738.33,669.87L737.51,665.66Z M729.43,670.31L733.30,676.10L738.84,675.78L741.54,672.37L739.70,665.70L736.54,662.98L731.01,664.52L729.43,670.31Z M709.03,672.74L714.42,676.24L719.39,674.30L720.98,670.02L719.00,665.15L713.19,662.34L709.67,664.00L707.39,667.98L709.03,672.74Z M738.81,661.52L733.01,663.32L731.16,667.77L733.75,673.35L739.58,674.88L744.99,668.50L743.66,663.45L738.81,661.52Z M732.64,668.46L727.98,662.11L722.37,662.29L719.08,665.33L719.37,669.80L723.84,674.28L728.72,674.36L732.64,668.46Z M718.21,661.52L716.33,665.87L720.68,670.88L727.70,670.69L729.93,667.67L729.64,662.91L726.49,660.47L718.21,661.52Z M724.20,667.78L729.25,670.89L735.64,668.59L736.92,664.90L734.18,662.37L726.12,662.31L723.56,664.38L724.20,667.78Z M714.64,660.06L713.34,664.90L716.06,670.49L724.29,669.64L726.11,665.08L724.17,659.77L718.58,657.56L714.64,660.06Z M730.82,664.24L733.09,670.33L738.12,671.94L743.79,668.91L743.23,662.31L739.89,658.58L734.31,659.14L730.82,664.24Z M729.04,657.02L723.69,658.92L721.57,662.45L723.51,667.18L728.31,668.77L734.46,666.27L735.53,663.01L733.24,658.68L729.04,657.02Z M725.56,663.14L728.69,667.58L734.04,668.24L737.83,666.06L738.59,661.76L731.24,655.74L727.23,656.33L725.56,663.14Z M725.23,656.74L720.10,658.77L719.42,662.06L720.91,665.81L725.32,667.43L732.96,663.29L732.22,658.32L725.23,656.74Z M739.61,655.63L733.48,653.58L729.64,656.10L728.37,661.72L730.85,665.92L736.15,667.35L740.38,665.44L742.12,661.70L739.61,655.63Z M740.86,664.96L744.59,671.90L747.19,671.49L754.72,662.37L749.53,658.55L745.00,660.18L744.23,663.72L740.86,664.96Z M743.57,661.82L743.57,656.12L740.67,653.63L734.60,654.10L731.12,656.87L730.57,661.28L735.12,665.89L739.11,666.60L743.57,661.82Z M725.65,656.93L728.59,664.47L734.43,666.56L737.60,664.98L739.36,659.78L738.32,655.91L731.83,653.23L725.65,656.93Z M746.75,665.56L751.37,662.80L752.39,658.97L749.59,654.08L745.35,652.21L741.06,653.95L738.42,658.77L740.44,663.66L746.75,665.56Z M735.53,652.51L729.55,653.71L727.70,657.46L729.76,662.22L734.74,663.99L740.88,661.08L741.45,656.62L735.53,652.51Z M720.99,654.13L720.53,660.42L725.08,663.65L730.89,663.16L733.44,660.23L733.43,655.55L728.40,651.20L720.99,654.13Z M733.13,662.72L737.60,664.32L744.29,659.02L744.08,654.89L740.28,650.94L733.46,652.37L730.54,657.46L733.13,662.72Z M727.59,651.95L726.06,658.36L729.37,662.73L733.01,663.73L738.77,659.62L739.54,655.75L737.33,652.47L730.55,649.86L727.59,651.95Z M727.38,648.99L721.61,651.44L720.39,655.81L723.43,660.40L728.60,661.47L733.93,657.56L733.45,652.23L727.38,648.99Z M735.97,648.93L730.24,649.58L726.99,654.58L728.91,658.91L733.27,661.11L738.28,660.31L740.63,657.07L740.22,652.32L735.97,648.93Z M728.81,658.59L734.07,656.15L735.49,652.05L733.91,648.01L728.91,645.83L723.30,648.01L721.54,653.16L724.01,657.45L728.81,658.59Z M732.03,651.50L735.42,658.55L739.98,659.22L743.73,655.71L742.55,648.63L738.33,645.54L734.39,646.54L732.03,651.50Z M752.48,651.83L750.96,645.61L747.73,643.79L739.69,647.87L739.27,652.34L743.62,657.12L750.50,656.38L752.48,651.83Z M726.90,646.95L726.82,651.01L731.68,653.92L739.08,652.20L740.29,649.96L735.49,643.23L726.90,646.95Z M715.92,647.76L724.82,648.57L728.16,643.56L726.80,640.66L721.90,637.47L715.54,639.33L714.20,643.02L715.92,647.76Z M737.20,634.14L743.54,635.70L747.28,633.72L748.12,629.58L742.33,624.80L737.48,624.99L734.71,627.58L737.20,634.14Z M738.40,616.51L732.51,618.78L731.07,622.37L732.79,626.80L738.83,629.16L742.73,627.89L744.99,623.11L743.38,618.12L738.40,616.51Z M746.61,618.15L740.67,613.01L733.87,616.31L734.45,621.17L741.59,626.82L745.37,625.93L747.38,622.60L746.61,618.15Z M747.81,609.92L742.09,610.93L740.23,614.58L745.37,622.41L753.62,618.68L753.73,613.67L747.81,609.92Z M763.72,612.92L760.48,606.28L755.71,605.21L751.27,608.22L749.87,613.66L753.53,617.92L759.28,618.87L763.72,612.92Z M727.14,636.81L730.53,624.55L731.65,606.08L736.57,608.07L739.99,606.06L743.09,615.92L738.30,617.50L739.21,620.78L735.65,620.83L741.21,627.17L737.60,628.19L741.03,633.61L736.47,633.41L738.25,638.53L735.27,639.77L727.14,636.81Z M747.88,612.74L752.99,611.51L755.09,608.23L753.61,602.11L749.77,598.95L744.57,600.08L742.10,604.78L743.74,610.96L747.88,612.74Z M747.13,875.92L754.87,872.97L755.93,868.75L753.42,864.73L747.69,863.94L742.25,868.43L742.92,873.32L747.13,875.92Z M788.01,866.25L794.17,868.18L798.92,865.45L799.41,860.29L797.15,856.81L793.06,856.08L786.54,859.16L788.01,866.25Z M784.96,842.55L790.95,841.71L794.67,836.89L790.90,830.65L784.17,832.00L781.07,835.28L781.40,839.77L784.96,842.55Z M720.75,825.75L719.13,831.81L722.14,835.45L728.77,836.81L732.07,833.88L732.33,829.46L729.12,824.29L724.29,823.27L720.75,825.75Z M725.98,819.41L721.53,819.86L718.18,826.65L720.17,831.08L725.78,833.04L729.63,830.12L730.29,825.53L725.98,819.41Z M739.62,811.00L730.75,810.85L728.84,817.26L737.62,823.17L741.27,821.26L742.20,815.12L739.62,811.00Z M727.49,798.61L720.18,803.12L722.28,810.84L730.94,811.30L733.47,807.78L732.32,801.83L727.49,798.61Z M713.66,779.07L709.02,784.27L709.05,788.52L714.66,791.25L719.30,789.40L722.52,782.94L718.40,778.27L713.66,779.07Z M720.99,762.74L721.95,772.18L724.93,773.71L730.51,771.65L732.90,768.06L731.63,763.93L726.44,759.83L720.99,762.74Z M717.62,727.18L716.00,733.75L719.44,738.51L727.84,736.42L729.59,732.22L728.17,727.47L722.72,725.31L717.62,727.18Z M708.18,712.74L716.02,714.30L718.98,710.33L717.54,704.88L712.23,702.47L705.91,705.35L705.38,709.56L708.18,712.74Z M722.67,636.12L722.27,642.06L725.44,645.30L731.84,645.02L734.69,641.70L734.45,636.53L731.21,632.67L726.17,632.50L722.67,636.12Z M731.09,636.61L734.01,640.88L739.17,642.41L743.01,640.48L744.85,635.54L743.33,630.86L737.78,628.55L732.35,630.85L731.09,636.61Z M745.25,620.38L743.07,624.33L745.28,630.15L749.06,632.67L754.13,631.27L756.54,625.65L753.81,620.33L750.11,618.83L745.25,620.38Z M742.11,629.08L749.37,628.22L751.42,623.16L749.52,618.89L743.61,617.21L739.54,618.66L737.49,622.47L738.53,626.66L742.11,629.08Z M738.51,529.71L732.47,527.44L728.34,530.29L727.83,535.29L731.48,540.70L735.97,541.08L739.73,538.52L740.66,533.82L738.51,529.71Z M743.13,512.56L747.69,508.67L746.73,503.73L741.23,499.59L736.63,501.17L734.85,507.84L737.09,512.29L743.13,512.56Z M145.89,294.67L137.43,296.37L136.30,304.25L139.08,306.65L146.22,305.21L149.30,301.71L148.98,297.07L145.89,294.67Z M213.88,283.98L210.92,280.46L206.45,279.57L201.85,282.18L200.44,287.28L203.25,292.03L208.94,293.32L213.58,289.80L213.88,283.98Z M634.99,291.13L639.75,288.54L641.18,283.55L637.85,278.33L631.67,277.93L627.89,281.39L627.47,286.18L630.30,290.07L634.99,291.13Z M626.30,277.40L623.89,282.52L625.95,287.52L630.99,289.47L635.46,287.85L637.75,284.00L637.09,279.38L632.19,275.69L626.30,277.40Z" fill="currentColor" fill-rule="evenodd"/></svg>
