<svg xmlns="http://www.w3.org/2000/svg" viewBox="0 0 1000 1000" role="img" aria-label="Map of China"><path d="M176.49,522.66L168.23,519.31L166.88,510.82L170.22,505.82L161.32,500.80L158.03,487.01L143.26,485.56L138.31,480.48L133.46,482.01L129.98,477.92L131.48,475.26L129.32,468.67L123.86,467.43L122.31,464.16L116.54,464.50L110.13,461.01L120.36,456.65L116.79,453.49L116.06,439.88L109.50,436.51L102.73,437.79L100.32,424.08L104.10,421.96L102.76,418.71L104.82,414.62L116.41,410.12L116.06,407.17L120.74,408.29L125.53,405.25L127.13,410.67L134.48,408.29L135.39,409.85L142.55,399.20L158.43,398.78L166.06,390.94L186.63,382.97L185.49,373.25L190.78,369.53L188.42,367.15L193.98,365.22L188.04,349.76L188.26,341.31L190.04,340.12L181.75,337.32L205.39,330.26L209.11,333.49L212.97,332.10L216.82,333.82L218.03,329.18L213.58,327.31L223.13,300.71L234.69,304.40L244.60,304.24L245.60,306.93L255.52,303.16L257.88,299.61L255.74,289.35L258.40,282.37L269.47,279.69L273.32,270.50L285.84,269.54L284.81,274.25L289.02,276.82L288.02,279.29L294.82,281.83L301.92,288.19L308.41,287.58L311.15,290.87L314.98,289.99L318.91,293.51L328.10,310.88L326.12,315.08L327.51,319.54L322.92,327.95L325.82,332.83L360.51,336.56L375.85,346.23L385.00,347.23L383.97,351.42L386.80,352.37L391.23,363.67L397.56,371.98L465.14,374.95L471.80,380.57L493.48,387.33L504.06,385.56L504.12,388.96L510.25,390.08L533.71,378.94L569.25,376.36L581.31,371.28L588.72,362.58L601.28,356.52L594.26,345.53L601.60,334.45L623.14,339.93L635.29,329.66L650.11,328.56L656.69,324.51L661.90,315.26L671.96,314.20L672.70,310.80L677.98,311.61L691.70,307.71L697.85,310.16L704.88,309.39L702.86,301.44L687.72,288.61L677.58,288.19L672.26,293.63L665.22,290.04L657.66,290.26L653.35,293.10L648.11,285.98L651.85,284.22L651.85,279.64L663.42,259.08L678.49,264.08L689.05,256.99L697.84,254.80L698.37,250.85L695.50,250.03L708.10,229.87L716.97,222.59L714.97,218.95L716.25,215.84L707.82,215.08L707.21,212.36L718.22,204.10L754.06,199.60L770.48,206.84L773.14,205.18L780.31,207.57L780.64,210.39L786.41,212.13L785.14,215.13L792.53,222.38L791.01,224.49L797.15,234.14L795.84,235.77L797.98,235.21L797.45,239.35L802.10,244.32L802.66,251.05L806.06,252.95L805.38,259.61L809.52,262.87L820.21,262.45L826.01,266.63L830.78,265.47L840.22,274.04L846.40,274.23L844.51,278.28L848.37,283.02L846.40,287.06L850.96,293.13L870.60,292.73L872.56,288.86L878.02,286.38L883.67,286.56L894.95,282.01L899.30,283.89L897.21,287.93L900.00,292.68L892.30,298.77L888.62,315.77L885.81,317.63L883.06,325.81L879.17,327.94L878.11,334.08L875.79,335.35L861.81,330.42L856.33,336.41L849.79,338.31L854.12,350.83L852.76,359.12L854.33,361.55L852.00,369.02L842.90,371.81L845.06,373.61L844.52,375.07L840.70,369.15L836.00,367.66L833.70,376.47L828.95,376.42L823.71,382.94L811.87,383.60L815.38,390.13L813.33,393.42L800.10,391.10L797.42,386.67L794.15,387.70L792.09,393.81L785.36,401.01L770.81,407.62L760.90,417.82L754.61,416.59L751.62,419.66L749.32,418.22L748.94,420.40L736.74,425.63L731.26,432.00L729.34,430.73L727.55,432.17L728.97,433.39L722.21,435.65L721.40,432.11L728.68,429.81L727.58,427.01L732.20,424.86L726.74,425.41L722.78,422.81L726.84,421.32L726.02,418.33L731.29,415.45L736.89,407.32L730.99,402.07L731.21,399.47L729.54,401.81L724.59,400.37L719.63,402.16L712.96,411.90L700.71,417.05L696.43,422.16L697.36,425.11L692.74,429.14L684.89,430.72L680.99,427.72L676.90,429.44L674.65,437.24L676.91,441.10L681.48,444.84L693.05,445.57L697.10,451.64L693.31,453.58L693.20,458.32L695.61,460.18L703.78,460.61L711.00,452.96L709.60,452.14L716.44,449.76L727.32,456.21L732.79,456.25L734.54,454.07L735.34,456.37L741.94,456.50L738.20,462.68L740.01,462.58L739.58,464.64L737.13,465.84L735.11,462.80L733.37,464.64L731.98,463.12L728.04,467.15L725.87,465.75L720.17,469.64L716.60,469.12L719.21,471.62L716.12,472.11L714.99,477.07L711.41,478.28L710.79,474.57L708.05,475.33L710.69,479.35L702.18,485.54L696.23,494.82L696.22,499.31L699.49,498.87L710.15,505.78L718.50,526.42L717.64,531.45L724.96,536.42L725.66,540.72L731.92,546.45L723.61,544.28L719.57,545.50L715.08,541.32L708.50,543.45L701.72,536.90L701.63,539.41L706.87,543.33L709.79,543.99L712.92,542.14L716.60,542.89L716.35,545.50L721.75,547.56L732.30,558.73L732.42,560.45L719.84,565.48L717.66,569.50L715.91,568.09L713.05,567.93L712.41,568.15L711.74,570.00L710.16,569.61L708.71,571.19L711.81,570.38L712.68,568.49L714.91,568.43L715.05,572.40L717.15,573.30L715.24,572.33L716.61,570.76L723.19,568.81L729.30,574.98L734.63,575.88L725.66,581.92L726.20,584.04L732.57,580.82L732.20,587.14L730.13,587.58L730.15,584.30L729.34,587.36L727.37,585.40L725.21,587.69L728.88,589.98L726.29,591.39L727.99,594.46L721.72,592.71L726.53,595.71L728.45,600.76L725.21,601.31L724.39,603.85L722.07,600.04L719.41,606.36L714.10,604.37L718.14,608.03L715.09,609.92L713.56,618.86L709.34,617.33L712.30,619.73L707.20,623.66L708.46,625.29L708.54,627.69L704.78,629.64L707.83,625.29L705.21,627.55L704.77,624.41L703.19,626.87L700.92,626.05L701.55,628.90L703.97,628.78L704.06,631.39L701.11,630.73L702.62,632.92L706.13,632.16L702.26,633.64L699.70,638.25L694.93,635.65L698.02,638.85L702.80,637.93L701.42,642.94L699.58,642.94L702.26,648.18L697.70,644.26L695.04,647.19L698.21,650.02L695.00,652.10L694.06,649.45L692.08,649.99L693.93,654.50L688.11,655.70L690.60,657.65L688.74,661.10L686.26,658.65L683.49,661.16L682.72,658.75L680.91,662.69L677.89,662.34L682.28,665.61L677.33,671.25L677.98,669.43L676.27,668.78L675.28,673.96L675.01,671.31L672.99,670.62L673.95,672.44L671.17,673.24L670.91,675.89L666.45,675.14L664.58,680.12L661.31,679.02L664.99,681.93L661.12,681.96L660.94,686.64L657.26,685.95L651.98,689.72L650.94,686.73L646.70,686.87L649.39,687.85L648.91,690.96L644.44,689.05L645.36,687.22L641.19,690.62L639.59,689.45L640.03,692.88L638.03,691.89L638.45,688.61L635.13,690.36L635.05,694.39L633.48,691.83L626.87,694.38L622.14,685.51L626.08,683.81L620.69,684.14L621.56,686.88L618.01,687.20L623.06,692.44L621.55,699.12L617.39,692.43L620.48,698.73L617.29,701.19L616.34,698.28L614.07,703.87L612.95,702.12L609.35,705.20L607.35,700.49L605.89,706.22L600.71,702.78L602.15,705.17L600.42,706.73L597.94,705.06L599.37,707.69L597.31,709.06L594.72,707.90L592.56,710.50L589.43,708.89L581.63,714.44L580.68,710.56L581.21,714.68L578.04,719.89L580.81,719.89L579.92,722.94L582.98,725.79L579.65,729.37L574.91,729.59L574.19,726.93L576.12,726.49L571.56,718.64L575.26,709.65L571.41,709.21L570.68,705.62L569.85,709.67L564.72,711.10L564.68,707.90L561.97,707.71L561.92,705.29L560.31,704.47L559.58,707.90L557.33,702.35L555.99,708.55L554.29,705.95L553.54,708.82L552.53,707.27L549.45,710.62L547.37,707.19L541.30,707.96L536.87,702.74L532.21,702.08L530.56,694.61L534.00,688.91L525.40,686.08L521.76,687.20L514.67,679.86L508.89,683.08L506.68,688.57L501.96,690.67L498.65,689.00L496.98,693.52L492.89,688.88L491.02,692.34L488.48,689.05L484.81,694.74L477.47,689.36L474.21,695.05L467.29,693.97L465.02,697.68L468.79,707.53L468.16,715.21L461.47,714.42L459.36,705.29L453.33,710.03L447.32,710.55L444.44,700.86L434.00,699.14L436.79,693.70L436.14,689.73L439.15,686.85L436.48,683.62L430.27,682.83L427.65,670.39L430.36,667.46L420.41,668.16L414.13,672.21L412.71,670.69L415.37,667.43L412.92,658.27L415.96,656.50L416.43,650.09L419.62,648.91L420.87,644.15L423.12,645.01L428.06,640.11L426.17,636.29L428.26,635.19L428.92,628.03L427.92,612.88L424.40,611.18L422.89,613.53L420.59,603.92L414.73,598.03L412.86,597.74L410.19,602.70L406.98,600.19L396.82,599.47L400.63,594.11L398.86,590.34L395.43,591.19L397.67,586.16L394.73,584.40L389.54,584.84L384.60,589.68L374.56,585.22L365.77,595.30L357.79,596.56L356.36,600.74L349.43,604.04L349.50,607.58L339.93,610.54L331.27,604.71L328.16,606.75L320.62,605.01L322.09,602.45L317.35,600.46L308.66,604.02L301.04,613.63L300.95,617.10L298.18,615.14L298.94,606.24L296.23,604.48L289.79,608.37L279.99,609.28L270.98,604.48L267.65,607.59L264.12,603.67L261.82,607.99L258.07,600.83L250.15,601.32L251.11,596.70L246.54,597.54L241.82,594.49L237.10,586.17L229.69,587.34L225.11,580.37L211.78,573.43L210.93,569.10L201.75,568.40L201.26,571.85L197.96,574.08L196.37,570.29L185.96,565.45L185.66,561.74L175.78,558.07L172.25,551.47L167.19,553.55L167.19,543.11L162.48,533.83L167.08,532.53L169.79,537.03L178.64,530.95L174.89,526.73L176.49,522.66Z M588.21,733.47L589.52,739.08L586.38,739.73L582.26,746.60L582.98,752.71L576.44,757.06L576.52,759.12L572.67,758.90L570.25,762.51L558.79,757.01L558.03,744.92L566.93,737.99L565.05,737.77L566.25,735.01L570.52,735.69L572.31,733.22L575.86,734.89L578.04,732.32L581.45,734.61L581.00,732.10L583.91,734.61L584.86,730.79L588.21,733.47Z M596.33,702.81L594.50,711.05L597.50,713.83L604.07,713.03L607.90,707.61L606.06,702.87L601.72,701.35L596.33,702.81Z M607.99,700.64L603.61,704.86L603.53,710.60L606.82,713.65L611.30,713.61L615.80,710.56L616.67,705.80L613.70,700.91L607.99,700.64Z M606.92,708.78L609.81,713.18L613.81,713.48L617.13,711.39L618.26,703.06L612.15,699.73L607.13,702.97L606.92,708.78Z M623.68,694.84L615.58,695.88L612.95,700.93L614.27,705.07L619.20,707.66L624.30,706.55L626.93,700.89L623.68,694.84Z M617.19,693.39L613.18,696.70L612.60,701.24L614.85,705.29L619.71,706.70L624.96,703.27L625.93,696.84L622.32,693.18L617.19,693.39Z M621.22,681.56L616.30,683.34L614.71,687.28L618.40,693.46L622.66,695.25L628.64,690.39L626.17,684.06L621.22,681.56Z M665.66,684.51L672.96,683.75L674.97,677.84L672.47,673.24L667.28,672.54L661.40,676.77L661.73,681.63L665.66,684.51Z M666.94,674.19L668.50,680.95L672.25,681.99L677.47,679.82L679.86,674.60L678.89,670.74L673.55,668.14L669.72,668.73L666.94,674.19Z M691.15,638.57L697.91,643.93L703.00,642.41L704.64,637.36L702.07,633.23L694.92,630.89L691.31,633.88L691.15,638.57Z M725.62,609.41L728.94,602.64L726.91,598.76L722.71,597.09L717.64,599.91L716.05,605.46L719.27,610.46L725.62,609.41Z M740.98,566.07L737.25,563.12L733.12,563.52L728.38,567.59L728.41,571.93L731.40,575.08L737.16,576.21L740.87,573.26L740.98,566.07Z M739.71,561.28L733.25,561.68L730.64,565.91L731.68,571.00L735.50,573.35L741.67,572.85L744.25,569.43L743.59,564.49L739.71,561.28Z M729.71,546.24L724.66,549.59L724.44,555.12L727.80,559.39L731.92,560.04L736.16,557.28L737.74,552.99L735.44,548.13L729.71,546.24Z M699.00,541.11L701.52,545.36L707.14,546.51L710.33,543.77L710.58,539.57L707.38,533.70L702.87,532.82L699.04,534.62L699.00,541.11Z M736.49,435.01L742.54,433.48L744.68,428.68L743.29,423.81L739.71,421.52L732.85,423.70L730.68,428.51L732.32,432.89L736.49,435.01Z M736.91,431.70L741.59,434.44L746.47,432.57L748.93,428.05L747.88,423.94L741.64,421.10L736.71,423.12L734.97,427.05L736.91,431.70Z M744.46,421.81L736.59,421.47L734.06,424.53L736.61,431.52L742.20,432.86L746.56,430.53L747.56,425.67L744.46,421.81Z M720.79,419.02L717.63,423.60L718.60,428.36L723.96,430.96L729.47,429.31L731.01,421.73L726.19,418.12L720.79,419.02Z M742.49,428.76L747.27,429.70L751.45,427.06L752.92,421.47L749.35,416.92L744.04,416.24L740.01,419.62L739.28,424.72L742.49,428.76Z M579.19,713.69L576.75,718.85L579.17,723.87L584.32,725.71L589.01,722.90L590.57,717.38L588.04,713.33L583.24,711.77L579.19,713.69Z M574.84,715.23L575.87,721.48L582.18,723.47L587.62,719.71L587.84,715.08L584.75,711.52L578.51,711.43L574.84,715.23Z M582.38,708.81L576.65,711.59L575.86,715.74L579.79,720.46L584.06,721.43L588.72,717.71L589.63,713.26L586.99,709.56L582.38,708.81Z M675.83,660.74L678.58,667.67L683.80,668.77L687.40,666.26L689.02,661.05L683.50,655.17L678.94,655.68L675.83,660.74Z M697.93,644.78L700.99,651.66L705.45,652.05L709.92,646.42L709.69,643.01L704.25,638.44L699.98,640.07L697.93,644.78Z M737.82,585.43L734.08,581.80L728.91,582.18L725.75,585.04L725.46,590.46L730.01,595.10L735.10,594.65L738.26,590.25L737.82,585.43Z M727.45,578.34L734.70,585.76L739.18,584.12L741.25,580.41L739.51,574.79L735.22,571.84L730.25,573.42L727.45,578.34Z M738.37,569.06L733.50,570.31L731.32,573.69L732.66,579.60L736.59,582.85L741.61,581.92L744.13,577.48L742.74,571.05L738.37,569.06Z M725.24,570.90L727.42,579.59L731.70,580.80L736.33,578.07L737.90,574.24L735.93,569.29L732.29,566.97L728.03,567.61L725.24,570.90Z M729.23,576.77L738.59,579.65L741.64,575.32L740.46,570.56L734.24,567.45L729.02,569.01L727.87,572.56L729.23,576.77Z M734.15,548.92L724.08,543.51L720.43,546.02L726.70,551.65L734.07,551.87L734.15,548.92Z M598.71,800.47L595.70,794.65L589.28,793.90L585.25,797.73L585.26,803.13L589.30,806.94L595.71,806.18L598.71,800.47Z M597.76,789.41L592.01,795.58L593.33,800.42L597.52,803.10L602.42,802.30L605.57,798.57L605.54,793.81L602.45,790.19L597.76,789.41Z M571.26,716.16L568.98,711.40L564.51,709.71L560.05,711.41L557.43,715.86L558.38,720.39L562.53,723.39L566.94,723.28L571.26,716.16Z M711.85,453.57L716.83,455.53L721.29,453.70L723.43,448.94L721.39,443.47L715.85,441.63L710.95,444.17L709.49,449.05L711.85,453.57Z M709.45,451.99L714.31,454.72L719.26,453.19L721.74,448.24L719.63,442.59L713.86,440.84L709.47,443.19L707.84,447.59L709.45,451.99Z M713.83,440.85L709.93,443.91L709.11,448.58L711.96,452.99L717.78,454.29L722.39,450.50L722.22,444.54L718.52,440.98L713.83,440.85Z M711.57,448.81L716.77,451.36L721.55,449.51L723.67,444.85L721.93,440.03L716.89,437.37L712.02,439.04L709.74,443.65L711.57,448.81Z M724.34,440.68L720.93,436.16L715.41,435.73L711.49,438.79L710.62,443.34L712.85,447.39L717.54,449.09L723.02,446.56L724.34,440.68Z M724.66,437.23L721.10,434.34L716.53,434.32L712.42,437.94L712.25,443.42L716.36,447.37L721.97,447.12L725.52,442.77L724.66,437.23Z M746.17,423.64L742.13,426.93L741.63,431.64L744.21,435.94L748.21,437.25L752.63,435.48L754.79,428.48L751.29,423.93L746.17,423.64Z M602.72,792.57L603.92,787.81L601.63,783.42L596.06,781.66L591.13,784.78L590.33,790.57L593.54,794.67L598.54,795.43L602.72,792.57Z M614.83,780.20L608.84,780.01L604.96,784.50L606.05,790.55L611.51,793.36L617.10,790.84L618.53,784.97L614.83,780.20Z M610.61,778.15L605.90,776.78L601.54,778.78L599.52,783.13L600.70,787.74L604.46,790.47L609.10,790.22L612.73,786.91L613.28,782.14L610.61,778.15Z M606.13,789.27L611.02,787.70L613.51,783.21L612.22,778.14L607.77,775.40L602.59,776.58L599.64,781.33L601.14,786.72L606.13,789.27Z M586.93,718.75L578.01,717.51L575.24,721.19L576.15,726.85L580.10,730.24L585.51,729.47L588.66,723.45L586.93,718.75Z M622.69,697.52L616.74,696.22L612.48,699.95L611.90,704.83L614.68,708.66L620.45,709.72L624.72,705.69L625.08,700.87L622.69,697.52Z M624.59,694.89L619.08,698.17L618.61,704.14L622.48,708.26L628.38,708.06L631.95,702.76L630.24,696.98L624.59,694.89Z M629.25,694.89L625.04,698.97L625.07,703.46L628.06,706.81L633.76,707.05L638.61,701.24L637.35,696.63L633.62,694.26L629.25,694.89Z M615.25,702.11L618.87,706.38L624.86,706.14L628.63,701.98L627.77,696.44L623.04,693.13L618.04,694.40L615.25,702.11Z M617.24,692.13L617.08,697.48L620.08,701.11L624.35,701.90L628.67,699.35L630.37,693.85L627.10,689.10L621.20,688.34L617.24,692.13Z M620.25,684.30L616.34,687.24L615.66,691.14L619.77,696.46L624.08,697.88L628.12,695.81L629.40,690.60L626.85,685.96L620.25,684.30Z M616.25,683.93L616.68,690.58L621.15,693.83L625.84,692.91L628.56,688.99L628.04,683.90L624.59,680.44L619.69,680.44L616.25,683.93Z M664.21,670.98L660.14,677.87L662.18,682.11L667.04,683.95L671.54,682.49L674.01,677.78L672.98,673.05L669.00,670.28L664.21,670.98Z M706.93,648.65L699.05,643.61L694.87,645.97L693.22,650.50L696.36,655.88L701.99,657.40L706.45,653.64L706.93,648.65Z M693.30,641.71L691.86,648.35L695.00,652.40L700.62,652.18L703.93,647.34L702.28,640.62L697.53,639.04L693.30,641.71Z M697.34,631.09L694.57,637.06L697.75,642.00L705.91,641.90L708.47,637.69L706.70,632.12L702.24,629.56L697.34,631.09Z M707.08,628.31L714.38,629.20L718.29,624.52L716.18,618.05L712.44,616.00L705.29,619.74L704.64,624.64L707.08,628.31Z M717.33,608.81L714.02,613.14L714.81,618.12L718.94,621.49L724.22,620.78L727.72,616.13L726.20,610.51L721.80,607.88L717.33,608.81Z M720.01,602.26L715.58,605.75L714.85,610.46L717.15,614.12L722.21,615.49L726.27,613.97L728.58,609.50L727.84,605.12L724.45,602.25L720.01,602.26Z M719.84,613.31L724.72,612.38L727.92,608.19L727.24,603.51L722.62,600.29L718.32,600.51L714.86,603.92L714.84,609.94L719.84,613.31Z M733.23,582.06L727.04,582.21L723.88,586.41L724.13,590.79L727.51,594.28L732.73,594.96L736.98,590.99L737.11,585.68L733.23,582.06Z M734.49,570.67L730.54,573.50L729.58,577.74L732.54,582.57L737.96,584.27L742.61,581.02L742.88,575.35L739.13,570.92L734.49,570.67Z M730.81,568.81L726.62,571.65L725.63,576.72L728.12,581.12L733.59,582.43L738.64,579.09L738.90,573.04L735.40,569.19L730.81,568.81Z M738.34,576.50L742.82,574.62L744.42,569.93L742.75,565.91L737.73,563.90L732.32,566.17L730.44,570.93L732.81,575.46L738.34,576.50Z M732.21,562.18L733.85,567.47L739.64,569.55L744.66,567.31L746.05,561.99L742.78,557.57L737.42,556.27L732.21,562.18Z M733.40,547.91L728.93,545.79L723.96,546.82L721.70,551.36L723.86,555.95L730.42,559.13L734.30,557.13L735.63,552.15L733.40,547.91Z M691.57,424.91L682.59,426.69L681.14,432.33L684.13,437.30L687.85,438.24L693.30,434.69L694.39,428.18L691.57,424.91Z M604.05,791.22L604.57,785.49L600.64,781.33L595.32,781.30L591.55,784.99L591.43,790.26L594.93,794.10L600.07,794.47L604.05,791.22Z" fill="currentColor" fill-rule="evenodd"/></svg>
