<svg xmlns="http://www.w3.org/2000/svg" viewBox="0 0 1000 1000" role="img" aria-label="Map of Colombia"><path d="M297.14,645.34L295.70,639.76L288.51,636.18L296.36,627.95L308.66,629.72L309.82,623.77L307.76,624.57L307.01,618.68L304.44,620.70L302.75,611.41L308.53,600.48L309.21,602.80L310.73,597.69L318.74,590.84L322.82,595.60L323.17,590.14L324.93,595.81L328.30,597.81L330.41,596.76L329.92,590.68L336.47,589.65L339.24,591.43L338.51,593.89L344.95,593.37L342.62,585.61L346.15,584.63L344.76,583.31L348.15,584.38L346.60,582.21L350.52,580.88L347.24,581.29L347.20,578.71L351.25,578.10L350.61,575.26L346.68,575.84L357.51,564.81L354.73,563.98L358.51,559.04L361.93,557.62L364.71,560.66L362.56,556.97L364.07,552.05L367.16,553.89L364.58,550.43L373.69,544.58L370.00,541.64L373.36,542.09L371.16,540.98L373.32,540.06L372.25,538.49L377.57,533.90L373.32,533.29L373.48,535.24L367.65,537.27L365.55,531.51L369.60,531.14L368.07,531.14L370.52,527.10L367.16,525.26L363.49,533.29L359.51,528.80L359.89,522.02L368.41,518.21L363.92,518.05L361.65,514.53L364.99,508.95L364.40,496.33L367.43,498.50L363.38,491.76L361.93,467.12L358.30,462.71L353.96,462.62L357.02,458.50L364.07,457.58L367.98,452.24L363.18,439.13L357.31,431.83L357.35,427.09L360.40,429.57L361.93,426.81L363.53,414.89L360.58,409.15L358.28,407.94L354.90,410.51L352.43,403.12L348.95,400.80L347.82,402.17L349.22,394.70L338.89,384.84L342.27,374.00L346.26,371.58L344.78,363.71L353.03,371.67L363.78,363.64L361.98,360.62L365.54,354.89L371.68,353.22L360.08,330.00L357.11,329.22L359.56,322.28L363.24,320.44L366.69,328.23L372.52,331.58L377.57,338.82L380.68,338.52L381.56,344.71L386.49,344.36L384.96,347.71L386.49,349.27L382.49,349.27L383.14,353.66L389.85,353.93L389.06,331.78L381.35,326.00L383.74,322.64L394.19,319.62L394.77,316.93L409.62,307.93L416.22,294.50L426.26,285.79L432.20,285.67L430.33,287.08L432.16,288.00L440.72,285.25L442.70,277.70L440.84,274.63L436.94,274.12L439.86,270.41L444.75,249.87L437.01,254.64L442.00,247.09L445.42,246.35L445.05,243.10L442.61,242.79L446.00,238.78L446.42,241.16L446.61,238.16L445.24,234.79L455.99,227.32L457.33,228.94L456.53,224.96L466.28,220.21L475.47,210.85L489.85,215.96L499.93,216.15L491.26,216.69L491.70,222.47L486.54,221.71L486.47,225.57L488.00,223.36L488.92,226.46L490.89,226.34L490.45,222.75L492.82,227.09L495.58,227.02L503.64,211.87L502.80,204.94L506.39,200.34L513.05,199.82L526.46,203.73L544.93,202.57L569.59,183.98L591.00,175.99L596.57,166.17L595.04,160.93L596.57,159.37L604.13,159.41L602.10,162.15L605.57,163.39L608.54,159.37L604.54,158.17L610.42,153.97L611.60,156.33L614.75,152.44L616.49,154.46L619.29,151.67L614.38,152.01L617.29,149.83L635.81,155.51L642.44,166.63L641.35,170.15L629.20,179.29L603.19,186.62L590.82,208.82L580.43,210.35L572.21,222.26L561.83,241.24L558.66,269.11L540.51,297.83L548.52,297.80L557.58,292.32L560.02,300.92L567.37,300.47L572.54,321.24L585.16,334.53L587.75,345.83L580.79,353.30L582.55,358.00L581.35,373.65L584.22,376.82L593.55,378.25L598.38,391.51L603.05,394.82L609.57,396.13L619.76,393.06L634.44,394.24L639.30,397.08L660.81,390.91L666.39,391.55L678.01,398.17L686.51,396.63L717.19,434.82L722.22,433.29L726.03,436.69L734.31,430.53L753.37,434.21L761.71,431.55L782.79,430.53L789.54,426.23L806.43,431.42L804.58,435.17L807.66,441.29L798.58,449.99L798.95,460.89L789.21,469.98L791.07,482.37L787.40,506.20L791.07,510.86L791.38,522.35L798.29,540.82L804.19,542.79L812.71,557.79L789.03,580.14L788.26,584.47L792.95,582.12L798.52,583.41L800.80,588.90L818.07,602.23L816.84,607.99L821.43,615.31L820.63,620.35L831.78,649.13L832.16,654.85L822.71,656.94L823.27,640.54L821.32,632.97L811.32,615.89L807.56,613.73L800.03,617.48L789.83,629.64L784.99,631.55L780.38,629.93L773.21,619.27L769.26,627.60L774.50,632.45L721.28,632.50L712.79,630.14L698.73,633.06L698.91,662.18L702.92,660.75L724.12,663.12L730.23,670.78L728.44,677.02L730.90,680.56L723.75,681.99L715.65,676.84L709.34,680.53L689.86,683.34L689.25,716.94L695.26,723.87L709.31,733.31L710.90,738.70L708.92,742.69L717.23,755.03L719.17,762.86L693.86,900.00L683.86,890.68L678.37,881.71L670.32,883.92L659.43,879.59L690.02,831.68L687.56,827.64L685.56,829.62L680.03,824.10L675.97,824.61L676.29,821.43L672.36,821.95L666.39,817.77L663.31,819.81L660.67,814.31L651.80,809.04L646.57,808.40L646.20,811.42L642.16,810.89L638.18,814.80L628.70,816.45L627.10,811.02L625.24,813.71L623.44,809.58L614.80,808.09L614.14,805.51L605.07,814.12L600.02,813.94L594.88,817.99L585.85,819.81L573.94,814.57L570.89,818.52L569.93,816.07L560.91,818.67L558.57,814.73L550.90,812.73L549.16,809.16L553.05,802.86L549.38,790.08L546.50,788.00L542.33,790.16L534.25,784.91L535.76,776.12L529.53,766.12L524.24,762.89L519.65,764.11L514.03,757.63L511.59,758.24L509.82,754.25L507.90,755.60L501.32,753.41L497.84,748.31L500.32,747.31L496.02,742.17L494.55,734.12L484.51,725.01L477.87,723.79L479.45,722.25L476.35,717.41L471.48,719.16L462.16,711.70L458.56,711.21L455.81,714.56L440.45,706.21L433.15,705.96L425.89,700.59L421.35,693.43L418.39,693.95L410.29,689.02L405.11,691.70L405.48,698.32L398.44,700.05L391.31,697.29L390.87,699.28L384.25,698.97L375.28,694.08L361.19,692.34L358.04,680.52L350.09,677.58L347.51,671.89L341.03,673.41L337.88,670.48L328.86,668.38L312.51,656.19L308.71,656.05L297.14,645.34Z M328.08,586.69L322.53,587.14L321.60,589.53L322.85,596.25L328.17,600.30L332.75,594.65L328.08,586.69Z M334.67,587.45L336.71,596.51L346.93,595.99L347.93,592.75L341.67,585.94L339.17,584.60L334.67,587.45Z M341.13,583.18L336.89,584.05L335.64,589.18L339.13,594.58L346.72,596.73L349.10,593.96L348.44,590.37L341.13,583.18Z M359.87,514.03L353.92,521.55L365.50,521.13L367.60,518.47L359.87,514.03Z M170.53,152.52L173.13,141.46L169.37,139.32L165.34,140.92L162.86,145.54L164.04,151.56L170.53,152.52Z M182.74,117.39L190.18,111.00L188.21,105.70L183.38,103.40L178.73,106.06L177.13,112.52L182.74,117.39Z M175.57,537.47L179.56,534.06L180.11,529.72L177.64,525.48L172.01,524.46L167.11,528.58L166.97,534.78L170.70,537.95L175.57,537.47Z M326.78,582.92L332.34,575.32L330.79,571.13L326.64,569.49L320.14,574.54L319.02,579.19L322.00,582.94L326.78,582.92Z M440.61,251.84L449.83,247.01L449.96,243.25L445.90,239.00L440.70,238.41L437.22,242.33L437.17,249.24L440.61,251.84Z M234.05,102.25L237.34,106.18L242.36,106.82L246.51,103.91L247.59,99.00L245.02,94.58L239.39,93.15L234.63,96.47L234.05,102.25Z" fill="currentColor" fill-rule="evenodd"/></svg>
