<svg xmlns="http://www.w3.org/2000/svg" viewBox="0 0 1000 1000" role="img" aria-label="Map of Congo, Democratic Republic of the"><path d="M369.82,190.30L367.75,174.07L370.00,159.93L365.61,148.08L374.47,145.02L388.32,123.62L401.98,114.33L408.68,113.28L419.42,115.73L422.20,119.72L440.99,129.40L445.92,135.73L445.75,139.62L451.12,144.41L463.34,142.80L471.92,145.23L477.57,149.60L480.82,147.85L491.30,151.58L499.66,149.53L523.40,156.45L532.09,153.82L536.42,146.12L535.53,141.94L539.60,141.19L541.03,135.42L543.65,131.39L546.50,131.95L548.36,127.23L551.68,126.78L553.35,130.30L559.71,130.82L563.74,135.16L570.02,137.02L577.30,131.00L592.41,127.48L592.52,125.37L603.37,121.65L605.45,122.76L607.02,119.67L611.30,118.30L609.73,117.16L611.21,114.67L625.23,123.28L649.43,118.45L651.78,106.75L659.34,104.03L674.74,112.66L677.30,110.24L679.61,111.82L683.93,108.92L686.80,109.79L699.56,117.81L709.50,115.84L714.85,118.23L723.52,111.26L733.10,114.26L738.94,116.84L742.02,123.07L747.32,124.40L751.65,128.73L752.84,136.81L762.97,138.73L764.47,144.24L766.65,143.27L769.83,147.26L775.10,147.05L778.39,150.29L794.07,138.57L795.52,141.32L803.76,141.01L813.62,147.54L820.70,141.10L823.53,133.71L830.28,134.88L837.76,138.48L837.38,146.36L843.36,148.89L843.10,151.54L851.43,157.56L854.23,163.71L868.32,167.44L869.06,178.15L877.62,175.54L881.50,183.31L883.89,182.05L884.46,187.38L877.49,201.59L882.08,210.09L876.09,227.26L880.05,227.71L882.86,232.01L886.89,228.93L890.55,233.77L895.68,233.24L899.62,241.65L889.32,255.30L874.88,266.99L866.35,278.00L856.30,282.31L852.78,291.87L844.07,295.41L843.79,309.13L839.56,315.01L837.77,323.16L833.83,327.04L829.96,366.42L827.60,369.14L828.58,388.48L822.68,393.43L818.71,393.87L814.12,399.84L809.81,407.61L809.99,422.52L798.73,430.68L798.34,436.00L799.77,441.65L805.53,445.53L804.12,448.42L814.18,458.21L813.35,494.10L818.57,502.23L821.57,519.43L817.92,537.01L830.03,569.99L824.31,582.51L826.89,595.56L833.99,608.47L850.10,619.85L858.64,630.76L864.81,649.55L873.76,663.48L877.84,674.70L799.68,686.85L801.63,691.38L799.85,698.74L787.51,712.64L777.17,720.03L784.03,724.50L791.68,741.89L786.29,759.88L791.73,777.69L785.64,785.76L777.50,815.14L783.69,829.40L793.89,834.43L805.81,850.69L815.03,850.15L825.30,853.81L826.29,851.26L823.07,848.84L824.23,844.96L837.86,841.23L837.15,895.97L830.23,894.52L832.41,888.63L828.43,886.29L812.06,895.18L809.46,892.97L804.08,893.46L800.28,883.63L792.08,872.17L788.44,870.06L785.15,872.00L782.27,865.73L783.87,862.86L780.12,856.68L775.91,853.30L760.65,850.22L756.37,845.79L747.20,847.10L742.27,842.31L738.08,831.47L730.26,826.72L727.99,816.65L721.43,817.74L718.24,830.93L708.58,835.30L695.87,831.05L677.69,830.68L672.22,826.08L666.97,826.36L662.60,823.35L657.32,825.36L656.71,822.78L651.00,819.70L648.23,809.36L649.55,800.89L624.47,806.41L615.17,812.11L606.91,809.49L611.03,804.44L610.12,796.91L599.79,794.52L599.37,789.30L594.64,787.38L587.60,793.90L571.76,791.06L553.23,797.01L531.69,794.48L529.15,798.88L520.65,803.19L520.91,795.99L517.62,786.49L524.08,782.66L522.08,770.90L523.82,766.14L517.39,747.76L505.60,736.22L501.95,725.67L508.32,685.71L500.35,666.42L504.84,644.23L501.66,636.39L448.61,636.52L452.43,620.94L440.18,621.05L439.12,624.56L406.72,624.56L404.81,637.76L406.35,644.64L403.45,648.67L399.74,648.62L399.74,666.62L375.33,666.62L373.85,663.69L364.54,663.68L364.17,666.43L347.92,667.48L346.99,671.13L337.33,668.40L326.10,670.67L314.18,656.17L312.94,650.77L307.15,644.35L308.33,642.48L305.29,641.97L298.64,633.08L297.95,627.03L299.80,625.10L291.19,612.21L288.59,601.98L289.46,590.38L284.61,586.20L284.03,579.25L282.17,578.32L272.22,576.31L199.26,578.41L172.70,575.76L147.49,577.82L128.76,574.62L123.32,576.76L121.48,581.55L110.02,584.60L110.35,581.65L107.80,582.67L101.63,575.22L100.00,572.47L102.03,571.35L112.52,570.91L113.43,547.21L109.81,542.68L119.65,537.18L124.85,529.42L135.86,526.23L136.81,522.68L148.17,531.74L149.59,535.54L153.35,530.90L157.93,531.09L163.01,527.15L163.11,517.36L167.12,516.25L172.74,519.26L175.95,515.78L191.31,509.96L194.78,516.37L189.79,521.82L192.31,527.79L191.88,535.58L196.88,533.69L203.29,536.16L209.94,532.59L225.58,512.57L236.27,507.30L239.41,500.75L255.29,494.84L268.44,469.43L266.40,451.31L268.44,440.91L267.13,421.85L280.53,409.46L293.93,383.46L301.87,376.22L313.84,372.77L332.37,352.10L330.97,338.32L340.59,314.22L337.28,287.33L345.87,264.84L345.91,239.25L359.37,215.96L365.04,201.20L368.59,198.53L369.82,190.30Z M124.78,575.67L120.68,579.67L122.04,581.63L125.77,582.09L134.61,577.28L132.85,575.11L124.78,575.67Z" fill="currentColor" fill-rule="evenodd"/></svg>
