<svg xmlns="http://www.w3.org/2000/svg" viewBox="0 0 1000 1000" role="img" aria-label="Map of Congo, Republic of the"><path d="M843.54,121.21L845.00,135.24L842.31,153.17L834.56,158.98L822.16,191.16L807.48,210.51L792.76,241.91L792.67,297.69L782.11,332.51L773.90,346.72L777.66,372.03L776.34,384.20L781.54,394.85L781.13,405.32L772.75,417.80L760.13,457.85L763.17,487.88L722.70,532.93L696.54,540.46L679.18,556.22L649.92,612.90L620.65,639.91L618.84,651.00L623.49,681.45L619.04,704.11L620.54,736.73L623.49,743.59L594.76,798.97L588.54,803.39L560.08,811.86L553.23,826.14L529.86,837.61L520.14,852.36L504.84,865.84L495.69,881.25L481.17,889.03L467.16,883.65L456.23,887.78L457.17,870.80L451.66,857.78L462.56,845.89L455.50,838.87L454.98,831.94L436.44,841.14L421.44,844.62L414.42,852.19L407.33,851.39L402.14,845.65L393.38,848.06L393.16,869.39L382.06,877.98L376.08,875.68L372.06,877.56L373.09,879.84L363.84,887.69L360.74,879.39L344.55,869.43L338.15,859.42L334.41,861.69L334.61,864.77L330.35,862.65L315.93,844.30L306.01,842.40L293.37,857.80L271.67,862.04L265.71,877.87L257.76,880.23L253.82,876.52L248.19,890.22L237.08,900.00L219.72,878.48L222.31,878.59L222.49,875.55L215.75,867.76L219.72,864.95L218.46,859.44L181.34,826.83L177.38,816.80L155.00,800.75L164.03,778.79L182.49,768.74L188.78,761.56L196.77,764.83L207.57,778.93L221.38,780.04L227.54,773.87L220.16,767.24L225.65,752.76L232.07,745.63L231.10,742.67L207.56,730.56L209.30,719.45L215.89,715.40L202.91,699.60L193.19,702.67L201.77,681.22L197.39,669.28L196.44,653.44L204.66,654.90L213.84,661.27L230.55,653.39L241.91,661.26L278.29,653.46L282.01,631.98L276.53,627.42L275.33,612.59L280.80,616.34L284.18,610.69L294.16,607.19L309.94,615.81L319.34,641.13L322.87,639.94L328.60,648.56L325.01,657.36L330.15,654.22L369.91,663.65L383.16,652.55L395.97,632.12L410.91,656.20L405.38,665.99L427.76,668.92L432.72,658.99L440.99,655.75L433.07,643.83L440.94,635.55L441.97,620.91L455.92,614.68L456.78,598.98L460.64,594.46L452.95,587.66L461.96,581.85L459.69,577.63L464.21,569.08L458.58,561.90L462.20,552.13L455.42,533.70L461.41,518.37L460.38,511.00L464.42,494.98L461.14,489.36L448.89,480.64L434.14,481.62L432.18,470.73L428.25,465.26L412.32,461.70L408.82,464.19L404.04,458.73L412.28,444.76L413.36,437.88L409.87,435.90L407.71,421.90L414.49,407.78L424.93,400.00L423.69,394.32L426.47,390.45L440.76,390.17L449.64,382.96L450.52,376.30L460.53,365.08L459.62,359.69L462.41,356.19L456.24,350.96L451.26,340.26L445.44,336.31L442.62,317.92L432.75,312.34L424.05,313.74L419.58,310.38L400.70,308.42L397.04,313.93L386.72,315.48L377.66,322.26L362.40,321.25L350.79,327.91L344.80,327.85L341.62,324.72L350.88,317.29L349.80,309.01L339.73,293.94L341.62,278.92L345.36,272.28L342.72,265.76L346.82,257.17L353.62,252.46L354.85,241.82L448.86,240.94L459.19,244.47L469.65,241.32L471.03,237.44L477.83,243.90L488.05,246.20L486.17,247.45L489.29,247.45L489.61,250.58L496.61,249.62L498.06,245.95L502.67,251.18L501.31,255.99L509.40,253.55L518.02,258.47L525.06,252.82L530.65,252.95L542.09,263.78L555.42,258.79L575.94,262.82L592.73,275.53L604.08,277.54L609.22,288.24L617.39,280.89L608.76,258.51L610.68,242.91L613.85,237.94L617.41,239.89L621.86,236.13L646.73,179.92L643.65,168.80L647.80,158.70L645.48,150.58L657.67,118.94L665.72,115.22L679.16,117.00L681.01,113.58L691.59,116.02L712.55,111.60L718.25,107.55L725.12,108.23L736.53,100.00L748.25,106.97L767.17,108.32L771.66,115.41L793.64,113.27L802.76,121.16L808.90,112.23L820.94,112.27L829.39,106.99L838.39,120.04L843.54,121.21Z" fill="currentColor" fill-rule="evenodd"/></svg>
