<svg xmlns="http://www.w3.org/2000/svg" viewBox="0 0 1000 1000" role="img" aria-label="Map of Costa Rica"><path d="M658.96,138.40L666.21,139.90L675.08,156.56L674.76,161.00L669.06,149.49L671.18,165.24L667.16,168.67L673.89,164.93L673.89,168.67L675.79,162.05L690.97,200.50L727.45,251.80L743.91,269.67L752.15,269.26L772.82,300.86L782.41,305.48L785.26,315.94L809.07,322.74L816.52,334.77L811.21,333.37L808.74,342.08L804.31,341.92L776.96,326.07L772.55,331.79L777.12,341.25L763.87,346.34L764.19,402.08L769.63,400.32L790.63,414.09L794.77,421.47L772.64,434.36L773.03,439.40L766.47,444.70L777.74,466.71L776.85,485.58L748.52,504.90L763.60,516.01L771.55,536.57L769.99,546.04L769.61,536.17L760.14,519.85L734.80,499.05L742.88,488.18L736.70,478.64L741.53,473.94L732.81,471.73L731.00,464.25L734.46,469.84L738.59,467.13L731.95,461.37L722.37,463.29L702.44,447.00L688.81,450.82L699.51,468.18L715.82,474.81L715.82,498.00L699.51,490.24L675.77,488.42L653.36,467.66L657.16,456.75L675.79,440.19L666.46,441.09L674.76,431.99L670.10,425.80L675.79,427.64L668.20,422.84L671.90,415.17L667.54,404.25L628.17,369.04L591.95,354.57L587.82,345.13L542.42,337.21L531.09,329.24L522.50,318.99L528.59,300.40L515.89,286.20L514.82,274.61L498.51,274.61L507.23,271.73L491.96,267.82L465.31,245.75L450.91,246.07L437.61,230.32L442.47,236.09L444.68,255.58L456.59,264.94L451.93,264.94L475.78,277.70L483.41,277.49L490.15,282.37L487.50,285.94L491.01,290.05L487.13,292.92L496.61,293.97L483.41,308.27L476.74,305.92L478.49,311.65L469.10,316.99L461.42,332.42L436.20,296.94L416.65,289.00L385.54,284.00L360.49,237.52L361.31,226.13L356.19,220.09L370.02,207.13L365.33,197.62L380.50,192.83L390.00,182.71L387.14,179.40L380.50,184.10L385.67,174.59L383.25,158.10L371.13,156.73L367.22,150.44L346.26,143.74L358.59,139.90L355.75,137.03L364.37,137.03L367.22,142.77L369.05,138.28L379.04,139.57L380.77,131.85L374.12,126.26L385.02,123.89L380.27,118.13L394.71,100.00L407.11,108.08L487.33,137.65L522.77,119.60L555.88,136.21L567.38,130.25L573.59,140.81L587.82,149.02L585.22,154.87L590.15,160.15L606.16,162.67L615.50,159.07L628.28,169.74L663.62,156.60L658.96,138.40Z M459.54,256.10L464.27,258.22L455.73,259.27L450.12,253.43L462.44,254.47L459.54,256.10Z M194.03,897.39L193.33,891.80L188.76,891.42L181.38,897.43L180.61,901.65L184.65,903.10L194.03,897.39Z M638.84,455.83L640.84,449.63L638.70,446.03L632.73,444.81L628.01,447.47L627.40,452.86L631.06,458.09L635.39,458.48L638.84,455.83Z" fill="currentColor" fill-rule="evenodd"/></svg>
