<svg xmlns="http://www.w3.org/2000/svg" viewBox="0 0 1000 1000" role="img" aria-label="Map of Cote d'Ivoire"><path d="M198.40,170.76L218.36,164.53L224.75,149.71L238.82,136.27L252.24,138.76L259.06,133.57L266.15,149.17L275.11,147.84L276.22,159.45L308.16,165.08L319.42,173.40L326.42,167.81L321.74,159.38L326.19,147.83L362.52,145.81L365.14,136.82L358.96,129.85L362.49,109.07L378.84,119.65L390.22,121.84L396.03,116.80L391.48,112.26L392.58,105.06L413.83,100.00L414.99,108.63L420.23,112.14L413.17,126.62L421.99,129.50L423.20,138.39L415.82,159.48L432.55,167.34L443.66,167.26L450.23,155.62L457.48,156.55L460.79,143.92L496.08,134.16L507.13,138.97L510.98,147.15L519.88,153.39L533.04,150.57L553.04,152.92L555.35,164.98L559.41,162.55L558.63,168.76L565.00,174.22L561.19,177.25L574.46,186.01L574.12,203.47L594.94,210.80L597.75,217.63L593.50,218.41L595.19,221.83L602.42,222.00L609.53,230.91L619.10,225.26L625.55,229.11L627.17,223.06L630.79,223.01L631.82,234.30L643.33,235.21L648.04,243.33L648.80,238.17L654.90,239.11L658.92,224.65L675.49,213.84L687.49,216.43L705.33,205.04L724.60,199.10L736.21,197.46L743.09,201.32L779.01,203.43L780.93,210.97L791.74,201.64L793.57,210.44L801.41,212.43L806.67,224.42L819.67,227.61L841.98,264.87L847.79,267.28L857.04,255.15L859.13,269.52L853.84,277.41L860.53,284.58L848.84,298.46L846.40,309.51L860.58,314.54L865.71,325.98L879.77,415.52L866.80,421.09L866.82,436.73L856.84,440.53L846.85,450.43L844.44,448.86L843.13,460.52L838.31,464.28L825.69,494.75L819.61,533.17L821.80,540.15L813.35,557.27L804.81,561.28L790.47,585.97L788.22,595.33L792.28,602.69L785.80,615.08L795.61,659.36L801.11,664.95L815.63,710.67L814.73,729.51L822.80,728.81L821.54,736.65L825.15,741.54L833.65,737.96L845.07,743.20L851.96,771.01L850.41,774.77L844.57,774.31L847.42,797.60L825.05,795.59L825.44,800.64L821.19,803.37L810.62,798.15L801.13,799.94L792.94,790.37L802.53,777.06L800.27,771.55L785.86,775.05L787.74,780.48L782.46,786.17L788.48,788.74L778.57,793.53L784.15,799.09L779.63,802.75L730.18,794.45L728.78,787.89L725.47,793.95L715.60,793.02L693.92,784.38L698.85,784.89L702.49,781.82L706.23,785.32L706.65,781.82L722.07,787.10L721.22,784.38L727.85,784.38L729.49,782.40L724.12,771.88L718.40,770.66L725.98,783.44L707.58,778.47L705.80,774.12L703.98,778.14L693.00,778.47L701.55,781.04L695.52,784.05L678.57,779.25L664.21,782.19L660.04,778.62L654.22,778.80L650.51,783.60L636.56,780.40L634.31,783.60L637.78,785.32L626.59,784.38L624.12,780.18L624.89,784.38L608.77,788.74L605.38,786.17L611.24,786.17L610.48,778.47L601.06,783.60L604.43,786.16L593.69,795.16L601.26,796.18L606.59,791.29L624.63,793.09L627.51,792.16L623.20,790.46L628.29,788.74L643.45,789.75L646.25,786.17L671.32,782.66L686.65,782.27L694.69,788.74L617.06,795.13L583.24,801.66L572.14,800.72L568.69,790.70L555.95,794.81L550.28,791.18L529.95,788.93L527.86,793.02L532.95,793.95L527.86,794.81L525.25,801.66L520.15,795.59L520.32,799.98L525.43,802.30L531.52,802.97L536.42,801.66L527.86,799.09L534.73,795.59L546.67,797.19L541.52,792.16L554.89,796.85L565.78,794.81L569.60,801.66L508.31,805.84L501.49,803.37L498.02,805.93L501.49,806.79L491.59,809.86L464.12,814.02L367.75,852.30L333.41,860.15L314.14,875.56L292.45,881.29L264.62,900.00L250.08,896.07L250.24,852.46L246.07,840.82L246.14,830.64L253.09,828.58L249.83,808.75L257.28,806.27L260.62,800.15L262.27,784.66L266.71,781.41L269.34,785.14L272.95,778.03L265.46,764.79L269.19,752.21L272.46,752.10L270.19,747.54L273.65,746.47L265.52,725.98L265.89,711.75L261.91,710.00L259.94,716.73L255.79,710.13L251.90,712.51L236.82,699.84L232.26,704.88L223.63,697.68L220.76,683.51L214.29,682.22L216.17,667.68L207.76,658.38L193.01,654.61L175.92,658.09L153.26,647.18L145.94,649.82L145.14,635.88L139.02,631.39L135.33,638.37L127.96,631.39L120.23,630.66L153.40,597.76L157.77,587.61L157.35,572.11L161.50,567.87L159.51,549.85L148.94,527.62L144.23,504.18L136.79,497.15L145.57,490.27L168.66,498.87L184.90,467.84L181.10,456.47L188.53,438.08L201.76,439.85L194.47,428.88L196.70,418.68L186.49,421.44L164.06,410.92L167.88,394.18L165.50,385.78L172.23,380.10L200.77,379.46L209.72,388.32L215.93,388.02L219.01,381.85L225.57,393.30L239.06,394.76L234.79,363.43L221.51,347.86L202.22,343.73L200.97,339.86L205.58,316.84L228.58,306.82L216.01,295.28L205.87,293.36L213.84,265.02L190.40,267.63L177.53,249.86L181.77,210.51L175.51,198.35L179.71,196.11L177.42,192.95L181.27,186.41L192.78,180.31L198.40,170.76Z M789.33,797.29L803.56,806.33L784.08,802.98L789.33,797.29Z" fill="currentColor" fill-rule="evenodd"/></svg>
