<svg xmlns="http://www.w3.org/2000/svg" viewBox="0 0 1000 1000" role="img" aria-label="Map of Croatia"><path d="M484.64,107.54L527.36,123.27L540.35,138.92L551.55,138.92L558.54,155.96L580.73,182.32L601.84,189.33L610.96,209.20L616.51,211.93L612.89,214.40L628.63,222.19L653.69,223.60L662.56,240.85L683.26,246.75L689.89,254.86L737.77,252.26L763.96,260.54L786.88,246.31L798.02,229.04L814.27,233.74L831.33,224.55L827.47,231.39L832.10,236.57L825.09,238.59L823.69,246.50L840.43,274.43L831.63,292.60L836.81,299.09L847.16,293.68L859.11,304.28L846.01,306.74L844.32,314.94L848.95,322.42L841.66,330.96L855.95,337.04L866.19,349.02L900.00,362.90L897.67,369.32L875.34,370.73L861.23,364.30L863.37,373.75L850.79,375.42L855.86,385.36L856.53,405.85L862.56,410.40L853.75,419.42L843.54,417.67L846.85,427.03L829.74,427.88L815.34,417.89L816.47,401.21L809.23,398.48L801.87,385.39L797.08,389.59L792.74,382.94L783.64,383.49L779.23,390.89L741.38,371.58L729.96,382.96L709.60,373.13L686.86,389.26L666.39,370.35L638.88,379.76L640.83,374.58L634.26,375.98L633.66,370.71L625.40,374.97L610.02,365.49L606.84,371.98L598.92,373.27L578.48,357.71L574.68,360.43L574.68,355.11L566.41,356.72L563.30,347.44L548.03,367.07L509.69,359.27L490.75,379.30L480.85,401.27L454.45,383.23L440.75,360.85L409.83,365.44L405.93,406.15L401.49,415.33L407.26,430.95L399.49,438.90L401.17,445.38L411.63,459.15L422.90,453.90L433.77,470.05L441.82,472.81L444.04,479.53L438.80,488.72L453.77,492.43L459.63,512.46L456.72,519.77L465.48,523.16L463.41,537.86L467.23,551.97L482.30,575.87L505.91,592.91L529.98,621.80L534.59,634.94L577.69,677.32L610.23,693.53L612.86,723.89L633.49,752.58L658.75,772.70L663.40,788.06L659.58,790.97L643.46,789.36L637.39,779.00L641.61,775.66L632.34,778.24L635.95,775.66L631.33,769.16L628.40,771.76L616.43,757.36L589.00,741.03L557.37,704.41L522.83,696.22L509.11,684.48L491.05,684.48L502.16,679.29L496.80,677.08L453.93,681.88L461.35,688.49L453.32,690.54L432.49,685.78L436.26,678.00L427.85,675.40L426.99,662.07L433.41,659.71L425.07,658.41L431.60,657.87L431.26,650.71L398.16,636.48L386.11,624.68L394.44,625.87L364.10,605.20L322.00,554.38L323.04,546.81L317.37,541.29L321.47,537.85L326.35,544.03L330.57,539.69L329.26,534.20L342.43,543.89L343.45,534.68L337.82,528.33L359.95,540.60L374.08,539.88L344.15,524.18L303.40,483.26L286.65,454.02L286.65,427.83L291.78,409.33L282.45,383.71L256.02,364.14L244.21,345.70L209.06,336.14L198.36,373.12L191.15,375.94L193.01,381.43L186.33,390.22L187.35,405.78L176.16,411.09L178.19,404.09L172.29,394.10L177.09,404.60L169.61,420.29L163.12,420.29L165.88,424.06L163.12,434.44L166.83,437.03L151.93,433.14L155.71,443.64L153.70,444.75L152.86,437.03L137.97,425.24L145.45,422.76L138.98,421.46L136.20,408.38L115.74,387.62L114.30,379.11L129.71,375.94L112.05,373.87L109.27,351.17L112.96,347.28L109.27,343.27L113.89,340.67L104.63,335.73L100.00,304.23L115.86,313.57L134.19,313.49L151.78,321.00L164.47,311.18L163.02,303.79L179.42,311.45L196.48,307.03L217.37,310.70L230.40,301.63L234.42,288.21L245.59,274.60L257.46,300.04L274.90,313.11L286.35,312.23L291.91,303.65L321.28,319.78L346.49,315.45L351.40,309.91L342.62,302.13L338.81,287.17L353.08,279.85L336.98,264.03L360.57,254.18L363.59,246.61L394.06,241.56L391.81,232.61L397.03,204.60L382.38,189.91L389.14,172.02L404.05,171.43L413.34,162.93L440.58,154.70L446.06,148.33L445.84,139.74L475.35,140.57L469.83,117.74L484.64,107.54Z M768.43,865.31L768.40,877.81L776.43,892.46L741.53,865.33L738.62,853.74L719.44,847.81L714.99,838.16L695.79,828.69L694.60,821.29L671.30,814.57L676.85,823.60L675.06,824.86L602.55,784.85L579.81,782.49L573.78,771.76L606.13,777.22L674.08,812.09L669.46,803.01L662.13,802.27L668.67,796.84L683.61,798.67L689.94,816.33L739.52,852.22L768.43,865.31Z M547.83,824.24L562.85,823.89L564.93,828.00L549.26,831.70L547.83,824.24Z M662.89,830.39L675.08,839.59L617.45,821.29L626.75,819.23L623.93,821.29L662.89,830.39Z M591.43,787.33L600.70,796.41L553.41,800.42L526.84,795.56L533.80,787.33L523.62,784.85L591.43,787.33Z M470.68,767.87L466.49,775.22L449.80,779.37L444.60,769.16L455.63,764.74L470.68,767.87Z M531.95,757.36L488.36,744.40L505.28,740.11L517.06,745.70L508.55,738.03L514.27,738.03L527.39,740.51L536.64,750.27L599.77,757.36L531.95,757.36Z M505.87,727.53L492.99,718.32L499.46,714.44L495.77,706.66L531.21,709.90L558.96,722.22L548.22,730.67L505.87,727.53Z M491.05,715.73L485.25,717.19L465.15,704.20L475.54,703.27L491.05,715.73Z M384.26,653.34L402.78,662.31L393.52,660.42L384.26,653.34Z M333.29,615.38L338.52,618.70L356.05,634.77L333.29,615.38Z M362.88,612.90L337.82,589.42L354.47,597.20L362.88,612.90Z M336.89,588.13L318.92,574.00L310.88,560.75L333.01,578.94L336.89,588.13Z M275.36,562.72L285.48,568.57L288.47,564.33L277.71,555.69L275.05,557.48L275.36,562.72Z M308.01,586.50L331.80,608.10L320.48,606.50L328.77,615.73L316.86,605.69L282.01,558.16L303.40,573.85L308.01,586.50Z M291.37,495.65L266.29,457.90L281.42,477.41L286.65,481.38L289.40,475.61L307.99,491.29L312.64,499.54L290.36,486.57L308.91,508.02L315.51,512.63L308.03,500.95L336.89,526.91L324.78,521.71L332.26,532.10L320.15,528.33L325.77,534.68L319.86,532.24L314.50,520.42L318.29,517.95L309.05,516.53L288.50,498.24L291.37,495.65Z M221.61,475.55L239.27,499.54L224.12,482.48L216.05,482.56L218.70,476.89L212.35,455.32L220.71,461.24L221.61,475.55Z M267.22,443.64L269.06,447.53L256.02,439.74L265.37,439.74L259.80,430.55L268.95,430.79L267.22,435.61L283.29,455.21L267.22,443.64Z M228.10,439.74L239.27,471.00L236.43,473.93L224.84,466.76L206.71,418.86L207.71,412.25L219.35,418.79L219.74,409.03L222.60,409.79L204.58,379.96L209.35,368.74L215.12,369.34L219.39,394.08L231.02,406.93L228.10,439.74Z M264.90,412.27L252.09,405.65L251.00,392.84L250.47,396.82L236.04,395.39L224.45,384.90L238.70,375.88L241.24,354.24L247.61,356.37L251.40,368.16L247.82,369.87L257.02,370.75L257.02,384.90L267.22,387.62L277.31,405.78L264.90,412.27Z M473.83,684.09L488.85,688.40L466.64,688.43L473.83,684.09Z M267.40,532.75L264.37,540.76L266.39,545.40L274.61,544.82L277.85,541.79L276.81,536.65L272.49,532.93L267.40,532.75Z M245.92,527.51L254.92,534.82L258.23,534.68L256.09,528.13L248.82,523.43L245.46,524.12L245.92,527.51Z M275.77,514.34L270.26,512.49L269.22,522.34L275.45,526.46L275.77,514.34Z M198.00,473.30L203.99,475.85L205.43,462.19L204.16,462.32L198.00,473.30Z" fill="currentColor" fill-rule="evenodd"/></svg>
