<svg xmlns="http://www.w3.org/2000/svg" viewBox="0 0 1000 1000" role="img" aria-label="Map of Cuba"><path d="M829.30,631.33L829.30,625.41L826.19,625.42L829.66,622.03L829.49,618.28L823.79,621.12L825.45,624.40L819.38,628.13L819.10,631.11L815.26,632.04L797.78,632.73L782.91,626.53L763.80,626.94L747.35,623.76L723.51,627.62L698.20,628.11L691.36,631.82L666.24,630.58L661.79,633.93L636.07,636.68L633.85,633.16L645.93,618.29L644.92,616.11L649.69,615.63L658.61,607.39L668.60,603.00L670.83,599.22L673.85,600.35L679.92,593.83L682.22,586.13L677.21,580.35L670.56,578.35L673.85,572.51L669.22,571.96L662.92,565.98L651.80,569.25L623.38,564.90L618.60,567.62L609.46,566.53L600.19,557.30L596.72,556.84L594.18,551.45L584.42,546.93L578.20,540.52L574.48,525.16L577.44,522.11L573.95,519.91L567.82,502.13L559.08,498.39L563.31,496.93L559.21,492.94L524.85,499.94L505.35,495.69L502.17,491.98L500.37,494.10L492.05,488.55L479.93,486.99L477.34,489.47L474.04,488.00L475.56,486.87L474.04,483.12L465.36,483.61L466.06,486.23L461.32,478.58L446.32,473.01L433.14,460.02L437.53,457.48L430.45,448.74L426.47,450.93L431.45,456.93L431.46,460.74L399.31,460.35L385.75,457.19L381.71,450.37L382.22,445.73L377.94,441.62L377.15,459.22L374.60,452.00L367.29,456.94L364.61,455.73L362.98,450.44L353.55,447.71L350.02,449.83L344.96,447.09L331.28,448.99L327.19,443.30L306.15,432.44L309.50,429.66L330.05,429.75L344.07,425.21L344.69,418.45L327.35,409.94L310.98,411.91L303.57,409.46L271.45,409.90L262.05,407.85L259.03,414.47L239.94,425.08L231.93,437.00L225.03,436.79L213.54,449.21L206.02,449.04L201.70,444.39L194.62,450.37L185.99,448.74L175.79,450.37L172.76,453.36L172.30,459.11L170.15,459.44L170.79,461.79L173.31,461.24L168.10,470.40L161.36,468.39L152.51,471.11L132.65,482.57L135.23,471.61L133.56,469.29L121.43,471.02L108.12,478.11L101.79,477.09L100.00,473.82L101.36,470.80L105.33,472.75L107.55,468.74L109.37,471.11L131.69,460.20L136.04,462.27L141.61,460.20L145.78,463.66L148.92,462.37L149.98,457.97L147.47,461.10L144.37,455.86L145.43,453.63L137.29,447.71L142.60,433.73L148.92,426.96L147.40,426.37L153.23,423.95L154.52,417.63L159.58,418.71L164.48,411.01L168.71,410.02L165.18,408.44L166.72,406.87L171.46,409.35L179.69,404.28L196.10,400.62L197.67,398.11L202.99,397.48L204.69,394.24L208.70,395.57L211.90,392.13L215.16,394.25L219.89,388.35L227.54,384.31L231.09,385.53L231.74,390.01L233.67,388.19L232.40,386.05L239.76,382.89L244.13,382.92L244.08,385.76L246.93,386.61L250.38,381.87L275.70,380.15L288.18,372.72L302.06,369.00L315.83,368.50L328.47,372.44L349.28,371.90L352.66,374.16L351.40,380.13L353.16,380.70L356.72,376.47L372.21,372.55L381.26,367.55L371.11,374.07L381.26,381.68L386.51,376.19L393.22,376.03L395.30,379.76L417.22,377.33L420.16,375.47L419.20,372.44L422.10,372.04L420.25,377.33L425.09,383.87L434.37,388.44L448.04,391.53L454.75,389.33L454.20,387.43L461.12,389.88L462.88,387.70L472.48,396.44L481.62,392.59L477.03,394.59L476.87,398.72L488.49,404.59L492.07,403.65L493.90,411.71L515.01,431.15L522.64,434.07L539.91,431.85L556.45,432.94L559.95,438.86L561.78,435.70L559.71,432.94L561.91,433.23L578.50,443.31L586.08,444.39L592.00,450.99L601.56,452.59L602.80,455.31L609.50,457.10L622.60,474.37L624.66,466.71L628.66,466.71L625.12,468.65L625.52,471.13L630.74,474.36L632.70,479.56L649.47,483.61L654.60,481.78L657.09,484.20L654.57,485.24L656.47,491.26L662.63,492.77L655.10,479.78L650.99,479.65L642.85,473.24L647.17,469.71L658.61,480.69L674.95,490.73L678.40,490.72L679.16,496.15L676.89,499.46L668.63,494.71L661.36,494.91L669.44,498.44L667.77,502.33L669.22,505.68L676.34,505.38L681.78,495.35L692.26,507.06L702.25,511.96L695.91,516.05L696.66,519.13L700.94,518.59L702.71,512.55L712.63,515.27L715.21,518.02L709.32,520.70L708.19,518.77L707.95,520.87L716.95,523.95L713.96,520.18L721.03,522.37L722.00,520.70L720.89,524.93L716.95,525.64L722.55,528.90L728.57,525.64L724.06,524.55L723.43,521.14L733.64,520.96L749.77,528.69L753.68,536.31L756.95,534.60L759.57,537.64L767.88,534.38L771.68,536.52L775.51,532.70L784.23,534.12L786.35,538.13L789.27,537.51L793.52,542.52L788.32,551.59L782.78,549.68L781.31,552.39L782.91,555.12L789.98,553.39L795.54,557.79L793.91,559.68L789.66,556.07L779.33,556.65L778.31,563.76L782.71,567.81L789.47,561.04L790.99,565.98L795.54,568.70L795.13,566.94L803.17,568.16L801.10,565.98L803.79,564.22L809.98,565.87L809.73,569.24L813.18,570.26L817.36,569.79L811.80,567.12L814.55,565.62L821.95,566.21L821.90,568.16L828.48,570.38L836.45,567.40L855.90,574.67L856.12,578.21L881.25,600.35L892.87,597.59L900.00,603.87L899.83,608.62L893.68,612.36L890.54,617.72L850.17,620.19L840.23,625.07L837.97,629.28L829.30,631.33Z M590.76,577.15L581.69,572.54L577.87,575.62L589.34,584.11L591.38,582.26L590.76,577.15Z M582.44,562.46L572.65,564.46L571.24,568.30L575.29,570.89L583.35,568.04L584.89,566.16L582.44,562.46Z M553.18,570.11L562.81,568.17L563.55,564.33L557.11,558.68L553.22,558.18L550.20,560.68L549.97,564.59L553.18,570.11Z M792.41,565.19L802.15,567.57L803.75,562.91L797.84,557.22L790.48,560.37L792.41,565.19Z M553.74,560.02L543.57,554.37L540.63,559.69L552.90,563.97L553.74,560.02Z M532.71,554.21L541.90,559.27L545.13,552.36L533.07,549.09L532.71,554.21Z M522.40,543.70L530.71,551.64L535.96,551.03L531.16,544.01L523.05,541.86L522.40,543.70Z M509.84,536.78L515.23,541.22L521.20,539.94L522.08,537.44L513.36,530.03L508.68,531.85L509.84,536.78Z M364.73,487.43L351.48,493.62L350.77,495.62L355.55,494.40L364.73,487.43Z M272.67,490.72L278.27,496.20L274.28,500.48L251.22,508.78L238.47,506.25L232.29,499.88L230.09,493.43L238.21,499.71L242.51,499.95L246.80,495.90L247.31,498.87L248.27,495.48L245.20,494.27L237.95,479.91L238.72,476.50L247.31,469.98L245.06,468.12L266.21,472.55L267.04,478.02L274.43,484.96L272.67,490.72Z M641.38,459.70L641.38,468.39L637.80,469.98L636.88,468.15L636.28,471.11L632.70,466.71L627.44,465.36L627.84,461.53L621.58,462.81L618.05,455.86L641.38,459.70Z M633.31,451.29L628.13,439.54L622.16,437.93L621.78,440.65L630.88,451.02L633.31,451.29Z M618.60,454.72L610.93,448.20L613.72,445.41L612.99,438.97L616.17,440.24L615.24,445.18L621.08,447.71L621.54,445.48L624.11,445.98L621.54,448.74L627.19,451.46L624.42,456.13L620.76,452.62L617.96,452.71L618.60,454.72Z M599.77,437.83L601.33,436.84L599.13,434.74L596.74,437.29L596.08,432.14L591.18,431.85L603.64,429.89L607.60,433.43L609.35,439.32L613.50,441.63L599.77,437.83Z M584.63,427.84L574.29,427.54L567.06,424.87L565.69,421.85L562.98,423.64L562.79,420.94L579.79,421.86L584.98,419.48L593.70,428.32L582.49,430.71L584.63,427.84Z M543.14,414.90L545.53,411.55L543.43,409.18L534.08,408.25L531.55,410.23L533.40,412.85L543.14,414.90Z M516.12,414.97L501.82,406.68L497.99,401.30L493.29,400.20L498.12,400.04L512.78,410.18L516.12,414.97Z M473.54,383.02L465.54,385.57L467.54,394.14L477.20,392.74L477.41,384.42L473.54,383.02Z M439.89,388.15L450.35,390.13L451.72,386.87L447.12,380.97L438.10,384.39L439.89,388.15Z M451.57,371.04L446.26,378.31L448.39,380.63L453.02,382.40L458.57,380.46L459.48,375.50L451.57,371.04Z M404.63,369.48L394.01,374.91L393.61,375.92L405.31,374.33L407.56,372.39L404.63,369.48Z M422.53,366.38L420.40,370.37L422.94,373.13L429.26,373.97L434.38,369.72L432.02,366.55L422.53,366.38Z M566.15,575.79L574.23,576.62L577.09,572.76L576.41,568.64L566.46,565.66L563.53,572.67L566.15,575.79Z M562.65,576.37L571.72,576.06L573.92,572.18L573.29,567.65L569.80,564.70L565.23,564.85L560.78,568.35L560.25,572.70L562.65,576.37Z M321.25,490.69L308.88,496.36L307.92,499.02L310.49,500.18L319.70,497.11L321.25,490.69Z M331.40,487.54L319.67,490.51L321.70,497.16L326.35,498.45L332.05,493.49L331.40,487.54Z M266.53,465.53L266.54,472.76L277.69,473.12L279.06,469.62L276.10,465.33L269.07,463.35L266.53,465.53Z M197.37,470.96L207.23,470.43L207.44,464.00L196.61,462.85L195.07,468.70L197.37,470.96Z M346.18,453.38L343.26,458.12L345.52,462.65L352.48,465.88L355.99,463.98L355.61,456.56L349.69,452.50L346.18,453.38Z M558.37,414.72L552.74,417.52L551.67,421.43L554.18,427.43L558.87,428.43L564.10,426.05L565.54,420.63L563.42,415.89L558.37,414.72Z M275.41,413.33L275.81,419.75L280.56,423.18L284.16,418.65L282.73,411.74L278.38,409.39L275.41,413.33Z M528.33,418.81L532.76,413.19L531.22,408.87L524.08,407.30L519.58,409.98L519.99,416.69L523.66,419.73L528.33,418.81Z M483.63,388.99L483.66,398.45L487.04,401.03L491.48,401.44L495.56,397.38L489.36,389.04L483.63,388.99Z M477.33,382.78L471.24,387.11L471.71,391.15L476.32,396.24L481.22,395.23L483.91,391.00L483.04,384.39L477.33,382.78Z M456.45,375.65L454.09,381.57L456.55,385.13L463.69,387.38L466.94,384.52L465.45,376.76L463.00,374.18L456.45,375.65Z M448.52,369.14L439.88,370.80L438.88,374.09L444.44,381.16L448.41,382.46L451.89,380.18L452.28,376.02L448.52,369.14Z M429.90,370.51L428.51,375.27L430.39,377.65L441.77,374.42L440.95,369.34L438.36,368.44L429.90,370.51Z M415.00,362.19L409.55,366.26L408.88,372.13L415.49,375.63L422.36,368.81L418.93,362.29L415.00,362.19Z M404.08,365.22L401.39,367.82L415.04,369.62L414.01,367.86L404.08,365.22Z M397.40,358.89L392.39,361.92L392.20,365.59L399.48,370.25L403.55,370.02L405.86,366.66L404.62,362.78L397.40,358.89Z" fill="currentColor" fill-rule="evenodd"/></svg>
