<svg xmlns="http://www.w3.org/2000/svg" viewBox="0 0 1000 1000" role="img" aria-label="Map of Cyprus"><path d="M766.57,461.72L760.37,460.89L751.19,455.90L766.57,461.72Z M752.37,447.54L750.99,439.00L740.19,439.59L740.21,445.47L744.91,450.49L747.97,451.85L752.37,447.54Z M726.55,456.28L705.16,479.35L683.96,544.99L594.00,570.82L593.57,585.81L532.69,609.72L456.66,612.76L402.41,650.02L413.36,624.20L381.02,631.20L357.39,609.69L290.71,639.13L181.98,598.32L125.26,510.48L100.00,410.97L106.52,397.98L162.20,426.87L221.02,355.91L253.44,368.81L269.89,349.98L342.64,418.38L494.94,363.02L550.68,389.22L571.18,367.15L600.90,364.26L619.68,399.24L619.68,461.72L646.29,426.30L657.87,452.53L672.98,439.21L726.55,456.28Z M770.96,423.40L866.22,419.42L900.00,468.45L861.67,456.46L785.71,469.22L794.90,454.21L770.96,423.40Z" fill="currentColor" fill-rule="evenodd"/></svg>
