<svg xmlns="http://www.w3.org/2000/svg" viewBox="0 0 1000 1000" role="img" aria-label="Map of Czechia"><path d="M423.72,305.41L444.05,305.30L445.77,286.93L441.55,280.80L446.64,275.66L458.95,282.93L463.27,277.33L478.11,288.13L476.48,297.81L486.54,310.31L488.33,320.64L498.47,316.10L527.19,328.71L539.97,326.64L546.59,339.03L561.19,338.40L564.40,346.29L562.43,352.15L574.80,344.24L585.34,348.40L592.03,341.65L603.83,344.74L614.99,358.77L606.31,372.48L589.57,380.09L588.19,388.35L595.64,396.03L605.26,395.01L608.49,404.47L616.40,408.22L627.91,424.77L631.65,436.78L642.78,445.81L661.38,428.61L678.26,420.32L684.71,422.79L667.08,387.95L670.29,383.46L705.17,393.45L707.92,401.16L722.91,405.46L723.42,415.23L728.90,412.86L733.18,418.75L738.53,414.16L757.49,414.79L766.78,405.82L771.47,422.97L752.75,432.93L757.87,443.36L769.62,445.47L773.33,458.24L782.33,467.70L805.19,462.35L801.64,454.29L835.98,479.78L845.02,475.33L858.40,481.83L867.56,479.89L871.66,489.98L868.45,498.68L874.49,515.35L894.70,523.65L900.00,552.70L888.08,558.19L864.77,557.94L862.29,565.47L847.25,574.80L846.96,583.51L820.37,598.84L810.29,637.63L791.18,644.36L787.00,658.47L777.15,660.85L769.06,671.43L746.31,680.59L702.79,672.01L685.96,692.81L676.45,718.89L667.92,697.83L644.49,695.09L640.71,686.96L626.08,681.94L616.15,683.97L606.99,696.31L574.67,693.45L543.08,669.71L526.84,672.25L478.67,648.72L474.36,655.32L462.98,657.75L462.44,647.56L446.64,644.49L441.98,651.47L439.02,689.79L422.53,687.28L411.11,706.25L407.76,724.01L382.02,711.73L375.77,722.17L365.16,727.37L332.61,719.44L328.51,712.41L331.58,707.32L326.72,701.28L305.96,689.13L295.18,670.63L284.84,665.83L281.44,656.16L259.97,653.63L244.84,629.11L230.51,624.58L209.36,592.19L195.73,584.00L183.09,585.29L167.18,567.51L164.74,552.77L150.41,532.62L149.75,523.40L136.40,510.03L144.58,503.27L153.03,480.30L145.76,475.47L144.42,466.43L120.21,454.62L112.20,441.23L111.71,429.37L100.40,418.35L104.12,412.13L100.00,405.06L108.66,405.69L112.07,413.57L119.36,415.81L126.55,433.37L130.82,415.44L151.39,391.56L172.89,390.48L187.76,381.61L203.76,388.74L208.98,383.33L210.52,372.50L228.34,371.71L236.89,356.11L245.56,357.26L253.04,347.62L262.41,353.32L275.27,333.24L308.18,330.13L322.99,315.75L331.91,315.66L355.26,301.57L368.80,301.42L372.99,293.96L355.99,282.66L361.82,272.69L374.87,277.04L384.86,272.63L395.77,283.94L392.93,295.57L402.27,293.99L400.37,307.77L417.66,314.27L423.72,305.41Z" fill="currentColor" fill-rule="evenodd"/></svg>
