<svg xmlns="http://www.w3.org/2000/svg" viewBox="0 0 1000 1000" role="img" aria-label="Map of Denmark"><path d="M164.12,756.48L165.71,745.97L161.87,730.61L166.51,708.26L153.11,706.19L152.40,715.75L145.82,722.02L141.22,714.31L144.64,695.24L156.52,698.53L152.15,704.97L167.37,706.55L159.23,646.22L139.31,640.93L124.71,616.75L116.30,621.80L120.01,627.39L116.83,630.17L124.73,639.84L100.00,623.60L109.80,586.96L103.69,534.32L111.13,557.48L111.15,570.11L133.80,550.29L121.22,516.36L106.17,509.17L104.48,533.03L101.44,526.85L104.37,489.97L103.08,419.50L109.47,394.99L114.14,387.43L112.12,401.47L123.89,410.10L124.05,418.95L124.58,413.97L133.66,412.66L147.55,420.92L153.35,413.97L161.42,434.14L171.58,433.43L175.66,417.11L166.51,404.26L173.20,402.54L180.52,390.22L193.14,387.51L184.53,384.75L197.56,368.34L209.74,366.38L222.54,387.56L209.31,402.74L209.45,416.63L220.20,407.02L216.34,405.52L220.20,397.17L219.52,401.75L233.90,402.95L230.96,413.97L239.56,423.84L244.84,416.71L235.88,417.59L239.54,395.53L237.24,390.22L221.75,391.61L230.08,379.72L222.42,367.71L226.46,356.10L221.04,349.78L225.28,340.66L235.32,328.81L252.13,323.26L271.50,334.36L280.69,320.26L306.41,316.30L292.79,306.57L283.30,315.76L279.12,312.11L230.40,327.75L215.56,316.30L207.42,324.62L166.25,337.89L158.13,358.83L144.92,370.11L143.22,386.05L148.96,390.26L135.49,391.61L155.67,391.61L158.15,403.34L152.65,411.08L129.14,390.74L123.44,376.32L116.83,373.54L117.08,388.48L115.98,374.81L117.31,366.41L159.27,303.21L178.08,306.89L200.37,295.44L228.73,299.50L249.30,294.55L267.57,278.78L312.21,207.84L338.36,205.84L377.07,176.80L389.53,178.19L377.46,185.95L364.76,212.08L377.92,239.61L374.62,248.57L377.07,280.04L362.61,298.82L355.32,326.15L343.14,329.69L315.35,309.35L307.67,316.30L316.18,311.15L337.77,329.44L351.53,331.72L346.10,347.02L354.57,385.77L332.57,384.75L293.95,401.47L327.44,392.82L333.03,386.36L343.39,391.67L353.85,388.52L354.54,405.52L340.26,418.15L336.74,436.21L341.53,434.95L342.90,418.94L353.41,409.00L357.37,418.12L369.23,425.76L409.18,423.04L425.26,440.51L419.31,463.80L401.60,485.12L399.70,500.34L392.17,498.17L389.53,493.45L393.92,486.56L387.22,483.45L378.22,495.52L381.00,508.88L378.09,511.19L371.65,503.31L375.52,500.53L373.72,497.17L362.29,498.24L356.17,490.67L371.65,487.77L369.86,481.99L373.18,475.25L361.65,471.09L340.92,501.69L346.07,516.79L342.16,528.33L347.42,528.18L336.61,565.66L327.50,555.74L300.93,561.93L321.14,569.68L317.92,579.53L322.74,582.80L316.55,592.65L292.40,598.07L265.66,590.52L277.24,594.83L286.28,607.18L299.38,607.80L282.72,626.00L259.05,635.74L277.43,638.07L276.15,645.59L269.10,648.36L270.70,660.88L283.11,684.75L280.18,695.15L257.72,703.57L260.62,708.26L254.34,709.78L266.02,717.99L251.82,727.73L268.33,725.06L285.45,736.31L289.11,755.64L282.34,758.55L287.15,768.76L273.25,762.80L271.78,755.08L275.62,753.03L272.31,749.08L252.12,774.02L238.52,775.76L191.71,756.15L164.12,756.48Z M525.55,781.55L520.82,794.82L525.30,796.89L521.25,805.59L498.55,803.29L483.12,811.49L429.24,778.78L441.60,769.67L431.46,758.55L433.01,751.81L455.60,743.26L471.16,759.58L496.76,773.83L494.27,766.32L503.74,762.60L502.96,752.98L518.59,769.67L525.55,781.55Z M367.00,755.77L374.75,765.50L359.43,769.83L337.41,739.96L355.59,756.40L360.33,756.66L360.04,751.60L364.26,761.33L368.22,760.92L367.00,755.77Z M571.16,723.01L603.66,734.89L605.27,744.09L582.21,743.51L566.27,758.55L555.75,754.25L562.78,737.57L575.23,737.57L576.06,730.61L571.16,723.01Z M317.25,740.36L323.26,759.60L310.70,763.34L301.70,757.15L315.00,759.94L291.12,752.31L288.54,739.09L298.67,745.92L293.18,732.01L279.01,731.09L281.56,725.06L273.83,723.56L292.54,718.94L317.25,740.36Z M412.89,726.45L417.49,710.64L424.43,704.08L399.97,785.78L394.62,789.26L384.10,768.29L398.09,758.55L393.39,754.25L394.98,749.35L412.89,726.45Z M900.00,708.26L895.68,731.65L891.08,737.08L857.99,724.97L847.03,714.74L849.87,687.37L855.73,672.42L900.00,708.26Z M143.22,665.05L134.82,658.01L131.65,641.06L141.74,648.36L143.22,665.05Z M399.14,720.75L376.98,729.32L342.51,716.60L338.29,722.29L323.43,716.60L333.64,706.86L328.76,697.96L316.36,695.20L318.86,709.78L314.32,709.37L313.63,692.05L302.80,683.77L302.89,664.36L293.56,661.61L290.80,657.96L297.83,653.93L282.34,640.02L294.66,645.59L279.25,634.47L288.19,624.60L296.39,623.73L303.28,631.82L342.86,612.10L349.25,615.66L350.83,609.52L374.78,626.78L369.84,627.08L371.06,634.65L363.53,641.97L369.42,645.18L385.02,635.10L380.23,628.78L385.54,627.91L383.33,617.65L385.64,620.44L387.11,610.46L400.12,636.13L380.73,641.48L378.77,645.28L395.08,645.75L410.55,676.28L403.59,676.93L408.38,691.80L404.77,710.09L399.14,720.75Z M612.52,595.29L619.19,612.97L605.78,623.31L601.69,609.32L612.52,595.29Z M373.96,567.37L381.74,549.81L374.39,541.73L377.63,532.21L381.74,544.73L387.19,547.92L386.41,556.26L391.84,556.22L381.96,580.71L374.94,574.84L373.96,567.37Z M547.29,757.15L553.64,756.12L562.00,768.29L538.25,797.65L536.93,823.20L527.87,804.67L532.52,792.04L528.63,790.40L529.42,784.96L521.06,775.09L509.99,747.42L529.42,739.09L524.77,729.22L499.16,716.60L523.15,725.06L510.69,709.78L520.82,705.47L511.93,703.87L510.69,692.97L502.96,698.53L477.31,690.20L458.92,694.54L456.38,686.02L459.70,687.35L461.79,683.24L456.76,684.75L456.72,678.68L446.66,668.51L450.89,665.05L441.60,667.82L439.28,662.38L453.62,653.17L447.92,633.20L438.50,630.92L445.85,618.09L439.30,607.75L421.39,599.46L439.28,600.99L415.22,584.17L447.79,582.80L443.15,585.44L451.17,592.80L454.05,591.13L450.89,585.44L470.60,579.62L471.92,570.90L468.83,564.71L483.48,564.06L486.61,558.53L483.46,543.74L463.86,538.35L460.24,532.50L497.29,543.59L516.44,537.80L513.68,551.39L504.51,550.70L512.28,566.26L510.69,570.28L498.24,575.97L513.09,573.06L515.81,582.80L503.85,586.59L513.95,586.56L519.40,595.33L517.74,600.99L526.32,586.19L527.87,571.55L537.45,561.62L532.45,549.01L535.31,545.31L542.51,551.59L548.60,585.41L539.61,588.51L532.52,600.99L542.84,593.14L549.55,602.24L553.49,586.96L545.67,543.74L527.46,544.15L527.47,537.35L570.50,505.60L597.82,511.64L613.22,522.89L600.84,546.40L610.99,573.06L610.99,591.13L597.94,611.23L580.27,614.17L565.17,636.13L568.20,646.84L592.00,661.34L595.43,676.28L563.43,689.12L553.93,706.58L551.40,698.33L544.37,701.28L562.78,713.94L556.14,720.40L561.23,730.61L559.59,736.57L546.45,741.87L531.05,736.31L530.25,749.70L537.93,745.92L547.29,757.15Z M487.41,390.22L488.38,386.17L502.96,383.27L495.21,393.12L487.41,390.22Z M189.10,367.85L176.06,389.56L163.85,393.75L155.67,381.87L147.55,381.52L151.02,370.76L165.03,363.68L159.62,362.42L163.08,349.77L181.45,346.48L194.52,332.99L191.29,353.71L184.40,352.69L189.10,367.85Z M445.47,260.57L451.61,266.58L436.88,268.92L439.66,276.77L432.60,287.12L412.89,274.36L445.47,260.57Z" fill="currentColor" fill-rule="evenodd"/></svg>
