<svg xmlns="http://www.w3.org/2000/svg" viewBox="0 0 1000 1000" role="img" aria-label="Map of Djibouti"><path d="M790.22,648.93L650.61,868.97L628.40,878.21L583.71,870.02L565.14,839.18L514.93,828.09L416.35,865.78L286.22,872.81L216.31,900.00L138.71,870.14L150.45,751.57L133.34,626.39L152.41,551.48L215.81,496.14L433.60,184.40L473.51,195.24L542.51,256.52L592.72,225.41L589.62,185.80L626.44,136.78L736.03,100.00L808.93,195.11L829.25,198.60L866.66,317.31L866.23,391.84L850.29,416.33L775.17,437.48L708.65,506.86L586.09,538.97L537.99,612.62L470.69,610.12L481.08,642.12L509.71,657.97L544.01,650.43L536.81,636.46L549.49,622.78L620.71,600.38L729.73,608.83L751.09,593.18L765.17,631.52L790.22,648.93Z" fill="currentColor" fill-rule="evenodd"/></svg>
