<svg xmlns="http://www.w3.org/2000/svg" viewBox="0 0 1000 1000" role="img" aria-label="Map of Dominican Republic"><path d="M154.93,277.42L163.01,280.32L158.56,262.92L151.97,260.17L176.40,242.52L175.82,235.24L209.95,231.40L261.44,248.59L273.63,248.23L278.05,240.74L282.30,248.93L283.79,240.94L296.48,240.94L319.59,225.11L331.34,236.23L331.34,231.40L353.90,231.40L365.78,248.93L401.68,264.45L443.03,262.45L476.30,290.82L512.08,297.58L528.26,284.69L548.90,284.65L561.97,299.79L558.28,318.26L566.15,342.88L587.98,371.73L640.15,362.07L682.02,373.19L704.73,357.11L701.35,371.76L719.31,370.05L708.41,394.51L699.86,398.44L620.71,388.85L617.18,412.19L622.64,419.14L654.20,421.15L659.60,420.54L652.04,415.69L663.66,415.07L677.57,428.39L717.36,438.06L724.70,428.85L743.22,445.79L760.41,433.00L811.71,448.79L895.18,519.55L900.00,537.77L876.66,571.84L873.53,588.20L860.27,590.58L844.53,582.59L831.87,621.07L811.00,623.44L794.21,591.74L771.93,575.69L736.47,579.46L686.49,566.91L640.75,576.58L620.82,565.34L614.34,575.40L603.29,565.56L569.75,561.86L533.81,575.90L500.04,617.26L450.89,615.83L417.10,623.50L417.30,613.35L407.54,604.00L411.31,581.81L398.61,571.76L384.24,571.59L376.00,588.76L353.29,591.80L334.48,610.34L301.51,600.49L297.29,611.85L306.48,637.79L275.33,690.87L252.46,712.64L228.98,761.27L204.08,726.74L171.94,724.39L182.47,712.55L176.40,681.17L150.84,661.42L151.32,624.14L165.40,598.45L121.26,571.45L123.02,559.03L100.00,532.82L136.62,528.42L163.01,494.53L160.15,467.61L146.48,450.49L131.44,448.79L149.22,441.47L179.70,405.58L180.69,391.87L163.84,383.67L150.78,365.35L166.59,345.33L154.93,277.42Z M205.63,774.89L201.96,767.86L206.38,757.48L218.12,766.91L205.63,774.89Z M801.43,625.24L842.38,632.25L848.25,645.66L812.29,642.04L801.43,625.24Z" fill="currentColor" fill-rule="evenodd"/></svg>
