<svg xmlns="http://www.w3.org/2000/svg" viewBox="0 0 1000 1000" role="img" aria-label="Map of Ecuador"><path d="M728.29,351.76L740.62,363.14L744.67,363.29L762.08,376.24L771.70,378.47L775.05,381.58L781.95,379.96L784.70,386.01L793.16,389.13L796.53,401.69L811.53,403.54L821.08,408.72L828.15,409.06L828.61,406.94L836.20,409.87L843.70,408.04L843.31,401.01L848.83,398.16L857.46,403.40L860.61,402.84L871.84,415.40L880.95,416.41L897.32,425.28L890.36,427.98L880.17,426.32L887.72,431.99L891.50,441.28L898.41,446.10L896.67,455.81L900.00,466.44L894.21,466.68L891.46,463.83L883.51,493.50L858.81,521.72L830.52,542.93L774.10,562.81L758.44,580.62L760.00,586.04L757.01,587.45L755.54,582.81L751.08,581.85L747.79,601.00L744.08,608.56L741.00,610.00L735.27,626.56L737.42,631.72L735.73,637.25L724.96,644.08L724.88,651.21L721.06,652.66L717.08,659.21L705.67,656.82L698.64,649.61L694.96,640.45L695.94,636.32L688.75,631.90L680.42,633.81L665.76,624.47L654.19,633.69L648.98,630.67L655.99,620.43L650.06,621.14L648.99,611.68L652.07,610.08L656.93,611.70L664.57,605.72L659.78,583.61L656.19,580.85L657.82,578.57L657.46,581.21L658.79,578.57L665.98,578.90L669.59,573.00L670.54,576.62L674.68,572.69L685.49,543.90L680.10,533.56L678.71,523.25L683.62,515.81L677.60,521.10L677.40,541.49L672.52,544.58L669.42,543.11L672.36,538.48L675.80,538.67L670.81,538.18L674.83,530.23L671.84,531.14L664.10,543.56L659.12,544.79L660.27,550.40L650.14,545.05L641.14,535.41L628.89,530.78L624.15,523.54L630.94,525.27L636.93,520.48L637.29,517.65L636.19,505.92L631.66,495.94L636.96,484.27L629.08,470.02L633.53,465.32L645.28,463.69L651.04,449.09L658.19,451.76L653.77,450.01L648.78,438.37L670.00,415.89L670.14,405.00L672.88,402.75L670.37,398.29L670.71,390.36L667.29,387.03L668.83,381.25L679.02,378.37L688.86,372.31L688.18,376.22L690.81,379.86L689.96,373.15L699.38,368.76L712.22,367.72L717.40,362.10L720.52,366.77L723.51,360.88L729.05,359.25L725.75,357.25L728.29,351.76Z M669.59,547.19L676.87,550.51L666.20,564.27L659.77,564.15L662.40,550.15L669.59,547.19Z M722.28,351.92L716.64,358.49L721.49,364.86L726.86,362.70L728.64,359.45L727.43,352.00L722.28,351.92Z M678.13,537.72L675.45,547.76L679.22,549.52L686.38,541.65L681.57,535.70L678.13,537.72Z M211.82,480.52L205.71,481.57L204.40,487.22L216.22,489.45L216.73,484.12L211.82,480.52Z M170.36,476.57L167.59,483.48L173.77,487.36L177.41,486.64L181.40,480.74L179.83,478.37L174.83,475.41L170.36,476.57Z M223.65,454.21L231.09,452.69L223.32,464.03L217.39,465.81L213.32,464.34L223.65,454.21Z M186.52,445.85L186.19,452.69L179.60,457.24L169.71,452.69L170.52,447.36L173.71,444.69L183.09,443.22L186.52,445.85Z M129.46,441.79L129.53,434.87L126.66,432.03L115.62,433.46L118.89,442.50L123.99,444.12L129.46,441.79Z M168.73,433.77L166.83,437.82L156.66,436.38L154.00,433.12L158.62,427.22L165.52,429.78L168.73,433.77Z M148.47,447.80L157.93,456.14L151.39,466.46L140.38,469.32L127.21,467.76L124.05,462.93L125.78,458.71L133.19,452.77L140.47,452.56L143.86,447.96L138.04,443.29L136.62,438.12L130.12,433.62L127.81,421.54L121.15,422.65L119.23,420.86L124.28,415.12L132.56,413.53L134.48,418.59L138.02,420.69L139.72,431.07L150.09,440.31L148.47,447.80Z M170.18,410.32L178.81,408.13L179.99,404.84L177.97,401.98L173.37,399.59L167.59,401.19L166.52,406.15L170.18,410.32Z M153.04,388.59L153.34,395.32L161.91,397.65L164.20,390.31L161.85,386.07L156.94,384.44L153.04,388.59Z M103.56,358.79L109.21,361.58L114.35,358.90L115.96,353.82L113.77,349.53L108.57,347.84L104.04,349.69L102.00,354.15L103.56,358.79Z M102.62,356.71L110.27,360.56L114.25,358.14L115.89,353.15L113.55,348.46L108.37,346.78L102.04,352.31L102.62,356.71Z M101.50,347.97L106.31,344.31L106.33,338.57L101.61,334.33L96.03,335.48L93.36,341.24L95.77,346.62L101.50,347.97Z" fill="currentColor" fill-rule="evenodd"/></svg>
