<svg xmlns="http://www.w3.org/2000/svg" viewBox="0 0 1000 1000" role="img" aria-label="Map of Egypt"><path d="M723.37,170.34L741.73,219.03L745.39,231.45L744.78,236.77L749.53,241.56L758.30,265.93L768.36,304.31L758.52,317.44L758.02,325.69L754.45,332.47L755.18,341.13L752.21,344.06L751.17,359.69L737.12,390.24L737.31,396.62L740.08,400.90L738.75,415.53L724.28,429.05L727.11,430.66L727.11,433.67L722.68,429.40L713.81,427.36L694.73,411.98L681.72,391.92L673.14,386.83L661.50,373.78L661.94,371.36L661.50,373.23L659.69,371.92L657.47,364.16L659.67,357.64L656.15,352.27L656.37,341.06L637.21,322.45L632.73,309.89L627.32,304.76L626.03,306.81L624.43,286.42L618.79,279.77L620.15,276.09L616.63,272.08L617.04,266.02L616.63,271.07L612.82,269.68L610.42,271.84L610.16,275.52L612.56,276.64L604.91,286.37L601.30,296.79L617.26,313.19L622.35,332.16L620.16,342.30L628.27,354.63L632.05,356.59L636.11,371.22L644.90,377.79L661.05,403.24L667.22,410.02L673.66,412.52L681.04,421.34L683.51,429.07L676.75,425.06L675.74,426.72L678.96,431.96L681.27,431.37L679.89,435.18L683.51,439.69L681.27,437.14L677.24,439.69L681.72,445.21L681.27,447.76L686.19,450.76L690.04,462.07L699.65,469.36L699.55,478.31L709.99,494.78L709.99,499.09L706.85,499.59L706.40,512.63L711.16,515.70L732.44,560.49L746.06,580.81L775.11,641.04L775.93,647.60L779.94,651.39L786.28,665.30L785.25,670.77L801.46,686.73L808.15,699.50L808.81,697.18L814.34,701.93L815.45,706.12L824.19,708.73L827.72,714.68L824.96,712.46L815.01,712.69L809.46,709.18L807.49,713.54L806.90,722.34L809.21,725.39L807.86,744.44L811.67,752.01L813.44,765.33L816.49,770.71L818.68,775.53L821.35,785.93L825.83,790.46L823.19,785.95L825.31,786.65L827.22,793.19L833.85,800.35L856.14,807.72L861.86,818.28L869.38,823.09L870.14,828.21L888.09,841.96L892.58,842.31L900.00,849.53L899.23,854.70L542.17,854.73L545.86,841.66L541.37,837.72L537.19,840.57L529.91,854.80L119.18,854.73L119.18,326.98L111.48,303.36L111.93,293.42L107.18,281.81L108.06,274.87L100.00,253.43L114.35,230.23L120.07,209.20L112.71,190.54L110.51,167.81L121.96,157.11L126.20,148.36L130.29,145.20L132.92,154.38L146.74,156.46L174.41,148.25L183.77,148.13L242.68,161.33L249.22,160.39L266.31,166.41L272.49,165.43L280.73,177.02L294.76,180.18L307.38,175.77L312.23,186.14L337.88,189.02L344.83,187.29L370.24,196.59L371.79,199.97L384.40,206.12L396.90,205.31L415.54,196.60L433.77,182.55L437.50,182.10L440.03,177.73L452.65,168.92L454.31,172.44L459.41,173.48L457.28,175.99L458.92,177.49L465.71,173.93L467.02,175.94L466.94,172.98L459.85,172.98L468.60,167.67L470.63,156.84L474.22,160.86L471.83,156.05L478.00,159.43L483.21,159.35L511.92,150.32L483.66,163.86L489.17,164.87L492.33,162.45L496.22,164.91L500.43,160.63L506.58,162.64L509.68,159.85L512.37,161.36L515.54,155.34L521.44,157.20L520.91,153.78L512.19,150.50L520.02,148.77L550.12,160.86L570.93,154.08L575.55,155.16L580.80,164.04L592.25,171.75L578.84,164.41L577.09,161.36L578.74,161.26L571.93,154.34L568.99,156.84L571.23,161.90L568.79,159.30L567.65,160.86L571.23,162.86L568.05,163.40L569.89,167.42L565.88,167.01L563.89,172.51L571.68,176.99L573.02,174.94L572.13,177.49L574.35,179.68L578.29,176.50L581.60,177.49L580.22,184.01L582.45,183.01L583.76,185.56L582.05,187.06L586.15,189.50L587.83,188.57L585.59,186.56L588.76,187.57L591.22,184.24L594.51,185.71L597.75,183.39L597.71,173.93L592.74,171.75L600.89,173.48L618.59,188.94L629.11,187.45L639.94,182.00L634.19,185.98L622.85,189.57L625.09,190.57L637.70,186.01L639.28,187.33L639.93,185.20L645.36,189.28L648.92,183.51L646.69,186.01L641.72,185.56L651.87,178.99L655.04,184.76L652.50,185.56L653.44,190.07L659.22,189.02L657.47,188.02L661.91,186.01L664.63,187.57L665.52,186.01L662.87,185.56L670.04,185.01L671.34,182.00L683.51,185.01L700.70,181.41L723.37,170.34Z M816.49,770.71L803.91,782.53L789.68,796.64L798.44,788.17L816.49,770.71Z M766.73,804.43L761.20,817.68L764.52,809.81L766.73,804.43Z M754.95,832.50L737.95,836.08L719.91,840.29L731.29,837.76L754.95,832.50Z M703.65,504.21L707.70,511.48L713.82,510.81L711.02,499.39L704.84,499.45L703.65,504.21Z M707.33,445.53L702.47,447.40L703.28,450.84L712.31,456.35L715.52,455.82L715.44,452.56L707.33,445.53Z M748.11,415.21L747.67,411.97L744.17,409.81L739.70,413.35L743.90,421.54L752.41,421.84L753.38,418.49L748.11,415.21Z M647.45,182.60L641.42,180.83L637.48,183.46L636.45,188.08L638.89,192.14L644.78,194.33L648.95,192.01L650.34,187.45L647.45,182.60Z M662.29,177.72L675.80,183.23L676.11,183.13L673.15,180.54L662.29,177.72Z M640.43,182.55L651.57,175.77L661.91,176.99L651.43,176.76L640.43,182.55Z M762.81,415.93L755.09,412.07L749.63,416.37L749.05,420.01L754.10,424.55L757.80,424.97L762.42,418.98L762.81,415.93Z" fill="currentColor" fill-rule="evenodd"/></svg>
