<svg xmlns="http://www.w3.org/2000/svg" viewBox="0 0 1000 1000" role="img" aria-label="Map of El Salvador"><path d="M102.87,524.10L100.00,485.65L127.84,453.94L189.86,412.26L219.09,419.58L238.25,374.40L293.05,353.33L268.57,320.49L273.31,295.30L282.88,292.22L287.47,302.22L334.92,280.43L415.85,312.54L431.26,297.29L435.57,314.73L455.95,321.96L478.16,367.11L506.24,369.56L520.33,398.16L550.94,394.43L550.85,414.52L569.32,429.01L631.15,437.99L633.66,483.21L703.71,464.52L719.98,453.54L717.15,436.10L756.76,435.41L769.30,439.07L793.24,478.04L858.67,461.14L896.55,495.57L867.94,591.87L886.67,600.44L890.73,616.44L858.91,634.96L851.91,623.22L840.15,649.05L867.95,675.76L822.11,719.57L690.62,716.86L681.56,714.32L689.57,706.45L679.52,695.67L686.32,707.32L660.83,715.16L652.14,702.66L661.21,698.21L649.31,686.83L647.61,700.32L599.90,676.83L558.77,681.70L606.95,684.01L620.47,698.21L599.90,695.67L641.25,705.92L645.29,716.28L537.92,690.01L383.55,612.52L241.59,591.22L199.07,593.90L185.28,566.59L102.87,524.10Z M890.08,717.71L895.73,701.45L900.00,716.42L890.08,717.71Z M869.25,692.36L876.42,702.80L882.43,697.00L881.64,693.55L872.10,689.21L869.25,692.36Z" fill="currentColor" fill-rule="evenodd"/></svg>
