<svg xmlns="http://www.w3.org/2000/svg" viewBox="0 0 1000 1000" role="img" aria-label="Map of Equatorial Guinea"><path d="M684.98,332.99L688.35,345.97L711.76,357.64L898.00,357.62L900.00,520.88L717.14,520.27L710.33,521.15L705.20,531.28L685.65,520.99L684.91,512.62L691.69,510.62L671.53,506.80L673.54,502.11L654.86,514.75L646.53,502.11L628.58,505.16L621.61,495.33L635.82,476.11L638.22,462.75L659.12,438.47L665.34,441.65L677.27,436.79L666.25,440.21L658.07,430.58L686.40,389.92L680.06,367.34L683.14,346.10L680.41,337.37L684.98,332.99Z M562.29,135.81L567.39,142.79L566.28,153.07L529.20,213.26L496.18,202.68L492.24,193.39L495.05,181.91L499.49,176.07L514.29,176.03L513.40,169.25L520.09,163.08L526.54,139.24L537.21,132.78L562.29,135.81Z M104.24,867.42L104.82,859.03L101.91,856.03L97.27,861.91L99.79,869.50L104.24,867.42Z" fill="currentColor" fill-rule="evenodd"/></svg>
