<svg xmlns="http://www.w3.org/2000/svg" viewBox="0 0 1000 1000" role="img" aria-label="Map of Eritrea"><path d="M900.00,806.49L870.25,816.61L860.26,830.11L861.10,841.01L847.47,849.58L823.26,830.22L817.91,829.72L811.76,836.46L788.51,803.38L760.02,785.65L731.95,739.60L669.82,694.03L652.08,662.25L626.92,633.33L584.68,616.18L560.44,596.34L539.83,588.74L514.45,593.62L503.05,585.13L485.60,584.95L469.36,576.12L461.41,583.89L439.89,586.20L432.68,591.93L423.03,571.86L408.96,565.79L405.36,576.21L391.78,585.31L339.28,594.78L325.71,582.13L315.67,562.26L302.03,562.10L289.06,556.73L275.28,537.52L234.91,633.39L203.84,589.80L183.19,594.33L175.92,612.17L168.17,613.74L162.38,608.71L138.61,605.32L112.11,613.81L100.00,506.07L111.93,491.89L117.99,473.87L124.24,467.40L122.90,456.76L129.39,433.03L139.98,418.87L155.09,375.84L163.25,364.27L160.80,346.96L153.96,335.13L155.85,319.86L163.98,311.34L168.69,294.43L165.55,267.13L184.74,272.84L205.75,268.02L216.95,271.17L227.85,253.25L228.02,236.21L254.84,227.34L264.21,215.78L275.81,220.06L292.90,206.98L296.77,208.23L297.40,215.44L302.54,207.30L316.15,209.77L318.93,200.25L332.64,188.32L343.16,164.55L360.17,150.42L399.31,225.69L402.13,243.48L409.28,254.40L425.68,309.94L425.83,333.16L428.95,334.15L431.39,361.76L442.95,407.56L460.03,422.03L458.78,428.98L464.91,440.71L460.94,443.92L465.75,444.09L459.21,447.90L462.48,457.62L473.75,455.43L480.87,460.67L493.65,489.91L493.33,510.94L504.77,512.82L509.95,501.11L505.54,487.76L502.19,490.70L501.14,488.14L500.25,474.22L504.27,465.76L512.42,460.16L536.88,480.39L530.51,493.21L537.05,502.22L539.50,514.59L545.77,517.98L546.38,524.79L561.61,533.31L573.92,522.19L575.31,526.79L581.65,522.04L586.98,527.27L588.61,520.43L594.39,528.12L601.01,528.95L602.36,535.97L610.35,535.45L607.52,537.42L614.88,544.19L613.86,552.68L618.94,560.33L633.05,557.95L666.88,567.56L683.54,585.90L687.02,596.66L707.33,620.02L711.62,630.83L721.09,638.57L727.73,653.85L742.26,654.58L748.34,661.79L762.78,665.57L779.14,690.60L783.59,689.76L793.16,701.70L790.15,696.16L792.66,691.96L785.51,688.99L788.49,687.64L800.87,699.14L811.75,742.74L823.39,746.22L830.22,741.51L844.75,761.35L853.63,766.21L859.79,788.66L866.30,787.04L877.32,796.35L883.31,792.12L886.05,782.66L896.26,792.50L900.00,806.49Z M559.24,435.46L576.84,448.49L574.41,451.71L524.80,447.47L519.84,435.63L523.91,440.71L537.05,440.71L528.38,431.37L519.01,430.99L519.41,424.97L526.13,427.23L524.37,421.61L531.80,418.75L521.46,411.87L538.27,417.34L538.77,425.41L543.64,422.74L546.91,442.79L555.07,444.93L558.59,440.45L553.52,437.71L559.24,435.46Z M540.60,389.58L536.58,396.38L541.02,400.48L526.13,396.54L532.97,390.88L533.36,385.45L540.60,389.58Z" fill="currentColor" fill-rule="evenodd"/></svg>
