<svg xmlns="http://www.w3.org/2000/svg" viewBox="0 0 1000 1000" role="img" aria-label="Map of Estonia"><path d="M411.46,675.20L423.06,637.74L431.35,625.92L432.21,582.73L441.97,573.46L442.29,562.73L418.47,547.37L403.55,575.65L392.55,576.47L386.97,585.12L370.42,566.42L351.95,557.84L340.30,560.47L332.30,538.20L332.49,516.72L320.58,511.71L317.67,502.46L310.15,507.46L309.67,475.05L315.83,471.91L314.12,462.77L348.05,466.82L345.90,455.39L357.09,456.92L345.74,449.84L301.08,458.57L313.25,445.30L300.15,418.98L326.04,406.79L325.27,398.05L317.49,388.99L324.37,399.02L316.63,408.78L298.42,395.57L308.79,380.42L312.26,384.04L306.29,350.50L327.82,339.56L338.98,346.08L338.12,337.71L342.30,333.22L377.77,330.89L383.06,336.20L385.51,330.60L375.35,313.02L377.30,307.85L400.85,315.94L393.45,304.56L411.46,300.50L414.94,288.05L453.81,296.31L451.20,288.05L457.89,281.91L470.19,293.00L475.62,283.53L470.19,266.46L474.07,263.92L490.56,279.01L511.13,281.46L517.13,271.49L550.36,283.11L551.16,274.40L567.27,272.46L561.40,263.83L559.86,239.92L584.02,264.99L589.28,259.79L583.25,243.38L586.28,239.66L597.08,248.17L602.83,262.76L609.99,249.22L617.73,258.08L623.27,248.49L636.17,260.26L659.97,259.85L687.39,271.29L708.45,268.40L742.77,293.00L802.12,292.57L860.57,303.27L878.92,285.36L900.00,311.17L876.60,321.12L888.72,324.58L886.17,328.00L861.70,335.15L856.68,362.81L840.43,403.71L810.77,431.85L802.32,460.98L820.48,547.86L812.83,566.15L812.99,589.85L829.99,622.03L834.34,663.07L851.26,676.92L816.67,689.91L820.35,692.94L813.88,698.31L814.55,712.27L799.90,720.62L798.72,739.35L791.92,744.07L795.05,757.49L761.37,752.22L748.24,737.83L734.59,733.43L724.90,746.93L687.61,760.34L662.13,740.21L627.83,697.87L626.54,681.33L598.61,678.15L590.76,661.93L574.55,664.57L534.28,625.62L530.23,630.99L534.62,641.39L528.09,646.89L519.84,629.17L510.68,627.09L475.75,648.99L465.26,645.24L459.13,656.02L440.12,656.63L420.53,677.32L411.46,675.20Z M365.55,617.56L374.17,618.38L375.74,605.20L366.24,605.52L365.55,617.56Z M237.19,494.19L288.97,533.10L279.92,530.80L276.93,533.10L282.01,537.89L276.58,537.08L266.71,527.98L252.36,553.60L241.32,551.29L243.17,556.34L234.76,568.02L211.91,578.04L216.37,584.83L212.15,588.90L188.46,581.98L184.58,589.35L181.14,584.14L158.26,596.76L146.66,644.82L127.19,663.87L119.86,658.91L116.50,647.21L120.80,647.21L131.90,623.40L139.70,624.13L146.66,607.62L130.21,600.87L123.23,586.85L108.07,582.78L101.43,572.42L109.55,571.18L105.15,560.82L114.13,566.34L117.08,557.69L122.52,557.84L100.00,519.90L120.55,519.53L132.36,541.35L134.16,525.64L144.74,512.20L155.50,522.07L157.41,505.81L190.39,491.25L202.71,501.60L237.19,494.19Z M288.59,485.57L297.40,509.17L292.60,514.71L276.58,514.18L254.48,497.56L271.91,478.92L288.59,485.57Z M292.84,394.76L295.45,406.45L284.66,408.78L267.56,409.26L261.37,396.49L268.43,390.67L292.84,394.76Z M157.84,427.07L145.66,428.81L126.73,417.17L179.41,408.78L176.76,405.45L182.60,406.31L182.49,397.78L191.52,392.47L195.03,380.74L205.04,381.24L211.02,384.94L208.18,391.81L213.85,400.53L238.71,405.61L252.11,440.22L231.85,442.17L232.75,452.37L227.54,455.75L219.10,451.96L224.26,442.91L219.01,444.19L203.57,473.56L191.07,477.37L179.41,470.26L183.71,465.16L175.24,437.40L157.84,427.07Z M436.99,256.93L433.64,266.91L441.62,270.25L443.01,266.62L436.99,256.93Z M272.87,685.59L272.27,692.51L281.89,697.39L283.06,693.87L277.28,684.67L272.87,685.59Z" fill="currentColor" fill-rule="evenodd"/></svg>
