<svg xmlns="http://www.w3.org/2000/svg" viewBox="0 0 1000 1000" role="img" aria-label="Map of Ethiopia"><path d="M158.73,531.62L159.16,470.90L171.31,441.50L168.83,423.02L176.33,411.38L184.59,405.79L193.98,413.37L194.18,416.61L198.67,414.17L205.06,404.75L202.67,402.07L206.44,389.45L204.31,385.84L211.19,369.85L209.45,360.21L211.17,355.26L218.79,351.06L224.22,344.19L226.17,337.58L243.99,309.84L266.80,307.53L267.97,289.66L273.12,271.87L281.54,259.01L285.11,247.08L283.72,238.98L288.75,223.11L300.58,219.41L317.24,222.39L320.49,214.61L329.71,212.63L343.58,231.65L361.61,189.81L367.76,198.20L379.64,200.61L384.12,209.28L390.18,214.80L413.62,210.67L419.69,206.70L421.29,202.15L427.57,204.80L431.88,213.56L435.10,211.06L444.71,210.05L448.26,206.66L455.51,210.51L463.30,210.59L468.39,214.30L479.72,212.17L488.93,215.49L499.75,224.14L518.61,231.63L529.84,244.25L537.76,258.12L565.50,278.01L578.04,298.11L590.76,305.85L601.14,320.29L577.49,354.80L569.81,361.45L567.49,370.45L569.57,385.49L568.15,399.74L577.55,403.32L586.02,400.06L601.79,399.21L613.74,394.68L619.83,396.02L622.08,399.72L630.18,399.60L615.43,419.41L621.76,429.16L625.52,442.34L633.29,448.63L637.87,457.78L644.25,459.89L647.54,472.38L654.04,478.23L656.62,485.32L667.43,489.43L686.82,507.20L846.63,561.89L900.00,561.89L816.99,642.97L737.88,728.66L685.97,726.37L662.46,732.44L640.62,742.92L632.14,749.97L628.90,758.41L625.27,761.59L586.38,767.56L576.80,774.12L572.13,780.67L564.86,778.10L536.21,781.03L514.90,762.53L466.05,785.11L461.56,794.92L447.69,810.19L444.05,807.00L437.39,806.80L437.63,805.24L432.48,806.65L424.40,803.53L415.18,804.23L394.57,796.81L391.20,799.47L372.84,798.87L314.86,757.90L305.71,754.57L262.86,753.95L257.48,750.47L256.43,744.45L247.40,731.75L250.21,706.68L232.33,700.59L225.70,704.83L222.63,703.65L221.27,696.21L212.55,690.23L205.92,677.22L205.12,666.48L199.00,656.38L191.46,632.79L181.92,629.12L180.80,621.71L168.90,616.84L164.50,612.28L163.60,606.72L155.71,602.23L154.26,593.60L138.76,580.24L125.22,575.24L119.07,576.90L113.03,573.42L103.66,572.62L100.00,566.18L110.43,554.08L111.66,547.99L109.18,542.16L113.10,537.07L133.66,536.80L140.09,541.86L151.26,538.29L158.73,531.62Z" fill="currentColor" fill-rule="evenodd"/></svg>
