<svg xmlns="http://www.w3.org/2000/svg" viewBox="0 0 1000 1000" role="img" aria-label="Map of Fiji"><path d="M651.63,424.13L658.74,418.28L657.12,411.88L649.47,413.08L646.81,415.70L645.86,421.78L651.63,424.13Z M651.04,454.06L658.54,448.84L659.33,440.56L648.49,446.25L648.17,453.44L651.04,454.06Z M649.94,488.82L649.94,473.45L656.91,465.47L661.20,464.32L665.21,472.20L660.58,480.14L649.94,488.82Z M645.61,445.86L644.20,452.35L645.76,455.80L653.43,455.36L654.65,447.71L652.82,443.98L648.76,443.15L645.61,445.86Z M649.94,473.33L649.94,488.70L643.11,491.82L641.27,486.66L649.94,473.33Z M649.94,418.22L638.21,429.79L628.29,445.09L616.15,452.55L614.46,459.50L606.78,465.70L606.78,471.03L612.53,471.66L629.80,455.27L644.93,445.44L646.09,448.58L640.85,460.38L637.41,462.68L645.78,468.55L645.13,470.50L641.36,469.25L642.55,471.66L627.29,467.48L615.36,475.22L591.73,475.19L596.24,468.66L589.20,465.06L579.80,468.93L576.27,474.60L572.57,474.51L568.80,482.85L573.38,481.67L569.37,485.27L559.70,478.77L552.36,483.49L550.67,490.00L545.12,492.54L541.64,490.70L537.05,475.22L534.22,472.85L526.71,475.84L524.56,474.03L526.29,468.58L532.84,462.92L528.56,459.79L532.53,458.55L541.57,463.33L549.63,457.01L550.67,460.38L554.62,452.63L555.19,454.42L561.43,449.71L560.28,446.07L585.56,439.87L600.56,440.65L598.29,436.56L605.08,433.02L606.16,429.04L611.50,428.04L610.23,426.51L613.05,428.92L614.18,424.74L619.32,427.74L621.50,424.14L630.44,421.02L631.81,425.33L635.77,423.01L638.02,425.33L649.94,418.22Z M775.37,679.46L772.04,671.32L767.01,670.79L763.03,673.64L762.23,679.83L772.92,684.12L775.37,679.46Z M743.33,661.38L739.19,654.06L734.60,654.59L730.25,660.00L732.17,664.16L739.28,667.67L742.70,665.42L743.33,661.38Z M660.95,669.03L668.70,665.85L670.88,660.44L660.77,655.51L658.91,667.70L660.95,669.03Z M751.09,589.98L743.20,594.63L742.42,599.19L753.74,603.16L755.74,598.67L753.55,592.29L751.09,589.98Z M722.34,580.12L732.17,583.80L734.89,581.64L733.85,571.91L730.68,570.38L724.14,573.17L722.34,580.12Z M785.00,568.08L784.26,575.40L796.67,576.41L796.02,568.95L788.44,566.21L785.00,568.08Z M731.08,504.84L740.13,510.51L733.91,519.09L736.19,510.24L731.08,504.84Z M627.68,672.48L625.93,684.73L636.68,684.08L636.96,678.51L630.65,672.02L627.68,672.48Z M512.92,658.66L524.56,662.14L525.47,666.32L512.63,669.30L512.01,665.75L507.66,665.81L498.79,671.74L500.87,675.04L499.17,678.81L497.84,675.21L491.95,678.76L480.32,676.40L488.64,670.08L495.01,671.14L503.08,662.06L508.67,662.79L512.92,658.66Z M531.87,652.82L524.04,649.27L521.64,651.34L519.36,658.35L521.37,660.84L527.96,662.77L530.46,660.20L531.87,652.82Z M644.58,624.51L633.72,628.82L640.07,638.26L645.12,634.06L647.57,626.45L644.58,624.51Z M449.88,624.50L453.53,631.13L458.77,631.95L457.66,619.49L452.05,619.63L449.88,624.50Z M492.18,618.01L498.73,618.10L501.40,610.17L500.29,606.47L496.77,604.88L489.84,610.45L488.70,613.32L492.18,618.01Z M595.75,578.44L596.15,588.84L589.25,578.44L588.19,581.94L586.42,573.76L591.77,573.17L595.75,578.44Z M606.00,557.50L596.81,557.07L595.18,559.65L600.52,569.81L603.73,569.82L607.45,563.90L606.00,557.50Z M540.71,552.04L540.68,559.31L546.81,563.85L550.13,563.75L553.07,560.19L551.77,554.71L547.32,551.12L540.71,552.04Z M547.17,545.23L543.81,550.90L548.56,558.42L554.27,555.68L555.34,551.46L553.11,544.91L547.17,545.23Z M569.91,553.04L573.22,552.08L574.32,546.81L571.52,541.35L565.94,539.42L563.75,544.90L565.95,550.36L569.91,553.04Z M543.26,577.85L541.04,584.65L533.09,590.33L528.00,586.34L520.60,591.24L516.64,587.37L507.29,591.22L498.29,600.07L475.59,602.20L429.38,587.69L422.40,574.41L423.56,566.38L431.49,564.25L432.22,556.86L437.52,556.91L433.76,547.41L441.16,539.25L442.92,540.07L444.22,535.68L454.46,529.79L456.46,535.10L456.46,530.38L463.56,529.20L470.28,523.46L469.47,528.06L474.09,525.65L480.73,526.79L487.86,522.84L496.86,521.97L500.10,517.96L506.11,521.00L508.08,525.17L504.67,532.75L509.50,529.20L513.20,530.05L517.77,537.18L533.27,546.58L534.31,550.36L531.36,557.32L537.01,566.74L533.61,572.14L540.41,579.53L543.26,577.85Z M406.06,510.64L406.81,519.86L411.05,522.95L419.16,515.50L417.41,510.95L413.92,509.03L406.06,510.64Z M603.32,512.57L597.64,514.27L599.52,526.56L603.30,522.98L603.32,512.57Z M426.35,494.38L417.86,497.52L415.19,507.78L421.73,506.73L426.96,500.47L426.35,494.38Z M438.45,476.54L434.48,476.40L429.06,481.52L429.12,485.62L433.42,490.29L436.39,489.79L442.24,480.66L438.45,476.54Z M512.62,469.30L504.05,470.21L502.87,474.41L505.62,481.47L515.56,480.26L516.78,474.07L512.62,469.30Z M447.81,463.93L447.64,467.72L440.86,474.13L437.65,473.89L437.01,477.70L440.72,477.71L449.74,468.53L450.66,464.66L447.81,463.93Z M649.74,461.59L649.24,455.40L646.52,453.83L636.12,461.91L637.54,465.23L641.02,466.19L646.33,465.24L649.74,461.59Z M529.60,460.46L536.14,460.38L540.25,455.76L539.72,452.70L534.19,450.86L526.87,454.07L526.68,457.92L529.60,460.46Z M589.86,433.60L591.17,437.35L594.32,438.66L602.47,437.44L603.86,434.47L602.83,431.35L594.84,429.18L589.86,433.60Z M413.97,101.10L405.96,98.00L401.50,99.23L400.14,102.05L410.53,105.07L413.97,101.10Z M761.92,807.14L757.24,801.95L753.00,802.25L749.56,810.59L753.86,814.81L758.71,815.39L762.26,812.02L761.92,807.14Z M803.45,738.68L802.86,732.08L797.99,729.39L792.84,731.53L790.20,737.52L792.57,741.97L797.42,743.32L803.45,738.68Z M781.10,684.93L786.96,683.09L788.35,679.40L786.83,672.59L783.43,670.96L779.13,672.53L776.11,677.21L775.63,680.82L781.10,684.93Z M740.24,648.29L733.70,653.89L734.47,657.76L737.85,659.81L743.04,658.78L747.55,653.08L746.66,649.68L740.24,648.29Z M780.01,631.72L774.71,627.71L770.14,629.37L767.04,634.72L768.55,638.74L772.43,640.59L778.92,639.46L780.98,635.80L780.01,631.72Z M707.19,563.28L713.80,559.86L713.86,555.82L709.69,550.08L700.63,554.24L701.54,560.30L707.19,563.28Z M718.71,537.60L726.71,532.46L726.38,529.08L722.22,523.96L718.32,524.31L713.44,528.65L713.90,532.47L718.71,537.60Z M727.77,515.12L725.29,509.13L721.07,507.87L715.28,510.07L713.85,514.26L717.88,520.26L722.32,521.83L726.50,519.66L727.77,515.12Z M209.13,901.47L209.55,894.45L203.62,891.32L199.01,892.41L197.22,896.80L199.65,903.14L205.88,904.87L209.13,901.47Z" fill="currentColor" fill-rule="evenodd"/></svg>
