<svg xmlns="http://www.w3.org/2000/svg" viewBox="0 0 1000 1000" role="img" aria-label="Map of Finland"><path d="M594.33,181.69L576.38,191.72L577.50,194.27L586.88,194.33L589.30,196.63L577.62,220.47L584.75,245.85L606.77,256.09L617.34,275.51L629.17,286.24L626.09,300.09L613.01,316.46L599.15,340.39L597.55,346.88L613.16,379.35L617.33,395.20L625.56,409.21L632.55,440.08L632.11,444.42L628.96,442.72L619.05,446.52L623.53,451.55L619.82,457.27L619.62,469.93L615.00,477.23L623.35,479.60L623.91,486.11L615.60,492.90L616.76,502.82L621.60,511.51L632.78,513.67L634.83,523.42L627.37,529.17L631.18,536.74L629.93,542.58L647.29,556.40L647.09,571.83L635.51,589.68L628.22,593.66L644.08,614.61L655.96,622.18L668.60,634.88L670.54,643.62L680.67,658.79L669.91,690.17L659.41,705.86L650.24,714.38L602.55,788.18L589.17,799.80L583.13,810.31L578.71,812.53L556.50,842.18L554.24,840.54L553.11,847.45L550.84,846.92L552.66,844.84L550.16,845.37L550.61,848.57L546.61,845.24L546.55,849.63L544.91,849.15L537.50,845.37L540.00,844.31L536.91,839.69L535.70,845.37L531.62,842.67L529.77,847.25L527.56,847.45L528.59,850.43L527.01,848.30L523.02,849.63L523.13,847.41L519.51,852.69L512.75,848.81L517.45,837.77L521.68,840.54L518.58,834.48L512.20,845.68L512.31,851.97L508.11,856.02L504.93,850.14L505.85,853.94L501.52,854.42L494.09,847.45L500.39,859.10L498.14,861.92L497.01,856.60L495.39,857.54L491.61,853.94L494.09,857.13L494.52,866.18L488.69,860.29L491.83,864.58L488.09,866.01L485.26,861.92L485.88,856.87L481.18,859.79L480.41,866.10L475.75,866.18L474.17,864.05L474.42,865.69L468.97,867.19L470.32,870.43L467.16,870.43L464.78,873.76L463.77,868.70L462.19,874.11L458.70,874.08L459.48,871.28L457.43,870.43L458.11,872.61L452.93,877.40L449.09,873.13L450.42,880.59L445.51,885.89L446.12,881.66L441.12,885.48L442.95,879.53L441.35,879.38L439.13,882.19L436.03,881.93L436.22,883.77L431.12,884.46L430.83,882.30L424.18,888.67L416.72,887.03L411.97,888.67L415.82,879.53L405.62,893.24L406.09,897.67L394.66,900.00L405.95,891.33L408.57,884.56L408.78,882.96L405.17,890.75L404.02,889.17L401.44,891.27L401.47,887.29L406.29,882.19L398.96,881.81L398.63,874.74L396.78,877.93L393.65,873.63L400.45,857.61L397.73,861.39L395.85,860.62L389.08,866.72L382.11,869.37L386.18,863.56L379.62,866.18L379.94,864.64L385.39,854.18L382.72,856.25L380.07,856.02L380.74,853.94L374.40,855.46L368.12,849.27L366.33,851.09L361.59,844.07L359.63,845.11L360.62,848.03L357.70,848.03L359.52,836.28L353.62,841.07L351.98,847.19L348.86,841.07L350.87,841.07L345.26,840.05L347.29,837.87L343.43,831.49L346.26,832.26L347.29,828.30L342.63,820.79L342.29,817.89L345.91,817.03L343.43,814.94L345.91,814.94L341.63,802.66L347.69,802.66L346.38,794.10L350.20,791.43L347.49,788.19L349.74,785.53L349.08,778.09L346.59,775.95L350.67,774.89L345.71,769.52L351.32,769.52L347.69,763.09L355.42,766.28L349.52,756.69L348.86,751.91L351.11,752.97L347.29,748.13L345.44,736.66L339.58,730.57L344.13,708.61L342.08,711.32L342.96,701.69L340.71,702.18L340.71,697.39L338.90,703.29L338.45,696.85L336.18,697.92L335.96,686.21L338.68,684.03L335.28,680.84L333.92,682.97L334.38,676.54L337.08,673.34L335.52,668.52L337.82,668.42L339.81,661.64L342.85,662.73L344.67,660.79L348.12,645.87L354.50,649.35L348.96,641.58L349.99,637.59L348.16,635.17L350.20,633.33L356.28,635.90L354.97,633.86L361.30,631.16L360.85,637.59L364.25,640.30L365.60,632.80L370.56,633.33L377.12,626.41L371.08,615.73L372.93,614.86L378.04,618.87L374.07,610.45L378.23,615.85L381.20,605.81L382.79,606.63L381.20,602.90L384.23,596.64L387.07,596.72L390.31,602.55L394.55,596.47L392.28,594.87L395.34,593.52L394.57,589.51L397.81,591.94L399.87,584.98L411.52,579.39L410.88,569.14L417.75,571.36L416.72,565.16L426.22,552.64L428.93,554.29L430.95,543.19L442.16,532.15L444.76,520.86L450.20,512.63L448.57,510.75L452.86,512.01L455.11,506.85L466.94,501.94L471.24,509.39L475.52,508.86L475.68,502.51L470.11,498.17L471.10,496.32L477.73,499.56L478.45,498.17L475.54,488.06L470.79,485.93L474.62,477.90L473.05,475.24L474.87,468.81L472.59,466.14L475.54,463.48L475.65,459.29L466.26,447.71L459.16,444.20L453.11,446.05L448.97,436.07L454.26,424.49L447.93,433.53L444.16,435.62L438.67,431.46L437.61,434.88L431.45,413.82L420.55,397.61L419.33,381.87L426.90,373.71L427.25,359.11L430.93,354.88L416.98,327.76L417.69,319.41L423.73,313.39L423.05,306.95L413.54,305.10L412.03,301.85L416.06,293.94L413.68,272.30L419.65,265.62L410.43,257.76L407.91,250.40L403.26,252.24L400.00,239.13L391.46,230.97L374.79,224.64L367.16,224.57L362.11,217.47L356.10,215.93L347.08,208.22L345.19,203.38L328.66,192.03L328.84,185.32L319.33,180.98L323.33,175.68L334.13,180.95L336.93,176.98L332.88,169.69L335.02,165.14L342.12,161.10L352.86,162.66L377.04,197.64L378.29,206.19L383.60,205.10L392.89,209.09L400.15,208.68L404.31,213.58L422.05,205.99L423.78,199.42L428.46,198.14L441.78,206.52L452.70,209.84L460.68,218.34L462.22,214.59L468.18,211.27L470.45,198.41L478.13,192.86L484.53,193.62L490.08,184.33L488.15,166.80L492.77,154.91L493.08,143.21L496.95,138.05L496.99,130.08L503.36,128.05L514.44,111.70L525.36,110.70L533.14,113.53L540.12,111.37L540.87,108.32L550.05,101.03L558.45,100.00L568.36,114.11L575.42,117.08L576.19,121.28L600.71,132.06L607.22,147.62L590.97,167.95L590.16,176.74L594.33,181.69Z M377.00,875.81L372.98,881.04L374.10,886.54L378.07,889.19L381.96,887.69L383.01,880.25L380.96,876.45L377.00,875.81Z M344.60,873.63L344.42,878.89L349.22,881.83L355.96,878.61L357.32,874.42L354.95,869.30L349.70,867.96L344.60,873.63Z M352.64,869.35L351.72,878.17L354.90,879.63L360.78,877.86L364.79,872.47L363.07,867.73L359.44,866.15L352.64,869.35Z M338.62,873.91L346.72,875.89L350.55,871.87L350.17,869.05L345.39,866.17L340.13,866.41L336.74,871.28L338.62,873.91Z M363.63,865.57L358.57,871.06L364.54,878.66L369.13,875.34L370.20,869.56L369.50,866.41L363.63,865.57Z M496.14,873.85L498.82,867.85L496.78,863.78L490.70,862.33L486.00,864.85L485.07,870.10L488.12,875.16L492.38,876.03L496.14,873.85Z M370.10,874.19L376.24,874.40L378.66,870.98L378.15,862.74L372.35,861.29L368.18,864.46L367.09,871.51L370.10,874.19Z M479.63,861.75L481.59,871.15L485.53,872.70L489.45,867.70L489.00,863.97L483.34,858.79L479.63,861.75Z M392.63,866.44L396.35,862.45L388.87,884.90L386.40,882.77L384.60,886.49L384.37,881.66L380.29,885.48L378.72,876.34L384.60,874.21L378.49,873.63L379.57,868.03L380.18,870.97L392.63,866.44Z M365.68,860.18L364.97,865.45L371.18,868.18L378.55,863.90L373.12,858.29L365.68,860.18Z M370.82,860.19L375.80,866.59L382.75,863.94L384.79,860.81L383.59,857.27L378.01,853.33L374.99,854.50L370.82,860.19Z M365.93,860.22L363.53,851.09L357.45,847.72L356.43,856.19L360.41,860.88L365.93,860.22Z M361.47,845.90L360.23,840.99L356.36,839.72L352.98,842.00L349.78,850.15L355.16,853.59L361.47,845.90Z M346.11,846.67L341.88,838.62L336.22,839.22L338.06,849.86L343.35,851.56L346.11,846.67Z M339.16,841.59L339.73,846.56L345.37,852.06L348.12,851.77L351.04,842.88L342.10,838.27L339.16,841.59Z M345.63,840.44L343.20,831.98L340.36,831.13L335.82,834.54L335.03,838.63L338.83,843.99L341.90,845.11L345.63,840.44Z M336.82,809.20L335.68,818.22L341.61,820.20L345.51,818.21L347.63,812.02L340.18,806.30L336.82,809.20Z M345.85,631.00L341.52,630.80L340.44,633.38L339.93,628.33L333.19,629.36L335.44,637.59L339.67,640.94L346.68,636.96L345.85,631.00Z M342.67,619.87L335.31,623.59L334.86,626.90L343.25,632.24L348.53,622.90L342.67,619.87Z M459.94,490.97L465.85,492.19L457.86,492.20L454.65,495.31L458.11,497.69L455.05,499.40L453.38,495.85L451.65,498.08L449.38,492.68L452.40,489.33L458.35,488.19L459.94,490.97Z M427.80,881.48L420.58,886.05L420.39,891.21L425.88,894.91L430.04,894.41L433.51,889.42L432.78,883.92L427.80,881.48Z M388.89,878.71L391.80,889.16L395.43,889.12L399.72,878.45L397.36,875.95L391.56,876.50L388.89,878.71Z M397.86,871.71L392.22,871.26L389.66,873.59L387.66,879.99L389.58,882.99L399.46,882.53L401.46,877.54L397.86,871.71Z M363.09,868.92L356.83,875.44L358.33,879.41L364.89,881.35L369.26,879.62L370.80,875.19L368.46,871.12L363.09,868.92Z M370.43,869.15L370.39,876.46L373.98,878.43L378.73,877.64L382.31,870.68L378.74,864.81L373.09,865.93L370.43,869.15Z M371.29,863.69L370.26,858.36L365.93,855.76L361.05,857.10L357.56,861.98L358.46,866.47L362.12,869.21L367.78,868.29L371.29,863.69Z M367.39,857.08L356.92,857.67L355.34,860.80L357.16,866.18L361.22,868.80L365.74,867.11L369.28,860.86L367.39,857.08Z M376.23,852.25L367.78,853.76L365.50,859.13L367.29,861.66L373.37,862.70L376.95,860.69L379.12,857.99L376.23,852.25Z M364.73,853.11L363.21,859.40L366.19,862.57L373.96,860.77L376.75,857.38L376.02,853.04L372.26,850.76L364.73,853.11Z M339.31,850.06L336.26,858.19L340.25,862.34L344.96,863.20L348.58,860.05L348.38,855.27L343.53,849.63L339.31,850.06Z M513.52,847.52L509.23,853.53L514.65,860.13L518.15,858.72L522.70,851.81L519.63,847.28L513.52,847.52Z M363.39,621.49L358.87,630.96L360.94,633.98L369.68,633.64L371.92,629.45L369.97,623.19L363.39,621.49Z M374.30,621.99L364.63,623.99L363.82,631.00L365.69,633.86L370.96,635.17L376.44,626.82L374.30,621.99Z M365.68,629.72L372.38,623.16L371.84,618.92L368.09,616.87L361.93,617.64L358.88,624.21L362.06,630.14L365.68,629.72Z M383.32,594.23L388.15,599.75L391.73,599.10L395.64,595.23L396.35,589.18L394.27,586.91L386.35,587.49L383.11,590.08L383.32,594.23Z M384.37,890.18L375.41,891.39L372.85,895.86L375.02,900.54L379.95,902.44L385.43,898.54L386.80,894.12L384.37,890.18Z M345.96,863.10L346.08,870.80L349.94,872.96L354.10,871.44L357.78,865.61L351.54,858.99L345.96,863.10Z M342.09,814.06L336.12,813.09L333.00,815.60L332.28,819.54L336.86,825.04L341.69,826.17L345.60,823.11L345.65,818.15L342.09,814.06Z M351.08,794.77L346.59,785.64L342.81,785.36L338.51,789.41L337.77,793.94L340.11,798.06L345.84,799.09L351.08,794.77Z M354.45,755.51L346.51,751.57L342.59,754.20L341.04,759.22L344.04,763.53L350.64,764.78L354.17,761.19L354.45,755.51Z M343.50,655.10L341.87,648.66L337.18,646.65L332.78,647.81L331.79,655.80L335.35,659.81L341.83,659.35L343.50,655.10Z" fill="currentColor" fill-rule="evenodd"/></svg>
