<svg xmlns="http://www.w3.org/2000/svg" viewBox="0 0 1000 1000" role="img" aria-label="Map of France"><path d="M516.79,117.66L521.51,127.61L520.33,136.71L526.05,139.59L531.22,146.32L536.67,148.42L541.28,143.61L549.87,141.94L555.48,148.48L557.59,161.78L562.49,164.71L568.81,162.34L570.01,164.94L575.95,165.75L580.77,179.79L583.94,176.00L597.46,176.18L604.10,183.02L608.04,182.91L604.13,193.17L607.11,193.24L608.72,198.52L604.76,201.29L604.45,205.23L620.97,208.59L632.45,204.48L634.41,196.65L641.69,190.56L644.75,192.26L639.97,206.54L644.12,210.08L643.51,219.46L650.15,219.23L660.96,227.88L665.85,227.55L667.95,233.70L673.62,234.55L676.57,242.70L692.37,238.72L702.27,244.01L704.04,247.23L716.72,242.66L723.90,246.02L728.11,245.33L734.04,248.54L745.05,269.47L750.93,270.34L751.56,265.48L755.97,265.70L761.15,267.67L762.95,273.50L764.98,270.79L775.57,273.70L782.98,268.67L795.20,279.00L811.37,279.23L825.99,285.23L820.00,297.12L813.45,301.08L804.75,312.27L801.51,333.81L792.52,350.47L794.45,362.93L788.50,383.72L792.54,393.38L786.92,396.71L787.01,400.59L783.19,400.81L783.83,403.52L781.24,405.50L773.59,406.59L769.80,404.48L770.48,400.96L759.18,400.90L760.14,403.80L753.37,411.52L760.85,410.42L762.62,413.46L743.74,433.23L742.41,437.72L730.28,443.79L729.55,458.22L712.63,472.18L714.11,474.69L709.13,485.09L713.53,488.95L711.30,498.19L703.72,502.37L703.94,507.84L713.82,506.28L721.49,499.21L717.84,493.27L720.83,488.59L732.48,482.80L739.60,482.22L749.04,485.51L747.04,490.91L751.25,496.89L747.87,506.17L753.51,509.26L752.51,514.20L756.01,514.28L761.83,523.99L757.85,529.30L749.78,531.77L749.52,540.29L758.64,546.38L759.69,556.59L769.38,564.47L763.65,580.00L758.38,580.30L752.14,586.58L746.28,584.43L739.00,588.67L741.66,594.01L745.58,595.76L746.77,604.07L761.02,610.82L763.63,621.62L758.45,621.76L757.67,626.30L751.69,633.49L756.16,641.19L753.34,646.24L759.69,656.50L778.65,665.67L796.33,661.67L798.20,670.23L786.65,686.11L787.98,691.88L781.73,694.59L778.63,700.21L768.89,702.70L768.19,710.63L758.57,711.73L754.86,720.58L745.99,722.14L745.27,726.64L738.35,733.08L743.94,732.75L743.20,738.38L728.05,742.67L726.62,747.09L716.70,745.68L714.52,748.58L715.99,751.41L711.00,751.50L713.21,748.62L707.65,748.09L702.96,743.69L699.61,744.76L703.53,747.95L698.37,750.71L694.30,748.01L695.92,745.84L688.43,740.08L685.08,741.61L680.31,737.50L670.62,737.25L671.83,732.96L667.75,726.26L664.71,728.42L653.58,727.83L653.15,722.02L661.20,720.53L664.05,716.44L663.86,714.57L659.35,716.00L653.32,710.27L654.51,720.45L644.55,721.07L644.52,725.50L646.34,725.36L643.88,727.34L638.54,721.00L635.10,708.66L637.71,720.98L641.95,726.98L629.53,725.91L628.84,720.39L625.22,718.36L607.17,717.74L603.02,710.80L594.72,711.74L576.71,724.73L570.78,732.12L560.13,733.53L549.04,745.87L544.95,758.74L545.11,783.44L545.65,789.28L550.31,791.63L552.68,798.99L539.22,795.94L525.97,800.98L523.24,803.61L524.44,806.27L518.22,805.23L516.41,807.32L503.49,799.21L495.84,800.19L488.15,805.51L484.43,798.56L472.71,794.09L473.23,789.78L475.59,788.61L473.24,784.95L463.50,781.84L459.35,782.46L457.31,786.09L452.58,777.17L442.18,777.32L438.78,772.24L429.64,771.21L423.74,767.49L415.22,766.96L414.53,779.08L401.77,779.25L398.77,776.48L394.48,780.32L388.69,775.77L377.36,779.02L373.00,776.53L370.69,770.35L366.68,771.07L361.90,766.64L356.40,770.72L350.41,769.35L348.50,772.14L339.17,763.31L338.12,758.45L328.12,758.34L316.87,753.79L309.04,749.90L309.46,745.65L306.07,746.91L305.09,751.62L300.14,750.69L298.47,747.80L301.85,743.59L303.06,735.09L294.59,731.88L291.17,734.80L289.37,730.82L284.34,731.34L281.66,724.77L289.04,722.78L299.07,708.58L309.70,651.74L311.02,631.76L314.88,623.15L322.59,622.84L321.48,619.06L315.65,614.27L310.85,626.14L317.41,558.24L320.39,552.03L337.76,571.15L340.50,586.23L348.50,596.98L350.37,605.08L350.13,598.67L347.02,594.88L352.60,596.98L343.76,589.02L340.29,568.40L336.17,559.26L320.47,544.84L311.57,540.94L312.49,534.44L316.11,533.32L325.73,540.35L318.21,533.24L316.77,528.48L321.04,525.63L319.00,516.66L321.06,517.52L322.38,515.05L318.66,508.01L313.55,504.37L319.00,497.70L319.00,494.28L315.38,492.43L311.96,495.73L304.87,490.23L300.60,491.07L298.82,485.98L290.96,484.17L282.06,476.16L281.72,479.18L280.24,471.32L275.49,463.65L264.11,453.56L263.57,447.78L271.09,436.61L268.95,432.14L257.45,428.18L261.59,426.18L261.84,418.05L269.79,415.77L285.44,422.80L270.03,414.23L262.52,414.74L255.42,420.00L250.36,416.85L246.17,418.41L241.07,415.77L246.83,415.23L244.41,412.01L243.26,414.16L240.29,409.23L249.25,406.05L246.18,405.50L243.64,400.73L250.77,399.55L236.17,398.48L239.17,395.79L233.52,399.71L226.09,400.10L221.07,395.44L230.21,396.00L233.09,391.82L232.11,388.80L232.00,391.99L227.61,388.80L220.52,392.52L217.51,387.14L219.40,395.25L215.49,391.60L215.28,393.64L212.11,394.02L209.42,392.26L211.53,401.75L208.96,401.75L208.44,392.32L205.21,389.05L209.70,381.77L205.61,380.64L207.47,383.43L203.92,387.73L196.62,384.51L200.74,384.99L196.62,383.43L200.74,377.42L195.27,381.38L196.28,382.84L191.82,383.94L187.36,378.00L176.75,375.37L169.76,376.34L163.76,368.56L159.68,372.09L154.48,366.67L155.63,370.97L151.57,370.57L153.36,373.12L151.60,375.37L141.44,375.86L142.77,371.47L138.01,362.60L132.64,358.61L130.54,360.22L122.03,357.49L123.52,354.80L146.14,351.60L145.22,345.23L141.03,342.39L135.25,341.58L131.33,346.74L131.89,340.80L127.58,338.09L130.36,337.85L131.91,333.38L133.61,337.40L151.47,336.48L144.00,335.36L147.01,332.13L136.98,334.28L145.90,326.71L129.05,333.12L119.84,333.49L120.05,319.74L122.37,315.96L130.25,315.96L128.59,313.22L132.81,313.32L130.99,311.12L139.54,310.05L138.46,308.93L142.99,307.25L144.99,310.18L151.13,309.51L152.21,306.28L158.19,306.77L163.10,303.00L164.15,308.93L167.56,307.31L169.76,311.12L172.02,302.97L184.29,306.94L184.52,302.97L187.36,302.48L184.47,298.45L188.07,294.41L194.48,297.14L203.62,292.03L204.12,298.17L211.15,292.10L209.30,300.86L212.56,295.83L215.69,296.03L213.82,298.66L219.77,300.28L219.03,302.97L233.43,320.62L233.77,318.16L245.56,310.59L244.04,309.51L249.55,309.51L253.37,305.70L255.23,307.90L252.60,311.12L256.92,309.51L258.95,314.88L260.09,312.20L261.10,314.80L263.81,312.74L262.69,310.59L267.73,309.51L271.65,320.26L273.88,318.65L271.65,314.35L273.14,315.42L269.02,310.05L273.54,305.70L279.09,304.63L278.15,310.24L281.69,312.20L305.62,310.05L300.90,308.51L294.89,301.87L292.20,293.83L295.48,287.07L295.31,279.58L297.37,279.32L292.71,279.69L291.94,273.88L294.02,270.67L291.79,264.98L295.17,264.22L291.02,264.71L286.96,253.96L286.11,255.32L280.57,251.77L276.86,240.18L279.32,233.19L277.69,229.89L273.54,228.61L274.11,224.97L292.00,230.80L302.73,225.96L310.71,227.23L312.63,232.85L308.35,238.04L315.46,249.29L315.12,253.93L318.34,254.78L321.10,250.74L328.28,251.09L357.10,254.99L367.53,259.92L380.18,255.63L388.32,249.29L401.88,246.39L406.33,243.12L402.47,245.41L393.47,245.44L385.17,243.12L383.65,239.86L388.79,227.53L411.97,214.50L445.98,204.91L458.75,193.53L462.30,186.36L470.55,188.10L463.42,181.38L463.96,175.78L467.17,174.08L464.16,171.40L467.17,160.11L464.60,149.87L466.91,141.07L465.54,134.87L484.10,124.80L516.79,117.66Z M485.52,797.43L488.35,798.01L486.02,795.03L485.52,797.43Z M889.12,784.60L893.09,789.60L897.36,789.81L901.28,786.23L900.72,780.94L895.79,776.28L891.48,776.88L888.76,780.27L889.12,784.60Z M847.41,819.80L845.00,813.88L852.53,811.47L848.04,808.52L848.45,805.21L845.14,806.27L844.98,803.27L850.99,799.12L853.69,787.36L857.93,788.72L858.94,785.22L872.25,780.83L875.95,775.34L882.43,776.08L885.44,779.84L888.18,773.99L886.17,766.89L889.14,759.86L888.41,753.95L892.53,752.87L894.80,755.02L895.82,769.80L893.65,782.53L898.29,788.59L900.00,821.42L891.48,836.66L891.40,856.06L888.41,862.90L885.44,862.36L884.70,864.56L888.32,864.08L888.62,865.92L883.94,869.88L884.28,874.77L881.00,876.38L881.00,879.61L883.16,877.99L881.68,882.34L874.78,879.90L876.14,877.45L873.88,873.70L871.64,875.31L866.03,873.16L858.19,867.49L858.74,861.36L865.32,856.99L850.75,852.64L857.82,846.77L855.96,845.11L858.94,840.28L856.70,838.13L848.53,840.76L847.00,835.39L850.75,834.63L855.64,828.50L853.15,824.35L845.55,820.83L847.41,819.80Z M311.55,517.97L315.44,526.08L313.64,532.73L304.43,520.00L302.98,513.92L311.55,517.97Z M311.19,505.32L297.57,501.76L294.77,498.29L298.89,497.70L298.32,500.44L302.65,499.36L311.19,505.32Z M248.54,464.94L254.75,466.92L259.79,463.76L257.26,458.83L249.90,457.33L245.89,460.54L248.54,464.94Z M264.84,442.67L259.97,435.35L252.41,436.22L255.18,443.14L262.59,448.62L264.84,442.67Z M200.28,409.82L203.80,416.50L213.70,416.80L213.35,414.18L202.73,407.78L200.28,409.82Z M104.82,318.25L99.28,319.11L95.33,323.70L98.40,329.08L103.70,330.06L108.16,326.02L109.24,322.80L104.82,318.25Z M711.84,750.96L710.62,754.96L715.46,758.92L723.23,757.30L724.57,754.19L720.46,749.41L711.84,750.96Z" fill="currentColor" fill-rule="evenodd"/></svg>
