<svg xmlns="http://www.w3.org/2000/svg" viewBox="0 0 1000 1000" role="img" aria-label="Map of Gabon"><path d="M716.21,110.26L715.76,135.47L706.28,142.04L700.56,154.02L704.25,163.11L699.03,172.36L696.40,193.30L710.44,214.33L711.95,225.87L699.03,236.23L703.47,240.59L711.82,240.68L728.01,231.39L749.29,232.79L761.91,223.35L776.30,221.18L781.40,213.50L807.74,216.24L813.96,220.92L826.10,218.97L839.86,226.74L843.78,252.40L851.91,257.89L858.85,272.82L867.45,280.12L863.56,284.98L864.84,292.51L850.88,308.15L849.65,317.44L837.26,327.49L817.34,327.89L813.46,333.28L815.19,341.20L800.63,352.05L791.18,371.73L794.20,391.25L799.06,394.01L797.56,403.60L786.06,423.09L792.73,430.70L797.61,427.24L819.82,432.19L825.31,439.83L828.04,455.00L848.60,453.64L865.68,465.79L870.25,473.64L864.63,495.98L866.05,506.26L857.73,525.79L867.16,553.32L862.12,566.95L869.96,576.97L863.66,588.88L866.82,594.77L854.26,602.87L864.98,612.35L859.61,618.65L859.33,638.79L838.32,650.18L837.51,669.64L826.55,681.19L837.59,697.82L826.06,702.32L819.14,716.18L787.93,712.08L795.64,698.44L774.81,664.86L756.95,693.35L738.48,708.82L683.03,695.68L675.88,700.05L680.88,687.79L672.89,675.77L667.96,677.42L654.86,642.11L632.86,630.11L618.94,634.98L614.22,642.85L606.60,637.64L608.28,658.31L615.91,664.66L610.73,694.62L560.00,705.49L544.16,694.52L520.87,705.51L508.07,696.63L496.60,694.59L497.92,716.68L504.04,733.32L492.07,763.23L505.62,758.95L523.72,780.98L514.53,786.64L512.11,802.12L544.93,819.01L546.28,823.14L537.32,833.08L529.68,853.27L539.96,862.51L531.38,871.13L512.12,869.57L497.06,849.91L485.92,845.35L477.15,855.37L451.40,869.38L438.82,900.00L426.97,889.90L419.62,868.64L379.06,838.02L377.65,820.35L340.79,785.95L283.98,741.97L258.55,709.08L270.24,716.47L276.01,710.83L277.31,719.99L285.95,722.75L288.31,728.43L292.67,726.61L293.55,732.80L316.46,725.68L314.02,719.86L305.84,715.27L306.65,723.80L297.51,717.01L294.42,724.07L290.74,718.30L295.37,715.27L284.81,712.57L280.41,704.77L264.75,712.57L261.17,700.90L257.91,700.71L258.55,708.14L244.95,697.47L240.96,677.06L203.32,636.69L214.62,641.55L217.31,638.17L216.95,643.74L228.37,642.54L227.00,649.59L233.58,652.65L238.07,661.51L240.70,656.50L232.30,646.97L234.82,643.05L228.29,633.45L224.38,632.93L224.38,638.17L216.51,629.35L212.17,638.17L205.99,630.23L201.29,631.39L196.78,598.74L170.78,565.01L166.55,554.15L171.13,563.60L179.17,568.55L189.00,584.46L202.47,593.06L204.47,610.92L206.68,605.74L208.59,608.42L220.03,603.17L221.76,610.24L221.76,602.30L240.16,602.30L232.86,598.75L230.56,586.52L227.00,584.77L217.10,596.59L205.28,597.00L200.42,586.25L206.62,583.14L205.12,577.78L211.36,575.59L211.52,560.86L209.92,572.04L204.22,570.73L192.39,577.12L187.37,567.11L182.34,568.91L172.49,562.87L172.88,549.37L168.30,544.48L167.90,552.81L164.39,537.99L151.71,521.70L156.86,525.74L160.44,519.98L152.99,521.29L148.16,514.73L129.75,471.81L131.48,469.12L139.55,477.77L148.77,499.11L151.54,488.79L157.73,489.27L154.33,483.95L159.58,484.67L169.25,499.74L170.12,508.62L175.30,487.66L180.04,481.18L183.29,483.95L181.54,473.48L207.82,439.30L214.06,394.77L206.84,360.60L212.79,351.36L217.05,357.53L214.68,373.69L222.88,370.23L231.02,384.27L233.09,372.81L241.04,375.43L243.64,382.48L248.96,377.18L259.70,379.60L272.45,393.83L265.59,380.79L273.39,381.62L284.81,372.81L299.73,372.81L288.31,369.23L269.90,373.69L254.14,367.79L241.04,356.15L232.30,359.65L219.60,334.37L207.72,327.27L209.03,316.81L237.54,309.74L240.12,317.40L229.71,317.71L227.96,320.30L234.65,319.62L238.42,324.65L241.91,320.30L241.91,331.64L246.34,336.87L250.71,320.30L247.65,293.72L240.41,273.78L244.31,267.19L254.12,261.59L263.88,261.39L269.90,273.01L275.25,269.67L289.30,278.63L293.99,269.38L300.21,268.58L467.23,269.13L465.40,120.03L469.18,102.80L508.24,100.00L522.41,105.41L577.94,105.49L593.14,101.08L647.87,110.96L655.32,107.47L685.07,110.01L700.77,105.03L716.21,110.26Z M168.30,477.05L173.96,482.45L173.60,491.89L169.50,494.24L164.63,491.08L162.20,481.41L169.25,472.61L168.30,477.05Z M212.06,297.81L216.28,300.17L221.09,298.96L224.16,294.53L222.86,289.30L218.06,286.83L212.38,288.50L210.27,293.09L212.06,297.81Z" fill="currentColor" fill-rule="evenodd"/></svg>
