<svg xmlns="http://www.w3.org/2000/svg" viewBox="0 0 1000 1000" role="img" aria-label="Map of Gambia, The"><path d="M120.21,603.12L111.42,596.27L100.00,528.40L140.09,485.34L163.49,494.84L154.59,504.17L163.49,528.40L175.44,541.63L208.94,551.07L209.01,564.01L220.07,562.14L203.56,545.36L220.88,548.80L251.91,532.13L259.30,534.45L259.97,550.94L264.73,552.27L280.25,545.36L267.50,550.10L260.10,529.72L277.62,503.77L321.81,508.05L383.02,501.52L408.47,490.92L421.19,496.63L441.75,481.65L495.65,500.46L505.16,496.50L507.83,485.34L492.70,496.11L438.38,476.56L423.89,487.21L407.56,483.47L381.59,493.83L282.83,496.70L247.91,521.82L243.63,509.75L240.18,524.51L216.68,528.86L181.80,522.80L186.66,506.98L172.57,488.23L171.29,460.55L448.46,461.59L461.93,427.39L481.44,410.12L505.25,407.29L515.13,418.24L560.18,396.88L618.22,407.64L638.50,442.68L654.97,452.75L685.33,439.62L707.67,445.82L726.88,478.18L754.71,496.63L854.89,462.67L878.05,472.92L900.00,503.59L891.41,529.16L878.25,534.95L820.80,543.80L798.25,558.17L753.84,556.49L694.50,524.41L657.46,522.81L641.85,506.87L599.50,494.38L549.57,459.71L531.95,474.21L525.62,504.73L512.52,516.99L485.38,521.85L448.10,515.27L368.62,529.77L364.73,578.03L141.49,575.99L132.23,578.08L120.21,603.12Z" fill="currentColor" fill-rule="evenodd"/></svg>
