<svg xmlns="http://www.w3.org/2000/svg" viewBox="0 0 1000 1000" role="img" aria-label="Map of Georgia"><path d="M286.65,484.44L280.56,446.69L271.52,430.68L247.79,420.61L238.83,421.69L223.68,390.35L213.02,391.52L203.74,378.57L172.24,374.93L149.17,362.56L141.64,366.02L127.80,337.29L100.00,326.01L108.73,302.43L121.26,295.88L163.64,307.28L179.41,301.83L222.32,328.20L266.31,334.75L270.18,341.76L289.79,354.02L345.33,359.62L382.44,350.68L413.52,366.65L420.49,361.98L439.11,361.52L459.42,372.83L459.27,381.93L477.96,398.02L521.11,411.24L538.45,424.23L554.88,429.62L556.21,434.33L545.57,449.22L571.47,460.94L585.22,450.77L602.19,448.54L611.09,436.73L639.25,429.00L659.67,433.29L670.89,451.68L681.13,427.51L701.45,438.92L716.43,438.20L736.38,464.50L771.91,464.46L786.10,473.96L773.19,517.54L803.00,533.53L810.89,546.29L824.12,546.71L828.97,552.39L843.90,551.03L852.22,559.88L865.63,563.68L868.53,567.65L856.30,587.65L839.68,591.89L840.13,612.84L847.42,611.92L854.58,631.62L887.69,651.10L900.00,667.73L888.91,696.07L881.96,695.59L873.78,704.12L844.40,679.72L813.47,684.10L782.54,668.06L779.69,663.46L786.63,657.16L753.33,641.87L731.49,638.20L692.56,668.87L676.52,667.16L674.20,669.55L679.75,677.55L651.74,675.25L644.42,682.69L640.26,677.88L632.91,682.13L619.79,676.85L612.64,680.45L600.16,674.16L593.53,682.52L562.35,685.60L549.34,693.78L513.12,694.35L511.59,686.05L505.11,681.05L486.91,683.40L479.92,672.16L471.71,671.11L481.35,663.02L459.66,649.52L443.67,630.57L439.14,635.04L431.57,629.91L436.37,623.68L435.67,617.83L409.95,617.91L395.38,641.60L359.05,630.62L333.96,629.71L317.86,643.22L304.70,632.37L283.02,628.31L294.34,609.22L301.53,604.46L313.21,578.75L311.03,548.95L300.11,531.61L298.33,515.76L286.65,484.44Z" fill="currentColor" fill-rule="evenodd"/></svg>
