<svg xmlns="http://www.w3.org/2000/svg" viewBox="0 0 1000 1000" role="img" aria-label="Map of Germany"><path d="M717.43,746.52L715.37,751.77L717.51,753.79L716.58,762.40L711.05,771.64L705.12,767.16L694.19,766.33L691.04,786.54L682.58,793.67L667.04,798.14L656.09,805.00L648.13,813.54L664.37,840.88L657.98,853.56L666.21,854.65L669.57,860.14L667.34,877.22L665.06,880.00L650.71,870.88L652.91,865.03L649.62,859.38L642.61,858.53L632.54,863.28L627.87,856.85L615.94,858.15L616.17,852.69L611.94,855.38L613.88,861.57L611.75,865.72L576.15,867.31L571.69,875.10L562.77,875.88L559.74,879.66L560.92,882.17L551.47,887.39L548.69,883.80L534.89,887.74L533.63,883.44L527.11,878.03L529.28,874.98L527.12,873.36L520.82,875.11L509.43,870.10L502.91,873.13L499.48,868.60L500.94,882.79L499.42,887.18L491.55,896.81L482.15,900.00L485.33,889.60L477.19,890.97L476.48,882.76L473.31,877.74L470.74,878.45L468.38,872.32L461.14,872.95L457.83,867.43L452.81,873.28L446.93,874.26L419.30,859.02L399.89,860.48L394.47,853.92L389.29,856.54L389.04,850.09L384.59,846.64L382.88,850.10L381.86,846.27L379.07,845.60L372.98,849.42L368.32,859.52L372.63,862.15L382.23,860.47L380.09,867.02L376.76,864.00L365.93,868.19L358.13,863.99L345.86,870.29L337.49,870.29L336.59,867.49L331.53,866.72L328.13,870.76L318.02,869.86L321.24,866.59L316.50,867.82L311.72,855.23L314.76,837.23L318.75,828.12L316.04,813.44L327.10,790.15L326.30,783.45L331.13,771.87L330.93,762.06L341.22,747.46L348.95,742.30L356.03,726.80L338.76,718.97L319.65,718.67L305.20,705.21L296.44,711.77L283.92,707.97L281.52,711.50L279.39,703.90L273.27,701.34L268.06,701.05L267.31,707.38L261.12,706.58L259.63,700.62L250.23,689.05L251.60,686.03L247.35,678.95L240.34,674.77L236.64,675.81L237.00,664.39L241.32,656.95L240.34,655.24L246.58,649.45L246.77,640.88L233.90,636.85L224.84,625.81L220.63,614.92L222.23,603.32L225.05,601.24L223.87,597.94L231.91,592.46L232.82,588.72L238.53,587.53L236.16,582.13L236.10,570.54L227.76,569.99L225.41,566.74L224.76,564.11L230.45,556.84L224.68,556.03L219.63,546.67L215.16,547.18L212.68,539.66L215.02,533.64L218.07,532.39L218.52,526.76L214.41,524.51L214.66,519.96L206.35,520.82L205.29,515.28L204.93,512.88L210.43,514.09L223.90,501.64L222.55,500.37L224.53,498.87L218.34,499.72L218.06,495.54L227.80,477.48L226.86,464.99L219.99,456.14L220.80,451.12L214.97,447.35L215.20,443.79L210.51,442.15L212.11,437.56L210.01,433.55L224.47,430.84L220.41,426.40L222.59,425.23L236.62,432.99L239.04,432.32L238.78,428.98L244.21,430.19L262.29,424.04L266.50,416.73L257.86,411.05L258.18,408.42L280.47,390.95L281.88,377.16L277.06,368.30L272.36,370.29L260.43,367.25L257.65,359.03L262.29,357.18L259.73,354.78L259.59,351.08L261.86,349.48L279.97,350.38L282.77,330.05L291.19,312.19L291.30,286.84L295.17,279.19L302.37,280.91L298.27,277.83L283.62,277.34L280.30,273.35L282.09,259.37L287.90,256.85L284.36,251.75L293.33,243.58L345.16,239.31L346.54,246.68L353.95,255.20L346.92,260.46L348.09,263.88L356.35,269.83L359.84,269.67L363.42,263.24L361.90,257.65L358.02,258.08L360.56,249.08L378.67,256.19L374.68,262.06L375.60,275.24L375.16,263.26L379.55,255.87L374.42,240.09L380.96,222.65L386.43,220.47L398.53,226.69L421.06,222.49L425.74,223.55L444.98,251.30L461.05,256.19L445.06,249.12L441.75,238.99L435.55,235.14L432.93,226.69L424.09,221.09L406.51,219.91L402.09,215.77L396.77,205.61L407.32,206.24L408.68,199.30L404.47,193.94L398.53,196.50L395.45,190.82L397.18,183.12L402.48,181.20L405.13,176.75L386.81,181.72L383.26,179.57L381.75,174.65L387.91,172.54L383.99,171.84L384.87,167.63L400.17,166.46L407.80,161.53L408.24,157.38L399.69,147.09L396.29,147.95L398.06,145.78L394.98,138.77L387.47,133.88L384.51,122.70L385.67,117.35L401.33,117.18L420.03,122.06L423.21,127.05L436.55,126.17L444.82,120.43L445.03,124.13L454.78,126.48L460.51,131.67L465.12,130.37L464.87,128.23L468.48,129.34L473.03,137.37L467.32,140.18L474.37,140.90L473.59,151.87L469.64,157.39L461.57,160.56L481.09,158.86L484.98,162.03L480.98,176.05L486.30,166.87L492.35,163.85L518.92,177.51L532.05,170.39L544.94,169.74L540.50,172.54L542.30,180.25L540.50,190.47L529.32,198.82L523.69,199.61L520.30,204.20L522.09,208.32L528.20,209.82L529.92,213.31L547.48,207.50L552.01,211.56L551.85,214.97L557.72,213.31L565.67,218.98L569.62,205.61L573.13,205.34L580.61,193.41L606.25,189.43L606.47,197.65L607.98,199.30L606.69,194.39L609.77,190.82L607.58,190.56L622.60,178.15L634.93,159.23L638.64,162.98L659.86,164.85L640.75,165.94L634.49,171.14L628.80,169.57L623.91,177.51L624.31,181.72L630.06,183.12L626.98,181.72L631.38,175.28L644.39,167.17L646.76,166.87L645.14,168.68L644.60,171.14L645.92,168.33L655.58,172.62L665.50,164.38L671.08,171.14L672.33,180.61L683.52,185.30L687.39,190.82L685.63,192.22L690.90,191.52L689.58,193.63L696.06,199.98L697.57,199.30L695.78,196.50L710.75,191.52L709.87,193.63L716.94,198.60L712.95,205.61L723.25,215.19L717.52,224.44L731.70,234.46L746.32,234.84L742.99,239.31L746.28,240.14L748.87,259.79L757.72,286.14L753.79,292.50L754.36,298.47L751.39,307.00L738.59,316.10L739.91,322.70L737.27,327.32L753.89,338.86L770.79,355.41L768.49,361.48L769.99,363.64L764.04,371.33L764.40,375.40L766.89,384.73L775.14,390.41L773.47,402.20L778.30,406.76L774.29,415.40L773.51,423.67L767.00,434.76L776.43,449.69L774.99,462.84L790.78,472.58L791.14,482.85L795.07,492.96L790.78,510.69L778.16,536.75L768.76,533.12L769.79,525.40L764.71,526.29L766.26,519.78L760.32,513.45L754.90,515.92L747.80,513.49L744.63,519.07L753.87,525.39L751.60,529.56L744.23,529.65L731.54,537.53L726.69,537.58L718.64,545.63L700.75,547.37L693.76,558.60L688.67,555.42L684.60,560.81L679.89,560.17L675.24,568.89L665.55,569.34L661.88,578.42L653.18,574.44L645.10,579.40L633.41,580.00L622.23,593.37L619.91,603.40L616.00,593.57L612.03,592.32L610.19,587.91L605.48,587.56L607.72,591.51L605.70,594.99L611.84,601.16L612.11,607.80L616.46,615.29L629.62,621.90L630.35,626.96L634.30,629.66L629.71,642.52L625.26,646.30L632.52,653.78L632.88,658.94L640.67,670.22L641.99,678.46L650.64,688.41L657.51,687.69L664.92,692.28L676.42,710.40L684.21,712.94L694.47,728.19L698.14,725.60L704.11,728.07L705.96,733.48L711.57,736.17L717.43,746.52Z M742.81,215.66L740.58,218.95L742.22,221.85L719.00,224.71L717.82,223.19L724.90,219.68L723.15,209.82L727.53,210.45L726.65,215.42L728.49,213.31L732.41,215.42L732.59,208.83L725.82,202.51L722.27,208.30L720.02,209.11L720.52,204.21L714.76,207.01L717.38,198.95L713.39,193.63L717.38,191.52L721.73,198.83L730.36,203.19L742.81,215.66Z M265.16,252.77L267.94,251.30L267.36,247.95L254.86,248.93L255.57,252.68L261.81,256.39L265.01,255.90L265.16,252.77Z M270.68,243.12L284.30,241.66L284.46,241.41L281.77,240.55L270.68,243.12Z M287.32,239.43L289.98,240.12L301.22,237.75L293.78,236.99L287.32,239.43Z M301.44,241.95L308.79,241.77L311.08,235.12L306.66,231.99L300.68,232.80L297.88,235.64L298.21,239.61L301.44,241.95Z M349.35,242.27L357.74,241.37L359.92,235.43L354.67,231.90L349.91,232.72L346.36,237.28L349.35,242.27Z M309.62,238.87L319.54,236.91L321.17,234.71L317.12,231.80L307.41,235.94L309.62,238.87Z M321.27,235.87L327.95,235.73L332.11,233.45L332.70,230.23L321.34,230.46L319.21,233.87L321.27,235.87Z M343.54,229.79L332.29,228.02L330.77,233.70L342.63,234.55L343.54,229.79Z M559.08,213.98L566.65,216.22L570.81,205.31L561.25,205.11L557.97,209.33L559.08,213.98Z M574.09,206.23L580.02,197.93L576.71,193.76L566.88,198.72L568.33,206.75L574.09,206.23Z M405.01,153.44L397.38,153.84L393.46,160.71L401.93,162.67L406.77,157.00L405.01,153.44Z M552.67,160.21L556.44,166.87L543.47,166.73L542.57,162.99L536.58,161.26L538.39,157.12L544.02,154.34L552.67,160.21Z M674.57,150.05L672.59,149.16L668.88,161.26L671.52,148.16L674.66,147.26L674.57,150.05Z M704.16,166.87L714.26,173.94L711.48,180.77L709.40,180.25L710.75,178.15L706.84,178.84L710.75,175.28L704.64,176.75L709.40,173.24L697.09,173.94L688.08,181.07L687.83,183.82L691.82,182.04L691.14,185.92L684.98,183.57L686.51,180.25L682.18,183.02L678.12,178.84L674.57,179.55L676.36,177.51L672.37,174.65L674.52,170.62L682.11,169.74L678.55,165.10L675.04,165.54L682.51,159.86L674.16,153.62L681.64,152.51L684.10,156.01L684.31,152.86L688.71,149.29L687.39,155.60L689.64,154.75L689.18,151.39L692.65,158.77L697.57,159.23L698.45,150.76L693.34,152.16L688.69,146.52L681.23,151.39L683.82,143.42L679.80,142.29L693.58,139.54L689.58,144.03L692.26,149.29L708.10,151.23L708.52,153.87L701.97,160.91L704.16,166.87Z M367.05,138.36L368.41,135.81L366.21,133.90L359.82,140.82L365.44,147.84L370.89,145.17L367.05,138.36Z M374.84,131.21L368.02,136.27L378.86,139.59L381.93,135.15L374.84,131.21Z M366.44,108.06L365.95,115.66L368.13,117.56L385.26,117.62L362.91,120.52L361.45,133.15L362.32,115.68L367.19,103.12L369.90,100.00L372.96,101.50L368.53,102.21L370.84,103.63L366.44,108.06Z M378.51,158.67L381.75,162.19L387.25,161.30L391.58,154.54L390.63,149.41L386.06,149.05L379.43,153.66L378.51,158.67Z M335.86,183.23L331.02,185.13L329.27,189.07L331.77,194.81L336.47,197.21L341.31,195.08L342.71,189.99L340.12,184.50L335.86,183.23Z M339.66,196.38L344.71,192.66L344.85,187.37L341.79,183.63L337.60,182.89L333.07,185.75L331.40,190.94L334.27,195.57L339.66,196.38Z" fill="currentColor" fill-rule="evenodd"/></svg>
