<svg xmlns="http://www.w3.org/2000/svg" viewBox="0 0 1000 1000" role="img" aria-label="Map of Ghana"><path d="M607.60,103.48L613.07,108.81L624.10,108.01L630.08,112.50L624.13,143.55L617.87,150.65L617.21,165.93L631.71,172.27L650.26,195.73L661.78,194.18L666.17,207.82L676.99,209.55L672.13,217.42L671.69,230.43L677.18,238.32L671.22,241.22L673.66,252.43L667.85,274.62L670.89,286.76L667.39,288.57L662.03,283.97L660.27,287.50L662.32,293.75L674.67,295.94L656.47,297.64L655.94,303.10L665.32,306.15L656.21,310.32L656.05,315.50L661.19,316.96L669.25,309.63L678.85,308.04L687.71,310.81L687.62,316.06L693.61,319.39L693.03,332.27L688.87,337.13L690.33,346.03L681.27,365.90L690.44,385.98L686.48,395.05L679.83,395.33L678.38,399.34L673.20,397.45L682.78,418.29L704.09,433.00L715.98,456.76L698.85,468.47L703.59,531.29L700.03,530.69L697.40,542.14L690.89,545.49L689.20,555.59L691.80,567.20L697.93,570.97L704.92,568.84L707.71,578.09L701.80,598.60L701.84,614.50L699.48,618.79L689.08,621.73L695.45,629.00L691.73,638.08L705.26,652.29L706.05,665.21L717.79,671.75L715.86,678.98L720.05,688.01L737.45,701.77L749.38,702.49L754.52,715.22L762.93,722.87L773.14,724.04L774.27,730.40L757.33,743.82L745.84,768.92L717.31,773.36L673.09,770.12L658.09,773.27L619.62,795.06L582.26,806.08L569.92,818.77L549.43,824.98L529.48,840.68L505.12,840.44L475.94,854.89L428.48,864.64L426.56,870.62L412.43,882.73L392.27,889.74L383.72,898.26L369.52,900.00L350.26,882.48L337.45,877.44L243.35,856.06L256.12,853.18L263.31,857.14L270.28,850.80L286.88,847.38L284.05,824.24L289.85,824.70L291.38,820.97L283.58,791.71L273.21,788.13L264.78,791.69L261.20,786.83L262.44,779.05L254.43,779.74L255.32,761.03L240.91,715.60L235.46,710.05L225.73,666.06L232.15,653.75L228.30,641.93L244.58,612.61L252.44,609.51L261.45,591.62L259.28,584.68L265.31,546.52L277.83,516.25L282.62,512.51L283.92,500.92L286.32,502.49L296.23,492.65L306.13,488.88L306.12,473.33L318.98,467.80L305.03,378.85L299.94,367.48L285.87,362.49L288.29,351.51L300.06,335.36L293.25,330.60L298.50,322.76L298.10,310.60L286.93,297.55L290.15,288.29L283.35,279.68L290.92,266.88L282.90,223.69L288.32,212.34L278.67,206.71L277.67,202.07L286.77,192.36L275.42,186.83L266.43,165.83L274.84,137.19L280.13,131.96L278.16,120.54L430.92,120.65L435.40,116.98L460.94,120.70L513.08,119.90L517.02,124.49L526.00,119.56L544.97,122.34L543.88,126.07L549.80,131.75L555.25,122.48L571.76,116.60L575.64,107.65L582.58,112.17L588.76,107.67L590.88,100.00L607.60,103.48Z" fill="currentColor" fill-rule="evenodd"/></svg>
