<svg xmlns="http://www.w3.org/2000/svg" viewBox="0 0 1000 1000" role="img" aria-label="Map of Greece"><path d="M231.24,203.86L261.14,202.54L271.06,197.03L287.05,201.91L296.43,194.79L303.71,195.26L316.71,175.24L329.31,168.97L334.31,172.47L343.58,167.86L365.83,173.37L378.39,172.05L383.31,165.69L388.78,170.37L392.98,150.12L395.67,147.85L429.73,149.99L441.55,140.55L445.03,143.88L453.04,140.35L470.96,143.68L496.53,132.92L501.52,136.00L509.20,134.42L510.34,125.83L521.47,127.47L527.18,121.67L532.87,127.04L552.25,121.69L558.62,135.66L569.37,139.31L576.19,146.33L578.80,141.19L586.32,140.27L605.84,147.65L616.51,157.67L622.49,158.87L642.35,154.12L646.55,150.07L658.19,152.20L670.05,147.14L676.48,151.41L698.11,145.21L703.07,136.66L700.38,131.34L701.94,125.44L691.52,106.99L707.65,100.00L730.29,108.53L729.22,111.67L739.37,118.30L741.09,115.83L744.80,140.39L742.38,148.33L736.08,145.90L724.49,155.83L716.20,158.08L716.61,177.94L721.05,182.89L717.34,187.55L719.69,190.56L714.70,196.98L707.65,198.10L706.37,204.09L694.56,216.99L691.15,216.65L687.70,209.10L692.06,205.99L645.31,201.43L623.75,192.04L620.71,194.92L612.97,193.10L608.75,190.77L612.00,186.97L609.15,185.32L600.15,185.79L595.68,193.16L586.84,195.64L578.68,203.39L566.07,200.36L562.99,202.80L557.37,192.05L551.80,190.91L541.53,193.81L534.37,200.36L536.06,203.21L533.74,204.74L536.91,205.95L516.03,217.88L504.82,217.38L491.75,211.48L481.76,215.11L478.62,218.62L478.91,224.13L487.28,234.02L498.35,239.68L490.03,243.36L494.12,254.14L506.28,257.27L507.09,250.03L513.83,259.62L527.19,265.29L541.72,284.25L533.22,287.07L521.36,270.09L507.80,266.03L500.31,259.72L481.65,260.44L478.31,266.17L480.37,272.39L505.26,288.15L504.86,296.98L507.80,299.97L503.33,305.53L505.26,307.20L498.78,306.88L492.01,299.06L490.36,300.83L487.34,291.02L476.67,276.71L455.21,269.64L446.30,275.55L448.43,284.49L460.68,296.97L483.23,309.87L479.17,311.92L458.15,305.12L448.16,306.34L450.06,301.54L443.20,289.79L444.89,281.66L442.58,274.69L405.38,257.28L399.35,243.92L410.21,242.19L413.98,238.09L407.40,227.48L402.28,228.08L401.97,233.39L393.64,236.35L391.65,242.40L385.94,241.07L383.87,247.30L377.39,247.83L384.82,259.27L374.98,282.63L376.68,295.59L389.05,306.30L391.09,315.07L401.94,326.01L410.02,350.23L424.32,359.32L440.07,379.95L446.63,396.49L434.49,402.00L436.35,403.58L433.94,405.15L420.21,405.94L422.84,400.23L425.83,398.85L424.61,405.15L435.16,396.49L427.69,382.95L409.69,375.61L410.33,382.24L401.24,383.93L399.76,391.68L402.28,398.85L406.61,396.49L408.31,402.77L415.33,409.16L412.23,416.17L422.12,413.02L414.10,422.48L401.60,425.70L396.67,431.28L387.34,431.28L381.23,427.07L372.49,430.42L372.49,433.57L376.83,432.86L375.10,434.73L378.68,436.79L388.57,434.44L395.43,442.39L419.30,446.43L424.96,458.92L432.02,457.15L432.41,453.44L443.20,457.28L445.68,462.87L441.35,468.38L450.06,470.81L445.83,474.47L466.87,474.76L469.95,477.90L467.43,480.26L476.43,491.45L501.62,499.01L513.35,513.42L511.44,517.43L505.06,518.43L509.02,531.68L507.12,541.20L510.26,543.42L507.12,545.06L512.12,548.21L510.88,553.01L513.97,557.35L512.59,568.39L509.02,572.77L501.50,569.78L500.93,564.04L493.88,554.76L489.12,552.22L486.04,555.38L478.62,539.55L472.38,540.34L473.62,538.05L466.28,535.71L469.65,530.13L467.53,527.18L456.25,530.10L452.53,535.54L436.04,535.62L424.02,542.83L416.87,541.20L415.06,546.17L416.64,550.16L425.83,549.79L432.02,554.59L432.02,558.60L426.45,562.46L431.40,564.90L430.77,577.08L445.99,586.16L448.02,581.68L443.77,576.71L451.60,574.35L449.39,583.80L453.72,587.02L451.30,588.53L458.89,591.33L463.10,597.27L439.29,601.67L436.33,604.68L440.68,607.58L432.35,608.64L433.94,613.02L430.77,613.38L422.12,606.96L422.08,601.66L428.31,600.41L427.46,596.18L419.66,594.90L419.66,591.75L415.94,594.90L408.40,585.60L402.28,588.53L395.43,579.08L390.73,582.60L393.59,601.99L407.04,625.56L406.73,633.94L411.55,633.63L413.84,638.39L416.56,654.98L423.95,668.90L422.80,672.30L425.83,673.16L423.53,678.75L418.30,679.59L418.42,683.40L420.88,683.40L418.73,688.42L422.80,696.47L429.54,700.88L427.69,704.74L433.94,710.68L433.25,713.40L424.08,712.17L420.12,703.03L413.00,703.28L404.15,690.56L405.02,687.82L400.76,684.10L398.74,685.94L396.20,671.76L387.03,669.91L377.23,672.96L377.39,677.88L372.49,684.26L374.98,688.20L371.74,686.45L372.58,692.65L368.78,693.31L371.26,709.47L369.41,718.20L367.50,711.11L357.05,704.24L360.10,699.15L358.22,693.79L360.08,681.83L357.42,682.30L345.01,659.76L337.43,657.49L338.82,645.49L329.30,643.88L319.79,648.71L317.86,663.71L322.25,671.58L314.31,679.48L308.90,670.02L298.45,668.93L296.74,660.49L298.68,654.55L294.32,652.62L285.98,634.53L286.40,625.74L297.40,611.44L295.50,602.25L284.19,583.16L270.81,572.32L265.47,570.72L262.67,574.35L260.19,557.36L245.44,551.33L244.01,546.64L246.48,538.76L253.20,538.80L263.91,530.10L260.14,530.81L267.63,518.60L268.28,507.12L271.39,511.12L270.69,507.79L290.74,514.72L311.31,493.20L326.79,496.44L344.73,510.86L386.56,524.89L403.47,539.55L410.64,538.77L413.27,535.00L402.28,528.52L404.23,526.88L410.33,522.94L421.71,525.78L431.15,523.40L435.12,520.65L431.40,515.85L435.73,514.20L427.13,512.70L428.99,511.12L426.62,508.57L421.54,511.44L411.15,506.58L408.47,508.69L412.74,510.33L407.23,510.33L406.00,504.75L397.90,506.39L394.20,503.96L397.28,500.02L388.01,496.02L383.49,487.58L383.46,490.83L378.12,493.72L379.30,497.66L375.88,498.71L367.36,483.99L361.31,480.26L359.57,493.04L345.31,491.04L342.08,495.30L336.95,489.57L321.13,485.08L314.01,488.97L309.66,486.81L303.44,494.69L299.26,491.29L288.69,492.08L281.27,498.45L273.18,494.44L278.74,496.87L278.74,491.29L268.57,486.56L263.60,475.32L266.38,482.63L264.87,486.92L248.48,497.51L247.10,493.72L242.11,492.94L247.10,486.56L242.25,485.22L242.11,481.77L244.06,483.49L245.25,481.77L241.54,476.33L243.08,471.21L237.15,473.57L236.62,462.38L233.31,455.97L226.64,453.41L221.70,439.87L213.86,444.79L209.88,439.16L211.69,433.68L216.75,432.47L212.30,427.95L213.54,421.94L217.82,426.28L221.70,421.76L222.32,425.70L227.21,422.48L236.87,424.98L236.70,428.97L242.11,432.86L243.65,427.50L250.46,431.51L247.08,423.98L248.87,417.47L242.11,409.95L237.77,414.68L239.67,416.17L225.46,408.30L222.32,411.09L224.11,413.00L220.34,412.95L218.31,404.00L211.13,413.81L219.16,421.40L213.23,419.79L210.40,422.97L206.00,408.85L187.20,391.23L187.52,384.60L173.25,382.16L165.21,371.14L163.36,366.41L168.04,365.65L163.36,360.11L167.73,358.53L155.93,356.10L160.30,345.17L143.82,337.20L160.51,343.72L166.11,340.74L170.95,333.20L169.19,324.46L177.48,326.73L179.79,322.83L170.81,303.36L177.92,302.57L183.03,294.49L202.47,291.00L207.14,269.73L213.60,260.02L213.62,253.17L219.90,247.44L228.67,247.34L236.09,237.36L237.59,225.78L229.29,213.56L231.24,203.86Z M518.70,892.56L511.58,891.39L507.56,897.32L519.09,902.87L521.26,899.61L518.70,892.56Z M768.69,829.69L778.81,828.17L778.37,832.77L766.56,838.36L764.00,835.70L768.69,829.69Z M716.25,842.29L711.25,848.67L714.29,857.26L716.25,855.82L712.30,867.12L708.48,874.73L700.50,878.40L685.80,874.14L669.79,877.99L628.10,879.64L598.34,886.55L572.94,886.55L573.33,869.75L557.19,866.41L542.47,856.61L510.57,856.61L504.94,851.74L490.36,849.52L477.38,852.61L468.67,851.03L462.43,844.73L465.58,841.57L468.05,812.22L470.26,807.99L471.64,818.20L480.56,819.50L479.90,803.80L482.65,799.41L486.04,801.19L486.04,812.22L489.50,816.96L508.36,818.59L514.58,814.73L513.46,810.61L522.62,811.10L524.47,816.15L522.62,819.45L512.57,821.17L522.96,826.54L528.92,823.39L530.10,835.99L536.85,838.47L571.34,829.37L582.20,832.05L594.00,829.69L601.43,832.05L603.58,838.92L630.66,839.07L637.69,844.73L656.37,838.36L666.01,839.93L662.25,844.73L665.34,848.67L661.16,857.57L662.58,863.27L668.63,865.38L677.81,857.33L692.65,851.74L698.92,856.06L703.42,854.76L716.25,842.29Z M797.73,815.09L798.77,824.18L794.11,824.56L790.06,832.05L786.15,826.53L788.03,815.10L783.87,810.72L791.68,795.83L791.92,786.23L797.73,782.99L797.53,794.89L791.92,805.52L797.73,815.09Z M437.80,776.18L443.48,785.14L447.91,785.10L447.34,776.47L440.08,772.12L437.80,776.18Z M410.48,718.38L424.91,735.93L420.79,738.33L420.21,746.59L414.66,747.49L407.23,739.54L406.59,724.27L410.48,718.38Z M661.72,719.56L664.31,723.58L674.16,722.94L675.60,721.02L666.91,715.58L661.72,719.56Z M889.99,713.40L883.08,735.88L873.87,749.85L877.01,751.36L876.39,756.94L867.68,756.15L852.65,773.24L848.40,775.98L844.07,773.09L842.22,768.75L846.28,753.56L839.69,745.05L847.63,740.48L850.46,732.12L859.19,724.06L887.65,710.75L889.99,713.40Z M631.21,707.96L640.00,714.34L638.73,723.79L629.36,722.14L636.17,718.20L631.21,707.96Z M809.81,707.54L804.24,709.42L805.82,715.95L809.21,714.23L811.72,719.61L816.54,719.30L818.16,715.26L814.16,715.50L809.81,707.54Z M719.96,689.71L729.37,696.07L720.97,697.26L718.81,703.81L714.42,704.09L710.85,695.51L723.74,695.29L719.96,689.71Z M856.41,691.03L853.02,692.16L856.13,689.77L853.78,688.74L846.29,696.87L850.73,697.12L853.99,702.65L857.38,700.86L856.41,691.03Z M581.36,687.72L592.49,695.67L594.62,695.13L592.53,689.98L582.83,685.26L581.36,687.72Z M604.51,681.87L601.14,688.96L602.30,691.40L614.97,681.93L613.03,680.09L604.51,681.87Z M298.23,682.04L305.45,686.79L307.98,685.43L307.88,673.95L301.50,674.74L298.23,682.04Z M543.08,675.53L554.36,674.70L555.51,683.84L535.67,688.20L538.14,676.32L544.68,682.62L548.75,682.05L543.08,675.53Z M556.74,673.33L563.10,680.20L568.57,680.09L569.95,671.42L561.77,668.82L558.20,669.89L556.74,673.33Z M621.33,680.25L620.40,674.74L624.41,671.58L633.69,681.11L630.41,687.88L621.33,680.25Z M299.19,681.29L304.24,671.00L302.68,668.46L297.19,668.24L294.02,671.74L294.30,680.16L299.19,681.29Z M561.92,663.90L554.90,663.45L551.22,666.71L551.24,671.31L558.50,676.10L563.85,668.26L561.92,663.90Z M632.04,670.70L643.14,670.05L644.43,662.91L640.82,658.44L634.96,660.42L631.33,664.55L632.04,670.70Z M803.16,658.56L809.94,663.71L797.12,668.25L789.49,675.53L777.00,676.36L775.27,684.98L770.27,680.68L771.05,674.97L776.46,674.74L783.27,666.47L803.16,658.56Z M651.43,664.90L660.57,663.88L660.73,657.63L653.11,655.43L648.17,661.08L651.43,664.90Z M687.70,654.98L693.93,660.24L687.70,660.49L676.27,671.58L665.03,674.47L663.54,671.58L673.17,670.02L673.17,665.29L687.70,654.98Z M604.28,655.21L605.03,642.93L603.20,641.23L597.27,647.75L599.90,653.04L604.28,655.21Z M569.84,643.88L575.40,653.79L570.41,658.99L564.22,642.30L569.84,643.88Z M769.72,654.19L773.55,644.72L770.22,643.13L767.75,637.58L781.73,648.37L781.38,654.27L769.72,654.19Z M675.95,638.80L674.73,628.40L670.83,627.82L663.32,631.62L663.07,635.05L670.43,640.13L675.95,638.80Z M621.95,642.30L613.68,649.63L605.97,646.45L610.20,635.18L618.24,630.42L616.89,632.44L620.09,633.63L623.17,630.42L620.42,637.57L621.95,642.30Z M644.26,625.30L650.26,631.49L649.21,645.88L646.64,651.52L637.35,657.34L627.57,638.36L644.26,625.30Z M544.30,626.75L542.74,634.90L555.83,634.21L554.20,622.65L544.30,626.75Z M420.17,616.85L431.04,623.59L433.39,622.05L433.75,616.19L430.11,612.71L424.31,612.33L420.17,616.85Z M468.67,605.14L461.24,607.58L460.49,611.02L449.39,613.02L457.49,606.71L468.67,605.14Z M539.37,600.41L545.56,591.75L545.04,596.48L549.77,600.36L546.24,607.58L539.37,612.23L542.47,605.14L541.81,600.43L539.37,600.41Z M632.40,599.69L624.41,600.41L624.93,591.61L628.13,589.32L630.78,594.01L632.41,590.95L638.53,593.71L632.40,599.69Z M591.91,591.92L593.36,601.59L585.91,606.00L586.53,601.99L584.06,601.99L587.39,596.17L587.14,589.05L591.91,591.92Z M456.58,581.78L452.86,585.71L452.94,589.85L465.37,589.62L466.00,587.19L461.04,581.97L456.58,581.78Z M616.17,586.46L596.42,574.35L595.24,569.62L618.85,575.92L620.09,579.87L616.17,586.46Z M539.99,568.76L541.90,575.87L531.00,586.60L532.26,573.49L539.99,568.76Z M719.96,568.76L708.05,582.02L685.02,588.41L693.89,574.35L705.05,574.99L719.96,568.76Z M464.76,557.12L452.61,559.39L458.86,571.03L464.56,568.34L466.42,558.88L464.76,557.12Z M780.79,560.10L783.27,566.40L759.38,573.56L751.31,565.62L741.36,569.81L739.71,562.47L746.76,556.48L760.19,553.97L774.65,561.67L772.75,556.95L783.87,558.60L780.79,560.10Z M220.82,551.44L233.20,563.73L234.06,567.26L224.78,563.32L220.22,567.00L220.52,572.57L217.65,572.77L199.93,553.01L199.93,548.21L208.04,541.20L211.97,549.31L220.82,551.44Z M595.86,559.31L592.77,568.76L576.30,548.46L570.91,546.52L568.87,536.52L576.61,532.55L582.88,542.39L592.43,543.42L591.48,550.65L595.24,553.80L592.77,558.60L595.86,559.31Z M452.48,544.27L460.57,536.39L453.72,537.18L456.92,535.62L454.39,533.96L462.43,532.68L467.43,538.05L462.43,544.27L452.48,544.27Z M210.26,525.37L199.49,518.75L194.99,522.15L190.00,519.79L186.28,510.33L190.00,511.84L184.16,500.71L182.35,512.35L178.25,515.06L175.11,511.56L180.05,490.57L187.21,496.87L191.81,493.64L192.53,477.90L195.61,477.90L200.51,491.99L198.09,497.66L200.93,502.81L205.56,500.02L216.07,517.43L215.80,524.95L210.26,525.37Z M204.94,489.00L212.43,489.71L212.99,495.30L206.12,493.72L199.93,477.04L204.68,475.17L203.70,479.40L208.04,481.05L204.94,489.00Z M224.85,461.12L220.96,469.95L226.02,473.12L229.68,470.54L231.82,461.49L229.85,459.47L224.85,461.12Z M701.98,469.95L698.21,476.33L701.12,478.67L701.98,497.66L697.45,499.78L697.32,506.89L690.79,509.48L688.05,514.49L677.19,507.12L675.96,500.81L683.94,497.66L686.17,488.81L682.08,480.26L672.98,473.12L673.48,465.62L688.61,463.12L696.97,469.95L699.00,467.14L701.98,469.95Z M649.27,459.60L643.33,461.26L641.74,464.72L645.15,471.88L651.40,473.30L655.38,466.53L649.27,459.60Z M196.85,461.29L193.15,466.87L198.40,442.39L205.98,434.50L209.88,442.39L206.95,452.99L209.26,450.98L208.67,460.24L206.80,458.92L202.48,465.22L196.85,461.29Z M567.32,439.16L565.60,443.83L560.46,441.13L557.37,444.61L554.27,440.73L558.03,439.16L556.49,435.01L545.56,431.28L547.81,420.94L556.83,423.65L558.45,431.57L567.32,439.16Z M559.27,514.20L557.37,533.96L549.24,536.90L544.97,530.13L539.72,535.81L531.98,522.62L524.53,522.15L522.84,507.43L517.49,507.48L519.96,500.12L515.96,503.01L517.07,496.87L508.36,494.44L512.12,492.08L509.88,486.25L474.29,485.77L469.29,480.26L473.07,474.78L471.11,468.21L461.24,463.65L455.89,454.50L433.82,436.83L412.73,430.00L413.85,435.09L400.38,437.66L400.45,435.04L418.73,425.70L427.04,416.54L442.58,412.31L454.04,422.48L459.01,435.89L469.29,443.72L480.94,444.67L483.74,449.60L493.16,453.83L520.15,457.28L517.51,463.52L527.02,472.31L523.10,477.88L522.82,485.55L528.92,498.84L528.92,506.27L537.25,514.20L549.32,516.57L559.27,514.20Z M458.57,403.21L463.77,396.58L458.18,390.71L449.78,398.47L458.57,403.21Z M476.15,403.58L468.67,393.26L487.28,402.86L480.41,408.30L475.09,405.94L476.15,403.58Z M154.21,386.83L154.62,396.00L160.37,399.43L165.20,397.97L164.22,392.56L158.97,386.91L154.21,386.83Z M503.07,388.23L496.62,398.55L490.98,400.35L502.17,383.81L503.07,388.23Z M742.62,411.53L741.27,415.83L736.01,414.98L731.47,404.10L726.74,405.27L736.71,418.61L725.58,420.98L702.17,414.62L695.13,407.58L707.60,402.00L713.74,396.77L712.53,394.55L704.13,393.90L692.96,406.72L677.11,400.51L672.19,396.49L672.87,390.91L679.67,382.95L690.18,384.60L701.91,379.87L701.98,373.50L719.96,373.50L719.29,376.08L724.97,379.09L721.78,385.24L736.04,398.06L742.62,411.53Z M596.75,351.13L593.09,355.31L595.50,364.73L602.28,354.00L596.75,351.13Z M152.17,367.20L153.41,375.14L135.85,367.57L137.27,365.62L131.66,363.15L128.34,351.18L110.01,330.89L113.72,325.67L130.41,322.09L139.13,326.03L137.84,331.71L129.49,335.97L129.80,341.92L137.27,345.07L134.79,347.51L138.09,362.65L152.17,367.20Z M637.35,297.67L637.35,303.18L628.13,312.64L630.11,322.94L628.21,326.34L618.24,318.22L621.95,314.64L619.31,311.25L612.66,319.72L616.04,324.53L609.58,322.95L611.54,318.10L600.87,320.58L602.79,310.98L599.63,302.39L617.00,300.83L622.44,307.23L637.35,297.67Z M657.46,245.61L658.43,253.04L647.97,255.71L636.78,246.26L648.76,242.47L657.46,245.61Z M577.27,217.05L574.81,218.40L577.27,220.19L576.70,231.22L564.22,236.02L552.85,228.12L554.36,218.99L564.22,209.10L572.32,211.46L577.27,217.05Z M489.27,668.91L493.69,673.33L498.96,672.66L502.29,667.96L500.43,662.51L495.31,659.63L491.10,660.88L488.71,664.56L489.27,668.91Z M451.15,658.35L456.34,664.43L461.21,663.14L463.31,659.55L457.72,650.76L453.66,651.19L450.99,654.27L451.15,658.35Z M825.06,740.74L835.72,738.50L834.88,733.21L823.92,735.93L822.30,738.85L825.06,740.74Z M793.07,688.65L786.31,693.33L786.43,700.05L789.38,701.50L798.65,700.24L798.38,691.50L793.07,688.65Z M763.98,624.50L755.32,626.71L764.58,638.35L769.21,635.13L763.98,624.50Z M741.84,605.67L734.62,604.20L736.45,617.29L739.82,616.76L738.42,610.79L742.19,608.02L741.84,605.67Z M576.40,576.91L569.28,572.16L564.17,574.95L562.82,579.55L570.14,582.71L573.70,581.62L576.40,576.91Z M228.04,454.68L221.44,459.16L219.83,464.52L222.17,468.29L232.05,460.52L231.85,455.59L228.04,454.68Z M215.61,452.95L209.82,454.46L207.85,458.54L216.52,466.84L219.26,463.81L216.66,460.05L219.31,455.42L215.61,452.95Z M505.90,379.17L509.55,386.78L512.68,387.29L518.15,381.76L518.77,377.72L515.84,374.89L508.26,373.79L505.90,379.17Z" fill="currentColor" fill-rule="evenodd"/></svg>
