<svg xmlns="http://www.w3.org/2000/svg" viewBox="0 0 1000 1000" role="img" aria-label="Map of Guatemala"><path d="M664.42,765.96L657.53,760.11L630.53,772.62L627.92,766.87L622.48,768.64L619.78,783.11L633.71,801.96L602.53,814.06L591.63,840.00L575.00,835.79L539.71,859.72L523.88,877.93L525.51,900.00L434.60,864.37L347.24,864.30L295.81,856.06L211.70,812.07L120.49,740.33L136.60,713.45L130.79,683.70L137.76,670.87L137.85,652.23L153.01,636.99L127.08,598.12L215.98,443.54L452.46,441.64L461.57,436.12L457.41,432.61L463.70,423.53L456.26,414.72L462.12,409.19L457.42,404.73L465.97,399.09L460.16,395.07L467.74,390.54L465.19,383.55L472.42,383.53L469.58,373.36L454.32,371.10L441.52,359.44L424.67,360.79L428.64,356.03L421.83,351.73L424.54,339.47L418.24,340.48L418.14,327.63L393.77,297.68L370.75,291.62L361.35,284.17L363.94,279.39L356.79,284.17L345.13,277.58L302.78,224.27L272.05,212.93L357.00,210.19L358.72,100.74L702.34,100.00L704.47,252.45L688.01,476.28L748.83,476.27L772.71,483.11L803.14,503.72L801.20,513.87L806.29,513.87L817.41,495.02L816.01,484.31L828.99,485.52L806.60,467.56L807.00,461.44L879.51,509.25L737.62,623.92L702.29,639.63L697.05,652.20L700.71,660.83L688.78,681.12L705.36,708.59L702.36,733.48L686.28,735.10L665.58,754.21L664.42,765.96Z" fill="currentColor" fill-rule="evenodd"/></svg>
