<svg xmlns="http://www.w3.org/2000/svg" viewBox="0 0 1000 1000" role="img" aria-label="Map of Guinea"><path d="M291.81,597.49L289.54,592.94L298.07,583.45L307.28,581.72L296.30,580.53L299.18,572.75L294.02,583.96L290.28,582.10L289.20,567.98L291.81,562.96L286.23,564.94L283.90,572.16L280.31,570.60L277.70,561.40L281.51,553.92L274.09,556.24L268.85,552.80L271.80,539.72L265.24,547.26L260.82,539.72L245.96,546.07L256.79,531.15L257.07,522.39L263.77,515.72L259.13,516.60L254.05,509.74L252.96,519.41L245.67,520.55L243.41,514.45L250.37,498.39L243.42,507.48L233.38,507.78L222.32,496.15L210.14,489.76L211.45,483.83L217.10,484.19L209.06,479.60L216.44,470.67L206.79,477.39L205.58,486.15L199.91,486.44L197.15,480.45L203.09,474.73L201.57,472.91L192.44,480.91L190.12,472.57L187.29,475.04L175.80,466.86L167.62,469.03L166.49,456.39L157.32,445.93L158.72,436.88L145.48,440.02L146.27,430.09L152.10,426.42L148.62,424.94L150.07,416.83L155.11,412.48L162.48,394.96L140.95,422.11L143.27,416.64L138.84,415.95L146.17,403.84L134.42,415.95L130.67,408.41L135.09,404.61L136.56,397.06L129.20,402.36L130.67,394.14L128.01,392.67L144.74,379.11L142.53,376.06L136.45,384.23L130.01,385.16L128.99,381.45L125.45,386.59L117.35,379.86L118.16,387.41L112.93,385.16L118.16,391.14L110.72,396.72L112.93,408.41L105.17,405.72L100.00,398.50L112.99,379.11L127.10,346.37L139.74,328.55L160.24,326.87L179.84,316.17L185.18,309.79L214.80,313.27L228.68,309.06L230.45,301.60L236.30,307.82L245.56,305.30L246.21,273.22L219.39,256.93L222.48,249.59L233.69,243.18L244.38,245.40L249.33,241.45L253.03,223.30L245.05,209.43L245.74,199.79L316.04,203.90L315.37,217.06L318.68,221.82L326.34,222.39L329.74,214.84L333.66,214.80L348.75,225.89L362.26,226.91L368.12,233.94L381.81,231.43L393.22,240.07L411.44,235.34L420.93,228.92L432.41,231.22L440.35,227.67L458.27,231.55L488.06,226.64L498.09,231.43L491.77,232.52L492.06,241.83L485.24,252.55L503.91,270.66L510.35,273.94L519.39,271.95L534.37,251.35L545.18,249.50L561.05,263.02L560.74,271.03L571.14,285.53L577.21,284.59L587.53,274.06L592.31,267.74L592.69,260.60L599.80,260.31L606.73,253.80L609.75,255.30L619.08,249.68L661.81,267.83L677.75,270.75L687.98,254.90L719.40,243.98L722.38,234.36L711.23,223.67L727.06,219.30L739.84,222.56L758.33,233.16L756.35,248.91L765.02,254.93L764.13,268.56L775.17,272.14L777.54,281.73L772.21,310.98L785.23,311.91L792.75,328.67L801.55,331.53L804.31,329.36L806.69,336.67L823.11,342.77L817.64,345.75L823.57,347.93L822.96,350.76L810.46,352.61L809.79,357.46L797.21,368.35L788.01,385.39L790.15,388.25L803.24,386.14L809.04,377.25L823.76,377.09L828.37,380.42L830.84,396.73L826.71,408.96L830.03,412.02L832.91,436.55L838.91,446.17L848.98,445.74L851.13,453.08L861.90,455.37L866.70,461.67L867.04,469.54L861.90,480.45L849.84,488.47L846.50,494.18L848.48,496.94L844.84,498.90L850.27,509.52L846.59,543.90L857.76,559.43L878.11,557.15L871.19,581.90L880.00,583.58L890.90,593.66L870.94,602.41L866.94,622.53L868.02,625.90L884.77,629.51L896.29,643.11L900.00,670.49L888.29,669.21L882.59,659.21L878.09,665.45L866.77,657.12L841.99,657.68L836.75,661.87L834.90,684.60L854.37,693.79L863.23,691.38L861.30,700.29L867.62,709.87L856.14,708.33L849.69,724.39L852.99,734.32L841.99,757.93L838.89,761.43L818.85,753.92L811.23,759.93L802.49,752.77L802.39,745.68L789.54,745.00L785.11,752.92L784.89,765.33L770.25,783.05L771.07,791.14L763.78,793.81L760.35,789.67L742.20,800.21L742.83,794.98L733.48,788.36L730.46,779.28L723.43,779.80L718.06,774.87L711.79,779.64L708.48,774.87L702.80,779.86L717.60,752.88L715.15,746.51L717.39,739.80L708.42,726.18L709.98,708.67L707.03,705.87L704.58,708.38L703.81,693.50L698.55,691.22L700.81,682.45L697.55,677.09L701.89,673.92L691.00,666.54L682.68,668.66L685.56,660.64L679.88,658.18L677.84,663.83L672.29,649.88L668.71,656.10L653.89,658.06L641.22,665.31L639.66,656.62L631.91,654.12L622.80,659.30L607.45,657.36L588.08,677.39L576.71,675.04L570.73,682.01L568.56,680.07L579.72,653.28L595.90,637.90L583.19,622.25L583.79,596.11L567.37,592.86L567.78,584.15L573.96,577.45L575.05,568.48L565.31,559.85L558.16,559.09L560.35,557.33L552.27,539.79L535.17,515.84L522.72,506.46L518.48,494.49L441.85,493.35L440.59,501.05L416.91,506.23L402.30,500.28L381.20,505.53L376.68,508.81L375.80,521.61L369.35,527.20L366.70,536.25L360.03,542.64L356.48,556.02L349.73,563.96L342.00,571.16L328.83,572.20L328.70,582.56L311.79,597.22L301.91,593.63L291.81,597.49Z" fill="currentColor" fill-rule="evenodd"/></svg>
