<svg xmlns="http://www.w3.org/2000/svg" viewBox="0 0 1000 1000" role="img" aria-label="Map of Guinea-Bissau"><path d="M882.38,268.26L880.72,291.72L900.00,325.46L891.05,369.61L879.11,379.21L853.24,373.83L826.14,389.41L818.69,407.28L883.51,446.92L881.95,524.96L859.56,531.09L845.41,515.95L841.14,534.09L807.57,544.34L735.97,535.88L723.06,551.40L675.67,577.43L626.09,581.51L595.54,624.88L561.42,704.55L528.52,733.35L538.14,715.45L521.01,720.69L524.83,698.70L539.76,677.09L550.60,676.18L545.27,669.83L550.51,656.32L518.24,678.91L490.73,715.45L480.04,703.63L494.80,692.37L496.86,651.79L489.46,656.64L489.85,681.42L457.32,675.65L443.94,663.56L439.61,637.74L449.41,615.52L464.76,615.91L480.84,598.71L461.26,613.27L456.42,607.74L464.41,590.82L458.59,590.64L433.53,621.61L421.84,625.12L418.51,618.72L432.60,591.43L427.26,582.34L447.00,582.34L443.30,573.08L458.33,574.19L459.48,563.98L475.15,569.47L463.04,560.36L473.88,552.91L479.09,560.06L488.13,560.36L477.43,547.61L491.68,549.27L496.20,561.16L500.03,542.82L512.03,546.55L513.20,554.73L520.52,549.50L527.29,556.55L513.20,558.54L518.59,568.75L548.83,551.09L529.89,554.77L534.57,542.00L527.29,549.27L518.24,543.97L521.97,531.09L516.62,540.17L505.92,538.35L516.62,525.46L491.28,538.61L495.26,520.16L502.20,521.82L491.68,512.90L483.11,533.76L480.84,514.70L466.61,525.46L477.43,535.62L466.61,545.63L459.48,532.89L461.26,552.91L448.62,538.35L453.97,556.55L441.51,551.09L436.33,565.65L428.47,552.68L439.56,529.27L426.57,539.74L423.54,525.46L410.42,533.92L406.95,518.75L436.33,478.18L501.40,481.96L527.29,463.61L534.35,467.64L528.01,482.20L532.63,499.98L567.46,513.46L532.43,484.76L552.37,459.06L548.86,453.43L526.26,452.00L494.65,471.74L439.56,458.00L421.03,464.44L396.03,489.07L334.19,514.70L344.34,484.10L359.28,485.45L343.27,478.18L329.03,507.51L321.25,507.77L321.89,494.54L314.60,511.08L300.66,518.31L307.70,479.74L325.08,455.06L346.82,446.90L362.84,456.34L364.62,443.45L352.17,448.91L346.82,443.45L325.46,439.80L303.94,452.02L298.34,467.11L257.47,478.18L226.58,467.52L218.15,452.69L205.67,448.91L197.35,424.39L206.62,401.92L221.86,399.62L222.84,386.34L273.50,354.14L230.61,372.34L210.21,390.53L207.45,372.34L198.63,395.12L184.15,392.33L170.62,401.85L142.10,373.78L114.54,357.62L100.00,359.07L115.53,352.63L182.44,351.29L231.97,326.43L374.18,330.63L499.86,266.65L882.38,268.26Z M303.94,660.72L321.89,694.46L295.65,701.26L309.28,689.99L298.58,688.01L303.94,660.72Z M294.87,658.90L296.62,683.12L285.51,695.78L284.19,677.09L275.10,670.50L294.87,658.90Z M275.19,664.73L275.45,700.89L255.54,706.36L255.54,697.11L252.15,706.36L240.81,703.52L225.28,686.18L243.17,680.86L263.89,658.61L275.19,664.73Z M327.23,633.43L335.38,636.10L332.32,657.06L323.52,660.72L316.96,647.81L327.23,633.43Z M379.03,633.43L379.03,651.79L369.97,646.00L361.21,669.83L349.08,667.96L354.11,640.56L379.03,633.43Z M244.86,655.26L224.39,656.08L216.51,649.44L236.10,631.45L249.70,637.02L244.86,655.26Z M377.25,582.34L373.53,596.74L359.04,594.23L369.97,580.36L377.25,582.34Z M234.16,596.74L211.18,593.25L228.24,578.73L246.80,576.72L234.16,596.74Z M218.11,582.06L180.58,584.00L178.80,573.08L225.28,558.54L218.11,582.06Z M268.16,589.46L289.61,562.47L305.71,552.91L314.45,559.97L316.56,593.25L280.78,602.18L268.16,589.46Z M427.26,545.63L427.74,563.24L402.18,567.62L403.06,578.07L386.38,573.14L412.86,547.61L427.26,545.63Z M246.80,481.96L280.32,474.50L293.72,477.65L279.16,512.90L249.60,498.87L246.80,481.96Z" fill="currentColor" fill-rule="evenodd"/></svg>
