<svg xmlns="http://www.w3.org/2000/svg" viewBox="0 0 1000 1000" role="img" aria-label="Map of Guyana"><path d="M765.71,817.98L755.65,821.91L748.65,818.50L730.61,825.37L708.47,820.49L698.38,809.32L683.90,817.23L675.14,814.13L663.24,822.47L649.01,843.23L627.63,842.74L609.97,850.44L603.18,848.79L598.61,864.08L585.49,863.84L581.31,858.57L573.39,859.36L566.90,854.92L559.36,862.57L559.78,866.97L546.02,872.54L549.54,883.93L545.45,891.16L526.12,889.66L518.09,898.32L511.38,900.00L504.48,896.53L497.06,886.51L465.33,878.12L456.83,863.23L448.36,859.91L436.05,843.87L419.82,837.98L423.54,829.01L411.39,826.61L413.24,783.02L395.78,772.63L395.39,761.87L385.30,736.33L388.64,698.50L404.58,664.44L404.62,650.57L400.14,640.01L419.24,628.23L420.80,621.07L428.71,616.06L430.53,605.56L436.38,601.18L428.96,597.80L421.72,585.97L423.57,580.07L413.59,572.61L413.59,563.52L419.18,553.25L405.89,544.08L368.01,537.34L367.84,533.28L375.83,528.69L381.80,515.90L387.31,479.87L375.44,468.93L371.07,459.69L366.22,461.45L362.23,457.10L349.30,465.07L339.92,463.61L336.77,467.19L305.31,464.17L234.29,383.49L240.63,379.02L248.06,365.95L264.04,357.33L264.77,348.94L259.79,340.43L262.07,329.70L254.27,316.66L263.15,299.90L284.34,298.18L288.05,294.18L287.18,289.12L309.59,294.34L316.16,286.68L344.51,275.74L346.42,268.54L352.49,263.19L352.88,255.94L345.08,250.37L333.92,248.61L326.06,255.45L317.36,248.33L315.73,241.87L320.24,233.24L306.32,212.05L320.30,200.29L321.84,190.16L328.46,180.80L344.79,179.69L360.32,164.45L371.34,157.43L382.11,155.91L389.95,138.83L403.77,133.96L405.25,129.33L383.04,100.00L402.85,120.48L427.49,134.28L434.67,135.65L446.53,146.41L440.27,138.71L411.12,121.98L409.15,116.37L413.49,116.75L482.10,159.08L511.44,188.95L521.80,205.23L521.33,200.67L527.78,203.58L548.61,228.25L551.36,235.19L549.12,267.90L540.12,279.18L535.45,322.27L528.08,336.76L533.56,331.65L537.74,332.31L540.25,308.49L551.65,288.40L558.48,281.73L567.80,280.77L583.21,289.32L594.22,288.42L600.94,291.67L644.96,331.22L652.49,348.75L656.63,340.81L665.48,343.64L678.34,352.11L691.59,368.35L694.84,390.38L689.89,406.73L692.22,416.77L681.01,442.33L673.38,451.71L678.45,452.62L679.36,461.65L683.99,456.94L689.16,467.74L684.45,470.68L682.94,467.40L678.44,467.54L674.93,478.49L678.27,483.90L656.67,487.04L635.41,485.42L626.00,494.08L617.74,494.48L609.63,508.22L619.14,523.99L606.68,550.15L606.55,562.17L594.24,578.22L598.08,595.95L615.06,615.00L619.96,631.25L631.17,637.24L640.04,647.07L638.88,660.80L658.19,666.35L663.72,661.08L670.03,663.46L676.33,660.28L679.36,667.35L678.75,687.68L684.45,687.76L682.80,690.94L687.41,700.08L684.31,706.35L689.81,709.14L685.93,713.08L687.81,719.82L696.01,722.01L694.86,727.97L699.96,727.67L698.55,731.30L703.63,741.94L707.47,742.69L709.62,755.85L714.95,755.71L717.16,768.97L741.56,808.43L755.12,809.83L765.71,817.98Z M553.09,275.22L551.73,281.86L565.61,272.78L565.46,272.70L553.09,275.22Z" fill="currentColor" fill-rule="evenodd"/></svg>
