<svg xmlns="http://www.w3.org/2000/svg" viewBox="0 0 1000 1000" role="img" aria-label="Map of Haiti"><path d="M866.79,305.96L881.82,393.71L861.43,419.58L878.27,443.26L900.00,453.85L898.72,471.56L859.41,517.94L836.48,527.41L855.89,529.59L873.51,551.71L877.20,586.50L843.17,630.29L795.94,635.98L825.63,669.84L823.35,685.90L880.29,720.79L862.13,753.98L861.51,802.16L828.74,765.47L778.56,743.27L644.05,747.07L641.79,762.57L586.78,761.49L588.69,767.57L550.03,771.81L418.11,747.02L430.86,739.19L412.11,737.16L370.30,745.28L363.59,736.98L355.73,749.41L344.08,747.91L344.25,739.19L332.75,751.34L336.59,736.98L285.74,771.63L280.85,779.75L295.18,805.20L272.88,806.03L207.82,740.27L169.33,720.58L132.84,725.17L112.14,710.95L100.00,686.30L121.06,645.85L119.83,630.43L165.47,614.75L292.51,653.67L353.40,641.82L347.87,650.77L317.42,651.46L334.93,664.92L414.56,661.78L490.49,678.61L522.05,674.12L544.90,684.88L597.59,683.82L631.25,647.25L681.91,647.40L699.38,656.39L705.95,610.89L644.44,580.50L625.29,549.70L570.34,501.12L568.99,493.51L600.20,481.61L573.20,447.97L582.95,431.74L598.29,429.71L582.40,417.01L581.74,405.05L595.63,402.96L593.62,390.21L607.87,395.23L602.46,384.43L585.12,381.92L517.39,337.63L455.94,323.91L403.06,327.98L389.49,317.22L386.60,301.60L415.52,273.03L400.02,273.03L455.47,253.44L471.10,238.37L527.19,248.71L580.87,236.52L639.06,255.54L653.42,269.13L690.61,276.16L704.99,303.44L713.62,297.35L709.96,289.45L737.32,283.14L743.47,296.34L793.49,309.72L807.44,299.36L836.67,304.48L826.32,317.18L848.82,321.82L842.38,305.66L866.79,305.96Z M319.36,785.83L355.76,793.93L330.72,795.06L319.36,785.83Z M294.43,627.12L310.29,624.68L317.42,635.24L302.00,639.08L294.43,627.12Z M529.13,201.69L573.47,193.97L622.55,217.42L619.36,224.37L529.13,201.69Z M445.40,552.93L434.86,535.70L461.64,526.14L561.20,568.19L571.69,599.87L565.41,606.99L558.51,597.71L507.50,588.24L445.40,552.93Z" fill="currentColor" fill-rule="evenodd"/></svg>
