<svg xmlns="http://www.w3.org/2000/svg" viewBox="0 0 1000 1000" role="img" aria-label="Map of Honduras"><path d="M100.00,604.11L100.79,596.13L114.88,583.16L125.83,582.05L127.88,565.16L116.59,546.50L124.71,532.73L122.22,526.87L125.78,518.33L149.84,507.67L223.59,450.14L234.16,436.60L243.80,434.79L246.45,429.81L259.55,433.77L269.47,421.69L283.30,417.42L281.11,410.98L310.49,403.56L322.82,408.25L321.51,406.15L327.29,401.89L323.95,407.33L341.65,421.77L358.90,413.22L413.87,425.19L432.64,419.05L471.17,419.36L483.48,423.78L509.43,408.27L532.25,406.52L540.16,401.73L541.96,392.81L530.57,389.18L569.69,396.44L571.77,401.89L575.72,400.12L597.25,410.66L627.33,408.73L650.24,395.14L659.98,394.91L701.50,409.78L703.62,423.31L709.31,422.64L710.12,418.72L714.48,422.06L730.23,420.50L705.96,411.55L750.53,418.45L801.95,461.80L823.03,472.93L800.38,466.22L795.30,457.47L787.84,454.83L781.27,458.37L775.06,453.02L776.89,462.09L771.62,453.02L761.03,453.02L764.54,462.09L771.95,455.49L776.53,466.36L772.42,469.11L775.58,476.11L783.82,480.87L783.82,475.72L788.37,485.26L797.12,484.88L793.63,486.70L796.27,491.86L811.23,490.34L788.28,478.44L784.96,471.98L789.08,470.27L812.23,483.55L812.03,489.34L817.31,488.34L819.19,499.46L835.38,492.24L836.72,486.96L849.00,488.52L848.33,498.24L840.68,494.79L836.96,502.91L840.24,498.50L843.00,505.00L854.89,497.67L848.75,486.30L838.40,485.79L823.62,476.34L826.49,472.87L864.36,490.90L871.00,495.79L880.25,517.26L900.00,526.75L882.58,528.68L866.64,522.23L857.79,528.68L851.39,524.81L849.11,533.22L839.17,538.43L837.71,543.29L827.91,541.39L826.23,547.83L811.33,549.57L813.88,552.45L805.12,556.00L798.03,552.45L798.03,557.82L783.13,558.23L774.01,553.83L776.11,561.46L766.77,564.27L754.75,558.47L754.05,569.22L744.92,569.63L741.76,564.18L735.92,572.99L726.39,576.97L719.77,575.08L720.65,571.53L698.58,569.63L686.66,550.15L672.27,550.70L653.05,571.18L657.38,575.08L653.79,578.80L656.17,581.03L648.88,586.94L641.30,584.32L640.48,594.74L633.55,605.22L639.56,611.35L638.20,616.58L618.72,621.96L592.19,652.62L566.59,664.04L564.65,682.84L554.16,679.65L549.36,672.10L540.65,671.08L527.94,659.91L528.99,652.05L515.96,655.77L487.92,691.76L462.04,688.37L433.22,693.28L436.55,741.62L441.20,752.67L435.39,757.67L422.52,754.00L414.65,760.55L413.10,780.94L398.70,795.12L362.88,794.88L368.64,788.51L357.90,782.78L364.18,779.35L349.36,777.61L347.25,767.23L337.44,754.29L346.66,744.66L354.54,742.94L351.77,737.73L345.77,736.49L341.31,744.66L323.79,742.94L323.09,730.40L314.26,743.67L298.29,738.34L310.61,731.12L309.04,724.88L301.78,721.54L312.87,684.00L298.19,670.58L272.85,677.17L262.10,660.74L244.63,660.34L244.47,667.62L238.17,671.90L211.03,679.19L210.06,661.56L186.11,658.06L178.95,652.41L178.99,644.58L167.13,646.03L161.67,634.88L150.79,633.93L142.19,616.33L134.30,613.51L132.63,606.71L126.66,612.65L100.00,604.11Z M323.87,750.62L314.05,752.79L315.46,760.83L324.95,761.39L327.37,754.58L323.87,750.62Z M318.08,749.53L327.86,753.14L331.10,742.32L318.02,747.09L318.08,749.53Z M418.77,376.38L418.77,380.91L407.86,384.48L403.53,382.14L418.77,376.38Z M453.72,355.39L475.05,340.55L488.95,336.18L508.25,336.34L491.51,338.43L453.72,355.39Z M538.38,339.67L550.70,324.50L555.09,327.01L538.38,339.67Z M797.88,211.62L804.50,208.79L805.19,203.80L801.74,200.13L795.93,199.36L791.58,206.98L793.84,210.51L797.88,211.62Z" fill="currentColor" fill-rule="evenodd"/></svg>
