<svg xmlns="http://www.w3.org/2000/svg" viewBox="0 0 1000 1000" role="img" aria-label="Map of Hungary"><path d="M900.00,362.78L886.56,375.27L885.17,383.43L871.71,393.16L862.90,395.65L850.09,390.42L843.19,399.38L828.71,401.45L815.62,425.30L797.43,437.24L796.69,458.67L780.25,475.39L768.64,508.72L753.20,523.04L757.75,528.12L748.14,542.78L747.37,553.34L737.88,560.74L734.05,571.54L737.75,578.39L725.28,591.77L714.06,595.66L707.48,617.69L711.67,628.18L701.64,631.36L695.61,651.19L684.64,659.45L657.30,653.28L647.83,659.21L648.46,667.05L638.94,676.51L615.90,670.20L613.02,674.92L594.04,675.46L589.28,681.65L572.25,673.52L552.28,672.04L535.93,678.01L521.64,670.38L507.56,671.93L496.22,686.95L478.91,695.78L473.78,703.62L460.16,703.16L453.14,697.13L448.44,706.74L440.56,708.93L440.56,713.95L429.32,712.46L416.23,720.72L402.09,716.43L392.40,732.19L372.46,745.18L349.68,737.62L308.04,739.99L302.27,732.58L284.27,727.21L276.55,711.46L247.57,708.08L246.69,703.06L241.06,703.06L244.20,700.80L239.38,698.31L231.44,680.18L218.78,678.17L203.87,663.88L187.70,634.17L177.96,634.17L166.66,619.89L149.68,613.39L147.97,605.91L132.36,588.89L137.32,584.49L125.96,571.49L127.28,554.82L100.00,550.77L121.33,526.22L146.27,527.22L138.99,522.80L147.07,518.45L142.49,512.80L149.00,503.12L140.05,501.69L141.01,496.25L137.59,494.51L138.60,484.80L144.72,478.97L138.95,467.10L140.09,458.15L164.49,448.42L164.01,441.44L170.18,433.66L163.23,419.10L137.00,412.28L155.87,396.17L182.96,409.83L189.17,403.33L195.36,408.69L215.73,404.10L212.81,400.20L213.40,386.09L207.32,377.26L214.82,374.07L216.94,358.72L228.64,350.03L246.69,353.77L274.37,383.11L304.22,396.90L406.48,392.05L421.06,382.58L413.08,375.96L412.42,358.57L423.66,346.61L493.20,338.66L499.52,334.24L503.32,318.17L516.20,314.18L531.93,318.80L534.23,327.61L552.22,330.98L573.05,318.37L576.50,310.77L598.88,304.99L617.44,270.52L617.44,262.31L655.02,254.82L691.46,268.72L709.44,266.28L716.52,258.58L728.64,256.20L748.35,268.04L758.48,288.97L768.08,295.66L820.32,281.03L828.56,283.57L826.78,291.58L831.73,292.99L838.62,311.38L853.28,311.47L867.91,336.72L884.45,333.38L891.02,337.77L897.31,345.34L894.67,357.20L900.00,362.78Z" fill="currentColor" fill-rule="evenodd"/></svg>
