<svg xmlns="http://www.w3.org/2000/svg" viewBox="0 0 1000 1000" role="img" aria-label="Map of Iceland"><path d="M823.12,258.07L792.17,274.98L790.41,277.97L796.18,285.93L794.96,290.83L778.49,304.88L786.11,307.32L787.44,311.90L784.47,314.34L785.98,315.45L802.16,317.58L811.83,311.90L819.25,324.34L820.24,332.00L816.82,343.11L799.37,364.87L806.84,358.90L802.79,369.33L840.09,361.24L835.33,371.67L844.09,380.06L838.03,382.88L825.54,401.83L823.21,409.42L840.76,383.51L850.03,387.08L846.02,381.35L861.95,390.70L873.29,389.22L873.42,396.45L877.38,397.73L878.05,404.72L884.60,399.63L892.27,407.18L889.25,416.54L890.29,422.28L887.32,424.73L887.82,430.59L875.89,432.92L883.55,439.25L863.48,446.96L886.61,442.79L895.28,450.57L889.03,457.60L861.50,461.00L891.03,461.00L889.80,468.02L882.33,470.46L887.94,470.56L889.25,472.79L886.78,475.24L891.03,477.48L898.75,465.79L898.26,478.75L900.00,481.36L892.27,489.28L894.03,493.97L879.80,497.12L876.27,490.22L861.50,481.10L864.42,485.78L847.05,489.28L869.91,492.79L885.84,508.10L860.01,506.84L879.36,516.30L880.86,520.33L876.14,524.49L866.40,523.41L875.62,529.80L862.98,529.16L860.46,532.78L864.96,539.80L844.35,546.81L839.36,543.90L833.49,531.33L826.72,529.16L830.93,531.23L830.18,536.19L836.16,539.80L844.09,555.01L828.20,553.84L834.31,562.06L821.61,565.48L828.42,572.66L838.88,562.86L830.18,575.00L824.47,597.22L809.85,600.83L822.76,594.98L812.28,592.66L795.18,611.38L800.36,618.40L796.60,621.25L783.75,614.98L775.07,620.72L776.51,614.98L773.04,615.56L770.45,609.33L771.11,616.04L768.06,614.55L764.93,603.34L761.88,600.21L757.17,598.49L762.39,601.38L765.13,608.91L762.65,608.91L764.38,614.21L762.65,619.66L741.78,626.57L733.33,634.86L740.79,633.80L738.35,635.91L719.58,641.87L716.95,644.34L720.37,645.39L706.01,659.44L696.61,663.70L684.92,682.94L682.66,684.21L685.63,679.54L674.70,689.00L662.28,690.06L664.80,692.40L661.29,700.60L654.68,689.64L652.65,700.01L651.59,689.51L651.87,700.88L648.92,703.03L650.85,684.14L648.77,680.28L648.92,689.00L644.42,692.40L647.39,699.32L646.07,701.26L631.51,698.26L605.86,709.32L606.68,703.03L603.17,706.45L603.71,710.05L594.26,717.08L601.23,710.05L594.71,704.10L594.71,708.78L587.28,708.78L588.77,711.12L576.40,722.05L588.77,722.93L583.76,731.07L579.37,728.87L576.31,731.22L584.31,733.45L576.58,748.43L559.87,756.95L557.50,753.45L565.42,746.42L551.07,743.98L554.78,758.02L560.72,758.48L520.97,769.99L480.73,762.80L449.97,748.60L448.22,743.98L415.61,744.68L403.50,733.45L408.00,733.45L404.49,732.28L404.98,728.87L402.46,731.76L399.54,729.94L402.02,729.94L394.37,716.93L392.57,718.15L397.56,727.60L389.15,715.91L388.61,711.12L392.93,707.23L406.52,712.39L397.02,703.03L399.27,694.68L388.30,708.29L387.21,715.59L373.23,705.28L385.15,706.45L377.18,704.10L379.65,699.64L379.37,690.02L376.64,689.00L378.45,693.32L374.38,699.92L368.73,700.60L369.76,704.10L342.90,685.28L342.46,678.26L353.34,675.92L339.45,674.61L334.93,680.60L341.41,686.55L331.23,686.47L329.99,692.40L308.75,695.43L299.09,688.80L279.33,694.74L259.72,690.06L234.00,698.80L231.15,685.28L234.38,675.92L238.07,675.33L231.19,670.96L233.21,651.90L239.89,656.07L246.52,670.15L281.15,657.87L286.76,653.58L281.57,647.31L290.26,645.39L280.82,639.55L298.62,643.10L297.24,637.20L304.12,637.25L305.65,633.80L301.78,635.48L305.15,630.09L297.68,630.09L297.30,625.85L289.28,626.57L301.90,607.48L312.87,601.90L324.55,604.24L326.57,600.83L310.84,597.63L286.81,615.68L276.86,612.65L294.27,599.67L280.82,597.22L285.91,580.32L300.21,573.83L297.24,570.32L305.65,562.02L314.55,568.65L320.59,569.04L311.63,563.31L314.60,560.97L307.13,560.97L319.55,555.01L305.65,558.51L308.66,552.56L294.72,570.32L283.45,576.66L281.29,569.55L277.94,584.61L272.16,587.87L267.90,580.85L265.43,583.18L267.90,572.66L265.43,571.39L266.46,567.98L259.49,571.39L257.66,566.49L258.95,560.97L252.02,552.56L257.64,556.52L259.94,547.98L268.33,543.70L270.42,539.80L254.96,550.74L253.51,549.15L260.93,537.46L252.47,535.12L254.50,525.66L236.39,535.27L234.66,533.95L237.85,533.36L235.36,529.16L227.68,529.16L232.63,532.78L230.69,533.87L193.77,524.33L178.48,530.64L170.05,527.99L171.37,526.16L166.42,530.54L162.77,539.64L151.20,542.25L143.04,536.26L134.78,513.95L150.02,507.18L165.37,512.68L174.44,504.48L183.99,504.60L182.96,500.98L192.55,507.92L195.38,503.96L194.39,495.13L199.40,491.85L205.32,492.79L199.83,503.32L203.84,509.28L203.68,502.68L210.07,493.06L215.76,497.58L227.19,490.56L220.76,489.28L232.09,482.27L233.66,486.84L229.66,490.56L234.12,489.28L242.08,498.64L238.57,492.79L244.57,486.35L296.70,489.28L298.70,485.52L295.22,483.44L300.10,476.77L303.37,462.08L297.91,459.97L281.65,475.60L243.68,466.34L250.99,464.72L244.06,463.44L253.02,449.41L306.19,417.61L285.81,419.94L288.78,415.27L284.82,408.25L279.55,412.36L275.82,404.74L274.33,414.10L265.70,420.99L256.04,411.05L272.16,402.51L276.36,393.05L266.42,403.27L258.95,404.74L262.96,400.17L261.45,399.00L249.41,408.25L244.53,386.66L244.49,399.21L241.40,403.52L238.33,398.34L236.54,404.81L232.81,397.25L234.66,388.36L229.06,387.38L231.08,409.32L219.76,402.51L225.97,392.32L222.19,389.42L218.48,398.16L214.99,390.70L212.69,400.85L206.29,403.04L198.35,396.54L198.39,407.18L194.84,411.76L182.02,407.27L146.56,425.97L140.27,423.56L140.13,414.04L100.00,408.25L111.92,397.73L112.62,389.42L117.14,385.91L146.90,405.82L153.14,403.57L146.74,402.51L132.84,383.69L153.14,390.70L133.30,374.33L129.34,360.08L132.40,357.41L166.09,374.33L170.55,380.06L170.90,390.14L190.93,378.89L178.40,378.36L172.54,371.46L193.89,368.44L195.38,367.09L193.40,364.87L197.86,361.24L188.48,365.58L158.77,362.61L148.80,345.28L149.05,340.09L153.57,336.60L168.07,344.87L196.41,350.82L169.73,340.23L152.68,322.00L153.09,313.95L157.16,310.84L180.49,318.91L184.45,326.05L180.99,317.81L163.08,303.82L176.53,302.09L182.96,307.22L176.75,300.20L168.07,299.14L178.17,288.97L200.55,298.97L203.84,310.95L209.61,305.33L213.29,318.18L207.35,329.66L216.75,315.51L218.73,322.65L223.18,320.20L215.76,333.06L219.99,332.21L224.44,323.17L224.71,339.02L228.72,315.51L234.61,314.38L242.25,328.56L237.12,352.45L245.05,328.38L250.94,334.05L251.04,339.38L253.51,336.68L250.04,351.88L257.96,339.02L253.44,323.61L249.00,318.91L256.47,307.22L248.70,310.81L221.33,296.63L213.24,283.83L229.66,279.04L244.06,286.02L243.57,281.38L257.46,276.80L243.18,275.36L250.04,270.96L248.43,268.79L232.63,273.30L235.60,262.77L240.06,260.32L234.53,262.56L228.79,268.50L224.44,269.68L226.15,261.49L223.67,262.47L215.99,272.30L197.87,263.08L208.23,262.16L209.82,256.82L201.81,249.80L204.03,248.08L221.44,250.04L215.22,243.94L233.66,252.13L242.46,244.13L253.18,250.64L250.53,243.94L252.86,244.33L258.73,256.42L269.44,266.18L267.56,267.66L268.40,277.97L285.60,276.84L289.77,282.66L284.82,287.33L302.23,292.12L304.18,309.87L310.11,311.90L308.17,320.20L311.63,317.27L310.11,309.66L316.80,307.22L319.68,311.56L316.11,315.98L317.82,319.55L332.62,322.41L333.50,326.05L312.62,330.72L326.86,329.53L329.00,330.72L325.00,335.51L334.71,334.92L336.00,341.32L332.96,344.87L336.42,348.48L332.83,356.67L322.03,363.58L332.51,368.37L324.44,376.98L314.60,376.55L306.87,363.46L300.21,363.58L308.17,370.60L306.64,376.55L311.09,384.22L327.52,388.36L321.57,398.89L333.32,392.17L334.93,399.53L333.40,405.79L322.03,418.78L333.72,412.93L341.21,420.21L342.61,442.15L350.07,466.82L351.84,463.46L347.89,449.41L351.25,439.75L349.42,418.97L352.58,417.79L359.27,434.75L362.74,436.44L357.51,408.46L362.52,392.25L380.12,376.40L383.88,380.37L382.21,400.09L386.63,395.37L387.12,403.57L394.59,410.49L398.06,401.23L390.59,396.45L399.30,393.05L400.98,404.74L401.81,393.10L405.98,382.41L409.49,381.35L406.75,376.52L409.38,372.95L409.41,363.33L404.49,354.33L405.69,346.32L396.53,318.91L399.52,308.40L422.40,301.48L437.78,340.19L450.20,346.04L455.98,366.32L461.13,369.54L464.33,364.87L468.49,370.39L471.25,366.13L472.61,351.95L468.82,336.68L464.52,330.78L471.57,322.65L469.81,312.54L484.93,307.22L490.13,310.05L491.75,305.98L491.95,308.49L497.35,311.90L493.93,304.88L496.57,295.75L505.56,291.29L507.86,292.36L507.34,297.86L514.09,289.10L517.73,290.83L515.71,299.67L523.86,294.83L529.12,301.42L526.23,308.49L534.57,309.78L536.63,318.91L534.89,328.38L548.81,332.49L558.22,346.61L561.24,369.54L567.40,376.55L569.43,384.74L569.66,376.37L566.10,369.94L569.13,352.99L566.76,341.30L558.24,335.59L557.91,329.61L552.51,321.37L550.17,306.14L552.51,293.18L580.36,297.86L582.34,303.82L594.83,313.62L606.68,339.02L604.65,328.38L610.63,326.05L602.22,324.97L613.76,324.78L616.57,330.72L620.99,307.32L635.96,286.06L647.07,289.77L652.12,304.93L664.05,298.32L666.74,299.14L662.28,301.48L664.51,304.56L668.22,299.14L675.74,307.22L669.26,295.52L680.49,289.83L682.17,289.78L673.75,295.52L681.62,293.18L688.11,299.14L683.70,291.48L688.42,274.76L681.65,261.02L682.17,250.96L677.47,241.54L679.62,237.09L682.66,240.43L687.86,234.89L689.14,241.50L688.60,238.09L692.57,235.65L696.33,241.50L707.01,232.14L717.34,232.01L726.89,239.15L723.83,242.49L723.52,251.34L740.26,256.12L742.23,265.00L735.30,274.36L741.43,278.42L740.79,283.83L753.16,285.00L763.92,298.26L767.40,290.04L767.47,279.16L783.60,276.26L796.89,257.94L823.12,258.07Z M585.38,723.32L592.66,724.89L596.48,716.03L591.31,713.61L585.50,715.63L583.11,717.82L585.38,723.32Z M570.82,235.73L578.14,236.41L581.17,231.04L579.65,226.11L574.72,224.59L568.00,227.84L567.59,232.43L570.82,235.73Z M403.57,762.16L406.24,771.30L411.35,770.24L414.33,763.74L412.98,761.51L406.63,757.97L403.57,762.16Z M541.06,321.60L545.24,328.81L550.36,329.70L551.58,325.11L546.65,317.77L542.08,317.09L541.06,321.60Z" fill="currentColor" fill-rule="evenodd"/></svg>
