<svg xmlns="http://www.w3.org/2000/svg" viewBox="0 0 1000 1000" role="img" aria-label="Map of India"><path d="M371.45,100.00L373.60,101.79L377.78,100.10L376.66,106.30L384.31,124.23L401.32,131.90L401.97,135.57L395.58,139.41L397.42,155.69L404.54,161.21L414.43,162.47L411.25,169.60L418.52,175.98L414.10,182.38L410.91,180.78L401.12,187.63L396.66,184.42L395.76,179.74L386.62,182.03L388.52,190.87L395.96,198.26L394.05,203.65L397.89,208.19L394.79,210.90L395.97,216.52L400.54,217.59L404.41,212.25L406.00,212.89L413.01,224.43L417.59,226.81L424.66,226.36L434.37,232.49L433.21,237.35L444.02,240.12L454.59,247.00L451.07,247.35L438.12,259.65L438.54,263.91L434.09,269.14L435.25,275.11L431.99,277.68L429.49,285.28L437.10,291.11L441.22,292.92L442.97,289.68L458.91,298.51L462.19,305.00L464.78,304.10L476.71,312.72L481.17,311.01L490.89,317.55L498.10,317.07L499.98,322.62L509.86,324.03L513.75,327.19L516.46,323.30L528.60,326.79L528.07,324.32L535.41,322.11L539.88,325.93L548.12,327.76L548.99,335.61L553.59,336.10L565.79,343.71L574.15,340.54L579.84,348.47L584.58,346.01L591.67,347.19L602.81,352.69L611.32,348.08L613.00,352.96L618.04,354.59L621.05,352.34L625.48,353.70L632.82,351.29L635.56,354.02L640.59,343.52L635.40,333.31L640.35,314.85L638.79,310.56L652.05,305.62L657.04,308.26L658.40,312.49L655.45,321.60L659.36,327.61L655.15,332.19L657.68,333.67L658.31,337.91L659.73,336.92L664.66,341.36L671.03,340.45L683.28,344.85L691.42,343.31L697.17,339.27L706.73,342.88L721.77,342.67L724.98,339.97L727.59,342.03L735.49,340.33L736.88,341.88L737.25,339.70L741.92,339.52L739.71,332.99L742.33,328.26L739.38,323.25L729.76,321.59L730.57,314.62L728.72,312.70L738.79,316.23L746.25,312.32L747.92,314.52L754.95,312.80L759.14,308.96L756.61,306.97L757.64,304.87L771.38,299.09L774.22,291.78L790.07,289.57L791.74,285.07L800.96,280.07L799.41,276.63L807.52,271.93L812.10,276.10L827.44,279.73L830.56,278.82L832.55,273.91L836.52,274.67L837.23,271.27L845.79,270.47L849.96,274.03L853.36,273.58L848.39,277.71L848.93,282.38L853.37,279.73L855.73,280.89L859.24,287.48L851.69,296.86L872.81,298.37L878.21,302.52L879.22,308.71L878.47,311.51L875.60,311.36L866.24,319.72L872.91,333.97L866.32,331.62L862.16,326.36L847.56,329.23L828.56,344.70L821.09,347.20L818.98,356.22L821.83,362.83L817.92,366.39L818.13,371.54L807.72,381.07L806.31,386.37L809.83,388.19L810.34,391.33L799.61,410.62L795.37,423.85L784.44,419.72L777.84,420.99L774.02,418.09L777.16,428.77L775.72,444.09L773.07,447.54L769.62,446.81L770.54,450.99L767.82,456.25L770.49,468.31L769.66,470.32L766.62,469.91L765.44,475.66L762.81,476.72L757.78,471.23L754.98,476.15L746.76,428.04L740.52,429.89L738.02,427.58L738.49,433.92L733.38,440.12L734.72,445.21L729.28,449.25L724.31,440.39L723.70,445.95L722.21,444.89L717.61,430.18L723.50,417.10L729.17,417.20L730.40,413.88L732.34,415.90L733.10,413.35L736.84,415.48L737.43,410.47L742.82,408.58L745.82,395.07L749.91,396.59L752.59,394.04L740.91,386.99L697.58,387.87L683.42,384.12L683.67,364.79L679.11,358.02L676.22,365.34L670.86,364.26L665.25,360.14L663.29,353.62L660.63,351.99L659.33,353.49L662.66,357.70L653.42,356.86L653.24,352.67L645.87,347.20L644.38,351.28L648.17,351.59L649.12,354.41L640.45,360.31L638.47,368.92L642.95,370.09L649.97,378.13L656.25,378.08L658.06,382.79L661.77,384.12L660.19,387.38L647.66,386.77L644.58,395.53L639.18,394.37L636.77,401.91L639.05,405.93L648.54,411.10L655.34,411.88L654.74,421.96L651.19,423.90L650.22,429.61L656.19,434.10L654.28,440.68L661.12,442.06L657.97,448.37L660.72,451.93L660.29,460.27L664.19,471.33L663.74,477.24L659.69,476.38L664.30,486.17L659.34,485.17L658.49,482.01L658.49,485.64L657.25,484.10L656.72,487.54L654.57,487.26L656.01,471.89L652.58,477.04L653.34,469.82L651.06,487.83L648.87,487.87L649.07,476.87L648.05,485.99L646.40,486.65L644.80,483.34L644.24,486.37L642.99,481.13L642.80,487.92L640.01,476.66L641.34,470.86L636.44,468.84L633.78,463.71L635.30,468.71L640.47,473.03L631.89,483.06L615.46,487.99L608.11,494.24L606.19,501.06L609.35,508.75L607.10,509.46L611.37,511.76L603.79,517.57L602.99,520.93L605.31,519.63L602.29,523.00L603.88,522.43L597.14,526.06L595.35,531.20L588.25,527.20L593.95,532.15L570.80,540.46L569.41,539.41L573.29,538.25L573.13,534.64L569.75,534.07L565.29,537.30L561.55,545.69L564.76,540.74L568.49,539.79L566.91,542.97L573.29,539.79L551.55,554.90L551.61,558.22L535.31,578.53L518.15,588.98L515.28,594.69L512.83,594.73L512.62,598.16L490.52,611.13L487.02,616.63L488.62,618.93L489.97,617.20L488.44,626.35L474.31,633.51L461.24,633.23L454.83,648.67L452.17,646.58L451.82,641.62L449.50,650.38L448.69,645.70L445.94,645.05L435.80,650.81L429.92,667.73L433.66,682.41L433.09,688.55L429.76,692.39L432.06,691.76L436.69,713.69L432.23,705.68L432.06,708.74L430.98,706.63L429.92,708.74L431.64,712.03L437.03,713.99L437.18,720.45L433.21,738.97L427.09,747.73L428.68,747.06L422.99,760.21L423.86,771.00L422.05,771.22L420.14,773.37L424.21,772.10L424.83,801.28L417.82,799.88L410.02,802.41L409.83,808.44L400.34,824.07L404.53,828.92L411.44,828.48L414.36,832.84L402.30,829.52L387.33,834.49L381.38,840.69L382.22,843.79L378.08,854.97L363.94,862.98L350.57,854.85L338.84,839.70L342.07,837.06L338.42,838.74L334.14,828.22L332.81,823.55L330.85,810.76L331.24,810.47L334.95,818.37L333.99,822.78L337.78,822.38L335.28,821.43L334.95,813.81L329.45,806.50L330.95,802.79L328.69,803.31L317.85,771.28L307.18,756.60L308.97,754.49L303.79,753.17L294.29,730.84L297.23,729.34L294.02,729.81L290.70,715.34L290.11,708.36L291.90,707.77L289.95,707.60L285.66,697.28L283.94,691.45L286.01,691.17L283.58,689.76L281.94,683.38L283.91,684.88L275.31,676.06L278.91,673.75L275.71,674.59L270.55,668.11L269.98,660.76L267.17,658.96L271.97,659.91L267.52,657.82L269.32,655.35L266.74,656.47L265.97,654.40L268.60,651.91L265.49,652.86L258.45,640.57L259.51,637.21L258.45,639.32L254.71,627.65L256.68,628.06L256.48,625.50L250.12,599.17L252.06,598.34L244.95,580.60L245.29,578.87L248.34,581.67L248.70,579.23L244.03,574.88L244.89,571.93L247.23,573.75L243.00,566.81L244.95,563.83L246.72,566.49L246.37,562.58L244.17,561.94L248.32,558.58L246.54,559.04L246.19,554.47L242.21,561.70L240.89,560.45L241.28,550.27L248.13,552.95L240.71,548.43L240.47,545.60L243.71,544.19L239.64,544.08L239.91,537.31L238.49,538.23L237.74,535.30L245.46,510.05L244.26,507.02L242.61,507.92L243.95,503.84L240.93,502.69L242.95,502.02L241.90,499.73L236.85,500.41L239.96,497.82L235.54,492.62L240.28,490.75L236.04,491.74L242.25,485.43L250.27,482.27L235.17,484.80L235.60,479.72L239.96,475.69L234.98,478.01L233.91,476.19L235.83,470.11L240.31,470.96L244.70,467.97L232.99,469.05L231.20,465.32L229.41,468.27L227.13,467.13L224.75,467.79L228.84,469.14L228.87,473.33L223.41,475.33L221.63,477.23L224.95,477.59L225.29,479.94L222.39,478.34L223.60,480.10L220.79,481.11L225.20,481.26L228.65,485.93L223.61,497.65L198.58,509.87L188.19,511.19L170.39,499.09L141.58,467.32L144.93,462.12L144.88,464.41L148.27,463.98L148.52,467.90L155.47,466.00L156.41,463.06L159.01,465.62L162.06,462.17L163.65,463.88L173.61,459.89L182.08,448.27L182.03,444.80L179.33,445.78L179.16,449.35L172.37,447.87L172.49,449.65L164.64,451.64L161.60,454.74L158.22,454.35L139.55,447.14L131.40,440.47L132.82,438.64L130.98,435.98L128.06,435.30L129.67,433.39L127.75,433.93L127.67,430.41L138.39,423.26L128.16,427.82L125.56,431.37L120.78,430.65L124.22,429.17L121.31,426.62L123.91,421.66L135.87,420.84L136.46,410.66L138.83,413.29L140.53,410.95L142.05,412.72L157.63,412.17L161.57,415.18L168.25,415.28L171.52,411.56L179.78,408.69L183.59,408.07L183.71,412.28L188.58,413.43L197.08,408.42L193.76,403.61L196.59,400.88L185.96,381.01L185.95,373.28L175.44,372.36L170.65,364.77L173.08,349.47L164.19,348.07L156.10,343.76L156.89,332.90L177.85,308.25L182.86,308.12L187.41,315.77L190.56,316.88L217.63,309.69L218.51,304.80L224.78,298.72L230.09,287.22L245.04,279.42L256.46,254.94L271.36,247.68L268.95,242.55L281.09,228.06L289.90,222.76L285.95,220.21L288.82,212.32L285.51,205.30L287.09,202.08L294.31,196.56L306.41,193.12L308.08,189.98L299.37,184.29L290.70,184.15L289.14,180.90L290.59,174.13L287.70,176.32L281.79,175.92L280.88,169.60L272.86,164.49L276.90,155.69L271.92,149.00L279.87,142.67L270.04,140.10L272.56,135.53L266.96,131.29L270.71,123.73L281.86,120.09L319.42,127.48L325.32,122.77L341.66,120.83L344.38,116.15L351.01,114.16L351.78,110.81L371.45,100.00Z M446.76,644.17L447.16,651.55L452.16,655.11L456.67,653.97L459.55,649.86L455.37,642.76L450.72,641.33L446.76,644.17Z M257.32,805.04L257.39,810.58L260.59,813.75L265.09,814.07L268.92,811.04L268.78,802.96L264.80,800.45L260.16,801.29L257.32,805.04Z M257.20,803.55L259.59,810.97L265.24,812.37L269.96,808.96L270.41,803.15L266.41,798.98L260.79,799.21L257.20,803.55Z M233.03,788.65L230.48,793.33L231.61,797.79L235.34,800.48L240.22,800.01L244.37,792.43L241.99,788.27L237.44,786.75L233.03,788.65Z M228.05,788.41L230.26,793.00L234.91,794.83L239.58,793.03L241.96,788.72L241.01,784.14L237.35,781.22L232.47,781.39L228.05,788.41Z M266.06,793.12L270.89,789.15L270.65,783.18L265.82,779.67L261.81,780.11L258.04,783.73L257.84,788.73L261.09,792.54L266.06,793.12Z M233.16,778.44L235.53,783.81L241.02,785.45L245.65,782.88L247.13,777.94L244.78,773.35L239.77,771.52L235.07,773.66L233.16,778.44Z M240.21,768.26L243.03,773.75L248.69,774.82L253.11,771.15L253.81,766.89L251.85,763.12L246.91,761.03L242.00,763.20L240.21,768.26Z M233.41,758.55L232.32,763.95L235.34,768.33L240.59,769.27L244.66,766.74L246.11,762.14L243.63,757.05L238.18,755.51L233.41,758.55Z M783.19,741.64L781.52,747.59L784.82,752.37L790.61,752.78L794.74,747.95L793.81,742.10L788.61,739.26L783.19,741.64Z M794.81,719.35L800.64,720.72L805.35,717.28L805.52,711.45L800.26,707.57L794.57,708.87L792.12,714.17L794.81,719.35Z M790.04,892.18L787.62,886.19L783.37,887.83L782.69,892.66L787.57,900.16L790.04,892.18Z M780.51,877.91L777.31,885.83L780.84,889.95L784.68,889.23L789.08,884.98L788.35,879.37L786.42,876.78L780.51,877.91Z M780.82,863.05L772.76,860.36L769.19,865.01L771.11,871.14L780.21,873.04L782.55,867.44L780.82,863.05Z M779.15,858.96L773.57,865.92L775.36,869.79L781.00,872.86L784.93,871.17L785.35,862.12L779.15,858.96Z M774.77,864.17L778.60,869.05L782.38,866.81L783.28,857.86L781.58,855.89L776.09,856.55L774.77,864.17Z M249.70,863.80L254.72,859.01L254.48,853.52L249.99,850.36L243.19,853.47L241.28,858.64L244.22,863.29L249.70,863.80Z M775.56,858.80L769.77,850.45L765.64,850.86L763.24,854.25L763.66,860.60L768.02,863.90L774.01,862.80L775.56,858.80Z M776.59,849.03L778.21,856.82L782.58,857.98L786.20,855.28L787.34,850.39L784.79,845.06L781.29,844.10L776.59,849.03Z M763.39,826.51L758.32,825.25L754.34,828.95L754.32,835.03L757.50,838.29L765.33,836.44L766.41,832.16L763.39,826.51Z M752.92,782.86L747.96,787.67L749.94,796.55L753.87,796.68L756.78,793.19L755.49,784.00L752.92,782.86Z M761.05,775.07L761.57,765.31L756.40,762.44L752.88,763.99L750.39,771.24L751.67,774.44L756.76,776.38L761.05,775.07Z M748.05,759.27L742.52,759.82L739.88,763.24L741.11,769.47L744.56,772.58L749.20,772.33L753.03,768.73L752.61,763.10L748.05,759.27Z M763.31,748.70L759.53,753.98L761.41,758.02L768.62,761.59L772.10,759.15L771.16,751.08L767.84,747.89L763.31,748.70Z M770.56,743.35L765.39,743.33L762.61,746.75L762.67,752.04L766.20,756.25L773.02,754.26L774.14,748.49L770.56,743.35Z M761.55,723.18L757.91,721.97L754.50,724.15L755.02,734.97L758.64,735.85L761.61,733.59L763.38,727.08L761.55,723.18Z M765.39,716.35L768.05,718.73L766.94,724.23L764.35,724.10L762.78,728.28L765.05,729.72L765.74,739.34L764.33,742.10L762.01,741.72L763.78,744.37L759.69,751.63L758.64,767.86L753.65,757.75L754.84,755.66L756.06,757.51L757.73,747.68L760.60,748.01L758.66,743.70L759.17,731.33L762.03,716.36L766.29,709.88L768.02,714.91L765.39,716.35Z M764.95,701.14L760.20,704.62L759.89,709.42L764.72,713.75L769.61,713.92L773.09,710.48L772.99,705.58L769.35,701.37L764.95,701.14Z M652.20,486.09L653.74,492.58L657.86,494.39L663.68,492.93L665.59,489.09L663.27,482.84L657.47,480.45L652.20,486.09Z M635.91,478.03L634.80,487.93L641.96,488.79L644.14,481.40L641.78,475.94L635.91,478.03Z M650.97,472.88L646.41,481.65L648.50,484.61L653.31,486.56L656.39,485.28L658.15,475.70L650.97,472.88Z M642.22,483.82L644.93,476.49L642.99,472.76L639.02,471.39L634.12,474.25L632.64,480.06L634.43,483.86L638.33,485.39L642.22,483.82Z M230.86,789.46L232.12,785.01L230.06,780.46L225.29,779.02L221.05,781.66L220.27,790.16L223.64,792.71L230.86,789.46Z M235.08,777.55L238.50,781.89L243.58,781.87L246.83,777.97L246.86,771.64L243.53,768.78L239.14,768.94L235.08,777.55Z" fill="currentColor" fill-rule="evenodd"/></svg>
