<svg xmlns="http://www.w3.org/2000/svg" viewBox="0 0 1000 1000" role="img" aria-label="Map of Indonesia"><path d="M491.55,387.45L499.94,390.46L503.20,388.16L503.25,382.51L498.62,378.90L491.41,380.22L489.93,383.86L491.55,387.45Z M612.35,616.25L620.51,612.44L620.74,614.40L624.74,614.16L624.53,616.34L621.18,616.80L622.98,621.57L621.56,624.41L613.20,632.48L601.01,637.06L595.31,636.89L600.41,631.83L597.15,631.13L599.09,623.76L604.68,619.10L609.90,621.62L612.35,616.25Z M492.54,383.84L489.16,383.66L497.05,391.78L493.61,393.03L490.82,390.24L491.54,393.46L484.24,392.79L483.20,393.68L490.44,396.47L487.37,399.96L493.41,402.54L492.50,404.33L494.59,404.68L492.13,405.40L495.48,405.75L493.45,407.08L501.50,415.58L497.05,419.61L498.34,420.59L495.72,420.91L517.68,439.30L513.96,442.28L506.75,442.28L498.22,436.91L500.65,442.36L495.60,443.40L490.85,454.41L490.35,465.46L493.63,463.60L491.07,468.50L493.58,469.74L488.57,472.01L487.57,470.40L481.93,477.91L479.53,478.28L478.20,474.16L478.53,480.09L469.13,487.49L472.65,487.08L473.38,489.54L470.19,494.10L475.76,495.06L474.27,500.80L470.56,500.31L472.10,501.15L470.27,508.35L467.66,505.50L467.10,508.54L469.87,510.96L464.70,519.18L442.01,529.20L440.03,514.64L438.75,517.30L435.04,515.50L436.80,512.26L433.70,515.23L432.50,511.89L431.18,514.77L424.05,516.53L423.69,511.61L419.41,512.98L418.31,511.40L419.15,513.32L413.66,507.23L413.42,511.40L406.74,515.83L399.17,514.31L393.99,518.54L392.31,517.86L391.36,504.02L388.15,508.85L384.55,507.23L377.99,510.10L373.96,509.03L377.47,506.46L372.36,509.98L370.39,506.27L365.41,508.62L363.56,501.97L365.71,500.18L363.61,498.75L362.44,490.27L359.15,488.12L361.90,479.76L356.71,471.48L355.21,473.45L348.18,471.18L347.99,467.93L352.24,468.79L345.85,465.52L344.23,460.59L347.33,460.44L346.15,455.96L348.65,456.12L342.05,450.38L342.10,436.03L345.91,434.52L348.06,432.01L343.18,435.12L349.36,422.59L354.65,420.01L352.62,423.38L354.88,428.48L370.47,441.47L381.67,437.57L392.56,438.74L397.26,436.39L398.45,431.31L403.83,428.99L412.58,428.96L412.32,431.64L423.92,434.92L428.88,431.18L439.95,431.31L442.28,424.24L444.93,423.16L444.00,417.16L451.44,412.58L448.84,410.86L449.06,406.96L452.07,403.31L455.93,403.50L458.32,396.54L457.23,388.00L462.55,379.84L465.62,381.90L467.45,380.02L486.19,380.41L492.54,383.84Z M899.95,501.61L900.00,566.68L897.77,573.08L900.00,576.46L900.00,614.96L882.79,599.04L885.63,593.68L882.53,597.37L872.47,599.18L869.37,594.84L869.49,596.98L864.10,600.77L862.85,597.73L867.21,588.02L859.80,581.71L868.32,582.50L869.76,580.89L862.85,580.80L857.95,576.84L864.39,575.52L868.93,577.79L860.08,573.29L862.61,573.14L856.29,567.85L852.75,559.35L855.21,557.98L850.92,556.90L854.50,555.24L849.42,556.11L849.25,550.45L848.17,551.76L835.63,542.31L827.68,542.17L812.51,534.82L799.19,533.82L789.84,528.06L790.54,525.08L795.40,524.89L790.32,524.40L787.70,526.46L784.36,523.71L784.05,526.35L780.78,521.56L778.05,523.39L772.32,517.00L773.18,512.34L777.33,510.57L776.13,507.23L772.78,510.70L772.08,515.83L770.10,515.16L771.45,518.07L768.27,521.16L769.04,523.65L765.52,527.16L759.55,527.53L756.47,520.46L759.97,518.23L757.88,513.48L755.43,514.30L749.42,507.64L743.33,507.35L743.02,504.88L749.17,502.94L756.42,505.32L765.32,498.41L767.78,502.94L768.91,499.77L768.99,502.34L769.39,500.24L772.19,500.55L773.03,503.65L773.57,500.07L775.37,502.46L774.16,498.78L778.65,497.92L776.25,497.10L777.69,496.25L777.69,494.70L774.94,495.68L777.52,493.03L772.39,495.26L749.07,495.78L742.74,489.32L743.44,483.11L740.35,484.31L740.11,482.40L733.94,482.47L732.83,480.61L729.92,482.85L725.44,480.91L730.45,475.77L730.57,470.58L741.60,468.32L750.65,462.46L760.72,464.06L767.97,468.91L778.16,468.91L781.56,471.36L779.19,472.99L783.47,479.83L780.07,485.62L781.92,497.76L786.63,506.17L786.99,500.55L789.67,500.06L790.77,507.85L793.38,506.83L794.21,513.15L801.90,515.36L811.80,508.33L820.00,495.23L833.88,493.00L832.93,487.62L845.38,481.94L879.18,497.33L885.74,496.74L895.95,499.85L895.59,502.20L899.95,501.61Z M420.71,597.63L414.48,598.55L412.23,602.48L413.55,608.11L418.02,610.08L424.99,607.54L425.48,601.51L420.71,597.63Z M584.47,599.95L580.96,604.19L583.27,609.88L586.96,610.49L593.80,606.09L593.00,599.99L584.47,599.95Z M683.56,598.22L680.90,594.33L675.29,593.70L670.78,596.90L670.34,602.41L675.60,606.11L680.53,605.36L683.56,598.22Z M696.73,596.80L687.64,593.86L684.01,596.60L683.44,600.12L686.15,603.99L690.81,605.51L696.54,602.30L696.73,596.80Z M669.99,592.90L665.56,593.73L661.91,597.65L662.10,601.43L665.79,604.81L671.63,604.74L675.20,601.63L674.61,595.96L669.99,592.90Z M486.72,596.73L488.78,606.23L494.62,606.52L499.63,598.72L498.07,595.20L492.62,593.30L486.72,596.73Z M659.62,589.92L654.98,591.91L653.12,596.68L654.37,601.19L659.64,603.79L664.96,602.14L666.89,596.92L664.36,591.20L659.62,589.92Z M721.63,586.68L720.32,591.41L722.39,594.88L728.37,595.90L733.48,591.94L734.06,587.71L731.49,584.30L727.26,583.70L721.63,586.68Z M727.46,581.72L721.31,581.61L718.29,585.24L718.56,590.26L722.67,593.14L729.90,592.18L731.83,587.67L727.46,581.72Z M721.47,589.17L728.32,592.41L731.65,590.74L734.77,585.08L732.98,581.29L726.28,580.12L721.84,583.09L721.47,589.17Z M726.04,579.41L723.74,584.44L725.12,588.44L729.78,590.93L735.53,589.34L737.44,583.69L734.77,578.35L730.19,577.13L726.04,579.41Z M545.92,579.39L544.09,582.63L547.47,587.58L553.94,588.33L557.83,584.97L557.41,581.17L554.27,578.99L545.92,579.39Z M541.65,575.62L540.33,582.26L545.44,585.81L551.50,584.44L552.42,576.09L544.97,573.24L541.65,575.62Z M863.19,569.20L856.30,568.69L853.55,572.31L854.46,576.78L859.32,581.27L864.34,580.25L867.23,576.73L863.19,569.20Z M732.58,568.44L729.89,574.95L732.24,579.44L739.75,579.34L742.99,574.55L741.66,569.27L736.95,566.74L732.58,568.44Z M786.36,568.14L784.51,576.19L791.88,579.44L796.26,574.17L795.78,568.68L790.76,565.70L786.36,568.14Z M792.19,564.56L786.46,561.08L783.48,562.03L780.24,568.94L788.21,574.79L793.18,570.65L792.19,564.56Z M788.20,563.83L788.04,571.30L791.02,574.11L795.13,574.00L799.08,564.48L795.80,561.14L791.40,560.78L788.20,563.83Z M777.42,564.88L783.91,570.75L790.07,566.01L785.09,558.16L781.34,556.79L777.89,558.41L777.42,564.88Z M359.19,592.86L343.67,591.03L341.22,588.90L333.91,592.52L323.66,591.24L315.77,586.90L298.13,584.86L300.10,577.63L277.57,574.29L280.13,572.42L282.33,574.93L285.01,569.24L287.41,569.76L292.12,558.77L293.98,561.01L305.01,562.65L308.70,562.10L309.38,559.35L320.42,564.99L332.29,565.13L336.55,574.11L342.46,575.64L363.92,575.76L367.46,577.84L370.78,575.41L372.51,569.55L378.42,568.17L380.75,572.89L386.82,571.70L397.10,576.62L405.78,576.01L406.15,581.62L409.97,582.84L408.89,587.52L415.35,590.94L431.24,588.92L437.22,591.47L437.01,604.73L441.32,608.59L430.10,606.49L417.23,600.58L407.35,603.47L392.02,600.15L390.34,602.15L378.53,600.12L359.19,592.86Z M609.76,556.36L604.57,552.96L600.65,554.16L598.40,558.84L599.94,563.65L605.33,566.94L609.26,565.54L611.24,560.69L609.76,556.36Z M761.20,548.59L756.32,547.03L752.41,549.90L751.21,555.46L753.95,560.01L762.23,558.78L763.54,553.01L761.20,548.59Z M743.05,554.02L746.92,559.29L752.49,559.16L756.24,555.44L756.30,550.15L752.40,546.59L746.80,546.41L743.50,549.51L743.05,554.02Z M600.22,545.78L595.11,547.30L593.20,551.54L594.95,555.85L601.01,559.71L605.06,558.36L607.14,554.64L604.77,548.38L600.22,545.78Z M591.23,544.93L591.50,552.16L596.92,555.63L602.10,554.23L604.04,549.22L602.45,544.18L597.93,541.93L591.23,544.93Z M705.81,541.85L711.19,541.01L713.72,537.65L713.60,532.17L710.12,529.09L703.92,529.99L700.50,533.96L701.32,539.14L705.81,541.85Z M665.21,518.58L656.13,517.67L653.32,522.31L653.89,527.03L659.32,530.39L664.85,529.18L667.06,523.98L665.21,518.58Z M570.88,512.85L568.37,518.47L571.39,524.11L578.21,524.23L582.04,520.00L580.97,514.38L575.79,511.11L570.88,512.85Z M760.61,512.57L752.85,510.15L749.62,512.44L749.97,519.91L755.69,523.66L760.16,522.00L762.03,517.61L760.61,512.57Z M570.86,516.64L573.85,522.16L578.39,523.07L582.28,520.55L583.91,515.74L581.25,511.01L576.46,509.19L571.95,511.64L570.86,516.64Z M664.24,507.94L659.58,512.76L661.26,517.75L666.78,520.24L671.12,519.35L673.44,515.58L672.29,511.31L667.85,507.61L664.24,507.94Z M670.69,505.76L663.76,508.63L662.27,512.98L665.11,517.47L670.69,518.48L675.56,514.98L675.25,508.90L670.69,505.76Z M669.66,502.97L665.57,509.01L667.35,513.14L673.69,514.42L677.98,511.72L679.38,506.06L676.02,502.28L669.66,502.97Z M598.23,486.43L595.36,490.55L595.79,494.73L599.52,498.22L607.48,496.69L608.52,489.35L604.14,485.20L598.23,486.43Z M607.42,484.99L603.89,488.56L605.98,496.00L611.49,498.11L615.51,496.18L617.28,491.27L615.74,486.82L611.94,484.29L607.42,484.99Z M592.11,490.90L594.87,495.75L599.26,496.95L603.35,494.96L605.12,490.52L601.51,483.77L596.71,483.20L592.86,486.12L592.11,490.90Z M592.90,489.44L594.40,494.61L598.42,496.92L603.56,495.65L606.68,490.30L604.00,484.72L598.91,483.04L594.69,485.09L592.90,489.44Z M337.53,492.28L342.94,491.09L345.62,486.85L344.50,482.36L340.56,479.93L335.34,480.56L331.89,484.58L332.86,489.78L337.53,492.28Z M665.14,474.27L660.42,474.07L656.47,477.80L655.63,482.44L658.31,486.32L662.94,487.18L668.47,484.19L669.24,478.91L665.14,474.27Z M343.96,472.30L339.90,475.34L339.19,481.23L343.62,485.17L348.64,484.95L352.15,480.99L352.38,476.00L348.96,472.36L343.96,472.30Z M343.71,471.67L340.80,477.93L342.79,482.35L350.98,483.05L354.36,476.25L352.11,471.77L347.93,470.18L343.71,471.67Z M263.75,454.87L258.58,457.33L257.24,462.08L259.26,466.34L265.19,467.92L270.09,465.24L270.88,459.71L267.98,455.70L263.75,454.87Z M235.02,457.36L240.58,456.43L243.78,452.37L242.82,447.30L238.36,444.69L233.25,445.74L230.16,449.64L230.92,454.56L235.02,457.36Z M243.64,439.76L235.52,440.12L233.99,447.60L237.99,452.11L242.49,452.18L245.88,449.21L246.40,444.73L243.64,439.76Z M246.31,437.94L240.90,445.07L242.54,449.71L247.02,451.76L252.41,449.20L253.99,442.66L250.85,438.55L246.31,437.94Z M240.97,436.11L234.12,441.58L234.65,446.05L237.69,449.41L242.19,449.90L246.30,446.68L247.31,441.87L245.25,437.77L240.97,436.11Z M262.23,437.48L259.71,445.57L262.57,448.64L268.63,448.64L273.23,442.39L267.90,436.76L262.23,437.48Z M244.81,444.28L247.83,448.36L251.82,449.30L256.61,446.86L257.70,441.07L254.66,436.78L249.33,435.45L244.95,438.78L244.81,444.28Z M245.63,433.93L240.71,436.82L239.73,441.66L243.53,446.51L248.60,447.45L252.74,444.39L253.33,439.27L250.21,434.73L245.63,433.93Z M543.27,443.57L549.99,443.58L553.04,439.09L551.26,433.61L546.62,431.39L542.10,432.24L539.35,435.94L539.82,440.52L543.27,443.57Z M535.26,435.49L535.25,440.48L538.42,444.23L542.84,444.83L547.11,441.81L548.38,436.74L545.03,432.04L539.29,431.35L535.26,435.49Z M532.21,471.54L531.40,458.46L528.52,456.12L531.97,457.78L531.14,452.13L535.44,447.31L535.68,443.51L539.73,438.99L544.77,442.68L548.84,437.97L549.39,433.21L560.14,433.70L561.80,437.62L577.60,438.52L584.47,442.05L590.35,439.34L603.27,441.82L611.28,435.64L614.84,435.47L614.05,432.61L619.05,430.71L621.63,426.14L624.96,427.07L626.25,430.44L610.11,449.36L597.99,451.66L591.25,450.65L588.39,447.31L566.22,448.88L562.76,446.69L554.17,449.21L543.63,447.09L537.64,452.34L534.81,459.95L536.15,467.00L539.33,471.98L543.59,473.30L546.65,480.61L554.12,480.80L563.08,470.25L564.72,472.60L571.53,472.44L573.31,469.63L585.86,469.53L582.48,467.60L588.42,466.00L595.01,469.52L592.52,474.62L588.77,470.85L584.29,471.97L576.11,482.31L567.28,485.40L564.33,489.55L557.44,487.96L577.92,511.21L573.27,518.92L581.12,524.07L579.29,525.49L581.67,528.41L584.40,527.00L585.36,532.77L581.36,531.48L582.89,534.44L580.12,532.91L571.57,535.05L571.04,540.67L561.93,538.95L560.65,536.11L563.21,527.51L550.10,517.27L553.45,511.95L552.02,505.51L553.69,504.38L548.79,501.87L545.06,503.03L538.42,507.84L542.29,513.04L541.01,527.74L542.71,537.26L539.48,546.03L542.95,554.22L540.51,552.29L530.07,555.68L525.02,553.66L523.62,549.61L528.39,531.48L526.14,517.20L522.66,516.03L516.20,518.44L513.37,510.16L515.48,506.30L513.25,504.67L519.84,499.07L521.24,491.32L523.52,490.44L522.94,478.01L526.62,471.30L530.25,467.35L532.21,471.54Z M667.78,411.01L663.49,415.75L664.88,421.33L669.54,424.18L674.04,423.04L677.31,417.93L675.47,412.87L667.78,411.01Z M681.96,411.10L676.52,408.45L671.97,411.07L671.20,418.50L675.06,422.18L680.32,421.31L683.15,416.98L681.96,411.10Z M203.26,424.50L200.70,417.82L205.05,416.38L211.61,426.53L217.22,427.36L223.64,432.15L225.21,438.46L228.98,442.29L238.18,444.53L240.29,448.60L231.71,453.15L229.08,452.01L231.08,453.36L237.29,451.64L245.29,446.96L251.93,451.47L252.94,456.43L249.03,456.55L243.70,460.79L247.50,459.99L245.00,462.70L249.40,463.92L245.48,464.14L245.00,468.43L253.42,475.01L255.63,473.33L262.96,474.28L265.05,490.04L266.22,488.67L266.64,491.49L270.57,491.30L271.76,493.34L266.95,498.16L268.75,497.61L268.81,500.87L266.31,502.59L265.64,504.61L269.13,501.44L271.77,496.11L284.66,498.15L287.89,506.81L291.70,508.27L292.48,513.03L288.07,520.29L290.38,523.10L287.95,530.15L289.63,542.43L286.50,559.04L278.67,551.16L276.64,557.11L265.99,552.28L268.86,559.46L266.16,559.59L254.50,545.23L227.02,525.85L225.45,519.77L214.82,512.48L202.84,496.96L201.70,489.27L182.37,456.83L171.77,451.72L164.31,429.06L165.43,425.84L151.19,416.73L147.51,416.57L145.05,406.37L141.61,405.03L132.53,392.15L125.50,390.47L109.59,375.51L103.21,364.09L103.45,359.21L110.39,358.28L124.23,365.41L134.09,364.43L138.50,366.65L143.71,364.97L150.38,371.12L151.91,377.10L156.76,379.21L155.08,384.73L156.54,383.53L182.43,400.90L186.42,404.94L185.96,409.33L186.91,410.96L187.73,408.79L188.96,412.23L190.44,409.16L194.33,416.70L203.26,424.50Z M548.68,629.85L547.49,633.96L542.71,635.93L537.59,634.38L528.52,626.51L519.16,625.61L516.35,622.75L520.41,619.82L534.16,618.17L548.68,629.85Z M453.90,602.89L450.37,608.76L453.01,613.22L458.86,615.34L462.26,613.57L464.35,609.42L462.01,603.99L458.19,601.70L453.90,602.89Z M524.28,603.05L523.21,610.80L525.67,613.80L530.49,614.79L534.06,612.40L536.43,605.94L534.80,602.74L528.28,600.87L524.28,603.05Z M523.06,599.48L520.71,611.15L524.11,612.85L528.28,611.94L531.32,607.72L531.06,602.48L527.38,599.32L523.06,599.48Z M593.71,596.27L585.27,598.15L584.08,604.92L594.85,605.91L597.19,601.32L593.71,596.27Z M472.11,599.19L478.20,602.51L473.97,609.67L475.10,611.29L462.46,609.92L466.78,608.53L465.75,603.44L472.11,599.19Z M515.10,593.57L512.45,601.33L515.66,605.44L520.38,605.82L524.88,602.05L524.31,595.17L519.38,592.12L515.10,593.57Z M521.02,606.33L520.12,608.62L512.29,608.72L515.88,610.50L507.28,610.56L507.29,605.84L502.82,610.80L489.43,614.04L482.84,614.98L477.94,612.46L479.85,604.53L486.06,601.91L493.51,603.32L496.68,608.23L504.98,606.86L495.06,599.88L498.64,597.18L502.68,598.03L505.51,602.15L511.34,600.71L511.69,605.22L513.19,601.37L517.00,600.95L518.39,606.93L521.02,606.33Z M586.74,598.24L587.42,601.50L583.68,603.31L583.75,606.33L565.87,611.15L559.18,609.52L558.22,611.68L552.20,612.07L549.38,609.92L537.76,609.08L533.27,610.87L531.50,608.59L532.57,602.88L542.23,599.64L561.02,606.17L563.17,603.83L570.02,603.10L574.71,606.73L585.03,600.66L586.06,599.05L582.58,599.56L583.34,597.84L586.74,598.24Z M451.22,596.64L460.05,602.99L450.20,610.51L450.57,607.22L440.97,602.42L438.25,597.81L445.38,599.05L451.22,596.64Z M336.99,586.54L335.05,590.95L336.36,594.33L343.29,596.61L348.81,593.29L346.18,587.41L336.99,586.54Z M449.60,579.93L453.82,582.20L459.49,580.60L461.45,575.27L457.79,572.12L450.81,571.91L447.92,575.67L449.60,579.93Z M407.21,550.44L401.79,553.23L400.53,559.37L407.00,563.78L412.53,561.70L414.10,557.12L411.93,552.15L407.21,550.44Z M227.75,556.02L231.13,555.06L232.94,549.87L226.59,544.48L222.00,544.83L218.98,549.06L220.43,552.48L227.75,556.02Z M458.31,534.37L455.06,539.72L456.31,543.98L464.55,546.00L468.82,537.55L466.47,533.87L462.30,532.60L458.31,534.37Z M467.93,513.14L467.77,522.13L474.55,523.83L477.18,513.58L470.70,510.81L467.93,513.14Z M469.92,512.39L470.59,524.33L466.85,527.16L465.55,519.53L469.92,512.39Z M189.60,508.36L189.20,513.32L192.41,517.16L200.25,516.62L202.46,512.86L201.38,507.76L197.73,504.59L192.91,504.83L189.60,508.36Z M187.79,505.27L193.38,515.96L196.17,515.99L197.01,508.73L190.97,502.52L187.79,505.27Z M182.63,502.67L186.07,509.60L191.14,508.97L194.18,505.95L193.44,500.63L188.64,496.45L183.43,496.95L182.63,502.67Z M175.35,491.99L176.59,497.80L182.06,501.04L187.40,499.75L187.42,495.27L182.73,488.44L178.49,487.90L175.35,491.99Z M334.57,482.18L336.14,488.63L342.82,490.48L347.84,486.19L347.94,481.74L344.65,478.36L339.46,477.97L334.57,482.18Z M360.77,475.58L356.17,469.64L349.32,470.27L347.24,479.93L350.60,482.36L358.81,479.57L360.77,475.58Z M174.14,484.79L171.43,487.71L167.36,485.56L162.30,477.19L163.42,473.09L167.60,472.26L174.14,484.79Z M156.94,457.41L152.92,466.64L155.20,469.16L163.58,468.93L164.17,460.49L160.09,456.59L156.94,457.41Z M159.03,452.69L153.39,455.96L160.91,466.64L163.79,465.92L165.43,461.55L162.29,454.59L159.03,452.69Z M248.58,442.36L243.40,438.80L238.82,439.89L236.18,445.61L237.93,451.04L243.13,452.65L247.84,450.62L248.58,442.36Z M249.83,435.93L244.49,435.26L240.26,441.85L247.78,448.86L254.06,444.11L249.83,435.93Z M248.78,444.78L253.87,448.55L258.63,447.75L261.13,444.21L260.56,439.91L256.89,435.96L250.38,435.67L247.40,439.84L248.78,444.78Z M245.11,436.08L241.58,437.71L240.06,442.47L242.60,448.05L246.51,450.00L250.45,448.11L252.84,443.36L249.86,437.88L245.11,436.08Z M247.42,436.96L246.16,443.27L248.71,446.86L254.29,448.80L257.96,446.78L259.33,441.94L257.35,437.68L251.49,434.87L247.42,436.96Z M250.95,433.49L247.71,438.58L249.84,443.37L256.62,445.69L260.68,443.12L259.92,435.59L254.80,432.47L250.95,433.49Z M264.68,441.77L269.50,445.91L274.46,444.98L277.38,439.64L276.19,434.72L271.79,432.21L266.40,433.29L263.89,437.20L264.68,441.77Z M315.16,432.75L311.64,437.06L312.95,442.79L317.54,445.73L322.73,444.03L325.44,438.23L322.71,433.47L315.16,432.75Z M252.48,438.63L248.86,431.73L242.95,431.47L239.07,435.75L240.01,441.58L244.43,444.50L250.73,442.83L252.48,438.63Z M240.15,440.36L228.96,435.66L227.79,442.26L240.61,444.92L240.15,440.36Z M240.63,436.13L233.81,433.99L230.26,438.82L241.49,443.97L244.24,441.03L240.63,436.13Z M251.43,434.28L250.92,440.69L254.92,443.58L260.61,443.22L262.69,440.54L263.46,434.16L261.11,431.68L256.40,430.72L251.43,434.28Z M257.42,438.57L266.81,445.09L270.04,442.50L271.07,437.12L268.64,432.54L258.64,434.51L257.42,438.57Z M231.76,432.49L226.42,428.93L223.04,430.05L222.73,437.37L227.27,442.83L232.29,440.75L231.76,432.49Z M231.91,428.42L222.53,425.41L219.18,428.86L221.34,432.42L230.47,436.74L233.08,433.82L231.91,428.42Z M161.42,421.70L155.36,423.51L154.12,428.77L160.88,433.49L166.34,431.76L167.93,428.03L165.79,423.35L161.42,421.70Z M142.55,417.44L138.42,413.60L132.95,414.47L129.94,417.95L130.76,423.79L135.05,427.20L140.35,425.84L143.25,421.52L142.55,417.44Z M218.26,417.28L210.02,417.61L207.74,422.52L209.74,427.66L214.50,429.78L218.59,428.09L220.87,423.51L218.26,417.28Z M121.46,420.65L125.45,426.21L131.50,425.69L135.15,421.21L134.46,416.44L129.65,413.16L122.09,416.34L121.46,420.65Z M144.63,416.36L135.89,412.74L132.12,415.01L131.58,419.37L139.67,425.93L143.43,424.74L144.63,416.36Z M516.60,415.99L513.83,411.53L508.04,410.41L504.59,413.24L504.12,417.67L506.71,422.10L512.09,424.12L515.83,422.21L516.60,415.99Z M337.25,410.63L342.99,418.70L348.14,417.24L350.88,413.74L350.33,409.33L344.86,406.10L340.25,406.81L337.25,410.63Z M299.46,402.70L291.26,402.00L288.94,409.51L292.54,414.28L296.94,414.74L300.54,412.16L301.54,407.85L299.46,402.70Z M125.68,415.22L115.67,405.50L111.78,406.85L113.46,410.23L122.99,415.45L125.68,415.22Z M333.94,406.72L340.95,412.34L345.23,410.21L347.26,404.87L344.09,399.26L339.56,398.51L334.99,402.51L333.94,406.72Z M316.72,400.04L315.23,405.28L317.51,409.30L323.05,410.69L327.41,408.67L329.15,404.18L326.62,399.07L321.44,397.20L316.72,400.04Z M283.55,398.40L281.48,408.72L286.84,411.84L291.06,409.90L293.67,403.37L288.35,398.57L283.55,398.40Z M299.14,395.94L293.82,394.41L290.33,396.45L289.08,401.98L293.08,407.49L300.27,406.62L301.97,400.92L299.14,395.94Z M491.67,392.19L486.80,393.20L484.21,397.05L485.04,402.57L490.04,405.05L495.77,403.57L497.79,400.04L496.70,395.28L491.67,392.19Z M290.46,395.61L289.69,401.51L292.34,404.66L297.58,405.69L301.11,403.00L300.97,394.14L296.51,391.92L290.46,395.61Z M488.77,392.63L486.89,398.79L488.72,402.15L493.67,405.07L497.16,404.01L499.21,394.47L494.20,391.35L488.77,392.63Z M498.03,388.15L492.99,389.03L490.99,396.41L494.04,400.51L499.83,401.77L503.44,398.77L503.73,394.09L498.03,388.15Z M496.05,395.33L488.25,389.41L482.11,393.67L484.07,398.22L490.46,400.42L494.85,398.76L496.05,395.33Z M502.34,386.75L496.27,383.00L491.49,384.35L489.38,388.85L492.34,394.23L500.32,395.34L503.22,391.49L502.34,386.75Z M489.80,380.60L487.46,385.66L490.07,390.57L494.85,392.43L499.41,390.14L501.32,385.38L498.21,380.21L493.91,378.47L489.80,380.60Z M323.97,386.10L328.36,394.33L333.21,392.81L334.70,386.53L330.96,380.87L323.97,386.10Z M321.68,368.68L318.74,373.41L320.08,378.59L324.92,380.87L330.02,379.33L332.33,374.06L330.97,369.17L326.43,366.88L321.68,368.68Z M97.24,353.78L95.48,359.57L99.32,364.28L105.37,364.45L109.18,360.06L106.92,353.46L102.01,351.34L97.24,353.78Z M94.56,353.77L97.05,362.40L103.11,363.37L107.38,359.86L107.20,354.12L104.50,351.35L98.33,350.49L94.56,353.77Z M105.12,348.59L99.65,349.47L98.77,356.39L102.33,360.22L107.86,360.68L111.38,357.55L111.43,352.83L105.12,348.59Z M582.98,647.60L595.26,643.72L594.99,636.82L582.43,643.11L582.98,647.60Z M568.06,633.70L560.37,638.56L561.62,643.75L567.61,645.27L572.29,642.82L572.79,635.28L568.06,633.70Z M595.26,641.59L601.26,633.82L598.83,629.20L593.52,628.06L588.39,631.98L588.87,640.17L595.26,641.59Z M594.20,599.48L590.64,605.61L597.33,606.40L604.11,599.56L601.42,598.00L594.20,599.48Z M599.41,604.10L606.01,608.77L610.22,606.71L613.22,601.53L612.01,596.74L608.50,595.38L602.19,598.92L599.41,604.10Z M867.70,602.94L865.02,595.54L858.88,595.16L853.93,602.88L863.52,606.70L867.70,602.94Z M624.27,599.44L612.78,597.96L611.30,600.31L613.82,599.79L610.28,602.90L624.06,601.85L624.27,599.44Z M678.77,595.55L666.88,595.50L668.61,601.86L673.46,603.89L679.02,601.21L678.77,595.55Z M724.38,594.99L719.96,599.32L720.41,604.62L725.38,604.23L732.73,598.80L731.01,594.86L724.38,594.99Z M706.36,587.95L699.48,588.67L697.14,592.66L698.11,596.85L702.67,600.87L706.79,600.92L710.31,597.09L710.15,591.01L706.36,587.95Z M653.47,589.91L647.43,595.10L640.25,593.68L635.38,595.82L638.77,589.76L645.03,590.38L650.23,588.02L653.47,589.91Z M666.14,581.90L659.87,582.46L657.54,586.51L658.31,592.99L661.63,595.23L670.23,591.03L670.51,586.43L666.14,581.90Z M860.66,584.53L866.90,588.30L863.92,597.01L854.73,602.82L841.88,603.10L849.72,588.02L860.66,584.53Z M739.28,581.68L737.36,589.06L731.86,596.00L728.37,595.70L730.55,586.76L736.24,580.54L739.28,581.68Z M747.30,578.67L739.33,575.36L734.26,580.83L735.45,583.89L742.71,587.50L747.83,583.88L747.30,578.67Z M685.70,587.59L691.78,579.56L687.68,574.59L681.62,574.94L677.82,580.41L679.85,584.81L685.70,587.59Z M429.12,575.91L432.62,577.94L421.98,582.58L408.28,581.03L407.69,579.28L411.57,576.37L429.12,575.91Z M270.17,572.15L277.65,578.30L282.01,576.12L284.11,570.50L282.08,565.65L276.95,564.49L271.46,568.20L270.17,572.15Z M780.87,563.39L778.97,574.32L782.01,577.33L788.13,570.84L780.87,563.39Z M545.40,562.15L542.61,556.11L543.20,569.96L545.40,562.15Z M273.18,550.77L266.82,550.94L263.53,555.75L265.32,560.97L271.17,564.03L275.72,561.90L277.28,557.13L273.18,550.77Z M754.88,550.33L750.92,552.39L750.94,555.50L752.10,560.95L755.75,563.79L759.66,562.61L761.56,557.88L759.03,551.47L754.88,550.33Z M791.75,563.59L789.14,567.28L783.37,562.92L785.14,557.25L782.07,555.83L784.68,555.86L787.41,550.90L791.75,555.11L791.37,560.31L789.95,559.68L789.02,560.00L791.75,563.59Z M762.54,548.21L759.22,555.15L757.99,561.49L763.92,553.99L764.73,548.09L762.54,548.21Z M563.86,544.95L565.36,552.74L569.83,554.90L573.05,553.54L574.25,547.46L572.18,542.85L568.43,540.97L563.86,544.95Z M732.87,536.79L736.16,544.95L740.85,545.48L744.93,542.10L745.19,536.03L740.91,531.97L735.83,532.61L732.87,536.79Z M583.27,541.96L580.11,550.74L578.60,548.41L577.85,550.32L574.56,549.86L576.35,538.99L582.07,536.72L583.27,541.96Z M731.50,536.33L736.04,541.12L740.68,540.70L743.99,536.99L743.63,532.39L736.89,527.40L730.92,532.28L731.50,536.33Z M587.91,545.81L590.81,548.67L584.94,551.40L584.10,555.20L580.80,554.95L579.56,552.25L583.87,547.10L584.57,536.61L587.82,532.69L590.92,540.22L588.01,538.89L586.23,546.73L587.91,545.81Z M762.60,529.42L772.73,535.54L776.43,530.98L773.93,526.93L766.14,523.57L763.32,525.26L762.60,529.42Z M725.61,529.38L728.95,533.37L734.92,534.45L738.34,531.79L739.09,527.53L734.89,522.40L729.96,521.31L725.93,524.35L725.61,529.38Z M724.13,528.24L728.42,532.87L733.50,532.48L736.69,528.51L736.76,524.10L733.85,520.52L728.51,519.39L724.24,522.79L724.13,528.24Z M594.55,523.90L584.59,522.37L581.92,526.19L584.10,531.83L588.15,534.31L592.30,533.48L595.28,529.76L594.55,523.90Z M733.12,519.22L727.67,522.05L727.07,527.42L730.90,532.39L736.02,532.87L739.38,530.03L739.94,525.67L737.14,520.35L733.12,519.22Z M685.91,513.67L681.28,517.34L681.11,522.38L685.00,526.74L690.15,526.58L694.26,522.64L694.16,517.84L690.61,513.89L685.91,513.67Z M594.31,514.24L585.94,512.96L583.00,515.49L583.95,522.77L589.14,525.52L593.34,523.85L596.17,518.56L594.31,514.24Z M683.88,512.37L678.46,513.12L676.26,516.17L675.97,522.10L678.70,524.80L685.52,524.17L689.07,520.89L688.07,515.05L683.88,512.37Z M675.02,524.97L682.17,521.98L682.38,515.30L677.36,514.55L670.09,518.64L669.83,522.97L675.02,524.97Z M684.50,512.08L678.60,515.52L679.10,519.97L683.28,524.63L687.82,524.74L691.55,522.15L692.10,517.65L688.80,512.42L684.50,512.08Z M661.24,515.04L660.30,520.06L651.44,523.62L642.85,519.57L639.17,512.90L640.90,510.53L653.94,509.86L661.24,515.04Z M308.98,502.34L300.36,503.83L298.52,506.88L301.56,512.88L307.78,514.22L312.10,509.71L311.69,504.66L308.98,502.34Z M314.87,501.83L309.52,499.25L304.92,501.51L302.84,507.92L306.37,512.19L312.66,512.68L316.31,507.94L314.87,501.83Z M310.86,510.78L315.90,513.24L319.66,511.64L322.93,506.76L321.84,502.59L318.69,500.12L312.20,501.54L309.59,504.05L310.86,510.78Z M724.14,518.57L723.17,523.71L707.03,514.38L700.40,513.84L699.98,516.65L690.85,514.77L689.40,512.10L682.55,516.63L677.01,509.74L672.84,518.22L671.38,511.59L675.93,509.74L677.18,506.08L692.45,505.17L694.61,507.84L700.95,504.74L715.71,508.47L724.14,518.57Z M738.94,508.20L743.86,503.23L742.59,497.83L737.27,495.56L730.30,500.65L730.70,505.34L734.24,508.43L738.94,508.20Z M331.61,505.79L327.92,501.29L319.95,500.55L317.63,507.08L318.63,512.74L323.62,510.05L327.38,513.01L331.61,505.79Z M794.26,497.76L791.47,491.53L786.72,490.90L782.42,496.15L782.88,501.23L787.64,504.61L792.30,502.78L794.26,497.76Z M780.48,488.11L779.50,495.84L782.30,498.93L786.46,499.28L791.60,490.93L789.02,486.93L784.48,485.57L780.48,488.11Z M642.76,500.82L639.78,488.43L634.85,490.44L636.10,498.56L639.40,501.81L642.76,500.82Z M594.89,489.30L596.69,495.15L600.45,496.91L605.88,495.78L608.07,492.07L605.74,485.70L601.49,483.08L596.74,484.65L594.89,489.30Z M645.04,488.00L629.43,490.27L627.75,488.55L628.91,487.23L645.04,488.00Z M590.89,481.53L585.61,482.10L583.08,486.04L583.92,493.05L588.03,495.15L593.75,492.18L595.17,486.23L590.89,481.53Z M778.46,483.52L776.40,490.45L778.47,494.33L782.77,495.25L786.24,492.56L787.82,485.79L785.74,482.39L781.87,481.44L778.46,483.52Z M716.89,491.34L714.59,484.91L703.31,489.28L711.25,493.00L716.89,491.34Z M627.39,487.30L627.45,489.11L613.96,491.26L610.23,488.90L613.52,484.64L627.39,487.30Z M803.31,484.37L829.02,487.66L818.01,489.57L803.31,484.37Z M298.10,499.55L305.71,501.26L301.71,507.01L304.29,509.86L300.47,510.41L290.97,505.46L287.38,493.78L279.13,493.50L276.17,490.55L283.65,483.00L287.95,487.54L285.91,483.00L289.70,482.34L298.10,499.55Z M795.10,477.89L793.52,485.29L797.27,487.51L803.45,486.96L806.66,482.92L805.60,479.04L802.00,477.23L795.10,477.89Z M676.81,483.85L667.83,479.19L664.07,480.71L663.04,484.68L666.03,486.75L674.96,486.45L676.81,483.85Z M670.17,472.66L661.74,473.83L660.67,480.75L670.73,482.85L673.25,475.30L670.17,472.66Z M592.52,481.94L596.62,481.74L597.20,478.44L594.08,476.99L591.38,479.30L590.46,475.69L585.62,476.23L583.41,479.16L585.23,484.57L589.39,480.23L588.46,483.86L591.61,485.24L592.52,481.94Z M702.46,481.40L709.12,482.36L712.63,479.12L712.86,474.45L707.57,471.15L702.15,472.60L699.42,476.16L702.46,481.40Z M798.82,470.09L790.61,468.36L787.67,472.08L789.24,478.80L793.48,481.22L799.11,479.28L801.17,474.61L798.82,470.09Z M717.42,472.39L721.93,481.76L726.18,482.81L729.54,479.18L730.60,473.21L729.30,470.44L723.49,469.01L717.42,472.39Z M718.05,468.13L713.76,471.20L714.47,474.54L723.55,473.94L727.31,470.55L725.36,467.41L718.05,468.13Z M819.91,475.36L816.17,477.58L811.37,476.92L809.29,470.93L803.95,470.12L802.41,467.39L811.10,468.57L816.79,474.89L819.91,475.36Z M661.04,461.73L655.06,465.60L654.72,472.38L663.08,475.51L667.06,472.62L667.39,468.41L664.31,462.67L661.04,461.73Z M712.02,465.15L715.63,470.28L720.42,470.50L724.67,467.84L725.79,463.92L722.97,459.42L717.38,459.00L712.61,461.72L712.02,465.15Z M565.64,458.93L559.79,463.02L560.78,469.56L569.19,469.58L572.26,466.74L571.66,461.40L565.64,458.93Z M267.42,459.28L258.52,460.44L256.97,465.60L260.26,471.09L263.22,471.80L267.04,470.61L270.84,464.41L267.42,459.28Z M565.42,457.48L562.12,461.58L564.82,467.61L570.59,468.70L574.86,465.88L575.57,460.52L572.33,457.45L565.42,457.48Z M660.70,461.21L663.82,472.13L668.92,473.35L673.98,470.06L666.36,459.85L660.70,461.21Z M654.13,464.71L657.11,469.44L662.32,469.39L665.73,465.45L665.66,458.49L660.74,456.21L656.56,457.16L654.13,464.71Z M245.78,456.86L243.18,460.06L243.30,465.11L249.05,467.45L255.71,465.00L255.80,459.04L250.32,456.07L245.78,456.86Z M579.87,459.77L572.53,453.53L567.58,456.24L566.15,461.68L569.72,466.04L575.75,466.96L579.19,464.15L579.87,459.77Z M578.46,455.71L571.77,454.40L568.59,457.12L568.13,461.29L575.51,467.99L580.17,466.46L581.91,461.87L578.46,455.71Z M560.37,465.53L565.65,465.60L569.29,461.68L569.55,456.69L565.22,452.66L560.26,452.61L556.39,457.16L556.56,462.21L560.37,465.53Z M731.52,460.44L730.75,463.00L725.98,462.58L719.82,457.79L725.44,462.70L722.10,464.08L720.92,461.38L718.46,463.90L718.05,460.79L712.71,459.81L723.29,456.37L731.52,460.44Z M275.94,460.78L266.11,453.79L261.99,459.82L264.63,462.62L273.25,463.99L275.94,460.78Z M692.06,455.50L700.41,464.63L705.98,460.49L703.62,454.98L696.19,450.92L692.06,455.50Z M659.38,458.70L663.79,462.32L668.10,461.09L669.97,457.01L668.67,450.37L664.67,448.45L660.50,449.55L658.49,453.36L659.38,458.70Z M264.93,461.56L270.72,454.99L268.04,449.71L264.09,447.59L259.83,449.01L257.88,454.54L260.59,459.81L264.93,461.56Z M267.49,447.49L262.31,447.64L259.88,451.06L262.62,457.61L269.32,460.84L273.78,455.87L267.49,447.49Z M266.85,445.06L261.49,443.65L257.39,445.94L255.97,450.09L258.73,455.44L263.20,457.54L267.81,455.80L269.78,450.46L266.85,445.06Z M660.90,444.18L656.90,447.84L657.09,453.26L660.57,457.05L665.71,456.88L669.61,453.36L669.60,448.05L666.16,444.06L660.90,444.18Z M254.94,447.48L262.45,451.56L266.35,449.04L267.33,443.68L263.41,438.59L257.95,438.08L254.17,442.05L254.94,447.48Z M666.50,450.33L669.97,446.66L669.58,441.39L664.00,437.28L659.91,438.46L657.36,443.09L658.03,447.92L661.71,451.06L666.50,450.33Z M267.52,443.20L264.75,437.35L259.84,436.34L254.63,439.25L253.67,443.83L259.95,450.04L265.52,448.59L267.52,443.20Z M669.20,441.82L665.38,435.99L658.82,436.34L655.93,443.48L659.69,448.67L664.75,448.62L669.20,441.82Z M252.47,440.42L257.67,447.66L263.40,446.64L266.30,442.89L264.72,437.56L258.10,434.21L254.38,435.66L252.47,440.42Z M150.72,438.95L149.77,445.47L146.81,446.33L135.66,431.65L141.81,429.84L150.72,438.95Z M624.73,424.18L619.81,433.86L622.73,437.13L628.08,437.06L632.04,432.79L631.87,426.43L628.73,423.94L624.73,424.18Z M668.31,459.95L669.18,450.86L665.89,446.54L667.59,441.81L663.66,435.24L667.68,424.33L674.95,417.91L671.45,424.05L674.39,426.35L674.39,433.57L667.64,439.97L671.55,442.16L677.25,436.19L675.73,434.40L677.69,432.09L686.65,428.94L686.33,437.65L677.84,442.82L685.98,446.65L686.14,450.26L688.47,450.89L689.78,452.69L672.57,448.68L673.79,460.90L681.80,472.14L674.69,468.49L668.31,459.95Z M628.10,408.57L622.71,412.17L622.66,417.62L625.71,421.28L630.55,421.89L635.16,418.91L635.66,413.45L632.43,409.20L628.10,408.57Z M687.20,412.13L684.01,408.98L678.72,412.44L676.13,416.98L677.50,422.14L684.84,420.71L687.20,412.13Z M634.66,405.63L627.42,402.13L623.80,405.14L622.93,409.71L625.82,415.07L630.19,415.75L633.84,413.28L634.66,405.63Z M625.75,390.03L628.61,399.39L632.84,401.18L637.40,397.43L631.62,387.72L628.13,387.46L625.75,390.03Z M646.52,390.70L652.87,397.20L657.24,395.94L660.01,392.13L659.14,387.50L654.64,383.73L650.31,383.56L647.02,386.39L646.52,390.70Z M645.37,384.07L649.72,394.57L653.97,394.17L656.36,390.64L655.63,384.91L651.01,380.97L645.37,384.07Z M650.20,376.45L649.45,387.97L654.37,388.16L657.54,381.62L654.97,375.47L650.20,376.45Z M569.58,602.06L570.60,607.92L575.08,610.50L581.08,609.06L583.31,604.31L581.95,599.42L577.40,596.89L572.39,597.81L569.58,602.06Z M561.36,595.23L557.79,599.79L559.44,605.61L564.39,608.26L569.52,605.99L571.59,600.19L568.77,595.77L561.36,595.23Z M559.82,582.51L559.85,588.26L563.14,591.33L568.96,590.93L572.44,587.84L572.54,582.25L569.61,578.60L564.30,578.16L559.82,582.51Z M436.19,575.68L433.18,580.30L434.46,584.68L440.62,587.07L445.44,585.33L447.11,580.48L444.36,576.15L436.19,575.68Z M440.66,575.33L436.55,573.28L429.61,577.69L430.03,582.79L433.55,586.28L439.42,586.85L442.50,584.06L440.66,575.33Z M589.50,480.93L585.95,486.84L587.56,491.50L591.43,493.41L595.58,492.24L599.41,488.00L599.21,483.66L593.12,479.45L589.50,480.93Z M577.59,460.97L573.96,455.69L569.70,455.31L566.44,457.39L565.10,462.97L567.12,467.66L572.07,468.96L577.21,465.84L577.59,460.97Z M703.72,588.48L703.40,594.31L707.68,598.02L713.29,597.79L716.43,594.31L716.42,589.62L712.40,585.72L707.49,585.33L703.72,588.48Z M709.63,583.99L705.09,584.95L702.39,588.33L702.61,593.41L706.70,597.55L712.47,596.86L715.48,591.89L714.06,586.36L709.63,583.99Z M708.24,592.92L710.35,586.72L706.47,581.97L699.90,581.85L696.59,586.37L698.02,591.80L703.36,594.84L708.24,592.92Z M700.74,576.85L697.30,571.73L691.61,571.35L687.52,574.88L687.17,579.79L690.83,583.95L695.76,584.63L699.80,581.74L700.74,576.85Z M706.61,576.56L706.98,571.29L704.19,567.81L699.08,567.01L693.44,572.84L694.83,577.73L698.66,580.60L703.42,580.13L706.61,576.56Z M711.38,559.93L706.49,559.92L702.19,567.05L704.32,571.31L708.59,573.11L713.61,571.66L716.04,567.55L715.15,562.86L711.38,559.93Z M663.30,558.56L669.17,558.80L673.04,554.63L672.47,548.97L668.89,545.81L664.32,545.65L660.59,548.48L659.65,554.14L663.30,558.56Z M663.11,545.88L659.68,549.85L659.95,554.93L663.63,558.45L668.73,558.63L672.47,555.45L673.11,550.43L669.24,545.68L663.11,545.88Z M671.47,557.36L675.70,555.25L677.56,551.14L676.39,546.63L671.14,543.53L665.49,545.80L663.61,551.14L666.20,555.95L671.47,557.36Z M667.15,555.68L673.05,555.95L676.96,551.71L676.30,545.99L672.19,542.75L667.16,543.22L663.80,547.00L663.81,552.04L667.15,555.68Z M736.61,549.86L738.88,555.09L743.59,556.67L748.92,553.46L750.48,548.39L747.75,543.85L742.54,542.86L737.86,545.55L736.61,549.86Z M699.24,539.16L703.16,541.98L707.62,541.66L711.07,538.39L709.74,530.16L705.37,528.31L700.47,529.77L697.96,534.22L699.24,539.16Z M777.91,445.97L782.81,450.12L788.59,448.59L790.92,441.04L787.78,437.14L782.24,436.67L777.90,440.31L777.91,445.97Z M737.44,439.26L735.68,433.58L730.26,431.37L725.08,434.11L723.57,438.84L725.46,443.21L729.71,445.32L734.45,444.10L737.44,439.26Z M724.08,439.00L726.98,443.70L732.26,444.71L736.61,441.53L737.68,436.26L735.06,432.18L730.38,430.91L725.75,433.43L724.08,439.00Z M640.37,437.46L644.71,440.35L649.01,439.71L652.31,435.66L652.52,431.12L649.73,427.54L644.33,426.81L640.40,429.01L638.83,433.23L640.37,437.46Z M622.17,416.74L621.73,422.28L624.89,425.77L630.79,425.80L634.56,422.72L635.07,417.88L631.18,413.60L625.97,413.15L622.17,416.74Z M655.87,362.57L656.09,356.63L651.88,352.84L646.22,353.47L643.00,358.09L643.79,363.14L647.57,366.16L652.40,365.93L655.87,362.57Z M557.07,645.72L565.53,646.96L568.93,643.52L566.51,636.08L560.64,635.46L556.81,637.56L555.37,641.69L557.07,645.72Z M467.41,576.14L457.40,576.24L455.18,581.79L459.91,586.79L466.27,586.05L469.09,580.79L467.41,576.14Z M787.89,563.31L783.57,567.66L784.35,572.66L788.26,576.37L793.05,576.16L796.86,572.71L796.67,567.58L792.43,563.06L787.89,563.31Z M362.37,561.44L365.97,564.90L370.41,565.09L374.44,561.70L375.39,556.60L372.36,552.38L366.45,551.86L362.08,555.66L362.37,561.44Z M780.87,550.39L776.17,553.27L775.40,558.99L778.35,563.28L783.51,563.97L787.77,561.11L788.61,555.78L785.92,551.38L780.87,550.39Z M763.69,498.89L769.96,506.00L773.88,505.32L777.35,501.65L777.25,497.42L768.33,492.83L763.69,498.89Z M601.05,480.73L598.41,477.62L591.86,479.62L590.41,484.10L592.46,489.94L601.24,489.40L601.05,480.73Z M673.61,474.58L676.07,478.88L680.74,480.29L685.46,478.59L687.33,473.94L683.35,468.01L678.44,466.70L674.23,469.54L673.61,474.58Z M704.70,457.75L700.74,461.08L700.26,465.26L703.01,470.08L707.32,471.16L712.10,468.12L713.33,462.04L709.73,457.73L704.70,457.75Z M157.74,451.32L158.59,457.84L163.42,459.19L169.31,458.03L170.78,455.54L169.88,451.63L165.75,449.36L157.74,451.32Z M263.85,447.82L269.57,450.53L274.74,447.71L276.19,442.75L274.05,438.51L269.06,436.74L264.38,438.53L262.24,443.07L263.85,447.82Z M261.02,440.16L261.61,445.57L265.29,448.56L270.57,448.10L274.35,443.61L273.10,437.88L268.47,434.96L263.72,436.09L261.02,440.16Z M618.01,425.54L620.67,430.94L625.07,432.17L629.13,430.07L631.23,425.18L628.67,420.13L623.89,418.21L619.29,420.54L618.01,425.54Z M652.63,371.00L654.28,378.40L659.51,380.41L664.25,377.99L665.96,373.80L664.50,369.31L660.50,366.60L655.72,367.28L652.63,371.00Z" fill="currentColor" fill-rule="evenodd"/></svg>
