<svg xmlns="http://www.w3.org/2000/svg" viewBox="0 0 1000 1000" role="img" aria-label="Map of Iran"><path d="M122.83,139.04L135.53,145.96L139.04,155.31L144.47,159.42L147.15,166.16L153.72,166.80L159.00,176.43L187.49,183.38L197.94,180.34L205.21,182.05L218.16,168.52L224.55,167.32L227.94,161.50L257.82,143.24L263.96,142.06L279.19,158.04L269.55,163.43L271.04,167.75L276.39,171.32L277.32,176.41L267.57,179.17L264.86,184.00L274.39,190.31L278.01,196.27L282.36,195.39L290.34,206.29L301.38,204.42L304.29,230.47L312.08,244.22L324.89,250.52L345.28,251.53L356.14,255.70L361.38,267.29L389.66,286.22L427.14,295.30L514.06,277.14L511.62,279.79L497.59,280.86L501.40,283.82L514.38,283.60L514.62,273.45L510.22,257.99L522.34,258.88L535.89,253.18L540.89,253.27L546.46,249.06L548.05,238.72L560.63,228.07L573.77,221.62L584.60,219.90L595.14,222.46L609.09,221.79L609.24,216.92L614.76,213.21L626.90,212.42L639.70,216.53L645.36,212.10L652.38,221.75L652.71,227.32L686.04,236.13L688.12,241.50L694.38,243.73L699.43,243.20L701.51,240.44L707.80,243.27L712.75,240.72L729.77,249.47L733.93,248.78L736.34,259.14L740.13,264.63L744.03,265.11L746.06,268.74L748.06,267.47L763.23,273.55L776.62,292.63L810.74,292.67L809.95,306.37L813.19,317.83L809.25,325.35L813.86,329.11L813.48,340.01L815.89,346.09L811.63,358.25L808.36,359.35L809.98,367.98L806.59,382.09L802.21,386.58L801.70,390.76L791.43,396.73L799.33,406.43L789.11,407.03L782.85,415.26L783.64,439.83L789.60,443.68L800.59,445.93L796.92,447.39L796.79,450.73L785.95,463.74L785.76,468.31L796.84,508.04L794.55,518.92L796.49,545.06L832.34,551.03L838.12,568.61L837.12,576.85L797.42,625.39L817.85,649.14L817.67,654.03L824.09,663.56L827.35,673.85L840.87,689.97L860.35,696.05L869.17,705.37L876.87,704.51L875.80,716.85L879.08,741.40L876.08,752.60L882.30,755.22L894.09,753.01L900.00,759.94L896.34,762.46L897.73,771.09L894.31,774.03L893.54,783.12L876.54,783.16L862.66,787.18L857.41,790.18L856.30,797.06L850.45,796.43L849.22,799.33L838.39,803.72L835.14,823.62L831.24,826.11L829.57,849.86L828.25,853.95L826.85,851.40L827.01,854.03L823.87,854.37L825.60,855.37L824.16,858.05L820.94,860.96L805.14,853.57L788.68,850.37L785.21,841.93L778.81,845.32L781.80,849.62L774.43,845.36L770.78,845.65L771.10,848.18L765.83,845.91L758.45,847.68L753.10,844.73L743.29,844.25L739.80,841.21L722.81,844.26L713.75,836.36L696.91,833.83L686.61,837.16L682.58,836.20L678.03,829.85L670.09,832.67L669.42,827.41L651.02,825.38L645.02,810.71L646.93,806.62L641.44,794.40L639.14,773.01L635.03,767.90L637.01,765.55L632.54,765.11L633.33,761.86L630.19,758.85L611.30,755.80L601.80,757.81L594.16,764.39L582.82,765.92L578.21,770.61L579.28,772.61L576.85,776.27L566.45,775.88L546.57,790.44L539.48,789.84L537.05,786.08L529.93,785.08L526.56,779.69L514.44,777.99L502.02,780.00L492.72,772.85L490.75,766.89L473.54,760.59L455.83,748.37L454.91,746.42L458.68,743.67L449.96,734.64L441.06,732.25L431.37,724.82L417.79,724.92L407.21,718.52L406.04,719.96L400.65,709.71L401.29,704.78L392.81,690.40L391.91,680.48L388.58,676.52L384.34,675.77L381.38,670.78L382.14,667.68L385.29,670.00L386.56,664.84L382.85,660.62L374.71,660.48L376.60,653.24L375.18,645.47L354.03,621.47L351.07,608.82L344.49,608.42L328.64,617.31L326.47,610.77L316.75,610.75L315.75,605.45L313.27,607.45L303.32,599.74L309.16,598.40L314.99,601.42L317.52,596.36L315.34,593.58L313.56,595.02L313.50,593.46L305.82,593.12L304.33,594.88L308.13,597.20L303.89,597.88L300.88,601.47L303.94,608.12L303.08,616.36L291.81,615.71L292.44,619.24L290.46,620.54L284.39,618.97L281.02,611.64L281.60,607.58L277.43,602.74L273.44,602.53L270.99,596.74L265.71,595.66L265.65,569.88L251.59,569.60L251.84,549.32L258.29,529.79L244.07,512.96L244.81,509.76L240.38,504.38L240.73,500.85L234.70,496.46L227.46,496.96L202.13,476.48L193.60,473.16L186.29,473.41L187.26,468.14L183.52,465.98L189.19,462.90L188.70,458.39L181.21,447.08L176.16,446.90L179.28,444.13L177.54,440.20L171.26,442.54L160.96,425.09L156.59,423.38L163.39,415.23L163.93,406.77L159.92,405.37L158.11,400.27L161.69,397.82L161.57,393.04L169.90,395.02L166.82,386.70L168.46,382.47L171.71,380.80L172.12,377.41L176.06,377.57L178.67,368.71L182.65,370.00L188.53,367.51L187.24,357.36L180.77,348.73L182.42,339.89L192.12,337.87L195.82,333.55L189.04,333.84L184.77,330.91L171.86,333.18L163.20,324.20L154.10,324.20L155.26,319.61L150.72,304.12L143.82,303.12L140.47,297.70L142.29,290.05L133.51,284.18L136.16,274.03L130.58,269.74L132.60,260.45L123.09,253.67L123.73,246.15L121.80,243.76L124.09,239.65L120.37,236.56L117.47,237.13L114.60,232.59L107.76,230.78L118.40,209.12L111.38,206.96L111.69,195.18L109.51,193.38L110.78,184.32L105.68,178.38L107.12,169.52L102.60,166.82L100.00,158.28L115.46,156.29L118.43,142.35L122.83,139.04Z M528.38,798.90L533.46,807.91L537.41,807.87L541.50,803.36L541.66,798.00L537.34,794.82L530.76,795.39L528.38,798.90Z M518.99,792.24L519.10,787.09L515.17,783.62L509.06,783.97L505.83,788.27L511.70,794.54L518.99,792.24Z M488.66,773.23L479.03,771.04L476.36,773.18L481.64,777.72L489.67,776.96L488.66,773.23Z M610.50,779.11L617.33,775.53L618.38,769.07L615.86,766.24L609.48,766.48L605.81,769.85L605.00,775.52L610.50,779.11Z M605.47,765.55L608.58,767.90L594.48,780.61L591.56,778.32L567.27,787.86L567.03,782.38L587.31,775.66L586.64,767.95L592.43,770.27L605.47,765.55Z M612.67,756.27L609.24,761.35L610.83,767.00L615.32,768.51L621.49,766.61L623.09,763.35L621.02,757.62L617.16,755.02L612.67,756.27Z M355.04,657.19L360.42,662.67L364.73,661.78L367.03,658.03L366.46,651.70L361.04,648.94L356.88,649.61L354.39,653.02L355.04,657.19Z M534.12,812.75L529.41,816.38L529.07,820.75L531.23,824.29L536.20,825.78L541.29,823.74L542.68,818.44L539.29,813.00L534.12,812.75Z M589.45,776.64L585.23,782.79L586.30,787.85L592.59,789.71L596.07,788.07L597.84,781.82L593.34,775.97L589.45,776.64Z M492.43,777.70L491.37,782.88L494.18,786.65L500.22,788.49L503.87,786.32L505.19,782.29L502.02,776.74L496.99,774.85L492.43,777.70Z M549.78,822.04L552.61,826.78L558.48,827.47L562.66,824.70L563.36,819.73L560.12,815.90L553.88,814.76L550.39,817.59L549.78,822.04Z" fill="currentColor" fill-rule="evenodd"/></svg>
