<svg xmlns="http://www.w3.org/2000/svg" viewBox="0 0 1000 1000" role="img" aria-label="Map of Iraq"><path d="M588.52,122.37L588.55,128.43L598.28,134.50L597.96,146.92L593.76,156.06L607.04,160.90L611.05,167.98L606.66,180.91L614.09,192.55L626.59,193.50L630.11,205.83L628.17,207.05L635.40,223.86L633.14,232.86L650.83,232.87L659.44,238.72L667.67,250.48L692.74,246.03L701.04,251.78L710.54,248.81L714.21,251.20L707.03,259.67L688.18,263.64L687.82,273.47L684.60,272.84L686.63,277.43L684.98,280.98L697.55,297.88L696.05,305.99L701.51,307.73L698.38,315.90L700.04,317.80L688.62,322.68L680.89,320.14L676.36,326.50L675.81,337.51L668.16,337.21L667.38,343.85L661.04,347.13L657.87,355.42L662.72,361.92L663.84,371.74L647.67,367.85L647.89,377.23L640.93,382.03L644.45,392.03L652.25,394.77L649.76,407.54L651.20,411.37L637.98,427.34L646.47,430.70L659.30,453.88L665.42,459.38L666.50,464.93L678.69,460.32L682.07,468.03L676.01,473.47L685.82,473.81L690.79,485.64L700.38,496.01L701.34,504.85L690.32,510.88L697.57,515.12L693.97,521.58L695.69,525.45L709.90,524.95L726.47,531.47L745.52,544.54L775.70,571.63L780.69,573.50L789.77,570.66L801.49,579.26L800.81,586.17L809.41,596.73L807.97,603.00L814.95,607.09L835.60,636.01L823.07,674.31L822.59,714.08L849.91,714.62L850.02,765.17L859.44,766.75L865.04,778.64L873.55,779.71L881.84,790.34L879.62,795.83L885.42,809.68L893.96,814.96L882.10,815.75L858.52,805.49L846.43,809.43L843.68,799.51L844.74,810.39L822.69,800.37L797.25,800.95L784.27,806.53L777.30,813.58L756.60,863.29L730.75,896.86L716.66,900.00L582.53,886.65L371.84,705.88L238.87,624.96L135.98,605.94L147.71,593.77L143.18,583.35L127.92,587.62L126.51,585.71L122.44,571.59L128.80,569.51L106.04,485.28L260.32,392.89L282.45,386.12L301.69,348.46L301.46,305.15L306.27,280.98L314.52,265.47L313.79,249.08L304.31,226.48L307.55,198.14L316.28,182.58L353.19,172.81L396.15,130.04L394.54,125.45L410.97,121.92L423.40,101.83L429.59,100.00L441.23,105.22L455.54,100.31L468.07,106.32L473.37,105.21L484.92,112.61L506.45,113.83L511.48,116.81L518.26,114.38L526.05,105.95L533.91,106.08L545.75,113.24L546.82,119.70L541.32,127.60L545.69,137.60L549.76,139.00L554.45,131.95L563.42,128.68L575.97,118.86L588.52,122.37Z" fill="currentColor" fill-rule="evenodd"/></svg>
