<svg xmlns="http://www.w3.org/2000/svg" viewBox="0 0 1000 1000" role="img" aria-label="Map of Ireland"><path d="M618.99,164.37L599.85,177.71L593.83,206.25L583.14,220.44L583.18,230.88L555.66,238.12L546.54,233.04L536.40,240.01L546.47,253.26L563.24,258.80L541.55,273.42L527.63,271.13L519.13,282.57L506.86,287.71L533.84,320.37L542.38,323.18L545.26,338.53L563.61,340.77L575.20,353.05L598.71,351.87L609.33,358.39L609.44,350.07L613.13,347.93L615.00,355.84L618.75,341.37L630.33,335.93L631.23,330.27L623.59,321.88L625.60,313.50L646.73,297.57L663.44,312.10L666.23,322.01L663.14,325.16L674.56,340.24L692.40,347.34L688.51,367.56L693.58,372.96L724.20,368.61L726.95,358.99L735.44,360.09L756.90,378.69L750.43,386.64L726.34,378.20L724.11,394.67L727.43,405.52L740.45,408.83L742.07,451.17L760.53,471.86L753.74,490.86L746.31,490.86L754.08,494.61L754.57,503.46L763.73,506.22L762.38,509.88L753.87,504.96L743.48,513.99L758.14,526.49L757.19,537.88L766.20,561.92L763.63,582.58L770.66,593.10L754.14,621.82L743.83,652.27L744.58,676.66L726.78,704.44L725.58,717.55L709.81,713.51L720.37,728.75L724.76,721.96L722.72,727.46L731.36,738.59L727.89,747.43L699.74,751.29L672.41,744.26L677.44,734.43L669.18,738.59L670.84,749.67L657.10,762.16L660.54,752.52L649.20,728.76L651.31,749.72L654.31,751.06L646.80,759.38L636.06,760.89L640.19,753.83L636.02,752.35L626.22,760.52L576.29,766.96L572.98,774.75L582.93,776.31L577.51,789.27L563.06,792.78L561.37,798.73L548.54,796.92L546.06,791.51L543.64,801.78L537.30,805.38L541.02,811.45L526.90,816.75L525.40,823.22L498.10,827.52L506.67,816.47L503.36,815.08L505.26,809.17L475.94,810.92L488.05,815.63L485.86,822.00L491.80,822.00L489.24,827.55L493.45,827.55L491.91,834.97L475.19,849.86L469.34,845.57L469.34,852.76L468.47,848.64L460.33,847.08L467.69,849.86L462.65,858.85L463.56,866.49L458.60,859.55L436.22,859.55L444.40,862.32L443.66,873.42L424.58,869.50L414.98,881.80L392.29,876.19L392.90,881.28L383.60,883.98L379.82,891.56L373.97,887.28L360.75,894.33L368.19,881.86L358.28,888.79L358.28,879.65L353.26,876.90L332.93,890.23L327.54,884.88L321.77,894.33L307.65,900.00L306.00,891.56L340.85,866.49L304.35,878.95L351.41,851.63L353.30,844.31L343.32,842.92L339.11,835.87L340.85,844.31L331.06,851.41L267.02,872.16L267.85,866.49L278.67,862.32L275.24,854.14L291.12,847.08L286.17,845.57L288.24,841.90L311.85,834.47L308.48,830.45L317.64,820.62L336.63,812.31L269.49,840.02L258.76,831.70L264.48,825.30L257.52,817.72L244.64,830.45L244.64,819.23L238.85,818.70L238.03,810.92L255.15,806.01L248.77,796.92L253.69,789.81L281.88,779.13L289.40,769.22L294.81,774.75L296.98,760.89L313.51,762.16L310.95,759.38L315.16,756.61L291.12,757.99L291.39,765.39L286.17,759.38L263.36,765.25L252.15,759.79L248.77,762.16L252.98,764.79L241.34,762.16L233.08,767.70L229.34,764.10L230.09,750.93L236.38,746.92L240.89,751.82L241.55,741.14L265.11,729.25L265.79,739.85L273.70,738.59L280.47,732.81L278.67,724.61L284.26,725.28L284.84,736.04L292.25,739.23L317.64,737.08L301.71,732.02L300.29,727.37L306.90,724.61L305.93,711.30L291.96,703.81L321.77,689.31L330.11,691.33L324.25,687.06L328.46,671.68L373.97,670.29L437.00,650.85L411.63,646.65L410.54,635.52L413.84,630.10L404.04,635.79L389.14,660.84L372.32,667.53L366.60,666.13L373.14,657.69L354.33,663.23L336.63,652.27L340.01,657.69L321.37,669.68L293.60,674.45L307.19,666.65L330.86,639.79L346.56,634.70L347.45,624.42L364.06,597.96L349.10,596.57L373.96,554.68L398.08,560.41L391.39,552.10L406.41,554.87L401.37,549.19L408.51,548.53L414.59,554.87L412.12,547.94L419.62,539.62L401.37,539.62L413.84,531.32L404.23,528.54L344.98,538.11L338.37,531.32L339.80,525.44L332.81,536.52L332.21,519.20L339.05,515.19L334.16,510.38L340.01,506.22L331.68,507.62L333.50,513.54L330.11,517.45L327.93,504.72L316.99,520.63L309.29,523.24L297.73,518.70L299.55,511.54L311.85,504.72L307.65,503.46L310.20,499.30L302.82,504.43L300.29,501.95L304.35,496.41L296.62,497.98L290.57,507.40L264.55,500.69L268.69,493.98L279.49,492.38L275.36,486.71L283.41,488.96L284.44,486.71L272.92,484.08L267.43,474.10L261.31,474.10L264.09,471.69L277.35,468.74L285.27,474.10L289.40,470.19L280.24,462.80L301.88,459.13L322.59,463.02L296.98,453.30L296.98,429.74L338.37,422.81L331.68,418.53L339.11,408.83L335.88,407.44L338.37,401.89L315.16,401.89L296.70,410.13L292.71,405.94L296.08,390.82L301.87,389.29L311.61,398.49L311.85,392.19L298.13,376.31L306.00,358.69L300.29,358.69L295.90,367.29L289.45,365.50L287.00,360.20L296.98,357.42L288.65,344.81L293.60,343.42L284.58,337.13L283.85,343.15L279.49,343.42L281.14,347.58L275.36,349.10L277.81,362.18L271.70,361.98L270.40,356.04L278.67,336.37L271.98,333.73L286.17,319.75L300.29,328.06L294.72,335.42L288.65,332.22L287.88,336.19L296.80,339.95L304.79,325.30L314.34,329.57L310.20,323.89L315.16,323.89L304.53,316.19L311.85,312.82L374.42,319.75L381.37,325.50L381.45,337.23L389.81,351.87L390.56,339.27L400.69,322.68L446.05,326.37L458.60,340.78L466.04,339.27L452.75,329.57L456.05,323.89L470.99,325.30L458.60,317.72L465.08,315.12L447.87,312.82L447.56,308.51L470.53,294.16L471.42,285.02L474.29,290.64L502.46,279.55L495.10,275.14L506.67,255.73L511.25,258.50L513.27,250.19L492.55,258.50L491.38,251.56L472.64,266.82L480.98,255.61L475.67,251.26L472.05,259.06L468.10,252.95L446.51,255.69L432.09,247.54L431.37,240.97L450.87,225.44L472.64,227.89L463.78,221.46L478.50,226.63L460.33,215.42L468.52,208.49L488.49,212.64L481.75,207.68L490.06,202.93L487.11,198.00L478.37,201.37L473.35,194.26L473.39,189.35L483.54,188.96L472.64,177.86L477.68,177.86L485.86,165.39L489.18,171.47L489.12,157.14L494.20,145.85L510.80,145.85L508.96,153.16L530.70,133.39L533.92,135.75L527.39,143.09L538.96,140.19L540.14,146.69L544.82,144.35L540.61,150.00L545.26,150.22L547.89,144.95L544.09,134.81L552.25,126.45L550.19,138.92L562.06,144.62L563.89,158.33L568.04,148.56L564.79,136.32L561.29,134.88L561.39,142.76L553.52,134.07L556.83,126.45L570.97,123.06L574.54,138.65L585.27,154.86L571.33,168.15L580.91,169.40L566.44,187.69L593.69,167.04L592.88,149.32L582.39,134.71L585.45,119.51L606.84,114.64L610.06,121.16L617.82,120.78L602.37,100.00L656.20,129.90L627.97,149.31L618.99,164.37Z M318.30,528.54L318.91,537.71L329.46,538.67L331.88,534.93L330.97,531.20L322.25,526.24L318.30,528.54Z M290.31,390.82L295.26,390.82L290.98,405.69L279.18,398.97L277.84,388.03L253.73,385.14L262.97,378.20L288.82,377.16L293.60,383.63L290.31,390.82Z M459.43,185.45L470.98,184.63L469.77,177.72L466.74,176.55L458.36,181.66L459.43,185.45Z M300.22,860.34L310.19,861.21L295.84,864.74L300.22,860.34Z M248.07,802.59L246.86,807.11L233.99,809.84L243.35,801.45L248.07,802.59Z M322.60,556.74L326.98,566.06L308.72,556.53L322.60,556.74Z" fill="currentColor" fill-rule="evenodd"/></svg>
