<svg xmlns="http://www.w3.org/2000/svg" viewBox="0 0 1000 1000" role="img" aria-label="Map of Israel"><path d="M357.14,548.38L375.01,532.49L377.87,511.34L410.75,481.31L397.72,472.46L437.92,397.21L459.83,329.99L478.97,221.03L499.05,212.01L505.47,165.18L537.54,162.41L548.26,171.72L571.78,165.22L583.86,125.67L593.33,134.03L631.19,100.00L629.24,109.54L621.21,114.77L627.87,119.25L622.04,127.37L632.77,144.27L629.51,160.22L636.03,162.92L642.86,194.32L620.12,235.29L585.79,256.42L585.86,308.74L559.01,302.60L556.58,286.33L551.39,283.13L521.35,276.68L495.91,298.65L487.51,321.34L489.44,337.41L481.39,346.15L489.38,383.08L485.80,394.02L494.91,405.98L494.09,415.69L484.18,421.36L501.41,417.11L520.55,426.39L525.71,424.06L526.80,412.00L534.28,422.81L533.91,438.66L529.58,446.69L510.02,441.84L483.52,462.82L464.97,510.60L467.00,517.46L516.85,517.58L556.09,492.09L568.01,491.16L557.06,538.94L564.52,570.38L512.51,707.95L516.36,722.00L509.93,745.85L513.43,770.62L503.14,788.87L486.34,866.91L472.57,900.00L462.89,888.61L441.63,793.25L418.32,725.45L405.68,712.16L407.30,697.34L397.58,662.81L357.14,548.38Z" fill="currentColor" fill-rule="evenodd"/></svg>
