<svg xmlns="http://www.w3.org/2000/svg" viewBox="0 0 1000 1000" role="img" aria-label="Map of Italy"><path d="M212.95,180.02L219.76,183.39L232.22,180.68L239.85,175.96L248.42,179.99L255.54,180.44L269.37,166.11L270.36,161.34L268.17,156.12L278.24,149.33L280.04,144.95L284.33,143.67L286.75,146.42L286.35,158.63L294.84,166.40L305.58,168.68L306.90,170.29L303.45,176.04L308.79,178.52L310.30,186.84L315.61,187.24L318.75,181.84L314.47,177.33L315.59,172.16L327.14,158.92L329.75,152.01L327.82,144.75L330.12,140.56L335.42,142.69L338.01,140.49L338.52,148.98L343.29,154.27L350.44,154.74L352.81,150.66L363.09,149.26L371.25,159.69L375.56,156.76L372.08,152.17L374.62,147.07L368.69,144.08L369.02,138.10L371.87,133.17L377.28,131.62L382.63,136.85L390.34,137.77L391.12,131.85L386.46,128.48L390.85,115.23L400.87,115.28L405.63,117.64L404.80,120.61L419.00,121.81L423.92,111.92L428.21,108.37L440.47,107.91L443.62,105.39L457.26,107.91L480.36,100.00L481.55,102.20L476.76,106.36L477.58,112.17L484.82,114.98L484.95,120.47L492.00,127.26L534.82,136.77L547.62,135.99L559.18,139.01L557.96,143.68L553.95,144.33L541.77,154.84L544.10,160.52L547.12,159.45L555.88,162.42L546.78,174.43L549.25,177.12L554.25,175.87L552.18,186.57L563.21,192.57L569.22,200.27L566.79,203.52L559.74,202.93L564.73,201.48L552.61,189.38L550.01,191.42L551.61,193.00L543.66,197.26L545.20,195.09L541.99,192.49L529.02,190.60L526.73,195.78L530.60,195.31L527.24,199.57L519.93,200.49L492.96,213.64L493.34,210.46L497.70,209.86L501.16,205.71L498.85,206.89L497.26,204.31L494.40,208.54L491.57,206.66L492.98,209.48L487.05,210.13L482.21,222.04L479.01,222.23L480.37,226.06L482.26,223.59L482.95,229.77L486.93,227.94L488.03,236.89L486.93,235.00L486.38,237.75L488.67,238.24L490.12,243.10L490.12,239.33L498.67,245.92L494.05,256.24L493.72,250.68L492.09,251.36L492.57,257.43L484.81,255.82L485.71,279.21L490.12,295.55L506.85,313.49L519.15,318.65L535.97,333.32L547.38,339.61L549.59,338.25L554.75,343.17L566.12,373.06L571.81,395.75L578.59,409.51L603.72,435.26L611.45,438.72L613.08,444.99L635.09,455.81L649.64,457.25L679.76,454.68L685.64,456.35L687.65,458.19L687.91,466.03L673.18,477.41L672.98,482.81L676.34,488.12L709.15,505.54L733.16,514.17L744.52,521.18L754.88,531.53L782.40,543.91L783.98,550.38L794.39,557.23L808.79,579.20L803.36,590.27L802.21,601.42L799.58,602.60L785.75,594.91L781.80,589.13L782.86,586.31L780.35,584.85L782.61,582.18L774.94,569.10L756.74,567.85L740.58,559.80L742.79,558.35L741.99,556.07L746.95,554.42L740.04,555.56L732.77,552.99L728.96,554.82L709.71,582.98L711.10,591.14L703.75,604.31L706.66,612.20L718.92,615.60L738.42,629.77L736.13,639.21L736.65,651.52L740.90,655.76L739.13,660.52L735.59,664.76L727.98,661.93L721.83,663.44L708.72,671.74L706.08,678.50L707.88,697.15L694.24,707.67L687.14,716.90L682.36,730.93L665.99,731.94L662.00,729.99L659.44,726.16L659.32,711.59L668.66,706.05L674.10,691.13L669.89,682.01L678.49,676.74L686.27,676.36L689.85,667.69L689.49,663.38L682.66,652.60L678.12,627.52L671.94,619.75L668.32,609.81L666.66,596.32L658.88,583.44L654.25,583.44L647.78,589.22L640.06,586.78L640.17,583.72L633.11,577.10L628.97,577.15L621.91,572.13L626.43,561.38L615.22,542.59L602.89,546.47L599.90,545.16L592.44,549.44L592.19,545.73L599.37,540.85L599.26,538.46L589.93,530.94L585.23,533.53L578.96,531.46L578.96,534.75L577.15,534.33L575.79,525.21L560.26,502.40L553.65,502.35L551.04,505.56L537.66,499.41L525.15,504.12L517.32,492.27L503.93,488.94L494.22,476.30L483.39,469.02L479.82,459.13L472.05,451.30L466.69,448.21L462.06,448.47L453.28,431.55L438.68,422.76L430.11,421.93L428.69,425.56L424.69,423.83L424.30,420.27L427.67,420.48L428.93,417.69L427.37,411.91L416.24,399.57L405.23,395.33L406.90,387.47L400.11,384.70L393.22,385.94L394.70,364.81L383.77,347.85L380.37,323.43L372.02,311.10L365.39,309.77L359.27,305.35L358.63,309.93L327.44,288.45L326.40,291.78L320.77,287.05L303.16,283.04L287.80,291.86L284.80,299.50L276.94,303.99L272.35,315.85L267.15,319.98L249.99,326.77L237.84,327.18L236.57,322.13L247.57,308.20L245.79,300.70L229.46,304.32L210.42,295.64L205.06,287.81L207.54,282.75L203.29,276.01L209.72,265.72L214.66,265.60L212.06,255.73L198.60,250.22L197.47,242.93L193.74,241.40L191.21,236.72L198.14,233.00L203.72,234.88L217.42,225.98L216.60,221.51L220.13,215.51L210.91,208.60L209.90,199.65L202.27,195.78L200.50,190.22L201.48,186.84L209.16,184.68L212.95,180.02Z M493.26,320.29L495.79,318.57L495.99,314.05L491.51,316.41L493.26,320.29Z M494.48,457.46L494.54,457.54L494.53,457.46L494.48,457.46Z M465.09,805.03L464.76,811.39L470.23,816.26L474.58,816.54L477.04,811.32L475.60,807.27L470.13,803.73L465.09,805.03Z M481.93,734.12L490.64,736.43L493.84,734.52L494.51,730.85L489.36,726.46L484.18,726.54L480.65,731.26L481.93,734.12Z M653.92,705.91L660.30,707.79L656.05,711.13L652.46,720.92L637.56,743.24L635.01,756.61L631.26,762.83L631.88,773.02L639.58,777.99L640.06,779.64L637.17,778.89L636.03,781.46L642.24,788.79L641.23,792.43L643.75,794.97L634.73,801.00L631.39,809.60L633.48,818.18L631.39,819.58L626.89,816.28L620.41,814.36L615.15,816.51L599.94,810.03L589.13,792.74L581.23,788.03L569.20,788.82L559.95,783.95L552.35,776.90L537.25,768.61L531.86,762.18L524.21,761.75L519.87,756.55L505.18,756.79L500.95,750.79L497.24,749.86L493.14,740.79L495.11,739.01L496.55,725.31L507.53,719.14L508.93,713.48L517.71,724.85L526.02,721.02L528.07,713.67L533.58,714.64L539.33,711.56L543.13,719.67L549.46,719.16L556.59,726.72L563.83,728.60L575.74,723.38L588.84,725.74L601.21,723.72L612.72,715.91L621.70,713.84L631.07,717.94L635.72,716.00L638.81,708.52L639.24,711.80L641.65,712.50L653.92,705.91Z M620.44,695.30L620.39,702.52L622.39,704.75L625.56,706.28L629.96,704.20L631.46,701.51L628.81,694.66L626.15,692.50L620.44,695.30Z M619.78,698.28L626.36,699.84L628.97,697.45L630.02,692.45L622.77,686.13L619.86,687.04L617.27,692.90L619.78,698.28Z M618.75,681.66L611.61,684.48L610.83,688.39L619.94,694.65L622.99,693.15L624.70,687.18L623.09,682.95L618.75,681.66Z M286.54,648.57L279.79,649.88L283.95,662.35L286.79,661.41L290.63,653.96L286.54,648.57Z M281.76,641.24L272.06,644.07L271.77,646.95L274.37,653.47L279.23,654.51L283.43,650.58L283.43,644.46L281.76,641.24Z M575.40,542.11L576.58,536.57L565.63,532.74L563.54,541.65L571.07,544.31L575.40,542.11Z M277.76,522.28L283.45,515.90L281.54,508.90L275.84,511.50L272.41,521.33L277.76,522.28Z M349.59,533.62L358.32,552.27L347.94,570.65L349.42,578.83L353.44,583.02L346.69,633.26L348.38,637.31L344.90,641.37L344.84,647.50L342.36,650.58L330.63,642.53L326.70,642.06L324.09,644.89L316.20,639.59L319.62,642.30L316.43,647.71L316.81,658.12L307.88,666.21L300.79,662.44L296.87,667.15L292.65,653.88L288.67,652.25L282.97,642.47L286.04,636.97L283.03,631.66L287.66,618.00L286.66,605.57L290.44,609.35L292.97,609.43L289.79,608.02L292.42,598.97L287.65,594.73L286.21,598.60L284.09,594.83L283.20,586.48L287.93,584.52L289.04,581.60L288.32,568.65L283.65,564.54L283.34,556.47L278.75,547.73L274.86,549.44L273.67,546.20L272.03,549.91L271.28,547.88L273.88,541.12L270.58,538.52L274.81,528.00L273.65,522.32L279.72,530.12L290.63,531.75L306.28,523.45L315.77,511.41L322.83,509.28L324.35,503.06L327.44,501.70L329.91,506.36L330.27,504.52L330.27,506.36L337.38,507.35L338.44,513.47L339.80,509.73L344.49,511.11L342.02,518.69L343.64,517.27L344.14,519.16L349.83,519.63L345.94,520.11L345.09,524.31L341.62,524.86L348.77,525.29L347.32,527.17L353.01,530.51L349.59,533.62Z M410.85,420.51L407.35,425.27L408.66,428.80L415.11,433.49L418.42,432.19L420.65,428.64L417.77,421.79L414.60,419.57L410.85,420.51Z M390.30,392.50L387.48,398.15L388.86,401.92L384.84,398.06L379.23,400.09L372.86,398.57L374.21,394.81L385.33,395.23L388.70,390.57L390.30,392.50Z M362.57,373.84L354.01,373.53L352.35,376.91L353.06,384.30L356.01,386.17L361.58,384.46L364.11,379.93L362.57,373.84Z M485.49,214.38L483.89,221.33L485.93,223.51L488.91,223.70L497.15,216.54L495.34,211.66L490.63,209.94L485.49,214.38Z M511.96,879.80L517.35,881.12L520.88,879.16L522.56,874.46L520.52,869.33L515.22,867.80L509.56,870.87L508.79,875.86L511.96,879.80Z M599.76,688.15L596.32,683.02L590.96,682.62L586.63,686.06L586.17,690.82L590.00,695.18L594.90,695.95L598.93,693.05L599.76,688.15Z M597.12,687.84L604.08,694.14L608.79,692.86L610.91,688.46L606.77,681.95L602.10,680.45L597.92,683.01L597.12,687.84Z M533.02,684.27L538.81,679.13L537.31,673.86L532.62,671.42L528.45,673.01L524.98,678.14L529.04,684.44L533.02,684.27Z M633.22,667.10L630.55,673.03L632.94,677.03L638.66,679.10L642.32,676.93L643.19,670.26L641.16,666.48L637.06,665.18L633.22,667.10Z M549.31,538.72L551.64,532.68L548.98,528.25L543.51,527.27L539.03,530.74L538.11,536.30L540.82,540.01L545.31,540.98L549.31,538.72Z M507.23,896.47L497.36,893.68L494.36,895.85L493.98,899.53L504.42,904.17L507.44,900.23L507.23,896.47Z M471.44,722.28L467.10,726.99L468.80,731.93L474.77,735.75L478.36,734.71L480.47,731.63L478.82,725.00L475.69,722.10L471.44,722.28Z M335.90,501.16L333.46,508.14L336.94,511.95L342.64,511.60L344.91,507.44L343.17,499.83L339.23,498.79L335.90,501.16Z M342.76,502.66L339.73,497.30L336.31,496.54L329.61,503.83L335.01,510.41L340.26,508.91L342.76,502.66Z M380.79,434.36L387.10,433.83L389.93,429.24L388.74,423.35L384.45,420.94L379.72,422.28L376.26,427.09L377.14,431.59L380.79,434.36Z M366.84,405.33L364.63,412.40L368.06,415.93L373.59,416.59L376.48,414.30L376.97,407.84L374.80,404.03L370.54,402.98L366.84,405.33Z M482.38,210.84L482.34,216.79L485.18,219.56L491.28,219.31L495.62,214.28L494.85,209.72L490.09,206.67L485.30,207.03L482.38,210.84Z" fill="currentColor" fill-rule="evenodd"/></svg>
