<svg xmlns="http://www.w3.org/2000/svg" viewBox="0 0 1000 1000" role="img" aria-label="Map of Jamaica"><path d="M840.31,482.87L900.00,575.45L835.96,596.48L748.25,593.87L709.87,563.71L664.29,567.32L704.48,562.31L657.81,545.88L624.09,606.97L588.90,601.96L596.63,596.48L579.43,581.60L551.10,588.66L538.93,628.26L523.73,630.63L551.43,633.26L554.02,654.37L537.45,656.78L450.10,596.14L335.59,598.80L295.73,562.31L293.57,536.35L253.06,530.53L218.68,471.65L151.45,468.55L112.42,457.51L100.00,440.69L114.35,403.02L152.70,371.91L248.06,372.37L272.80,343.22L503.19,366.09L552.67,385.51L641.37,385.38L682.37,435.97L840.31,482.87Z" fill="currentColor" fill-rule="evenodd"/></svg>
