<svg xmlns="http://www.w3.org/2000/svg" viewBox="0 0 1000 1000" role="img" aria-label="Map of Japan"><path d="M272.83,593.96L269.06,602.02L274.32,606.03L278.63,603.19L280.87,596.93L278.57,592.66L272.83,593.96Z M324.72,574.97L316.44,609.64L309.57,607.23L308.07,609.94L311.12,612.57L298.90,621.24L302.44,610.53L297.18,602.94L301.50,603.64L301.96,599.04L298.57,598.90L295.59,605.23L298.97,612.82L297.06,616.46L293.58,613.51L287.68,613.61L285.02,608.51L287.84,609.37L290.57,603.68L286.37,596.53L288.01,595.61L286.59,587.01L290.19,586.23L295.16,579.32L299.17,569.57L293.50,570.43L298.08,567.83L297.71,565.27L293.32,560.93L292.79,555.79L288.17,552.63L285.24,554.74L287.68,559.32L284.67,562.43L290.70,563.04L291.25,568.34L286.23,571.32L285.25,568.46L287.30,566.32L284.37,564.98L275.26,572.09L278.32,567.19L272.64,560.84L273.75,555.58L277.40,559.18L276.65,562.46L282.03,563.39L280.55,558.04L275.42,556.48L274.47,553.43L273.36,555.36L270.41,551.44L271.14,546.89L273.53,546.02L278.13,549.74L276.47,544.26L278.64,544.63L278.17,541.19L282.39,544.54L286.28,541.76L284.35,540.53L287.31,537.65L289.43,540.50L292.02,539.54L292.23,537.52L290.94,538.40L289.41,537.13L293.41,535.98L294.55,531.67L301.43,528.90L305.49,530.55L307.90,528.20L306.73,532.90L310.37,538.93L317.19,540.49L321.15,537.30L324.92,537.58L326.72,543.32L323.08,547.56L320.76,547.13L320.87,549.95L330.98,550.18L328.58,554.53L333.39,555.66L330.99,559.07L335.58,560.32L324.72,574.97Z M402.80,532.53L404.38,532.32L393.07,540.56L389.57,551.12L383.10,543.03L378.31,541.66L366.79,547.08L365.06,553.54L359.30,558.95L359.31,567.59L357.07,565.51L349.66,566.32L351.76,561.38L346.48,561.94L345.64,557.26L343.34,557.92L346.12,554.37L343.66,552.13L347.62,551.41L347.03,548.65L343.25,548.50L344.34,544.58L333.76,547.58L350.92,536.06L351.84,530.13L356.61,523.28L362.53,529.23L372.42,528.22L375.78,524.65L373.64,518.98L377.33,519.87L383.40,515.35L388.72,514.83L396.35,520.59L401.69,519.62L400.34,526.20L402.96,528.64L402.80,532.53Z M358.63,456.71L355.69,463.50L357.35,467.65L361.51,469.27L366.68,466.01L367.98,460.69L366.33,456.90L362.51,455.27L358.63,456.71Z M363.13,467.45L367.91,464.31L368.72,459.15L365.61,454.96L360.53,453.81L356.51,456.10L354.92,460.88L357.45,466.14L363.13,467.45Z M358.25,455.77L352.85,460.63L352.86,464.16L356.24,467.68L361.04,468.16L365.53,464.28L365.90,457.71L362.49,455.08L358.25,455.77Z M372.72,511.96L366.51,517.04L365.63,513.74L364.04,518.32L361.22,518.98L363.60,515.98L361.66,514.89L350.40,520.87L347.77,521.09L346.82,516.05L342.40,516.18L339.22,519.63L337.65,532.10L334.93,534.13L336.05,531.14L327.81,528.08L328.92,526.29L326.83,525.37L319.09,527.79L317.77,525.88L314.37,529.49L308.64,525.63L304.61,529.08L304.97,516.35L308.59,515.14L306.66,513.71L312.17,515.58L312.13,513.64L314.97,514.32L313.11,515.53L318.40,513.82L323.10,506.42L329.84,504.69L349.94,486.48L349.86,481.88L361.61,476.84L367.21,477.60L366.07,480.15L369.57,481.46L374.20,478.97L391.15,478.56L398.86,474.62L408.91,475.59L416.64,471.47L418.68,474.64L415.64,478.61L417.19,477.15L419.01,481.69L422.73,476.78L424.44,480.25L427.51,478.68L426.82,480.45L429.46,480.32L429.82,477.81L432.29,478.95L431.70,475.52L436.06,475.93L437.07,471.69L438.34,474.94L439.12,471.37L435.61,464.33L439.76,456.37L446.41,452.04L454.33,441.37L456.34,433.52L453.83,428.21L456.75,421.18L471.37,417.03L468.26,423.75L462.69,427.11L461.06,425.56L458.74,430.51L463.54,429.82L462.47,438.07L470.02,440.55L473.86,435.01L494.40,427.15L502.28,421.05L510.19,406.92L524.81,396.77L526.55,387.25L533.80,375.86L539.51,359.83L540.34,344.22L537.60,341.90L533.45,343.17L531.84,339.07L536.20,339.20L539.91,331.31L540.25,327.56L536.03,319.59L540.81,314.60L546.60,313.20L547.92,306.44L550.13,306.50L546.02,303.43L548.45,298.96L551.54,301.53L555.93,301.20L557.74,311.91L561.58,310.95L562.53,306.97L568.65,311.29L572.55,302.43L570.70,298.99L559.36,302.75L563.00,290.39L572.51,296.21L577.26,293.79L575.35,306.35L576.66,317.66L586.79,330.82L591.29,345.85L590.14,350.90L592.09,350.05L592.97,352.83L589.95,355.64L592.67,355.47L588.72,359.73L590.67,359.09L587.14,365.33L588.93,367.04L586.45,367.26L587.23,369.42L584.15,368.97L584.21,371.65L581.84,370.57L582.75,374.76L580.56,373.81L579.99,379.42L577.33,380.75L579.18,381.67L577.43,383.63L579.51,385.23L577.52,388.03L579.54,389.42L578.93,393.11L573.24,388.71L569.77,391.38L567.44,390.18L564.54,396.16L565.60,428.72L564.37,433.98L558.74,440.19L554.16,455.43L556.27,463.91L562.29,473.10L556.66,474.10L552.08,477.95L549.36,490.19L543.10,491.88L537.73,498.64L533.37,497.10L536.28,495.75L536.18,488.00L533.98,485.74L542.26,477.92L539.20,474.73L534.19,476.78L533.58,475.21L534.17,479.61L530.41,481.46L530.57,486.37L533.07,487.91L531.51,491.32L529.74,491.52L527.88,486.06L518.59,487.46L515.84,493.37L517.49,499.79L513.70,506.72L509.62,508.42L507.33,505.42L507.72,496.36L511.48,494.77L508.79,491.90L502.37,492.71L493.66,504.76L494.10,508.46L476.42,505.86L462.74,508.96L464.20,506.26L471.11,504.32L469.54,501.76L462.79,502.53L461.78,498.11L460.15,502.76L461.59,505.26L458.61,503.90L459.38,492.93L457.95,493.25L453.54,496.23L449.94,505.75L460.16,513.50L459.64,518.75L454.77,516.63L445.23,521.35L442.19,524.77L443.60,528.03L439.26,530.54L435.52,539.91L430.37,544.93L422.25,541.24L419.23,537.46L420.88,536.13L412.31,530.90L415.68,522.43L412.36,518.74L420.39,511.92L421.43,505.40L411.97,507.51L404.20,503.06L397.68,502.42L394.14,504.99L390.40,504.27L392.21,505.21L388.84,508.38L384.88,508.02L383.39,508.69L386.21,508.87L383.38,512.96L379.73,513.22L377.90,510.56L371.37,513.82L372.72,511.96Z M636.63,203.02L633.23,206.28L633.72,210.38L637.16,212.66L644.90,212.45L646.21,205.79L636.63,203.02Z M685.51,232.57L689.72,232.76L684.68,234.77L682.14,239.19L672.03,240.47L672.80,242.00L668.54,243.09L668.83,244.83L663.28,243.03L661.81,246.88L651.02,244.41L639.77,249.39L625.92,265.88L623.15,278.16L586.45,257.07L576.42,258.18L564.81,266.49L558.53,258.18L552.53,257.71L548.01,262.31L547.14,267.75L553.77,272.59L558.01,271.71L570.55,282.20L565.56,284.94L557.87,283.89L556.64,281.33L551.30,285.92L550.77,290.63L545.01,294.71L540.61,293.41L539.11,289.04L543.36,276.44L534.43,268.49L535.32,257.41L544.79,250.33L546.88,252.12L553.06,244.61L548.34,237.88L548.91,234.28L552.18,232.80L560.14,238.36L565.68,237.30L569.75,240.07L576.30,234.51L574.09,222.11L581.90,215.04L582.28,204.39L585.91,192.94L580.51,176.53L582.09,167.96L586.61,168.42L589.09,165.49L616.45,194.67L627.37,203.12L636.94,207.15L634.46,207.36L635.70,209.53L645.77,209.04L646.64,212.47L648.96,209.35L652.47,214.46L661.78,215.77L677.26,202.24L678.05,205.28L670.31,220.17L678.61,234.91L675.42,233.62L676.75,235.82L681.79,237.30L685.51,232.57Z M119.73,824.89L115.59,833.42L118.00,835.34L123.28,836.54L127.32,834.56L128.96,828.28L126.92,826.29L119.73,824.89Z M101.46,820.11L94.43,824.55L94.62,830.26L100.95,833.52L105.46,832.14L107.79,826.89L106.16,822.06L101.46,820.11Z M127.86,830.49L131.77,833.54L136.63,830.74L138.88,823.84L137.26,819.98L127.34,825.01L127.86,830.49Z M567.15,815.67L568.10,822.04L572.17,824.33L576.66,823.01L580.79,817.45L579.60,813.09L574.01,810.54L569.51,811.67L567.15,815.67Z M156.59,810.24L156.70,821.43L168.17,820.74L167.77,814.41L162.81,810.01L156.59,810.24Z M309.44,778.56L307.36,785.61L311.41,789.59L316.62,789.68L320.30,785.61L319.01,778.31L313.77,776.19L309.44,778.56Z M203.86,763.57L195.17,761.49L191.37,767.59L195.55,773.01L200.60,774.21L204.98,769.19L203.86,763.57Z M597.62,751.41L592.00,750.72L589.03,753.70L590.36,760.72L596.47,764.28L600.09,762.21L601.14,758.17L597.62,751.41Z M239.12,753.34L233.98,760.97L226.60,764.51L228.35,768.64L225.99,768.43L225.18,773.98L221.44,775.72L223.27,764.86L229.39,760.65L227.28,756.55L231.90,758.12L236.99,750.53L239.12,753.34Z M589.87,744.76L591.98,749.97L596.98,751.69L601.64,749.87L603.51,745.23L601.39,739.32L596.68,737.71L591.29,740.05L589.87,744.76Z M247.19,728.09L239.63,732.88L240.15,738.09L243.49,740.02L249.94,738.48L252.20,735.64L253.17,731.89L251.02,728.66L247.19,728.09Z M253.21,715.22L250.04,718.90L249.95,723.59L255.13,728.74L258.46,726.98L259.99,721.92L258.00,716.97L253.21,715.22Z M270.02,712.49L264.12,705.36L258.53,705.36L256.34,707.89L257.37,714.10L261.32,717.23L268.54,716.32L270.02,712.49Z M279.66,699.27L274.24,705.88L275.55,709.80L284.81,711.04L287.93,705.63L287.56,701.20L284.04,698.49L279.66,699.27Z M273.53,699.55L274.63,702.08L267.71,706.42L265.87,711.80L259.94,707.71L263.16,707.54L262.99,705.23L272.78,701.75L273.53,699.55Z M268.38,663.20L271.58,670.48L276.11,671.21L280.76,667.41L281.48,661.77L276.32,657.60L271.01,658.50L268.38,663.20Z M279.02,650.90L273.90,652.33L271.97,655.62L273.30,660.92L279.29,664.16L284.20,662.28L285.83,658.85L284.24,653.84L279.02,650.90Z M301.05,638.34L296.53,635.40L292.46,635.94L288.99,638.66L290.23,646.22L293.48,648.65L298.35,647.86L302.18,642.34L301.05,638.34Z M309.06,626.36L309.20,633.55L306.75,641.04L304.38,641.95L303.89,637.98L309.06,626.36Z M279.48,585.89L283.31,591.60L287.51,591.91L291.93,587.18L292.18,582.13L288.33,578.87L282.17,578.82L279.48,585.89Z M284.98,579.38L292.00,581.81L297.15,575.87L297.42,572.38L294.68,570.22L289.11,570.40L283.81,575.47L284.98,579.38Z M280.53,583.24L282.43,585.24L288.25,580.24L286.78,571.55L280.81,572.48L280.53,583.24Z M252.13,561.80L245.38,562.98L242.74,570.79L250.22,575.14L255.48,572.29L256.44,568.42L252.13,561.80Z M527.98,552.66L531.93,561.43L536.71,562.34L540.72,558.83L541.49,554.33L538.43,550.94L530.75,549.60L527.98,552.66Z M257.99,552.06L254.13,559.98L257.26,565.71L262.46,559.28L260.17,552.26L257.99,552.06Z M263.94,548.87L262.42,555.02L266.74,556.29L271.93,552.26L273.83,545.24L268.95,542.56L263.94,548.87Z M334.30,529.66L332.43,534.12L333.87,537.91L339.58,540.24L346.07,536.43L346.09,532.43L341.90,528.34L334.30,529.66Z M272.38,527.19L269.00,536.39L271.99,539.88L274.58,540.90L280.23,537.49L280.66,532.19L277.59,528.06L272.38,527.19Z M335.92,533.08L345.32,534.76L348.89,530.03L346.89,525.90L336.52,526.20L335.92,533.08Z M523.42,530.23L528.98,531.62L532.55,529.07L534.31,522.81L531.40,519.15L525.74,518.01L522.31,520.69L520.77,526.69L523.42,530.23Z M352.64,520.59L348.45,516.44L342.27,518.86L340.29,526.52L344.14,529.64L350.37,529.62L353.39,525.35L352.64,520.59Z M353.29,519.61L355.15,525.53L359.68,526.15L365.34,522.86L365.91,518.85L363.34,513.50L359.86,512.39L354.90,515.05L353.29,519.61Z M262.90,514.06L258.33,516.37L257.79,525.35L260.55,527.28L265.43,525.51L268.16,519.23L266.60,515.25L262.90,514.06Z M515.72,519.32L519.42,522.34L523.51,521.77L526.05,518.51L526.55,511.57L519.65,508.86L515.49,513.92L515.72,519.32Z M402.24,516.62L403.97,521.55L410.13,518.80L408.60,515.43L411.21,507.76L402.24,516.62Z M263.85,506.54L261.47,516.33L265.49,518.26L269.19,508.56L268.37,504.45L263.85,506.54Z M517.91,501.81L520.65,509.14L526.74,510.81L529.65,508.92L530.59,503.16L527.85,498.82L522.12,497.04L517.91,501.81Z M354.30,467.01L361.29,470.67L365.68,468.83L367.43,464.41L364.64,459.24L358.41,457.83L353.97,461.35L354.30,467.01Z M367.17,463.43L373.09,457.17L371.76,452.96L367.29,449.49L362.37,451.58L360.08,456.65L361.33,460.58L367.17,463.43Z M499.51,399.88L502.91,399.18L500.99,404.45L493.83,407.73L496.92,402.56L494.48,402.19L494.33,399.27L501.34,391.37L499.51,399.88Z M526.17,264.65L520.78,270.41L522.68,277.22L525.35,278.22L529.65,275.76L531.93,269.15L529.13,264.38L526.17,264.65Z M669.18,223.19L674.89,233.09L678.21,232.52L682.50,228.62L682.33,225.08L671.93,220.61L669.18,223.19Z M652.44,221.58L659.43,219.67L661.33,214.79L659.27,209.98L654.42,207.99L649.69,209.71L647.40,213.99L648.49,218.73L652.44,221.58Z M576.52,172.69L568.13,170.14L564.62,173.44L564.90,178.10L569.63,182.46L573.96,182.54L578.13,177.54L576.52,172.69Z M560.81,168.20L562.58,174.43L568.13,176.80L570.73,166.55L563.25,163.47L560.81,168.20Z M568.19,736.20L563.35,732.72L557.76,734.20L555.17,738.83L556.52,743.77L560.91,746.40L566.10,745.35L568.95,741.19L568.19,736.20Z M224.58,749.07L218.95,751.89L217.95,756.74L219.91,760.56L224.70,762.38L229.77,760.81L231.82,755.91L229.51,750.44L224.58,749.07Z M225.69,740.70L223.26,748.93L227.01,752.17L231.88,751.27L235.25,747.40L235.56,741.85L228.97,738.52L225.69,740.70Z M280.16,637.43L286.00,644.80L289.23,644.68L293.58,641.53L293.91,637.47L284.57,632.03L280.16,637.43Z M385.45,514.32L391.06,518.35L396.12,517.38L398.80,510.31L397.44,506.53L388.61,506.55L385.34,509.65L385.45,514.32Z M582.42,838.98L584.26,833.49L581.29,828.45L575.50,827.59L571.20,831.57L570.90,836.66L573.79,840.30L578.35,841.21L582.42,838.98Z M575.03,789.46L568.56,790.26L565.85,795.58L567.76,801.01L572.40,802.98L577.09,801.11L579.64,796.51L578.60,792.16L575.03,789.46Z M309.53,783.11L314.75,787.23L320.19,785.50L321.97,777.39L316.91,773.56L311.50,774.53L308.84,778.44L309.53,783.11Z M212.50,766.44L216.63,763.33L217.50,759.02L215.25,754.63L210.93,753.00L206.59,754.59L203.66,759.14L204.48,763.59L207.97,766.47L212.50,766.44Z M237.13,740.34L234.43,746.70L237.97,751.37L244.10,752.22L247.65,749.01L247.40,742.79L244.85,739.58L237.13,740.34Z M601.18,736.95L596.62,734.59L592.13,735.88L589.46,740.67L590.65,745.94L595.37,748.54L600.45,746.75L603.00,741.65L601.18,736.95Z M598.70,721.29L593.29,721.19L589.61,724.80L589.40,730.13L592.86,733.89L598.31,734.08L602.32,730.49L602.49,725.11L598.70,721.29Z M599.26,720.55L594.32,717.20L588.71,718.85L586.32,723.33L587.56,728.14L591.86,730.91L597.04,730.01L600.09,725.74L599.26,720.55Z M231.63,725.04L236.39,727.22L241.04,725.61L243.40,721.29L242.36,716.27L238.49,713.47L233.45,714.04L229.68,719.06L231.63,725.04Z M278.50,669.35L275.96,664.26L271.25,662.85L266.75,664.81L264.85,668.89L266.56,674.01L271.49,676.81L276.77,674.75L278.50,669.35Z M273.70,661.84L277.15,656.30L274.61,650.72L269.06,648.96L264.56,651.67L263.52,657.42L267.43,662.34L273.70,661.84Z M286.32,651.21L282.06,646.58L277.06,646.91L273.43,651.18L273.98,656.99L278.10,659.86L283.72,659.35L286.58,655.78L286.32,651.21Z M551.47,643.32L554.75,637.73L552.32,632.34L546.41,630.74L541.78,634.32L541.40,640.64L545.80,644.37L551.47,643.32Z M272.16,631.17L274.22,626.90L273.04,622.33L268.59,619.35L263.35,620.46L260.46,625.23L261.90,630.67L266.91,633.22L272.16,631.17Z M276.36,620.88L273.08,626.61L275.74,631.73L281.41,633.52L285.57,630.96L286.71,626.21L284.47,621.23L276.36,620.88Z M541.53,614.35L545.67,612.42L546.85,603.96L542.88,600.72L537.82,601.06L534.32,604.72L534.09,609.50L536.94,613.27L541.53,614.35Z M542.47,614.13L547.70,607.39L546.22,603.08L541.37,600.39L536.09,602.10L533.73,607.19L536.36,612.85L542.47,614.13Z M529.29,580.86L535.24,582.47L539.67,578.97L539.72,573.33L534.95,568.82L529.43,569.95L526.83,574.95L529.29,580.86Z M528.53,538.12L526.85,533.56L522.54,531.21L517.70,532.25L514.78,536.24L515.25,541.17L518.95,544.57L525.45,543.90L528.53,538.12Z M522.97,528.71L523.45,534.88L527.77,537.75L533.52,536.90L536.17,532.90L535.29,528.19L530.61,524.19L525.87,524.91L522.97,528.71Z M516.07,290.95L518.64,296.88L524.23,298.05L529.05,294.98L529.94,290.18L527.27,286.09L521.83,284.34L517.68,286.54L516.07,290.95Z M163.13,810.72L154.79,808.72L151.22,812.77L151.17,818.20L155.44,821.56L162.39,820.59L164.56,815.60L163.13,810.72Z M211.80,766.06L208.34,768.85L207.75,774.22L210.18,778.41L214.91,779.47L219.09,776.40L219.28,768.38L211.80,766.06Z M587.12,725.22L590.38,730.30L596.09,730.94L600.38,726.72L600.09,720.98L595.35,717.45L589.17,719.16L587.12,725.22Z M275.78,599.89L282.59,600.35L285.66,595.84L284.28,590.30L276.66,588.30L273.14,590.94L272.08,596.58L275.78,599.89Z M281.30,579.90L282.15,585.47L286.03,588.10L292.00,586.52L294.92,582.43L293.93,577.50L289.66,574.85L283.82,575.82L281.30,579.90Z M289.42,566.19L286.99,573.53L290.40,578.15L294.30,578.60L298.16,575.61L298.77,569.30L293.04,564.76L289.42,566.19Z M341.09,568.61L345.52,574.00L351.57,573.06L354.73,567.20L351.76,561.94L345.93,560.53L341.79,563.54L341.09,568.61Z M250.37,558.59L246.10,564.00L247.32,569.03L255.90,571.13L258.85,567.44L259.04,561.96L255.55,558.57L250.37,558.59Z M259.26,558.42L249.96,557.86L247.26,562.05L248.74,566.82L254.39,570.57L258.60,569.17L260.85,563.04L259.26,558.42Z M250.92,558.31L249.67,563.15L252.57,567.51L257.75,568.96L261.06,567.14L262.62,562.02L260.56,557.27L255.00,555.09L250.92,558.31Z M257.21,543.46L252.94,546.90L252.47,552.86L256.40,556.31L262.85,555.93L265.59,551.55L264.86,545.76L257.21,543.46Z M265.74,538.45L263.12,544.26L265.65,548.60L270.59,549.54L276.17,546.42L276.96,541.93L274.40,538.16L269.46,536.59L265.74,538.45Z M350.47,520.61L342.93,526.29L343.15,531.09L350.01,534.45L354.37,532.31L356.07,527.39L354.71,522.81L350.47,520.61Z M363.38,516.03L357.05,516.16L353.91,522.33L355.13,527.12L360.30,529.30L365.22,526.82L367.23,519.76L363.38,516.03Z M347.71,526.10L353.03,528.16L356.81,526.44L359.16,522.03L357.97,517.94L352.51,515.24L347.34,516.53L345.18,521.40L347.71,526.10Z M354.10,513.27L349.40,521.06L351.66,525.11L357.84,526.14L361.49,524.30L363.23,518.81L361.98,514.72L358.32,512.50L354.10,513.27Z M340.07,511.90L335.84,515.11L334.67,521.44L337.94,525.00L342.78,525.02L347.73,520.37L347.61,514.83L344.40,511.92L340.07,511.90Z M373.45,510.03L371.13,517.31L374.05,521.44L381.95,520.42L383.93,513.45L381.17,509.43L373.45,510.03Z M411.84,518.32L416.25,520.38L421.14,518.57L423.66,514.49L422.19,509.23L417.86,506.58L412.05,508.72L409.75,513.47L411.84,518.32Z M383.45,517.84L389.04,518.70L393.22,514.78L393.54,509.39L389.57,505.73L385.00,505.48L381.34,508.36L380.15,513.60L383.45,517.84Z M453.32,514.86L456.72,518.20L460.92,518.53L465.12,515.38L466.38,510.05L463.14,505.64L457.68,505.24L452.91,509.45L453.32,514.86Z M461.45,516.41L465.93,512.07L465.54,507.35L461.95,504.27L457.22,504.62L452.56,508.95L452.83,513.64L456.32,516.80L461.45,516.41Z M450.85,500.95L453.64,506.00L458.33,507.13L463.68,502.69L463.84,497.97L460.76,494.32L455.90,493.31L451.77,496.07L450.85,500.95Z M463.18,422.99L456.24,424.76L454.74,428.02L459.35,434.78L464.84,434.08L468.34,430.35L467.49,424.79L463.18,422.99Z M123.51,783.76L119.46,779.87L114.06,780.17L110.48,784.46L111.33,790.41L116.53,793.43L121.17,792.21L123.85,788.40L123.51,783.76Z M110.67,780.55L108.03,786.38L110.80,791.42L116.90,792.37L121.85,787.03L120.62,781.37L115.83,778.76L110.67,780.55Z M123.82,775.66L118.60,773.61L113.59,776.05L111.97,781.38L114.74,786.23L120.11,787.50L124.72,784.46L125.85,779.88L123.82,775.66Z M906.63,833.60L905.20,827.64L899.91,825.09L894.71,827.48L893.17,832.98L895.49,837.43L899.83,839.09L904.23,837.58L906.63,833.60Z M896.67,825.11L892.59,829.18L893.37,835.20L897.92,838.50L903.38,837.12L905.81,832.04L904.47,827.26L896.67,825.11Z" fill="currentColor" fill-rule="evenodd"/></svg>
