<svg xmlns="http://www.w3.org/2000/svg" viewBox="0 0 1000 1000" role="img" aria-label="Map of Jordan"><path d="M244.92,239.80L279.12,219.31L299.72,225.96L309.47,236.64L317.36,237.09L327.60,263.45L345.77,261.53L380.19,289.85L448.64,302.53L770.40,100.00L816.61,267.41L803.70,271.55L811.97,299.60L814.84,303.40L845.81,294.91L855.00,315.64L801.29,363.50L473.65,459.79L640.72,649.60L586.14,681.73L557.14,746.07L435.92,773.05L394.77,841.72L328.12,898.07L319.46,900.00L145.00,869.06L152.91,837.25L146.71,824.19L167.37,738.52L177.02,721.43L173.74,698.22L179.78,675.89L176.16,662.73L224.96,533.88L217.97,504.43L227.31,477.04L231.77,431.07L244.73,407.31L238.75,351.35L246.88,316.96L242.40,284.06L248.10,268.39L243.52,263.16L248.10,255.21L244.92,239.80Z" fill="currentColor" fill-rule="evenodd"/></svg>
