<svg xmlns="http://www.w3.org/2000/svg" viewBox="0 0 1000 1000" role="img" aria-label="Map of Kazakhstan"><path d="M900.00,468.51L890.91,467.92L887.97,472.35L888.80,479.34L885.14,484.84L868.56,489.78L864.58,502.62L867.78,521.51L864.25,528.04L858.91,528.34L849.39,534.98L847.90,530.03L833.05,530.32L815.73,523.53L801.44,572.50L808.11,575.94L806.30,584.49L800.53,581.32L794.75,583.88L789.17,577.92L773.28,584.41L758.58,587.17L753.78,590.93L756.39,594.15L761.35,593.50L766.20,596.07L763.53,598.27L763.19,613.83L772.10,642.29L763.77,645.83L767.30,650.22L761.01,652.78L759.30,657.70L761.43,669.94L754.95,663.51L745.31,662.19L739.87,652.78L704.22,649.66L696.95,647.00L686.32,650.01L674.24,648.53L670.78,652.36L662.12,651.06L642.54,639.00L643.23,640.73L638.36,640.31L630.64,645.73L627.54,657.57L629.35,664.14L596.89,651.52L585.09,654.07L580.34,659.44L581.54,662.17L577.40,666.98L579.26,668.67L575.08,670.16L572.65,675.14L567.71,674.12L558.98,684.35L553.34,685.65L548.99,691.31L541.82,694.27L541.72,699.10L532.71,707.75L533.55,716.66L530.57,717.37L521.35,710.75L524.10,704.35L520.30,699.35L496.71,700.59L492.23,676.13L482.52,675.86L484.34,646.95L478.34,650.26L472.89,637.96L461.26,625.61L451.54,630.65L427.67,628.29L404.52,632.59L387.59,612.46L385.13,606.18L336.53,571.80L286.03,588.25L286.07,695.80L275.73,697.05L265.09,677.93L249.72,666.06L227.32,672.23L216.72,683.29L216.02,673.23L221.39,660.17L219.19,654.21L222.06,658.80L222.57,655.41L211.46,649.97L206.43,651.28L201.31,641.06L193.96,642.14L194.73,633.12L185.84,616.64L185.57,611.84L174.42,607.53L173.38,600.77L175.07,598.00L186.07,598.98L191.37,603.19L195.74,600.99L199.54,602.41L187.83,592.10L187.77,588.73L193.91,587.39L193.35,583.37L196.70,576.69L199.21,578.31L203.41,574.72L206.98,577.36L218.32,576.14L225.97,578.96L232.85,578.07L222.48,571.89L230.05,555.49L230.80,548.83L229.33,543.83L227.67,544.06L231.80,538.49L228.92,532.71L217.08,529.52L215.14,532.67L211.85,532.96L212.94,535.12L210.35,535.04L208.52,531.40L207.00,533.07L203.13,531.70L201.88,527.89L200.16,529.93L192.73,526.02L185.56,528.48L183.48,532.30L183.71,530.30L181.04,531.44L180.12,534.56L177.40,532.58L165.40,543.01L161.58,541.77L160.73,544.23L158.58,541.43L159.04,544.21L155.37,541.63L156.67,547.14L153.77,545.05L153.84,549.23L138.72,539.49L140.71,536.53L144.77,538.84L149.51,536.32L133.22,508.69L118.29,505.09L117.26,509.55L112.64,505.90L111.08,500.68L113.98,498.18L112.16,492.51L100.00,488.26L105.40,473.52L110.63,468.17L110.78,465.11L105.81,461.27L108.70,445.79L116.65,439.59L116.21,433.10L121.96,428.48L129.67,436.41L134.49,445.69L138.22,447.30L145.17,443.68L146.92,439.68L140.93,423.09L146.07,424.28L156.63,417.52L157.94,409.16L164.65,409.46L175.35,403.57L180.37,393.85L184.46,394.97L184.00,390.22L195.85,394.02L193.20,396.76L194.52,398.64L200.01,396.79L202.14,399.16L205.59,392.75L209.95,393.17L214.18,389.78L218.84,399.00L235.71,398.28L239.69,401.08L240.93,406.02L246.06,407.02L252.72,415.25L256.69,416.74L254.76,423.59L257.10,426.41L260.57,424.09L259.82,415.80L257.17,414.55L259.82,411.64L279.83,426.21L288.04,420.51L289.59,415.22L292.67,415.85L295.86,410.31L299.97,413.36L300.52,410.33L309.10,409.53L315.24,416.59L320.23,415.12L321.14,408.95L328.95,410.84L331.70,408.06L337.32,411.77L336.44,415.58L338.68,418.60L343.80,421.87L353.82,423.25L356.29,424.75L354.10,426.00L355.49,427.83L361.23,425.25L365.25,416.73L370.72,421.68L378.91,422.62L391.71,418.82L394.88,406.42L397.42,404.89L393.70,399.99L385.00,398.32L383.20,394.56L372.20,393.06L373.69,388.87L366.03,387.31L364.56,384.57L385.20,373.37L378.01,363.50L385.57,356.18L383.92,354.74L393.20,353.27L403.21,355.80L405.85,354.12L405.00,350.25L387.61,345.14L389.03,339.17L392.50,341.14L395.30,339.09L394.27,336.66L389.92,338.02L382.08,335.37L388.32,330.56L384.35,326.34L388.55,327.33L388.21,324.09L391.04,322.77L395.82,326.16L399.92,324.60L404.08,326.61L404.06,324.11L412.09,323.84L414.30,328.38L415.39,323.05L425.25,322.12L426.66,319.35L437.47,317.29L441.17,318.94L443.27,315.26L454.51,313.34L457.29,314.85L461.02,312.83L466.37,315.54L466.65,309.51L471.56,308.33L471.58,306.25L477.34,307.03L481.04,304.06L481.91,306.72L515.62,299.21L519.22,296.21L524.78,296.63L527.56,293.22L524.99,290.35L533.38,289.62L535.25,284.79L540.53,287.19L540.00,282.63L544.76,285.81L547.66,284.07L554.31,285.57L564.88,291.48L569.34,287.05L576.76,286.74L579.83,293.06L580.40,301.96L585.47,305.25L583.05,308.12L584.02,315.31L579.71,315.69L583.44,321.64L586.56,318.74L592.96,321.44L595.22,317.37L603.35,320.64L600.71,313.56L609.33,320.65L606.89,321.90L607.55,327.31L613.58,325.86L612.72,323.38L609.72,323.13L612.09,320.67L618.32,321.06L620.68,325.24L626.51,326.43L629.60,325.91L631.24,322.54L633.96,322.93L632.83,328.31L627.91,328.56L623.95,334.51L627.50,341.31L632.24,336.07L637.16,335.19L643.41,336.49L646.65,340.37L647.63,334.18L651.11,333.97L654.16,329.57L659.17,330.25L667.13,325.02L667.03,321.99L695.76,311.04L691.23,320.70L685.59,320.11L687.91,324.85L714.78,345.93L756.97,419.28L756.86,417.15L759.35,417.81L765.16,413.68L764.82,406.96L769.93,403.61L779.12,406.99L777.15,413.75L783.99,413.65L785.16,420.35L790.72,418.75L805.05,420.83L809.96,415.36L823.81,412.67L833.93,418.88L838.73,426.76L839.80,434.12L854.23,439.77L853.60,444.45L858.87,453.56L866.53,452.94L877.54,457.44L886.02,447.72L888.73,448.08L889.27,450.66L885.81,454.21L890.22,456.10L891.95,461.09L898.98,465.00L900.00,468.51Z M431.11,571.54L439.93,567.15L442.48,558.23L437.50,549.45L428.81,547.64L421.64,552.72L419.75,560.70L423.85,568.79L431.11,571.54Z M175.34,594.26L179.19,592.43L180.98,586.36L177.78,580.79L174.39,580.59L170.37,582.70L168.94,588.76L170.75,593.13L175.34,594.26Z M172.99,589.03L174.52,585.37L172.97,582.93L166.86,585.03L165.77,591.28L170.35,596.32L175.78,593.42L172.99,589.03Z M188.97,590.26L180.44,583.74L176.55,586.46L176.31,591.20L180.05,597.01L183.54,597.60L188.53,594.80L188.97,590.26Z M217.29,568.82L213.85,573.93L215.39,577.77L220.60,581.54L224.14,580.85L226.66,578.15L225.39,570.94L221.89,567.77L217.29,568.82Z M168.07,545.52L162.17,543.71L159.14,546.22L158.96,550.15L163.16,557.10L166.84,557.23L170.27,553.20L168.07,545.52Z" fill="currentColor" fill-rule="evenodd"/></svg>
