<svg xmlns="http://www.w3.org/2000/svg" viewBox="0 0 1000 1000" role="img" aria-label="Map of Kenya"><path d="M319.62,136.36L322.83,128.78L326.05,129.01L326.28,133.82L337.79,133.87L339.40,143.04L347.72,148.35L413.87,149.29L428.01,154.37L434.53,161.43L507.21,207.45L517.52,216.83L545.87,217.74L551.07,213.69L554.21,217.09L563.54,218.33L563.60,216.06L568.62,221.14L582.90,224.99L597.13,223.92L609.61,228.69L617.56,226.53L617.19,228.91L627.47,229.21L633.09,234.08L635.73,233.94L638.91,226.29L654.51,210.81L661.45,195.85L687.71,181.99L704.08,177.09L736.87,161.43L769.78,189.63L809.33,187.43L814.01,185.16L825.23,189.08L829.28,186.79L784.59,250.74L753.49,282.63L754.67,586.30L799.43,644.15L800.44,654.33L779.64,676.76L774.39,672.96L771.65,678.54L765.34,677.51L757.41,682.85L754.65,679.76L756.85,671.26L753.93,673.50L751.84,685.38L744.89,676.34L749.09,695.18L754.63,699.31L751.80,704.85L749.97,705.21L752.40,702.93L747.59,698.16L745.06,698.42L737.71,702.36L741.26,712.14L727.55,723.80L714.39,722.91L706.06,725.53L693.06,734.49L688.36,742.20L687.34,756.34L689.65,760.78L693.13,760.27L687.44,767.28L683.76,776.89L684.06,783.79L673.04,792.52L673.27,787.07L671.14,788.23L671.07,794.66L662.89,812.56L655.88,808.45L657.47,814.07L662.41,813.94L662.98,819.03L656.33,837.34L651.86,839.75L650.21,835.71L647.88,837.34L652.95,841.59L649.17,848.16L645.96,841.76L641.45,841.67L643.91,845.57L637.72,847.45L638.29,850.86L645.10,849.90L646.40,853.40L636.03,879.64L633.23,880.27L628.67,892.13L628.11,887.02L623.78,891.23L624.18,896.00L616.29,893.20L607.24,900.00L490.25,815.77L485.09,805.20L476.08,804.07L474.94,795.79L484.41,787.67L479.86,765.55L180.77,600.04L179.50,597.16L171.60,597.16L170.83,569.15L175.66,527.26L170.72,505.49L186.52,485.94L185.73,479.74L191.82,464.80L200.27,460.56L204.09,451.97L211.47,447.31L219.63,425.34L225.74,424.44L227.33,419.56L235.85,414.90L245.25,413.02L243.69,400.11L259.65,378.22L260.23,360.41L262.44,356.58L258.77,351.55L259.22,341.33L250.83,321.09L251.01,315.82L255.61,310.39L251.65,301.00L246.96,300.45L239.66,279.44L235.95,277.13L232.28,278.84L227.68,273.19L223.49,257.56L215.26,252.32L210.92,228.02L215.30,223.95L215.73,212.29L207.27,206.78L202.48,208.83L199.35,202.74L192.06,203.40L194.25,201.71L191.77,199.52L196.39,195.25L186.48,195.02L188.53,189.58L184.53,184.27L185.20,177.66L181.85,169.42L177.61,166.81L210.91,133.80L234.40,121.87L282.15,104.01L283.61,106.74L295.82,100.00L297.64,102.19L294.55,108.57L308.94,110.39L304.93,120.59L312.22,133.82L319.62,136.36Z M760.79,683.44L768.15,684.26L769.14,688.59L766.51,687.07L764.98,690.40L755.98,691.21L755.82,695.60L752.82,693.69L753.81,689.23L760.79,683.44Z" fill="currentColor" fill-rule="evenodd"/></svg>
