<svg xmlns="http://www.w3.org/2000/svg" viewBox="0 0 1000 1000" role="img" aria-label="Map of Kiribati"><path d="M896.97,861.62L900.00,872.91L883.21,874.19L803.86,836.79L800.83,825.80L814.98,820.89L810.99,836.14L838.00,843.05L826.41,832.60L833.33,827.50L842.11,838.10L840.12,820.56L846.39,818.89L849.53,827.24L856.24,815.93L817.92,796.79L839.17,797.83L867.39,809.60L858.06,837.53L896.97,861.62Z M354.31,322.19L385.80,350.42L371.22,359.15L358.29,350.51L374.68,353.85L376.57,345.93L360.26,328.23L350.10,333.31L356.72,345.35L346.07,339.91L354.31,322.19Z M99.82,134.27L109.52,129.67L109.42,126.57L98.55,121.83L96.20,123.94L97.41,131.64L99.82,134.27Z" fill="currentColor" fill-rule="evenodd"/></svg>
