<svg xmlns="http://www.w3.org/2000/svg" viewBox="0 0 1000 1000" role="img" aria-label="Map of Korea, North"><path d="M603.29,757.68L593.70,763.66L593.70,778.67L587.36,791.36L566.12,805.69L538.78,807.24L533.41,802.53L501.19,806.95L490.34,803.55L457.57,808.45L444.01,818.50L420.00,854.49L409.01,860.69L409.20,877.17L400.72,885.18L378.36,867.58L353.29,875.26L349.77,878.48L350.97,891.32L345.50,890.20L340.07,881.00L339.26,870.75L334.34,873.19L328.25,864.51L331.30,877.92L323.92,874.61L310.61,858.60L309.94,852.40L286.80,846.50L286.75,852.50L295.77,854.70L296.10,858.46L300.79,858.46L298.45,862.55L303.13,862.55L296.87,866.55L290.65,862.55L292.19,877.92L288.20,880.39L289.45,886.54L279.02,885.46L278.87,881.92L272.81,891.66L262.59,893.88L258.28,900.00L260.14,887.21L269.41,885.18L263.12,881.92L278.48,878.67L278.87,874.84L273.32,872.70L276.87,867.20L267.07,864.51L262.40,867.58L269.41,874.84L258.49,871.68L261.68,874.84L253.80,879.97L245.93,877.92L253.80,869.63L248.27,861.43L238.74,871.19L220.05,865.44L220.09,860.41L216.20,862.55L225.63,854.55L238.60,855.85L230.74,846.14L241.60,843.93L246.71,848.32L248.83,839.64L234.62,836.66L220.09,841.97L205.42,831.59L194.96,836.66L180.50,832.48L202.07,817.29L209.50,822.93L217.74,817.29L203.94,812.69L204.79,799.55L220.41,776.64L216.71,762.54L233.18,764.29L232.65,751.38L236.45,756.57L239.10,750.83L252.96,752.81L271.44,745.24L278.09,753.43L280.88,749.42L293.76,756.68L273.32,742.17L269.74,734.74L265.52,738.06L266.49,741.94L252.96,741.14L253.80,745.24L250.29,745.83L246.38,742.07L249.05,738.06L246.10,732.36L240.05,740.53L234.23,730.79L241.26,703.41L249.51,689.23L256.85,688.80L251.02,687.89L251.40,678.47L257.82,675.98L257.83,669.39L265.52,669.25L263.54,664.45L269.41,654.72L264.81,646.62L271.05,643.55L259.36,641.50L262.40,635.26L257.71,636.28L270.20,615.62L251.24,623.14L242.59,615.35L244.29,612.63L231.92,616.43L229.69,610.90L207.29,602.00L205.00,595.69L192.32,590.04L189.51,583.87L189.26,604.66L177.09,612.74L174.04,607.01L178.18,596.67L171.07,592.77L168.70,579.17L151.97,577.63L140.97,564.41L146.50,560.31L150.60,547.14L161.33,547.93L151.11,545.88L146.50,536.56L169.48,513.44L185.67,504.76L188.95,495.75L206.59,478.75L211.14,482.96L223.26,482.13L221.41,471.14L252.08,454.01L265.79,456.53L272.18,444.36L281.03,442.40L283.92,433.56L296.60,435.96L292.27,429.71L305.55,418.44L333.78,416.40L330.66,414.25L344.78,399.91L347.03,389.96L364.30,378.40L383.29,349.03L392.58,348.49L390.20,336.13L398.89,317.01L397.72,309.16L403.53,301.39L416.12,296.09L410.58,290.88L423.05,296.90L439.20,281.12L441.06,286.35L452.10,291.38L455.98,299.16L452.82,299.62L453.97,304.79L467.77,313.51L459.19,320.67L462.62,322.98L470.90,319.39L479.41,321.62L477.99,325.54L482.11,327.08L509.30,327.59L520.21,336.80L544.28,336.59L548.01,332.15L561.73,330.66L563.30,339.29L578.27,344.83L596.21,313.77L590.25,302.26L579.76,294.51L571.97,275.02L567.03,271.68L565.52,252.22L591.52,246.35L619.00,251.86L644.00,244.14L669.05,245.97L671.77,238.00L700.05,218.28L696.57,214.81L701.97,206.61L698.07,203.54L702.92,202.69L702.90,195.12L716.17,188.18L714.80,184.45L725.54,185.10L737.10,195.84L743.56,184.08L756.32,184.91L763.15,160.33L760.70,156.92L765.95,149.74L762.49,141.06L773.29,106.98L779.62,104.84L776.50,101.86L782.71,100.00L791.18,107.18L804.14,103.98L801.54,113.04L817.57,115.93L820.28,144.97L839.15,161.36L841.99,168.87L843.74,161.21L849.30,161.36L856.06,184.41L864.09,191.14L866.02,203.19L870.28,207.01L858.57,211.86L858.27,206.55L848.58,200.90L836.83,202.59L834.17,207.59L836.08,214.90L832.32,212.92L825.35,223.80L823.88,215.72L813.37,225.24L813.03,236.08L808.47,240.35L798.60,239.51L794.12,251.95L791.95,249.12L788.21,253.88L790.55,256.94L786.21,266.47L778.44,265.64L773.37,286.54L764.49,287.37L754.89,303.82L750.09,318.87L751.30,331.59L768.08,344.88L757.31,382.90L759.18,404.49L763.36,409.63L757.84,426.11L741.28,425.34L716.12,439.49L710.58,450.25L702.60,445.44L695.64,465.96L684.77,480.41L673.14,482.31L659.96,495.52L634.34,504.32L632.05,510.59L637.92,515.26L633.47,524.26L603.27,536.77L599.04,547.07L591.69,539.74L588.36,546.90L579.30,548.86L562.35,544.53L554.71,555.09L550.89,553.72L547.23,567.39L536.62,568.50L538.01,571.46L526.78,574.08L523.06,580.29L518.54,576.67L504.82,593.98L505.79,603.89L512.92,612.06L506.73,624.74L511.49,653.88L506.89,653.88L509.22,645.59L503.84,636.30L490.49,644.49L501.35,649.18L492.04,650.04L489.76,665.25L492.21,671.06L498.93,676.42L503.40,672.08L508.02,679.40L534.04,683.77L563.24,722.60L571.99,724.76L585.60,742.17L593.90,738.06L602.68,749.53L603.29,757.68Z M210.17,610.59L210.95,618.73L197.80,627.00L204.88,609.44L210.17,610.59Z M201.13,767.75L194.15,774.00L207.83,777.60L201.13,767.75Z M255.80,885.60L249.92,888.36L243.36,896.48L253.04,892.64L255.80,885.60Z M244.40,880.54L243.92,876.79L238.83,875.20L233.11,877.60L230.78,882.73L235.73,885.42L241.32,883.99L244.40,880.54Z M219.98,874.42L214.17,878.30L216.19,884.04L224.46,883.08L227.44,880.50L227.23,876.56L219.98,874.42Z M180.21,629.74L186.20,630.31L189.87,623.05L189.13,618.90L185.45,616.85L178.37,621.81L177.18,626.27L180.21,629.74Z M184.42,618.95L180.39,614.15L170.67,621.29L182.59,621.38L184.42,618.95Z M179.30,639.25L177.63,628.81L174.52,627.56L169.05,630.02L166.80,634.29L169.04,638.56L175.96,641.46L179.30,639.25Z M129.24,587.33L136.68,581.38L136.08,578.20L131.58,573.48L127.87,574.15L125.02,581.75L125.91,585.46L129.24,587.33Z" fill="currentColor" fill-rule="evenodd"/></svg>
