<svg xmlns="http://www.w3.org/2000/svg" viewBox="0 0 1000 1000" role="img" aria-label="Map of Korea, South"><path d="M514.00,130.27L543.43,195.59L591.18,259.10L592.18,268.08L620.62,313.16L625.91,333.88L631.56,341.65L629.63,349.15L636.39,388.31L630.73,403.84L632.75,432.28L626.75,443.90L626.28,460.36L631.60,474.60L626.12,482.21L634.12,488.78L645.32,476.63L648.90,485.56L643.20,496.17L632.98,537.45L635.66,542.42L634.26,554.19L629.65,559.80L625.31,551.53L627.33,559.30L623.57,562.56L623.87,575.95L613.80,580.96L605.54,602.94L597.36,603.74L595.24,611.55L591.13,607.66L586.50,615.95L583.76,613.81L584.13,617.87L579.50,617.26L579.45,605.47L575.08,612.97L572.82,607.60L571.09,613.02L561.08,612.82L559.93,608.99L557.82,613.31L551.03,611.03L550.57,604.57L548.77,608.33L541.92,604.61L540.17,594.98L537.50,599.78L545.69,615.77L526.49,610.63L526.84,613.91L516.68,617.45L514.72,622.28L527.60,617.15L527.97,624.68L520.08,626.48L521.51,639.02L526.09,639.02L521.77,645.50L511.34,641.47L510.70,631.30L507.08,636.66L498.46,632.59L496.58,639.02L479.87,633.44L481.38,612.89L473.84,619.48L474.48,625.25L468.64,627.01L465.54,621.43L461.72,631.39L445.52,629.55L442.74,625.48L436.44,636.83L428.65,631.43L426.85,635.89L435.82,649.76L448.97,644.69L445.20,661.52L435.79,660.74L432.26,665.25L434.08,676.18L425.26,670.16L427.87,658.70L420.89,639.14L416.77,645.99L403.68,648.10L410.33,651.28L402.87,656.87L406.99,657.29L408.17,665.00L418.94,679.81L401.92,680.56L402.87,684.86L411.84,686.72L399.54,695.81L401.28,699.75L388.03,685.88L383.14,690.44L377.11,686.72L386.91,673.61L384.65,682.07L390.59,680.85L389.91,668.96L393.69,664.30L398.07,671.56L402.87,665.25L399.96,659.40L395.46,662.09L390.74,655.94L385.41,666.17L378.40,666.63L364.50,676.93L362.72,686.72L356.63,692.81L356.83,698.45L351.89,699.08L352.10,703.47L342.38,698.90L342.03,682.92L338.85,680.47L337.54,689.07L334.13,690.23L337.04,695.09L331.22,699.08L333.22,701.39L322.93,706.47L319.58,719.45L310.53,720.30L311.21,713.87L305.93,712.86L310.13,704.01L304.42,696.02L307.11,691.08L312.79,690.44L309.70,687.65L312.56,683.68L296.14,687.65L291.19,680.73L285.59,680.12L288.62,677.42L282.92,672.84L285.04,658.16L292.37,665.25L293.82,677.42L304.28,680.72L298.93,671.45L295.62,673.75L294.79,663.48L302.43,664.20L302.99,668.96L312.13,675.47L310.29,671.77L321.83,674.55L309.11,662.49L293.18,658.31L303.79,654.27L312.04,658.73L313.09,651.96L326.43,650.28L316.55,648.41L315.65,637.56L309.65,653.79L306.77,649.50L294.23,652.64L299.91,639.02L296.90,630.74L301.16,626.66L293.91,628.42L293.10,634.02L287.79,632.59L286.28,627.86L291.54,627.86L294.29,621.83L288.39,612.77L284.83,616.91L281.06,607.31L284.91,605.13L287.79,608.33L290.86,602.74L291.08,610.99L298.40,615.77L299.91,621.43L302.93,610.46L293.96,600.48L293.12,591.49L287.10,592.34L294.64,589.71L292.37,588.70L298.40,573.73L303.60,577.06L299.16,570.44L307.37,552.55L323.95,546.08L329.43,551.31L326.97,543.91L309.64,545.52L304.18,542.10L304.60,536.97L318.91,526.85L326.08,516.07L339.31,520.54L340.30,516.28L330.63,508.52L345.43,502.41L320.58,502.82L320.19,497.25L311.02,495.99L310.55,491.88L335.16,489.29L349.09,479.42L329.43,487.88L318.06,470.04L311.40,466.95L307.46,470.04L311.64,464.17L319.58,464.45L312.04,457.94L317.30,447.72L309.70,443.90L317.30,439.77L310.46,436.96L308.05,430.62L321.15,423.35L307.92,426.77L306.35,420.14L309.72,415.81L304.91,414.26L303.51,406.71L310.38,402.55L306.40,399.35L309.07,396.52L305.37,394.14L308.27,389.78L305.93,386.06L301.34,390.24L299.82,405.21L293.52,402.15L294.71,392.13L290.86,386.98L286.28,392.57L290.86,404.75L285.59,408.47L283.26,389.78L272.62,396.13L270.33,392.20L276.55,388.84L270.46,384.20L267.66,391.96L267.15,384.13L271.28,376.67L276.55,381.40L274.22,377.69L279.49,376.67L274.94,375.69L274.22,367.15L278.82,364.66L278.39,368.91L283.38,368.67L287.10,356.12L288.70,367.52L284.21,378.35L292.37,380.39L289.28,372.46L297.65,371.09L294.64,368.38L299.27,362.19L292.05,357.71L294.55,355.02L290.05,353.41L291.97,351.61L302.16,351.14L300.72,356.79L305.81,360.35L306.41,373.20L310.30,358.70L317.30,365.50L307.46,352.01L316.14,354.67L308.27,344.11L322.10,352.14L322.65,363.65L328.22,352.33L340.88,357.63L339.31,366.43L344.62,363.84L346.90,385.13L348.28,374.89L352.86,375.83L347.94,369.38L362.21,362.70L362.72,356.12L368.00,352.48L361.40,354.31L359.95,360.87L353.73,361.19L343.99,351.25L353.54,349.68L351.28,338.53L346.71,346.52L336.35,344.95L337.37,335.57L348.30,331.13L348.41,327.20L344.59,329.98L341.55,326.35L328.67,333.88L331.02,329.14L326.43,327.69L332.35,322.60L325.67,316.96L337.72,316.96L339.31,321.61L343.41,314.22L349.09,315.10L329.13,306.30L332.15,299.30L320.89,299.86L323.48,295.22L318.67,287.25L324.09,282.88L319.34,282.55L312.04,246.93L326.05,248.33L326.00,259.98L336.35,264.69L327.92,258.10L330.25,238.56L326.67,238.81L326.48,223.84L337.09,218.21L360.27,185.52L373.35,176.39L404.98,171.94L415.45,175.03L446.55,171.01L451.74,175.30L478.13,173.88L498.62,160.87L504.75,149.35L504.75,135.71L514.00,130.27Z M294.23,407.17L300.69,432.28L293.15,431.81L294.68,427.07L290.82,428.13L293.15,423.35L289.22,423.68L287.75,408.59L290.66,405.55L294.23,407.17Z M280.59,240.24L277.34,248.72L290.79,246.55L280.59,240.24Z M357.41,831.51L345.77,854.38L319.98,863.86L289.80,864.20L282.80,869.73L270.79,855.67L287.28,833.36L306.52,825.69L340.45,819.83L357.41,831.51Z M375.56,697.04L389.21,694.94L390.06,699.69L382.01,703.47L376.32,700.76L375.56,697.04Z M294.95,692.47L291.17,704.66L287.13,702.62L276.18,711.50L268.98,712.01L269.90,707.45L264.40,705.51L278.01,688.50L282.62,689.25L280.34,682.07L291.57,685.88L294.95,692.47Z M449.68,667.11L453.56,674.44L451.42,681.39L444.57,675.19L447.52,663.26L451.28,663.07L449.68,667.11Z M250.97,661.29L241.75,667.27L250.90,672.97L255.34,667.12L253.54,662.08L250.97,661.29Z M253.76,653.30L243.35,653.85L240.52,660.26L245.74,662.42L253.76,653.30Z M251.66,644.16L262.83,642.68L263.95,635.47L250.84,641.68L251.66,644.16Z M481.41,649.33L479.90,665.25L471.00,665.01L466.85,655.87L461.82,663.27L458.48,660.80L454.89,641.98L462.92,632.30L466.91,635.85L463.31,641.98L464.89,646.55L469.52,650.43L481.41,649.33Z M556.34,641.98L553.25,645.62L555.58,652.64L549.48,650.28L546.26,657.24L550.30,660.08L538.18,664.30L541.95,661.52L535.57,653.86L540.44,646.55L532.09,650.28L527.63,641.98L537.05,636.38L544.97,639.02L541.11,630.27L550.30,626.00L551.30,619.64L554.77,632.92L552.56,640.97L556.34,641.98Z M265.74,617.62L269.51,613.36L267.95,607.95L271.42,603.89L259.94,610.00L258.58,616.14L265.74,617.62Z M309.82,278.80L317.35,284.79L301.94,294.29L292.24,288.08L309.82,278.80Z M793.75,275.93L783.24,279.55L782.82,286.00L794.17,289.64L795.53,277.32L793.75,275.93Z M289.18,249.40L283.21,256.55L294.15,262.80L289.18,249.40Z M309.05,270.28L293.85,265.62L298.99,262.79L293.50,252.51L294.26,243.13L297.93,239.78L309.99,247.06L312.82,265.62L309.05,270.28Z M113.14,217.58L100.88,217.67L99.62,223.02L108.13,226.59L110.55,224.53L108.43,222.43L113.07,222.61L113.14,217.58Z M390.93,753.54L394.79,761.73L400.69,762.68L402.44,760.44L395.18,749.20L392.79,749.41L390.93,753.54Z M424.03,697.19L419.68,693.67L413.43,693.60L410.77,695.81L417.74,706.60L424.12,700.69L424.03,697.19Z M444.66,682.89L438.75,687.31L448.84,696.56L451.07,693.09L448.52,684.52L444.66,682.89Z M264.70,678.21L258.67,675.31L260.73,681.09L256.41,688.61L264.44,685.24L264.70,678.21Z M262.09,679.52L258.58,672.72L254.59,671.74L252.99,684.02L260.68,683.30L262.09,679.52Z M185.34,665.56L183.79,673.73L186.58,677.19L196.24,666.82L193.72,663.91L188.60,663.21L185.34,665.56Z M272.71,659.40L261.18,654.38L259.50,655.17L264.96,663.78L272.72,665.49L272.71,659.40Z M273.61,650.46L268.36,647.72L262.08,650.52L260.55,653.92L269.83,659.29L274.02,653.86L273.61,650.46Z M267.92,651.87L271.91,642.60L270.82,639.61L258.53,643.15L264.01,652.44L267.92,651.87Z M482.65,644.83L479.69,638.22L476.37,639.54L475.64,634.52L468.74,643.27L472.43,647.16L482.65,644.83Z M280.62,627.90L273.46,630.02L272.29,634.07L274.38,639.92L277.90,641.23L284.47,637.15L286.25,633.28L284.61,629.36L280.62,627.90Z M274.00,613.52L270.19,612.27L264.62,614.17L262.90,617.64L264.74,621.04L269.66,624.39L274.80,624.07L276.82,618.33L274.00,613.52Z M565.72,613.59L560.49,615.13L560.18,617.10L562.64,625.82L565.15,627.56L567.35,625.45L568.43,616.26L565.72,613.59Z M283.98,549.33L290.58,542.31L287.93,536.37L279.95,539.09L277.72,542.49L278.63,548.98L283.98,549.33Z M268.21,325.45L273.71,320.12L264.09,312.04L261.51,315.89L263.37,323.60L268.21,325.45Z M305.74,309.75L298.12,313.69L297.88,321.34L300.39,322.95L306.92,323.08L308.59,320.77L309.99,312.02L305.74,309.75Z M311.85,312.74L311.45,324.58L312.32,325.68L321.79,320.00L313.65,311.98L311.85,312.74Z M212.47,262.36L215.99,267.67L219.81,268.16L226.03,259.20L223.93,255.62L216.94,254.89L212.87,257.53L212.47,262.36Z M109.21,233.06L103.38,237.87L106.12,245.99L112.51,244.83L114.90,241.48L114.29,233.79L109.21,233.06Z M162.10,753.22L157.52,744.60L151.68,743.41L148.77,752.59L159.92,756.23L162.10,753.22Z M310.81,735.46L308.35,742.41L321.68,740.19L321.14,738.56L310.81,735.46Z M322.54,733.39L322.06,743.81L326.98,745.75L325.86,733.18L322.54,733.39Z M354.37,729.99L346.99,728.99L344.29,740.91L356.45,741.38L356.95,733.14L354.37,729.99Z M321.64,727.87L313.32,725.83L310.97,735.59L318.26,739.33L323.19,732.08L321.64,727.87Z M263.30,715.17L255.14,714.56L252.30,721.25L261.74,725.49L265.69,720.00L263.30,715.17Z M351.59,713.89L345.77,719.05L336.61,714.59L351.59,713.89Z M374.30,712.17L366.06,706.95L360.96,712.06L366.68,715.50L367.39,719.21L374.36,714.57L374.30,712.17Z M331.36,706.85L337.77,720.98L329.04,719.36L324.17,714.45L324.27,707.85L331.36,706.85Z M336.03,708.63L339.19,713.11L349.20,707.16L343.91,699.26L336.03,708.63Z M507.12,670.19L498.99,668.54L495.85,672.55L496.85,678.38L501.46,679.91L507.90,675.95L509.32,674.03L507.12,670.19Z M509.63,648.76L519.67,657.27L521.14,657.29L522.99,648.02L510.45,646.73L509.63,648.76Z M497.83,643.26L492.46,649.30L500.37,655.76L506.45,649.64L503.35,644.01L497.83,643.26Z M288.11,640.96L292.92,646.29L290.75,648.31L286.79,643.76L278.47,643.95L285.30,640.39L285.82,635.36L291.10,638.27L288.11,640.96Z M282.94,620.03L278.74,613.68L279.89,609.67L269.62,610.28L271.58,615.97L281.10,621.93L282.94,620.03Z M896.08,324.39L901.92,325.25L906.19,321.46L906.42,316.04L902.85,312.23L897.64,312.03L893.63,315.43L893.11,320.38L896.08,324.39Z" fill="currentColor" fill-rule="evenodd"/></svg>
