<svg xmlns="http://www.w3.org/2000/svg" viewBox="0 0 1000 1000" role="img" aria-label="Map of Kosovo"><path d="M153.73,503.82L169.92,443.87L137.04,404.23L141.16,388.44L158.46,376.03L202.92,393.47L220.65,357.24L324.56,329.76L333.92,317.16L314.04,292.26L317.56,276.49L374.43,244.31L402.89,200.16L377.61,136.71L456.67,100.00L485.86,125.78L475.00,152.21L580.50,197.19L603.46,252.47L629.17,250.63L650.25,312.26L711.67,334.56L699.30,392.55L776.78,406.05L803.43,433.10L848.80,427.50L862.96,447.03L799.10,558.80L798.45,594.09L756.35,619.29L776.29,673.21L694.37,685.86L664.54,728.07L666.34,760.53L640.80,757.18L582.94,701.59L452.72,765.81L435.34,815.73L438.43,864.60L409.76,900.00L362.29,883.55L375.64,834.29L334.73,692.98L265.20,632.85L225.50,631.70L190.13,533.73L153.73,503.82Z" fill="currentColor" fill-rule="evenodd"/></svg>
