<svg xmlns="http://www.w3.org/2000/svg" viewBox="0 0 1000 1000" role="img" aria-label="Map of Kuwait"><path d="M695.92,172.57L715.96,252.88L751.01,293.31L792.22,390.86L703.30,374.26L593.50,476.94L649.32,465.41L640.53,489.53L657.99,496.54L711.81,462.39L728.43,481.16L760.02,483.54L757.96,528.06L784.52,644.16L812.92,691.95L835.46,703.47L834.36,729.95L856.22,768.40L883.49,776.39L865.92,826.05L880.61,819.55L900.00,874.36L578.10,877.73L541.70,830.42L528.35,763.26L479.57,655.11L100.00,606.27L235.14,437.86L357.75,168.08L447.64,125.22L580.64,122.27L695.92,172.57Z M836.15,425.05L881.57,447.37L885.09,465.41L831.15,445.04L836.15,425.05Z M866.29,309.81L814.22,362.85L785.85,348.47L737.20,266.02L765.50,247.38L757.83,220.52L784.62,228.01L800.93,205.73L779.79,201.01L768.69,178.68L797.26,177.64L862.83,270.79L866.29,309.81Z M763.79,156.18L730.90,183.69L722.34,179.13L740.84,157.87L763.79,156.18Z" fill="currentColor" fill-rule="evenodd"/></svg>
