<svg xmlns="http://www.w3.org/2000/svg" viewBox="0 0 1000 1000" role="img" aria-label="Map of Kyrgyzstan"><path d="M896.65,407.04L900.00,417.18L898.16,422.06L870.00,425.13L863.08,436.91L853.18,438.08L837.21,447.23L829.34,446.19L784.08,470.40L781.25,475.64L762.44,485.34L761.68,495.67L741.78,517.93L724.08,515.67L710.97,522.02L700.33,523.57L664.37,517.48L653.73,520.47L646.90,527.08L646.58,536.49L638.27,544.42L636.31,559.22L631.64,563.62L625.84,576.12L615.23,584.61L608.99,575.63L602.26,582.67L595.03,580.55L584.16,589.35L568.21,590.04L565.05,580.94L567.13,574.76L563.57,570.54L559.36,557.15L532.82,575.62L528.77,573.44L518.93,575.04L506.81,568.84L503.34,577.60L508.76,586.72L497.41,586.23L470.44,609.13L458.38,607.91L443.79,614.97L433.39,636.91L433.86,642.57L438.50,646.10L440.92,657.43L433.23,669.46L408.29,669.79L385.87,680.34L361.75,680.26L347.13,676.56L342.93,679.96L338.81,678.38L324.11,682.90L317.77,696.36L315.91,691.38L308.04,688.08L304.78,679.03L283.13,688.16L280.20,683.65L282.90,678.00L282.33,671.37L265.84,670.36L264.33,667.00L267.18,661.27L261.97,655.58L246.72,665.00L235.60,665.20L226.99,676.52L221.63,674.02L211.97,677.76L207.85,676.18L206.87,669.07L201.24,660.26L190.73,656.63L172.31,664.55L170.67,654.87L165.72,661.56L159.04,659.29L154.57,663.07L143.82,662.89L132.14,658.89L113.48,663.98L109.82,661.29L105.37,664.88L104.44,649.24L100.00,642.18L106.09,619.64L112.99,628.19L119.97,625.65L117.18,615.72L121.16,606.11L125.33,608.18L156.45,598.04L166.79,604.96L173.63,605.37L179.63,610.70L194.23,614.93L193.90,618.78L188.82,624.21L190.73,627.73L192.44,623.91L200.64,620.51L204.42,608.13L213.57,602.61L223.51,601.72L228.29,592.47L243.22,592.73L247.05,586.89L266.45,598.53L271.65,599.04L274.21,593.21L277.46,603.91L279.93,604.26L289.31,594.15L302.54,595.03L298.03,587.73L313.20,574.35L319.61,573.98L316.52,577.13L329.75,580.62L332.08,573.88L327.53,568.77L326.69,560.13L346.53,568.95L349.35,562.46L355.45,562.72L358.03,553.60L384.48,539.71L373.95,534.26L364.29,539.28L364.17,534.85L348.91,534.55L336.23,524.58L336.12,520.89L329.83,519.62L325.28,514.72L322.19,519.47L313.15,521.80L314.63,515.89L312.66,503.63L309.04,502.80L303.62,506.64L299.51,502.92L291.86,502.99L290.08,488.78L282.69,478.08L277.38,480.71L277.34,468.96L274.15,469.36L271.83,474.13L274.87,480.15L271.11,490.54L266.64,493.14L259.02,488.24L258.82,509.46L257.19,510.87L252.23,506.57L248.67,510.83L243.61,503.54L241.71,511.31L230.43,503.44L222.42,503.13L216.21,497.72L211.99,498.74L211.90,487.79L204.55,476.29L188.98,482.64L181.10,474.12L168.19,471.58L168.39,465.97L189.02,453.08L203.18,436.17L215.15,433.07L217.44,422.38L226.99,421.05L245.92,409.86L247.01,406.26L234.27,398.20L229.66,397.57L224.86,401.38L217.96,395.80L223.76,389.03L225.88,380.17L233.30,379.96L228.87,370.97L237.85,368.36L240.07,358.97L247.68,352.64L253.85,353.68L257.99,348.66L269.72,352.29L290.13,344.88L308.78,352.96L322.38,351.92L335.75,359.49L353.81,362.35L364.60,372.85L382.04,372.19L395.56,376.41L397.36,383.97L410.33,386.45L403.98,371.68L403.63,364.82L410.22,348.74L409.46,339.01L415.11,325.80L439.10,316.25L443.71,307.96L449.12,311.34L461.74,309.34L459.19,303.64L486.71,317.79L498.01,328.89L508.81,331.21L531.71,343.38L563.75,347.66L569.80,345.23L576.57,335.03L609.74,336.48L621.31,339.92L626.13,336.89L633.71,339.02L642.63,337.21L660.68,329.99L672.80,332.84L676.77,337.25L687.61,338.76L694.17,336.38L704.27,339.67L715.58,337.79L738.56,342.89L758.91,343.30L767.49,340.39L808.35,352.30L819.62,349.04L821.98,350.53L823.83,362.01L834.47,369.64L839.74,380.03L875.44,384.38L896.65,407.04Z M285.62,619.17L278.09,622.50L276.91,623.94L283.57,627.52L285.62,619.17Z M246.34,613.66L234.36,610.59L229.26,602.96L225.31,608.94L227.42,616.11L231.97,618.94L230.23,629.67L233.06,627.42L235.82,630.18L243.76,628.90L244.68,624.76L241.31,618.75L246.34,613.66Z M192.29,629.56L191.66,632.62L198.30,640.68L207.23,635.33L206.81,631.82L192.29,629.56Z" fill="currentColor" fill-rule="evenodd"/></svg>
