<svg xmlns="http://www.w3.org/2000/svg" viewBox="0 0 1000 1000" role="img" aria-label="Map of Laos"><path d="M343.73,108.77L351.55,122.96L376.01,143.86L375.58,149.82L385.59,155.06L390.88,177.78L399.87,175.63L404.71,161.15L408.29,173.43L417.21,170.38L419.54,185.48L408.51,199.46L414.57,197.16L410.78,210.67L404.23,215.38L411.90,217.98L411.47,222.69L417.12,232.07L423.12,235.37L433.36,252.69L452.65,258.83L460.87,256.34L465.21,262.25L473.06,264.07L481.78,271.20L485.14,269.78L484.52,265.10L488.71,263.14L491.44,253.52L511.40,247.73L518.64,242.77L535.18,249.27L544.94,260.52L550.57,261.21L554.09,266.95L564.98,272.13L558.55,282.47L554.40,284.69L549.90,282.57L542.35,291.42L561.47,293.82L570.81,300.64L568.69,312.60L583.06,311.83L590.93,316.09L590.66,319.89L595.93,325.35L594.61,332.87L587.91,334.07L579.65,341.02L577.42,344.86L582.84,346.62L581.80,351.96L570.37,358.13L564.90,369.07L555.29,369.50L544.14,361.81L536.63,364.65L530.75,359.88L518.32,364.92L510.55,362.23L518.43,380.62L513.85,387.22L506.28,389.27L497.03,397.76L508.05,404.72L523.55,408.68L529.13,416.34L533.50,416.03L547.09,427.32L554.57,428.73L573.41,444.77L587.82,446.46L591.97,450.41L609.07,453.88L614.11,461.67L609.16,464.85L606.17,476.65L613.52,484.89L613.81,490.41L620.00,495.76L625.01,495.46L625.24,500.79L631.48,504.95L635.43,500.20L640.45,502.15L641.27,507.16L652.80,522.38L652.72,532.63L663.17,549.50L671.75,554.34L689.42,575.53L704.15,588.32L707.37,589.48L712.93,585.76L714.86,595.86L722.71,605.99L724.17,612.73L731.74,615.70L734.20,613.33L735.63,644.13L744.45,650.90L747.15,664.16L753.51,666.30L762.75,656.17L763.56,666.94L772.49,676.98L785.93,680.67L788.92,689.11L802.83,699.64L814.95,699.20L815.75,704.69L809.62,713.17L792.84,718.74L789.52,726.76L796.34,732.04L797.53,738.73L804.38,743.99L809.07,752.64L815.60,751.41L819.54,754.01L820.11,759.73L827.13,760.55L828.32,766.89L835.19,773.87L834.30,780.30L827.78,789.89L828.54,793.49L815.82,796.55L817.28,802.95L825.80,809.49L819.84,817.18L822.46,826.48L813.11,841.51L801.80,836.38L795.81,845.76L792.34,845.92L785.27,854.18L778.75,851.61L771.56,862.03L766.15,860.91L761.79,863.57L750.38,852.16L735.90,844.44L733.13,837.14L729.56,839.59L730.68,843.34L726.39,843.34L727.16,845.62L722.61,849.66L714.87,850.65L708.10,846.46L703.06,857.73L685.00,859.11L688.82,871.15L700.96,887.22L694.98,893.99L693.84,900.00L678.82,899.43L668.84,891.27L665.02,884.10L653.79,882.61L646.34,876.88L631.35,882.51L621.86,875.19L615.42,859.96L635.95,852.27L644.07,839.59L642.44,818.85L647.89,808.03L646.43,805.07L651.65,799.78L639.14,790.08L638.42,786.44L640.13,781.25L649.07,773.49L648.54,768.59L641.40,766.00L652.64,757.94L655.89,735.29L649.47,729.01L638.79,727.56L635.60,724.31L631.05,713.15L636.49,704.70L604.24,694.32L600.46,679.81L578.27,657.92L576.79,652.27L579.50,639.86L576.08,612.09L582.24,596.32L582.82,577.55L572.73,563.14L550.52,550.20L541.71,535.89L534.42,530.79L529.15,518.23L521.31,510.15L508.28,488.19L499.29,492.61L492.86,487.48L470.47,480.28L449.03,479.32L442.57,485.84L448.01,492.19L436.74,495.73L434.12,503.48L428.16,507.32L428.31,515.72L425.20,519.91L417.84,517.90L408.78,521.65L392.85,531.60L393.73,536.76L385.97,533.89L386.35,523.22L369.75,519.58L355.95,510.26L348.45,500.35L340.17,499.09L324.73,515.57L314.64,512.17L309.20,527.23L295.77,531.34L291.92,536.80L293.89,538.43L286.09,545.12L284.78,542.27L278.97,544.29L278.60,548.43L266.48,557.09L256.31,569.26L234.48,558.80L244.66,529.78L259.22,514.05L257.14,507.47L259.01,500.82L255.96,496.11L258.36,488.91L247.27,479.13L265.39,457.61L262.83,450.92L264.52,437.43L273.51,423.83L265.48,413.79L263.31,395.29L259.86,390.63L261.68,383.50L266.90,379.61L267.18,374.70L263.02,370.74L255.63,373.02L244.81,368.78L233.94,368.50L222.70,380.73L212.08,375.16L206.18,379.50L197.99,376.76L189.57,356.18L198.85,343.58L204.40,316.78L202.87,318.48L196.82,314.66L186.48,296.07L177.26,297.67L169.48,310.14L165.09,307.86L164.81,298.65L171.29,274.41L180.29,261.36L188.29,255.18L203.53,257.10L213.76,250.66L203.31,250.92L201.85,247.89L205.35,239.90L204.13,236.60L211.40,234.10L217.06,224.29L220.25,210.08L231.41,209.79L258.51,190.67L258.68,187.59L261.12,189.21L259.78,201.52L265.39,205.23L263.11,216.25L267.61,222.41L290.46,216.52L296.34,218.22L296.15,222.77L302.65,221.50L307.00,226.55L312.54,225.10L311.95,220.87L317.59,217.28L308.00,207.60L309.83,185.89L314.92,184.27L315.83,180.76L311.58,178.64L309.15,172.21L311.15,163.01L304.29,152.26L298.36,148.88L293.81,137.43L294.35,129.43L290.29,122.97L297.87,120.02L302.60,104.24L307.79,100.00L314.15,101.80L319.26,110.10L321.51,110.51L323.61,105.77L332.77,104.12L343.73,108.77Z" fill="currentColor" fill-rule="evenodd"/></svg>
