<svg xmlns="http://www.w3.org/2000/svg" viewBox="0 0 1000 1000" role="img" aria-label="Map of Latvia"><path d="M775.04,362.80L823.93,367.03L822.07,386.85L858.38,415.08L856.62,441.65L840.93,452.84L848.50,465.23L834.99,505.26L852.43,499.79L866.47,510.11L861.16,525.76L873.92,537.00L877.23,557.09L889.94,565.13L886.31,574.45L894.15,587.31L900.00,621.09L892.45,647.00L867.96,653.68L851.86,672.46L847.80,683.90L836.82,691.36L831.05,717.33L804.22,709.86L794.66,718.75L782.34,709.61L763.53,710.74L746.06,735.13L725.89,737.26L720.86,743.04L708.33,740.75L686.10,727.63L674.95,706.15L621.73,658.02L617.90,647.33L552.90,635.82L530.59,586.37L527.81,593.98L509.35,599.56L487.57,621.47L469.60,615.46L449.77,623.77L418.77,608.23L404.08,609.35L402.06,604.18L377.21,609.09L355.88,600.42L330.92,614.33L315.71,592.53L287.21,605.26L270.14,595.79L237.37,596.92L224.03,591.46L139.42,630.45L128.60,642.81L124.27,658.71L109.15,661.10L100.31,628.91L100.00,597.20L103.95,570.74L108.18,582.43L106.62,593.34L112.06,594.36L109.69,574.04L102.39,564.90L109.69,536.67L109.07,508.34L145.48,471.98L151.12,411.88L183.80,357.88L213.57,352.52L267.05,323.80L281.03,321.36L278.89,343.55L286.08,355.46L338.42,398.88L352.84,453.80L380.18,467.47L388.64,478.01L400.78,480.39L429.23,471.11L457.70,448.79L478.66,421.64L474.02,362.61L475.81,349.87L473.92,335.32L467.51,323.53L468.23,298.42L476.18,300.18L493.37,282.89L510.04,282.38L515.41,273.37L524.61,276.50L555.23,258.20L563.26,259.93L568.76,274.75L576.22,270.15L572.38,261.45L575.93,256.96L611.23,289.53L625.45,287.32L632.33,300.88L656.83,303.54L657.96,317.37L688.03,352.76L710.37,369.59L743.07,358.38L751.56,347.10L763.53,350.77L775.04,362.80Z" fill="currentColor" fill-rule="evenodd"/></svg>
