<svg xmlns="http://www.w3.org/2000/svg" viewBox="0 0 1000 1000" role="img" aria-label="Map of Lebanon"><path d="M194.97,883.61L235.48,817.05L228.79,789.98L262.44,702.97L294.24,675.35L330.61,578.53L348.03,523.47L343.63,485.04L384.96,481.17L412.99,437.33L407.42,338.45L422.89,284.42L480.26,233.61L479.96,209.14L519.81,202.73L552.30,172.99L546.90,118.48L665.62,129.56L684.89,100.00L708.74,128.60L738.31,128.52L736.71,143.98L717.45,144.76L715.26,165.56L689.35,185.01L735.58,194.72L772.89,229.71L770.24,263.68L796.03,290.03L788.20,308.14L805.03,339.44L752.57,410.81L718.33,415.12L676.60,463.26L671.22,487.43L709.58,516.94L615.44,510.27L579.68,527.02L527.23,613.37L571.23,634.28L573.50,648.91L531.98,668.50L526.38,700.60L397.91,809.55L375.79,789.49L347.56,884.41L292.62,900.00L267.59,877.64L194.97,883.61Z" fill="currentColor" fill-rule="evenodd"/></svg>
