<svg xmlns="http://www.w3.org/2000/svg" viewBox="0 0 1000 1000" role="img" aria-label="Map of Lesotho"><path d="M750.42,233.16L770.04,238.43L775.05,254.45L825.23,293.61L859.20,301.50L860.86,323.27L900.00,397.01L888.04,430.27L849.65,451.17L848.29,499.55L809.73,519.72L794.11,551.17L791.49,579.70L804.13,615.30L689.54,679.47L638.27,695.37L605.69,688.49L554.19,700.18L524.77,737.34L493.95,752.46L506.39,778.84L469.22,818.54L474.42,835.00L454.82,867.55L453.90,894.75L343.72,872.63L296.06,831.05L247.90,762.90L219.65,763.25L212.26,726.16L224.65,699.59L202.11,695.41L186.70,658.25L164.65,637.54L125.63,545.51L100.00,519.56L106.66,500.53L185.78,472.16L214.42,449.14L248.29,377.82L273.14,366.22L270.72,349.41L300.78,318.15L306.62,294.98L317.87,292.40L309.39,280.91L333.23,264.14L344.98,233.00L382.42,235.58L403.75,212.13L432.46,221.59L478.94,155.00L525.65,156.72L553.88,126.32L636.50,105.25L657.94,149.76L672.52,150.15L686.92,172.55L714.91,185.72L750.42,233.16Z" fill="currentColor" fill-rule="evenodd"/></svg>
