<svg xmlns="http://www.w3.org/2000/svg" viewBox="0 0 1000 1000" role="img" aria-label="Map of Liberia"><path d="M113.69,412.31L121.14,408.68L130.01,383.03L136.54,381.02L133.13,370.62L143.70,356.42L162.46,348.72L179.75,327.07L227.27,296.13L254.47,262.95L276.25,250.87L276.83,200.93L292.48,183.37L319.80,179.98L331.81,172.19L329.86,155.24L339.12,114.90L348.52,116.33L361.28,107.29L375.21,110.05L380.76,126.76L402.95,114.19L428.88,110.79L435.16,100.00L444.87,124.20L448.44,114.40L458.39,118.66L453.34,132.59L467.90,128.91L486.98,141.72L479.38,147.21L485.08,156.52L481.12,171.74L490.32,175.69L491.68,201.51L495.96,197.15L501.13,202.01L498.39,232.40L514.10,256.02L510.18,267.68L514.47,278.73L488.57,325.55L498.50,316.89L504.30,325.16L515.28,316.89L524.67,325.44L536.97,324.54L542.27,340.30L558.63,351.78L557.54,360.86L589.30,342.56L597.80,349.47L608.06,345.12L607.53,329.04L632.27,300.34L632.65,278.81L640.40,265.06L662.90,266.23L663.06,278.54L689.67,301.63L716.38,393.60L709.61,404.60L706.30,439.32L653.21,493.37L664.95,494.47L676.15,505.05L681.76,494.46L691.05,501.28L692.27,522.40L703.39,518.41L737.82,534.95L763.79,529.67L786.20,535.38L798.99,549.49L796.12,571.53L805.96,573.48L810.31,594.96L823.43,605.87L830.36,598.24L853.27,617.45L859.19,613.84L865.49,623.84L868.48,613.64L874.53,616.29L873.97,637.87L886.31,668.92L881.06,670.55L884.52,677.47L879.54,677.63L873.88,696.70L885.25,716.77L879.77,727.54L875.77,721.89L869.02,726.82L866.52,750.30L861.44,759.59L850.12,763.34L855.08,793.39L844.51,796.52L850.75,829.60L849.48,893.48L856.75,900.00L824.27,898.35L780.98,871.11L721.44,856.84L713.35,847.86L561.40,771.03L514.36,736.90L492.32,716.14L485.29,701.10L469.13,695.26L468.50,684.24L396.25,625.38L383.68,613.29L381.92,603.78L325.63,567.56L324.16,562.46L329.43,561.16L308.44,548.28L304.81,549.49L318.89,558.10L320.29,562.46L243.56,531.35L239.88,527.95L246.58,528.61L242.80,518.79L249.03,510.21L241.29,512.93L223.25,492.19L136.91,453.78L131.48,428.01L113.69,412.31Z" fill="currentColor" fill-rule="evenodd"/></svg>
