<svg xmlns="http://www.w3.org/2000/svg" viewBox="0 0 1000 1000" role="img" aria-label="Map of Libya"><path d="M211.84,115.11L218.42,119.19L226.38,120.76L221.21,117.65L229.07,120.64L254.35,134.71L278.34,136.31L295.50,130.21L304.93,130.69L316.00,136.39L329.05,136.88L346.95,141.36L361.27,152.36L397.19,159.30L406.39,171.72L406.22,183.50L412.74,200.40L426.40,215.97L440.68,222.30L485.91,227.49L531.62,242.10L535.56,245.95L549.75,250.78L572.18,270.30L592.52,279.08L606.73,277.24L620.73,270.35L635.75,255.64L645.10,241.46L647.46,225.61L641.19,215.48L635.90,195.09L637.05,183.93L643.68,171.63L656.48,158.50L668.44,150.17L693.05,138.11L711.39,136.92L721.90,128.86L734.71,130.74L748.43,128.23L751.32,131.59L758.01,131.93L766.79,137.06L796.65,145.56L796.54,152.51L798.81,154.66L797.78,159.30L796.06,157.00L795.36,162.76L801.14,165.15L807.04,172.40L806.38,168.94L825.06,171.24L841.65,176.27L840.24,177.80L846.28,181.23L869.24,182.03L878.70,179.69L893.03,184.42L893.61,190.73L900.00,200.50L884.51,218.19L886.21,235.60L891.87,249.89L887.47,266.00L876.41,285.94L882.63,300.19L885.26,322.01L891.18,340.10L890.95,856.78L840.77,856.81L840.77,884.89L437.68,662.78L348.51,709.38L311.51,677.69L235.22,658.70L212.02,613.90L172.29,600.48L156.66,604.93L149.09,599.11L145.71,589.37L137.58,583.38L136.37,556.66L104.60,509.55L109.88,499.22L128.63,489.55L131.46,471.63L127.17,467.27L121.94,445.45L132.73,414.05L124.72,391.50L128.47,362.34L127.20,343.07L119.21,316.08L100.00,287.46L129.48,274.07L145.66,252.92L149.58,242.55L141.32,213.66L149.27,199.52L161.11,195.93L165.43,190.54L166.51,184.16L174.93,181.30L179.98,173.86L213.92,157.12L214.64,153.00L209.06,145.67L211.84,115.11Z" fill="currentColor" fill-rule="evenodd"/></svg>
