<svg xmlns="http://www.w3.org/2000/svg" viewBox="0 0 1000 1000" role="img" aria-label="Map of Lithuania"><path d="M871.93,380.29L873.38,398.62L863.43,416.22L864.95,429.72L852.26,461.31L895.63,467.70L900.00,474.12L880.43,487.94L872.80,510.46L826.99,505.87L809.86,546.66L773.32,553.84L761.40,570.32L760.83,585.67L753.03,594.86L751.29,619.57L755.65,642.10L740.73,656.44L738.24,677.07L726.82,701.10L749.60,701.10L762.29,721.30L758.73,740.31L743.81,746.91L725.10,743.10L720.98,735.79L726.86,730.96L723.14,724.75L730.26,722.48L717.38,706.36L705.18,718.51L682.92,716.39L676.15,735.72L664.64,746.09L630.55,745.54L625.23,755.46L630.52,772.85L626.08,784.82L614.76,786.13L609.49,779.06L570.14,804.57L553.70,802.86L541.79,787.39L467.93,801.86L448.67,792.07L445.00,781.98L450.15,772.36L447.08,750.77L430.82,725.87L398.49,705.27L389.38,707.33L388.22,696.33L377.47,686.63L360.45,682.04L350.87,692.69L342.66,677.79L338.26,660.27L341.83,615.63L361.91,583.64L358.22,566.55L343.83,550.85L332.66,549.28L323.40,523.10L280.62,522.37L256.87,532.45L250.19,528.68L246.88,516.98L238.62,520.60L192.65,493.38L178.88,492.92L161.30,470.15L146.70,479.99L149.91,468.46L145.27,451.22L135.23,456.75L144.07,439.66L140.62,415.27L118.51,351.15L117.54,283.61L136.19,280.79L141.53,262.03L154.87,247.44L259.22,201.44L275.67,207.88L316.08,206.55L337.13,217.72L372.28,202.70L391.04,228.43L421.82,212.01L448.12,222.24L478.77,216.44L481.26,222.55L499.38,221.22L537.61,239.56L562.07,229.76L584.23,236.85L611.09,211.00L633.86,204.41L637.28,195.43L664.80,253.77L744.95,267.36L749.68,279.97L815.31,336.77L829.07,362.12L871.93,380.29Z M108.83,474.17L100.00,471.89L121.48,420.66L121.87,366.98L128.18,383.01L126.59,422.61L122.14,434.14L124.73,438.87L108.83,474.17Z" fill="currentColor" fill-rule="evenodd"/></svg>
