<svg xmlns="http://www.w3.org/2000/svg" viewBox="0 0 1000 1000" role="img" aria-label="Map of Luxembourg"><path d="M504.79,149.89L489.76,229.22L579.79,407.59L636.75,465.24L659.44,459.42L704.09,494.35L750.72,497.77L775.48,504.45L779.31,508.62L777.25,600.80L708.14,663.13L718.97,681.51L671.08,761.64L667.20,884.51L559.02,835.84L393.02,900.00L271.82,793.49L339.38,676.66L311.09,651.20L314.26,598.80L226.95,503.60L229.90,437.61L248.61,439.55L220.69,402.91L287.44,307.70L280.37,280.19L330.10,175.91L393.68,100.00L481.07,106.96L504.79,149.89Z" fill="currentColor" fill-rule="evenodd"/></svg>
