<svg xmlns="http://www.w3.org/2000/svg" viewBox="0 0 1000 1000" role="img" aria-label="Map of Madagascar"><path d="M355.64,593.94L360.05,581.84L367.80,571.09L367.69,564.84L362.08,558.66L368.12,541.66L354.51,518.50L355.78,501.80L351.82,490.49L343.82,477.95L341.56,451.05L343.48,441.18L337.29,428.11L349.92,401.62L365.40,378.53L364.35,371.06L367.19,365.93L363.60,357.43L366.18,348.95L389.69,350.43L411.77,333.02L413.52,344.05L419.53,340.70L418.04,335.95L428.62,334.15L430.55,340.52L432.85,331.11L431.47,328.74L433.66,325.99L441.49,326.73L449.62,324.25L450.19,328.10L456.15,329.39L456.42,324.51L453.35,325.31L460.48,320.12L465.55,320.93L463.98,326.91L470.85,336.15L471.23,333.74L473.84,335.09L473.87,331.75L478.49,334.95L477.13,330.51L469.07,326.68L472.21,321.81L469.33,320.50L470.94,315.81L479.25,307.66L490.23,303.23L488.17,301.03L505.16,290.51L512.11,297.87L505.65,311.09L507.81,307.87L520.84,304.27L517.15,296.21L514.17,296.83L514.62,293.99L511.07,290.23L521.36,277.10L528.60,272.46L528.40,269.89L525.09,271.56L523.71,269.91L532.65,259.63L535.49,261.98L536.66,268.31L531.31,276.86L531.70,285.18L539.18,278.00L544.13,264.75L552.19,253.46L559.05,261.87L558.70,257.83L561.71,256.74L563.47,264.95L564.17,257.20L559.35,253.47L554.57,254.93L552.57,252.25L549.74,255.47L546.89,246.43L551.85,233.36L560.32,233.90L559.02,225.32L564.21,228.51L562.49,239.34L565.33,235.65L564.03,232.56L566.13,225.20L560.18,220.51L564.40,217.51L558.87,214.28L556.56,207.63L559.43,203.23L558.14,197.02L560.84,196.26L562.61,191.37L564.30,195.67L565.19,191.98L567.24,191.99L568.97,196.80L571.35,196.56L574.13,206.61L580.02,208.45L582.38,205.95L581.95,193.69L585.29,196.00L587.18,192.39L593.09,192.19L590.21,182.79L597.02,187.78L606.74,184.17L610.02,176.93L610.26,166.41L615.70,157.47L616.46,150.63L611.50,141.00L612.67,136.16L610.02,136.16L606.38,128.57L603.96,128.56L605.60,126.40L610.77,127.31L613.61,131.72L615.93,131.19L618.09,122.61L627.33,117.76L630.12,111.66L624.10,108.84L627.89,106.04L631.33,109.28L629.03,105.64L634.37,100.00L639.64,114.68L633.58,111.28L631.68,116.08L638.32,120.56L640.10,116.12L644.25,124.95L646.49,123.35L648.87,125.23L646.15,126.92L648.22,129.01L649.93,127.72L651.48,131.31L650.15,139.86L655.19,143.78L655.27,150.23L660.23,146.63L671.21,163.65L671.21,174.53L673.14,181.95L676.25,182.80L676.67,190.80L682.35,207.57L683.54,233.35L686.24,237.11L684.92,246.01L687.79,261.65L686.06,264.27L701.61,291.74L701.25,304.87L693.11,326.42L687.19,335.78L683.75,336.58L676.58,329.25L672.77,320.96L673.08,315.60L669.19,311.79L668.94,303.63L658.77,305.06L654.36,310.80L659.65,331.96L657.21,342.57L666.09,351.60L666.32,369.11L659.16,381.67L661.57,385.28L665.57,385.98L652.70,390.03L642.87,412.72L647.21,438.73L638.87,479.54L623.21,517.14L607.36,571.50L605.09,569.89L606.83,574.08L594.65,605.72L574.65,677.16L557.94,717.31L548.92,762.68L542.34,782.32L541.06,780.72L539.87,782.80L542.37,785.24L539.52,797.68L528.54,822.15L525.98,822.12L525.29,834.80L518.73,851.93L515.12,855.83L514.96,861.07L513.83,857.84L513.21,862.59L506.01,868.77L503.89,867.48L495.19,873.92L488.75,875.70L473.93,874.58L465.66,876.54L439.95,888.84L428.13,897.74L406.01,900.00L403.55,895.96L395.94,892.57L387.82,885.08L362.01,879.97L357.95,873.92L362.81,877.87L363.97,875.95L343.10,864.86L341.56,857.03L336.97,849.80L336.97,842.60L323.35,825.94L322.93,799.20L320.68,792.36L321.62,785.16L327.54,781.12L328.26,774.89L321.03,767.92L318.38,752.16L306.06,738.52L298.39,704.04L302.76,701.93L299.71,691.17L302.78,681.16L303.16,685.13L304.29,683.54L304.67,675.56L309.96,669.32L312.25,669.89L314.18,648.64L326.78,647.01L331.12,643.65L336.04,623.64L339.54,616.87L343.52,614.42L348.49,601.10L355.64,593.94Z M666.50,391.38L672.93,379.74L675.76,377.94L664.78,401.62L666.50,391.38Z M583.96,186.31L581.66,172.67L577.74,172.81L577.48,176.43L573.22,176.57L575.33,185.84L583.96,186.31Z" fill="currentColor" fill-rule="evenodd"/></svg>
