<svg xmlns="http://www.w3.org/2000/svg" viewBox="0 0 1000 1000" role="img" aria-label="Map of Malaysia"><path d="M835.79,499.12L844.08,499.39L845.69,497.69L836.14,491.79L831.70,494.77L835.79,499.12Z M731.63,467.12L734.26,465.02L740.28,467.35L748.37,460.63L750.34,454.71L740.56,450.82L741.67,446.50L750.32,437.40L750.32,442.15L750.91,440.17L756.74,442.01L760.26,440.50L763.60,432.21L768.49,428.97L772.20,419.54L770.74,417.36L775.50,412.84L778.30,413.02L776.04,411.39L786.93,402.30L798.10,380.58L801.41,389.11L798.37,398.36L806.11,393.60L809.53,387.98L808.42,384.49L813.29,381.55L817.63,384.21L816.56,389.13L819.23,396.53L825.86,400.16L828.92,397.15L829.91,400.46L836.80,404.09L836.63,412.12L831.64,414.44L834.43,423.64L826.27,427.90L838.72,426.28L848.61,420.03L853.02,428.09L844.71,430.33L846.30,435.31L853.38,435.20L855.10,430.49L862.80,430.13L872.13,435.51L870.96,441.89L874.45,437.38L885.36,444.79L885.92,447.28L896.38,444.96L900.00,449.30L899.55,455.16L895.02,459.04L875.69,465.65L868.27,466.18L862.48,461.79L853.48,468.19L859.23,475.83L867.35,479.67L868.16,483.47L872.35,483.02L874.23,486.39L870.61,489.38L862.32,489.46L847.21,494.79L833.90,486.90L831.86,488.62L832.73,497.02L830.28,497.71L824.96,496.65L815.43,489.69L790.48,490.70L787.70,488.02L783.19,492.44L779.08,488.57L771.55,488.75L767.27,493.17L760.07,488.33L757.08,495.01L752.04,497.32L747.63,507.47L749.66,510.05L747.86,519.38L750.18,527.51L746.77,530.49L744.59,543.82L738.31,545.66L735.54,543.38L728.49,551.92L729.94,554.83L727.98,561.07L731.87,561.55L734.08,565.11L722.51,571.48L722.14,574.33L716.66,575.84L715.61,580.43L716.74,584.46L719.20,584.38L718.83,589.92L712.62,592.44L707.16,609.02L700.20,606.08L692.00,609.61L688.77,607.77L681.25,608.71L669.64,617.49L665.55,613.98L660.38,614.78L647.81,609.17L642.48,609.81L645.17,605.78L643.09,603.51L622.60,603.60L610.02,609.04L611.07,611.28L607.22,620.94L599.77,622.13L596.22,626.44L588.06,625.55L583.19,628.49L581.92,625.88L570.74,623.72L557.81,626.36L553.59,630.74L544.51,632.86L532.67,627.02L528.88,619.66L524.05,617.99L518.69,610.66L515.53,610.31L508.00,602.39L507.34,594.88L503.83,594.02L502.72,590.43L507.48,582.54L509.43,591.12L518.99,598.51L533.79,599.26L535.36,594.00L537.83,598.23L542.64,596.52L540.91,601.44L551.55,604.43L549.56,608.46L553.04,607.19L554.26,603.40L568.47,611.61L578.31,612.34L565.33,607.89L562.91,602.91L566.57,598.68L570.00,601.17L573.58,601.16L569.73,599.85L566.60,595.15L571.07,583.12L573.60,583.18L573.03,580.78L576.39,581.36L578.08,579.33L570.21,580.01L572.47,577.10L570.22,575.57L571.69,568.94L577.58,572.02L582.79,571.80L579.17,566.17L583.92,565.89L579.69,563.26L581.34,557.11L589.97,551.49L603.98,549.74L644.50,538.48L661.88,514.32L674.20,504.18L682.76,493.04L683.94,479.94L694.93,484.56L696.45,493.41L702.04,493.60L710.51,503.55L716.18,498.85L719.39,488.09L715.16,474.43L723.57,470.78L726.32,466.79L729.42,487.67L739.79,491.41L731.63,467.12Z M853.56,423.20L849.07,430.48L851.14,434.01L857.71,435.05L862.00,432.60L862.74,427.72L859.38,424.11L853.56,423.20Z M579.45,569.96L577.76,571.24L575.43,568.32L575.54,553.89L578.21,557.43L579.45,569.96Z M877.71,479.42L871.29,480.26L869.56,482.98L873.49,490.70L882.50,488.39L882.31,482.48L877.71,479.42Z M874.06,478.97L866.17,473.94L860.30,477.21L869.05,481.38L874.06,478.97Z M732.85,444.26L728.13,451.78L730.59,457.01L739.94,453.55L738.25,444.31L732.85,444.26Z M822.08,388.84L817.74,394.63L820.57,399.44L827.14,399.77L831.37,396.21L827.74,387.76L822.08,388.84Z M805.18,364.00L797.81,371.79L799.59,377.03L810.78,372.24L809.95,364.47L805.18,364.00Z M808.11,370.27L810.07,379.31L818.36,375.18L820.47,368.37L816.49,365.46L808.11,370.27Z M198.93,412.01L209.73,415.30L217.17,427.77L237.82,443.54L254.96,471.28L256.93,491.72L252.80,499.48L254.40,506.27L250.50,514.11L256.35,524.18L254.14,530.08L254.68,548.27L262.72,558.48L267.88,559.43L275.37,572.05L287.85,600.74L288.75,611.78L281.78,611.46L279.87,606.96L283.46,604.51L279.62,606.11L276.06,600.32L277.85,608.46L265.13,608.38L261.15,612.35L259.02,611.18L257.74,615.74L251.67,604.79L230.00,592.24L224.45,591.68L218.15,583.58L202.24,576.31L195.50,569.82L190.46,569.82L186.76,561.97L177.30,558.92L171.47,552.48L166.87,551.23L170.40,544.99L167.33,533.87L156.86,519.67L147.55,512.95L148.90,510.31L143.37,509.01L143.24,504.90L149.97,503.46L146.14,503.36L145.66,500.15L140.23,497.88L137.50,491.19L140.76,481.35L138.68,479.27L141.60,476.86L139.08,477.03L139.61,471.84L132.45,466.53L129.31,459.93L132.11,454.75L128.75,439.51L129.77,430.25L128.68,422.01L120.06,406.98L121.25,394.13L125.62,394.08L130.24,401.20L140.16,404.36L144.20,402.38L147.28,405.58L148.40,412.86L158.53,412.46L158.41,425.05L153.79,431.01L160.18,437.65L163.86,435.54L165.35,431.23L177.94,426.15L182.34,432.10L187.82,433.15L198.40,418.65L198.93,412.01Z M289.54,552.36L285.42,546.32L282.80,546.57L280.17,557.61L283.98,560.16L288.26,559.26L289.54,552.36Z M127.25,441.96L119.68,442.50L119.81,454.50L126.05,455.65L129.06,453.65L131.29,447.32L127.25,441.96Z M101.35,416.05L105.71,419.93L108.96,419.30L111.69,408.22L108.94,406.15L104.05,407.50L101.24,410.86L101.35,416.05Z M112.03,405.60L108.19,401.87L98.55,404.99L103.25,413.31L111.98,410.13L112.03,405.60Z M161.80,537.79L158.45,542.79L159.57,547.37L164.43,550.17L169.53,549.12L172.20,544.65L170.98,538.76L166.59,536.35L161.80,537.79Z M170.75,538.31L165.64,537.92L163.02,540.69L161.69,548.78L164.85,551.32L171.59,548.88L173.84,544.99L170.75,538.31Z" fill="currentColor" fill-rule="evenodd"/></svg>
