<svg xmlns="http://www.w3.org/2000/svg" viewBox="0 0 1000 1000" role="img" aria-label="Map of Malawi"><path d="M568.37,326.18L533.43,326.67L528.12,352.74L507.53,386.11L521.15,441.10L526.26,506.96L535.83,524.15L558.18,526.57L580.37,546.01L657.00,643.63L658.61,666.97L662.73,668.03L650.67,697.42L656.33,722.74L650.77,787.23L640.92,794.49L625.05,797.39L623.59,800.55L615.68,795.65L609.54,797.41L597.91,810.88L598.65,819.64L594.83,831.38L585.17,838.34L589.43,847.40L599.86,855.16L603.07,870.62L599.13,880.28L603.49,884.21L602.55,896.79L595.50,900.00L578.55,897.37L575.59,889.74L584.49,879.11L583.80,868.85L572.37,866.91L562.43,859.30L545.02,837.46L537.27,833.36L524.20,813.90L514.33,811.12L510.18,802.10L512.13,789.03L494.92,771.50L496.32,761.63L512.07,746.43L512.69,729.35L528.25,710.37L526.60,685.64L530.16,678.09L522.30,648.78L521.89,635.92L506.05,616.49L482.50,622.07L476.60,627.61L463.10,626.18L451.66,631.49L443.42,627.05L439.77,630.04L438.59,638.45L435.84,638.61L430.91,629.29L415.18,615.80L400.26,592.71L399.22,582.80L391.43,577.95L385.17,568.78L371.06,581.73L368.69,570.80L358.44,558.01L347.28,553.54L346.71,550.75L352.34,546.72L347.97,540.09L338.45,538.15L337.27,534.88L338.67,531.93L352.31,527.85L352.91,522.02L360.25,515.12L364.84,499.75L370.90,494.24L367.66,485.40L372.44,464.81L365.76,457.18L365.17,449.61L373.57,433.39L384.17,430.41L388.48,434.15L396.70,425.06L406.27,425.14L424.01,406.87L417.10,403.00L406.17,404.01L396.46,384.58L402.61,346.68L400.88,328.25L392.43,325.18L394.21,309.99L397.71,310.66L410.33,284.01L401.57,270.58L399.23,258.07L394.43,254.97L403.12,248.25L414.66,247.21L421.39,243.19L438.78,223.37L437.90,216.98L433.61,214.81L424.60,199.19L424.63,187.69L401.62,170.42L407.79,153.40L405.57,146.45L392.84,135.68L392.60,128.21L388.69,122.81L380.95,121.38L379.16,128.99L374.67,124.32L369.76,125.51L370.27,112.44L363.83,110.17L364.68,101.08L368.54,100.00L388.45,113.39L401.23,111.45L415.16,124.79L444.85,120.93L462.65,134.74L466.97,128.82L466.06,117.41L472.78,109.93L503.43,134.87L525.37,168.28L524.20,173.62L530.31,193.76L529.85,219.52L534.20,224.03L539.29,241.47L531.05,268.68L533.11,277.55L543.21,287.93L548.38,302.62L551.89,301.25L560.53,305.74L567.97,318.44L568.37,326.18Z M540.67,369.96L536.83,377.79L540.50,383.60L545.61,381.66L548.62,374.15L540.67,369.96Z M525.99,366.98L524.66,372.92L534.22,379.35L536.26,367.61L525.99,366.98Z" fill="currentColor" fill-rule="evenodd"/></svg>
