<svg xmlns="http://www.w3.org/2000/svg" viewBox="0 0 1000 1000" role="img" aria-label="Map of Maldives"><path d="M488.21,901.82L495.03,906.51L499.97,904.43L501.67,899.34L498.01,894.01L492.66,892.98L488.40,896.38L488.21,901.82Z M491.51,895.86L490.91,901.57L494.11,905.25L498.96,905.72L503.24,902.69L503.96,897.33L500.88,892.91L495.53,892.28L491.51,895.86Z M483.77,896.37L487.61,903.51L492.43,903.90L496.19,900.85L496.78,896.05L493.91,891.34L489.55,890.23L485.52,892.23L483.77,896.37Z M503.43,887.69L497.66,888.37L495.13,892.49L496.39,899.37L501.13,901.30L505.63,898.86L508.09,893.38L503.43,887.69Z M508.28,890.04L506.97,885.01L503.24,883.16L499.29,884.45L497.10,891.15L498.33,895.14L502.01,897.12L506.02,895.93L508.28,890.04Z M517.26,863.67L523.02,866.97L527.85,864.81L529.41,859.76L526.86,854.34L522.17,853.01L517.34,855.19L515.69,859.42L517.26,863.67Z M481.22,808.98L488.20,814.12L492.25,812.63L494.70,808.34L493.90,803.32L489.80,800.31L484.21,801.40L481.22,808.98Z M493.00,801.88L495.16,810.75L499.32,812.08L504.06,809.93L506.29,805.84L505.25,801.30L500.60,798.37L496.17,798.75L493.00,801.88Z M475.76,806.05L484.13,808.70L487.55,805.37L487.39,799.55L483.35,795.54L477.70,796.27L474.82,801.19L475.76,806.05Z M509.20,798.44L509.76,803.90L513.64,806.89L519.48,805.79L522.70,801.51L521.63,796.25L516.98,793.59L511.76,794.68L509.20,798.44Z M472.49,804.22L477.25,805.14L481.24,802.79L482.93,798.17L480.98,793.65L475.74,791.70L470.50,794.06L469.06,799.62L472.49,804.22Z M523.01,791.28L526.18,795.96L531.04,796.76L535.11,793.99L536.68,788.73L534.52,784.61L529.49,782.92L524.17,785.49L523.01,791.28Z M469.07,793.69L474.62,795.35L479.08,792.34L479.50,786.07L475.56,781.86L469.81,782.41L466.75,787.30L469.07,793.69Z M467.79,773.00L464.69,777.19L465.72,782.54L470.16,785.75L475.48,784.46L477.96,779.57L476.46,774.21L472.36,771.94L467.79,773.00Z M523.78,783.02L529.44,784.56L533.78,781.53L534.47,776.29L530.88,771.39L525.71,771.07L521.92,774.61L521.36,779.45L523.78,783.02Z M510.40,766.11L516.57,770.93L521.59,769.29L523.94,764.55L522.19,759.56L517.80,757.03L513.28,757.94L510.37,761.51L510.40,766.11Z M508.84,753.45L513.83,758.27L519.37,757.36L522.32,752.79L520.97,747.52L516.71,744.65L512.09,745.31L508.98,748.79L508.84,753.45Z M506.97,745.15L511.00,749.43L516.53,749.18L519.83,745.90L520.32,741.48L517.66,737.44L512.07,736.02L507.39,739.39L506.97,745.15Z M456.44,475.29L463.39,475.64L467.06,471.16L465.82,465.51L460.62,462.98L454.83,465.31L453.33,470.67L456.44,475.29Z M457.02,475.60L462.18,472.91L463.43,467.98L460.81,463.62L456.12,462.07L451.59,464.24L449.51,469.22L451.84,474.09L457.02,475.60Z M464.23,460.82L462.17,467.39L465.72,471.75L473.56,469.86L475.72,464.04L473.29,459.74L468.54,458.40L464.23,460.82Z M467.82,464.21L474.70,464.53L478.38,460.06L477.14,454.40L471.93,451.87L466.14,454.22L464.66,459.61L467.82,464.21Z M442.28,453.45L447.48,454.59L451.51,452.05L453.05,446.83L450.57,442.51L444.99,441.24L440.39,443.90L439.24,449.09L442.28,453.45Z M519.52,422.19L519.08,428.24L523.25,432.15L528.93,431.53L532.13,427.70L531.93,422.80L528.43,419.12L523.36,418.87L519.52,422.19Z M443.45,424.68L451.36,424.40L453.97,420.18L452.91,415.34L448.77,412.60L443.46,413.14L440.48,416.62L440.47,421.20L443.45,424.68Z M523.82,412.68L529.12,415.89L534.10,414.13L536.21,409.29L534.71,405.09L529.64,401.94L524.80,403.38L522.39,407.83L523.82,412.68Z M474.69,398.97L480.05,396.77L481.83,391.58L479.93,387.20L475.83,385.16L471.04,386.37L467.93,391.14L469.51,396.60L474.69,398.97Z M545.96,368.54L542.55,372.58L542.79,377.25L546.02,380.64L551.02,381.01L556.24,374.08L554.54,369.78L550.48,367.60L545.96,368.54Z M542.42,372.29L544.54,377.72L549.82,379.55L554.98,376.43L556.10,370.72L552.41,366.23L546.60,366.23L542.42,372.29Z M510.00,367.85L509.73,373.31L512.89,376.78L517.68,377.47L521.41,375.00L522.62,369.77L519.81,364.80L514.17,363.94L510.00,367.85Z M513.17,358.29L517.03,361.04L521.71,360.62L525.37,356.80L525.19,351.52L520.86,347.82L515.29,348.31L511.97,352.82L513.17,358.29Z M522.06,349.40L529.97,351.74L533.99,348.08L534.04,342.65L529.67,338.77L524.01,339.26L520.70,343.88L522.06,349.40Z M468.63,325.69L468.82,331.33L476.17,334.48L480.59,330.42L481.52,325.84L479.00,321.89L474.45,320.81L468.63,325.69Z M467.64,333.23L473.17,332.30L476.28,327.41L474.43,321.92L468.99,319.90L464.23,321.97L462.34,326.25L463.70,330.72L467.64,333.23Z M526.60,313.62L521.75,312.44L517.48,314.97L515.80,319.81L518.17,324.35L524.21,325.58L528.62,322.88L529.64,317.81L526.60,313.62Z M462.04,310.00L462.05,316.21L466.80,319.85L472.61,318.40L474.66,315.55L474.64,310.18L470.98,306.54L465.81,306.46L462.04,310.00Z M465.22,307.73L462.98,313.62L466.06,318.59L472.14,319.25L476.65,314.41L475.63,308.50L470.60,305.69L465.22,307.73Z M477.32,298.87L474.93,304.50L477.58,309.50L483.32,310.73L488.21,306.78L488.66,301.88L485.97,298.13L481.52,296.95L477.32,298.87Z M477.26,307.58L483.27,309.91L488.33,306.96L489.13,301.17L485.05,296.96L478.69,297.29L475.52,302.09L477.26,307.58Z M482.15,294.76L479.69,300.33L482.23,305.35L487.67,306.75L491.79,304.65L493.64,300.46L492.07,295.28L487.22,292.88L482.15,294.76Z M487.23,305.26L492.30,304.47L495.23,300.67L494.85,295.89L490.72,292.32L485.92,292.22L482.29,295.36L481.71,300.13L487.23,305.26Z M458.35,287.01L456.05,293.07L459.38,298.08L465.65,298.39L469.58,294.17L468.98,288.25L463.97,285.05L458.35,287.01Z M486.19,286.32L483.89,292.35L487.19,297.37L493.16,297.85L496.66,295.20L497.84,291.15L495.84,286.32L491.01,284.32L486.19,286.32Z M527.71,284.29L522.28,287.69L521.91,293.53L526.61,297.54L532.45,296.47L535.40,291.23L533.20,285.94L527.71,284.29Z M534.69,281.48L529.83,286.03L530.66,291.40L536.64,294.28L541.79,292.36L543.43,286.50L540.30,281.83L534.69,281.48Z M481.87,285.80L483.84,290.75L488.62,292.78L493.44,290.86L495.84,286.24L494.60,281.65L490.66,278.98L485.58,279.72L481.87,285.80Z M522.23,278.69L518.86,282.26L518.71,286.85L521.56,290.46L526.07,291.38L530.70,289.09L532.37,284.82L530.90,280.47L526.98,278.10L522.23,278.69Z M540.98,275.49L536.33,277.81L534.69,282.09L536.20,286.41L540.54,288.83L545.93,287.50L548.68,282.45L546.49,277.13L540.98,275.49Z M540.37,274.85L536.41,279.68L537.76,285.41L546.26,287.17L549.93,283.01L549.50,277.84L545.55,274.47L540.37,274.85Z M467.97,275.14L465.54,280.92L468.41,285.97L474.42,286.90L479.21,282.11L478.32,276.18L473.38,273.26L467.97,275.14Z M516.82,286.21L522.45,285.24L525.26,280.82L523.81,275.37L518.91,272.62L513.62,274.54L511.37,279.13L512.75,283.70L516.82,286.21Z M512.39,285.06L516.91,281.82L517.66,277.44L515.42,273.62L510.69,272.17L503.98,277.37L504.46,281.91L507.83,284.98L512.39,285.06Z M509.20,266.62L506.21,270.63L506.57,275.28L509.83,278.62L516.96,277.92L519.88,273.27L518.66,268.23L514.26,265.49L509.20,266.62Z M531.53,263.32L526.86,265.68L525.26,270.03L526.86,274.37L531.28,276.68L536.07,275.62L539.22,270.62L537.17,265.07L531.53,263.32Z M508.52,266.05L508.37,272.12L512.58,275.72L518.32,274.79L521.44,268.81L518.66,263.29L512.93,262.23L508.52,266.05Z M464.55,270.44L468.02,274.90L473.25,275.35L477.05,272.57L478.15,268.20L475.95,263.76L470.48,261.70L465.43,264.66L464.55,270.44Z M472.00,267.80L475.46,272.29L480.71,272.75L484.49,269.99L485.61,265.66L483.46,261.22L478.00,259.10L472.92,262.01L472.00,267.80Z M523.87,253.85L518.46,257.22L518.03,262.99L522.58,267.04L528.35,266.18L531.53,261.19L529.51,255.63L523.87,253.85Z M470.76,244.47L473.32,249.00L477.81,250.43L482.40,248.56L484.46,244.31L482.87,239.26L477.69,236.44L472.28,238.78L470.76,244.47Z M470.90,184.87L475.94,184.27L478.98,180.78L479.10,175.85L476.03,172.27L470.81,171.71L466.17,175.37L466.21,181.27L470.90,184.87Z M463.60,173.72L469.33,174.09L473.13,170.26L472.63,164.12L467.32,161.00L462.33,162.28L459.84,166.06L460.34,170.57L463.60,173.72Z M492.91,897.15L490.35,885.59L485.12,886.61L487.78,898.46L492.91,897.15Z M519.05,651.57L522.37,646.94L521.40,642.25L517.48,639.51L511.89,639.85L508.89,643.25L509.18,648.62L513.38,652.56L519.05,651.57Z M511.39,644.09L513.27,649.86L518.64,651.73L524.21,648.73L525.04,643.20L520.59,638.69L514.62,639.05L511.39,644.09Z M518.44,645.31L523.35,648.90L528.50,647.41L531.43,642.34L529.80,637.63L525.30,635.49L519.83,636.88L517.53,640.83L518.44,645.31Z M523.52,637.27L521.94,642.32L524.05,646.55L529.96,648.28L534.75,644.39L535.24,638.89L532.18,635.24L527.46,634.59L523.52,637.27Z M525.36,639.83L528.96,644.54L534.55,644.81L538.52,640.66L537.49,634.10L531.94,631.28L526.55,633.95L525.36,639.83Z M504.72,628.71L498.54,629.71L495.93,634.57L497.13,639.38L500.79,641.89L506.03,641.14L509.57,637.16L509.01,631.87L504.72,628.71Z M528.70,630.39L528.21,637.63L535.10,640.01L538.65,635.26L538.03,628.51L534.74,626.55L528.70,630.39Z M528.15,631.47L533.20,634.47L538.46,632.71L540.70,627.64L539.20,623.34L534.43,620.54L529.42,621.93L526.83,626.44L528.15,631.47Z M506.16,631.12L514.38,630.91L517.21,625.88L515.00,620.55L509.44,619.00L504.38,621.91L503.35,626.89L506.16,631.12Z M528.11,616.83L526.01,621.58L527.62,626.22L531.94,628.59L536.62,627.74L539.70,619.83L536.83,615.85L532.29,614.76L528.11,616.83Z M510.62,618.93L510.93,623.83L515.45,627.72L521.30,626.52L523.93,621.16L522.25,616.25L518.05,614.00L513.41,615.07L510.62,618.93Z M527.28,616.28L529.37,621.52L534.10,623.38L538.79,621.38L540.72,616.67L538.59,611.21L533.79,609.38L529.11,611.48L527.28,616.28Z M538.15,619.28L543.21,613.71L541.88,609.08L537.48,607.07L529.42,613.11L530.17,617.47L533.79,620.03L538.15,619.28Z M478.40,601.08L474.72,605.87L476.25,611.69L481.79,614.05L486.80,611.81L488.58,606.92L486.41,602.20L478.40,601.08Z M480.97,606.56L485.78,611.97L491.57,611.33L494.74,606.44L492.97,600.89L487.33,598.35L482.25,600.99L480.97,606.56Z M489.29,611.12L494.32,609.44L496.54,605.26L495.02,600.05L491.00,597.29L486.17,597.99L482.91,602.38L483.88,608.37L489.29,611.12Z M469.97,589.55L465.39,593.69L465.78,599.32L470.65,602.74L477.16,600.47L478.85,594.74L475.62,590.08L469.97,589.55Z M464.09,587.85L463.34,592.84L466.07,596.72L470.71,598.05L474.97,595.76L476.33,590.00L473.63,585.25L468.25,584.31L464.09,587.85Z M506.39,586.30L506.35,591.53L509.47,594.94L514.06,595.52L518.08,592.78L518.17,584.45L514.15,581.84L509.42,582.58L506.39,586.30Z M509.11,580.99L511.70,588.30L517.82,588.13L519.72,582.52L517.63,577.34L513.99,575.34L510.18,576.98L509.11,580.99Z M503.92,576.74L509.02,580.09L514.28,578.43L516.53,573.40L515.28,569.49L510.55,566.23L505.54,567.37L502.79,571.72L503.92,576.74Z M488.75,561.63L485.25,566.66L486.84,572.06L492.24,574.39L498.09,571.03L498.74,564.92L494.53,560.90L488.75,561.63Z M466.48,561.38L473.95,557.33L474.08,551.65L469.82,547.90L464.20,548.74L460.75,553.52L461.94,558.68L466.48,561.38Z M459.73,558.61L465.07,560.59L469.45,558.48L471.22,553.94L468.67,548.71L463.09,546.79L458.65,549.28L457.27,554.16L459.73,558.61Z M476.42,553.54L481.90,554.66L485.91,551.74L487.07,545.93L483.84,541.90L478.69,541.50L474.05,544.97L473.54,549.72L476.42,553.54Z M507.49,548.11L511.88,551.55L516.89,550.85L520.00,547.36L520.17,542.91L517.03,538.98L511.16,538.11L506.88,542.21L507.49,548.11Z M515.20,537.86L511.19,543.27L512.52,548.62L517.50,551.00L522.50,548.67L524.88,543.46L523.37,539.31L519.55,537.10L515.20,537.86Z M526.89,532.90L529.10,538.01L534.31,539.81L539.17,537.21L540.81,532.13L538.58,527.61L533.86,525.84L529.01,527.94L526.89,532.90Z M510.38,537.35L516.98,538.22L520.99,534.22L520.63,528.79L516.36,525.41L511.20,525.71L507.98,529.02L507.66,533.62L510.38,537.35Z M471.75,526.82L474.35,532.22L479.53,533.53L484.28,530.96L485.66,526.33L482.87,521.38L478.01,519.64L473.36,521.91L471.75,526.82Z M528.75,528.71L532.49,533.04L537.98,532.91L541.45,528.65L541.12,523.08L537.56,519.97L532.83,520.07L529.09,523.95L528.75,528.71Z M530.39,524.85L531.80,530.74L536.80,532.96L541.71,530.55L544.00,525.35L538.66,519.06L533.59,520.23L530.39,524.85Z M456.82,525.90L459.07,530.85L463.93,532.63L468.91,530.23L470.81,525.39L468.76,520.61L463.67,518.64L458.67,520.79L456.82,525.90Z M460.94,515.73L464.98,519.86L470.60,519.36L474.22,515.27L473.95,510.49L470.55,507.13L465.09,507.14L461.20,510.56L460.94,515.73Z M534.93,506.59L533.18,511.57L534.95,515.71L538.95,517.79L543.78,516.59L546.89,511.77L545.20,505.97L539.91,503.86L534.93,506.59Z M472.10,516.81L479.26,516.29L482.27,511.35L480.28,505.92L474.79,504.10L469.41,507.11L468.54,512.57L472.10,516.81Z M475.39,503.32L479.44,507.38L485.02,506.87L488.65,502.77L488.37,497.99L484.95,494.63L479.47,494.68L475.61,498.14L475.39,503.32Z M477.76,502.23L484.64,501.73L487.78,496.80L485.82,491.30L480.27,489.46L474.89,492.53L474.09,498.04L477.76,502.23Z M453.60,490.88L457.23,496.08L463.46,495.96L467.20,491.88L466.96,487.04L463.52,483.64L458.68,483.47L454.53,486.50L453.60,490.88Z M524.59,487.83L528.39,491.25L532.95,491.28L536.49,488.39L537.34,483.63L535.09,479.53L530.49,477.66L526.10,479.22L523.76,483.25L524.59,487.83Z M551.73,481.74L556.83,482.04L560.44,479.14L561.31,474.59L558.48,470.09L553.13,468.55L548.46,471.57L547.75,477.36L551.73,481.74Z M526.29,476.56L531.26,477.21L535.20,474.54L536.46,469.95L532.60,464.33L527.12,463.91L523.19,467.37L522.85,472.60L526.29,476.56Z M468.99,452.50L475.86,452.70L479.47,448.15L478.13,442.50L472.86,440.05L467.13,442.51L465.74,447.94L468.99,452.50Z M468.20,448.48L475.00,448.85L478.77,444.38L477.54,438.67L472.28,436.13L466.52,438.50L465.05,443.88L468.20,448.48Z M468.01,441.80L474.91,442.20L478.64,437.73L477.42,432.04L472.19,429.49L466.43,431.82L464.92,437.18L468.01,441.80Z M515.08,434.37L517.00,439.83L521.91,441.84L527.06,439.34L528.80,434.04L525.94,429.24L521.08,427.88L516.87,430.00L515.08,434.37Z M518.86,421.68L515.79,426.21L516.66,430.95L520.49,433.88L525.79,433.27L529.39,428.97L528.63,423.42L524.13,420.39L518.86,421.68Z M505.67,424.70L507.44,429.39L511.82,431.60L516.55,430.30L519.52,425.95L518.76,421.15L515.01,418.08L509.80,418.43L505.67,424.70Z M516.81,401.20L513.83,405.30L514.28,409.91L517.57,413.17L522.44,413.50L526.62,410.27L527.17,404.28L522.75,400.19L516.81,401.20Z M532.52,393.35L529.33,398.65L520.76,400.52L530.33,403.23L534.49,394.37L532.52,393.35Z M468.95,397.11L474.34,398.16L478.94,394.69L479.03,389.34L474.98,385.85L469.09,385.88L466.03,389.20L465.97,393.72L468.95,397.11Z M536.92,377.29L532.49,380.00L531.23,384.34L533.03,388.48L537.40,390.56L542.07,389.39L544.90,385.75L544.68,381.14L541.52,377.78L536.92,377.29Z M534.35,386.20L538.11,388.90L542.68,388.59L546.46,384.89L546.43,379.61L542.20,375.78L536.55,376.14L533.14,380.66L534.35,386.20Z M536.25,384.13L541.44,388.10L547.02,386.73L549.50,381.55L546.54,375.89L540.77,374.49L536.14,378.20L536.25,384.13Z M540.21,383.19L544.11,385.85L548.73,385.38L552.33,381.58L552.16,376.34L547.92,372.63L542.26,373.08L538.91,377.66L540.21,383.19Z M465.89,377.13L472.32,381.86L477.38,380.15L479.34,375.17L475.51,369.49L470.24,368.40L466.02,371.75L465.89,377.13Z M528.39,359.77L532.21,362.50L536.84,362.14L540.57,358.37L540.45,353.08L536.14,349.32L530.55,349.77L527.20,354.28L528.39,359.77Z M536.31,274.79L539.67,281.57L544.58,281.75L548.18,276.26L546.99,271.24L541.79,268.23L537.53,270.24L536.31,274.79Z M471.15,271.45L475.95,275.97L481.91,274.63L484.52,269.57L482.13,264.10L476.50,262.24L471.57,265.53L471.15,271.45Z M458.57,267.96L462.07,272.24L467.15,272.65L470.95,269.91L472.09,265.57L469.91,261.09L464.36,258.99L459.28,262.07L458.57,267.96Z M472.28,254.85L475.73,259.46L481.05,259.94L484.82,257.16L485.92,252.84L483.77,248.41L478.36,246.29L473.29,249.13L472.28,254.85Z M471.87,248.87L475.34,253.40L480.62,253.85L484.39,251.06L485.48,246.73L483.30,242.29L477.86,240.21L472.80,243.11L471.87,248.87Z M510.63,239.52L510.18,245.12L513.55,248.83L519.28,248.92L522.93,244.51L522.51,238.97L518.82,235.87L514.02,236.10L510.63,239.52Z M470.26,234.24L469.36,239.58L471.89,243.33L476.25,244.55L480.68,242.36L481.83,233.82L478.24,230.91L473.63,231.08L470.26,234.24Z M511.91,240.54L516.33,242.38L520.82,240.81L523.46,236.27L521.96,231.24L516.46,228.85L511.46,230.76L509.52,235.75L511.91,240.54Z M468.99,236.82L474.10,240.33L479.38,238.72L481.65,233.69L480.47,229.89L475.77,226.50L470.77,227.55L467.97,231.81L468.99,236.82Z M518.15,225.55L515.46,230.69L516.76,234.89L520.45,237.29L524.85,236.75L529.36,229.59L527.25,225.14L522.62,223.46L518.15,225.55Z M468.48,231.98L473.79,235.28L478.85,233.08L480.24,227.75L476.64,221.97L471.16,221.86L467.67,226.09L468.48,231.98Z M515.75,227.55L519.94,230.16L524.60,229.36L527.75,225.67L527.61,220.81L523.69,217.07L517.82,217.18L514.27,221.86L515.75,227.55Z M466.02,212.26L463.55,216.80L465.11,221.67L469.33,224.34L474.19,223.14L476.84,217.56L475.37,212.67L470.79,210.43L466.02,212.26Z M512.85,212.28L510.59,217.99L513.46,222.59L519.77,224.07L523.77,220.65L523.83,215.39L520.50,211.10L512.85,212.28Z M461.56,215.72L465.39,221.95L470.93,222.33L474.86,218.40L474.14,212.25L469.44,208.86L463.86,210.40L461.56,215.72Z M499.39,199.52L496.00,204.46L497.42,209.66L502.20,212.15L506.50,211.22L509.35,207.78L509.27,202.16L504.94,198.57L499.39,199.52Z M497.83,198.01L496.06,202.70L497.79,207.08L501.96,209.25L507.06,207.82L509.82,204.00L509.40,199.30L506.00,196.04L497.83,198.01Z M496.38,194.46L492.84,199.96L495.09,205.46L501.21,206.96L505.89,203.50L506.31,197.49L502.06,193.63L496.38,194.46Z M497.87,197.30L500.00,203.18L505.71,204.94L509.96,202.74L511.73,198.53L510.26,193.87L505.63,191.08L500.41,192.52L497.87,197.30Z M494.17,192.07L492.71,196.81L494.64,201.06L498.87,203.03L503.87,201.43L506.50,197.52L505.94,192.85L502.45,189.68L494.17,192.07Z M498.64,196.69L502.50,201.25L507.85,201.06L511.22,196.91L510.59,190.56L506.04,187.79L500.96,189.38L498.64,196.69Z M474.89,187.13L473.67,192.19L476.11,196.50L480.82,198.05L486.30,194.86L487.36,189.49L484.39,185.18L479.24,184.20L474.89,187.13Z M497.55,194.93L501.96,196.74L506.41,195.18L509.06,190.66L507.59,185.64L502.15,183.21L497.09,185.09L495.12,190.11L497.55,194.93Z M487.07,178.51L483.71,182.48L483.86,187.05L486.90,190.45L491.75,191.07L495.91,188.38L497.38,184.00L495.67,179.71L491.59,177.54L487.07,178.51Z M495.01,178.67L492.22,183.04L493.28,188.04L497.54,190.87L503.00,189.65L505.96,185.40L505.05,180.30L500.82,177.33L495.01,178.67Z M482.29,176.37L478.80,181.81L480.96,187.28L486.93,188.91L491.68,185.65L492.41,179.75L488.18,175.57L482.29,176.37Z M494.50,186.55L500.95,186.92L504.63,182.04L503.20,176.26L497.71,173.98L492.05,176.75L491.00,182.22L494.50,186.55Z M484.55,175.54L482.99,180.22L484.83,184.51L489.01,186.58L494.04,185.10L496.78,181.17L496.22,176.41L492.65,173.23L484.55,175.54Z M489.52,175.78L489.83,180.98L493.46,184.34L498.68,184.43L502.34,180.99L502.54,175.61L498.77,171.47L493.18,171.54L489.52,175.78Z M478.27,182.91L483.37,182.20L486.33,178.60L486.31,173.74L483.23,170.27L478.06,169.75L473.41,173.45L473.51,179.38L478.27,182.91Z M438.59,171.39L440.31,176.41L444.60,178.61L451.85,173.95L448.90,165.68L444.31,164.72L440.22,166.99L438.59,171.39Z M466.11,175.59L471.06,175.05L474.22,171.50L474.39,166.72L471.33,163.04L466.05,162.44L461.41,166.09L461.45,171.99L466.11,175.59Z M477.20,164.40L475.34,169.70L477.38,173.92L481.71,175.72L486.46,173.94L488.87,166.55L485.98,162.71L481.26,161.85L477.20,164.40Z M466.51,154.79L467.01,159.69L470.48,162.87L475.28,163.12L479.02,160.08L479.64,154.74L476.00,150.12L470.12,150.14L466.51,154.79Z M468.24,162.74L473.16,162.25L476.34,158.77L476.58,153.95L473.54,150.22L468.20,149.61L463.58,153.25L463.60,159.13L468.24,162.74Z M474.44,157.82L478.31,161.02L483.10,160.79L486.66,157.54L487.14,152.75L483.81,148.53L477.95,147.79L473.76,151.95L474.44,157.82Z M474.97,148.35L475.50,153.29L479.03,156.46L483.84,156.64L487.53,153.56L488.08,148.21L484.41,143.64L478.55,143.70L474.97,148.35Z M483.67,138.55L479.07,140.67L477.25,145.26L478.85,150.13L483.44,152.39L489.06,149.97L491.23,144.97L488.91,140.05L483.67,138.55Z M480.84,140.47L483.10,147.03L489.20,148.29L493.94,144.24L493.49,138.46L488.75,134.69L483.52,135.83L480.84,140.47Z M475.18,139.75L479.09,142.85L483.84,142.55L487.35,139.26L487.78,134.46L484.40,130.29L478.51,129.63L474.37,133.88L475.18,139.75Z M464.41,129.91L462.53,138.64L465.92,141.81L470.69,142.13L474.47,139.19L475.32,134.48L472.93,129.99L468.68,128.42L464.41,129.91Z M490.44,131.14L487.28,138.23L490.84,143.06L496.06,139.27L497.64,133.59L495.09,129.27L490.44,131.14Z M490.07,129.76L493.72,134.98L499.19,134.87L503.72,130.21L502.90,125.24L497.06,122.27L491.59,124.17L490.07,129.76Z M472.11,122.11L470.54,130.89L474.02,133.93L478.82,134.10L482.50,131.02L483.18,126.27L480.62,121.87L476.32,120.47L472.11,122.11Z M485.18,125.62L485.71,130.56L489.24,133.72L494.04,133.91L497.73,130.83L498.29,125.49L494.62,120.91L488.75,120.97L485.18,125.62Z M468.97,130.17L472.77,133.25L477.43,133.07L481.08,129.85L481.61,125.00L478.25,120.75L472.35,120.05L468.19,124.28L468.97,130.17Z M480.50,124.52L481.02,129.78L484.68,132.90L489.51,132.93L493.00,129.93L493.63,124.82L490.11,120.11L484.23,119.98L480.50,124.52Z M466.74,123.93L467.33,128.87L470.92,131.99L475.74,132.10L479.39,128.95L479.85,123.59L476.10,119.09L470.24,119.24L466.74,123.93Z M482.28,125.62L486.14,128.77L490.90,128.53L494.47,125.26L494.93,120.44L491.55,116.23L485.68,115.57L481.54,119.76L482.28,125.62Z M492.24,121.74L495.07,127.79L500.02,128.58L503.84,125.33L505.05,119.00L502.36,115.62L496.95,115.18L493.33,117.54L492.24,121.74Z M463.40,113.81L464.50,120.10L469.73,122.67L475.00,120.17L476.63,115.15L474.62,110.59L470.41,108.69L465.96,109.96L463.40,113.81Z M491.04,114.81L493.52,120.88L498.31,122.10L502.46,119.58L503.52,114.99L500.84,109.40L496.42,108.23L492.41,110.44L491.04,114.81Z M459.94,110.23L460.25,115.43L463.59,118.65L468.23,118.93L472.08,115.89L471.47,107.49L467.29,105.27L462.68,106.36L459.94,110.23Z M470.31,113.05L475.46,115.87L480.29,113.80L481.69,107.39L478.64,102.75L473.10,102.32L469.37,106.44L470.31,113.05Z M465.63,107.04L469.30,111.83L475.03,111.89L478.87,106.92L477.78,101.22L472.64,98.51L467.31,100.81L465.63,107.04Z M462.54,105.32L467.43,108.90L472.44,107.65L475.06,102.18L472.84,96.57L466.33,95.35L461.85,99.35L462.54,105.32Z M459.06,98.49L460.07,104.57L465.01,107.27L470.47,105.06L472.25,99.01L468.60,94.00L462.74,93.93L459.06,98.49Z" fill="currentColor" fill-rule="evenodd"/></svg>
