<svg xmlns="http://www.w3.org/2000/svg" viewBox="0 0 1000 1000" role="img" aria-label="Map of Mali"><path d="M100.00,642.05L106.07,641.56L109.39,644.11L121.52,635.69L120.29,621.49L126.04,603.08L131.48,603.08L135.87,597.88L141.43,599.97L165.41,625.37L174.61,608.58L194.13,608.37L206.50,612.05L237.71,608.20L236.36,600.68L240.98,595.11L241.33,605.39L427.43,605.47L435.08,563.88L421.98,552.90L374.96,122.32L460.85,122.28L750.22,320.28L751.85,325.69L750.61,338.74L757.50,339.01L760.77,342.86L770.26,345.93L774.34,349.73L775.08,356.10L780.85,360.84L784.57,361.32L786.34,364.52L789.43,363.35L795.06,365.47L801.34,362.38L811.02,373.44L837.47,379.28L849.73,385.44L849.76,399.01L852.74,407.42L845.14,420.28L853.90,427.39L857.48,428.35L899.66,419.94L900.00,529.10L897.40,538.57L897.49,558.58L891.51,564.57L882.33,594.25L865.62,605.38L864.68,612.60L841.72,608.91L840.10,613.35L759.19,616.18L741.84,631.05L727.12,633.67L719.59,630.93L711.76,632.46L705.36,630.81L705.23,635.13L683.16,627.26L673.99,630.47L671.95,626.54L659.74,626.61L642.34,640.96L629.16,645.10L612.36,656.23L597.80,657.52L595.92,672.24L590.30,673.52L575.28,667.17L568.70,670.15L555.61,681.43L552.66,691.65L554.26,699.17L545.90,701.46L543.11,697.87L535.26,696.83L537.12,717.43L527.43,718.80L527.38,723.73L522.75,723.44L510.45,714.66L502.07,712.65L504.67,709.38L501.60,706.94L501.81,708.89L488.40,720.66L489.31,723.39L484.83,723.74L483.67,726.30L489.57,734.91L490.42,741.51L488.20,746.51L477.16,746.83L481.91,756.02L478.79,761.03L481.00,767.54L477.02,766.86L472.30,773.14L473.52,775.57L463.78,782.84L447.87,784.23L438.86,791.44L432.21,791.89L438.28,795.43L437.29,802.62L440.86,804.74L441.62,812.56L439.43,814.19L439.46,821.24L436.08,827.85L427.76,830.33L431.29,841.93L428.85,857.66L426.87,863.25L423.40,861.80L409.63,865.76L408.34,870.89L405.51,870.51L402.95,875.23L392.08,872.08L394.96,863.52L394.49,859.91L391.05,858.74L393.81,852.87L391.31,847.94L383.02,850.00L384.36,854.76L382.10,856.80L371.27,851.62L371.29,866.53L357.11,867.35L355.37,872.03L357.20,875.45L354.47,877.72L350.08,874.35L337.61,872.06L337.18,867.35L333.69,867.89L330.92,861.56L328.26,863.67L323.02,862.66L315.04,874.12L307.25,876.65L306.93,868.19L301.15,866.57L300.18,863.16L295.65,863.35L292.42,857.56L290.17,846.07L292.03,840.39L290.91,832.82L282.23,831.35L279.62,835.48L272.99,835.93L282.87,819.90L288.48,819.05L286.09,816.72L288.55,815.33L281.17,812.50L280.10,809.10L274.91,808.78L271.52,801.00L265.67,800.57L267.00,782.53L262.04,780.87L262.44,774.54L258.38,771.23L259.43,764.42L251.12,759.50L238.96,759.11L243.27,764.98L241.93,769.45L227.81,774.52L223.21,781.88L196.83,772.10L184.97,777.17L182.65,783.42L175.29,788.75L170.61,782.01L170.75,778.29L163.61,772.01L158.76,772.87L152.02,782.44L145.06,781.84L136.67,773.43L139.61,764.13L142.45,763.62L142.98,758.75L138.61,755.53L142.44,733.81L140.02,734.41L139.46,728.50L135.45,726.63L131.57,713.97L125.35,711.58L121.14,716.69L117.77,713.44L118.12,708.66L108.07,696.49L114.60,690.13L111.58,682.21L112.92,673.01L107.20,663.40L102.06,661.56L101.34,655.04L104.81,648.81L100.00,642.05Z" fill="currentColor" fill-rule="evenodd"/></svg>
