<svg xmlns="http://www.w3.org/2000/svg" viewBox="0 0 1000 1000" role="img" aria-label="Map of Marshall Islands"><path d="M452.60,817.88L453.84,822.81L457.48,824.31L462.09,822.13L463.61,815.11L458.19,810.31L454.58,811.72L452.60,817.88Z M739.85,785.68L745.94,785.26L748.64,781.79L748.16,777.07L742.70,773.57L736.96,775.10L734.94,779.04L736.11,783.31L739.85,785.68Z M754.82,704.91L761.66,700.53L762.64,695.94L758.70,691.70L754.77,691.26L749.72,696.29L748.85,700.26L754.82,704.91Z M503.11,903.66L509.91,900.99L512.48,894.85L511.00,892.55L508.35,891.87L498.99,898.25L498.70,901.01L503.11,903.66Z M573.43,802.19L578.55,790.88L584.77,785.27L579.32,791.20L575.39,802.36L573.43,802.19Z M765.63,778.23L756.77,777.68L755.88,783.41L759.99,785.99L767.83,784.71L768.95,782.18L765.63,778.23Z M743.69,708.84L732.47,706.13L729.59,702.85L743.69,708.84Z M715.15,697.85L702.71,701.22L700.11,700.84L689.01,695.82L687.02,694.25L688.17,693.01L688.71,695.18L702.02,700.58L715.15,697.85Z M501.29,681.92L510.44,684.11L514.55,682.35L501.57,680.13L501.29,681.92Z M498.47,672.25L494.91,664.98L490.40,664.98L487.04,671.24L489.03,676.46L494.32,678.38L497.70,676.20L498.47,672.25Z M364.66,370.38L353.34,372.71L352.84,376.44L355.46,379.14L358.56,380.28L365.34,377.08L366.61,373.57L364.66,370.38Z M541.54,818.73L542.80,812.57L538.87,808.29L533.11,808.49L529.57,814.04L531.20,819.59L536.58,821.70L541.54,818.73Z M740.29,701.48L739.09,706.04L744.91,710.30L752.43,701.20L750.63,697.63L746.84,696.35L740.29,701.48Z M524.56,653.23L518.34,654.57L516.31,658.38L517.39,662.56L521.03,664.90L528.37,663.52L530.27,659.12L528.59,655.03L524.56,653.23Z M395.09,599.77L395.30,604.93L399.24,608.44L404.56,608.43L408.14,604.48L407.63,599.18L403.20,595.24L398.21,595.83L395.09,599.77Z M434.58,568.61L432.85,563.14L428.36,561.05L423.69,562.67L420.71,567.56L421.91,572.14L426.64,574.90L432.09,573.62L434.58,568.61Z M666.50,551.79L665.39,558.21L669.87,562.31L675.76,561.48L678.45,556.17L676.13,550.18L670.94,548.76L666.50,551.79Z M631.29,508.45L624.82,503.37L619.98,505.04L617.76,509.66L619.49,514.48L624.10,517.29L628.49,516.40L631.31,512.92L631.29,508.45Z M681.21,445.48L678.92,439.65L673.44,438.19L668.77,441.29L668.23,446.87L671.45,451.22L675.86,451.98L679.73,449.71L681.21,445.48Z M250.46,341.72L255.68,344.80L260.09,343.50L262.51,339.59L261.16,334.16L257.62,331.33L251.96,331.65L248.75,336.32L250.46,341.72Z M241.57,328.88L237.42,324.76L231.99,325.20L228.43,329.25L228.77,334.24L232.99,337.82L238.10,337.67L241.63,333.99L241.57,328.88Z M522.45,96.95L520.08,102.07L521.84,106.12L525.91,107.85L532.12,104.41L534.06,100.42L532.70,96.19L528.80,94.08L522.45,96.95Z" fill="currentColor" fill-rule="evenodd"/></svg>
