<svg xmlns="http://www.w3.org/2000/svg" viewBox="0 0 1000 1000" role="img" aria-label="Map of Mauritania"><path d="M634.90,100.00L864.62,245.99L759.22,246.05L816.92,785.69L832.99,799.45L823.61,851.57L595.22,851.48L596.41,841.31L594.79,838.59L589.12,845.57L590.78,854.99L552.47,859.82L537.30,855.21L513.34,855.47L512.06,861.33L507.28,864.73L502.04,876.51L494.30,865.85L479.25,854.32L472.63,844.69L465.79,842.06L466.33,844.18L460.41,848.58L453.73,848.58L446.68,871.66L445.77,879.95L448.58,881.25L448.18,889.45L433.31,900.00L429.23,896.80L422.81,897.92L414.73,892.89L408.64,881.97L400.43,876.55L394.83,876.48L391.10,873.74L390.65,869.42L384.63,867.08L388.22,864.98L382.81,859.78L380.11,850.62L373.00,851.66L371.46,845.06L363.84,843.33L364.41,837.73L360.97,834.01L359.19,823.76L351.81,812.84L348.14,813.27L349.14,809.45L338.19,812.59L334.59,807.25L328.26,811.65L325.40,806.98L320.63,804.67L319.81,797.79L294.29,777.21L289.15,779.02L264.19,778.50L260.52,775.26L256.79,779.01L252.59,776.92L253.44,781.08L251.54,782.19L234.32,784.40L231.38,782.27L227.76,786.05L218.99,788.65L205.62,786.29L196.29,787.75L191.61,783.97L183.19,785.98L179.55,790.28L176.55,804.36L172.19,806.96L167.21,831.52L167.99,798.12L171.69,787.92L172.16,778.29L194.79,720.86L197.39,682.84L195.35,661.00L187.31,629.21L182.66,619.80L177.57,613.99L171.69,611.59L167.62,603.84L178.11,601.61L182.53,594.37L176.19,598.53L177.79,593.74L171.81,601.82L174.34,593.45L185.57,577.52L184.73,570.56L180.84,571.40L186.25,564.14L183.95,555.72L187.45,549.50L178.78,537.76L173.93,523.31L171.69,522.97L175.17,521.34L170.87,521.34L167.99,517.27L167.21,528.62L159.46,521.18L159.55,517.39L144.89,490.49L139.04,498.64L139.72,504.94L137.04,506.78L136.60,515.49L135.38,506.72L141.87,479.94L377.08,479.38L372.44,405.31L368.77,392.99L368.93,384.62L377.08,372.00L400.64,355.89L416.44,352.60L436.34,343.77L436.58,182.26L634.59,181.93L634.90,100.00Z M174.60,576.76L178.90,572.76L177.64,582.15L173.75,589.79L171.88,584.47L174.60,576.76Z M175.35,583.61L172.87,590.78L176.44,592.90L184.61,581.76L181.61,578.96L175.35,583.61Z M166.78,578.43L165.81,586.98L172.37,589.92L176.08,586.03L176.31,580.63L174.17,577.18L170.21,576.27L166.78,578.43Z M166.73,530.18L171.67,533.76L175.85,532.73L178.19,529.12L177.91,522.62L174.52,520.04L168.63,521.28L165.55,525.28L166.73,530.18Z" fill="currentColor" fill-rule="evenodd"/></svg>
