<svg xmlns="http://www.w3.org/2000/svg" viewBox="0 0 1000 1000" role="img" aria-label="Map of Mexico"><path d="M636.27,435.62L623.33,475.60L621.47,495.19L619.02,495.66L620.57,499.43L621.54,497.02L621.03,518.17L617.28,528.54L618.71,526.51L620.57,542.34L631.80,557.09L629.21,565.02L627.86,560.48L630.44,557.74L620.05,542.34L623.18,555.00L627.42,559.30L627.24,561.51L635.99,582.29L653.53,603.75L657.72,618.54L671.30,633.23L666.09,631.67L668.79,635.52L675.96,636.45L671.80,633.23L685.52,635.84L689.71,639.73L695.70,641.17L703.79,651.31L721.11,647.77L726.28,643.93L719.64,646.50L726.89,643.45L736.91,643.07L737.60,645.90L737.37,643.46L744.49,642.44L748.00,638.96L749.21,643.45L748.53,638.31L755.88,636.78L767.42,636.23L769.48,638.79L767.37,637.93L764.78,640.21L768.93,641.34L766.86,638.91L768.59,639.27L770.80,644.57L771.21,641.74L779.09,643.25L778.64,641.17L786.78,637.18L783.83,637.95L784.67,635.00L780.90,632.85L785.38,628.88L778.61,632.77L797.20,619.18L799.37,606.95L804.57,602.28L804.26,585.41L808.24,571.66L822.05,564.71L839.06,562.55L863.90,555.57L885.94,560.41L888.94,557.03L882.00,557.83L889.62,555.37L896.78,560.61L898.96,568.03L895.59,576.56L881.56,594.04L881.47,603.19L880.31,606.08L881.22,602.52L880.36,601.10L875.58,610.23L873.71,609.19L875.41,613.77L881.28,612.44L879.07,611.51L881.31,610.17L882.01,611.78L875.36,619.13L876.29,621.62L880.79,618.87L871.10,649.87L868.81,643.07L865.21,641.54L866.25,631.16L860.91,636.09L863.36,636.03L860.01,641.74L853.84,642.77L845.16,658.30L840.66,655.31L838.02,656.91L837.85,660.41L791.81,660.51L791.58,675.92L780.20,676.30L784.32,677.90L789.99,685.40L796.51,688.23L800.65,697.11L806.66,698.88L805.59,707.72L772.68,708.76L760.77,730.52L764.25,735.99L760.40,750.45L744.87,733.58L747.48,735.47L746.70,733.29L711.98,704.19L705.50,702.21L704.55,703.67L716.50,710.51L705.67,705.54L697.33,704.94L700.91,701.44L698.65,700.41L695.55,703.34L693.38,698.73L688.71,703.05L694.51,702.57L692.08,703.72L696.21,704.96L686.55,705.29L679.34,711.12L652.30,719.87L633.07,712.21L620.27,711.01L610.18,704.68L612.79,704.86L600.56,701.76L594.90,695.13L572.50,691.19L564.21,685.36L537.24,675.58L513.72,655.99L508.65,657.61L479.06,647.93L463.44,631.16L454.56,627.10L453.98,624.63L451.83,625.46L437.83,618.28L435.46,612.24L424.39,599.25L420.02,588.91L431.52,584.04L429.04,579.32L423.91,578.95L431.75,570.88L433.00,560.34L426.34,555.16L421.70,546.20L417.46,527.37L401.55,512.30L399.20,506.16L386.24,490.36L366.94,475.70L374.56,480.34L373.76,475.43L371.37,477.18L363.47,472.21L366.77,475.24L364.19,473.89L360.35,468.14L362.41,468.95L362.25,463.53L360.65,462.21L359.66,467.13L353.59,459.18L357.25,462.76L358.42,460.60L361.79,461.38L352.99,457.58L352.75,454.82L351.79,458.24L350.89,455.06L343.39,452.37L346.87,452.56L342.53,451.74L342.45,447.35L339.23,446.80L338.39,449.39L333.68,447.46L337.11,447.23L340.70,440.06L335.04,445.97L330.29,443.33L332.66,446.89L326.25,444.43L329.37,442.65L327.06,441.24L326.25,443.13L325.67,434.07L331.14,425.19L333.85,428.70L334.38,426.66L331.95,424.23L330.31,425.45L330.15,420.94L324.40,414.19L322.65,414.90L324.12,416.22L316.79,414.83L312.20,404.09L304.08,403.00L298.15,399.09L300.60,398.77L297.43,396.69L295.51,389.42L297.50,386.61L295.95,384.35L298.38,383.01L289.90,382.09L290.16,379.81L288.96,383.96L286.10,380.51L283.43,381.30L275.01,368.84L268.19,366.83L262.10,358.66L264.15,357.37L256.61,352.86L254.77,343.24L250.43,342.43L251.28,338.55L241.96,326.83L241.51,318.53L233.54,305.87L233.24,291.21L219.83,287.81L218.89,283.07L210.85,278.50L209.56,283.23L205.01,282.66L184.28,270.01L190.57,278.70L187.95,293.46L192.34,299.04L193.47,318.86L196.82,325.25L200.66,330.58L205.02,331.40L219.48,344.16L222.29,354.93L224.57,353.05L226.60,357.45L229.99,356.77L232.95,365.60L239.44,367.35L241.28,383.27L245.71,389.05L251.86,392.00L255.44,401.29L262.07,404.52L260.39,407.69L266.27,418.90L268.98,418.63L264.57,410.40L271.93,415.49L277.95,431.96L278.32,440.76L282.95,447.62L285.60,448.04L288.50,458.31L294.07,465.48L292.69,474.53L295.94,482.83L303.13,484.98L300.42,485.04L302.23,486.76L303.75,483.84L302.95,480.76L305.47,480.36L311.66,488.55L315.69,488.09L319.02,499.05L324.79,502.09L326.16,506.60L324.13,513.22L313.99,520.87L311.36,520.31L303.58,502.48L274.86,480.88L276.99,481.82L268.93,473.66L265.55,475.88L260.61,465.71L261.66,469.30L259.92,466.65L258.59,468.50L258.37,462.26L257.16,465.72L256.63,463.52L260.04,449.19L258.76,442.38L258.19,448.35L256.30,435.91L250.65,428.05L243.41,425.77L234.02,418.15L232.55,412.77L230.10,414.14L231.87,407.92L228.72,413.92L223.66,412.49L219.46,414.66L214.93,408.50L199.30,402.23L197.49,395.89L184.45,386.68L182.91,383.63L197.68,385.75L202.30,382.97L203.16,386.80L207.69,390.50L208.40,388.06L211.47,389.01L212.35,387.26L208.80,385.00L208.98,387.24L206.73,386.94L206.41,381.03L203.31,382.24L206.89,377.20L207.60,381.50L207.23,378.88L209.29,378.75L207.13,372.47L208.57,365.23L185.73,341.52L167.40,331.10L167.34,327.18L164.53,325.25L163.87,314.81L160.38,313.30L161.43,311.96L160.04,310.65L159.65,314.46L158.52,311.14L158.30,302.23L151.29,297.99L151.13,290.73L142.69,281.55L143.39,278.61L140.80,276.04L143.50,276.54L144.30,273.54L137.90,268.85L131.33,254.55L191.99,249.55L189.52,255.41L285.93,287.76L356.45,287.76L356.44,275.34L401.57,275.87L407.12,283.62L439.33,307.53L445.72,319.04L445.74,325.95L449.88,333.90L478.43,351.15L485.10,352.04L491.77,345.62L491.16,342.46L496.01,331.62L503.21,330.51L505.36,327.29L510.70,329.82L528.50,330.47L530.84,335.45L532.82,334.77L547.09,348.74L557.05,371.87L562.57,375.71L568.22,385.67L576.25,390.86L577.59,405.52L582.99,411.86L586.57,423.01L594.28,424.41L608.90,432.59L623.12,433.83L629.04,438.67L636.27,435.62Z M191.34,652.06L197.27,648.80L197.82,643.95L194.69,640.12L190.00,639.82L184.78,643.38L184.32,647.78L186.98,651.30L191.34,652.06Z M281.88,628.78L279.59,635.18L281.72,638.21L287.61,640.33L292.64,636.82L289.95,628.34L285.80,626.44L281.88,628.78Z M285.17,616.07L284.46,621.15L286.97,625.08L290.97,626.11L295.75,623.19L297.40,619.49L295.63,614.64L292.11,612.30L285.17,616.07Z M407.76,557.27L400.69,559.63L399.16,565.05L403.87,570.18L409.76,570.02L412.94,565.06L411.71,559.62L407.76,557.27Z M397.31,554.84L394.71,558.52L397.56,564.42L404.31,566.05L407.41,563.39L408.21,557.74L404.99,554.69L397.31,554.84Z M403.93,554.05L396.84,548.67L391.21,551.49L391.75,557.38L396.27,561.73L400.58,562.26L403.62,559.16L403.93,554.05Z M390.61,547.32L389.53,555.15L393.53,558.58L399.27,557.42L402.03,551.23L399.41,546.07L394.75,544.88L390.61,547.32Z M309.36,480.13L311.21,487.34L318.22,489.26L319.66,484.37L316.37,477.83L311.87,475.96L309.36,480.13Z M271.75,475.06L265.75,477.14L265.80,482.79L276.67,484.43L278.42,479.12L271.75,475.06Z M264.10,472.45L258.36,473.66L257.63,475.93L266.33,483.94L270.14,483.88L270.65,477.30L264.10,472.45Z M297.37,476.51L300.45,482.66L303.42,483.10L308.53,476.94L302.34,469.25L298.43,470.37L297.37,476.51Z M289.58,459.50L295.31,469.55L301.49,467.26L298.87,458.60L292.88,455.85L289.58,459.50Z M257.90,470.82L259.31,474.92L256.36,471.80L256.88,469.33L253.12,467.98L257.65,454.92L255.42,466.45L257.90,470.82Z M339.13,445.80L333.58,446.79L332.80,452.15L343.76,455.37L345.94,450.33L339.13,445.80Z M297.67,444.89L294.65,437.98L290.18,437.43L285.68,445.55L292.67,451.16L296.56,449.13L297.67,444.89Z M286.80,430.18L278.92,431.60L277.13,437.76L280.23,443.32L287.67,435.93L286.80,430.18Z M304.97,406.79L313.11,412.16L316.93,410.49L318.57,406.66L317.13,402.74L313.45,399.79L307.80,399.58L304.96,402.62L304.97,406.79Z M293.68,402.90L299.09,404.27L302.12,402.17L300.31,392.25L297.15,390.49L293.61,391.22L291.13,395.04L293.68,402.90Z M178.47,367.24L173.83,377.52L180.40,380.92L183.20,375.16L181.71,368.61L178.47,367.24Z M234.69,364.65L241.04,368.85L245.01,367.34L247.02,363.28L245.10,359.17L239.23,355.71L235.00,356.74L233.03,360.63L234.69,364.65Z M239.21,360.38L241.65,365.85L245.93,367.22L251.11,365.42L253.12,360.03L251.45,355.17L246.69,353.26L240.57,355.57L239.21,360.38Z M254.65,358.18L256.13,351.44L254.05,344.89L248.83,346.85L245.83,355.42L251.62,358.84L254.65,358.18Z M231.30,344.33L232.65,352.37L223.02,344.08L221.12,337.05L225.57,339.27L226.20,343.39L231.30,344.33Z M185.41,273.44L186.09,279.14L189.74,282.05L196.55,282.13L198.86,278.77L198.01,274.78L192.97,270.15L188.36,269.91L185.41,273.44Z M886.55,647.13L888.64,637.19L882.50,635.41L878.39,645.77L880.50,648.30L886.55,647.13Z M880.19,635.57L881.30,641.10L884.66,643.32L891.07,639.45L891.41,635.02L888.41,630.19L884.50,629.56L880.19,635.57Z M771.10,640.14L780.60,636.20L778.91,630.67L767.28,636.32L767.35,638.52L771.10,640.14Z M897.59,581.68L891.01,585.21L889.54,589.57L891.09,594.88L894.42,594.50L899.83,587.84L900.97,582.75L897.59,581.68Z M905.62,568.40L902.06,559.75L898.04,558.92L894.49,560.97L893.24,566.10L899.16,572.79L903.25,571.85L905.62,568.40Z M617.31,549.98L621.08,556.32L625.67,557.30L629.25,554.25L629.01,549.56L624.29,543.78L620.57,543.82L617.31,549.98Z M622.35,530.37L625.57,524.39L624.09,519.70L619.54,517.86L614.97,520.55L612.86,527.30L614.95,530.64L622.35,530.37Z M106.07,353.94L102.80,344.19L97.54,347.59L101.85,358.14L106.07,353.94Z M226.96,420.17L234.48,421.16L237.25,417.84L235.78,412.02L230.40,409.45L224.27,412.29L223.76,416.87L226.96,420.17Z M818.75,528.35L823.69,538.65L827.02,538.53L829.90,535.61L830.13,530.25L827.00,526.29L821.72,525.13L818.75,528.35Z M294.48,473.40L299.60,473.49L303.04,470.37L303.38,464.96L300.14,460.77L294.87,460.30L290.66,464.48L290.62,469.78L294.48,473.40Z M159.34,465.66L162.67,469.69L167.83,470.28L171.86,467.37L172.93,462.54L170.50,458.18L164.88,456.61L160.03,459.86L159.34,465.66Z M286.55,455.10L289.09,460.11L293.81,461.35L299.01,457.53L300.05,452.14L296.51,447.96L291.02,448.12L286.55,455.10Z M261.75,455.60L261.47,446.06L255.66,445.63L254.34,456.95L256.92,458.58L261.75,455.60Z M278.61,444.98L284.80,450.57L289.14,449.34L291.79,444.37L290.85,439.60L286.80,436.91L281.52,437.39L278.61,444.98Z M274.28,444.56L279.30,447.65L284.39,445.86L286.36,439.93L283.87,435.07L278.57,433.80L274.14,436.99L274.28,444.56Z M279.46,438.36L284.22,436.23L285.98,431.05L283.77,426.04L278.53,424.45L273.91,427.39L272.39,432.95L274.87,437.04L279.46,438.36Z M260.86,407.79L265.50,400.28L262.81,395.88L258.13,394.06L253.75,396.51L252.86,401.46L256.29,407.31L260.86,407.79Z M270.38,397.53L270.19,392.12L266.17,388.82L260.43,388.96L257.31,392.39L257.31,397.03L261.48,400.98L266.69,401.23L270.38,397.53Z M175.76,387.65L181.26,389.87L185.17,388.17L186.29,379.91L177.29,376.71L173.95,379.60L173.34,383.96L175.76,387.65Z M274.81,387.01L280.15,386.43L283.15,382.47L282.50,377.54L278.55,373.73L274.10,373.70L270.68,376.53L270.00,381.75L274.81,387.01Z M172.48,377.51L177.09,373.09L176.35,367.43L171.49,364.43L166.50,365.42L163.69,369.39L164.08,374.22L167.63,377.51L172.48,377.51Z M218.53,355.22L223.89,357.13L228.18,354.58L228.90,348.14L225.58,343.83L220.13,343.78L216.73,348.02L218.53,355.22Z M198.06,331.75L203.19,331.45L206.33,328.29L206.58,323.13L203.94,319.30L199.44,318.14L194.77,320.76L192.99,324.92L194.29,329.25L198.06,331.75Z M155.65,317.67L160.65,316.83L163.54,313.22L163.29,308.24L158.66,304.15L152.63,305.54L149.93,310.27L151.30,315.12L155.65,317.67Z M129.05,265.10L133.81,262.40L134.96,257.14L132.15,252.36L127.42,251.19L123.17,253.57L121.72,258.92L124.07,263.57L129.05,265.10Z" fill="currentColor" fill-rule="evenodd"/></svg>
