<svg xmlns="http://www.w3.org/2000/svg" viewBox="0 0 1000 1000" role="img" aria-label="Map of Micronesia, Federated States of"><path d="M747.76,444.26L741.89,444.56L739.06,447.64L742.06,456.23L751.30,455.30L752.37,448.11L747.76,444.26Z M528.01,432.84L527.61,439.05L534.32,441.75L539.05,439.94L540.53,435.09L538.15,429.83L532.61,428.71L528.01,432.84Z M544.53,438.41L549.42,433.44L548.54,428.67L543.34,425.94L537.57,428.43L535.82,434.83L539.32,438.72L544.53,438.41Z M629.86,645.26L633.16,648.54L638.09,648.81L641.86,646.26L643.13,641.89L641.31,637.72L636.64,635.60L632.06,636.72L629.35,640.57L629.86,645.26Z M638.48,645.78L640.55,641.21L639.11,636.67L634.70,634.11L629.72,635.05L626.76,639.16L627.61,644.46L632.71,647.85L638.48,645.78Z M630.40,636.01L628.56,642.25L632.55,647.06L638.55,647.12L642.14,642.89L641.11,637.00L636.00,633.86L630.40,636.01Z M645.54,549.93L643.35,545.46L639.21,543.72L634.42,545.32L631.76,549.42L632.58,554.24L637.01,557.39L641.42,557.17L645.54,549.93Z M628.37,551.39L632.16,556.85L638.35,556.62L642.07,552.19L641.34,547.07L636.53,543.86L632.25,544.25L628.37,551.39Z M602.38,507.62L606.90,503.27L606.86,498.70L604.03,495.49L598.98,494.98L594.54,498.19L593.50,503.51L596.96,507.67L602.38,507.62Z M712.21,479.21L707.61,480.31L704.85,483.93L704.94,488.50L707.97,492.10L712.56,492.94L716.94,490.47L718.50,485.84L716.61,481.34L712.21,479.21Z M467.29,455.57L464.65,450.46L459.43,449.11L454.66,452.29L453.80,458.23L457.96,462.54L462.70,462.68L467.29,455.57Z M743.12,457.93L742.91,452.49L739.10,449.02L733.94,449.19L730.27,452.59L729.78,457.24L732.62,461.27L738.71,462.26L743.12,457.93Z M547.56,438.15L547.24,432.50L542.80,428.90L537.87,429.99L535.42,434.42L537.31,441.00L541.14,442.75L547.56,438.15Z M462.61,436.87L462.01,431.05L457.41,427.86L452.29,428.74L449.32,432.72L449.97,437.97L453.99,441.38L459.24,440.92L462.61,436.87Z M501.89,397.49L501.10,392.29L497.14,389.27L492.29,389.57L488.93,392.88L488.61,397.91L492.45,402.38L498.34,402.20L501.89,397.49Z M476.94,399.47L478.37,393.72L474.74,389.05L468.21,389.80L465.18,395.40L467.52,401.05L472.59,402.40L476.94,399.47Z M492.53,386.03L493.06,381.22L490.44,377.37L485.68,376.10L480.84,378.57L479.32,383.80L482.28,388.63L488.02,389.74L492.53,386.03Z M900.17,494.44L892.07,498.75L892.14,505.16L898.45,507.24L903.46,504.69L904.48,498.72L900.17,494.44Z M107.62,361.54L99.62,360.52L95.91,367.68L97.98,373.09L101.05,373.46L108.57,367.08L107.62,361.54Z M181.91,363.71L185.47,359.23L184.70,354.17L180.59,351.13L175.70,351.48L172.29,355.15L172.24,360.71L176.39,364.41L181.91,363.71Z" fill="currentColor" fill-rule="evenodd"/></svg>
