<svg xmlns="http://www.w3.org/2000/svg" viewBox="0 0 1000 1000" role="img" aria-label="Map of Moldova"><path d="M182.69,159.60L193.87,140.75L213.01,150.30L211.52,131.22L221.35,124.55L241.45,135.17L257.68,132.80L258.46,122.35L289.37,132.69L313.51,112.71L324.58,119.23L342.70,103.11L360.94,100.00L364.95,108.70L393.53,111.26L419.03,138.30L446.12,144.78L449.16,165.29L464.56,159.62L471.51,173.05L496.93,164.99L497.95,177.58L489.65,192.32L506.65,182.96L518.94,210.96L526.11,188.67L535.92,187.13L576.67,198.55L582.68,221.57L603.96,245.40L635.33,234.50L644.10,256.99L655.56,262.36L645.05,283.80L656.03,292.73L634.14,351.67L641.04,373.73L654.94,374.70L686.90,418.79L695.86,415.15L699.78,403.30L713.46,407.07L717.72,423.90L711.19,430.83L711.34,456.95L699.24,463.31L706.88,476.98L715.91,468.64L721.68,476.69L713.84,507.20L780.57,543.20L784.45,604.31L775.83,617.03L794.06,626.72L807.45,645.61L817.31,645.61L808.20,658.49L778.85,658.63L762.50,667.70L741.91,632.82L739.88,644.16L731.12,645.65L724.12,661.76L699.78,645.00L700.79,631.57L695.58,629.23L680.61,647.37L668.33,632.60L664.09,652.34L649.18,663.01L646.21,615.12L603.14,637.15L598.35,650.42L600.92,688.98L615.71,709.20L601.87,733.90L605.14,757.17L566.02,769.92L565.66,800.53L553.28,807.29L553.28,816.48L536.48,820.56L533.72,832.55L517.93,848.08L529.29,868.76L522.31,874.34L522.99,887.57L481.17,884.19L468.35,900.00L457.78,873.94L443.54,865.11L462.66,854.82L460.30,820.58L452.78,803.76L454.89,779.14L447.26,753.64L458.46,709.03L452.00,695.56L464.43,681.55L476.76,644.28L471.88,624.20L476.99,593.21L454.27,536.70L447.26,500.38L437.38,484.11L421.25,480.49L397.38,454.56L384.14,419.89L366.75,411.66L355.08,393.53L355.71,370.97L337.16,362.67L329.08,339.05L306.62,316.41L300.83,303.59L305.00,302.74L303.63,293.70L291.30,277.44L297.47,273.65L280.73,248.86L282.19,232.63L269.01,226.66L271.45,219.28L259.24,207.69L259.43,194.45L245.67,190.20L251.27,184.05L240.53,173.93L235.09,179.30L216.47,159.78L182.69,159.60Z" fill="currentColor" fill-rule="evenodd"/></svg>
