<svg xmlns="http://www.w3.org/2000/svg" viewBox="0 0 1000 1000" role="img" aria-label="Map of Mongolia"><path d="M819.86,392.15L797.88,439.16L797.87,449.64L790.76,453.66L792.29,461.73L800.72,469.94L808.91,463.43L823.29,462.95L836.68,471.14L846.78,458.70L864.34,458.83L871.66,467.32L879.52,470.75L880.77,475.63L885.16,477.50L884.45,479.73L894.85,489.01L899.74,498.50L899.15,506.70L894.36,509.66L885.33,508.93L873.63,503.34L870.48,506.57L859.27,504.89L847.55,512.26L844.46,512.41L841.84,509.23L837.50,510.40L836.10,518.19L823.10,517.11L816.98,520.60L808.15,534.52L809.10,538.33L807.07,541.76L802.90,542.98L794.57,551.02L766.38,553.52L763.53,560.22L755.33,568.93L743.28,577.01L721.99,572.44L713.64,565.14L702.34,564.47L696.88,568.77L688.38,589.82L692.03,598.21L699.37,606.13L701.72,614.94L697.26,616.15L692.63,622.00L677.85,628.79L663.76,648.69L640.84,660.30L623.72,662.15L608.32,660.12L573.27,666.21L534.30,685.96L528.66,691.69L526.63,689.55L517.00,689.13L516.89,681.34L496.77,685.39L481.40,676.47L455.56,669.92L448.13,659.87L442.90,657.09L405.40,652.04L391.91,656.12L335.18,648.01L314.40,650.29L313.43,643.54L302.38,631.29L293.95,605.45L288.57,603.28L290.53,593.71L281.56,594.63L273.14,591.42L260.30,579.88L253.97,579.44L243.97,569.31L227.12,566.12L211.48,567.17L207.11,564.82L194.45,564.96L192.08,562.23L187.37,562.83L182.59,559.63L178.02,560.77L172.50,549.61L173.98,540.19L181.23,530.38L178.59,520.19L182.35,510.58L178.32,496.82L174.01,494.28L167.96,483.58L164.88,470.86L158.37,467.32L157.42,462.82L150.12,464.84L144.91,457.32L133.30,459.02L129.37,454.59L122.38,452.05L119.07,444.17L105.37,437.53L108.05,432.70L100.00,426.20L103.40,423.25L102.00,416.05L110.15,412.24L110.92,405.94L121.88,404.16L128.22,406.23L128.68,402.38L130.83,405.51L135.44,403.80L136.82,399.01L140.69,400.93L148.91,395.90L146.74,391.47L148.04,388.36L155.55,386.92L156.82,383.15L168.12,377.91L173.31,377.86L181.47,370.25L191.51,368.94L199.82,360.84L209.99,360.66L215.01,354.14L222.20,361.21L225.84,357.06L229.95,357.43L231.19,363.05L233.52,363.94L262.21,365.44L264.59,377.59L270.78,385.00L278.69,384.05L282.54,387.70L293.09,389.84L301.23,384.99L304.17,387.95L306.90,385.76L320.06,390.90L322.96,388.85L329.61,389.84L334.18,394.80L338.91,395.38L344.64,391.26L344.46,388.74L351.01,388.51L356.43,384.88L361.77,375.40L362.54,366.86L356.20,363.06L354.86,354.92L350.43,349.31L356.23,332.72L360.72,332.07L363.50,323.23L372.22,319.55L377.28,308.31L388.16,315.38L397.75,317.33L402.93,322.10L417.68,322.92L438.55,332.97L442.93,332.05L456.57,335.72L459.52,338.18L458.35,345.80L460.10,356.67L462.90,359.58L462.24,365.21L477.77,374.70L484.59,374.92L486.46,378.53L494.53,380.86L499.10,378.95L507.47,380.33L514.53,374.79L531.94,371.53L537.48,368.39L553.80,371.18L559.70,375.09L570.50,373.83L578.39,378.58L583.82,385.50L602.58,388.14L602.11,397.72L617.29,410.18L635.91,409.77L658.15,416.19L662.87,413.29L671.83,417.08L686.93,408.82L704.13,407.11L715.15,402.66L722.70,403.85L729.76,400.41L732.79,392.92L742.66,384.99L760.23,375.65L771.85,377.13L787.62,389.68L795.79,390.16L808.26,385.21L817.15,388.56L819.86,392.15Z" fill="currentColor" fill-rule="evenodd"/></svg>
