<svg xmlns="http://www.w3.org/2000/svg" viewBox="0 0 1000 1000" role="img" aria-label="Map of Montenegro"><path d="M200.18,641.18L168.03,597.24L168.10,566.16L187.11,563.54L207.20,514.75L173.84,455.67L170.29,436.16L180.58,422.90L166.77,379.61L183.95,351.07L238.09,348.42L231.70,300.10L255.23,251.97L246.88,247.85L305.60,204.89L301.33,196.75L336.81,194.17L360.77,231.83L387.57,212.12L366.84,163.87L330.64,126.26L355.57,100.00L382.48,118.67L431.19,106.35L430.12,143.31L492.61,176.51L570.99,274.76L611.06,279.76L642.85,315.50L685.90,304.18L751.08,369.01L833.23,409.47L830.36,439.48L786.02,451.15L774.15,479.59L736.98,464.98L719.69,479.26L746.56,521.81L737.23,565.83L704.16,589.04L641.56,609.18L618.28,582.61L614.04,525.13L579.21,544.54L567.51,578.61L458.82,739.93L492.68,781.03L483.64,848.43L490.11,900.00L422.49,859.57L392.49,778.28L333.31,725.31L323.82,695.97L286.53,702.06L251.79,647.98L230.35,656.44L205.52,630.22L259.42,644.68L254.87,602.20L243.35,616.89L190.69,615.08L200.18,641.18Z" fill="currentColor" fill-rule="evenodd"/></svg>
