<svg xmlns="http://www.w3.org/2000/svg" viewBox="0 0 1000 1000" role="img" aria-label="Map of Morocco"><path d="M509.96,555.75L513.07,581.73L511.08,585.60L481.17,587.38L465.57,599.93L461.58,600.52L451.18,597.18L440.59,599.93L426.09,592.77L416.09,591.15L385.37,598.69L389.04,606.34L388.02,612.48L379.61,621.48L369.61,641.67L354.49,645.71L353.03,647.92L335.12,711.91L308.01,731.79L292.54,758.77L270.28,769.27L264.46,774.77L254.30,807.36L248.49,850.93L228.67,875.71L229.64,881.79L222.85,895.58L212.20,898.87L160.43,895.58L113.31,900.00L117.79,871.80L128.16,852.82L137.11,850.64L139.78,847.19L145.07,835.85L148.35,818.38L154.46,813.23L154.64,808.30L152.05,807.65L173.37,769.40L173.24,762.56L162.61,777.28L165.29,770.12L170.06,763.07L180.75,756.25L200.88,731.91L210.04,726.68L215.81,718.77L218.69,707.03L219.50,684.33L234.28,650.86L236.59,636.67L250.42,623.98L262.84,619.76L280.39,606.07L299.25,554.45L305.35,550.32L309.84,541.01L352.96,532.17L380.82,519.12L401.27,495.58L424.95,482.45L440.69,465.41L450.15,448.83L461.41,435.65L469.40,419.77L471.51,404.46L467.23,396.83L458.11,391.01L461.77,381.15L460.09,364.92L462.07,352.67L460.09,349.42L468.81,331.29L483.39,315.01L487.67,305.61L488.53,284.64L507.50,267.82L523.89,246.48L527.64,246.73L535.72,239.80L572.29,226.41L578.23,221.20L596.35,213.08L606.50,203.96L632.15,157.57L649.80,107.93L665.69,105.64L675.37,100.00L682.60,118.75L691.47,127.97L705.78,137.70L724.87,142.62L746.97,136.27L747.72,139.18L753.35,139.45L757.60,134.95L762.86,138.12L776.01,139.86L787.73,135.11L792.98,126.37L793.21,135.20L796.34,136.65L795.82,140.69L798.42,143.75L803.65,144.60L797.34,137.41L807.59,145.02L814.81,145.51L819.68,142.76L829.08,146.07L830.47,150.79L851.00,165.26L846.09,173.24L854.22,179.69L849.06,185.60L855.84,201.78L852.10,222.56L858.37,230.72L855.18,240.94L855.62,248.18L864.07,257.98L863.90,262.70L861.20,264.96L867.76,275.51L886.69,289.19L876.43,296.77L873.26,307.22L878.78,308.40L878.06,311.51L814.87,309.17L797.21,312.25L794.42,313.77L799.79,327.79L759.54,335.88L758.87,350.14L752.01,353.02L750.67,362.22L752.22,363.73L756.06,361.89L764.62,374.04L759.54,380.60L760.22,387.53L751.09,392.16L735.53,394.47L725.05,398.71L712.87,411.05L700.70,416.83L686.15,428.01L668.57,453.06L663.83,454.61L659.77,453.06L658.08,448.05L633.06,449.98L612.43,453.45L608.37,457.30L599.91,453.84L590.78,453.84L580.97,460.77L566.26,461.17L517.19,497.82L516.48,555.75L509.96,555.75Z" fill="currentColor" fill-rule="evenodd"/></svg>
