<svg xmlns="http://www.w3.org/2000/svg" viewBox="0 0 1000 1000" role="img" aria-label="Map of Mozambique"><path d="M341.79,899.70L341.47,883.10L338.36,872.51L339.78,859.13L334.16,856.61L332.15,849.52L336.32,840.91L335.89,781.60L330.47,768.93L329.59,757.53L325.18,753.97L319.95,740.78L314.64,734.38L315.05,719.73L303.14,683.48L355.43,628.51L357.22,629.65L352.25,620.87L359.25,611.21L358.81,594.93L367.62,591.45L376.00,578.84L377.50,570.49L383.15,567.02L384.33,554.91L380.18,548.32L374.46,549.54L375.04,541.07L371.86,539.26L376.14,520.68L374.21,517.76L368.87,517.68L368.05,514.39L368.53,508.49L378.30,505.57L376.83,493.91L382.65,490.55L384.79,484.93L380.73,480.25L379.45,466.40L383.95,449.12L379.88,443.21L383.81,435.75L374.88,415.69L378.93,411.43L381.35,403.30L370.37,404.63L367.62,399.30L349.96,392.07L332.36,390.95L323.12,380.64L308.95,377.92L302.25,371.14L295.50,369.84L289.74,373.14L283.62,369.90L262.56,370.06L262.11,344.62L260.49,337.53L256.10,332.43L253.85,320.22L281.69,309.80L309.24,303.22L392.20,272.94L395.78,275.23L396.26,279.93L403.14,290.86L412.67,301.67L416.16,296.19L419.96,298.30L425.23,295.78L431.46,296.46L445.04,291.19L453.10,301.95L456.15,320.37L455.46,334.38L448.10,344.65L447.81,352.74L440.55,359.93L439.90,364.61L447.84,372.91L448.85,383.38L453.40,384.69L471.03,406.20L480.88,410.72L481.20,415.58L477.10,420.62L478.46,424.23L488.92,425.18L488.28,404.24L481.51,396.27L485.97,392.97L487.39,383.26L492.75,376.88L499.23,378.37L511.76,372.06L514.32,341.52L511.71,329.53L517.27,315.60L515.37,315.10L514.63,304.05L479.30,257.81L469.07,248.60L458.77,247.46L454.35,239.31L452.00,208.12L445.50,184.28L455.21,166.27L457.66,153.92L495.01,153.84L500.01,155.61L506.19,153.62L507.61,149.83L513.66,145.87L529.48,153.94L530.95,159.94L544.61,158.94L546.97,161.31L550.67,160.91L559.67,153.69L569.50,153.27L574.56,158.64L589.74,160.82L605.82,151.74L608.20,141.68L611.43,139.54L626.18,139.21L637.09,145.87L644.58,139.14L649.47,138.53L655.79,133.86L666.44,132.49L671.62,134.18L683.67,125.21L696.98,122.37L727.12,100.00L730.53,100.14L730.35,104.47L737.21,110.37L729.36,114.04L735.61,117.89L729.86,123.50L730.34,127.48L733.10,126.35L730.34,134.82L723.04,141.16L728.46,144.49L726.69,157.43L730.97,166.67L729.40,169.41L731.75,174.38L731.19,184.53L727.78,187.41L730.67,189.22L730.48,193.11L732.87,193.45L729.03,199.02L732.91,200.43L733.04,204.49L735.58,206.06L733.19,206.27L733.66,209.05L736.84,211.98L731.52,214.18L731.17,218.97L729.30,217.60L725.91,220.57L729.27,224.47L730.05,220.86L734.45,222.21L731.29,237.97L733.18,237.31L734.13,241.01L731.29,248.35L734.45,251.02L731.86,254.50L737.01,273.82L734.45,276.43L735.57,278.48L731.83,280.30L734.27,285.13L739.13,281.18L741.43,285.50L740.80,288.87L736.35,288.87L736.03,299.94L739.32,293.38L744.00,292.33L745.90,294.96L742.12,298.40L745.25,297.91L746.15,306.71L745.79,311.27L740.51,315.60L738.10,316.32L736.66,313.98L737.95,317.32L741.43,317.32L742.72,321.02L737.95,319.99L739.85,324.69L731.34,327.53L730.63,330.03L736.31,329.17L738.45,332.51L733.83,345.18L729.99,346.80L709.90,369.47L713.13,369.34L706.54,380.86L696.86,384.75L700.22,391.00L695.14,391.66L692.00,396.68L666.57,412.40L664.78,418.07L654.83,421.09L644.99,420.11L645.17,422.54L638.01,423.98L622.30,432.91L619.93,427.51L618.04,428.18L620.22,432.85L610.08,436.22L576.77,454.96L567.26,468.33L562.81,461.91L560.26,461.75L563.72,468.43L566.95,470.00L562.79,476.96L559.26,476.86L558.06,479.07L560.94,477.40L557.18,482.40L543.60,494.92L539.49,501.87L540.57,506.08L535.38,505.85L532.73,501.64L534.06,511.26L528.50,511.73L527.43,506.85L522.14,512.72L520.26,511.36L518.41,514.89L515.00,514.21L515.57,516.03L506.07,523.09L495.85,537.00L481.28,551.04L469.85,558.78L458.12,545.71L454.72,545.05L453.67,547.07L457.52,546.48L465.11,556.42L461.94,559.78L464.52,560.73L464.98,572.89L459.45,572.86L463.52,576.53L461.46,583.70L458.75,583.84L462.27,588.28L460.05,591.90L463.36,591.08L468.55,598.24L470.48,597.63L469.50,600.30L475.10,601.14L477.15,611.31L479.10,610.11L480.97,612.68L478.60,614.60L479.05,618.48L476.17,619.75L479.38,624.75L477.61,626.68L478.75,630.06L481.28,623.05L480.97,632.76L487.95,645.80L490.95,667.55L489.56,682.18L493.65,687.02L495.84,669.03L498.59,668.37L499.36,678.35L500.94,671.94L498.06,696.91L500.31,709.46L503.47,707.89L497.56,720.70L493.48,748.61L493.07,745.17L491.16,745.10L490.79,759.19L493.36,756.66L493.00,753.32L496.98,755.06L497.44,750.29L499.82,751.29L498.41,765.87L480.33,790.14L459.15,800.64L395.64,824.29L397.59,822.12L376.92,836.36L368.32,853.08L363.90,857.14L360.43,856.21L358.59,857.90L361.84,857.62L368.04,867.85L371.15,868.01L375.52,872.76L377.94,864.26L380.70,862.51L377.86,900.00L341.79,899.70Z M461.25,174.55L459.47,178.26L461.01,180.62L464.40,176.50L461.25,174.55Z M458.16,173.91L454.30,175.09L457.40,178.08L458.16,173.91Z M381.29,865.25L386.67,858.39L383.37,852.50L376.76,854.46L373.75,860.56L377.48,866.20L381.29,865.25Z M496.31,652.87L498.95,645.68L498.17,639.41L494.73,652.41L496.31,652.87Z M701.12,380.29L695.10,386.01L697.30,392.12L702.17,393.80L707.89,384.03L701.12,380.29Z" fill="currentColor" fill-rule="evenodd"/></svg>
