<svg xmlns="http://www.w3.org/2000/svg" viewBox="0 0 1000 1000" role="img" aria-label="Map of Namibia"><path d="M392.75,853.20L379.32,862.88L373.47,859.38L338.08,825.28L311.35,780.24L307.41,756.06L303.29,752.95L298.81,740.00L300.20,735.98L302.44,738.70L303.87,733.39L300.15,722.38L291.92,716.90L290.31,704.84L292.67,699.17L288.45,689.96L289.10,685.48L284.47,679.47L286.79,665.80L282.17,648.10L285.24,635.36L280.95,618.63L270.39,603.17L271.00,595.68L261.96,573.40L261.53,566.35L265.19,560.18L264.09,540.05L260.49,529.57L263.17,525.05L263.80,526.65L263.89,522.77L259.06,501.06L260.53,495.22L261.96,502.63L266.10,496.53L264.87,473.94L252.04,447.40L232.01,424.92L232.62,420.43L224.89,403.91L199.25,364.96L186.26,322.61L177.96,314.28L176.07,306.33L150.20,252.88L144.47,246.16L143.27,240.19L133.63,226.92L118.57,214.58L116.65,205.38L107.77,191.34L104.68,179.34L100.00,153.05L102.22,135.11L121.89,126.93L126.77,127.58L131.02,132.43L141.37,131.06L150.19,133.05L165.02,124.73L169.09,119.92L185.58,114.86L191.56,117.07L197.24,115.71L204.10,118.66L206.55,125.82L233.68,145.18L247.09,142.90L497.93,143.02L509.10,158.94L516.14,165.97L523.71,169.28L544.77,169.59L555.09,173.14L569.94,172.07L575.75,175.12L577.11,173.33L591.30,175.48L609.14,172.85L622.69,181.21L632.85,181.74L636.91,184.17L657.88,177.71L671.21,183.09L838.60,148.77L848.55,148.24L859.32,152.23L866.01,149.60L886.84,155.29L890.49,161.42L900.00,168.95L893.75,168.16L888.02,171.10L881.90,168.59L868.75,175.22L858.92,185.55L855.45,186.03L850.48,179.37L846.29,179.34L843.09,183.84L838.47,182.97L820.62,195.07L808.79,209.05L802.53,212.80L796.13,197.40L789.89,194.44L783.80,182.09L765.40,183.44L676.46,201.37L646.88,202.65L647.46,436.47L646.70,438.82L588.00,438.82L588.20,850.80L563.80,857.78L557.09,868.95L545.91,871.35L544.68,874.55L547.24,880.36L537.31,885.14L530.61,883.13L527.52,879.31L515.18,877.59L480.96,881.57L466.01,873.83L449.20,872.73L446.49,867.35L435.90,868.89L436.90,861.78L431.21,853.89L435.67,849.07L432.48,838.31L424.65,838.60L422.74,830.09L416.57,825.43L405.73,829.01L405.29,834.10L402.47,834.50L403.57,836.96L400.85,838.01L401.70,840.68L398.39,840.73L400.47,847.20L396.72,854.56L394.56,855.43L392.75,853.20Z" fill="currentColor" fill-rule="evenodd"/></svg>
