<svg xmlns="http://www.w3.org/2000/svg" viewBox="0 0 1000 1000" role="img" aria-label="Map of Nepal"><path d="M867.44,552.87L899.68,559.91L899.20,567.87L885.79,599.07L886.95,618.33L880.47,642.00L893.02,658.92L900.00,680.87L887.86,720.80L881.09,725.17L870.70,714.21L842.89,723.89L826.12,718.42L814.72,727.47L806.72,720.53L795.63,720.90L789.24,701.29L767.67,717.17L759.44,716.55L757.02,719.80L714.82,697.74L706.12,701.02L687.98,693.00L670.00,702.87L658.63,693.13L657.54,677.11L647.39,670.65L618.27,683.73L607.71,681.32L604.47,671.03L590.36,671.61L581.07,659.33L570.60,653.20L551.89,650.30L554.88,631.65L549.86,619.68L518.67,612.35L501.74,597.02L490.97,605.12L473.91,605.88L478.19,613.04L475.92,615.82L449.95,603.35L429.95,601.80L426.89,603.81L427.57,611.29L419.67,617.40L404.96,604.74L367.53,599.07L360.41,576.78L333.10,578.70L296.26,552.42L291.21,551.91L279.39,559.29L241.81,535.21L234.20,524.68L224.38,528.29L211.95,502.25L185.95,493.36L182.70,487.10L173.79,485.10L159.44,472.46L152.35,470.32L151.59,466.75L144.88,469.27L144.97,479.77L137.09,472.63L129.36,472.51L119.88,460.74L100.52,449.09L100.00,442.30L107.55,431.48L109.98,418.56L118.64,416.79L118.45,407.29L122.33,408.25L124.48,396.22L117.96,384.29L134.81,363.28L131.79,352.10L133.22,346.18L143.76,340.79L153.11,325.06L167.32,317.64L183.84,295.61L187.48,299.38L195.90,298.01L204.87,317.23L216.58,318.21L222.01,310.19L221.51,305.14L229.68,301.55L233.36,277.34L245.34,282.43L248.04,276.82L255.63,272.53L271.85,279.11L302.31,282.24L301.94,293.33L308.89,298.86L306.12,305.23L308.70,312.62L324.93,315.57L346.85,327.70L354.39,337.02L361.32,338.37L361.51,343.63L375.83,357.14L382.04,353.94L389.53,356.67L398.28,366.19L401.08,362.13L408.96,361.45L417.55,370.30L417.85,378.02L424.15,376.67L426.82,379.39L430.55,391.06L441.35,401.70L443.39,410.36L454.75,413.58L460.28,405.60L481.80,398.53L499.04,402.20L501.27,407.51L506.11,409.36L503.22,414.80L507.47,424.46L512.97,427.97L510.55,437.51L513.34,442.05L527.25,447.77L534.55,460.61L550.81,465.11L557.37,469.90L556.86,475.08L570.05,482.06L581.51,482.45L593.94,471.25L604.37,476.13L603.66,483.97L596.17,493.94L596.43,507.00L599.30,509.97L605.61,508.62L610.56,512.27L624.19,513.61L630.97,509.43L648.69,514.56L656.67,505.17L660.75,517.87L673.43,526.61L676.86,538.60L682.59,545.28L683.19,554.77L692.93,555.03L697.96,550.81L693.62,534.05L702.19,525.14L705.15,527.71L703.79,534.60L706.82,542.34L728.67,552.69L737.05,547.94L741.29,530.99L747.06,533.66L751.95,530.69L758.80,534.03L759.60,540.23L769.49,540.98L776.80,548.76L785.74,548.05L800.50,562.10L813.74,563.18L820.95,558.80L823.07,559.46L821.47,564.54L837.45,560.87L841.55,564.42L856.64,564.11L867.44,552.87Z" fill="currentColor" fill-rule="evenodd"/></svg>
