<svg xmlns="http://www.w3.org/2000/svg" viewBox="0 0 1000 1000" role="img" aria-label="Map of Netherlands"><path d="M836.04,189.19L832.09,219.76L835.74,259.56L812.87,309.13L808.44,359.45L805.26,365.54L756.07,363.06L749.91,367.50L750.29,377.77L757.24,384.42L744.65,389.56L752.19,412.39L784.59,420.83L797.37,415.29L810.46,439.87L804.21,462.70L806.63,478.17L744.87,529.62L768.95,555.11L752.51,572.57L708.15,587.07L693.39,583.73L694.10,592.99L687.54,594.84L649.44,573.29L643.50,576.55L654.54,588.87L615.26,596.39L620.97,607.53L616.64,620.26L629.35,624.82L628.74,634.70L644.58,645.16L642.36,659.10L661.04,683.66L663.14,698.16L661.08,730.61L637.14,768.45L637.88,780.07L654.70,777.69L649.32,781.87L652.98,785.38L616.40,819.94L601.46,816.58L605.33,838.62L627.89,836.24L627.22,848.87L638.39,855.10L637.16,870.73L621.78,887.27L626.36,900.00L575.95,898.78L574.89,887.00L561.61,877.11L586.00,840.32L578.72,840.32L588.37,822.05L587.30,812.20L600.32,799.30L597.38,784.18L551.80,769.60L538.67,747.13L490.11,755.05L486.95,740.92L473.94,739.48L464.37,722.06L466.43,703.83L457.27,692.92L436.78,717.11L410.88,710.99L421.46,710.91L421.68,693.25L413.77,687.64L387.81,709.62L372.17,709.09L369.47,693.17L362.10,693.63L343.59,702.59L350.42,722.22L346.22,728.93L323.30,723.53L318.69,709.39L297.09,712.82L277.46,699.67L247.46,717.35L223.43,699.34L196.46,697.94L181.71,677.85L200.83,659.36L251.64,654.76L261.20,666.59L255.23,672.25L280.45,677.53L295.99,701.78L327.17,701.22L324.47,683.96L293.63,676.33L275.59,660.60L289.51,654.79L313.90,660.60L297.41,646.61L297.36,637.66L308.59,633.37L290.17,624.44L274.43,598.00L255.23,604.19L253.60,596.27L291.24,588.44L283.28,577.48L280.40,547.38L302.46,542.28L366.49,448.05L382.01,399.56L407.97,268.22L420.45,268.22L419.15,279.05L430.40,286.35L466.11,272.09L518.74,231.26L530.66,196.06L555.86,172.73L623.89,143.31L681.70,145.32L713.66,134.01L772.16,130.63L778.76,135.27L784.65,158.77L816.97,170.78L816.15,182.99L836.04,189.19Z M163.96,721.86L197.50,710.04L248.65,730.97L269.95,722.85L274.90,711.82L298.98,726.38L316.38,723.92L298.46,751.16L268.83,768.71L244.23,770.26L238.56,756.25L209.42,746.02L192.78,748.70L190.49,760.31L171.34,758.46L164.62,746.54L163.96,721.86Z M270.99,618.48L295.04,642.41L270.73,651.03L244.33,629.47L222.91,631.42L223.39,622.21L245.20,615.60L270.99,618.48Z M433.20,207.47L437.27,229.13L433.77,237.31L416.74,258.90L401.37,250.88L427.00,205.51L433.20,207.47Z M431.29,196.06L450.10,176.38L470.78,170.78L436.76,198.46L431.29,196.06Z M481.76,154.09L554.76,129.77L488.87,158.52L481.76,154.09Z M563.64,131.17L612.18,124.00L619.31,127.64L571.13,136.46L563.64,131.17Z M648.71,121.78L681.57,112.52L686.45,115.97L649.52,127.97L648.71,121.78Z M712.58,107.90L718.56,104.51L717.27,102.11L707.65,97.99L704.93,98.84L712.58,107.90Z" fill="currentColor" fill-rule="evenodd"/></svg>
