<svg xmlns="http://www.w3.org/2000/svg" viewBox="0 0 1000 1000" role="img" aria-label="Map of New Zealand"><path d="M318.07,871.51L326.51,873.48L330.72,868.95L329.60,865.84L321.96,863.64L318.38,864.69L316.73,868.03L318.07,871.51Z M371.44,892.88L364.96,897.99L365.47,901.30L370.82,904.52L376.56,902.93L378.78,897.64L376.37,894.32L371.44,892.88Z M321.83,859.49L317.06,867.79L318.54,871.13L327.82,871.66L330.65,864.89L329.27,859.62L321.83,859.49Z M331.68,810.04L325.05,816.54L326.02,820.66L334.90,823.55L338.22,820.53L338.45,814.90L335.96,811.22L331.68,810.04Z M347.75,808.60L351.94,804.50L351.76,799.63L348.26,796.24L343.30,795.85L339.35,799.24L338.61,804.67L342.27,808.75L347.75,808.60Z M355.18,791.38L350.41,787.41L344.85,788.74L341.91,793.98L343.91,799.04L352.14,800.37L355.56,796.52L355.18,791.38Z M359.51,788.14L356.18,792.14L356.45,796.50L359.73,800.38L364.00,800.92L368.30,797.79L368.73,790.54L364.42,787.23L359.51,788.14Z M347.75,804.43L358.96,800.38L357.43,794.94L353.33,791.64L349.74,791.85L345.15,802.97L347.75,804.43Z M330.41,779.78L337.64,778.86L339.30,775.04L337.91,770.38L332.83,768.17L327.04,770.97L325.71,776.95L330.41,779.78Z M333.41,761.20L330.88,767.61L334.07,771.62L340.85,772.79L344.08,769.54L343.30,763.36L336.95,759.26L333.41,761.20Z M455.39,686.20L445.81,691.24L448.00,698.21L454.74,698.18L458.72,694.57L458.70,689.43L455.39,686.20Z M439.85,684.71L439.65,689.03L442.54,692.62L448.96,691.26L452.08,685.68L450.45,680.35L446.53,679.07L439.85,684.71Z M428.06,730.75L429.36,736.60L427.00,737.28L433.00,737.44L433.44,741.19L431.18,739.31L431.45,742.12L428.29,740.07L422.96,741.19L426.48,739.89L422.88,739.07L422.23,741.37L406.13,748.89L403.43,753.77L403.89,760.28L394.88,774.82L396.95,776.10L393.79,778.27L397.22,776.16L397.26,777.90L390.30,779.81L380.46,790.12L370.01,792.53L367.02,790.32L359.73,791.40L358.00,789.71L359.58,787.72L351.29,787.29L347.40,783.05L342.80,785.12L334.46,784.14L333.04,782.94L337.44,779.13L332.18,781.75L334.18,777.62L329.97,780.08L330.20,776.66L338.51,774.66L334.65,775.04L336.48,773.79L334.77,772.78L339.04,770.92L333.72,772.44L334.55,769.43L337.44,769.93L335.45,767.75L341.40,770.68L338.92,767.93L343.01,767.68L338.92,766.89L338.37,764.40L340.85,765.35L339.04,763.84L342.47,763.71L340.55,762.13L343.43,762.67L341.29,761.34L344.21,759.13L346.22,761.86L345.34,758.17L347.06,759.85L346.76,757.17L348.80,757.73L347.48,756.50L349.94,754.79L352.76,756.49L351.26,753.01L359.61,744.54L366.38,743.78L380.67,736.09L398.50,722.83L404.24,715.70L408.04,703.27L414.09,701.44L417.46,696.88L418.02,687.30L425.67,680.78L429.48,680.32L431.94,680.72L427.95,680.66L426.68,682.96L429.74,686.52L432.26,685.68L433.61,694.95L447.49,687.54L444.19,689.57L444.16,691.31L444.94,690.42L446.93,690.42L444.09,694.51L449.71,692.54L446.00,692.84L448.33,691.04L447.60,688.79L452.72,689.53L451.00,692.79L446.61,694.43L452.71,693.29L448.41,697.29L452.19,702.62L450.98,704.91L440.72,716.44L436.48,724.84L428.06,730.75Z M465.61,607.35L460.55,607.88L458.08,612.40L459.10,616.38L465.30,618.90L469.65,617.63L471.78,613.96L471.54,610.09L465.61,607.35Z M482.87,610.67L477.76,602.83L473.53,602.89L469.46,606.44L469.96,612.66L475.23,616.25L480.57,614.87L482.87,610.67Z M454.53,604.92L455.97,610.98L460.76,613.19L466.75,610.89L468.15,605.51L462.65,599.43L457.33,600.31L454.53,604.92Z M461.89,596.36L458.19,601.18L459.40,606.19L462.84,608.81L467.54,608.59L471.54,605.06L471.49,599.72L467.14,595.59L461.89,596.36Z M464.29,601.90L466.53,606.58L472.11,609.31L476.50,604.28L475.67,600.24L470.51,595.53L465.95,596.72L464.29,601.90Z M419.37,558.25L413.66,559.84L411.38,564.94L413.70,570.01L419.48,572.03L424.21,569.12L425.17,563.65L419.37,558.25Z M493.80,664.07L496.38,665.16L492.36,673.76L478.37,693.84L466.97,700.62L466.10,696.95L461.15,696.98L461.53,693.44L460.28,695.42L457.15,694.66L465.46,683.45L466.13,673.64L462.74,669.68L445.29,661.47L443.86,658.51L445.32,655.48L456.91,649.75L458.72,636.79L460.86,637.68L462.36,636.65L460.00,636.42L461.50,634.28L460.00,632.56L462.89,630.34L460.91,630.61L458.84,624.20L460.72,622.15L458.66,623.04L456.35,617.87L459.19,621.16L458.82,619.50L462.45,618.57L460.64,615.69L455.44,617.31L450.47,606.80L454.36,610.65L454.90,605.34L451.86,604.70L455.83,602.95L453.14,603.94L452.39,603.70L454.66,601.53L453.78,600.82L453.65,601.99L452.82,602.70L450.47,601.20L451.69,603.44L448.79,601.62L446.18,596.21L445.75,597.83L450.79,604.88L448.87,605.82L438.35,590.78L442.32,586.09L437.77,589.79L436.96,585.90L435.88,587.14L433.44,584.16L434.44,579.41L427.34,569.73L433.22,569.73L430.54,572.08L432.10,574.07L432.55,572.28L436.15,580.55L438.93,576.71L439.16,580.07L449.62,582.89L447.85,584.35L449.98,587.12L453.14,584.03L457.11,595.73L453.25,593.36L453.13,595.70L455.49,595.48L455.39,598.34L461.39,604.95L459.36,605.00L459.80,607.41L458.82,606.04L458.92,609.35L461.02,609.66L458.93,610.03L460.43,613.52L458.62,612.34L457.33,613.03L458.25,615.04L461.31,614.02L461.56,615.96L462.24,613.77L467.02,615.68L468.99,620.49L472.78,621.29L468.79,607.48L471.57,607.79L473.07,612.44L476.57,611.61L474.41,614.46L476.55,613.84L478.50,625.26L481.53,628.07L478.00,626.20L478.84,628.20L482.24,629.79L482.28,627.95L496.57,635.28L503.23,633.32L510.03,626.59L518.76,629.08L515.60,635.11L514.85,644.54L509.10,647.64L508.78,657.69L507.84,654.66L500.98,654.11L493.54,659.37L493.80,664.07Z M595.27,745.08L596.00,753.81L600.02,755.92L605.99,753.17L608.09,748.77L605.31,743.49L599.29,742.29L595.27,745.08Z M590.30,738.81L589.27,741.53L593.38,742.27L592.22,745.11L595.39,747.62L600.68,745.44L599.49,742.68L602.94,738.75L595.29,736.86L590.30,738.81Z M523.47,839.99L516.22,844.18L515.82,849.71L521.70,853.61L526.41,852.71L529.26,847.01L527.95,842.19L523.47,839.99Z M579.88,472.70L575.55,469.67L570.17,470.25L567.48,473.71L568.29,479.20L574.40,482.74L579.49,480.77L581.20,476.81L579.88,472.70Z M685.06,111.51L680.91,107.88L676.00,108.24L672.65,111.85L672.75,117.01L677.96,121.46L682.86,120.52L685.76,116.45L685.06,111.51Z M652.75,103.11L656.12,106.76L661.07,107.04L664.82,103.79L664.51,96.95L660.65,93.71L655.84,94.02L652.52,97.51L652.75,103.11Z" fill="currentColor" fill-rule="evenodd"/></svg>
