<svg xmlns="http://www.w3.org/2000/svg" viewBox="0 0 1000 1000" role="img" aria-label="Map of Nicaragua"><path d="M418.77,797.58L405.16,792.37L382.14,759.41L290.14,684.90L258.82,640.96L245.43,612.17L180.93,569.99L180.51,566.16L192.78,572.96L154.99,538.85L152.79,542.14L130.87,512.11L123.95,509.26L128.93,516.86L100.00,496.59L100.63,481.85L115.10,464.84L114.10,469.38L145.07,493.28L161.73,492.25L147.25,489.27L157.77,481.96L202.94,482.26L221.09,464.56L223.05,439.12L232.97,430.94L249.19,435.51L256.52,429.28L250.67,415.48L246.46,355.15L282.81,349.03L315.43,353.26L354.83,305.53L367.22,303.69L365.89,313.50L381.92,327.44L392.89,328.72L398.95,338.14L412.18,342.12L414.63,318.66L446.90,304.40L480.35,266.13L504.91,259.42L506.63,252.89L499.05,245.24L507.79,232.15L508.82,219.15L518.39,222.42L527.57,215.05L524.57,212.26L529.10,207.61L523.64,202.74L547.87,177.19L566.02,176.51L581.04,200.81L608.87,203.19L607.77,207.61L616.11,209.98L628.13,205.01L635.50,194.02L639.47,200.81L650.98,200.31L651.87,186.89L667.02,194.12L678.80,190.61L676.16,181.10L687.65,186.59L706.44,186.08L706.44,179.38L715.38,183.81L726.43,179.38L723.22,175.77L742.00,173.61L744.11,165.56L756.47,167.94L758.31,161.87L770.84,155.37L773.72,144.88L781.80,149.70L792.95,141.65L813.04,149.70L835.01,147.29L825.07,151.07L808.53,179.30L802.96,181.51L802.96,174.71L809.60,175.74L803.98,161.09L796.26,166.22L787.39,179.35L801.49,191.39L803.98,188.32L798.45,184.91L805.17,188.32L807.69,184.79L825.92,255.12L820.75,271.28L786.32,320.03L765.61,409.85L764.09,438.57L773.95,495.04L768.50,548.54L778.14,575.77L752.93,580.90L758.59,574.31L752.93,551.21L760.87,552.02L766.22,539.36L768.50,517.10L764.82,510.00L751.57,514.29L760.77,539.98L730.73,556.36L730.73,565.01L738.57,567.19L737.36,584.68L746.64,588.08L746.64,598.48L750.94,586.31L756.25,587.16L745.10,622.13L747.51,646.96L738.97,632.56L743.16,622.50L738.18,616.46L730.23,615.54L740.67,624.08L736.44,636.33L725.99,634.94L732.89,639.08L733.13,653.78L720.78,666.33L731.85,677.36L735.87,677.29L737.13,669.25L742.82,669.88L750.63,708.16L732.93,718.50L727.53,737.28L716.46,745.91L715.63,765.56L724.09,796.00L741.14,823.85L746.25,824.93L748.80,843.05L706.14,858.35L692.75,845.97L681.88,850.23L663.23,847.25L657.49,841.01L660.52,834.09L643.95,824.39L636.71,811.90L623.31,818.94L584.75,799.32L543.47,820.66L450.03,785.70L435.60,776.15L418.77,797.58Z M744.87,815.31L740.40,817.47L738.99,821.43L746.10,829.21L752.52,824.80L751.06,818.56L744.87,815.31Z M739.60,666.49L736.97,654.62L741.70,647.10L739.60,666.49Z M849.77,623.06L855.79,614.48L850.65,610.17L843.98,617.63L845.40,623.44L849.77,623.06Z M886.86,251.51L899.67,252.01L900.46,243.78L886.86,251.51Z" fill="currentColor" fill-rule="evenodd"/></svg>
