<svg xmlns="http://www.w3.org/2000/svg" viewBox="0 0 1000 1000" role="img" aria-label="Map of Nigeria"><path d="M155.60,332.53L166.40,318.82L162.20,308.97L165.50,303.48L163.53,296.23L164.71,267.62L183.88,251.93L194.52,235.33L196.99,203.14L205.17,201.71L222.39,188.17L245.73,182.81L250.28,185.58L270.45,185.02L280.22,177.33L290.06,175.64L331.44,191.81L337.27,189.22L346.55,192.79L366.79,213.39L377.81,230.79L384.43,235.38L393.20,235.34L401.84,227.15L414.76,227.47L443.56,211.76L462.30,214.84L482.31,230.29L490.87,230.71L500.59,240.23L518.15,245.39L561.33,248.48L583.98,225.22L596.63,218.19L633.64,209.75L684.65,210.47L712.17,218.50L725.83,227.19L735.42,226.60L739.94,229.28L753.50,230.74L758.52,223.90L759.40,218.68L763.99,214.12L766.95,215.92L773.82,208.96L775.67,209.89L780.01,203.93L778.15,202.05L792.32,198.05L796.90,199.78L798.26,197.90L798.67,199.78L803.87,198.07L810.66,187.17L829.15,187.53L859.66,229.81L867.93,277.58L887.81,279.78L896.04,290.20L900.00,291.29L895.62,300.54L897.15,305.96L894.71,317.23L891.46,322.18L896.76,327.59L895.72,335.36L866.37,354.02L854.16,351.46L838.99,368.98L838.29,374.80L824.58,395.67L817.66,427.27L804.01,434.57L805.09,439.42L802.84,446.40L806.19,451.02L801.69,468.54L787.49,473.10L779.02,479.62L781.89,487.43L776.80,498.61L773.52,521.42L769.25,521.96L766.02,528.15L759.19,531.77L746.58,531.51L748.91,539.14L744.08,544.02L740.11,543.78L737.12,546.58L737.77,559.36L734.16,566.35L734.80,575.32L723.25,591.65L723.39,601.28L704.43,622.41L713.25,631.60L713.47,634.83L709.24,635.33L692.77,648.55L691.19,652.07L693.24,657.80L690.88,664.15L683.10,669.08L679.97,676.93L662.88,678.40L657.76,657.70L649.27,654.75L644.10,643.88L630.02,637.23L627.22,631.35L621.71,648.65L602.70,648.34L598.17,639.66L580.28,654.52L574.54,654.04L568.17,671.83L562.17,672.92L550.16,684.79L544.70,686.50L540.19,694.01L521.56,711.48L520.81,714.74L516.75,714.15L512.36,718.00L512.78,724.42L509.92,727.72L515.56,735.04L511.59,741.98L508.56,764.44L495.45,783.23L496.11,786.57L491.91,788.44L490.62,794.88L486.57,794.69L487.31,791.93L482.58,792.14L483.42,785.52L479.19,788.90L467.41,775.80L473.28,784.08L472.45,786.40L478.87,798.93L474.54,805.70L457.43,805.01L435.50,809.15L425.86,807.27L424.94,794.73L422.09,804.07L417.45,805.24L407.36,802.15L406.70,804.93L410.84,807.00L407.36,808.65L400.55,797.58L397.50,797.96L393.41,791.55L392.65,794.08L399.94,801.83L398.45,804.93L400.93,807.69L396.14,812.30L393.86,808.65L393.86,812.80L391.55,813.26L388.77,803.58L391.55,799.35L386.13,793.39L387.91,801.69L381.99,796.58L383.85,804.00L387.49,803.79L387.00,810.03L390.20,815.86L386.59,817.45L379.87,815.74L376.53,806.10L378.32,800.30L375.50,798.86L373.30,792.43L374.31,787.57L369.66,786.40L376.98,802.15L375.03,804.95L380.01,818.38L369.66,818.79L371.03,801.69L368.29,814.18L366.92,806.77L365.56,808.19L367.80,820.01L362.80,820.00L361.68,810.19L358.65,808.65L361.18,812.51L359.93,820.13L350.91,819.29L339.99,822.98L338.41,821.10L344.12,813.26L339.49,816.02L337.71,809.11L338.57,815.06L335.40,812.80L337.29,816.54L334.94,822.48L336.79,822.48L329.47,824.36L327.57,822.33L327.86,814.98L324.64,815.33L326.07,822.81L321.74,821.17L321.19,814.65L318.92,816.02L319.38,820.22L314.61,817.84L313.01,813.26L311.22,814.65L307.44,811.95L294.94,799.77L293.38,793.48L286.97,785.52L289.25,786.90L281.01,766.74L284.20,766.03L286.97,768.84L285.56,765.15L288.34,765.61L285.34,762.38L284.90,764.18L279.65,764.18L277.96,752.00L285.56,750.32L286.48,752.20L293.81,749.43L290.88,743.06L297.94,738.75L289.75,741.56L287.60,747.43L283.52,745.75L284.20,748.51L272.82,745.75L268.48,741.36L270.13,735.98L281.47,737.37L284.61,732.84L289.25,735.34L285.11,730.91L280.59,734.85L277.01,734.34L277.78,726.30L273.96,733.53L267.26,735.88L263.89,732.81L261.19,727.37L262.12,721.66L265.54,722.61L265.54,720.23L274.64,713.77L258.26,723.40L247.67,707.26L238.46,698.33L215.64,683.47L179.95,678.56L151.51,680.00L147.60,677.69L150.50,676.73L151.28,679.11L158.02,676.99L159.99,673.31L168.61,672.11L178.20,666.46L173.51,665.68L156.29,672.11L153.83,671.14L154.01,667.04L148.76,670.42L146.59,677.32L147.57,680.85L102.18,682.83L104.00,664.37L107.17,660.52L103.50,653.71L102.94,641.55L107.24,637.39L104.28,633.70L106.07,629.23L104.67,612.62L107.70,611.74L108.08,607.93L103.30,600.58L103.74,586.62L100.00,579.56L104.22,559.84L101.74,551.01L104.91,539.02L103.47,519.80L105.33,518.42L106.54,501.30L120.80,501.05L127.00,498.72L132.02,485.66L130.77,474.27L138.17,465.69L138.31,462.36L144.04,461.12L143.66,451.02L156.14,447.98L161.23,441.08L162.32,433.97L166.43,427.73L160.10,418.34L165.41,408.20L173.44,410.11L177.76,397.12L176.80,390.15L170.60,383.09L172.21,376.38L170.07,362.52L166.10,360.44L153.16,341.79L155.60,332.53Z M415.59,809.11L427.59,810.02L417.41,813.38L411.09,811.67L415.59,809.11Z M411.29,809.40L403.49,806.48L397.51,816.34L408.99,814.94L411.29,809.40Z" fill="currentColor" fill-rule="evenodd"/></svg>
