<svg xmlns="http://www.w3.org/2000/svg" viewBox="0 0 1000 1000" role="img" aria-label="Map of Niger"><path d="M274.16,813.64L269.05,806.12L259.52,802.68L256.74,796.22L236.12,776.32L228.85,779.08L226.99,782.03L212.13,784.96L213.93,795.02L216.55,797.70L212.68,800.27L213.15,802.99L196.04,779.36L196.92,777.16L205.81,774.99L203.53,765.88L198.93,760.06L191.99,759.07L185.52,765.34L171.36,763.96L148.61,744.64L142.01,742.72L142.01,724.89L150.97,727.92L152.33,725.12L156.43,726.07L143.61,719.73L137.63,711.81L131.50,710.73L130.88,708.25L122.32,707.88L122.64,703.65L110.94,689.30L109.42,684.70L111.93,678.02L101.81,667.62L100.00,662.36L103.38,652.57L101.58,647.89L103.46,638.53L110.13,640.25L118.30,638.65L126.15,641.51L140.28,639.40L159.61,623.26L244.00,620.32L245.69,615.68L269.64,619.53L270.63,612.00L279.01,604.81L286.79,601.95L290.02,590.30L293.73,586.10L293.12,580.68L297.64,569.42L303.88,563.17L303.78,542.29L306.49,532.41L306.14,418.51L385.32,402.19L470.72,326.70L697.62,186.36L774.16,204.27L811.28,234.17L849.91,214.04L859.62,267.22L860.26,293.87L866.15,298.64L881.74,322.55L878.45,325.76L879.77,333.10L900.00,355.15L888.15,378.12L874.79,536.60L819.01,598.53L791.95,637.27L787.96,646.42L788.43,653.22L782.38,657.19L783.04,662.26L772.50,668.08L780.49,707.08L766.46,706.79L761.31,715.36L741.79,718.48L743.20,719.96L739.92,724.65L727.57,731.56L723.10,741.03L702.11,738.24L691.75,731.42L670.87,725.10L632.18,724.53L604.10,731.17L594.50,736.69L577.32,754.98L544.57,752.55L531.24,748.49L523.87,741.01L517.37,740.68L502.20,728.54L487.98,726.12L466.13,738.47L456.33,738.21L449.78,744.65L443.13,744.68L435.11,737.52L421.49,718.12L411.01,709.21L402.93,710.43L371.54,697.73L364.07,699.06L356.66,705.10L341.36,705.54L336.29,703.54L317.46,708.69L307.14,718.22L300.94,719.34L299.06,744.64L290.99,757.68L276.45,770.01L277.05,798.20L274.54,802.51L277.73,810.25L274.16,813.64Z" fill="currentColor" fill-rule="evenodd"/></svg>
