<svg xmlns="http://www.w3.org/2000/svg" viewBox="0 0 1000 1000" role="img" aria-label="Map of North Macedonia"><path d="M138.35,390.18L180.70,400.02L195.53,376.16L193.21,340.00L206.26,303.07L304.04,255.56L363.41,299.87L365.31,275.15L383.65,247.21L407.37,247.26L409.40,234.32L484.41,239.30L563.04,197.52L604.17,211.71L669.01,182.83L750.78,283.44L846.56,329.16L859.84,390.38L900.00,455.58L876.12,498.97L878.57,608.45L819.46,622.89L804.99,696.11L786.17,679.19L769.21,702.17L725.96,706.95L649.35,687.04L617.41,703.67L600.20,691.02L556.82,713.70L512.05,786.09L486.98,784.39L454.69,810.12L399.61,792.47L365.44,812.39L262.50,817.17L254.60,793.12L185.15,790.55L165.39,722.96L141.42,715.36L117.44,656.13L111.70,612.05L129.94,587.25L102.45,548.49L100.00,525.11L128.23,510.26L117.53,448.19L138.35,390.18Z" fill="currentColor" fill-rule="evenodd"/></svg>
