<svg xmlns="http://www.w3.org/2000/svg" viewBox="0 0 1000 1000" role="img" aria-label="Map of Norway"><path d="M603.42,512.12L596.98,512.62L600.13,520.26L595.25,529.51L598.76,531.75L595.36,536.18L576.37,528.36L572.98,529.90L573.31,541.54L570.00,549.47L562.59,544.82L555.92,552.14L553.50,561.66L547.81,568.79L551.66,576.61L551.38,581.79L539.14,601.51L539.83,609.11L534.53,613.38L528.19,614.36L527.86,642.72L517.08,668.50L522.70,672.67L523.33,683.08L521.06,688.68L512.03,685.82L508.92,686.95L498.87,703.13L496.67,713.99L499.52,724.09L497.89,738.67L500.65,749.21L498.77,768.93L507.75,782.11L505.47,792.76L499.90,794.33L504.25,814.79L502.74,826.66L498.54,833.08L494.91,833.99L495.49,839.56L492.74,843.31L494.44,855.87L492.61,867.44L489.99,868.29L486.58,857.72L484.80,860.14L481.16,857.02L481.67,853.64L479.35,849.51L480.57,847.75L478.96,839.13L480.14,834.55L480.91,838.71L480.55,832.61L477.91,834.78L478.74,845.82L477.43,846.43L476.95,840.47L474.80,839.21L478.39,854.00L475.82,862.54L474.80,860.62L474.59,864.06L472.24,863.45L470.13,866.19L466.33,860.40L468.61,865.20L463.36,868.80L465.23,870.50L463.45,873.81L460.54,873.73L462.14,876.14L458.59,878.44L453.49,890.72L448.81,896.18L447.34,891.92L446.75,896.48L435.00,900.00L436.75,896.24L433.69,897.92L432.50,896.24L434.79,894.80L432.17,893.37L431.60,895.55L431.49,893.11L431.07,895.53L432.23,897.46L429.11,895.53L433.02,890.23L430.98,891.92L431.05,888.26L429.51,891.22L422.68,886.24L416.10,873.25L416.99,863.28L419.03,869.30L420.74,865.86L423.70,870.00L425.38,870.26L423.27,868.08L424.96,865.20L430.30,862.78L424.54,864.70L422.97,867.97L421.01,862.31L428.26,853.40L424.46,855.23L425.48,853.40L422.50,852.90L423.07,851.16L429.28,844.97L425.48,846.17L426.10,841.83L424.44,848.50L421.61,852.14L421.15,848.94L424.45,847.87L420.17,845.69L418.18,850.29L419.88,849.56L420.82,852.31L417.75,854.34L417.44,850.01L416.43,854.88L412.44,846.68L416.23,838.71L415.34,846.91L417.16,840.87L419.51,843.21L420.25,839.03L423.02,838.46L426.41,834.63L422.58,837.99L422.17,834.39L420.47,837.51L418.18,834.63L426.15,825.24L423.86,825.74L425.05,818.98L430.47,814.88L429.11,820.30L429.03,826.67L430.64,816.08L436.23,811.74L433.69,811.74L434.77,808.80L430.67,814.30L431.15,811.28L426.23,815.86L424.75,812.97L424.28,820.58L422.51,820.20L419.33,829.71L419.96,822.10L416.91,823.80L419.29,815.74L415.25,824.90L411.93,817.17L413.97,810.96L418.27,814.38L419.46,804.29L418.54,802.90L416.70,807.43L413.89,809.81L409.28,801.41L415.55,807.43L413.10,802.25L416.82,798.75L411.80,800.99L410.38,792.75L415.73,794.55L416.70,791.74L423.77,790.09L426.96,794.00L429.98,788.23L434.37,791.29L433.36,796.59L435.56,795.63L436.23,799.25L434.93,791.12L437.68,789.46L440.31,790.83L440.20,787.86L443.52,786.24L439.73,787.43L438.78,784.30L442.00,777.34L438.18,780.48L438.70,788.65L434.34,790.47L434.97,787.94L429.45,786.50L431.15,782.28L431.23,780.24L427.92,790.36L422.08,788.65L423.01,787.22L415.42,791.59L412.58,790.69L410.92,787.78L413.28,787.94L409.62,785.51L412.68,782.35L414.15,785.53L413.35,782.16L418.01,781.68L412.22,781.88L410.91,783.03L411.56,779.26L409.54,779.76L412.42,777.80L416.60,779.28L420.13,778.30L412.39,776.48L411.92,774.92L414.61,774.68L412.00,773.48L415.47,773.70L414.40,771.80L409.79,772.04L410.04,768.15L412.26,768.90L410.98,767.70L415.07,762.39L418.54,763.23L417.84,765.76L421.82,764.71L421.31,768.44L422.45,765.04L424.79,767.46L423.27,765.04L428.41,766.12L432.68,763.60L428.44,765.40L419.20,763.15L422.08,762.19L415.47,761.45L412.11,762.91L411.92,760.27L415.13,758.56L411.23,752.55L415.89,759.03L417.50,756.87L415.02,754.93L415.80,752.55L419.46,756.15L418.44,753.27L421.38,752.56L420.64,758.57L421.99,754.35L423.18,756.87L427.09,757.11L421.64,751.34L423.35,752.07L422.89,748.52L426.40,746.19L429.11,755.43L427.50,745.66L429.54,746.77L431.32,743.40L434.79,749.67L434.37,755.67L437.24,755.67L434.67,755.30L435.27,749.92L440.06,750.85L434.39,747.84L432.33,742.46L425.56,743.42L430.90,741.96L425.64,739.08L429.20,737.64L430.13,739.56L431.90,736.27L433.90,739.08L433.53,736.66L436.06,736.40L436.49,740.52L436.87,737.16L441.63,741.57L444.55,739.08L441.17,739.37L440.15,738.26L441.39,735.58L445.26,733.55L449.11,734.96L448.19,731.86L439.37,734.74L443.35,731.36L434.56,733.78L435.04,730.64L437.59,730.64L433.44,727.26L437.86,723.62L441.12,727.27L446.54,724.94L449.20,730.64L454.03,736.18L449.11,725.85L445.77,723.77L448.36,720.29L451.36,728.33L455.99,730.38L452.43,725.59L455.56,724.87L454.14,723.34L451.92,725.08L453.11,723.43L450.24,723.24L449.34,720.09L455.22,720.29L454.29,718.48L458.96,716.69L455.00,717.06L453.18,713.81L456.75,711.87L455.61,709.34L458.19,710.17L459.89,707.75L460.81,713.81L465.56,709.95L462.36,711.07L461.75,709.34L465.61,707.03L461.50,707.07L464.21,704.35L466.75,705.14L465.73,703.44L468.31,701.50L471.54,709.12L469.97,712.59L472.19,711.43L475.23,714.75L472.53,709.86L475.74,707.75L483.26,708.11L481.41,705.96L483.44,702.98L480.15,704.65L483.23,700.10L490.06,696.39L485.59,692.89L490.56,688.28L487.54,687.68L488.88,684.90L479.12,695.72L483.16,692.71L485.09,693.89L483.28,698.46L471.78,706.81L469.54,699.84L473.28,697.18L466.39,700.76L469.28,697.18L466.41,696.94L474.47,691.18L471.32,691.88L473.61,689.48L471.24,690.44L472.20,684.84L474.40,685.45L474.13,682.03L476.66,682.50L475.06,680.80L478.27,676.01L480.05,676.49L478.00,674.13L479.80,675.05L479.51,673.13L482.36,676.05L480.15,673.13L483.86,671.91L484.04,667.85L488.62,673.85L487.46,677.58L489.47,673.13L492.51,672.15L489.81,672.65L490.66,669.75L494.04,668.05L491.96,666.93L490.79,668.89L489.30,664.19L494.81,661.10L492.35,660.12L493.62,657.96L499.55,656.02L495.67,655.67L487.63,663.22L489.71,660.36L487.52,659.59L493.02,656.97L487.70,658.46L496.50,651.47L499.17,654.07L508.28,642.92L501.33,648.56L502.94,646.86L501.16,645.92L505.57,644.96L499.80,645.68L502.94,640.86L505.32,642.31L502.69,638.21L505.57,640.86L504.55,638.71L506.42,637.75L504.29,637.75L503.87,633.17L502.19,635.33L501.27,630.97L502.89,628.13L504.29,631.01L506.50,631.47L503.66,627.42L505.64,626.17L505.21,621.34L507.26,619.94L511.31,623.83L508.20,618.98L509.63,615.84L505.06,616.56L515.66,610.33L515.76,614.88L519.30,613.60L516.67,612.24L517.75,610.38L521.33,610.30L523.28,607.04L509.63,612.46L515.74,607.90L512.98,605.61L511.94,608.32L509.60,607.53L511.16,602.36L508.79,600.42L510.40,599.70L511.92,602.82L513.61,602.77L512.34,600.42L517.44,600.66L514.81,598.96L518.12,597.52L512.09,599.50L514.13,596.81L511.50,595.35L515.90,596.35L511.92,593.69L517.71,594.48L520.14,592.95L516.25,593.69L518.45,592.01L515.41,591.29L521.42,591.03L515.86,586.39L521.17,583.83L520.14,585.27L520.69,586.37L521.00,586.21L522.24,581.50L523.38,584.64L524.87,581.53L528.53,583.00L524.81,580.69L525.99,578.03L526.73,579.80L530.78,579.29L528.97,576.47L533.62,576.11L532.52,578.27L533.80,580.16L535.04,576.15L540.08,581.17L538.53,576.59L543.03,577.56L534.65,574.94L535.91,572.74L529.84,576.03L530.16,573.96L525.56,575.16L529.21,568.87L531.70,570.35L534.48,567.94L531.68,567.94L530.49,566.48L534.60,563.36L535.84,564.82L533.98,563.84L534.00,566.54L531.76,566.96L534.08,567.18L536.26,565.52L535.58,568.88L539.18,566.68L542.02,573.96L540.41,567.22L544.98,564.08L536.83,565.05L537.28,562.79L539.64,563.36L536.08,561.92L537.60,558.35L544.22,559.26L542.44,555.67L538.96,555.67L539.23,553.41L536.12,558.54L531.85,561.07L531.31,558.04L535.32,557.58L531.06,554.98L535.14,553.75L532.01,553.96L533.86,552.19L536.33,554.44L539.85,551.41L540.46,553.70L543.18,550.20L544.51,552.04L547.02,547.95L544.98,546.17L541.32,547.17L540.62,545.89L538.80,548.70L537.36,547.23L541.83,542.58L541.65,546.65L544.32,545.14L545.99,539.73L546.76,547.47L548.63,549.17L549.17,552.61L552.24,555.62L548.80,548.43L552.01,552.05L551.05,546.44L554.76,546.02L549.82,545.31L551.34,541.95L553.54,542.65L551.85,540.49L548.37,541.36L550.64,540.12L548.37,537.35L556.17,543.87L548.96,536.18L554.83,534.28L556.43,537.14L560.18,535.42L562.74,542.65L561.68,534.26L569.39,534.71L564.39,532.80L565.37,529.90L559.19,533.27L558.46,530.62L552.86,533.12L551.99,530.60L553.92,529.78L553.63,526.41L558.12,523.77L560.45,526.31L561.70,523.09L567.01,525.32L561.51,521.96L564.31,519.88L568.29,522.22L564.39,519.32L568.83,517.13L563.88,516.92L566.76,509.29L572.86,507.99L570.84,505.13L572.94,497.25L574.70,496.30L577.00,499.98L577.19,505.13L577.96,500.59L579.53,504.14L580.07,502.01L583.51,503.31L576.60,497.44L576.85,495.25L581.53,493.99L583.53,499.45L588.04,502.09L585.54,504.49L589.65,505.35L588.66,501.39L583.26,496.42L586.60,495.01L586.18,493.44L583.55,494.62L582.66,491.78L586.43,486.10L593.05,485.14L589.91,499.33L592.54,491.88L597.11,492.83L593.96,491.36L593.55,488.39L597.79,480.30L598.28,483.22L599.34,479.29L600.98,482.58L600.45,492.36L594.69,503.94L601.68,493.10L606.27,495.97L601.81,491.36L601.68,486.58L609.23,480.08L606.77,483.44L608.34,485.71L610.19,482.64L610.30,484.61L611.67,477.53L621.67,487.06L619.39,480.19L621.86,477.20L617.96,476.96L621.68,474.04L616.98,476.14L610.67,470.95L613.52,468.80L614.14,470.95L614.93,466.99L618.90,473.10L618.05,469.23L620.29,466.91L621.90,470.07L624.24,468.18L623.85,473.51L627.37,473.82L624.49,472.38L625.41,469.20L632.42,470.98L630.80,474.04L623.98,476.72L631.18,474.55L633.05,473.10L633.99,479.84L636.71,478.39L636.90,480.08L639.49,477.42L634.99,475.02L637.80,473.34L635.84,470.69L639.40,469.70L636.69,469.24L640.42,467.57L639.17,465.43L644.18,460.38L649.52,462.24L646.46,459.25L649.55,454.00L654.14,456.46L653.31,453.35L648.22,450.71L650.09,447.82L653.05,450.88L653.43,443.93L655.34,446.38L657.97,444.15L656.52,447.60L658.39,448.32L659.46,445.97L660.60,450.47L662.08,443.98L664.19,445.85L663.02,448.71L665.76,446.82L669.01,447.93L658.47,460.59L660.60,459.73L658.30,461.07L661.11,462.25L657.31,470.21L657.61,476.02L658.73,472.86L658.97,475.37L660.69,474.71L664.24,467.81L663.02,466.25L677.52,444.93L678.48,452.42L674.16,455.51L678.06,455.77L676.19,465.52L679.98,461.41L683.56,461.77L681.96,458.41L685.60,457.71L683.67,452.67L686.37,452.16L686.31,449.34L690.09,449.99L683.95,444.90L686.62,445.18L685.43,442.22L689.15,444.72L690.34,438.68L691.23,441.05L697.04,440.12L697.20,443.74L701.46,444.11L697.96,450.35L691.70,450.47L696.28,452.42L690.34,456.97L698.39,453.59L692.80,461.31L693.23,463.23L696.96,460.59L696.24,462.75L698.81,460.09L696.65,464.82L696.74,473.51L694.84,475.76L696.94,474.21L697.55,464.25L699.50,460.94L700.94,462.51L699.64,458.64L704.50,447.60L708.06,447.34L712.04,450.71L710.83,455.34L715.69,452.15L715.44,456.49L720.70,453.30L723.70,457.33L719.41,459.37L726.60,459.23L732.56,465.39L732.73,468.29L726.19,469.53L721.37,475.76L709.76,474.04L702.75,471.87L702.29,472.06L703.99,472.38L702.45,474.51L705.18,474.81L703.73,475.26L715.52,479.34L711.54,483.20L716.20,481.52L713.06,490.17L719.78,486.14L718.65,489.24L720.29,487.40L721.71,489.24L722.98,482.25L723.57,489.72L725.38,484.66L729.81,485.09L730.88,489.79L728.75,495.08L720.88,491.10L720.93,497.87L711.70,502.80L707.84,512.17L704.90,509.64L711.30,497.08L708.86,490.07L699.67,485.21L693.02,475.62L683.54,481.72L676.53,480.89L669.99,489.18L666.68,505.73L667.40,513.63L665.33,517.81L660.05,519.97L656.39,528.95L644.31,519.85L635.27,526.81L633.71,524.60L625.52,523.48L615.99,503.86L609.30,504.98L608.97,512.11L604.92,509.73L603.42,512.12Z M537.27,543.28L538.80,537.75L536.51,533.43L532.61,532.32L527.20,536.10L525.75,540.20L528.62,544.93L533.35,546.20L537.27,543.28Z M516.64,536.61L521.53,544.64L528.44,542.92L530.25,538.16L528.72,534.79L523.11,531.23L519.28,532.65L516.64,536.61Z M515.66,536.93L513.42,547.25L516.61,548.56L525.30,539.36L520.76,534.91L515.66,536.93Z M536.38,533.58L538.12,527.40L535.10,524.65L531.01,523.50L525.42,526.05L526.46,533.58L530.67,535.82L536.38,533.58Z M410.58,848.92L410.62,860.22L414.19,861.33L416.31,855.23L413.46,848.07L410.58,848.92Z M409.59,834.87L410.06,844.13L412.36,845.86L416.33,838.92L412.92,832.06L409.59,834.87Z M410.68,830.65L411.96,839.28L417.42,840.04L419.51,836.25L417.78,829.59L414.66,827.19L410.68,830.65Z M415.12,823.67L410.96,831.35L414.42,836.56L421.69,834.38L421.00,824.09L415.12,823.67Z M407.38,812.50L409.53,825.03L413.94,823.74L413.81,817.20L410.75,811.68L407.38,812.50Z M405.56,808.95L411.71,819.61L415.78,817.26L416.12,810.78L412.49,806.66L407.08,806.52L405.56,808.95Z M419.70,803.37L416.52,803.04L411.64,809.90L415.30,816.51L420.75,814.04L419.70,803.37Z M404.41,786.14L404.48,795.63L407.07,797.05L412.50,794.82L414.32,790.19L412.70,785.00L407.30,783.21L404.41,786.14Z M404.51,761.32L403.73,766.62L408.45,771.31L417.20,765.69L416.96,762.78L411.60,758.96L404.51,761.32Z M411.71,749.64L414.77,757.16L421.26,756.70L425.11,752.01L424.12,746.31L420.94,744.44L414.49,744.62L411.71,749.64Z M418.60,741.80L416.62,751.75L420.62,754.38L427.29,747.10L423.21,740.80L418.60,741.80Z M418.63,746.75L427.16,749.90L431.74,745.19L430.78,741.84L424.05,738.96L420.13,739.59L417.86,742.85L418.63,746.75Z M425.85,732.28L425.60,737.45L428.97,741.22L438.53,737.33L437.27,729.51L430.85,728.27L425.85,732.28Z M428.18,725.45L429.55,735.92L433.61,737.59L437.61,735.79L439.64,729.14L437.54,724.92L432.45,723.59L428.18,725.45Z M438.76,718.74L437.93,723.42L440.91,727.51L445.21,728.94L450.72,724.55L450.76,717.97L445.31,715.11L438.76,718.74Z M436.44,719.94L436.78,727.23L441.50,730.04L447.60,724.62L446.21,717.99L443.34,716.22L436.44,719.94Z M445.11,711.94L441.20,717.54L442.35,721.17L446.07,724.30L451.25,723.56L454.27,720.97L453.66,714.13L451.58,711.38L445.11,711.94Z M453.72,709.32L446.10,713.49L447.71,720.75L452.83,723.10L457.79,721.23L459.19,717.82L456.78,711.59L453.72,709.32Z M440.65,708.07L445.84,717.13L452.07,714.61L453.36,708.63L449.39,703.47L440.65,708.07Z M452.68,703.07L449.37,708.25L452.97,710.23L463.25,704.69L460.02,699.88L452.68,703.07Z M457.10,691.93L447.14,699.41L447.92,702.38L456.55,703.55L459.51,701.87L461.06,698.04L459.61,692.81L457.10,691.93Z M481.35,665.84L484.69,674.52L489.37,676.26L493.68,672.00L489.65,664.55L484.57,662.37L481.35,665.84Z M479.08,662.03L489.28,662.35L491.97,657.49L485.61,651.26L477.97,659.12L479.08,662.03Z M485.60,661.39L490.27,654.18L486.92,650.33L482.16,650.67L477.58,654.80L476.60,660.23L478.80,662.70L485.60,661.39Z M498.82,642.21L492.29,650.34L494.80,654.89L499.52,656.13L503.64,652.98L504.78,649.20L502.18,643.83L498.82,642.21Z M500.10,632.95L497.32,646.93L503.61,640.42L500.10,632.95Z M497.11,624.49L491.62,625.29L488.82,630.67L489.02,634.23L493.40,637.80L497.76,637.95L501.78,631.22L501.09,626.71L497.11,624.49Z M499.64,625.77L505.03,625.93L510.44,620.95L511.07,616.27L504.86,614.28L500.77,616.04L497.94,621.10L499.64,625.77Z M497.72,616.14L499.12,621.38L505.76,619.04L508.27,614.83L506.52,609.16L500.91,608.94L497.72,616.14Z M526.82,574.14L518.37,577.40L517.58,582.49L522.75,587.51L525.91,587.13L528.75,576.29L526.82,574.14Z M510.47,543.24L504.64,554.63L506.22,557.11L512.61,550.38L512.94,544.99L510.47,543.24Z M512.59,539.09L507.21,546.92L508.79,551.36L512.83,552.97L516.01,551.32L518.46,544.96L517.03,540.94L512.59,539.09Z M525.67,534.65L523.65,544.08L529.54,541.51L536.56,531.75L525.67,534.65Z M544.73,528.39L544.57,538.15L548.09,539.09L555.02,536.49L556.47,533.16L554.66,527.45L549.65,525.26L544.73,528.39Z M554.34,516.10L551.71,524.10L554.06,526.95L561.80,526.10L564.91,523.25L564.60,519.04L560.22,513.79L554.34,516.10Z M559.69,512.01L555.45,514.20L555.25,518.22L560.38,525.31L564.66,524.10L568.80,518.41L566.26,513.27L559.69,512.01Z M553.12,519.54L552.40,529.06L547.55,529.60L545.51,535.16L544.64,531.12L541.59,537.96L538.52,537.01L541.43,531.84L540.72,530.56L533.71,539.05L538.29,532.32L536.56,528.96L541.67,527.02L539.30,523.66L542.70,523.88L539.51,521.51L541.85,514.98L545.10,514.82L543.29,522.68L546.11,521.70L543.45,526.30L543.03,529.90L544.49,526.24L547.27,526.08L549.39,516.79L553.12,519.54Z M548.56,508.87L544.60,515.03L548.51,520.72L553.53,522.11L557.31,520.10L558.55,515.67L555.73,510.80L548.56,508.87Z M526.42,525.32L529.28,519.37L530.00,521.91L532.72,521.81L533.29,518.10L533.95,520.63L534.49,518.56L535.84,519.80L533.99,514.68L535.58,512.93L536.85,519.54L538.62,518.58L538.51,524.99L532.30,527.99L531.82,525.88L535.91,523.88L534.19,521.43L527.94,527.13L526.42,525.32Z M540.41,513.07L539.21,517.46L540.92,509.69L547.50,502.32L547.18,507.99L544.36,512.37L540.41,513.07Z M571.85,498.01L569.48,504.63L570.84,506.81L564.65,507.99L564.45,506.36L560.21,512.99L559.97,510.42L556.42,511.48L556.34,509.21L560.74,506.33L557.36,506.55L560.41,504.39L557.45,502.93L560.24,502.47L557.70,499.57L563.55,500.53L562.10,498.85L564.74,498.35L561.61,497.42L560.92,495.73L562.52,497.17L562.86,494.51L566.59,497.17L564.39,492.33L566.75,495.53L566.76,492.33L567.93,494.41L569.24,492.78L568.89,497.65L570.29,495.01L570.25,498.35L571.85,498.01Z M574.10,490.97L570.51,492.47L573.09,495.08L580.84,493.57L583.75,484.16L579.08,481.96L580.28,485.94L579.74,488.22L579.32,484.80L575.67,484.95L572.87,488.37L574.10,490.97Z M574.65,491.80L574.60,491.38L575.00,491.36L574.65,491.80Z M610.46,482.90L613.98,486.74L618.42,487.10L622.55,483.81L623.54,478.54L619.83,474.09L613.70,474.10L610.14,478.05L610.46,482.90Z M592.09,483.63L597.66,483.80L601.49,480.35L601.78,475.77L598.35,471.82L591.79,471.83L588.34,475.84L588.71,480.46L592.09,483.63Z M614.21,477.67L606.26,471.82L601.27,475.24L600.43,479.72L604.09,484.72L612.77,481.38L614.21,477.67Z M605.45,470.60L601.79,474.72L601.63,479.75L605.19,483.32L610.22,483.17L614.16,480.06L614.91,475.55L613.21,471.76L605.45,470.60Z M585.52,473.78L579.16,480.82L584.59,486.79L588.98,484.93L592.88,478.60L585.52,473.78Z M600.59,479.16L606.87,479.48L608.79,476.98L609.46,471.60L607.12,467.19L602.45,466.47L598.49,469.24L596.99,473.95L600.59,479.16Z M600.56,474.02L592.47,465.21L587.05,469.25L591.01,478.13L595.15,479.10L600.56,474.02Z M623.61,463.70L622.51,468.20L625.41,471.01L632.48,472.31L635.79,470.57L635.04,465.60L630.84,461.55L623.61,463.70Z M630.64,462.99L633.43,468.71L638.12,468.04L642.03,462.23L640.62,455.87L636.96,455.70L637.22,457.86L634.51,458.04L630.64,462.99Z M639.03,450.80L641.39,462.70L646.38,461.81L649.48,457.31L647.33,451.97L642.72,449.07L639.03,450.80Z M626.25,460.89L623.99,459.25L622.37,461.68L624.58,456.73L620.96,457.42L619.84,455.51L625.59,456.27L625.21,453.35L627.15,453.07L629.42,457.07L629.40,451.98L632.44,455.05L635.08,452.42L633.64,449.73L636.89,450.90L637.06,447.85L638.81,450.21L633.92,457.68L626.25,460.89Z M639.48,444.88L645.26,450.92L652.90,445.68L652.49,441.72L646.25,437.62L640.98,439.14L639.48,444.88Z M660.33,441.03L664.66,446.93L671.77,444.88L673.89,441.86L666.09,436.09L660.33,441.03Z M511.14,604.76L505.55,602.61L501.79,605.51L500.31,611.70L502.61,614.74L508.05,616.40L511.34,614.22L512.96,610.04L511.14,604.76Z M501.97,603.94L503.27,609.22L508.45,611.49L512.06,609.44L513.87,603.72L512.66,599.42L508.56,597.63L504.59,598.52L501.97,603.94Z M542.01,548.39L536.91,543.87L530.83,545.44L528.50,549.91L530.47,555.31L536.78,556.50L541.39,553.71L542.01,548.39Z M542.59,552.69L548.31,551.44L548.45,545.32L538.52,544.17L536.12,550.44L542.59,552.69Z M530.44,550.78L533.45,554.78L539.00,554.88L542.52,552.02L542.20,545.41L539.24,542.03L534.76,541.80L531.46,544.85L530.44,550.78Z M537.75,512.28L531.52,509.90L527.32,512.98L526.24,519.28L529.69,522.81L535.49,523.41L539.19,519.60L537.75,512.28Z M608.08,477.91L599.14,478.30L597.24,483.71L598.69,488.17L602.74,490.55L607.26,488.90L609.51,485.00L608.08,477.91Z M715.34,477.71L711.90,488.30L715.81,491.02L720.76,489.60L725.00,484.92L718.63,477.32L715.34,477.71Z M590.77,474.97L584.96,482.11L586.68,487.49L593.23,487.06L597.74,480.89L597.10,476.27L594.25,474.11L590.77,474.97Z M574.71,478.59L579.97,483.49L587.74,475.86L585.42,471.35L578.14,469.84L574.71,478.59Z M612.06,471.71L606.93,467.47L601.99,469.41L600.36,477.09L606.59,481.40L611.29,478.32L612.06,471.71Z M594.05,470.16L587.81,467.08L583.98,469.25L582.97,477.01L587.68,479.82L594.39,478.21L595.96,474.11L594.05,470.16Z M582.07,466.06L578.86,473.93L580.99,476.85L586.15,478.72L589.47,476.63L590.79,470.24L587.20,465.10L582.07,466.06Z M611.35,465.31L614.62,473.81L618.48,474.00L622.53,469.30L621.82,462.28L618.67,460.54L613.23,461.48L611.35,465.31Z M584.95,315.45L578.77,317.25L576.89,320.95L583.40,329.34L587.50,328.26L590.85,321.38L589.66,318.05L584.95,315.45Z M661.75,241.12L654.91,250.84L656.40,254.06L659.02,253.92L666.36,244.51L665.53,240.92L661.75,241.12Z M650.45,203.39L635.72,223.14L625.42,222.42L625.68,217.24L630.08,212.91L606.42,216.38L606.52,212.43L610.76,210.99L616.27,200.15L606.56,193.81L607.99,192.41L632.40,188.27L638.64,191.72L634.13,194.18L634.31,197.77L640.59,201.83L648.96,200.37L650.45,203.39Z M623.81,187.88L603.72,190.46L605.51,187.64L601.51,186.20L603.89,183.54L597.62,180.58L608.34,178.14L610.29,175.38L614.26,177.32L621.26,176.30L623.81,187.88Z M683.51,169.74L675.32,165.78L671.89,171.14L677.85,178.17L680.26,178.17L685.26,174.32L683.51,169.74Z M495.19,181.54L498.50,190.28L488.65,181.50L485.90,181.86L478.02,165.99L484.39,167.98L487.60,178.72L495.19,181.54Z M699.85,163.31L715.78,165.73L692.71,167.65L699.85,163.31Z M715.68,164.62L719.30,168.28L725.38,167.38L728.68,163.94L727.92,159.24L723.23,156.52L716.81,157.80L715.68,164.62Z M595.24,156.51L594.33,161.60L599.32,164.30L607.91,161.16L607.03,158.35L601.47,155.60L595.24,156.51Z M588.05,149.56L592.37,153.89L598.27,153.31L601.50,149.91L598.61,146.22L591.79,144.88L588.77,145.66L588.05,149.56Z M476.43,137.93L478.51,142.31L483.00,143.99L489.11,141.62L490.04,138.23L488.95,135.01L481.41,132.10L477.45,133.47L476.43,137.93Z M487.38,132.31L478.94,130.81L476.25,132.55L476.49,138.58L483.84,140.78L487.71,139.62L489.28,135.89L487.38,132.31Z M602.87,175.13L592.79,175.35L590.56,176.85L591.77,179.20L582.87,181.38L584.40,189.20L582.37,191.00L584.56,193.66L576.00,196.53L574.69,214.13L566.34,216.74L562.78,230.74L559.81,230.48L562.61,233.14L557.61,239.64L560.99,243.05L556.25,247.61L551.57,245.66L550.49,247.42L549.75,242.66L540.08,236.74L552.78,232.40L549.43,232.66L546.60,229.41L544.84,231.85L538.15,232.10L534.37,227.67L527.04,226.03L520.40,213.63L526.95,211.81L530.30,215.03L534.40,212.49L544.43,213.73L548.98,216.91L544.33,212.07L530.66,209.07L550.36,204.39L560.15,204.95L556.00,201.59L558.71,199.43L554.69,201.98L540.73,201.49L520.97,207.11L518.25,206.06L516.42,195.31L520.98,193.91L525.59,198.53L524.38,193.99L534.30,193.18L539.03,188.90L542.45,189.73L541.17,187.14L543.71,185.23L557.83,184.90L562.28,182.08L556.77,183.76L550.32,181.38L556.47,174.51L553.10,172.01L546.27,180.32L539.31,181.17L536.26,176.57L539.63,174.28L538.59,167.37L537.10,173.91L533.66,176.29L531.58,171.51L527.01,173.45L528.80,177.76L526.25,179.68L530.58,183.54L525.04,183.67L525.49,186.44L522.44,188.74L522.70,187.14L520.82,189.32L518.36,187.88L519.72,189.80L509.25,190.12L507.73,185.06L501.25,180.16L511.58,178.22L502.08,178.16L495.57,174.86L492.35,171.03L495.55,167.62L488.53,163.09L503.03,165.25L502.01,162.27L497.57,163.06L492.85,159.71L498.45,154.65L498.19,151.54L494.72,151.76L494.95,154.21L491.75,151.28L493.34,155.56L487.22,158.62L482.43,149.12L483.16,145.62L480.40,143.10L486.67,142.38L482.60,141.18L484.57,139.32L490.06,139.96L487.21,134.47L490.88,135.21L494.57,132.47L497.34,137.80L500.44,138.79L499.29,132.74L503.40,135.94L518.99,131.18L521.17,134.92L518.27,137.34L509.30,137.80L502.35,142.16L514.72,141.34L512.34,145.52L516.77,145.26L522.02,152.81L523.46,150.10L520.06,143.10L524.97,140.46L523.28,139.96L528.29,133.65L537.52,140.94L540.02,150.56L543.43,153.65L542.31,158.21L544.78,156.50L551.62,165.26L541.85,135.17L542.73,131.34L547.94,131.57L545.69,128.95L549.89,124.66L553.12,125.53L556.38,131.39L558.17,128.34L561.94,128.94L572.20,136.60L565.92,142.88L568.29,144.80L566.69,149.18L575.27,140.02L581.89,146.66L581.85,151.06L578.30,152.98L581.43,153.22L582.67,156.64L593.07,156.35L594.56,161.65L614.83,167.98L612.83,174.14L604.27,172.91L602.87,175.13Z M737.68,123.38L760.21,118.31L764.43,119.27L754.42,122.35L737.68,123.38Z M578.79,121.16L583.05,115.00L574.23,111.25L569.46,117.53L578.79,121.16Z M642.16,109.56L642.65,116.44L647.85,118.96L653.87,116.99L654.19,109.93L649.83,105.90L645.69,106.16L642.16,109.56Z M651.29,105.47L643.71,104.75L640.38,107.42L640.28,111.68L646.44,115.38L650.80,114.66L653.66,111.29L651.29,105.47Z M685.26,123.61L684.86,131.46L667.78,140.16L669.54,144.05L667.82,146.62L659.83,150.34L656.58,148.87L648.76,151.27L645.85,155.52L631.90,154.32L628.43,151.28L631.52,147.42L605.82,148.87L604.74,146.04L598.15,145.68L591.18,140.68L598.29,139.48L610.00,142.16L601.60,138.04L618.60,137.32L624.01,133.85L580.67,136.75L572.36,130.35L579.25,126.67L580.75,127.93L582.53,125.05L573.88,125.31L572.86,124.09L575.49,124.09L568.29,122.17L571.44,120.25L579.41,121.34L579.64,119.75L586.70,124.03L590.58,121.69L586.12,120.08L583.12,114.96L593.88,119.27L592.19,118.31L594.65,113.50L589.15,112.67L591.47,109.29L596.17,110.59L597.02,113.73L600.54,112.15L603.04,116.39L606.10,116.15L606.27,119.51L618.56,117.47L619.19,119.53L615.50,122.63L621.26,123.13L623.96,127.62L624.98,125.45L626.36,126.49L624.75,124.57L627.58,116.52L624.63,113.54L628.89,112.03L628.04,114.45L629.74,115.44L630.12,108.86L637.28,111.82L634.32,113.27L637.20,115.17L633.50,118.30L632.91,121.33L634.34,122.90L635.61,120.31L637.75,122.02L638.64,119.53L639.84,122.34L642.78,120.54L642.29,116.17L649.34,116.97L650.17,115.68L647.03,114.72L648.41,113.83L652.62,115.89L651.64,118.05L655.46,114.53L654.84,118.31L661.96,117.11L660.35,118.09L667.22,119.53L666.27,120.97L679.91,120.91L685.26,123.61Z M599.36,104.07L590.29,105.45L588.63,109.36L590.39,113.21L597.90,114.17L601.75,111.85L602.40,107.39L599.36,104.07Z M609.98,106.77L609.72,100.86L605.51,98.69L598.46,99.95L596.73,103.13L597.51,106.66L602.63,109.63L606.97,109.90L609.98,106.77Z M617.09,101.17L611.59,97.34L604.91,99.24L603.53,102.13L605.06,106.54L610.31,108.70L616.99,105.32L617.09,101.17Z M603.61,106.03L610.01,105.47L611.67,100.10L600.01,96.61L599.14,102.66L603.61,106.03Z M478.50,861.13L479.30,866.70L483.00,869.31L487.65,869.01L491.10,864.01L488.73,857.31L483.82,855.68L478.50,861.13Z M482.95,854.33L476.91,858.01L477.20,864.73L481.83,868.22L486.42,867.27L489.38,861.84L488.02,856.50L482.95,854.33Z M408.18,824.91L409.40,832.26L412.63,834.46L416.44,833.56L418.59,827.35L416.71,822.64L410.79,820.94L408.18,824.91Z M414.94,797.77L412.40,792.27L408.73,790.98L403.68,792.33L401.66,795.76L403.56,801.96L409.57,804.92L414.06,802.35L414.94,797.77Z M402.30,788.14L400.99,795.60L403.20,798.96L407.81,800.00L411.84,796.10L411.72,790.45L405.74,786.20L402.30,788.14Z M405.69,761.58L408.39,766.09L413.54,766.44L416.28,763.21L416.41,756.45L410.19,752.92L406.74,754.18L405.69,761.58Z M425.28,748.61L424.33,742.99L420.46,740.55L414.28,742.57L411.57,746.78L412.88,751.60L417.35,753.85L423.13,752.51L425.28,748.61Z M423.85,745.90L417.79,740.13L412.06,741.75L410.21,748.38L412.86,752.77L417.86,753.86L422.95,750.88L423.85,745.90Z M456.07,714.41L452.03,710.69L447.34,711.06L444.04,713.97L444.21,720.18L447.62,723.95L452.71,723.69L456.95,719.16L456.07,714.41Z M463.75,695.67L458.02,695.30L454.81,698.42L454.00,703.90L457.37,707.78L461.54,708.63L466.29,705.33L467.54,699.84L463.75,695.67Z M464.34,690.57L469.25,695.32L475.29,693.59L477.69,688.23L474.67,683.19L468.20,681.77L464.27,685.29L464.34,690.57Z M483.59,666.05L484.84,672.66L489.48,675.34L495.61,670.59L493.72,664.28L490.27,661.51L485.90,662.28L483.59,666.05Z M493.72,664.10L489.72,659.56L485.15,660.25L481.15,665.11L482.37,669.31L487.51,673.28L493.46,669.31L493.72,664.10Z M492.99,644.26L485.70,649.96L486.01,654.65L491.69,657.72L495.26,657.17L498.86,651.90L496.74,645.04L492.99,644.26Z M558.74,508.84L558.13,515.80L561.52,518.47L565.86,518.47L570.33,512.94L568.59,505.74L562.78,505.35L558.74,508.84Z M651.86,434.23L647.39,442.52L650.09,446.03L656.71,447.43L659.99,444.03L660.49,437.24L657.10,434.46L651.86,434.23Z M420.16,854.75L413.35,856.07L411.53,860.44L413.60,864.70L419.69,867.86L423.79,865.94L425.50,861.22L423.69,856.40L420.16,854.75Z M420.53,854.18L416.66,850.80L412.79,851.13L409.74,854.76L410.52,861.11L413.96,864.32L418.63,863.73L421.16,859.76L420.53,854.18Z M416.13,853.51L416.98,859.72L421.32,862.02L426.37,861.24L429.26,857.26L428.97,852.00L424.62,849.03L418.52,849.81L416.13,853.51Z M413.33,804.89L408.90,800.61L404.23,801.57L401.95,805.77L402.69,811.54L406.21,814.07L411.41,813.49L413.33,804.89Z M404.08,775.03L409.08,777.42L413.21,775.66L414.79,769.29L411.56,764.16L406.71,763.76L403.19,767.12L404.08,775.03Z M531.05,564.90L526.03,562.27L521.52,564.47L518.51,571.34L521.14,575.34L527.60,575.57L531.45,572.21L531.05,564.90Z M249.85,437.00L249.31,442.00L241.72,444.62L236.03,449.73L235.57,447.54L243.00,442.64L245.36,437.96L249.85,437.00Z" fill="currentColor" fill-rule="evenodd"/></svg>
