<svg xmlns="http://www.w3.org/2000/svg" viewBox="0 0 1000 1000" role="img" aria-label="Map of Oman"><path d="M525.29,185.74L521.30,191.95L522.85,197.59L534.66,192.17L534.09,188.17L525.29,185.74Z M512.66,126.68L522.66,110.09L522.98,114.63L537.62,114.06L534.85,111.65L530.31,113.50L530.89,107.84L534.54,108.74L531.37,106.27L534.54,100.00L542.06,104.44L545.02,102.24L545.63,105.11L541.34,105.55L537.20,109.63L543.98,112.38L541.86,115.10L539.75,113.50L543.40,119.72L535.58,117.43L536.63,115.18L531.87,117.50L532.41,122.52L534.54,119.72L534.54,123.08L542.88,123.59L535.79,128.55L539.05,129.79L537.34,132.47L541.38,136.03L536.06,137.76L534.54,147.55L527.67,155.57L528.07,162.28L522.47,163.07L517.84,158.72L517.54,153.64L519.89,150.96L517.42,146.23L520.77,130.50L519.18,125.65L512.66,126.68Z M536.03,215.58L553.44,255.15L578.51,286.38L594.71,299.71L632.42,313.11L643.92,313.78L650.95,318.82L669.57,319.44L683.75,327.03L704.14,324.89L709.86,331.82L715.13,334.62L717.73,333.50L721.21,343.43L730.52,351.89L742.62,374.03L753.65,382.69L758.63,395.03L776.81,412.24L775.31,414.01L783.79,412.51L791.00,415.66L792.41,419.24L794.15,419.17L792.87,415.92L798.92,418.33L800.42,423.55L797.92,440.62L788.47,453.32L785.20,466.20L773.94,480.12L762.20,505.70L740.06,519.47L724.78,536.83L715.97,553.53L711.49,556.31L710.52,560.91L715.13,561.36L710.43,563.04L704.73,571.45L699.13,590.10L693.58,594.88L680.57,594.07L675.02,591.09L675.82,586.12L677.44,589.54L679.70,576.08L675.24,573.96L666.46,577.78L665.32,584.91L656.15,591.52L656.97,597.21L648.53,602.92L646.06,607.81L647.91,615.15L645.29,626.21L635.78,646.64L638.13,652.81L636.95,661.37L642.25,672.79L640.48,684.42L647.29,703.97L645.44,707.10L637.35,711.03L621.44,710.23L598.99,713.82L568.46,727.32L555.73,742.61L555.97,750.14L548.68,772.95L549.63,776.28L542.09,781.60L533.97,793.46L509.13,793.18L464.37,801.59L458.59,813.46L447.80,826.40L447.90,830.52L453.34,836.42L449.56,846.83L450.25,851.40L432.42,869.72L414.47,874.63L407.29,873.09L405.47,869.02L399.21,867.48L360.47,869.72L354.95,872.48L352.54,878.13L335.13,881.50L324.61,890.52L303.46,892.41L284.50,900.00L262.44,848.68L256.32,846.16L199.58,706.79L428.72,624.70L479.07,461.84L444.64,402.34L444.98,378.38L447.62,368.05L471.49,314.78L470.90,306.19L465.26,298.93L479.78,293.85L492.02,295.29L506.59,289.23L501.65,277.78L488.09,276.99L492.04,267.92L488.41,250.04L492.87,243.08L490.61,225.68L493.72,220.27L501.82,215.62L507.18,217.39L508.99,225.19L503.52,224.58L509.16,233.98L514.33,235.92L519.83,228.25L530.30,222.40L531.88,216.04L536.03,215.58Z M494.90,835.20L503.08,830.76L502.99,827.42L498.65,823.73L492.62,824.77L489.35,830.74L491.17,834.16L494.90,835.20Z M510.14,822.88L502.18,827.20L503.69,831.44L515.59,829.29L515.52,826.70L510.14,822.88Z M728.75,567.01L732.09,582.54L724.00,588.42L719.50,601.37L709.34,610.33L709.04,594.04L713.05,588.93L718.25,587.24L728.75,567.01Z" fill="currentColor" fill-rule="evenodd"/></svg>
