<svg xmlns="http://www.w3.org/2000/svg" viewBox="0 0 1000 1000" role="img" aria-label="Map of Pakistan"><path d="M847.28,152.60L846.67,160.81L848.92,164.91L843.35,171.59L844.38,176.28L852.65,179.34L856.41,189.18L868.12,187.76L875.64,183.94L876.39,192.32L886.59,198.34L900.00,228.99L898.23,236.09L893.69,239.85L885.62,240.17L884.94,245.66L879.79,250.13L869.84,248.88L855.86,254.68L849.37,253.79L837.21,263.71L816.03,260.65L809.36,255.63L799.72,256.50L763.59,248.54L745.49,255.77L745.82,260.21L738.61,269.87L739.81,273.80L746.40,275.13L749.01,280.03L749.25,282.44L744.21,285.97L745.34,290.94L760.75,291.80L762.92,294.70L758.24,300.69L751.18,302.34L747.81,307.73L748.33,312.66L756.46,318.32L757.27,321.48L754.21,330.96L749.07,335.31L749.59,339.59L757.07,347.46L764.84,350.09L764.61,360.64L766.57,363.10L777.80,363.92L783.31,359.42L780.56,373.33L783.51,380.01L800.01,380.30L810.21,385.23L816.57,392.01L813.39,398.46L808.51,399.62L807.44,402.02L800.86,401.38L796.66,405.14L790.39,405.53L788.17,410.25L783.96,409.83L776.18,417.81L773.64,423.51L779.95,437.95L774.48,454.17L775.98,457.62L782.00,459.41L769.29,470.32L765.24,470.31L757.56,483.38L752.81,486.49L752.32,491.02L742.16,500.11L746.73,510.66L736.63,518.66L718.39,525.59L711.60,547.95L696.67,575.92L668.24,591.98L663.40,598.93L658.14,615.63L646.21,628.12L644.54,638.18L629.05,643.40L612.54,644.73L593.06,652.96L587.07,650.69L583.26,639.79L578.41,634.96L568.88,635.22L557.03,646.65L551.68,660.42L529.02,685.91L525.59,704.10L527.52,708.25L542.90,717.12L554.77,716.61L559.81,719.99L559.25,737.88L555.19,751.45L564.31,767.05L569.78,769.01L581.24,766.99L584.28,768.95L584.31,784.85L593.89,798.20L604.52,825.71L599.14,831.32L600.24,838.16L605.07,839.80L604.98,841.76L597.31,844.07L593.52,847.27L594.04,849.61L589.30,851.53L580.87,850.01L578.94,844.04L580.40,841.88L577.72,840.45L557.42,847.32L554.58,853.21L550.62,855.32L537.91,855.12L530.43,848.93L510.86,850.28L505.97,848.26L500.79,850.05L497.90,846.43L494.67,851.24L492.72,845.94L490.16,845.82L489.03,866.76L470.72,868.24L469.58,866.68L468.77,869.58L466.29,868.44L462.30,873.81L461.04,870.20L460.62,882.25L456.36,880.61L458.31,875.31L456.41,869.17L453.93,868.24L455.92,874.53L453.93,878.01L448.32,872.35L446.79,873.33L446.12,869.81L444.96,875.67L439.37,873.71L440.05,876.49L435.38,876.11L436.00,868.60L434.23,873.35L427.52,870.98L430.58,868.24L428.52,869.03L428.89,866.26L426.17,865.47L430.21,860.75L421.37,860.71L418.72,854.11L418.01,845.91L421.79,845.09L417.31,843.65L418.05,839.62L416.67,840.79L412.96,830.99L416.37,830.99L411.28,828.43L416.51,821.97L410.79,818.80L407.97,820.47L402.17,816.50L402.17,818.42L398.07,816.07L386.82,816.75L389.30,813.72L390.92,797.18L381.57,786.62L383.71,784.68L380.74,777.90L373.06,771.74L364.60,773.60L359.19,780.37L371.14,775.88L375.42,780.02L378.83,780.02L377.11,781.58L379.13,784.74L366.96,780.49L347.54,783.65L337.35,787.84L324.68,785.10L316.62,786.34L312.82,790.60L292.54,789.00L288.80,792.95L290.85,797.28L288.13,798.06L285.43,797.64L286.78,794.47L283.70,792.08L277.48,794.12L260.45,788.33L259.92,783.13L263.46,781.97L258.03,781.78L254.63,783.93L258.20,783.71L258.74,787.83L242.84,785.50L234.68,786.66L229.60,790.99L231.13,796.46L213.53,792.62L207.79,794.94L183.09,792.43L173.99,798.65L175.86,802.54L169.69,801.90L172.62,800.10L171.74,796.95L164.22,795.05L159.96,798.30L161.85,801.42L151.18,801.65L149.51,805.38L143.70,806.30L146.34,796.79L136.72,795.98L140.28,763.53L144.93,760.63L148.80,737.43L161.70,732.31L163.17,728.92L170.14,729.67L171.47,721.64L177.71,718.15L191.71,715.76L194.25,713.46L213.40,714.54L215.78,701.91L219.34,700.44L217.84,689.33L219.30,686.48L222.20,686.39L215.16,678.31L201.11,680.88L193.70,677.83L197.27,664.78L193.37,636.16L194.65,621.77L185.47,622.77L174.96,611.91L151.76,604.83L135.65,586.04L130.79,576.26L131.76,574.04L124.11,562.92L124.34,557.23L100.00,529.55L180.63,555.32L234.49,550.19L260.04,556.53L264.31,550.94L279.37,546.02L306.95,547.74L364.18,530.85L371.34,523.92L365.35,518.12L369.60,507.42L370.41,496.40L367.76,487.02L372.61,468.62L381.68,465.52L387.26,459.45L388.94,453.00L401.10,446.20L404.73,446.52L405.64,450.71L420.99,452.32L441.65,445.09L441.93,441.62L434.08,440.70L431.99,433.89L438.27,434.40L445.50,428.53L451.59,427.69L460.10,417.02L477.85,422.71L480.41,421.09L473.94,419.40L479.30,417.11L486.63,419.88L492.95,429.73L504.61,425.69L517.39,410.55L514.13,380.51L523.66,369.50L521.21,362.81L526.20,357.95L526.71,348.14L529.66,345.47L551.74,342.47L554.37,338.66L558.16,338.37L566.54,331.51L566.11,327.85L559.65,320.77L560.60,313.59L557.83,308.76L549.90,306.69L544.46,296.72L545.71,291.55L552.14,290.03L577.77,296.04L594.57,294.55L595.66,292.13L604.46,289.43L607.40,272.12L600.95,267.18L599.25,262.09L604.62,260.58L605.35,254.03L611.40,249.72L615.66,242.47L624.55,238.19L626.50,231.19L632.86,224.46L627.53,218.10L632.10,210.73L630.21,203.03L625.23,199.46L627.03,196.19L624.30,189.84L618.23,181.11L609.56,175.48L617.13,166.61L628.94,159.33L631.51,151.89L640.01,155.40L639.54,150.62L659.21,140.69L659.12,137.38L673.16,134.72L678.64,131.13L731.71,126.78L751.22,131.42L755.88,126.68L761.11,126.47L770.98,120.68L776.01,123.03L776.25,119.63L782.18,117.75L790.18,121.20L792.54,126.18L795.14,122.53L803.79,121.20L816.19,125.69L820.17,136.72L827.01,134.21L834.82,136.71L842.03,142.64L847.28,152.60Z M418.16,860.81L424.52,868.60L432.13,862.30L431.01,859.08L422.63,856.90L418.16,860.81Z" fill="currentColor" fill-rule="evenodd"/></svg>
