<svg xmlns="http://www.w3.org/2000/svg" viewBox="0 0 1000 1000" role="img" aria-label="Map of Palau"><path d="M707.63,257.13L708.94,265.55L701.87,271.19L702.07,267.42L707.63,257.13Z M733.93,219.39L736.61,228.74L726.46,233.76L719.67,231.69L719.93,226.49L727.82,230.33L733.93,219.39Z M737.48,211.53L734.80,218.86L739.55,216.37L747.67,220.95L745.39,213.35L737.48,211.53Z M766.06,156.64L767.61,176.64L758.75,208.97L747.41,213.02L741.14,195.52L748.32,193.01L744.86,186.52L751.91,175.07L764.01,170.67L761.90,155.04L766.06,156.64Z M223.05,891.59L231.37,886.93L232.76,885.06L230.96,880.98L226.75,880.57L219.74,887.02L219.37,890.77L223.05,891.59Z M394.51,528.54L390.29,526.11L385.81,527.17L382.72,530.84L383.31,535.61L389.20,538.84L394.15,537.72L396.47,533.21L394.51,528.54Z M693.24,287.73L695.14,278.99L685.54,276.33L683.66,280.76L687.68,288.46L689.54,289.78L693.24,287.73Z M317.99,900.91L325.74,903.44L330.32,898.94L329.55,895.75L317.63,894.72L317.99,900.91Z M768.87,102.50L772.08,108.81L775.07,109.34L782.61,99.37L780.80,96.45L772.07,96.92L768.87,102.50Z" fill="currentColor" fill-rule="evenodd"/></svg>
