<svg xmlns="http://www.w3.org/2000/svg" viewBox="0 0 1000 1000" role="img" aria-label="Map of Panama"><path d="M165.01,340.88L187.69,360.23L196.36,360.61L191.38,372.79L195.52,379.53L189.28,383.33L195.30,391.54L201.09,394.53L202.95,389.75L208.22,394.93L209.52,390.69L219.73,392.57L218.80,400.07L207.51,397.48L209.91,419.39L223.67,421.52L229.64,429.54L248.56,429.40L254.82,423.98L273.42,428.21L273.60,420.35L251.97,402.26L260.20,402.22L255.11,396.92L258.85,395.35L268.12,403.99L264.41,404.84L267.26,410.30L280.81,415.61L305.55,445.70L337.42,449.96L369.17,446.53L402.90,435.02L415.89,420.39L435.93,408.93L497.01,391.69L520.92,368.72L524.22,378.24L528.94,371.06L531.63,372.88L532.13,364.50L542.76,372.03L542.76,362.57L556.66,351.92L561.95,343.14L557.81,342.48L564.85,336.44L575.63,333.59L579.95,341.85L587.45,341.85L588.46,338.11L624.16,345.90L654.48,341.27L653.94,345.20L643.03,346.95L642.59,357.12L668.84,362.00L687.40,357.52L724.84,363.86L781.32,387.54L805.93,412.55L805.34,404.84L820.63,423.77L824.26,434.80L838.72,446.27L836.72,441.37L846.19,453.01L848.32,450.92L848.18,459.20L857.39,465.34L871.44,466.05L863.22,471.06L855.79,492.29L864.81,494.66L871.32,517.60L879.13,522.89L900.00,565.68L881.37,570.78L870.57,588.32L876.03,597.54L843.39,622.10L838.86,620.85L829.81,602.52L821.62,595.94L818.36,597.75L822.84,621.83L819.60,627.91L810.76,629.22L800.48,662.38L797.36,661.48L784.37,647.83L784.37,640.62L763.77,624.26L762.66,615.64L759.63,618.63L759.12,611.38L746.64,599.71L748.54,593.40L732.73,568.68L727.08,549.33L731.00,543.30L732.57,547.74L742.15,548.97L752.07,541.20L753.81,533.39L744.79,522.47L751.36,521.63L751.36,516.85L759.20,519.66L768.33,501.67L769.91,508.41L779.40,513.05L785.98,524.79L795.97,528.10L791.42,522.47L801.82,525.11L816.47,541.43L822.03,539.44L802.54,523.92L783.18,517.45L779.28,499.98L773.54,494.26L774.36,486.92L768.07,480.20L773.54,500.91L765.02,493.31L760.67,501.61L753.65,504.67L753.00,499.98L758.79,499.04L756.00,482.93L756.00,497.16L751.36,495.28L753.67,490.69L751.36,488.64L748.50,496.14L743.86,490.52L736.44,499.04L730.88,482.07L737.29,503.21L733.57,511.23L729.87,508.41L714.09,478.23L720.58,478.23L717.81,470.27L702.25,463.75L702.88,450.96L702.14,457.97L697.82,460.11L687.24,453.06L677.67,438.77L678.13,444.25L672.49,445.14L667.61,434.95L639.20,421.54L639.49,411.38L635.84,408.60L640.98,407.19L643.35,402.98L646.72,404.76L653.55,400.07L643.35,402.04L634.31,408.58L638.63,415.16L634.71,420.81L626.91,416.91L592.41,418.17L579.95,424.62L580.95,433.99L573.53,425.56L573.88,434.73L562.61,436.12L561.40,439.63L554.90,437.83L548.32,445.33L549.02,461.49L538.23,469.65L544.57,472.41L555.81,468.22L545.28,477.75L533.09,481.48L503.64,506.28L484.07,515.99L469.23,517.79L463.58,514.04L450.75,527.03L448.82,546.00L453.88,553.59L467.24,558.81L473.87,573.36L507.51,607.17L515.51,622.87L512.20,631.93L496.22,636.35L479.44,634.48L472.94,636.35L479.44,636.35L466.05,642.20L467.41,650.96L455.23,660.82L397.55,666.41L388.33,659.44L393.51,645.20L389.49,640.83L390.32,632.23L383.27,624.64L386.07,618.35L373.17,603.80L378.00,600.55L372.89,596.89L375.22,592.12L367.08,587.67L375.89,581.68L372.14,581.68L371.50,569.53L366.49,576.86L364.08,574.21L366.87,578.99L352.64,576.10L351.62,571.94L349.16,571.41L356.40,586.31L349.16,594.93L349.16,591.09L345.37,591.09L347.31,598.68L352.52,598.43L349.16,611.04L321.17,602.51L317.54,597.83L307.35,596.96L312.38,591.78L300.67,590.24L301.69,577.11L294.18,572.43L297.89,567.65L296.03,559.21L292.75,564.77L284.90,549.83L282.55,553.03L280.19,546.94L286.76,547.96L277.40,531.00L272.76,540.38L249.48,531.05L252.28,525.29L245.87,530.90L227.23,525.29L221.67,535.68L223.44,528.10L213.15,527.25L213.21,515.54L217.87,510.20L212.30,510.71L209.99,515.99L205.29,514.86L204.88,510.20L195.53,511.23L196.36,514.97L188.57,517.79L184.07,515.54L184.39,508.41L178.96,519.28L153.41,513.01L133.07,516.73L123.76,527.25L127.56,548.82L120.99,552.56L122.51,543.30L114.73,523.20L100.00,512.34L127.69,493.45L128.56,475.01L117.54,453.49L123.95,448.31L123.57,443.38L145.20,430.78L141.16,423.57L120.63,410.11L115.31,411.82L115.00,357.34L127.95,352.36L123.48,343.11L127.80,337.52L157.05,353.45L161.27,344.66L166.47,346.03L165.01,340.88Z M265.40,658.64L268.50,664.87L272.09,666.19L277.23,654.22L273.75,652.55L267.03,654.76L265.40,658.64Z M358.52,617.60L374.29,615.64L368.59,621.15L361.22,619.78L352.87,626.90L344.55,627.32L358.52,617.60Z M281.11,632.52L294.27,640.58L298.90,648.63L277.40,646.76L259.90,627.32L266.78,614.28L276.55,610.02L275.54,606.19L287.52,622.38L281.11,632.52Z M214.16,529.98L208.50,529.55L209.52,533.81L200.05,527.82L205.73,525.29L214.16,529.98Z M196.36,521.63L200.16,524.35L190.43,528.10L184.39,521.63L195.38,517.01L199.93,519.25L196.36,521.63Z M637.61,514.83L632.73,517.90L633.81,528.80L641.71,521.55L637.61,514.83Z M194.90,549.25L203.02,545.88L201.61,536.11L195.11,536.56L190.17,543.57L189.91,546.61L194.90,549.25Z M642.77,505.03L640.59,496.68L635.72,494.88L631.03,496.77L629.25,502.95L631.14,505.11L639.76,508.50L642.77,505.03Z M214.16,372.03L232.79,380.38L224.07,386.32L221.28,375.63L214.16,372.03Z M198.31,363.42L206.73,359.67L211.44,368.73L209.52,374.68L198.31,363.42Z M653.92,496.31L669.12,495.03L672.97,510.26L669.77,516.71L663.88,514.91L661.28,518.53L663.52,527.23L654.57,515.44L653.92,496.31Z M571.71,454.67L578.87,455.41L581.38,452.73L577.68,442.54L574.16,442.03L569.08,446.75L568.33,451.39L571.71,454.67Z M297.48,410.31L308.95,411.71L310.61,408.78L305.40,401.53L296.76,406.70L297.48,410.31Z M233.07,402.83L244.24,403.76L245.69,400.73L235.81,390.80L231.70,395.19L233.07,402.83Z" fill="currentColor" fill-rule="evenodd"/></svg>
