<svg xmlns="http://www.w3.org/2000/svg" viewBox="0 0 1000 1000" role="img" aria-label="Map of Papua New Guinea"><path d="M106.63,292.80L122.58,295.03L154.83,312.15L161.45,311.97L164.22,317.28L211.11,331.92L241.48,337.30L246.55,343.10L257.10,347.19L267.86,356.84L275.56,356.71L273.40,357.44L279.36,360.35L283.13,356.60L293.90,357.62L296.24,366.24L312.65,372.62L312.50,375.94L319.18,379.71L323.76,386.33L337.94,388.12L362.05,412.20L362.55,424.13L358.13,443.09L359.84,446.00L366.94,447.95L370.94,445.37L387.64,451.62L396.95,452.51L414.79,464.99L421.15,465.10L431.64,472.20L443.66,470.16L452.54,473.86L463.90,488.35L469.22,491.71L471.38,499.22L470.67,510.65L455.39,514.00L432.46,511.72L423.50,513.63L423.16,524.69L426.91,528.83L429.31,527.87L428.92,534.82L432.96,538.45L435.45,551.74L444.23,554.55L451.26,559.93L452.62,563.73L456.24,564.58L457.59,570.59L460.15,570.23L459.06,568.01L461.64,570.28L463.93,576.75L471.85,577.02L478.31,583.31L486.13,582.80L490.53,609.90L501.96,616.30L509.38,637.03L518.52,639.14L525.77,635.72L534.96,635.49L538.81,632.27L547.68,634.53L548.60,638.82L546.80,639.14L548.99,641.36L545.31,643.33L540.98,653.23L543.30,659.54L554.66,665.07L584.27,667.39L586.81,670.08L587.12,671.86L583.08,673.47L569.99,676.72L576.52,687.67L583.02,690.90L594.14,691.74L604.45,697.62L616.06,697.89L614.98,699.37L617.41,701.68L630.47,698.85L618.78,704.90L606.81,702.86L603.61,704.29L603.35,708.16L618.48,712.28L620.59,717.11L609.99,719.99L606.97,723.50L602.22,721.91L595.40,724.23L593.76,721.14L590.35,722.38L584.86,719.47L584.69,716.90L583.36,718.39L576.52,716.20L578.60,713.43L583.80,714.25L588.54,711.44L581.83,709.59L580.17,712.89L577.45,707.97L570.91,704.90L558.23,706.31L550.80,701.59L548.60,703.41L536.68,699.37L529.10,701.69L517.96,699.37L516.71,696.83L519.00,695.31L514.87,692.47L512.19,696.89L499.66,697.55L486.59,690.65L477.19,695.73L473.80,691.61L470.67,692.10L471.38,689.19L463.41,692.10L462.48,687.67L452.86,680.43L451.46,674.51L441.88,662.32L434.61,660.96L431.94,656.59L429.18,658.83L423.68,648.48L419.91,647.91L419.56,640.63L424.25,637.67L424.17,635.40L418.74,639.30L404.40,633.94L401.58,627.87L404.65,623.08L402.51,623.94L391.77,610.24L385.00,594.98L378.73,591.02L377.84,584.80L361.88,580.74L361.51,575.67L357.69,578.25L343.03,577.39L329.38,570.01L327.56,571.71L323.60,568.44L322.73,570.59L313.27,568.74L311.28,566.73L311.83,557.43L310.38,563.46L307.53,563.38L301.31,557.00L301.71,560.88L298.69,562.09L294.37,553.53L293.92,562.89L288.28,554.49L293.60,569.61L288.60,565.46L286.16,566.71L283.19,559.61L284.39,563.78L280.99,560.70L278.82,562.16L281.34,568.01L278.10,569.50L258.86,561.82L254.33,554.06L248.01,550.46L253.27,555.00L264.44,578.89L256.35,576.77L262.17,580.77L254.42,582.51L248.25,579.37L239.68,579.78L237.54,576.04L233.07,574.85L243.43,582.75L247.41,591.62L246.22,593.10L231.69,593.56L211.58,598.32L197.96,594.29L187.06,598.11L182.79,596.90L179.95,589.26L172.79,589.59L168.63,591.94L179.63,590.42L181.92,597.84L184.82,600.25L199.43,597.23L219.21,605.25L234.73,621.30L235.27,631.61L233.53,633.61L216.60,638.59L195.43,651.21L172.04,642.09L140.85,646.09L126.28,641.16L116.05,645.99L106.76,639.27L106.77,521.60L103.54,519.80L100.00,511.28L100.06,507.06L105.34,500.41L103.35,497.21L105.48,496.84L106.76,491.70L106.63,292.80Z M779.78,767.90L783.86,772.73L772.36,773.99L773.12,772.36L768.00,769.45L762.70,769.91L763.27,766.51L758.21,768.00L760.02,765.09L755.06,762.85L753.85,757.02L779.78,767.90Z M807.33,756.69L811.88,760.69L810.07,762.54L803.21,761.02L800.98,762.99L796.28,760.69L797.01,758.51L803.47,759.75L800.65,756.69L807.33,756.69Z M745.50,750.55L754.15,757.63L759.29,754.05L759.17,751.77L747.49,747.14L745.50,750.55Z M732.82,720.56L736.15,722.80L729.94,724.59L718.67,720.20L726.29,722.05L732.82,720.56Z M630.70,724.90L640.81,725.31L643.66,717.54L631.69,716.52L630.70,724.90Z M622.75,716.40L622.95,722.50L625.94,724.56L633.72,724.13L635.53,717.26L633.11,712.89L625.89,712.03L622.75,716.40Z M646.50,684.47L650.17,682.74L653.05,685.16L649.43,697.55L634.92,692.47L636.74,686.55L634.19,684.47L632.23,686.74L629.32,678.83L624.47,675.34L624.65,671.05L639.68,683.43L639.01,686.06L641.88,688.37L644.70,688.83L646.50,684.47Z M629.46,668.90L607.17,667.24L611.40,662.75L607.09,653.08L610.97,651.60L619.88,656.98L624.41,654.88L626.47,656.29L631.09,661.09L629.92,664.21L633.48,668.37L628.74,671.65L629.46,668.90Z M603.74,653.42L603.30,659.74L600.75,661.29L593.30,656.82L589.95,652.85L590.19,649.57L595.57,644.58L600.91,647.44L603.74,653.42Z M742.73,641.15L742.23,643.88L739.24,643.84L741.25,647.28L739.92,645.77L733.00,647.18L729.44,643.28L728.99,647.49L724.14,643.34L726.86,643.54L727.33,641.32L715.01,636.02L716.50,634.45L713.95,631.77L712.35,638.08L710.62,633.15L713.99,630.69L717.46,633.43L732.08,633.81L742.73,641.15Z M643.09,621.30L644.70,624.60L639.45,619.08L643.62,611.41L637.09,607.96L640.37,603.24L643.98,602.69L644.46,611.82L643.09,621.30Z M238.94,608.34L248.35,616.76L247.09,619.26L223.28,602.69L238.94,608.34Z M241.86,606.22L230.57,600.19L244.17,600.27L246.12,605.66L241.86,606.22Z M480.99,452.87L481.97,460.37L477.92,466.19L477.19,462.89L472.10,461.27L466.17,453.17L466.29,447.59L470.30,446.50L480.99,452.87Z M897.31,501.41L900.00,512.58L897.08,516.94L897.26,512.58L895.27,516.54L892.00,515.51L885.69,520.54L876.51,518.54L866.27,512.18L857.96,501.97L859.77,502.33L861.23,498.05L860.17,490.74L848.32,484.97L845.22,479.03L835.88,471.07L832.94,461.43L834.38,450.89L836.65,450.35L832.94,443.55L843.08,450.13L852.24,449.77L860.09,466.92L868.40,471.57L875.41,483.93L877.34,482.99L880.07,485.57L882.59,483.35L897.31,501.41Z M479.48,438.72L477.91,444.45L479.47,446.99L485.64,449.93L488.84,447.63L490.73,442.23L489.32,439.56L482.81,436.10L479.48,438.72Z M455.61,431.59L450.65,435.73L451.32,439.66L456.65,444.61L462.88,441.25L464.48,437.64L460.63,432.26L455.61,431.59Z M436.73,434.76L431.30,430.58L426.30,433.35L425.49,437.56L434.12,444.53L437.55,443.26L438.63,439.60L436.73,434.76Z M834.38,431.85L832.33,443.35L829.32,445.04L825.63,433.36L826.45,426.96L824.23,427.91L828.92,421.30L831.82,423.07L834.38,431.85Z M533.63,417.79L540.10,421.88L545.57,416.70L545.31,411.18L541.76,408.12L535.61,409.45L532.54,413.13L533.63,417.79Z M378.05,411.18L384.19,417.98L389.14,416.36L391.49,413.48L390.26,407.21L386.53,404.14L381.87,405.42L378.05,411.18Z M556.26,398.29L551.26,403.48L551.84,406.44L560.71,409.73L563.76,408.65L565.20,403.31L563.41,399.74L556.26,398.29Z M372.28,394.83L365.45,401.39L365.62,405.66L368.73,408.60L375.08,406.14L376.40,402.75L375.79,397.82L372.28,394.83Z M712.17,385.73L709.15,394.31L711.84,403.75L705.50,417.16L698.40,420.55L688.70,419.75L688.87,428.51L697.86,439.01L695.29,444.86L681.28,452.17L675.26,448.76L669.91,451.22L667.87,449.10L661.70,449.05L661.00,451.83L665.32,455.99L659.97,458.27L657.59,463.44L646.81,471.95L640.37,475.41L630.81,476.72L627.69,474.59L626.35,480.26L618.39,481.68L608.83,488.44L597.28,489.67L593.64,487.59L589.69,489.97L587.08,487.58L584.86,490.96L583.63,488.44L564.93,490.26L557.14,480.24L548.27,476.77L539.93,478.23L538.81,481.53L534.11,482.46L534.11,474.20L524.33,473.47L524.71,470.79L519.63,470.19L518.84,466.54L498.83,461.87L495.80,457.01L496.49,448.99L501.14,444.28L507.83,449.35L512.88,446.20L523.25,449.40L530.14,445.37L543.18,452.51L554.08,450.49L557.70,451.95L566.40,448.31L566.77,446.10L569.32,450.89L573.27,447.59L579.54,448.02L583.45,443.00L579.80,439.19L585.62,432.58L584.92,425.15L590.18,421.00L594.93,423.90L588.21,429.07L588.54,434.80L585.92,436.31L592.76,449.71L600.46,450.49L609.31,444.45L615.58,446.53L617.77,450.24L627.06,444.20L632.75,446.50L637.80,442.46L641.52,429.32L656.66,415.45L669.55,418.76L673.07,415.28L671.93,399.72L664.64,384.42L665.73,376.74L680.38,378.73L683.81,383.58L688.19,384.98L691.66,382.07L690.51,377.54L697.29,378.24L699.85,374.92L703.06,379.86L699.45,378.57L699.88,383.77L712.17,385.73Z M316.24,371.27L318.71,377.79L322.19,378.76L328.39,377.02L330.13,371.47L329.10,367.82L321.60,365.55L317.50,367.08L316.24,371.27Z M750.76,343.79L756.73,345.84L761.80,341.80L759.99,335.47L756.72,332.74L752.51,333.38L748.15,337.63L750.76,343.79Z M755.35,330.22L752.14,335.31L753.23,338.68L760.28,341.17L764.38,340.05L765.02,331.14L760.13,328.86L755.35,330.22Z M829.16,325.95L824.95,324.98L834.69,338.83L834.00,334.93L829.16,325.95Z M724.66,314.47L719.14,314.60L716.14,318.55L717.42,322.56L723.94,328.12L727.59,322.09L724.66,314.47Z M630.79,308.73L624.80,313.14L638.70,312.64L638.62,312.32L630.79,308.73Z M695.58,307.13L690.31,303.47L685.83,304.64L685.18,308.90L690.74,316.85L696.04,314.23L695.58,307.13Z M693.55,302.04L691.82,297.43L686.70,295.33L682.80,296.42L683.51,308.34L691.63,307.49L693.55,302.04Z M690.86,300.76L696.81,296.37L695.93,291.96L690.56,287.55L683.06,293.38L684.89,298.70L690.86,300.76Z M750.23,381.69L750.23,387.35L745.14,393.21L746.95,399.39L737.56,412.51L726.55,396.51L726.45,376.06L717.51,359.59L705.32,344.42L679.95,333.31L669.55,322.93L662.21,320.34L641.93,305.17L633.74,301.64L624.43,301.77L624.44,298.69L631.45,297.97L630.85,295.09L626.21,293.57L627.23,290.42L646.16,302.63L648.58,307.11L660.28,309.22L680.20,324.06L692.83,327.21L699.94,337.06L709.05,342.71L712.52,349.04L716.84,349.08L720.48,357.80L730.02,361.81L733.63,360.48L736.15,366.85L740.12,366.56L750.23,381.69Z M608.83,289.18L608.11,295.88L594.11,297.01L582.04,285.48L595.22,280.78L606.64,285.70L608.83,289.18Z M466.56,272.06L461.41,279.51L470.13,281.96L475.08,275.60L471.23,271.23L466.56,272.06Z M448.38,259.96L448.29,264.06L440.91,264.24L436.36,270.73L423.09,271.19L409.73,266.91L411.07,270.23L406.85,269.84L402.80,272.97L400.09,268.79L405.22,266.51L403.28,260.57L405.73,261.44L407.37,258.87L431.30,258.87L433.29,261.09L435.18,259.74L447.48,263.26L445.63,258.77L448.38,259.96Z M569.83,230.16L561.91,225.74L559.95,233.28L566.42,238.47L573.34,238.76L569.83,230.16Z M803.47,389.15L801.78,396.42L805.85,401.40L809.24,402.02L811.81,399.71L812.10,392.62L808.83,389.32L803.47,389.15Z M809.03,391.19L808.37,385.17L804.90,382.01L799.77,383.40L798.03,388.79L800.94,394.90L804.33,395.81L809.03,391.19Z M717.33,369.82L708.35,373.86L708.00,377.16L713.03,382.51L717.54,383.38L720.87,380.20L721.24,374.09L717.33,369.82Z M779.01,365.17L774.36,365.02L769.78,372.43L776.20,378.67L781.54,375.30L782.84,371.63L779.01,365.17Z M778.11,363.00L773.81,367.65L774.46,371.46L783.81,374.28L787.50,366.71L783.60,362.77L778.11,363.00Z M702.24,709.91L701.27,703.72L696.13,701.01L690.78,702.74L688.60,707.32L690.25,712.12L694.89,714.87L699.50,713.78L702.24,709.91Z M688.59,709.20L690.10,703.12L686.64,698.70L681.03,698.46L677.22,701.62L676.54,706.39L679.26,710.71L684.23,711.87L688.59,709.20Z M676.90,704.57L680.96,707.42L685.56,706.83L688.93,702.59L688.45,696.84L683.64,693.65L678.16,695.47L675.68,700.13L676.90,704.57Z M298.54,347.99L304.44,345.62L305.76,340.23L302.68,335.67L297.20,335.22L292.67,338.57L292.02,342.92L294.35,346.66L298.54,347.99Z M267.34,329.87L273.32,332.33L276.27,331.00L278.91,326.52L277.57,322.89L272.19,319.06L268.66,320.13L264.92,325.84L267.34,329.87Z M207.71,251.16L212.18,246.73L211.63,242.08L207.81,239.38L202.30,239.61L198.89,244.39L199.08,249.26L202.95,252.23L207.71,251.16Z M641.87,661.70L631.65,661.56L630.09,664.74L637.54,674.15L641.28,673.01L643.24,665.39L641.87,661.70Z M254.34,601.52L249.46,606.13L250.14,610.81L254.19,614.62L258.24,614.42L262.70,609.04L261.71,603.28L254.34,601.52Z M247.24,595.17L242.11,595.68L239.12,599.49L246.18,605.77L250.22,606.12L252.73,601.31L247.24,595.17Z M242.55,589.77L249.59,593.85L254.00,590.42L254.69,586.19L251.60,583.22L242.83,582.54L240.93,586.09L242.55,589.77Z M250.33,579.65L241.84,578.79L241.26,585.53L251.89,589.02L253.84,584.59L250.33,579.65Z M645.21,411.01L639.39,415.39L639.76,418.73L649.76,421.70L653.12,415.41L649.72,411.46L645.21,411.01Z M247.17,338.56L249.64,330.42L246.93,328.01L239.42,326.50L236.83,328.67L236.63,334.17L240.13,338.05L247.17,338.56Z M587.77,240.26L580.44,236.98L575.28,240.82L575.46,244.36L578.26,248.09L585.18,247.89L589.01,243.23L587.77,240.26Z" fill="currentColor" fill-rule="evenodd"/></svg>
