<svg xmlns="http://www.w3.org/2000/svg" viewBox="0 0 1000 1000" role="img" aria-label="Map of Paraguay"><path d="M128.15,383.82L161.30,271.19L161.91,221.67L190.63,178.37L207.53,134.18L362.10,100.64L444.98,100.00L525.08,152.22L525.61,185.80L529.14,189.01L525.23,191.78L531.21,194.58L532.28,204.61L540.56,210.10L538.74,216.56L541.34,235.14L543.48,236.79L546.87,232.92L552.22,239.68L544.90,244.86L552.04,248.53L547.16,255.67L555.77,260.29L552.68,268.42L554.32,281.53L548.09,291.28L552.40,296.66L544.12,313.79L547.40,319.16L545.39,326.56L548.86,331.16L545.02,337.61L543.52,346.85L546.23,352.04L540.84,368.39L553.44,375.07L569.38,370.91L573.77,378.28L587.05,378.61L594.04,381.78L609.19,379.35L620.58,384.17L631.24,383.86L635.65,386.56L636.63,384.06L640.84,389.48L653.29,381.98L659.18,386.62L658.66,384.10L671.35,370.02L680.52,368.52L685.85,378.61L697.63,387.77L716.71,387.95L727.70,391.81L728.88,389.13L737.80,399.01L741.01,416.14L749.88,422.80L750.36,431.19L746.76,440.12L748.63,457.72L757.71,479.74L755.33,487.34L759.60,494.24L757.07,502.57L758.13,515.85L765.67,528.57L767.85,549.70L772.58,553.09L790.43,555.71L810.06,551.11L836.99,535.23L854.34,544.44L861.02,552.61L871.85,558.97L863.94,568.45L870.35,588.66L863.95,601.99L865.12,614.69L852.65,654.12L855.80,664.94L839.59,692.26L841.93,712.71L837.48,713.41L836.64,716.87L841.53,728.72L839.89,741.82L834.95,745.03L836.70,753.02L834.81,761.35L837.07,765.96L831.82,788.26L823.67,797.93L823.38,809.17L812.16,811.98L807.26,822.94L799.68,824.62L793.94,830.25L792.83,838.94L780.24,837.07L768.44,841.46L764.20,852.85L757.83,852.99L755.93,858.24L752.13,859.56L754.75,867.13L752.75,875.07L738.29,886.20L729.49,882.10L726.07,875.70L705.57,872.23L691.83,880.98L690.31,889.78L681.22,900.00L668.24,887.29L662.35,886.45L648.35,892.28L636.57,883.78L621.36,890.08L612.17,890.40L598.44,882.90L582.68,883.34L565.34,875.21L537.68,868.46L494.43,870.26L486.16,873.91L486.40,867.10L481.90,862.50L481.82,858.48L489.59,854.59L491.36,847.36L494.36,849.21L497.55,837.43L511.68,831.27L509.54,824.95L514.09,825.23L514.15,821.09L517.69,820.08L518.78,809.64L523.82,809.72L522.61,806.07L525.03,804.08L520.39,797.85L523.22,790.53L520.77,787.34L524.79,779.28L524.59,773.04L530.25,770.07L526.24,764.46L528.65,766.44L531.97,759.23L550.89,747.96L552.05,745.13L547.96,743.94L552.77,738.13L550.65,735.02L557.16,730.71L555.50,725.58L562.60,720.17L559.57,718.20L577.20,704.96L578.72,693.30L571.41,686.46L561.38,667.97L551.06,658.75L541.06,657.69L519.80,644.86L509.89,649.74L497.74,636.19L468.03,629.00L451.06,616.21L420.97,601.11L409.92,588.18L397.12,582.01L359.68,554.76L332.81,555.67L311.56,548.70L306.73,543.70L288.55,541.73L273.62,535.33L263.66,521.92L264.46,516.18L250.06,508.14L247.90,504.07L229.84,496.98L228.52,490.92L209.32,481.12L206.11,473.61L189.55,460.97L182.53,446.54L169.04,429.52L168.62,421.79L163.33,419.42L165.06,414.86L160.28,407.88L153.11,406.00L130.37,390.63L130.87,385.80L128.15,383.82Z" fill="currentColor" fill-rule="evenodd"/></svg>
