<svg xmlns="http://www.w3.org/2000/svg" viewBox="0 0 1000 1000" role="img" aria-label="Map of Peru"><path d="M737.28,863.68L729.78,870.21L722.62,871.77L725.50,884.44L717.43,896.19L709.28,899.49L699.12,900.00L678.23,885.97L676.69,882.91L656.43,872.04L655.75,859.04L650.82,853.98L624.78,842.39L610.89,829.07L596.17,825.35L568.61,810.66L556.52,808.54L541.59,796.11L526.44,790.29L523.63,785.91L498.37,774.29L492.30,770.30L493.93,768.71L489.12,765.10L490.37,763.53L484.23,760.01L478.62,750.58L460.33,738.83L458.17,730.61L451.59,726.18L450.90,720.24L444.81,717.78L444.71,706.11L440.34,706.44L441.72,701.79L444.57,701.44L446.38,703.95L449.52,690.34L447.80,682.39L436.49,668.35L435.07,661.08L422.87,645.33L423.22,639.72L412.55,632.00L411.87,628.06L406.66,626.21L407.91,620.10L405.10,607.62L398.65,599.52L386.28,592.15L388.55,586.59L385.28,576.21L363.20,540.52L361.17,526.67L355.11,518.88L353.17,507.81L348.34,503.77L349.61,500.27L346.97,500.01L347.21,502.66L344.70,499.70L346.93,497.59L343.79,495.15L342.82,489.07L338.10,482.16L338.31,474.87L330.51,467.32L332.15,464.75L328.55,457.79L307.83,435.88L309.15,434.06L302.80,424.85L301.50,416.24L284.60,393.27L250.70,373.99L236.02,362.41L235.18,355.79L238.42,351.58L244.25,354.38L247.86,345.63L244.60,337.47L233.10,326.30L234.64,320.38L238.09,320.67L238.93,318.17L227.10,303.15L227.47,294.34L230.27,284.54L247.36,267.95L249.96,262.12L261.66,251.89L268.21,250.73L270.10,247.01L272.73,247.97L277.67,268.71L270.75,274.18L263.57,274.16L264.54,282.83L269.90,282.18L263.94,292.47L268.28,294.32L278.75,285.88L292.00,294.44L299.55,292.68L306.05,296.74L305.16,300.52L308.49,308.91L314.85,315.51L325.17,317.70L328.78,311.70L332.23,310.37L332.30,303.84L342.05,297.58L343.58,292.52L341.63,287.79L346.82,272.62L352.96,264.38L355.93,246.84L359.97,247.71L361.30,251.97L364.00,250.67L362.59,245.70L376.77,229.39L430.36,209.61L453.40,191.75L475.75,165.90L482.67,139.10L485.43,141.33L490.66,140.81L487.66,131.37L489.23,122.48L482.97,118.06L479.56,109.55L473.75,106.63L472.97,103.60L485.63,105.24L491.55,100.00L503.34,107.88L508.03,106.18L511.02,110.89L509.50,112.39L515.90,113.58L525.58,122.44L526.99,130.28L531.13,135.27L528.75,136.25L532.10,141.21L540.29,142.03L542.00,145.91L544.35,145.32L549.77,151.62L554.19,150.43L559.28,153.57L565.30,163.31L563.84,171.86L571.62,176.97L575.64,174.86L578.41,176.89L581.95,189.33L578.21,195.45L579.89,198.92L587.28,200.87L589.53,204.70L598.23,202.18L599.15,204.56L602.08,200.72L613.57,205.81L622.27,204.05L627.22,200.10L632.09,200.28L640.83,191.90L641.46,194.42L649.79,195.86L651.52,199.89L653.32,197.27L654.86,202.55L663.99,200.94L667.84,197.14L672.12,197.43L673.33,194.75L685.67,200.46L688.21,205.81L691.19,203.84L696.94,207.90L700.72,207.40L700.42,210.48L704.33,209.99L709.66,215.36L711.58,213.44L713.97,217.33L684.48,263.99L694.97,268.20L702.73,266.05L708.02,274.77L716.46,281.41L716.60,287.26L713.95,288.25L710.15,284.89L707.28,288.49L702.48,284.30L701.89,279.76L693.89,281.48L692.43,279.66L690.90,282.01L688.25,278.56L686.21,281.04L680.25,281.35L674.36,290.35L672.78,288.70L667.47,291.07L661.59,289.92L657.34,293.57L633.88,296.16L619.05,306.67L613.22,308.20L611.99,311.80L602.06,319.85L590.28,322.98L591.20,329.07L587.88,337.57L587.74,345.68L576.61,364.29L581.26,378.00L580.37,381.71L576.66,385.55L570.75,386.41L553.98,399.68L551.70,409.09L555.98,417.91L544.34,420.17L546.01,424.20L542.81,428.34L556.02,439.03L555.95,442.45L552.46,442.79L552.88,445.69L557.93,448.89L563.41,463.98L571.37,469.25L571.62,474.43L579.21,479.78L587.77,491.35L587.95,497.86L577.47,509.86L594.79,509.94L616.39,515.26L618.44,525.29L622.85,530.32L621.44,535.92L660.08,535.39L693.50,510.82L691.80,516.69L689.21,516.71L692.77,522.93L688.61,529.21L688.48,579.85L693.11,576.67L697.28,580.98L703.66,582.21L718.04,575.85L734.36,577.29L772.90,645.03L768.19,650.17L770.37,652.16L769.37,654.12L760.10,661.00L760.54,688.68L758.25,694.51L754.90,695.89L758.59,699.67L760.02,709.25L763.35,712.18L765.13,718.82L758.84,721.21L759.70,727.02L752.20,732.44L751.93,735.70L749.16,735.55L747.74,743.26L743.30,745.48L742.70,753.36L752.89,764.35L746.72,769.49L740.73,781.52L751.31,806.37L760.06,807.03L766.46,812.23L758.08,817.70L757.68,827.14L751.41,829.69L740.84,845.34L732.42,849.66L730.53,854.14L736.74,857.68L737.28,863.68Z M445.09,727.84L451.32,729.14L455.01,726.04L455.37,720.84L451.55,717.30L445.25,717.00L442.24,720.19L442.17,724.57L445.09,727.84Z M431.82,700.24L430.93,705.66L433.18,709.07L438.28,710.40L444.46,705.46L443.31,699.94L439.83,696.79L435.13,696.91L431.82,700.24Z M398.51,628.51L404.28,633.17L408.88,632.97L411.68,629.32L408.70,622.81L401.52,620.69L398.18,623.89L398.51,628.51Z M244.24,374.96L242.26,381.09L244.57,385.65L252.18,385.05L253.37,377.40L251.56,373.75L247.62,372.70L244.24,374.96Z" fill="currentColor" fill-rule="evenodd"/></svg>
