<svg xmlns="http://www.w3.org/2000/svg" viewBox="0 0 1000 1000" role="img" aria-label="Map of Philippines"><path d="M452.45,851.99L449.52,858.33L455.79,863.62L460.35,863.56L463.35,857.96L461.63,853.25L455.90,850.28L452.45,851.99Z M497.54,833.13L504.56,837.42L510.38,834.15L508.33,830.09L500.44,827.96L497.88,828.43L497.54,833.13Z M689.38,779.51L689.14,791.23L684.27,782.67L686.25,776.56L689.38,779.51Z M554.89,762.66L547.19,763.52L545.07,767.70L548.58,774.11L556.67,771.21L559.05,767.48L554.89,762.66Z M473.88,652.37L467.56,661.52L469.24,664.82L476.17,665.07L480.18,655.92L473.88,652.37Z M698.75,649.95L694.35,651.66L693.44,658.51L696.66,663.60L701.25,660.09L698.75,649.95Z M726.54,765.38L728.72,773.55L721.79,785.93L716.27,786.08L714.38,788.56L715.80,796.45L711.21,790.00L707.87,790.75L711.89,798.48L709.20,820.91L704.21,809.69L703.46,793.73L698.93,789.92L692.76,769.75L690.56,769.02L684.00,773.59L682.87,781.27L676.50,785.32L670.23,801.91L671.55,806.06L672.81,804.75L680.28,810.42L685.81,827.40L685.46,832.71L669.93,855.43L666.95,855.10L666.00,848.96L660.92,844.47L665.51,835.68L664.22,830.15L659.82,829.39L656.54,840.28L650.62,841.55L633.67,835.05L614.52,823.90L607.57,813.40L606.71,795.81L603.32,794.23L606.37,780.48L613.68,775.08L616.66,766.44L613.31,765.88L608.06,756.79L600.75,752.12L595.22,751.55L590.95,746.75L585.40,745.29L578.66,747.14L580.61,753.83L574.35,758.28L579.00,764.09L578.02,768.16L570.88,760.80L566.30,762.71L564.26,761.14L563.64,758.26L566.45,755.65L563.19,750.05L557.91,763.13L553.68,759.47L549.17,763.75L547.45,762.18L549.47,760.44L548.82,749.96L539.54,748.46L531.25,756.51L533.23,757.97L532.38,760.67L526.71,764.09L527.88,767.97L523.51,771.77L517.55,789.57L512.03,790.09L505.44,783.30L507.08,775.49L512.65,771.12L513.54,761.12L517.15,757.47L515.20,748.62L522.15,738.45L540.47,732.21L542.40,729.51L545.06,731.87L555.01,729.62L558.25,726.19L555.62,722.49L559.59,713.67L572.67,711.56L575.20,706.70L578.27,705.92L576.41,702.34L581.90,703.52L585.14,709.16L586.81,704.89L593.54,707.96L597.62,715.51L599.43,729.49L590.04,735.70L589.64,739.27L603.50,729.33L615.97,727.14L620.21,712.48L624.19,707.94L627.23,707.12L632.57,712.18L636.12,712.48L635.12,716.49L640.65,713.18L643.31,688.43L648.33,689.18L657.36,697.16L661.22,694.92L662.23,684.69L667.11,689.17L676.81,688.12L677.89,678.85L671.23,655.79L674.11,648.90L680.25,652.22L682.83,659.19L697.46,666.88L698.42,665.55L698.17,667.16L695.49,669.21L699.42,669.56L702.46,676.94L710.13,674.04L708.19,684.37L714.53,691.02L716.08,696.02L710.80,701.83L711.77,704.19L704.95,707.98L707.22,711.85L717.24,711.16L718.91,713.55L715.46,720.62L718.11,723.25L715.75,727.06L716.84,728.39L721.47,725.81L721.79,732.84L717.86,743.04L722.80,749.79L727.32,751.12L728.54,763.47L726.54,765.38Z M663.65,633.50L658.61,631.27L658.24,636.95L665.74,645.15L667.73,643.19L663.65,633.50Z M624.07,602.27L618.45,602.00L616.28,604.31L614.14,612.50L616.32,615.00L626.49,612.58L627.52,606.79L624.07,602.27Z M625.00,601.79L619.98,607.15L621.21,611.79L631.26,612.87L633.89,607.09L629.93,602.38L625.00,601.79Z M695.07,605.19L688.89,597.95L684.66,597.56L681.14,603.50L686.86,609.32L692.06,609.42L695.07,605.19Z M400.38,584.07L394.13,582.34L391.25,584.81L394.80,595.50L402.93,593.47L403.46,589.64L400.38,584.07Z M394.49,577.01L389.50,584.24L393.81,590.17L400.41,588.31L403.22,585.01L402.16,579.36L398.81,576.58L394.49,577.01Z M629.74,557.89L621.05,558.58L627.40,569.13L633.87,568.52L635.02,565.96L629.74,557.89Z M637.19,556.90L638.08,561.62L642.39,567.17L645.60,567.81L647.27,560.51L639.56,554.14L637.19,556.90Z M521.38,226.49L525.62,235.18L524.77,239.33L518.27,246.65L516.66,264.30L522.13,282.63L529.87,284.63L529.97,293.05L533.96,293.34L535.29,295.73L530.25,310.13L519.91,327.60L519.89,337.23L510.13,347.22L516.64,336.06L512.62,339.94L498.49,344.99L489.74,352.82L489.14,357.04L493.28,361.51L491.02,364.53L492.66,365.19L481.33,378.96L481.39,384.38L485.67,388.45L491.02,404.16L497.20,410.40L491.94,412.39L491.67,415.29L498.81,433.93L497.52,436.77L507.21,446.15L521.22,450.46L518.92,446.45L524.12,447.37L525.09,445.12L520.11,441.66L517.95,437.76L522.72,433.90L524.45,441.44L529.95,430.13L535.23,428.97L540.75,432.08L542.95,431.76L542.43,428.88L551.60,433.03L559.60,441.15L561.79,450.71L559.96,456.81L562.73,459.42L571.89,456.15L570.88,450.46L573.49,446.78L571.34,449.10L567.93,446.27L569.55,442.61L572.49,443.43L573.32,441.08L577.37,450.46L578.66,447.78L589.88,451.52L591.31,449.10L602.02,456.41L603.34,459.78L584.62,459.38L582.55,465.06L598.13,483.40L593.96,483.61L592.93,491.39L595.39,491.83L599.43,487.41L608.83,494.05L610.48,490.90L613.71,491.73L610.48,498.57L611.10,510.20L607.57,517.00L599.22,511.75L595.19,502.70L605.09,500.36L606.16,496.68L599.92,495.74L597.36,499.95L591.96,502.04L592.31,499.86L589.68,500.14L590.68,497.87L586.27,499.72L578.50,492.72L572.29,493.91L571.85,483.07L565.60,472.68L550.93,465.06L548.82,462.74L551.09,460.75L535.66,447.81L529.80,448.44L534.37,454.66L533.80,462.83L540.36,468.41L537.10,467.11L542.10,476.08L542.95,483.40L538.09,486.05L534.15,482.89L533.97,476.63L527.73,467.79L519.42,464.25L513.07,455.41L497.20,447.42L485.82,453.12L483.39,455.81L484.84,460.75L476.07,465.60L464.70,463.76L465.39,459.42L463.04,456.56L457.53,460.81L459.50,456.43L457.02,450.18L448.88,449.44L449.73,452.94L446.86,452.75L446.26,456.40L444.83,440.85L442.65,437.43L445.21,432.82L461.46,421.53L460.16,414.16L455.31,408.93L445.90,407.67L444.92,403.50L443.62,406.15L443.23,402.04L440.90,410.77L443.36,423.22L437.61,425.46L434.54,423.77L432.89,415.75L426.97,410.46L429.33,405.79L425.40,403.15L423.80,409.11L419.27,406.85L415.73,384.23L410.19,376.47L413.78,372.33L409.20,361.21L410.51,354.85L408.57,351.20L403.92,351.42L406.10,331.34L411.52,330.22L410.84,336.54L419.64,341.09L422.06,346.49L429.33,346.02L429.66,347.88L434.54,340.69L428.57,318.99L430.63,308.91L436.15,299.74L434.54,290.09L436.51,281.25L434.54,274.92L431.30,273.09L432.22,267.18L435.03,265.49L437.75,247.11L442.92,235.74L442.50,227.15L452.00,224.25L454.00,220.22L459.40,224.02L467.92,220.30L493.63,236.28L493.41,233.58L503.26,237.54L509.60,237.42L515.88,231.95L517.47,226.33L521.38,226.49Z M427.42,870.32L425.75,877.68L424.13,873.34L421.22,872.68L420.25,875.66L416.69,875.47L413.31,879.60L406.93,880.36L407.05,876.92L424.39,866.50L427.42,870.32Z M440.22,814.00L435.14,823.05L436.44,825.45L442.94,826.26L446.44,823.67L447.75,817.53L445.26,812.88L440.22,814.00Z M513.39,798.68L526.11,805.36L521.38,806.92L519.17,812.75L508.44,815.00L501.08,804.58L501.80,802.56L513.39,798.68Z M349.89,783.38L343.44,779.66L336.92,783.54L337.04,787.11L343.75,791.78L349.37,788.82L349.89,783.38Z M277.44,734.03L270.92,734.45L270.70,741.58L273.72,747.82L278.13,743.69L277.44,734.03Z M273.92,739.38L281.58,735.09L281.43,731.14L276.97,725.80L272.56,726.51L267.92,731.94L269.39,736.17L273.92,739.38Z M280.87,735.83L287.03,734.42L289.04,730.58L287.16,725.36L283.26,723.00L277.51,725.07L275.12,729.21L276.54,733.78L280.87,735.83Z M283.90,719.55L283.19,728.83L286.39,732.38L292.19,730.33L294.32,726.65L293.07,720.09L290.65,718.88L283.90,719.55Z M281.47,717.11L277.19,725.05L280.52,729.42L284.78,729.17L290.66,724.39L290.40,720.66L285.81,715.87L281.47,717.11Z M636.59,674.72L632.73,681.49L635.55,685.30L642.37,687.78L646.02,680.76L640.47,674.71L636.59,674.72Z M591.70,683.35L591.69,676.81L588.13,673.58L578.92,679.56L587.04,685.03L591.70,683.35Z M704.95,647.24L708.15,650.61L702.01,652.22L698.10,647.57L700.39,646.88L698.93,645.07L703.10,637.43L706.25,645.06L704.95,647.24Z M631.75,646.58L634.53,649.93L633.21,653.06L628.65,651.56L624.42,656.89L618.91,659.41L602.01,658.88L595.55,652.07L599.57,644.43L607.38,641.30L610.48,635.93L615.52,632.91L620.66,632.45L621.83,634.94L623.77,632.91L632.33,638.65L631.75,646.58Z M686.43,644.59L683.78,645.68L679.97,639.82L680.61,635.93L677.02,637.26L675.80,635.01L678.02,630.59L677.08,624.89L678.99,621.90L681.25,622.27L682.55,617.92L684.78,620.86L682.55,628.24L686.43,644.59Z M407.14,608.75L402.89,614.06L404.96,618.80L411.62,617.79L416.71,613.36L407.14,608.75Z M541.98,603.26L545.14,609.19L542.77,615.71L535.65,619.91L533.08,615.83L536.45,613.61L535.65,610.77L541.98,603.26Z M584.81,599.92L580.61,613.61L573.93,623.39L571.35,635.75L565.02,646.73L564.01,658.84L566.00,660.22L564.02,662.03L572.81,672.21L572.65,676.41L568.50,683.66L559.17,687.17L555.60,684.94L550.25,672.02L541.36,669.38L536.37,665.03L529.30,654.90L528.95,647.93L532.71,641.54L543.76,640.96L551.57,635.42L548.82,615.27L556.26,605.25L555.33,599.10L557.31,596.23L569.91,591.95L576.81,595.60L582.32,595.59L584.81,599.92Z M607.57,588.61L605.68,622.20L595.19,629.29L588.51,637.20L587.40,645.76L580.31,662.23L573.12,669.06L575.93,641.57L591.86,616.28L601.87,593.14L602.37,586.95L603.69,587.94L603.02,583.15L607.13,578.23L608.20,580.36L604.95,587.94L607.57,588.61Z M590.17,575.34L587.67,581.05L589.03,585.28L592.08,587.68L598.22,587.36L599.37,583.03L596.09,576.01L590.17,575.34Z M399.94,613.44L402.48,615.09L395.40,621.80L386.04,623.57L381.66,627.59L377.42,637.56L357.42,643.50L357.59,653.21L353.95,651.20L356.58,656.44L338.04,679.51L327.23,682.53L321.39,694.35L309.16,703.95L300.17,705.36L297.67,712.86L289.72,714.58L282.41,721.04L285.88,707.84L304.43,686.08L309.47,685.10L316.22,676.20L320.90,677.55L327.07,672.21L337.81,656.89L345.88,651.27L357.30,633.94L357.67,637.56L360.18,636.23L359.39,631.12L364.97,630.11L365.73,626.58L369.29,625.25L369.72,623.32L367.00,622.93L368.21,620.98L371.53,621.27L373.82,616.59L374.52,621.43L381.29,615.60L379.99,613.28L383.23,611.62L384.46,605.13L378.70,598.95L380.32,596.99L378.66,594.53L381.93,594.97L381.29,597.78L390.26,604.69L389.76,599.92L384.94,597.64L383.28,591.66L385.20,591.65L383.98,586.70L387.79,588.97L386.49,582.63L391.90,571.13L394.98,577.05L392.58,585.99L395.23,590.96L392.64,591.12L392.02,597.29L393.30,600.46L396.67,600.23L396.10,607.62L399.08,607.49L399.94,613.44Z M408.63,563.33L398.69,569.62L402.24,574.32L408.15,576.62L412.23,571.97L412.56,566.53L408.63,563.33Z M664.62,621.67L664.66,627.61L659.01,626.75L659.50,631.28L651.91,621.76L653.84,639.31L646.79,633.74L641.94,632.91L642.50,624.47L639.82,619.87L642.91,607.33L641.86,600.38L634.45,591.60L631.00,592.51L629.34,597.84L623.73,594.90L624.12,576.99L621.77,575.73L619.21,565.32L621.08,564.92L627.72,572.98L628.81,570.13L634.81,576.91L640.23,575.73L645.03,570.66L651.22,572.65L651.11,578.24L654.32,579.65L653.00,603.63L661.54,610.99L661.76,619.25L664.62,621.67Z M565.67,568.34L563.82,582.82L559.55,583.76L555.26,589.96L547.62,592.86L548.03,597.75L545.51,601.63L540.10,602.67L538.17,606.34L520.96,609.09L507.85,619.25L509.51,608.84L507.25,602.60L512.37,590.86L515.31,559.73L514.23,556.49L503.31,554.31L505.34,548.27L508.51,546.32L514.70,551.14L528.10,556.07L539.71,566.98L541.51,564.06L543.59,565.32L544.56,561.97L549.56,562.29L554.97,566.31L551.72,569.07L552.90,570.42L565.35,562.64L563.38,566.98L565.67,568.34Z M415.63,547.48L419.43,549.89L417.34,552.02L419.27,553.35L413.92,559.42L415.72,553.67L412.13,554.01L408.57,545.32L411.68,544.00L416.98,546.78L415.63,547.48Z M431.95,541.67L426.74,543.69L422.22,541.67L420.89,544.69L415.54,542.56L410.51,533.01L408.27,535.00L411.81,529.67L409.84,530.03L410.04,527.42L424.77,537.66L426.37,532.48L431.95,541.67Z M543.41,523.13L540.22,518.83L529.61,520.29L530.41,523.88L539.15,530.40L542.70,527.82L543.41,523.13Z M682.13,580.22L689.27,589.15L688.37,590.59L683.20,584.44L672.46,587.31L667.36,584.43L664.03,587.22L660.51,578.81L652.39,577.62L652.67,570.99L644.21,566.98L651.29,562.90L654.41,554.88L647.25,554.70L642.59,550.00L644.00,547.68L641.02,547.90L637.18,541.66L628.33,538.35L623.48,532.32L618.40,515.38L637.14,518.03L646.52,517.19L646.50,514.37L654.69,517.38L660.22,515.01L665.23,518.86L668.90,523.70L667.25,528.70L676.05,531.03L677.84,534.19L674.11,537.00L677.22,540.34L673.46,545.67L675.73,553.30L673.67,555.23L676.05,557.63L674.43,561.97L677.02,569.33L682.55,573.79L678.63,581.41L680.72,582.51L682.13,580.22Z M607.73,549.17L607.57,556.44L598.13,547.31L592.79,546.66L592.31,542.70L580.59,532.51L565.16,547.10L567.83,536.62L571.56,532.55L567.93,532.02L570.55,522.52L568.72,514.30L574.49,516.41L573.06,521.82L578.16,517.90L583.77,520.92L585.46,526.05L590.20,526.69L595.19,534.01L595.26,531.11L599.74,533.01L607.35,544.51L604.95,542.70L607.73,549.17Z M520.71,511.05L518.25,516.61L521.79,523.48L524.70,523.66L528.46,515.46L524.12,509.92L520.71,511.05Z M515.69,510.73L517.63,512.39L510.81,538.02L508.29,534.47L510.33,531.23L506.63,526.62L509.91,521.64L510.03,514.30L515.69,510.73Z M592.31,514.37L595.05,526.68L585.23,512.79L586.46,509.70L592.31,514.37Z M570.88,501.07L575.40,509.40L556.36,493.60L554.97,489.10L557.23,487.05L559.49,488.29L565.19,497.55L570.88,501.07Z M485.86,505.76L488.71,513.40L483.60,517.76L483.87,525.69L481.06,525.19L481.61,529.04L479.66,527.36L474.46,532.69L468.24,530.89L467.65,527.04L469.61,528.04L461.96,522.57L458.90,518.21L458.71,512.26L453.28,507.66L451.41,494.40L446.98,486.93L439.87,483.31L436.92,474.09L431.01,475.23L430.72,470.81L434.59,468.89L451.23,471.83L461.79,468.74L464.13,474.02L468.01,474.30L468.62,476.43L472.20,473.09L483.25,483.61L483.53,487.41L489.05,489.10L485.75,493.80L485.86,505.76Z M515.69,471.92L515.93,477.18L510.65,484.56L501.41,477.39L503.53,467.03L505.93,469.10L510.13,467.75L515.69,471.92Z M430.27,456.72L427.55,453.29L420.35,450.56L417.53,451.65L419.34,458.64L426.74,463.65L430.49,462.63L430.27,456.72Z M624.77,452.09L624.33,462.08L621.80,462.46L620.83,467.41L616.89,465.39L613.86,469.10L607.21,465.06L606.20,461.97L611.10,454.75L611.45,442.11L615.19,441.71L619.57,450.46L620.59,449.17L624.77,452.09Z M508.38,433.87L505.81,434.66L507.99,439.86L519.46,446.23L519.10,442.50L508.38,433.87Z M523.15,404.05L515.44,401.14L511.47,405.10L522.10,413.88L525.45,409.73L523.15,404.05Z M510.47,395.44L512.97,398.13L510.48,397.80L508.72,402.06L511.35,410.80L507.40,414.81L502.01,396.73L510.47,395.44Z M486.03,206.45L475.26,207.51L474.17,210.92L481.92,212.48L487.67,209.41L486.03,206.45Z M507.02,200.07L502.90,202.33L500.13,210.21L502.98,213.80L512.08,205.62L507.02,200.07Z M469.77,193.66L469.38,200.63L474.08,205.18L476.42,204.52L477.94,199.35L475.76,193.13L473.88,191.37L469.77,193.66Z M487.52,181.47L480.36,181.34L477.17,184.16L479.77,189.48L485.48,192.49L490.91,190.17L487.52,181.47Z M506.99,170.78L501.05,175.26L501.10,178.59L511.02,182.96L514.55,177.11L513.14,172.18L506.99,170.78Z M497.53,138.18L500.00,145.24L503.96,146.24L508.48,143.69L510.28,137.96L501.77,132.39L497.53,138.18Z M508.65,127.48L503.07,135.75L504.89,140.49L512.06,138.38L515.49,132.04L513.46,128.11L508.65,127.48Z M507.87,115.85L505.07,110.40L502.28,110.17L496.95,121.93L501.82,123.98L505.20,122.35L507.87,115.85Z M391.75,889.85L388.01,887.32L389.18,900.82L392.89,895.11L391.75,889.85Z M469.70,837.42L464.56,844.58L465.99,847.47L477.19,847.65L478.51,843.92L476.54,840.49L469.70,837.42Z M473.17,834.73L482.81,835.30L476.71,841.53L473.65,837.49L459.74,840.23L456.79,836.57L464.86,829.96L471.34,831.58L473.17,834.73Z M490.34,798.67L486.00,802.57L486.23,805.96L490.36,811.74L493.82,811.71L496.91,807.99L497.32,802.73L496.23,799.73L490.34,798.67Z M465.35,591.98L458.86,597.89L459.20,602.34L466.18,605.39L470.16,604.38L472.49,597.27L468.83,591.81L465.35,591.98Z M430.32,554.56L432.02,545.16L429.53,541.63L422.07,544.35L427.49,555.27L430.32,554.56Z M476.13,535.50L479.20,546.86L486.48,543.72L481.35,533.57L476.13,535.50Z M407.15,692.16L407.73,698.64L413.26,701.77L418.99,699.22L420.33,693.19L416.81,688.58L411.18,688.21L407.15,692.16Z M417.41,700.71L420.69,696.86L420.54,691.94L416.97,688.29L411.79,687.97L407.85,691.34L407.41,696.66L411.44,701.09L417.41,700.71Z M408.28,698.64L412.51,701.29L417.31,700.47L420.46,696.64L420.27,691.75L416.76,688.14L410.77,688.12L407.00,692.78L408.28,698.64Z M408.35,698.38L412.59,701.07L417.42,700.26L420.56,696.46L420.41,691.59L416.95,687.96L410.95,687.87L407.13,692.50L408.35,698.38Z M496.85,491.09L490.77,493.40L489.67,498.49L493.08,504.35L497.87,504.78L502.34,499.51L502.68,495.61L496.85,491.09Z M470.29,461.82L460.56,462.81L458.92,466.82L465.29,474.39L469.26,473.68L472.52,468.93L470.29,461.82Z M513.83,100.98L510.63,96.37L505.43,95.63L501.25,98.82L500.29,104.16L503.12,108.26L508.31,109.27L512.88,106.33L513.83,100.98Z M501.12,101.24L504.31,106.29L509.82,106.97L513.97,103.27L514.36,97.67L510.96,93.94L505.92,93.63L501.97,96.66L501.12,101.24Z M402.32,896.78L411.95,898.24L414.53,894.98L411.66,887.34L402.36,888.77L400.84,892.77L402.32,896.78Z M413.28,890.66L412.78,884.98L409.88,882.64L403.83,881.82L400.95,884.14L400.42,889.81L403.65,894.18L410.47,894.80L413.28,890.66Z M411.19,882.17L408.59,873.00L404.82,872.38L399.17,878.29L398.49,882.44L401.14,885.71L405.34,885.90L411.19,882.17Z M672.87,857.64L664.56,860.98L664.17,867.42L671.04,870.23L675.28,869.28L677.17,862.59L672.87,857.64Z M448.89,848.11L448.75,852.84L454.42,855.74L461.27,853.05L462.32,849.78L461.03,846.60L454.44,844.49L448.89,848.11Z M452.95,844.95L452.59,851.01L455.10,853.70L460.15,854.59L463.42,852.01L465.04,846.98L462.37,842.56L458.91,840.85L452.95,844.95Z M595.84,654.41L588.48,659.46L590.14,664.04L593.54,665.57L598.24,664.28L602.37,658.60L599.78,654.88L595.84,654.41Z M632.11,628.76L625.40,632.31L625.14,637.82L627.60,641.30L635.08,640.37L638.17,636.68L638.09,631.07L632.11,628.76Z M479.33,547.61L478.16,551.64L482.65,555.17L490.84,553.59L492.09,550.76L488.42,546.30L479.33,547.61Z M610.47,534.88L607.21,542.57L609.62,545.47L617.11,544.98L620.52,542.10L620.37,537.63L616.79,534.98L610.47,534.88Z M463.46,526.16L462.48,535.31L468.21,539.49L470.88,538.73L472.17,533.66L469.37,527.82L463.46,526.16Z M618.07,524.91L614.82,516.35L610.93,515.01L607.27,516.88L606.28,522.44L608.81,526.95L612.13,528.93L618.07,524.91Z M617.43,487.84L618.35,484.02L613.29,480.00L604.91,482.59L607.80,488.26L613.59,489.61L617.43,487.84Z M609.53,479.01L599.21,478.09L598.34,481.95L601.35,485.42L607.74,486.14L611.89,482.41L609.53,479.01Z M604.74,476.51L596.38,473.59L594.33,475.38L596.95,486.77L601.52,486.72L604.21,483.77L604.74,476.51Z M602.57,474.80L592.55,469.90L589.52,472.43L589.27,476.93L592.60,480.44L599.80,481.43L602.57,474.80Z M528.82,405.92L521.50,409.83L522.20,416.33L529.22,417.40L533.63,414.14L534.22,408.92L528.82,405.92Z M415.03,327.67L407.71,333.60L415.16,341.66L418.17,340.34L418.84,331.48L415.03,327.67Z M598.27,624.25L598.36,630.64L601.92,632.31L606.99,630.92L611.41,624.20L606.23,620.23L598.27,624.25Z" fill="currentColor" fill-rule="evenodd"/></svg>
