<svg xmlns="http://www.w3.org/2000/svg" viewBox="0 0 1000 1000" role="img" aria-label="Map of Poland"><path d="M476.02,811.44L472.45,790.95L458.81,785.09L454.74,773.32L456.91,767.18L454.14,760.06L447.96,761.43L438.94,756.84L432.84,759.98L409.69,741.99L412.08,747.68L396.66,751.46L390.59,744.78L388.09,735.77L380.17,734.28L376.71,726.92L389.34,719.89L386.18,707.78L379.91,714.12L367.12,713.67L363.51,716.91L360.63,712.75L356.93,714.43L356.59,707.53L346.48,704.50L344.62,699.05L321.10,692.00L318.94,695.17L330.83,719.76L326.48,718.02L315.09,723.87L302.55,736.01L295.04,729.64L292.52,721.16L284.75,709.48L279.42,706.83L277.24,700.16L270.76,700.87L265.73,695.46L266.66,689.63L277.95,684.26L283.80,674.58L276.28,664.68L268.32,662.50L263.81,667.26L256.70,664.32L248.36,669.91L249.69,665.77L247.52,660.20L237.67,660.65L233.21,651.91L224.59,653.36L205.23,644.46L198.38,647.67L197.18,640.38L190.40,631.56L191.49,624.73L181.48,617.10L178.57,621.05L170.27,615.92L166.84,619.55L169.68,623.88L168.52,636.84L154.81,636.92L166.38,610.31L171.51,583.43L167.06,576.09L165.56,560.45L146.80,549.96L149.51,540.07L148.59,533.37L136.88,514.53L144.97,500.55L145.92,490.12L150.90,479.22L144.91,473.48L146.99,458.61L136.75,451.45L133.65,439.68L133.21,434.54L140.59,424.84L138.74,422.12L141.59,414.47L120.62,393.59L100.00,379.03L103.28,373.20L101.64,364.89L117.52,353.40L121.21,342.65L120.50,335.12L125.37,327.10L122.31,323.61L118.84,302.21L114.39,293.87L111.18,269.09L114.45,267.46L113.60,262.73L132.50,274.55L137.26,282.24L139.91,275.19L136.09,274.31L133.62,268.56L136.09,260.08L139.91,260.08L140.46,249.47L136.98,254.50L136.09,249.04L125.33,247.13L124.59,242.40L119.09,245.86L123.45,247.71L122.47,250.42L115.56,253.78L104.10,242.35L106.88,238.21L122.58,240.37L152.54,225.77L238.60,197.89L260.30,193.55L255.34,196.20L264.11,196.20L266.98,191.46L260.79,192.67L271.79,183.83L268.30,188.49L275.66,184.95L275.74,181.95L272.28,183.83L284.91,167.04L287.60,167.84L285.41,167.04L287.05,163.95L295.28,158.12L324.85,151.80L332.50,143.90L356.59,133.29L421.66,121.73L436.60,122.35L469.51,140.92L476.19,152.18L466.00,139.47L445.93,128.29L442.48,133.61L447.37,141.24L447.49,147.39L451.25,146.55L456.45,174.11L480.23,184.92L519.46,181.36L538.01,171.12L784.64,185.86L795.76,178.35L805.74,180.84L812.05,186.11L812.72,192.08L818.07,190.97L833.96,199.66L844.58,210.19L848.34,224.48L845.34,232.63L855.91,280.57L872.65,328.31L880.08,340.03L877.34,350.90L881.49,359.04L882.38,393.02L878.11,402.41L840.05,423.18L821.95,451.69L823.87,458.01L847.66,465.64L849.64,473.04L859.62,478.21L862.73,489.91L856.20,509.43L858.03,516.79L852.82,523.24L852.11,541.87L857.81,554.23L861.64,556.44L860.52,559.83L864.42,566.24L859.44,579.15L877.68,599.40L881.52,617.72L886.92,626.69L900.00,637.18L885.19,643.45L890.63,648.76L890.72,653.81L895.04,655.75L897.17,678.04L889.42,684.26L887.08,695.65L863.19,700.38L860.16,707.57L816.82,753.60L782.04,804.05L780.05,809.05L786.35,827.92L787.78,841.85L783.31,856.63L797.02,866.53L797.17,878.27L789.19,871.71L760.02,865.46L746.12,859.37L744.68,855.23L732.13,851.94L723.16,834.68L714.47,828.66L709.52,832.33L697.03,822.29L683.19,824.45L669.83,819.32L664.53,825.64L654.53,823.23L651.69,825.76L654.82,831.26L642.56,839.91L631.33,834.62L624.24,825.65L612.62,829.49L604.12,825.39L594.55,826.80L591.89,833.66L580.03,837.51L573.21,855.07L564.23,848.36L555.77,853.43L550.08,852.36L549.37,849.14L553.90,842.43L551.59,839.52L550.76,826.61L539.40,825.48L540.02,820.37L533.79,818.74L525.85,800.08L508.03,811.84L500.65,826.47L486.33,827.12L486.24,813.71L476.02,811.44Z" fill="currentColor" fill-rule="evenodd"/></svg>
