<svg xmlns="http://www.w3.org/2000/svg" viewBox="0 0 1000 1000" role="img" aria-label="Map of Portugal"><path d="M749.16,317.64L737.73,325.41L737.73,333.31L732.99,344.62L746.63,362.61L754.95,361.09L750.87,372.58L745.58,371.43L743.63,374.28L737.61,375.58L735.79,383.91L728.47,391.87L723.91,402.63L727.15,408.67L730.41,429.17L724.86,428.72L708.45,440.13L699.30,439.12L700.07,440.92L689.28,434.24L675.43,434.59L667.90,431.87L648.39,439.53L645.62,438.63L655.32,412.48L654.76,400.42L658.72,391.83L655.71,392.35L655.92,380.54L651.12,377.20L657.54,361.73L656.44,350.36L648.57,342.30L656.25,345.95L666.47,346.44L659.58,344.25L657.59,336.77L655.49,339.19L656.79,342.30L650.53,340.26L642.92,344.99L633.21,346.44L635.71,337.68L632.04,330.16L639.76,330.59L648.57,322.89L644.89,313.80L648.54,307.08L658.03,301.64L648.93,305.40L640.16,319.29L639.51,326.94L628.35,329.84L620.36,327.72L618.98,320.64L626.80,295.07L626.63,287.22L623.69,283.33L633.91,281.28L633.25,279.00L640.69,269.86L652.54,233.87L656.97,234.27L650.39,228.86L658.68,199.82L662.04,199.42L664.62,196.30L663.44,194.33L668.29,192.25L663.19,192.78L663.89,186.35L658.80,199.01L664.26,166.04L659.52,159.65L654.55,131.81L661.71,128.48L654.57,130.28L651.89,127.50L652.57,119.43L665.40,106.77L686.97,100.00L687.95,105.55L693.76,107.44L686.47,117.66L689.25,122.63L693.84,122.89L703.84,115.82L704.34,119.51L713.65,116.78L719.76,118.50L719.83,121.65L727.12,119.87L728.54,122.94L740.49,118.12L743.63,111.08L749.41,113.96L752.56,112.36L759.88,113.90L761.48,111.21L766.65,114.70L772.97,112.62L774.77,117.86L777.52,118.88L774.68,127.31L776.59,132.64L785.96,132.33L794.49,138.49L788.34,149.00L779.03,156.66L770.99,158.46L762.58,171.87L757.12,172.42L755.21,175.06L761.95,185.57L760.12,203.69L762.14,208.15L759.77,212.93L763.11,218.59L758.65,224.60L751.31,227.22L749.85,230.13L758.56,241.50L751.02,262.29L722.43,263.23L724.64,268.91L735.43,277.90L734.73,285.56L738.77,290.23L739.13,295.18L743.19,296.83L743.77,301.13L750.08,300.88L752.91,303.68L753.57,307.16L748.63,314.38L749.16,317.64Z M699.78,445.36L708.59,444.73L710.25,438.42L708.21,436.21L700.13,437.20L697.38,439.41L699.78,445.36Z M639.51,312.56L635.52,321.47L641.65,325.88L649.22,318.53L648.03,314.44L644.40,312.20L639.51,312.56Z M250.01,739.22L246.55,729.13L243.40,727.59L240.22,729.06L240.17,735.25L245.09,741.40L250.01,739.22Z M236.41,719.91L227.07,727.47L220.19,727.26L209.32,722.06L205.51,716.22L209.10,712.28L215.33,716.24L223.23,714.46L229.75,718.86L236.41,719.91Z M261.22,699.17L259.08,693.82L253.83,693.28L247.38,702.04L251.79,705.00L258.34,703.65L261.22,699.17Z M270.09,906.82L275.71,905.07L277.93,899.85L276.02,895.04L271.50,892.93L266.52,894.60L263.98,899.23L265.46,904.29L270.09,906.82Z M276.63,898.88L282.73,898.90L286.04,894.74L285.57,888.95L281.64,885.96L276.74,886.62L272.75,890.93L273.12,895.67L276.63,898.88Z" fill="currentColor" fill-rule="evenodd"/></svg>
