<svg xmlns="http://www.w3.org/2000/svg" viewBox="0 0 1000 1000" role="img" aria-label="Map of Qatar"><path d="M330.61,810.11L354.11,785.52L307.89,589.27L304.79,434.30L325.72,416.61L348.46,448.03L341.95,392.18L320.23,379.10L353.00,355.86L371.84,415.45L376.61,382.54L394.93,382.54L407.64,358.21L373.87,361.23L366.78,340.75L373.21,286.17L405.57,282.16L394.86,261.84L410.67,189.80L419.98,197.00L439.34,153.78L482.23,136.33L497.78,110.30L531.88,100.00L575.29,127.74L594.17,197.00L650.25,207.51L679.99,240.30L687.71,301.89L665.07,312.38L685.72,325.17L647.15,337.60L667.28,365.73L640.90,372.23L632.07,420.89L652.50,461.69L653.35,533.58L693.66,554.66L695.21,671.59L644.93,755.49L619.22,843.72L572.45,898.91L575.29,866.16L544.07,852.14L484.77,895.70L408.25,900.00L363.81,865.50L330.61,810.11Z" fill="currentColor" fill-rule="evenodd"/></svg>
