<svg xmlns="http://www.w3.org/2000/svg" viewBox="0 0 1000 1000" role="img" aria-label="Map of Romania"><path d="M313.25,267.28L326.13,257.00L326.83,251.45L333.62,254.09L338.59,251.13L345.01,240.09L372.23,255.52L380.89,251.33L399.24,253.55L405.59,260.04L418.59,256.75L437.38,264.57L452.46,257.87L463.70,258.87L471.45,263.19L475.29,271.49L486.21,276.89L493.69,287.32L509.20,283.32L524.58,264.38L601.67,252.87L609.94,240.64L612.71,226.23L645.28,218.59L656.56,221.30L663.85,229.58L666.39,227.11L671.43,231.76L668.80,234.59L675.69,237.16L675.16,242.63L680.88,247.96L679.73,251.35L685.91,254.09L685.22,261.56L693.07,272.95L690.17,274.70L695.95,282.17L695.41,289.39L707.87,303.02L711.65,313.88L720.34,317.70L720.05,328.07L725.51,336.41L733.66,340.19L743.01,359.81L762.07,375.13L766.50,393.90L776.03,414.81L774.75,434.13L777.04,443.36L771.27,460.50L765.44,466.94L768.47,473.13L763.22,493.64L766.80,505.36L765.81,516.68L769.33,524.42L770.43,540.16L761.48,544.89L768.15,548.95L774.24,562.34L780.45,565.80L784.16,577.83L816.29,589.51L824.13,587.41L820.49,583.76L823.03,578.01L834.89,583.16L838.59,577.73L868.07,563.11L889.01,569.06L895.83,575.00L897.20,589.06L893.60,591.54L900.00,597.44L897.03,602.90L893.09,633.99L888.34,639.00L854.03,643.36L840.88,654.99L838.70,648.17L852.55,640.98L848.97,632.33L849.60,636.57L845.92,637.53L844.55,633.49L845.23,623.86L850.18,620.77L839.40,615.63L829.77,624.02L829.52,631.41L836.79,638.22L834.47,639.88L836.26,645.70L823.76,651.18L822.55,659.81L829.78,658.28L833.37,654.08L832.17,651.59L838.07,653.52L839.77,656.64L835.64,661.64L838.74,655.24L821.72,665.71L823.45,661.64L820.33,662.55L820.89,666.31L822.87,667.45L818.21,669.72L821.72,671.61L820.39,682.20L834.47,663.31L827.62,678.74L809.95,700.32L813.05,718.30L809.59,720.02L813.05,739.14L805.15,770.31L774.94,767.79L754.62,757.16L748.79,739.64L732.68,745.06L725.21,735.20L704.10,736.99L692.87,723.93L673.95,717.28L599.78,737.32L568.52,771.44L536.54,781.41L499.36,769.30L477.53,770.01L457.29,762.87L448.15,768.03L431.32,768.89L396.09,757.97L383.39,758.61L374.25,753.36L323.84,758.35L320.60,751.36L323.59,739.49L335.19,734.98L335.87,727.50L307.08,710.97L306.31,701.67L295.12,696.36L289.00,682.36L289.61,678.00L295.04,676.55L297.75,670.01L307.88,672.89L313.38,667.90L284.69,649.54L274.44,656.39L264.31,676.14L259.36,677.65L248.17,658.68L236.42,653.82L219.57,655.14L212.95,644.18L197.55,642.65L193.05,637.58L194.13,634.58L209.42,630.60L207.73,625.17L193.78,617.34L199.74,613.30L205.78,599.47L198.36,592.83L184.29,589.21L175.85,580.17L171.80,582.07L162.49,576.63L144.35,558.79L147.15,552.57L143.28,543.43L145.93,525.54L137.67,526.69L127.86,509.10L109.40,498.27L100.00,482.27L103.42,477.93L117.03,477.55L119.10,474.24L135.63,478.66L147.02,462.86L166.89,467.28L176.28,460.90L179.18,448.64L187.80,444.75L184.79,437.39L189.51,421.93L197.56,419.20L206.50,409.81L203.85,405.01L206.60,397.42L213.41,392.24L213.96,384.82L220.85,374.54L217.59,370.97L228.67,360.93L236.99,337.54L248.78,325.80L249.32,310.76L262.36,302.39L271.75,285.65L282.14,284.20L287.09,277.91L296.28,281.58L302.60,279.83L312.25,273.00L313.25,267.28Z" fill="currentColor" fill-rule="evenodd"/></svg>
