<svg xmlns="http://www.w3.org/2000/svg" viewBox="0 0 1000 1000" role="img" aria-label="Map of Russia"><path d="M439.57,604.34L416.06,621.79L413.37,614.96L410.71,618.09L406.26,616.80L397.90,603.12L388.69,605.69L385.06,600.09L381.98,605.33L371.92,580.80L365.52,573.75L367.39,569.14L357.47,575.33L355.68,578.94L353.42,577.21L351.12,579.26L352.66,573.11L347.45,572.36L346.37,574.58L346.79,572.35L344.74,569.98L345.36,572.35L340.62,572.68L339.03,561.01L336.20,562.59L330.19,559.64L326.64,564.32L313.96,567.53L312.72,570.64L303.26,571.91L300.31,574.93L293.17,574.25L292.63,577.27L295.78,578.52L293.95,580.54L298.30,583.54L293.07,583.75L291.66,586.68L293.38,589.98L288.46,593.72L295.40,598.88L294.93,605.18L291.88,606.45L288.62,604.48L286.30,608.19L280.63,601.58L276.70,604.43L275.24,602.07L272.09,602.33L268.27,607.65L263.50,602.78L262.85,607.71L257.75,598.31L253.73,598.55L252.62,595.46L247.94,598.43L245.43,595.61L243.37,600.08L235.17,606.61L236.18,613.49L233.63,614.16L230.04,608.81L225.41,628.40L228.31,629.82L229.53,635.52L233.33,635.23L237.21,644.47L234.64,645.53L238.61,649.42L235.44,651.14L236.03,652.33L235.86,653.82L235.10,652.32L231.67,655.83L230.46,654.23L230.90,656.31L229.64,654.44L226.35,666.40L228.99,669.50L229.73,676.36L230.39,672.90L231.12,672.81L230.00,681.16L235.22,692.67L231.91,698.91L229.10,697.98L219.09,684.28L213.56,685.75L208.38,679.72L196.26,675.73L195.00,677.52L189.38,668.90L179.20,659.89L180.39,657.45L181.54,659.45L184.57,658.83L185.56,651.80L186.02,653.80L186.62,650.82L188.45,651.68L184.58,645.44L188.52,645.60L187.77,643.84L192.32,641.08L190.92,639.40L188.07,640.81L188.45,640.07L189.46,639.80L189.62,639.39L188.42,639.96L187.84,640.90L186.85,641.20L186.73,639.11L189.72,633.90L194.05,634.05L193.45,626.67L195.42,623.91L193.69,622.43L195.78,616.95L187.24,612.24L185.84,613.82L183.11,608.61L179.28,610.84L174.69,609.39L172.20,601.01L168.04,600.61L169.09,595.43L166.25,589.79L156.73,592.27L154.32,583.33L155.11,581.51L158.77,582.51L161.19,579.16L156.64,575.69L152.09,565.98L152.76,558.29L140.52,553.64L137.43,545.83L136.41,527.13L140.01,521.24L139.20,517.30L149.65,515.18L142.04,511.20L142.39,507.71L138.20,509.72L155.82,486.49L148.41,478.31L151.10,473.63L146.79,466.90L147.11,459.82L149.02,459.02L144.07,447.31L148.54,439.69L142.39,434.82L142.90,428.44L141.08,427.82L149.05,420.61L156.95,420.09L158.09,417.39L163.12,419.69L158.35,419.46L160.18,421.76L158.74,422.57L164.95,422.63L165.04,424.78L162.78,426.01L162.61,427.27L162.80,426.26L164.49,425.80L165.88,423.53L175.91,424.92L200.03,439.77L200.67,448.27L195.57,453.37L188.43,455.66L169.41,450.93L162.17,445.43L159.62,444.84L157.14,444.91L164.02,449.87L162.04,450.57L163.71,450.14L165.01,450.95L163.40,450.53L162.22,451.02L165.93,452.03L163.95,453.09L171.15,457.17L168.55,462.22L171.88,468.50L170.64,470.33L183.67,477.73L185.93,472.76L179.12,468.75L180.33,464.55L187.64,467.51L186.06,469.45L187.93,467.77L197.59,470.48L194.00,460.58L205.07,451.25L210.59,452.03L212.41,453.87L210.52,455.31L210.82,455.79L213.08,454.38L214.68,457.52L216.28,447.20L212.75,443.69L215.77,436.00L210.66,430.09L221.23,431.58L225.68,435.32L226.44,438.41L220.15,439.26L218.10,442.76L225.08,448.89L230.56,447.68L231.79,440.52L237.68,440.15L235.25,437.26L237.80,437.96L252.01,430.91L253.06,433.31L254.60,431.97L252.72,430.41L259.95,427.08L263.14,426.83L258.63,427.74L260.64,428.34L260.26,432.64L257.38,434.25L264.40,434.92L267.02,431.09L276.06,431.09L283.29,426.80L285.83,429.20L284.26,432.53L287.01,433.33L287.64,429.88L293.05,427.74L289.17,421.17L292.85,418.33L307.79,421.44L311.88,423.85L311.07,423.94L310.86,425.39L321.62,428.24L327.21,434.77L331.55,427.20L328.00,426.98L326.36,421.45L320.24,421.09L322.76,409.62L319.74,409.50L319.43,406.68L327.49,400.64L332.18,388.13L342.50,388.49L348.44,390.51L348.62,394.70L343.62,402.54L348.44,408.62L346.57,414.24L347.23,427.41L351.72,430.93L352.22,432.13L349.63,434.52L349.74,439.65L343.36,447.23L341.28,446.86L342.56,449.75L338.41,451.15L336.58,449.95L338.37,449.19L338.58,448.74L330.37,448.27L334.75,452.13L344.89,453.89L357.28,439.69L355.42,432.84L356.80,429.03L365.92,427.07L369.39,431.49L368.25,438.67L371.11,441.07L377.45,440.82L370.18,439.05L370.38,435.36L373.35,433.93L370.89,427.70L363.40,424.49L352.74,425.17L351.61,419.52L355.35,410.50L349.31,403.05L351.66,399.20L358.51,396.11L357.38,389.43L361.84,391.92L359.77,403.67L367.47,406.54L370.48,405.55L374.46,408.27L377.39,407.86L377.74,407.20L374.61,408.09L373.84,404.71L364.48,401.64L363.19,398.36L367.30,396.97L373.05,398.63L372.47,396.38L369.63,396.38L373.12,393.69L379.04,393.68L389.98,400.39L397.05,400.14L396.10,403.18L392.48,404.52L391.59,411.50L392.84,415.06L391.94,411.44L395.42,407.24L394.22,415.26L396.40,416.36L395.65,413.85L399.49,412.37L396.42,406.14L398.77,401.07L392.14,394.70L385.16,392.12L385.68,387.92L382.95,385.94L384.27,382.11L413.54,378.83L414.60,380.04L408.89,382.96L409.10,384.42L413.53,387.66L409.33,382.81L415.32,381.68L417.65,378.94L409.64,375.01L415.77,374.40L413.53,372.39L408.67,371.65L410.30,369.84L414.35,371.92L415.36,368.23L418.24,367.83L414.66,366.48L419.00,367.11L425.03,363.12L427.17,363.74L447.98,358.84L442.03,359.31L443.12,357.36L447.22,357.77L445.76,357.00L453.71,356.69L457.47,357.44L454.57,359.38L458.71,359.55L469.70,355.68L474.08,357.82L473.22,360.45L474.60,357.24L469.98,353.20L485.73,354.54L479.33,352.86L480.99,350.78L479.52,348.74L495.25,341.28L504.60,344.88L494.56,347.64L510.23,349.24L505.18,353.31L526.99,350.83L532.17,353.68L530.44,354.95L534.73,355.01L533.90,357.83L537.12,355.69L538.15,359.71L540.06,359.73L538.50,362.80L538.79,361.66L532.81,359.78L535.04,362.63L538.88,362.95L538.73,365.30L530.18,371.33L519.85,374.80L521.81,374.97L512.88,381.45L508.59,381.62L498.91,389.97L508.38,389.07L504.24,386.25L514.05,385.50L519.27,383.49L518.14,382.26L526.22,380.77L520.68,381.19L522.00,377.73L529.07,377.37L527.95,379.16L532.97,380.76L535.65,379.93L535.19,377.93L537.90,381.46L538.18,388.02L536.45,389.03L536.73,390.28L538.23,391.14L540.99,391.58L536.64,389.40L538.44,387.89L538.53,385.18L540.74,384.27L538.08,382.72L541.08,381.80L561.34,381.90L563.90,382.86L561.42,382.99L561.08,385.34L567.28,388.07L581.33,389.36L579.35,388.24L583.22,388.47L585.68,386.00L584.31,381.18L589.04,379.77L594.54,383.66L597.93,382.21L599.22,385.38L601.49,382.29L612.66,387.38L606.52,389.76L611.51,391.04L605.48,390.92L611.79,392.91L612.87,396.21L604.36,393.25L610.24,400.01L610.78,397.27L613.12,400.17L609.75,400.80L613.51,406.40L620.12,409.80L625.47,405.13L627.94,397.98L629.57,397.74L630.85,398.57L627.93,399.31L629.96,401.58L637.04,404.66L641.49,401.15L651.72,406.07L654.29,404.12L651.79,403.46L653.05,401.55L662.08,402.62L658.83,397.95L662.85,395.36L657.70,395.03L659.79,392.58L667.11,391.71L665.32,388.66L693.92,393.99L685.00,393.17L681.09,394.74L682.54,395.74L685.59,394.87L694.27,394.39L689.81,398.86L691.55,396.21L688.13,395.06L689.03,398.15L685.13,397.65L684.77,400.64L690.10,399.55L695.52,394.23L706.79,396.00L708.70,398.94L703.13,400.64L711.74,402.45L708.82,405.19L716.03,404.21L718.58,407.08L716.45,407.48L720.46,409.29L736.31,406.27L751.72,408.92L755.72,414.00L754.20,419.37L759.98,421.17L759.77,425.79L761.89,427.00L759.11,431.45L762.63,427.60L763.23,421.97L774.08,419.25L787.46,421.97L791.70,419.24L793.97,424.45L799.02,426.08L800.21,429.01L804.87,429.29L807.37,426.39L802.71,420.82L804.72,419.34L804.20,415.65L816.88,419.16L817.26,417.61L830.56,418.08L848.63,427.01L848.63,465.34L841.92,469.99L834.33,465.18L831.39,465.44L836.03,467.72L830.17,466.35L822.69,469.00L830.35,466.78L831.94,468.83L830.64,469.63L830.49,470.47L836.92,468.26L836.75,471.66L840.15,473.76L840.23,471.47L842.30,475.77L842.84,479.47L840.55,480.03L842.56,481.79L842.92,479.74L845.77,483.99L846.59,489.24L844.31,492.55L836.06,489.66L836.77,487.38L834.59,486.84L835.87,489.60L814.63,500.93L815.75,502.07L813.03,505.02L811.33,504.16L811.51,506.51L804.36,510.52L803.19,515.72L798.29,508.78L788.07,510.75L784.43,516.59L785.03,510.05L778.62,513.61L777.87,517.02L776.23,513.85L774.84,516.36L774.91,514.96L772.22,514.48L770.51,523.94L768.74,523.43L764.58,533.66L766.27,537.57L767.84,534.81L770.82,537.37L768.27,546.63L770.40,546.92L770.99,552.33L769.52,554.04L767.21,551.86L769.00,550.36L769.38,548.83L766.55,550.34L763.51,558.46L765.21,566.23L755.53,571.96L755.55,582.51L754.46,580.70L749.25,584.53L747.99,583.22L747.28,593.58L739.74,604.38L734.52,561.10L736.36,548.01L741.28,540.14L740.11,537.16L744.26,534.27L747.52,534.98L764.33,510.86L772.79,506.29L774.54,492.79L781.66,490.86L776.04,488.61L771.15,489.72L769.17,497.32L770.81,498.71L766.56,498.53L756.15,509.27L757.35,504.79L754.34,505.82L754.23,502.78L756.89,495.90L753.31,498.76L751.16,496.17L741.41,498.78L728.31,516.21L727.92,520.25L731.77,519.87L732.85,523.01L727.50,524.21L724.33,522.36L722.14,525.67L719.64,524.14L714.92,526.37L713.68,523.73L719.44,522.70L715.12,518.81L712.25,520.49L705.69,517.17L704.93,520.13L702.74,520.11L703.63,522.44L692.29,520.19L690.17,523.37L689.73,520.65L676.70,521.00L666.15,530.77L653.64,549.94L639.40,565.64L642.09,568.09L647.10,567.34L646.88,575.90L648.79,575.14L648.21,572.25L651.36,570.53L649.49,578.28L655.30,573.68L654.64,578.44L656.20,573.52L655.60,570.77L660.84,570.70L668.50,580.49L667.48,583.59L665.23,582.38L669.19,591.67L665.13,599.98L662.76,627.90L639.24,676.39L629.99,684.42L626.04,682.88L626.20,678.45L624.26,680.69L623.78,678.06L620.95,685.73L618.32,684.66L618.54,688.27L617.03,684.34L620.40,682.24L621.23,677.65L619.61,663.34L623.90,658.48L629.72,660.73L634.78,639.00L637.53,635.25L637.28,629.84L629.69,631.37L627.04,635.28L619.76,635.32L618.40,623.89L612.83,618.50L603.77,614.89L596.99,585.67L585.45,577.95L572.66,580.72L568.73,585.81L571.96,587.95L571.87,593.45L564.55,608.99L565.39,611.93L558.65,617.60L541.91,610.13L534.87,617.72L525.32,621.28L515.08,619.42L512.32,613.49L506.30,609.64L500.10,608.17L494.47,611.39L490.52,610.90L485.98,607.32L484.91,599.38L470.22,591.99L464.99,603.04L467.12,610.06L462.83,615.44L450.04,612.64L448.43,607.38L439.57,604.34Z M165.43,650.77L170.38,652.25L174.08,658.87L175.73,657.18L179.48,658.35L178.56,661.13L174.20,660.68L166.88,667.85L164.24,665.93L165.01,660.64L160.08,657.78L165.73,653.36L165.43,650.77Z M848.63,465.34L848.63,427.00L854.02,429.25L857.62,434.08L859.35,433.24L856.22,431.16L867.67,438.07L866.34,440.09L868.79,440.63L868.12,438.45L870.73,439.96L874.47,453.46L878.08,451.90L875.41,450.66L876.51,446.79L873.78,445.80L878.29,445.27L880.97,445.97L880.03,445.90L879.89,448.15L884.28,447.06L881.37,446.02L887.29,446.89L892.39,453.90L896.98,455.53L892.48,457.55L892.56,460.07L888.48,457.84L890.46,461.41L881.96,459.13L885.54,461.25L885.09,463.61L882.70,463.56L885.60,465.24L880.54,468.29L884.94,471.79L881.85,470.93L880.81,473.42L879.37,469.74L878.34,472.52L873.59,466.99L870.05,468.23L867.10,461.56L855.81,461.36L853.40,455.71L854.77,456.07L855.74,452.45L854.30,454.56L852.53,452.14L852.12,454.78L850.06,454.40L852.08,460.78L848.63,465.34Z M846.44,399.37L839.18,405.15L841.66,412.30L848.78,411.44L852.05,407.32L850.72,399.29L846.44,399.37Z M848.46,408.34L858.43,407.86L861.45,404.40L856.31,400.94L849.51,400.53L847.60,401.99L848.46,408.34Z M617.41,682.24L621.21,687.59L626.65,687.69L630.43,683.03L628.86,676.64L624.28,674.26L619.08,676.22L617.41,682.24Z M675.02,576.55L674.64,569.51L675.99,572.51L676.98,597.94L684.13,626.12L680.87,620.15L677.14,618.78L679.04,619.54L675.97,621.42L673.81,634.70L678.85,648.33L677.94,651.75L677.65,646.56L674.15,644.96L671.66,652.97L670.60,624.84L672.52,601.95L669.59,590.14L670.19,579.83L673.39,579.74L675.02,576.55Z M148.47,506.96L143.99,502.25L137.97,503.28L135.23,510.19L137.34,514.19L141.52,515.93L146.12,514.41L148.47,506.96Z M885.46,462.20L877.98,466.46L877.78,471.13L880.41,474.06L887.07,473.89L890.51,471.44L891.28,467.29L885.46,462.20Z M329.14,452.56L336.68,455.78L340.41,451.52L339.05,446.30L332.71,443.72L327.73,445.21L326.49,448.69L329.14,452.56Z M244.88,426.94L241.31,429.63L240.29,433.91L242.83,437.51L250.50,436.92L253.89,433.63L253.34,428.93L244.88,426.94Z M264.91,421.31L260.63,424.70L260.04,429.02L262.26,432.61L267.55,434.01L272.47,431.68L273.77,426.39L270.49,422.05L264.91,421.31Z M257.87,423.06L256.66,428.70L259.81,432.97L265.09,433.61L269.52,430.45L270.34,425.66L267.39,421.34L262.26,420.17L257.87,423.06Z M756.82,423.81L758.52,429.70L761.13,431.61L764.77,430.41L764.46,418.87L758.41,419.02L756.82,423.81Z M756.11,422.95L758.74,427.92L763.32,428.43L767.44,426.10L768.48,419.43L764.69,415.21L759.45,415.34L756.11,422.95Z M345.01,378.59L339.87,377.33L335.87,379.88L335.47,388.67L339.57,391.09L345.30,389.49L347.84,384.50L345.01,378.59Z M250.44,402.78L249.36,396.56L252.90,396.72L255.24,394.06L256.33,391.58L254.71,391.21L256.87,391.11L252.94,390.31L257.63,388.76L257.36,385.50L264.88,383.50L271.89,385.41L268.96,387.02L271.62,387.60L268.06,388.02L270.88,389.36L267.43,389.57L269.60,390.91L265.73,393.05L267.87,395.50L266.24,398.15L270.35,404.71L277.50,409.89L273.31,410.16L275.90,411.51L270.90,409.78L272.91,411.26L272.25,411.70L267.08,409.69L265.95,411.62L262.92,408.96L264.10,410.69L258.37,409.15L258.19,406.32L261.66,406.04L257.96,404.66L260.29,402.72L257.78,404.19L257.92,401.91L255.30,403.39L253.74,401.03L250.44,402.78Z M602.34,387.99L609.77,387.00L610.81,379.90L606.00,377.10L598.93,379.11L597.68,382.67L602.34,387.99Z M417.24,375.94L407.83,377.50L405.90,381.79L407.74,386.11L412.18,387.68L417.60,385.92L419.85,380.12L417.24,375.94Z M455.46,354.94L454.37,359.18L460.17,363.84L464.75,362.65L468.15,358.52L465.05,352.20L455.46,354.94Z M447.62,351.56L445.37,356.33L446.88,360.75L451.84,363.17L456.71,361.96L459.29,357.65L457.62,352.18L452.77,349.55L447.62,351.56Z M448.20,350.94L443.59,355.29L444.62,359.58L450.48,362.06L455.18,360.44L457.11,353.54L453.93,350.36L448.20,350.94Z M456.67,360.88L464.55,359.23L466.17,354.09L463.08,349.67L454.11,350.62L452.27,354.38L456.67,360.88Z M455.38,352.19L454.80,359.64L458.46,362.46L464.02,361.50L467.24,357.84L466.78,352.05L462.36,348.91L455.38,352.19Z M443.39,347.63L440.79,351.92L442.15,356.32L446.27,358.37L452.64,357.17L454.71,353.44L453.68,349.28L448.15,346.54L443.39,347.63Z M455.29,346.18L446.35,348.46L445.25,352.34L446.94,356.01L455.60,357.20L458.82,353.94L458.89,349.85L455.29,346.18Z M274.46,371.12L269.07,370.04L273.02,368.59L268.96,366.55L277.98,364.88L276.86,363.20L279.28,361.42L289.78,357.22L291.95,358.24L293.55,355.55L307.62,355.23L323.94,348.37L330.69,351.32L327.21,355.54L294.48,364.88L288.19,368.03L291.73,368.83L286.23,370.05L287.38,372.12L284.28,370.65L284.54,373.53L280.06,372.19L282.59,375.54L279.77,378.01L276.45,376.07L278.02,380.56L276.37,379.39L272.45,378.97L277.40,381.12L273.29,381.01L275.71,383.19L273.26,385.27L269.47,383.28L260.67,384.00L266.82,380.64L261.83,381.79L258.90,379.71L265.28,376.18L269.22,376.84L265.54,375.27L271.20,373.06L267.66,371.46L274.46,371.12Z M450.60,332.20L444.35,330.79L440.03,333.72L441.18,341.68L446.85,343.41L451.46,341.38L453.06,336.60L450.60,332.20Z M436.39,322.41L433.23,326.00L433.80,330.58L437.55,333.25L444.35,332.99L446.84,329.46L446.16,325.21L442.69,322.63L436.39,322.41Z M443.79,318.90L439.13,318.99L435.20,322.16L435.04,327.20L438.75,330.62L444.68,330.48L448.20,326.90L447.82,321.89L443.79,318.90Z M437.53,319.39L433.35,320.73L432.58,328.08L440.65,330.33L444.89,327.16L445.01,322.48L437.53,319.39Z M434.71,318.45L429.32,319.02L427.65,325.99L437.94,329.31L440.61,322.60L434.71,318.45Z M470.75,317.93L469.45,325.88L472.52,328.63L478.53,328.17L482.29,324.67L482.01,319.54L477.89,316.47L470.75,317.93Z M448.25,312.80L442.02,315.73L440.91,320.44L443.19,324.19L447.40,325.44L453.88,322.11L454.73,317.80L452.46,314.04L448.25,312.80Z M684.68,679.85L689.45,683.38L694.66,682.14L697.52,677.49L695.73,671.49L689.06,669.77L684.21,673.65L684.68,679.85Z M690.68,667.48L686.56,674.06L689.38,679.34L693.46,680.58L698.13,678.28L700.17,671.04L697.41,667.69L690.68,667.48Z M685.64,676.39L689.74,677.06L695.00,668.87L693.96,664.72L690.06,663.86L687.83,665.76L684.41,673.57L685.64,676.39Z M698.56,656.08L692.54,667.96L694.96,668.95L704.59,659.05L704.19,655.79L698.56,656.08Z M709.46,646.15L702.29,657.12L706.75,659.84L712.55,655.06L715.03,648.97L709.46,646.15Z M717.24,635.81L711.62,644.49L717.12,649.49L723.59,643.39L723.92,638.88L720.70,635.79L717.24,635.81Z M720.33,631.87L715.64,633.46L713.35,637.92L715.78,644.03L720.64,645.86L724.86,644.11L726.99,639.55L726.27,635.70L720.33,631.87Z M720.21,628.45L716.08,635.88L718.38,640.45L723.28,641.90L728.12,638.73L729.32,634.00L724.82,628.30L720.21,628.45Z M729.27,627.79L722.44,624.71L718.52,626.79L716.80,630.93L718.25,635.71L724.24,638.58L728.97,636.29L729.27,627.79Z M725.97,617.76L721.09,626.06L723.05,629.72L727.27,631.31L731.59,629.78L734.40,623.32L731.46,618.21L725.97,617.76Z M720.33,621.25L721.91,627.66L726.39,630.04L731.19,628.69L734.07,623.40L731.55,617.92L726.91,616.07L720.33,621.25Z M729.90,614.47L725.25,615.87L722.90,619.50L723.62,624.55L727.95,628.24L733.54,627.21L736.44,623.40L736.06,618.65L729.90,614.47Z M724.51,610.20L723.09,617.89L727.85,621.88L732.51,621.26L735.70,617.32L734.95,611.17L729.97,608.09L724.51,610.20Z M729.92,610.85L730.98,614.60L735.25,615.72L740.52,607.89L738.91,602.83L734.41,603.16L729.92,610.85Z M735.28,599.64L731.89,603.78L732.92,609.73L737.58,612.44L741.70,611.52L744.43,603.02L742.44,599.79L735.28,599.64Z M735.04,611.35L739.74,609.33L741.53,604.47L740.72,601.15L734.97,597.42L730.77,598.33L727.87,606.08L735.04,611.35Z M676.39,577.10L680.43,573.22L680.37,567.91L676.45,564.21L670.08,565.00L667.12,569.20L667.77,574.05L671.50,577.22L676.39,577.10Z M653.38,576.02L658.51,568.44L655.53,563.33L649.62,562.94L646.07,566.28L645.35,572.28L648.60,575.80L653.38,576.02Z M645.71,564.69L644.45,570.32L646.67,574.54L651.59,575.87L656.16,572.97L656.91,567.18L654.40,563.08L649.72,562.04L645.71,564.69Z M795.70,563.60L789.31,560.02L785.90,561.96L784.85,566.17L793.04,573.97L798.34,569.20L795.70,563.60Z M646.61,557.65L640.76,563.37L643.09,569.58L647.20,570.80L652.83,568.14L654.53,562.26L652.61,558.60L646.61,557.65Z M646.17,561.73L645.57,568.52L651.78,571.74L654.95,569.63L657.78,563.81L654.62,558.89L649.29,557.97L646.17,561.73Z M779.88,558.42L778.54,561.76L781.81,567.31L786.13,570.66L788.93,569.64L789.96,565.25L787.62,558.80L784.36,556.93L779.88,558.42Z M708.78,517.89L704.53,524.73L706.44,529.19L710.96,530.96L715.97,529.02L718.53,524.11L717.13,519.89L713.04,517.19L708.78,517.89Z M770.51,522.42L768.69,531.33L772.77,533.03L778.75,528.54L780.03,522.89L776.40,519.28L770.51,522.42Z M734.21,528.38L739.26,526.67L741.50,522.27L740.01,517.31L735.58,514.68L730.30,516.12L727.57,520.87L729.23,526.09L734.21,528.38Z M148.05,508.08L142.43,509.70L140.20,514.84L142.66,519.88L147.77,521.87L152.14,520.02L154.18,515.73L152.53,510.71L148.05,508.08Z M142.27,509.13L135.87,508.33L131.78,512.90L132.31,518.20L137.14,521.77L143.21,519.81L145.36,514.24L142.27,509.13Z M140.54,511.65L134.38,507.36L129.19,509.74L127.96,516.07L130.69,520.21L135.53,521.27L139.93,518.42L140.54,511.65Z M146.05,506.52L140.54,505.06L136.44,507.58L135.19,512.65L137.59,517.10L145.76,518.04L148.88,513.59L146.05,506.52Z M147.29,508.03L141.16,504.65L136.48,506.53L134.42,510.85L135.74,515.45L140.36,518.54L145.23,517.53L148.15,513.18L147.29,508.03Z M173.64,465.79L170.11,468.79L171.26,476.69L176.14,479.08L180.59,477.56L183.14,473.57L182.49,469.14L180.21,466.59L173.64,465.79Z M170.32,469.03L174.81,472.33L178.60,471.37L181.53,467.67L181.01,462.00L175.79,458.39L171.03,459.71L168.51,462.92L170.32,469.03Z M905.21,462.18L906.31,455.91L902.02,451.66L896.14,452.26L893.06,457.30L894.99,463.36L900.37,465.19L905.21,462.18Z M210.53,443.24L203.19,443.30L200.20,447.50L204.07,455.12L209.42,455.85L213.03,453.17L213.90,448.04L210.53,443.24Z M153.71,441.45L152.66,446.10L155.06,450.44L160.84,452.13L165.70,448.58L165.85,442.56L162.27,438.83L157.50,438.53L153.71,441.45Z M286.99,418.99L280.92,417.93L277.62,420.63L277.03,424.86L284.21,431.22L290.60,427.18L286.99,418.99Z M166.56,429.18L173.41,427.51L175.01,422.58L171.28,417.71L165.16,417.52L161.40,421.23L162.03,426.47L166.56,429.18Z M231.53,427.37L235.60,431.51L243.70,428.49L245.41,425.62L243.66,422.48L236.74,419.78L232.37,422.76L231.53,427.37Z M800.86,415.85L792.46,414.09L788.48,419.27L792.34,422.87L798.81,424.05L802.21,419.92L800.86,415.85Z M279.48,415.30L286.25,421.85L292.63,420.52L292.12,416.23L285.32,410.81L281.92,410.94L279.48,415.30Z M268.62,413.62L272.25,417.67L278.62,417.18L281.38,413.77L281.14,409.39L278.04,406.30L272.10,405.22L268.71,407.69L268.62,413.62Z M761.56,406.13L759.32,411.12L761.36,415.35L766.88,417.06L771.82,414.74L773.19,409.46L770.01,405.03L765.33,404.03L761.56,406.13Z M767.08,404.25L761.89,402.36L758.09,403.83L756.21,411.78L759.25,414.95L765.33,415.78L769.04,412.42L767.08,404.25Z M752.51,411.85L758.80,415.33L763.92,412.67L764.18,405.86L760.10,402.15L754.89,402.36L751.43,405.86L752.51,411.85Z M247.61,404.98L254.59,411.99L258.26,411.58L260.55,409.53L261.00,402.73L256.64,399.11L251.06,399.41L247.61,404.98Z M650.39,407.62L657.02,403.38L656.40,399.62L650.81,396.70L643.46,400.53L645.66,406.35L650.39,407.62Z M371.57,387.95L363.82,393.71L366.98,397.95L373.28,397.35L377.75,393.11L376.36,389.77L371.57,387.95Z M610.96,386.21L602.34,388.38L601.52,392.17L603.68,395.40L610.94,396.85L614.84,394.00L615.36,390.79L610.96,386.21Z M606.88,393.91L613.55,393.95L616.49,391.50L615.01,385.36L610.81,383.90L604.50,386.07L602.97,389.56L606.88,393.91Z M373.69,393.85L382.90,393.80L384.01,386.43L380.75,382.85L375.03,383.05L371.38,386.53L370.81,390.68L373.69,393.85Z M354.15,393.06L358.41,393.80L361.24,391.53L363.30,386.54L360.94,382.83L355.31,381.44L350.69,383.83L349.34,387.68L354.15,393.06Z M562.24,388.63L569.78,392.77L573.42,391.28L575.22,385.39L571.33,381.20L565.71,381.04L562.41,383.20L562.24,388.63Z M366.91,380.25L359.83,381.69L358.24,386.17L361.53,390.85L367.66,391.79L371.61,388.79L371.69,383.84L366.91,380.25Z M332.42,388.73L345.02,389.29L345.56,384.90L341.90,380.68L332.64,382.65L332.42,388.73Z M363.96,388.07L370.70,387.11L372.12,383.74L371.33,380.42L365.01,376.86L360.43,378.07L358.17,381.96L359.24,385.79L363.96,388.07Z M357.85,388.41L367.34,385.47L368.74,382.74L366.83,378.14L360.76,377.10L355.55,380.92L355.00,385.19L357.85,388.41Z M678.15,384.53L676.75,385.94L660.84,383.57L671.48,378.69L678.15,384.53Z M596.33,380.21L593.34,373.26L588.33,372.38L583.71,375.33L582.71,380.76L587.54,385.18L593.25,384.39L596.33,380.21Z M402.02,371.75L396.13,373.44L394.34,376.68L395.03,380.60L399.59,383.67L406.32,382.47L408.25,378.31L406.64,373.49L402.02,371.75Z M395.02,371.53L390.24,375.11L390.51,379.40L399.59,382.30L403.21,379.54L403.54,375.11L400.27,372.09L395.02,371.53Z M393.12,370.31L386.79,375.59L387.41,379.63L392.90,383.23L398.45,381.56L400.68,376.77L398.27,372.07L393.12,370.31Z M635.74,377.21L643.52,383.92L646.96,382.90L649.35,378.42L644.02,371.49L637.84,371.09L635.74,377.21Z M671.60,374.55L668.33,370.94L661.23,371.21L658.26,374.86L658.57,379.60L662.43,383.15L668.45,382.32L671.60,374.55Z M552.80,368.42L548.27,367.91L544.43,370.55L543.06,376.06L547.35,380.90L554.21,380.12L556.79,373.60L552.80,368.42Z M404.33,367.21L396.81,371.96L397.84,376.92L402.77,379.60L407.83,378.22L410.58,372.42L408.41,368.63L404.33,367.21Z M537.67,370.79L526.59,373.68L527.09,376.57L534.45,379.38L540.25,373.49L537.67,370.79Z M407.76,366.41L402.43,367.89L400.06,372.58L401.96,376.92L406.60,379.16L412.27,377.01L413.96,373.62L413.51,370.05L407.76,366.41Z M411.07,366.78L403.53,370.08L402.92,375.23L406.71,378.76L413.20,378.10L416.14,375.02L416.33,371.24L411.07,366.78Z M372.35,372.70L375.02,377.09L380.82,378.58L384.93,375.37L385.68,370.10L380.16,365.80L375.06,366.74L372.35,372.70Z M406.77,376.08L412.81,374.27L414.08,370.53L408.94,364.51L400.97,367.48L400.14,371.24L401.95,374.64L406.77,376.08Z M409.10,364.93L406.04,368.83L407.89,372.91L413.65,374.66L418.28,372.42L420.02,369.06L418.18,364.82L409.10,364.93Z M395.33,360.98L390.64,359.91L386.38,362.33L384.73,367.88L388.03,372.64L393.41,373.68L397.42,370.95L398.48,365.77L395.33,360.98Z M384.21,365.92L386.88,369.62L392.37,371.36L397.60,365.87L396.75,361.04L394.40,358.46L389.68,358.25L385.59,360.57L384.21,365.92Z M711.75,366.52L711.45,369.13L704.91,370.45L690.27,365.73L691.97,362.24L693.65,364.50L711.75,366.52Z M652.41,357.18L647.52,355.39L643.28,357.12L641.11,361.23L644.23,367.92L649.68,369.12L653.84,366.35L654.96,361.48L652.41,357.18Z M642.13,358.71L641.56,364.32L645.39,368.27L650.89,367.94L654.85,363.76L654.54,358.86L650.93,355.52L646.02,355.61L642.13,358.71Z M639.18,355.83L637.41,367.61L640.86,368.99L646.62,367.03L648.67,361.51L642.67,355.07L639.18,355.83Z M387.26,363.99L395.82,363.64L396.70,356.29L386.21,354.48L384.38,361.44L387.26,363.99Z M393.64,353.77L388.57,356.09L388.03,359.87L391.15,363.02L399.76,362.69L401.05,356.28L393.64,353.77Z M686.08,362.13L680.59,367.84L675.39,366.65L673.57,364.41L675.94,361.15L672.84,360.98L671.30,361.99L673.32,366.10L679.24,368.60L660.31,368.27L657.86,371.49L652.11,369.59L647.28,364.54L649.90,364.47L648.24,360.98L651.39,360.75L649.95,358.75L654.61,357.68L655.08,356.47L657.49,355.95L664.15,361.82L666.89,361.72L666.60,357.83L669.51,358.17L668.04,356.49L686.08,362.13Z M454.67,351.89L450.23,353.60L450.51,358.88L458.47,361.04L462.40,358.99L462.95,354.00L454.67,351.89Z M539.02,348.47L532.13,350.12L530.23,354.92L532.69,359.58L542.05,359.40L544.15,355.61L543.27,351.37L539.02,348.47Z M526.04,352.75L532.28,358.94L536.71,358.36L539.42,355.18L539.19,350.74L535.15,347.10L527.48,348.33L526.04,352.75Z M454.02,346.94L450.40,351.93L452.11,356.31L458.19,357.84L462.70,355.35L463.69,348.78L459.76,345.97L454.02,346.94Z M454.37,345.65L448.65,348.33L448.04,353.04L451.18,357.09L456.05,357.73L460.98,354.58L461.67,350.21L459.18,346.55L454.37,345.65Z M456.54,352.87L459.00,357.41L464.16,358.68L468.64,356.64L470.28,351.99L466.47,345.87L461.46,345.29L457.21,348.24L456.54,352.87Z M709.28,347.47L699.21,348.01L696.78,351.15L697.68,355.02L704.84,356.77L709.10,354.45L709.28,347.47Z M450.53,351.40L460.13,351.56L462.47,344.83L457.84,342.85L449.70,346.45L450.53,351.40Z M498.51,351.06L505.97,351.58L509.38,347.86L509.09,342.82L505.26,339.53L499.74,339.79L496.44,342.86L495.95,347.34L498.51,351.06Z M426.53,340.04L421.28,341.88L419.11,346.68L424.91,352.46L431.75,350.07L433.09,346.02L430.53,341.63L426.53,340.04Z M504.79,352.07L509.63,350.54L511.95,346.65L511.27,342.18L503.44,338.77L499.22,341.60L498.13,346.21L500.35,350.40L504.79,352.07Z M503.55,345.44L505.68,350.99L512.08,351.55L516.16,348.86L516.58,342.86L510.80,339.34L505.57,341.04L503.55,345.44Z M506.87,350.36L513.30,346.07L512.76,340.85L507.33,337.92L499.99,342.71L500.64,347.97L506.87,350.36Z M508.55,341.81L514.38,339.70L513.57,334.23L502.98,334.06L501.98,339.87L508.55,341.81Z M504.84,330.92L498.98,333.53L498.30,338.31L502.79,341.84L511.38,338.14L511.54,333.57L504.84,330.92Z M500.50,333.00L497.57,335.42L471.81,338.31L477.03,331.36L480.67,331.27L479.46,329.07L482.81,329.05L479.84,328.31L480.80,326.94L485.71,326.56L485.98,324.69L489.94,325.89L486.33,330.66L492.14,327.25L500.50,333.00Z M371.48,320.54L361.02,320.26L361.32,325.35L366.60,327.60L373.53,325.70L371.48,320.54Z M446.47,320.14L432.47,318.51L433.55,320.72L439.17,321.65L437.52,322.40L446.47,320.14Z M250.25,316.00L239.45,316.92L239.44,321.85L251.12,322.59L252.42,320.35L250.25,316.00Z M177.98,323.84L182.73,323.64L186.46,319.92L186.14,314.66L181.98,311.43L176.37,311.88L173.07,316.03L173.86,320.98L177.98,323.84Z M474.69,328.52L472.45,330.66L463.29,330.71L451.08,328.27L448.68,324.23L445.81,324.42L446.67,323.01L443.66,324.63L441.87,323.48L450.44,320.94L448.27,320.13L451.67,318.11L463.99,317.42L466.31,318.58L462.12,322.00L468.49,318.56L475.33,320.86L473.67,325.87L470.72,326.03L474.69,328.52Z M246.09,321.43L248.46,316.48L246.28,313.06L239.35,312.14L234.97,315.51L237.26,322.11L242.13,323.59L246.09,321.43Z M266.12,315.23L274.64,316.08L277.35,310.75L272.08,307.97L266.75,308.71L263.74,312.18L266.12,315.23Z M226.39,313.95L217.85,313.09L230.35,310.75L236.08,312.68L231.34,311.59L226.39,313.95Z M298.18,310.52L298.40,313.04L293.40,315.17L284.99,313.95L287.10,310.94L298.18,310.52Z M282.20,315.89L286.58,314.34L287.21,308.42L283.63,306.24L276.86,307.31L274.75,313.34L282.20,315.89Z M258.80,312.79L270.15,313.56L271.63,309.86L266.17,308.04L258.50,309.85L258.80,312.79Z M248.62,311.87L236.43,315.34L237.68,317.28L234.25,318.24L226.07,316.24L233.13,315.94L229.62,314.69L238.06,314.03L240.36,312.08L237.20,311.54L242.96,310.00L246.73,310.80L243.59,312.15L248.62,311.87Z M380.81,306.01L374.49,308.42L375.51,314.10L383.74,314.28L387.15,311.58L386.94,307.99L380.81,306.01Z M276.98,303.94L273.67,307.41L273.93,311.02L279.02,314.51L285.43,313.22L286.56,306.26L276.98,303.94Z M268.85,309.68L279.05,312.57L282.15,309.12L269.03,306.99L268.85,309.68Z M277.86,311.37L262.47,309.26L269.94,308.92L277.86,311.37Z M238.16,307.15L239.96,313.29L244.21,314.62L250.86,311.59L251.89,307.60L245.74,302.19L239.96,303.93L238.16,307.15Z M435.44,304.38L427.54,304.47L425.16,308.77L428.27,311.38L437.10,310.85L438.92,308.61L435.44,304.38Z M464.71,311.87L461.83,312.62L462.10,316.85L446.05,319.17L438.19,317.45L443.69,316.10L435.19,316.10L440.82,315.30L437.36,314.63L441.48,314.08L443.82,311.33L440.21,311.54L442.80,309.39L454.44,307.18L452.37,306.69L455.51,306.52L464.71,311.87Z M272.67,302.24L270.61,305.29L273.18,307.63L284.18,306.73L282.69,302.52L272.67,302.24Z M295.93,304.50L306.50,306.29L309.29,302.47L305.77,299.51L296.14,300.62L295.93,304.50Z M278.06,298.20L275.37,303.12L278.90,305.79L285.74,305.35L289.13,302.39L288.97,299.88L284.67,297.56L278.06,298.20Z M706.23,644.39L705.74,649.40L708.81,653.37L714.00,654.29L718.27,651.22L718.95,645.56L715.64,641.29L710.26,640.80L706.23,644.39Z M726.29,615.19L725.62,622.25L731.45,625.07L734.61,623.30L736.56,617.26L734.11,612.04L730.18,611.24L726.29,615.19Z M283.69,364.77L290.24,360.99L290.08,355.96L287.04,353.11L277.41,356.60L276.97,360.79L279.53,364.12L283.69,364.77Z M286.77,324.05L291.84,321.44L291.08,315.68L287.33,313.77L281.64,314.79L278.80,320.55L286.77,324.05Z M269.19,312.29L265.61,320.31L268.28,321.75L275.63,321.88L278.49,319.47L277.84,313.71L274.73,311.94L269.19,312.29Z M257.89,312.20L248.99,316.72L252.64,320.15L257.93,320.51L262.94,316.92L257.89,312.20Z M274.30,312.86L274.91,318.66L278.88,319.72L286.71,316.00L281.69,313.04L274.30,312.86Z M255.19,310.57L254.77,317.06L260.67,320.33L265.06,319.43L268.10,315.06L266.23,309.92L260.62,307.75L255.19,310.57Z M287.73,312.34L297.07,311.92L298.78,306.27L287.63,306.48L285.79,308.19L287.73,312.34Z M300.17,311.15L303.15,312.53L314.12,310.00L310.47,307.25L300.17,311.15Z M273.52,312.07L280.54,311.60L283.52,309.33L283.72,305.58L280.07,302.71L273.68,303.34L270.53,305.68L270.46,309.61L273.52,312.07Z M266.30,305.80L267.46,308.34L271.63,308.81L279.90,306.02L273.17,304.23L266.30,305.80Z M284.71,311.35L289.28,309.35L290.35,304.87L285.80,300.92L279.27,301.69L276.70,304.71L277.25,308.64L284.71,311.35Z M293.73,308.58L302.98,307.72L304.50,303.41L302.38,299.35L292.95,298.73L290.71,301.91L293.73,308.58Z M191.59,473.40L196.43,475.67L201.37,473.82L202.82,469.96L201.20,466.16L196.67,463.35L191.81,464.21L189.05,467.56L191.59,473.40Z M196.42,461.81L191.10,462.82L188.19,467.27L189.78,473.20L195.48,475.49L199.39,473.98L201.98,469.55L200.76,464.55L196.42,461.81Z M197.46,475.62L201.86,473.32L203.09,467.98L201.74,464.67L194.83,462.22L190.69,464.33L189.22,468.75L192.63,474.12L197.46,475.62Z M176.96,458.77L172.00,460.18L169.37,464.49L170.36,469.24L174.82,472.22L180.23,471.33L183.17,466.71L181.78,461.24L176.96,458.77Z M177.04,458.35L171.16,460.79L170.21,466.17L173.44,470.07L178.70,470.73L183.00,467.83L183.92,463.65L181.95,459.86L177.04,458.35Z M260.88,426.98L255.43,431.14L255.02,435.98L257.56,439.55L262.31,440.77L266.56,438.98L268.71,434.35L266.65,428.69L260.88,426.98Z M253.20,433.88L258.34,440.13L263.45,439.66L266.87,435.19L265.85,429.24L260.45,426.54L254.89,428.75L253.20,433.88Z M236.33,423.63L231.93,425.25L229.95,429.27L231.21,433.57L236.73,436.16L241.30,435.13L243.83,431.18L242.85,426.60L236.33,423.63Z M236.12,422.98L232.93,427.23L233.55,432.09L237.30,435.25L242.69,434.82L246.42,430.66L245.74,425.12L241.12,421.99L236.12,422.98Z M259.41,434.86L266.06,434.33L268.88,429.31L263.92,422.56L258.20,422.97L255.15,426.82L255.65,431.71L259.41,434.86Z M234.08,426.49L234.98,431.70L239.31,434.67L244.47,433.66L247.76,429.12L246.83,424.08L242.63,421.13L237.15,422.21L234.08,426.49Z M263.65,420.77L258.03,427.24L262.82,433.96L268.13,433.77L271.48,430.31L271.67,425.50L268.61,421.78L263.65,420.77Z M243.95,433.91L249.10,427.26L247.52,422.84L243.44,420.52L238.83,421.43L235.39,425.53L235.72,430.32L239.15,433.68L243.95,433.91Z M323.72,416.74L315.91,418.97L315.50,425.42L319.62,429.00L325.87,427.87L328.70,423.46L327.87,419.34L323.72,416.74Z M322.57,414.98L317.30,417.21L315.06,421.81L316.28,425.89L321.63,428.73L328.01,425.29L328.97,420.73L326.72,416.41L322.57,414.98Z M324.41,408.54L318.06,405.74L314.24,408.68L313.15,413.49L315.26,417.16L323.41,418.86L326.68,414.57L324.41,408.54Z M323.70,408.03L319.57,403.77L315.46,404.59L312.92,408.93L313.63,413.88L320.27,417.57L323.80,415.29L323.70,408.03Z M325.47,408.06L323.09,402.36L317.84,401.25L313.73,404.71L312.62,410.47L319.04,415.06L324.36,411.72L325.47,408.06Z M257.05,397.32L251.79,399.48L250.20,404.59L253.02,409.14L258.65,410.88L262.69,408.59L264.14,404.18L261.53,399.21L257.05,397.32Z M723.35,350.33L714.83,354.42L714.64,358.96L718.60,362.97L725.35,362.46L728.29,356.90L726.80,352.41L723.35,350.33Z M741.85,341.21L734.54,342.57L732.31,347.12L733.70,351.61L737.72,354.04L743.49,353.06L746.19,348.70L745.35,344.04L741.85,341.21Z M433.46,347.54L440.77,348.50L444.50,344.57L443.89,339.17L438.23,335.99L432.95,337.58L430.84,342.68L433.46,347.54Z M280.64,313.97L275.74,316.69L274.85,320.50L276.68,323.95L285.13,325.32L288.61,318.68L285.04,314.66L280.64,313.97Z M284.85,322.81L293.81,322.22L295.74,318.14L294.44,313.83L290.57,311.51L284.88,312.00L282.13,319.53L284.85,322.81Z M255.41,317.82L258.96,323.05L263.62,323.17L268.19,319.15L268.10,313.69L263.30,310.18L257.59,311.20L255.41,317.82Z M262.52,311.99L259.39,317.84L262.05,321.45L268.33,322.13L272.68,318.60L272.64,313.60L268.93,310.68L262.52,311.99Z M261.91,320.54L268.73,321.09L272.41,317.28L272.30,312.68L269.32,309.25L263.91,308.86L259.80,311.65L258.96,316.54L261.91,320.54Z M266.88,309.48L258.61,310.72L256.41,315.00L258.09,319.50L262.55,321.29L268.60,319.20L270.26,313.64L266.88,309.48Z M268.85,319.36L271.45,313.87L268.40,309.19L262.41,308.27L258.28,311.15L257.83,316.16L261.39,319.72L268.85,319.36Z M282.79,302.26L279.47,304.53L280.20,311.16L290.72,311.70L291.50,304.46L282.79,302.26Z M291.93,301.41L283.61,303.20L283.76,309.97L293.41,311.48L296.26,308.13L295.62,303.79L291.93,301.41Z M283.01,297.37L274.99,301.11L277.10,308.51L286.92,307.37L288.47,303.33L286.90,299.29L283.01,297.37Z M620.17,681.15L622.44,688.18L627.55,689.81L632.16,687.07L632.94,680.86L629.31,676.45L623.60,676.58L620.17,681.15Z M225.26,668.59L224.62,673.83L227.75,677.63L232.54,678.62L236.69,676.03L238.34,671.78L236.75,667.50L231.79,665.23L225.26,668.59Z M228.20,651.04L226.12,655.60L227.19,660.27L231.49,663.33L236.54,661.82L238.46,656.92L236.38,650.99L232.28,649.41L228.20,651.04Z M664.54,571.01L665.05,565.52L661.66,561.58L656.48,561.15L652.50,564.49L651.95,570.29L655.44,574.16L660.63,574.46L664.54,571.01Z M657.00,572.76L660.38,568.47L659.71,563.28L655.53,560.04L648.81,561.76L646.63,566.34L648.04,571.01L652.19,573.58L657.00,572.76Z M702.52,529.63L707.55,529.13L710.71,525.59L711.03,520.64L708.30,517.05L703.46,516.02L699.31,518.01L697.37,522.52L698.63,527.03L702.52,529.63Z M884.40,463.15L876.95,466.66L876.66,471.99L881.49,476.01L886.91,475.39L889.75,472.16L889.93,467.89L884.40,463.15Z M325.36,422.97L320.01,422.66L315.84,426.45L316.01,431.54L319.85,434.87L325.37,435.11L328.56,432.34L329.25,427.84L325.36,422.97Z M869.59,397.09L862.39,400.33L861.92,404.83L865.36,409.13L870.12,410.19L874.27,407.61L875.69,403.02L873.81,398.95L869.59,397.09Z M762.23,414.25L757.02,418.46L757.54,424.11L764.15,427.85L769.10,425.35L770.57,420.24L767.88,415.18L762.23,414.25Z M799.42,413.84L795.87,417.59L795.88,421.88L803.33,426.29L807.75,423.59L809.49,419.17L807.63,414.80L799.42,413.84Z M391.69,412.63L393.75,417.67L397.83,418.08L401.02,415.86L402.59,408.02L399.65,405.06L395.16,404.72L391.69,412.63Z M460.59,356.32L465.67,356.66L469.44,353.60L467.91,346.32L461.91,345.05L457.88,346.72L456.11,350.71L460.59,356.32Z M419.36,342.56L416.47,346.90L417.63,351.30L422.04,354.46L425.95,354.11L430.41,347.03L428.56,342.97L419.36,342.56Z M114.74,570.19L100.33,569.40L100.00,569.21L101.71,564.23L106.14,561.12L104.30,564.23L106.91,564.85L108.24,561.05L113.87,563.32L114.74,570.19Z" fill="currentColor" fill-rule="evenodd"/></svg>
