<svg xmlns="http://www.w3.org/2000/svg" viewBox="0 0 1000 1000" role="img" aria-label="Map of Rwanda"><path d="M161.72,805.42L112.82,778.59L100.00,686.07L153.16,630.66L185.39,625.20L208.82,599.10L217.30,563.95L207.11,459.29L290.82,330.36L328.12,326.28L368.04,285.30L445.38,263.94L461.20,271.07L477.45,253.82L496.40,272.66L502.92,305.53L534.34,309.93L607.98,262.71L615.23,236.05L675.10,180.63L683.00,152.70L735.97,152.94L734.18,187.85L751.50,193.80L768.90,252.19L840.75,287.01L841.28,319.68L862.06,359.72L880.48,369.34L880.32,456.72L864.18,493.21L876.00,495.09L871.98,528.48L886.47,530.44L900.00,553.64L878.93,657.33L849.14,671.44L821.11,659.16L801.44,677.71L755.66,678.65L699.22,640.65L667.43,660.63L631.76,654.92L596.00,691.33L523.01,646.11L509.69,785.85L487.81,817.94L449.30,820.91L439.52,838.86L399.82,831.84L354.43,847.30L323.38,838.04L289.59,847.13L276.55,781.53L200.39,755.68L168.50,765.95L161.72,805.42Z" fill="currentColor" fill-rule="evenodd"/></svg>
