<svg xmlns="http://www.w3.org/2000/svg" viewBox="0 0 1000 1000" role="img" aria-label="Map of Saudi Arabia"><path d="M714.78,479.58L723.07,486.61L734.08,484.24L735.36,488.71L738.89,483.96L742.80,485.95L736.64,491.60L734.46,497.43L739.55,496.78L745.50,499.58L746.42,506.99L783.06,554.46L879.79,567.69L882.88,564.25L900.00,594.43L874.97,677.05L761.04,718.70L649.28,736.02L616.09,753.96L594.33,782.52L588.20,797.99L578.09,804.01L570.84,803.62L560.95,790.35L546.24,792.49L512.35,788.82L502.29,783.97L463.69,784.96L454.80,789.25L435.73,780.16L426.32,788.24L429.63,790.49L425.98,793.08L424.55,798.23L424.33,805.57L428.08,810.28L426.89,815.79L423.28,815.46L421.43,821.13L412.05,828.02L409.13,813.04L403.94,808.80L402.74,801.64L395.62,794.22L395.86,800.78L393.52,782.92L377.11,767.64L374.01,767.10L362.83,750.84L360.64,740.59L352.08,731.10L353.55,725.42L349.28,721.16L350.80,715.71L346.70,713.29L342.42,704.21L341.99,697.45L335.00,693.16L336.42,689.68L334.41,686.15L331.05,686.88L326.42,678.45L309.30,665.23L302.44,664.02L303.86,666.07L297.00,662.25L289.69,653.22L287.36,645.77L284.21,644.72L285.18,642.40L279.42,638.38L274.76,630.67L271.20,622.09L274.63,618.38L271.64,611.19L272.28,604.06L270.67,605.00L265.53,593.30L268.35,593.47L269.67,583.74L273.56,576.76L270.81,578.32L268.63,561.62L266.07,558.94L267.03,562.45L264.44,558.44L262.49,554.27L266.80,557.30L264.11,553.36L260.53,551.96L260.48,545.67L247.35,519.25L227.70,504.46L229.52,503.35L228.18,501.63L225.06,504.01L217.86,498.12L212.03,499.10L208.49,494.95L209.53,491.87L197.83,474.81L201.93,473.96L201.38,461.30L189.76,441.69L185.25,437.03L184.29,438.59L180.88,436.11L180.64,426.02L173.68,422.33L155.42,389.18L137.48,366.32L128.48,348.80L122.44,343.25L124.44,341.38L118.20,338.66L110.39,340.68L110.03,338.80L108.81,340.68L109.36,338.95L105.18,337.81L101.53,342.39L100.00,338.95L103.23,336.54L108.77,321.69L107.81,315.97L114.30,287.34L156.84,293.66L172.32,281.39L181.88,266.44L210.04,260.57L216.77,246.56L229.45,239.56L190.64,198.24L266.75,177.27L274.13,171.98L320.18,179.60L384.94,215.36L484.30,293.58L588.42,302.21L597.34,321.42L626.38,321.13L628.73,322.81L627.74,327.52L630.28,326.67L629.77,330.36L633.43,334.59L634.71,341.72L640.02,343.35L638.18,345.25L643.46,350.86L641.81,354.95L640.80,350.78L639.52,355.33L643.37,356.66L641.53,359.78L644.14,358.93L644.66,361.49L646.72,359.46L650.16,362.88L657.02,362.59L659.80,366.61L652.47,366.92L657.94,368.06L656.40,371.50L659.80,370.93L660.17,376.73L663.58,376.80L662.15,379.09L667.83,379.77L666.49,378.02L669.65,377.21L669.57,380.96L674.48,387.04L684.87,391.86L691.91,399.26L685.46,396.77L687.06,406.35L693.17,410.14L694.12,413.46L691.27,425.45L687.13,418.57L684.98,421.13L685.52,426.87L686.81,425.45L689.74,427.39L695.68,442.28L691.39,438.06L691.54,439.45L699.11,448.52L700.38,447.24L703.80,450.39L707.25,466.32L713.48,473.53L714.78,479.58Z M389.15,814.08L388.85,819.17L384.85,816.99L385.33,814.58L380.38,815.56L373.65,809.62L372.85,806.13L378.47,812.33L383.40,813.66L384.43,809.56L389.15,814.08Z M378.35,812.13L383.85,812.11L381.46,802.85L376.48,799.54L374.08,806.09L378.35,812.13Z M664.72,368.98L662.70,373.63L665.21,375.79L676.35,373.30L674.78,369.58L664.72,368.98Z M195.05,444.50L186.82,445.05L185.27,452.48L195.04,457.12L198.26,454.25L198.35,449.94L195.05,444.50Z M193.82,450.79L182.97,444.14L179.84,447.93L188.57,457.41L193.18,453.33L193.82,450.79Z M190.10,439.89L184.45,438.85L180.73,441.76L179.59,447.48L182.56,451.26L187.33,451.82L192.59,448.39L193.11,443.62L190.10,439.89Z M189.72,447.69L183.89,442.61L177.33,443.83L178.07,448.10L185.61,452.71L190.10,452.19L189.72,447.69Z M194.43,446.49L192.54,439.61L189.25,438.16L183.39,442.19L186.58,451.40L190.25,452.05L194.43,446.49Z M183.39,443.88L174.85,435.96L169.51,441.69L173.62,447.24L180.69,448.87L183.39,443.88Z M173.57,441.76L179.16,442.49L181.11,440.14L180.13,431.11L177.49,429.00L171.26,433.70L173.57,441.76Z" fill="currentColor" fill-rule="evenodd"/></svg>
