<svg xmlns="http://www.w3.org/2000/svg" viewBox="0 0 1000 1000" role="img" aria-label="Map of Senegal"><path d="M784.86,462.91L797.73,480.76L788.45,497.19L790.36,514.39L804.15,519.24L803.63,525.22L813.41,531.34L819.48,544.59L815.88,568.87L823.99,579.08L823.99,589.77L817.57,600.28L806.49,606.55L817.20,625.33L833.41,638.65L832.47,651.26L841.50,659.84L852.79,646.35L869.43,652.65L877.07,666.60L874.73,671.94L879.83,686.07L890.58,690.99L894.13,699.80L892.09,706.58L897.97,703.64L899.13,710.04L893.58,711.99L892.89,723.14L896.83,737.06L889.07,744.93L892.26,758.66L888.31,762.32L900.00,770.81L898.62,781.05L882.12,777.33L850.63,783.81L829.05,779.06L819.48,783.40L805.66,780.59L794.22,788.45L772.28,794.24L758.53,783.66L742.05,786.73L734.99,778.12L718.72,776.87L700.55,763.28L695.82,763.34L691.73,772.59L682.51,771.88L678.52,766.06L680.99,751.75L677.35,749.61L594.65,744.89L404.10,744.08L341.50,776.30L270.65,774.19L245.98,786.71L204.91,790.63L195.78,777.43L195.52,768.90L224.23,750.34L230.26,759.39L233.97,755.00L251.35,761.42L259.33,755.00L271.97,753.89L274.49,757.75L295.67,750.32L320.33,760.50L334.67,755.88L345.69,763.16L363.22,749.93L359.96,730.18L371.49,724.60L376.60,727.94L378.58,722.78L376.57,724.91L370.60,723.68L358.07,728.66L358.98,748.11L346.18,760.18L342.14,758.67L342.88,754.65L329.72,751.33L321.17,755.91L310.80,754.58L296.67,737.43L289.56,749.51L257.47,753.46L251.35,759.50L235.94,750.47L238.85,744.84L234.42,740.26L233.53,751.33L225.47,742.18L217.09,745.43L222.80,733.00L222.00,728.26L214.97,740.61L215.47,750.42L201.51,758.47L198.59,744.27L208.74,736.44L204.20,734.43L196.11,739.27L199.50,728.79L195.23,726.02L201.43,714.02L201.84,689.25L207.52,680.04L321.20,680.02L323.09,656.32L361.96,649.19L380.18,652.43L393.46,650.04L399.86,644.02L402.95,629.03L411.57,621.91L435.98,638.93L456.69,645.07L464.32,652.90L482.43,653.68L511.44,669.44L533.15,670.27L544.18,663.21L572.27,658.86L578.71,656.02L582.91,643.46L572.17,628.39L560.85,623.36L511.87,640.04L498.26,630.98L488.87,615.08L477.95,612.04L463.10,618.49L455.05,613.54L445.13,596.33L419.54,591.18L394.73,601.53L389.90,596.16L378.26,597.55L368.72,606.03L362.13,622.83L226.61,622.32L224.75,615.15L233.53,608.76L230.78,607.01L233.43,601.75L221.75,613.29L216.98,610.09L217.73,599.03L227.24,587.60L231.75,586.77L236.27,593.10L232.55,583.02L236.27,566.54L228.17,584.43L216.67,587.60L208.60,597.88L203.10,588.43L202.53,573.41L208.28,568.23L216.67,572.03L224.66,568.37L229.09,561.88L222.80,561.04L242.19,545.88L252.16,544.37L238.65,540.88L239.74,546.21L232.88,546.62L227.24,557.29L214.56,566.52L205.87,564.70L214.81,553.54L204.98,558.21L198.86,588.52L197.44,558.88L176.72,526.44L175.28,514.54L160.48,504.44L140.52,474.25L115.41,467.90L112.50,479.17L100.00,465.26L121.45,459.51L147.17,446.02L185.45,401.43L230.13,327.46L239.01,275.17L249.48,267.01L256.03,237.37L261.21,230.01L282.36,224.09L292.56,232.05L312.93,228.97L342.13,233.94L350.25,228.58L361.27,228.46L369.17,220.51L375.60,224.99L413.20,220.34L417.34,218.00L415.47,209.25L424.65,213.65L432.79,205.76L440.82,212.57L495.30,213.66L506.53,209.86L562.23,253.18L564.02,267.66L574.45,272.53L580.69,282.35L594.51,273.10L595.79,280.33L602.36,284.34L626.27,277.73L624.09,285.76L632.10,284.86L648.22,307.86L652.09,329.44L659.61,337.27L658.36,349.06L675.01,352.68L678.37,366.59L693.90,364.39L699.79,383.68L711.60,394.62L703.77,399.05L716.90,403.97L717.87,413.07L726.02,418.83L738.24,418.99L756.18,430.39L761.02,445.13L784.86,462.91Z" fill="currentColor" fill-rule="evenodd"/></svg>
