<svg xmlns="http://www.w3.org/2000/svg" viewBox="0 0 1000 1000" role="img" aria-label="Map of Serbia"><path d="M402.15,113.21L418.33,139.90L450.10,157.98L466.99,187.35L481.21,185.43L476.65,215.28L483.32,230.54L478.50,240.93L509.72,270.70L525.74,279.78L532.71,276.61L547.25,291.71L571.47,297.74L584.25,308.83L573.85,331.92L563.58,338.66L587.60,351.73L590.51,360.79L564.18,367.44L562.33,372.44L570.07,380.92L596.59,383.47L607.98,401.75L636.98,399.56L657.21,407.66L676.48,439.33L684.99,436.80L702.44,403.84L720.08,392.41L769.46,423.05L759.99,431.38L742.56,426.57L737.90,437.50L728.54,439.92L734.15,465.25L757.28,479.42L758.75,495.04L746.31,505.98L744.38,528.46L716.23,542.80L708.93,580.46L716.99,604.99L725.93,612.72L733.59,648.25L764.78,667.09L786.74,697.74L801.41,709.11L786.80,737.14L771.10,748.70L763.91,767.56L740.11,768.09L720.27,782.45L728.36,798.67L722.41,809.25L719.97,831.36L736.17,850.55L732.13,865.47L719.78,881.52L702.83,882.86L697.19,872.50L671.95,885.60L647.70,879.65L610.98,900.00L596.15,898.56L587.56,878.27L602.32,869.18L602.55,856.47L616.92,835.77L623.72,811.70L604.07,811.18L594.72,801.43L567.55,796.56L571.89,775.67L550.35,767.63L542.96,745.42L533.95,746.08L525.89,726.17L488.90,709.96L492.71,700.44L486.12,692.30L454.75,704.37L457.96,719.45L464.23,722.28L460.54,733.97L433.69,754.74L432.46,760.42L439.43,769.39L436.15,773.93L417.08,779.64L415.87,763.48L383.82,749.33L356.47,721.45L338.41,726.31L325.07,710.94L308.26,708.79L275.38,666.53L246.78,646.90L257.96,625.01L271.63,620.91L280.98,634.74L284.05,628.56L292.46,629.92L290.70,619.25L295.05,613.12L288.40,589.77L254.56,550.04L256.62,541.04L298.13,546.07L311.29,534.19L288.98,510.40L273.93,502.60L268.39,487.82L244.03,481.81L238.16,471.63L240.08,436.15L247.32,432.10L267.48,396.11L276.01,366.13L272.59,358.82L248.38,353.02L223.47,365.60L219.92,355.58L230.87,357.46L240.34,347.82L233.87,342.96L233.14,321.05L227.70,310.42L241.21,308.64L238.91,298.53L254.06,305.41L278.06,303.91L280.55,297.04L244.24,282.20L233.24,269.39L217.89,262.90L225.72,253.76L220.75,245.77L222.56,237.00L236.64,234.37L223.80,223.04L212.68,228.83L207.12,221.89L216.57,202.46L198.59,172.60L200.09,164.14L207.62,161.99L202.65,156.45L206.79,149.14L219.34,150.64L218.52,145.16L228.24,142.59L230.69,132.72L259.53,138.94L265.86,129.75L287.24,119.41L301.25,101.82L318.63,100.00L336.27,108.94L356.47,101.94L381.12,103.68L402.15,113.21Z" fill="currentColor" fill-rule="evenodd"/></svg>
