<svg xmlns="http://www.w3.org/2000/svg" viewBox="0 0 1000 1000" role="img" aria-label="Map of Seychelles"><path d="M660.53,396.66L664.75,400.03L669.24,399.63L672.41,396.43L672.53,391.06L669.25,387.00L663.74,386.73L659.67,390.90L660.53,396.66Z M845.28,258.07L843.44,263.46L845.82,267.55L851.81,269.55L855.94,266.70L856.59,261.73L853.40,256.57L849.05,255.76L845.28,258.07Z M899.90,535.70L903.50,528.28L900.33,523.41L895.03,526.97L893.19,532.89L895.37,537.10L899.90,535.70Z M836.84,337.38L826.97,329.62L833.93,323.46L834.07,328.54L839.77,332.89L840.51,342.77L834.61,339.25L836.84,337.38Z M823.27,318.46L820.69,311.29L814.67,309.41L811.88,311.21L811.13,317.78L814.16,321.95L821.19,322.45L823.27,318.46Z M859.94,309.04L862.91,305.21L861.07,302.43L852.36,299.70L849.22,301.01L849.97,304.32L856.47,309.28L859.94,309.04Z M612.04,518.13L615.39,524.17L620.88,525.00L625.05,521.33L624.49,514.92L619.92,511.40L614.34,512.84L612.04,518.13Z M821.14,427.84L823.84,433.34L829.54,434.56L834.11,430.95L834.39,424.88L829.90,421.02L823.77,422.19L821.14,427.84Z M824.20,337.66L829.50,338.10L833.04,335.23L833.52,329.29L828.97,325.43L823.29,325.91L820.31,329.65L820.68,334.43L824.20,337.66Z M825.10,337.42L829.74,339.50L833.86,338.26L836.47,334.35L835.75,328.99L830.53,325.82L825.12,327.26L822.74,332.33L825.10,337.42Z M834.51,335.22L840.07,335.75L843.52,332.93L844.18,327.74L841.03,323.26L835.56,322.82L830.95,326.66L830.91,331.70L834.51,335.22Z M834.59,334.45L839.40,335.52L843.30,333.47L845.14,329.07L842.86,323.38L836.91,321.89L832.14,325.08L831.38,330.29L834.59,334.45Z M841.21,332.56L844.89,327.40L843.80,322.90L839.93,320.36L834.88,320.77L831.45,325.19L831.67,330.58L835.97,333.83L841.21,332.56Z M860.80,305.30L862.65,300.21L860.86,296.52L854.89,294.77L850.47,296.43L848.68,300.80L852.09,306.32L856.68,307.76L860.80,305.30Z M843.45,305.49L846.01,310.59L851.20,312.00L856.14,309.20L857.32,304.04L854.43,299.60L849.15,298.24L844.87,300.75L843.45,305.49Z M845.66,312.32L851.67,313.12L855.66,309.42L855.59,303.98L852.53,300.50L847.95,299.81L843.36,302.68L842.38,308.01L845.66,312.32Z M850.44,301.90L855.73,300.16L857.73,296.29L856.77,292.04L852.92,289.28L844.98,291.82L843.83,296.32L846.04,300.41L850.44,301.90Z M858.74,304.57L861.69,313.42L865.28,314.27L869.76,311.10L871.03,307.64L867.67,302.00L860.70,301.37L858.74,304.57Z M864.87,311.26L870.28,311.60L873.73,308.68L874.36,303.60L871.10,299.08L865.54,298.70L861.09,302.59L861.13,307.73L864.87,311.26Z M867.53,308.68L872.60,305.75L873.34,300.22L870.21,295.65L865.76,294.80L861.84,297.08L860.40,302.41L862.60,307.10L867.53,308.68Z M867.83,312.13L873.96,312.28L877.44,307.60L876.82,302.19L873.37,299.34L868.89,299.40L865.05,303.21L864.54,308.26L867.83,312.13Z M870.16,331.46L876.26,331.31L879.28,327.61L878.38,321.97L874.58,318.82L869.68,319.36L865.79,323.66L866.36,328.47L870.16,331.46Z M121.64,730.43L116.75,734.60L116.25,740.26L122.84,743.79L128.73,739.66L129.20,733.20L125.98,730.28L121.64,730.43Z M209.81,731.13L205.33,727.20L199.90,728.11L196.65,732.58L197.56,737.53L201.66,740.43L207.18,739.86L210.22,736.02L209.81,731.13Z M119.08,705.13L125.22,708.61L119.62,712.22L102.14,714.29L100.00,708.95L108.98,712.01L120.75,708.95L119.08,705.13Z M105.99,707.53L114.15,707.89L118.54,704.40L108.69,702.92L105.25,705.19L105.99,707.53Z" fill="currentColor" fill-rule="evenodd"/></svg>
