<svg xmlns="http://www.w3.org/2000/svg" viewBox="0 0 1000 1000" role="img" aria-label="Map of Sierra Leone"><path d="M888.56,492.66L875.93,547.92L878.59,571.12L862.22,581.79L824.97,586.43L803.63,610.49L802.85,678.89L773.14,695.43L736.07,740.87L671.27,783.25L647.70,812.90L622.13,823.45L607.71,842.90L612.37,857.15L603.47,859.89L591.37,895.02L581.21,900.00L552.43,884.51L557.71,880.95L543.64,882.73L487.66,840.25L315.97,777.57L333.21,770.64L351.27,777.57L320.43,763.20L336.11,740.16L370.41,740.29L399.05,722.17L380.41,721.53L342.49,736.54L327.00,732.77L321.39,709.73L312.60,715.05L306.35,708.94L330.02,677.58L324.83,674.04L291.44,701.08L246.08,682.33L243.65,669.63L250.77,665.14L233.04,671.28L204.95,648.35L199.48,641.89L213.28,635.92L234.96,640.27L211.66,610.80L220.90,591.97L193.82,570.31L196.14,552.72L146.75,574.20L146.75,547.38L115.13,508.30L115.13,488.60L139.27,491.84L151.78,506.56L180.31,520.75L156.62,501.92L159.06,495.69L182.07,483.27L185.59,472.59L222.49,470.66L206.68,467.10L220.90,440.46L205.31,460.81L173.03,467.00L166.10,461.93L182.07,449.34L175.03,445.78L167.86,458.22L148.35,444.16L161.28,467.58L147.14,484.06L126.86,443.84L127.11,403.86L137.23,395.02L192.63,395.71L155.39,393.90L148.35,388.60L152.23,380.20L169.62,374.38L142.36,378.56L129.02,367.28L120.23,371.00L111.44,347.73L135.53,338.57L159.11,347.09L199.47,312.25L199.79,287.63L231.21,285.15L249.66,268.05L265.77,249.17L274.25,217.38L290.16,202.20L296.49,180.69L311.88,167.38L313.97,136.98L324.78,129.18L375.13,116.69L409.99,130.84L466.51,118.53L469.51,100.23L640.13,100.00L655.26,105.41L662.53,131.40L692.23,153.68L733.05,210.60L752.33,252.28L747.10,256.48L764.17,258.28L787.42,278.77L784.82,300.10L770.06,316.03L769.09,336.72L808.28,344.45L806.84,406.58L837.17,443.77L798.55,480.32L771.93,544.01L777.11,548.62L791.37,532.05L818.51,537.62L860.87,491.49L888.56,492.66Z M319.47,731.20L312.60,773.86L304.87,777.63L290.49,754.46L201.40,729.27L218.99,718.61L286.41,712.54L319.47,731.20Z" fill="currentColor" fill-rule="evenodd"/></svg>
