<svg xmlns="http://www.w3.org/2000/svg" viewBox="0 0 1000 1000" role="img" aria-label="Map of Slovakia"><path d="M900.00,417.32L897.31,434.18L887.27,438.76L876.02,463.22L867.78,500.40L843.68,524.25L842.86,559.31L837.75,564.71L785.95,572.91L766.84,540.55L743.37,526.02L728.93,528.94L720.50,538.38L699.09,541.38L655.68,524.33L614.97,531.87L588.81,585.88L562.15,592.96L558.04,602.29L533.23,617.76L511.80,613.63L509.06,602.82L490.33,597.14L474.99,602.05L470.46,621.75L462.94,627.17L380.10,636.93L366.71,651.60L367.49,672.95L377.00,681.07L359.64,692.68L226.07,695.36L202.28,681.71L169.31,645.71L131.63,637.85L133.12,624.67L119.31,611.12L115.43,587.33L100.00,567.65L102.87,547.98L114.39,530.61L114.47,512.86L125.41,486.65L145.37,462.52L197.01,472.47L224.00,461.85L233.59,449.57L245.28,446.82L250.25,430.44L272.92,422.64L284.87,377.64L316.42,359.86L316.77,349.75L334.61,338.93L337.56,330.19L393.26,325.38L397.33,327.83L397.49,349.87L422.69,348.81L435.67,324.76L450.48,320.18L465.07,304.64L473.75,312.81L481.00,336.11L491.96,338.78L490.87,347.17L510.84,349.04L512.31,370.26L516.38,375.04L507.83,388.87L513.18,392.64L534.54,384.78L550.35,395.82L562.34,366.96L583.20,360.63L587.88,349.36L604.72,347.04L619.67,353.78L640.11,347.47L652.58,362.21L672.34,370.91L693.92,356.68L688.40,347.64L691.25,344.50L710.99,347.44L720.33,337.05L743.83,345.49L770.80,342.61L790.14,358.44L798.85,352.41L819.21,367.03L829.92,390.66L900.00,417.32Z" fill="currentColor" fill-rule="evenodd"/></svg>
