<svg xmlns="http://www.w3.org/2000/svg" viewBox="0 0 1000 1000" role="img" aria-label="Map of Slovenia"><path d="M170.52,750.64L151.64,721.38L198.46,716.38L188.00,701.60L222.54,704.73L234.46,687.44L205.01,646.54L154.86,622.41L161.11,557.84L136.62,564.43L124.52,550.15L135.51,528.29L163.78,506.66L169.11,486.37L126.17,470.59L111.39,476.26L100.00,446.08L159.66,390.24L179.30,386.78L185.25,361.98L273.91,374.94L299.26,391.19L364.44,391.45L388.74,399.14L398.43,413.70L411.08,393.25L461.47,366.78L477.17,332.15L498.30,324.82L506.83,332.47L530.90,314.40L613.74,315.86L632.66,327.19L653.82,306.22L674.40,302.92L676.68,289.47L731.23,286.93L773.38,306.65L761.65,280.14L762.01,251.69L793.01,236.24L851.76,244.80L848.92,280.03L873.38,307.50L864.72,321.90L896.33,352.79L900.00,368.59L860.02,352.00L836.16,363.38L828.47,377.01L839.13,415.71L783.85,414.11L784.27,430.68L774.01,442.96L722.98,458.83L705.58,475.23L677.65,476.37L664.98,510.88L692.43,539.22L682.64,593.24L686.87,610.52L629.78,620.25L624.13,634.86L579.93,653.86L610.09,684.37L583.37,698.50L590.51,727.35L606.94,742.35L597.75,753.05L550.53,761.41L495.52,730.29L485.10,746.84L463.65,748.53L430.97,723.31L408.74,674.26L387.82,700.51L380.29,726.38L355.88,743.89L316.74,736.80L284.80,745.33L254.06,730.55L256.79,744.81L233.01,763.76L200.07,749.27L170.52,750.64Z" fill="currentColor" fill-rule="evenodd"/></svg>
