<svg xmlns="http://www.w3.org/2000/svg" viewBox="0 0 1000 1000" role="img" aria-label="Map of Solomon Islands"><path d="M370.03,622.66L404.81,642.99L398.86,646.04L387.00,636.42L386.10,633.13L379.95,634.38L374.79,630.65L371.26,631.16L367.99,625.23L370.03,622.66Z M354.20,616.00L362.62,618.78L365.41,616.08L365.23,612.20L361.24,608.10L354.23,607.69L352.04,610.18L354.20,616.00Z M481.00,550.33L477.50,543.20L473.31,541.48L468.74,545.51L468.25,548.62L472.97,554.23L476.47,555.45L481.00,550.33Z M506.30,583.28L513.50,584.77L496.63,583.85L490.65,580.55L477.49,578.44L464.32,567.60L461.42,568.05L462.65,564.27L459.36,562.18L460.60,555.91L447.02,553.41L447.93,546.30L460.07,548.96L480.10,560.91L487.78,560.52L490.53,562.82L496.80,561.49L507.26,575.83L506.30,583.28Z M806.51,522.54L799.57,519.09L795.03,522.51L794.46,527.46L797.18,530.92L803.20,532.73L806.86,530.53L806.51,522.54Z M799.48,528.12L803.01,524.75L803.48,520.16L800.94,516.30L796.18,514.78L791.85,516.68L789.78,520.93L790.92,525.79L794.77,528.52L799.48,528.12Z M490.62,524.40L490.42,513.71L487.51,512.96L483.81,517.34L487.70,526.37L490.62,524.40Z M453.62,497.93L451.19,493.41L462.65,509.61L463.46,520.84L459.23,514.94L456.87,517.55L453.97,513.59L453.62,497.93Z M419.47,523.78L417.80,526.63L408.57,529.86L395.84,526.93L389.08,522.43L359.96,521.14L353.22,515.84L345.92,504.57L346.38,491.66L354.44,488.60L366.21,499.15L391.84,497.93L400.09,505.45L407.58,508.25L410.26,515.30L417.01,517.09L419.47,523.78Z M361.22,487.91L365.22,480.31L362.59,475.09L356.41,475.55L353.24,480.00L355.29,485.72L361.22,487.91Z M388.51,475.35L382.15,482.02L383.16,485.66L388.16,483.87L392.11,485.33L395.93,480.66L388.51,475.35Z M318.11,475.38L317.25,483.04L319.44,484.62L325.66,481.88L326.54,471.87L321.72,471.51L318.11,475.38Z M377.08,478.63L381.02,478.11L385.80,481.12L388.19,476.34L385.39,473.03L378.76,471.85L374.26,475.20L377.08,478.63Z M315.93,470.22L309.82,476.74L316.42,482.19L320.61,480.28L323.64,473.33L315.93,470.22Z M377.50,477.61L380.83,470.87L376.87,464.93L373.08,465.33L369.82,470.12L370.11,474.49L371.47,477.42L377.50,477.61Z M222.33,453.03L215.80,456.22L227.81,461.07L229.30,457.64L222.33,453.03Z M260.21,452.34L256.93,459.49L260.51,465.01L266.92,460.05L264.28,452.53L260.21,452.34Z M250.50,445.12L257.65,445.12L253.60,449.10L256.84,449.52L256.05,453.98L252.01,457.98L247.11,457.93L242.44,453.46L243.67,446.15L247.00,447.02L247.00,444.07L250.27,442.41L250.50,445.12Z M214.48,442.22L209.41,451.42L214.48,456.17L208.38,454.29L201.70,446.35L210.50,437.02L214.48,442.22Z M352.82,444.34L349.40,433.54L341.72,433.98L341.58,442.48L349.72,447.00L352.82,444.34Z M539.18,440.11L541.76,435.66L540.61,431.25L535.42,428.48L530.10,429.79L527.80,434.76L530.26,439.66L535.21,441.67L539.18,440.11Z M453.49,509.88L447.88,508.16L440.67,496.04L432.31,491.87L421.97,482.06L411.47,457.64L409.15,448.68L413.08,445.60L405.49,435.34L405.96,431.72L412.05,434.09L413.70,433.15L412.23,430.55L415.42,431.18L429.71,448.66L430.07,452.23L426.44,454.05L426.70,461.45L440.05,471.24L438.48,472.10L443.64,479.11L442.07,481.22L447.02,484.13L444.58,485.29L446.65,490.41L444.04,489.92L452.80,503.79L453.49,509.88Z M196.04,421.71L191.34,421.06L188.39,423.41L196.84,434.16L200.14,434.66L201.22,431.50L196.04,421.71Z M205.09,428.90L201.76,420.29L193.97,418.94L192.98,423.28L198.48,430.90L202.81,432.44L205.09,428.90Z M174.41,421.93L181.88,423.80L184.93,421.02L184.08,414.25L181.18,411.23L176.99,411.24L171.85,415.05L174.41,421.93Z M237.52,446.15L238.75,449.52L235.02,444.07L224.32,438.46L223.54,431.60L224.65,435.43L226.57,437.01L227.61,435.55L222.64,427.82L210.34,428.65L207.47,432.43L203.33,431.18L203.13,425.15L208.66,423.21L209.24,419.17L216.12,410.66L219.82,409.44L226.01,412.36L228.05,426.57L234.43,425.82L239.99,432.43L244.10,441.79L242.85,447.40L237.52,446.15Z M166.27,416.32L164.84,424.04L161.90,417.47L162.58,408.20L166.27,416.32Z M199.67,420.15L192.88,419.76L189.76,417.19L186.44,410.66L189.74,404.30L195.10,402.79L199.86,406.41L201.70,411.94L199.67,420.15Z M178.04,394.86L171.85,404.90L172.85,407.74L169.18,408.20L166.48,400.03L160.53,394.86L159.84,389.37L166.27,385.68L172.87,393.65L178.04,394.86Z M103.76,366.98L96.32,373.60L97.19,376.28L107.88,377.03L110.31,373.11L109.04,370.38L103.76,366.98Z M112.61,348.43L109.34,357.44L113.87,359.68L121.68,357.41L122.23,352.99L112.61,348.43Z M135.96,342.25L136.92,339.17L134.73,338.05L130.99,340.84L131.86,351.57L135.40,351.76L140.02,348.04L135.96,342.25Z M786.59,631.19L782.38,629.98L775.88,632.01L780.90,638.51L789.38,638.29L789.33,635.04L786.34,635.12L786.59,631.19Z M755.41,607.76L760.01,617.45L767.48,613.54L764.38,603.89L755.41,607.76Z M739.14,575.95L733.53,580.38L726.30,580.93L721.96,586.58L720.67,583.29L715.62,583.14L715.42,579.47L718.35,576.84L719.56,580.10L722.93,573.69L731.85,573.09L739.14,575.95Z M272.24,384.50L267.98,386.03L270.82,390.31L281.85,391.45L272.24,384.50Z M358.89,437.48L363.06,446.15L347.44,433.67L330.51,427.82L314.93,417.35L306.65,414.89L300.50,410.28L299.67,406.90L284.83,396.94L284.83,391.72L277.05,386.09L276.85,383.40L294.85,387.14L314.91,406.03L322.27,406.53L327.86,411.11L333.95,410.82L360.35,431.73L355.23,435.75L358.89,437.48Z M276.78,385.90L276.48,381.34L266.50,377.63L263.92,379.19L264.83,382.47L274.17,386.92L276.78,385.90Z M226.72,372.95L218.75,372.52L215.87,377.44L227.83,381.02L229.47,378.12L226.72,372.95Z M268.70,372.23L262.05,371.65L258.69,374.30L257.04,377.90L259.02,381.34L265.72,384.02L268.45,381.90L270.85,374.82L268.70,372.23Z M237.65,372.71L232.02,371.08L227.21,379.59L239.13,382.85L240.79,378.77L237.65,372.71Z M220.34,369.28L221.24,373.59L216.53,377.32L209.17,374.86L208.66,371.50L206.24,373.58L196.73,371.86L193.04,367.34L190.51,368.21L170.82,344.74L157.25,334.76L156.85,328.52L162.47,327.28L176.43,337.35L192.19,344.74L196.86,349.83L200.87,361.89L206.42,363.94L212.84,370.67L220.34,369.28Z M892.85,675.47L896.43,678.94L900.85,678.91L905.41,675.57L906.04,671.43L903.88,667.83L898.23,666.49L894.39,667.90L892.85,675.47Z M719.17,553.65L712.54,551.62L708.56,555.20L707.90,560.80L710.57,564.05L716.65,564.40L720.47,561.95L721.50,557.54L719.17,553.65Z M408.48,399.49L402.43,400.86L400.54,405.07L404.76,411.63L409.47,413.19L413.66,410.52L414.24,405.60L408.48,399.49Z M787.87,626.42L782.30,629.27L781.28,634.63L784.00,639.27L789.37,639.66L794.76,634.67L794.56,629.35L787.87,626.42Z M741.90,543.72L741.56,555.44L744.36,556.71L749.80,553.33L751.12,550.77L747.91,544.44L741.90,543.72Z M155.87,397.17L154.92,402.18L157.03,405.45L163.04,406.61L167.41,404.50L168.68,399.82L165.98,395.80L159.49,394.08L155.87,397.17Z" fill="currentColor" fill-rule="evenodd"/></svg>
