<svg xmlns="http://www.w3.org/2000/svg" viewBox="0 0 1000 1000" role="img" aria-label="Map of Somalia"><path d="M515.64,418.64L603.68,333.39L659.57,248.36L659.57,143.26L687.52,137.66L696.70,130.93L712.67,130.64L736.95,123.37L746.78,117.45L754.01,104.75L758.66,102.03L767.78,100.00L782.40,106.46L796.59,109.12L793.98,119.68L786.59,128.28L784.29,137.86L784.56,146.83L790.59,149.74L786.25,158.21L788.91,181.29L785.81,182.57L784.93,188.09L780.14,190.91L792.38,190.44L789.81,183.38L796.58,188.21L802.56,188.27L802.70,193.14L800.94,194.78L795.44,194.19L793.58,191.40L784.80,192.47L775.33,197.11L773.83,215.59L768.27,238.23L769.67,250.20L759.00,262.38L758.22,270.45L746.93,281.27L739.00,303.69L730.44,314.45L726.63,323.78L711.10,337.05L711.15,347.35L706.44,357.21L677.51,402.72L667.46,425.83L668.10,432.14L665.22,441.67L642.54,480.50L616.67,513.88L601.89,540.29L537.02,611.88L491.22,657.33L430.31,691.74L404.03,709.70L352.15,753.79L289.35,818.23L283.30,828.08L279.59,829.54L265.26,847.76L259.73,849.28L259.76,852.54L253.93,859.28L252.82,853.13L253.92,860.68L248.90,871.55L245.62,869.17L246.05,874.63L228.50,900.00L227.79,892.78L196.17,851.74L196.17,634.71L217.30,613.71L251.11,562.89L259.55,556.81L303.98,549.34L307.94,545.91L311.48,536.77L320.73,529.15L344.56,517.82L368.07,511.76L426.82,513.73L515.64,418.64Z" fill="currentColor" fill-rule="evenodd"/></svg>
