<svg xmlns="http://www.w3.org/2000/svg" viewBox="0 0 1000 1000" role="img" aria-label="Map of South Africa"><path d="M307.87,184.58L318.04,193.62L325.78,207.61L325.29,212.53L330.69,228.99L324.42,240.64L326.69,253.48L332.44,250.52L338.14,252.63L352.52,252.55L355.60,246.60L362.95,244.65L368.01,235.93L375.88,231.43L380.50,224.25L383.83,208.04L388.76,202.19L400.13,201.64L412.48,212.81L419.34,212.71L423.47,216.76L432.12,219.07L453.17,215.45L456.58,212.50L464.04,184.44L478.26,180.72L481.62,175.11L489.79,168.90L493.19,151.28L497.44,145.04L508.62,139.75L510.19,135.11L514.05,135.24L528.60,115.38L544.80,110.54L548.14,103.14L564.66,100.00L582.53,107.03L604.22,106.12L607.84,108.72L614.40,133.19L614.17,142.85L622.73,158.11L626.34,173.97L626.59,213.06L623.83,224.23L610.82,216.25L603.35,221.86L594.99,237.56L594.93,250.81L596.99,249.63L598.94,256.97L603.94,263.29L614.14,266.98L625.86,267.15L626.44,250.79L650.39,252.01L641.31,294.70L637.10,306.41L627.15,314.45L627.02,317.08L620.57,318.87L609.86,332.09L600.21,350.44L601.72,350.23L575.31,393.48L558.04,407.61L535.14,436.11L496.74,467.12L480.16,474.82L461.84,474.15L457.82,477.75L459.51,483.54L439.76,481.93L436.61,489.04L404.81,481.76L398.21,483.42L398.78,485.96L376.90,482.22L365.91,485.09L365.34,488.15L360.01,489.62L355.82,494.69L349.15,493.65L343.01,496.09L332.60,494.02L329.72,495.23L330.68,497.39L321.17,497.56L308.78,508.79L304.61,506.56L299.16,507.34L292.41,501.79L289.71,502.31L291.39,498.53L289.54,495.59L285.00,495.31L285.55,491.89L277.00,494.55L276.53,485.30L268.00,485.85L267.78,493.60L263.70,487.48L263.66,483.35L268.16,477.39L263.46,465.64L254.11,453.49L258.69,456.56L256.30,451.29L252.71,451.39L251.14,444.51L254.45,440.66L258.46,442.90L263.17,437.60L264.58,426.38L262.65,414.54L236.26,364.78L224.11,324.63L214.72,309.14L220.11,303.98L221.89,304.66L225.94,291.83L230.81,290.03L234.44,296.64L237.95,296.50L239.49,311.85L244.25,311.08L245.46,313.78L253.01,314.33L259.73,318.22L275.09,316.22L285.03,320.01L289.49,317.61L288.89,313.09L293.91,311.88L296.93,306.28L307.88,302.77L307.87,184.58Z M546.61,318.45L537.42,307.55L524.70,311.79L520.95,317.46L513.89,318.43L503.35,336.84L494.66,341.22L499.34,352.89L504.18,358.18L503.77,363.60L506.05,363.57L513.79,372.92L522.68,374.80L526.91,364.93L525.91,362.68L530.77,358.23L541.70,356.46L550.94,351.00L550.13,345.54L558.68,332.40L555.39,324.27L546.61,318.45Z M774.93,893.68L771.89,897.57L775.03,902.19L780.46,902.74L785.08,899.47L785.84,897.34L782.76,893.88L774.93,893.68Z M780.69,894.63L788.43,893.46L790.73,888.84L789.61,885.41L784.55,882.92L779.15,884.59L776.74,889.10L780.69,894.63Z" fill="currentColor" fill-rule="evenodd"/></svg>
