<svg xmlns="http://www.w3.org/2000/svg" viewBox="0 0 1000 1000" role="img" aria-label="Map of South Sudan"><path d="M900.00,721.33L890.53,721.29L890.35,717.29L887.70,717.10L885.05,723.40L878.97,721.29L872.97,710.30L876.27,701.83L864.42,700.31L866.97,695.02L865.47,693.20L855.43,698.80L854.23,696.53L814.94,711.36L795.61,721.28L735.23,780.85L713.12,779.94L701.78,771.56L685.45,779.53L659.37,782.13L646.90,789.79L645.55,797.11L639.33,795.67L636.21,792.06L629.42,791.21L627.51,783.96L619.10,776.29L612.93,783.38L601.87,787.26L586.37,779.18L575.96,778.43L562.60,785.67L555.48,798.61L555.36,793.65L549.21,785.97L545.57,788.91L536.09,790.79L534.18,772.79L511.40,766.73L506.88,756.71L493.42,746.91L493.84,742.60L484.18,738.48L484.78,725.67L467.04,718.50L461.79,717.90L457.22,729.93L445.77,740.40L429.83,729.78L416.52,730.28L414.18,725.81L410.10,727.27L406.26,734.15L400.75,738.16L396.65,738.47L390.36,744.71L387.19,744.36L383.52,739.61L375.00,739.96L369.86,733.46L366.33,735.03L363.91,726.08L352.73,725.86L347.53,722.94L346.19,710.50L341.67,709.11L338.62,702.74L330.05,700.59L324.74,694.38L325.08,690.44L313.09,677.47L309.95,666.16L312.86,655.75L309.90,655.21L309.97,651.11L303.55,642.66L297.61,641.54L293.88,636.47L289.50,637.13L287.99,634.39L282.88,634.05L280.00,628.08L264.21,624.73L259.98,619.65L256.16,621.88L261.87,612.77L247.00,600.33L245.68,594.97L252.99,582.12L233.54,570.01L229.13,558.62L183.97,535.43L181.00,529.84L172.47,524.09L170.76,518.70L178.50,513.26L174.26,499.25L163.57,497.06L156.35,490.19L154.00,483.99L146.01,477.61L126.53,475.77L120.99,471.38L114.27,473.13L102.12,468.19L100.00,464.47L101.06,459.91L108.75,450.28L106.08,447.03L107.74,443.27L103.76,441.37L117.53,432.17L129.62,429.26L129.68,421.52L136.50,409.40L137.87,395.95L145.49,385.89L145.75,365.46L157.95,355.30L164.78,333.43L215.73,324.35L220.15,329.02L220.95,340.66L228.09,344.67L234.32,353.90L239.53,355.87L265.12,385.89L269.79,388.61L300.61,379.98L355.85,380.76L366.02,398.83L420.17,399.30L419.15,392.25L424.92,385.30L439.73,375.81L463.52,369.38L472.38,358.92L472.49,349.09L499.44,334.55L531.42,354.98L550.45,371.94L577.51,369.22L582.28,367.28L611.44,338.40L624.96,320.75L630.29,308.20L663.37,279.00L657.81,263.57L657.78,236.50L639.74,216.19L684.79,215.99L683.78,201.39L716.15,201.78L711.80,220.65L710.94,237.66L707.61,243.61L714.31,295.35L711.46,302.48L727.82,308.87L764.14,341.12L767.51,349.83L767.95,363.00L763.32,372.87L761.73,387.34L763.04,390.35L774.56,390.40L777.35,447.07L775.88,451.86L767.78,459.47L757.84,461.24L752.94,464.71L749.12,464.43L744.03,458.42L734.83,457.51L726.47,460.23L717.91,458.77L712.94,465.21L713.11,469.91L716.09,472.59L713.49,475.89L714.52,480.30L709.93,482.82L701.27,495.62L705.92,503.78L717.83,504.79L725.50,509.19L733.31,507.10L739.31,511.08L750.51,513.42L770.21,530.34L772.04,541.27L778.74,547.21L782.07,546.95L783.21,553.99L788.80,559.76L803.91,565.92L805.34,575.31L817.47,579.96L827.04,609.82L834.82,622.61L835.83,636.21L844.26,652.68L855.33,660.24L854.56,665.50L857.06,669.68L860.95,671.16L869.38,665.80L892.09,673.51L890.13,678.40L892.31,685.38L888.82,690.94L888.53,705.25L890.76,711.42L900.00,721.33Z" fill="currentColor" fill-rule="evenodd"/></svg>
