<svg xmlns="http://www.w3.org/2000/svg" viewBox="0 0 1000 1000" role="img" aria-label="Map of Spain"><path d="M559.96,497.24L562.95,491.23L561.64,488.16L551.29,486.76L549.21,489.39L550.94,496.12L556.21,499.27L559.96,497.24Z M635.43,515.33L635.42,521.86L639.18,524.60L645.44,524.22L647.99,520.50L646.25,514.38L642.81,511.43L638.30,511.83L635.43,515.33Z M682.04,164.26L683.71,168.42L695.93,170.51L694.02,179.19L697.26,179.70L697.89,177.08L700.10,176.38L699.83,178.74L704.94,180.91L718.82,183.50L725.59,191.11L734.35,188.06L740.08,190.12L744.44,194.95L751.84,193.14L755.61,195.67L758.41,193.53L769.17,194.82L769.15,188.23L774.72,188.53L784.54,191.17L786.76,194.00L793.55,193.92L797.29,205.91L806.50,202.93L814.34,205.82L817.25,209.75L826.78,206.18L835.22,210.69L840.46,210.10L841.46,207.16L850.11,204.36L858.90,206.05L859.13,209.64L863.76,210.80L861.82,214.44L856.69,215.38L860.72,227.31L850.09,237.53L826.42,249.09L821.56,255.43L781.99,266.46L771.21,276.82L776.88,280.64L776.33,282.47L769.89,287.77L766.88,287.03L771.87,284.77L765.85,286.68L734.33,333.70L740.20,356.20L754.16,367.58L727.70,385.27L727.90,391.01L723.65,392.97L718.78,409.01L717.81,407.84L715.39,411.36L720.75,416.74L712.93,419.53L707.15,418.43L706.51,420.57L698.76,419.26L686.42,427.96L681.38,434.80L678.27,446.44L670.22,455.41L661.87,451.01L654.79,451.80L649.19,457.79L641.55,454.74L627.46,455.04L624.42,457.20L609.37,454.73L589.29,455.96L580.19,465.43L571.54,465.47L561.45,469.65L556.04,481.47L552.95,479.78L552.49,484.90L546.33,487.37L535.47,479.59L531.22,479.35L521.51,464.27L524.30,466.96L526.15,465.17L518.50,459.77L517.12,454.76L520.24,452.84L520.51,448.96L525.60,446.84L520.28,448.19L518.74,452.27L514.77,445.63L500.79,436.57L502.22,430.94L498.31,433.63L499.52,436.32L493.39,434.05L482.25,435.43L478.17,419.49L487.29,401.09L492.60,398.33L496.13,399.09L498.85,391.47L493.30,392.48L484.21,380.54L487.37,367.79L494.99,362.64L497.93,355.69L496.42,352.06L491.39,351.68L487.81,347.05L485.84,336.27L477.17,326.53L496.23,325.91L501.26,312.11L495.45,304.57L504.29,296.91L502.06,293.15L503.51,275.00L499.03,268.03L503.94,265.91L509.54,257.01L514.90,255.81L521.11,250.73L525.21,243.76L519.52,239.67L513.28,239.88L512.00,236.34L513.89,230.75L510.86,226.59L495.16,227.48L491.81,225.49L489.21,230.24L481.24,233.44L480.29,231.40L475.44,232.58L475.39,230.50L471.31,229.36L465.11,231.16L464.77,228.72L459.71,232.98L455.05,233.23L453.25,229.12L458.05,223.15L454.18,221.90L453.53,218.22L439.15,222.71L430.10,229.62L429.60,219.73L439.21,211.72L439.30,209.73L430.59,213.72L431.90,209.99L438.14,205.62L431.44,207.27L427.92,204.40L432.05,204.72L435.45,194.80L433.53,196.90L431.59,195.06L424.95,201.16L423.36,198.84L424.81,193.96L429.88,188.55L422.32,191.78L421.10,184.77L418.92,183.38L416.18,185.83L415.95,178.75L422.05,174.98L418.15,174.36L428.28,170.86L426.31,168.77L431.93,166.22L436.79,168.31L447.63,164.26L448.86,165.90L449.68,163.40L453.96,167.45L455.20,162.93L450.58,161.41L455.44,159.62L449.59,160.52L450.32,156.33L459.59,153.01L459.32,150.10L464.68,147.61L466.89,149.72L464.68,151.82L466.47,151.90L472.61,146.42L472.40,149.32L483.93,151.38L487.34,156.59L495.41,156.67L495.40,160.18L498.97,156.38L530.07,156.22L535.82,155.39L537.78,152.13L543.99,156.59L554.08,156.85L553.36,158.98L557.42,157.62L586.50,164.36L609.79,159.40L611.83,160.18L610.34,162.53L618.58,158.47L623.84,160.72L621.34,162.30L622.78,163.10L638.89,167.11L638.13,164.69L641.07,162.30L647.40,161.35L650.16,165.07L651.22,163.12L670.18,168.58L682.04,164.26Z M821.37,201.40L816.03,197.81L811.88,198.88L809.15,203.76L809.97,208.52L815.86,211.49L820.61,210.32L822.96,206.03L821.37,201.40Z M715.46,407.01L716.56,417.81L720.27,419.34L723.77,417.39L721.78,406.29L715.46,407.01Z M805.33,370.40L796.62,363.56L794.14,364.70L791.51,368.93L792.36,374.25L803.54,374.62L805.33,370.40Z M802.91,352.30L803.52,355.02L795.70,363.64L789.07,361.33L794.05,352.90L802.91,352.30Z M865.07,321.95L869.33,323.47L868.60,327.41L861.45,339.39L854.63,344.52L851.00,340.39L844.88,339.84L841.15,331.84L834.43,335.71L829.39,331.06L845.83,318.09L858.85,313.88L855.91,316.30L859.82,317.20L857.32,321.76L860.43,323.47L865.07,321.95Z M894.08,309.68L900.00,318.33L898.78,317.43L898.68,320.32L887.35,315.31L882.00,315.31L881.68,310.43L891.75,309.04L893.07,311.43L894.08,309.68Z M848.90,343.51L843.94,349.14L845.71,353.69L850.91,356.69L854.48,355.55L857.13,349.33L856.40,345.23L853.00,342.83L848.90,343.51Z M592.19,530.75L597.24,529.41L599.88,525.08L598.86,520.12L593.15,516.97L588.21,518.80L586.00,523.45L587.63,528.35L592.19,530.75Z M612.83,526.00L612.85,518.04L608.30,515.11L603.01,516.33L600.19,521.01L601.98,526.78L607.59,528.99L612.83,526.00Z M606.94,528.89L612.50,526.44L614.04,520.62L610.30,515.66L604.10,515.64L600.34,520.35L601.62,526.18L606.94,528.89Z M663.79,528.85L666.31,524.60L665.33,519.78L661.07,516.64L655.85,517.48L652.72,522.10L653.78,527.52L658.49,530.39L663.79,528.85Z M547.47,495.39L551.24,498.18L555.76,497.99L559.26,494.93L559.58,488.57L554.56,484.64L549.18,485.72L546.31,490.20L547.47,495.39Z M106.99,843.05L98.14,848.84L99.34,851.74L107.26,855.37L112.08,845.65L106.99,843.05Z M198.04,830.06L199.16,844.40L192.05,849.56L186.30,846.50L183.40,841.35L187.49,830.60L196.28,832.05L198.04,830.06Z M127.91,828.22L126.72,833.01L130.40,838.68L135.23,839.17L139.85,835.41L139.89,830.73L135.53,826.82L127.91,828.22Z M161.84,831.38L157.64,836.88L152.42,837.94L144.48,822.39L159.01,819.36L165.79,812.88L172.86,812.88L164.40,821.24L161.84,831.38Z M249.11,805.71L252.95,805.34L254.38,808.08L253.72,820.11L250.50,827.24L241.33,830.45L235.94,835.71L230.11,834.81L240.16,828.36L249.11,805.71Z M114.63,802.09L115.86,805.94L111.74,817.99L106.06,803.77L109.10,800.47L114.63,802.09Z M266.52,783.64L268.84,785.00L266.55,794.17L256.15,801.17L252.86,800.06L255.30,792.04L264.59,788.09L266.52,783.64Z M260.43,779.15L259.11,786.05L261.97,789.22L266.24,789.50L271.22,786.19L271.10,779.94L268.26,776.43L263.76,776.10L260.43,779.15Z" fill="currentColor" fill-rule="evenodd"/></svg>
