<svg xmlns="http://www.w3.org/2000/svg" viewBox="0 0 1000 1000" role="img" aria-label="Map of Sri Lanka"><path d="M720.15,594.85L726.02,683.41L703.89,759.22L678.39,796.03L612.37,842.26L587.89,851.00L584.49,847.14L569.23,859.70L526.61,869.85L488.37,892.99L463.28,900.00L384.69,878.99L362.38,856.47L315.48,718.88L315.18,676.92L305.46,642.30L306.80,637.22L312.45,654.14L315.18,645.02L308.02,636.21L298.32,555.78L303.08,544.18L281.71,454.18L281.71,429.42L298.32,402.57L291.40,416.69L298.32,421.03L287.96,451.59L292.92,463.13L288.85,471.64L304.75,477.10L309.54,473.70L301.35,459.40L308.19,446.34L304.02,425.09L317.66,364.02L331.44,342.61L326.14,281.92L353.04,263.93L364.74,229.78L367.29,207.72L356.73,201.13L354.05,189.04L383.30,172.25L354.05,147.05L390.69,159.79L401.55,176.51L429.93,166.77L468.14,177.84L439.03,161.06L418.16,160.61L381.07,136.36L381.07,149.56L334.76,128.73L324.95,111.80L337.34,102.20L368.13,101.43L369.72,109.95L388.44,114.64L412.04,140.32L433.46,151.25L393.62,114.52L371.45,105.56L393.40,100.00L426.54,142.72L494.46,195.58L505.52,208.86L492.86,205.97L504.46,217.95L508.59,220.22L510.61,213.86L522.44,239.56L512.76,240.26L521.06,248.08L525.35,245.41L537.91,265.65L535.07,269.20L521.06,260.81L533.19,276.51L529.09,280.82L535.73,283.07L542.01,273.42L593.43,340.85L587.87,349.25L592.05,347.87L597.10,362.43L589.48,356.92L589.15,370.38L578.67,364.74L573.58,371.56L580.95,367.58L589.66,377.48L603.46,378.58L604.53,371.78L614.23,368.84L620.65,375.48L625.46,399.77L617.82,391.36L618.80,400.02L627.46,404.78L637.45,448.09L633.77,453.21L628.33,435.01L626.84,446.34L634.83,455.23L640.68,450.54L651.92,474.47L660.24,474.47L665.70,504.00L675.61,508.05L691.20,533.41L673.63,523.50L667.30,530.45L680.21,531.05L690.89,551.72L691.38,547.37L698.49,551.72L702.95,585.66L707.50,583.91L710.42,595.22L714.12,582.13L720.15,594.85Z M706.27,557.68L693.63,527.65L710.12,556.63L710.42,581.11L706.27,557.68Z M285.23,253.81L285.23,248.08L311.13,253.49L326.34,265.02L313.71,260.81L324.95,274.81L285.23,253.81Z M288.62,166.77L275.47,168.60L273.98,155.46L286.27,161.82L288.62,166.77Z M322.14,142.72L310.93,125.93L319.39,113.32L321.91,128.23L338.80,141.32L322.14,142.72Z" fill="currentColor" fill-rule="evenodd"/></svg>
