<svg xmlns="http://www.w3.org/2000/svg" viewBox="0 0 1000 1000" role="img" aria-label="Map of Sudan"><path d="M150.09,724.14L154.50,707.74L152.65,700.56L145.84,700.21L134.88,688.86L138.25,667.12L130.90,669.21L132.13,662.58L126.84,647.83L130.31,640.52L118.84,633.98L114.12,638.57L106.03,639.11L100.00,631.49L107.37,616.44L115.74,611.73L121.82,604.76L118.41,592.61L112.65,582.73L119.30,574.02L135.10,564.97L134.41,560.97L129.51,558.80L129.32,548.62L126.39,545.01L131.25,540.77L141.31,537.82L140.46,529.50L154.71,512.49L155.59,503.99L152.27,495.70L161.22,487.65L171.98,488.78L184.94,485.43L201.75,488.24L203.60,486.81L203.46,275.57L251.05,275.24L251.09,176.73L549.62,176.78L557.95,165.28L561.22,167.94L558.54,176.73L641.69,176.73L659.78,190.88L680.65,188.00L684.71,176.72L818.06,176.71L815.98,178.17L818.26,193.79L829.01,212.18L838.51,223.07L835.60,225.62L832.62,221.12L836.56,223.24L834.54,219.60L831.18,218.61L830.68,215.11L828.60,215.67L827.72,223.92L834.46,247.42L831.94,258.09L834.31,269.44L832.59,274.69L836.24,285.88L835.22,296.29L844.29,331.60L849.31,338.81L855.74,337.57L858.89,339.14L859.71,343.12L867.69,345.27L877.04,353.76L874.86,356.98L878.46,361.86L882.93,362.13L885.82,359.04L884.39,362.23L881.59,363.43L889.16,364.77L889.88,363.11L895.64,370.54L897.09,368.34L900.00,373.50L893.11,379.59L882.35,397.63L876.93,396.64L874.88,399.89L873.09,396.52L866.28,401.74L861.65,400.03L857.92,404.64L847.23,408.18L847.17,414.98L842.82,422.13L829.98,422.80L822.34,420.52L823.59,431.41L817.72,447.65L821.42,459.28L807.93,486.71L805.87,500.43L796.22,515.86L801.04,558.85L796.55,573.36L797.79,580.76L794.61,591.68L787.09,603.42L782.49,619.69L781.85,635.06L761.09,638.14L743.45,669.55L738.60,675.83L731.79,679.67L730.26,684.19L731.81,693.01L725.68,707.62L727.58,710.93L724.21,722.46L726.34,724.91L720.64,733.53L716.63,735.75L716.45,732.79L708.07,725.87L700.70,730.97L694.01,741.61L696.22,758.51L685.37,785.39L684.06,796.52L675.97,796.48L675.05,794.31L679.42,776.74L676.74,760.94L651.22,737.65L639.73,733.04L641.73,727.89L637.03,690.53L643.03,660.32L620.28,660.04L620.99,670.58L589.34,670.73L602.02,685.39L602.04,704.94L605.94,716.08L582.71,737.16L578.96,746.23L569.46,758.97L545.62,781.23L526.61,783.19L513.24,770.94L490.77,756.19L471.84,766.69L471.76,773.79L465.53,781.34L448.82,785.98L438.42,792.84L434.36,797.86L435.08,802.94L397.04,802.60L389.89,789.56L351.08,788.99L329.42,795.23L308.17,771.59L295.11,760.60L294.55,752.20L291.45,748.83L255.65,755.38L250.85,771.18L242.28,778.51L242.10,793.26L236.75,800.53L230.94,824.58L222.45,826.68L209.78,834.72L180.06,832.20L183.74,820.23L179.49,821.01L177.47,818.05L179.30,810.55L186.83,805.27L185.58,792.44L188.82,784.87L187.43,776.33L170.58,747.83L156.98,735.62L150.09,724.14Z M832.17,231.40L831.40,239.13L833.60,242.14L837.31,242.39L841.27,235.60L840.56,231.46L837.15,228.78L832.17,231.40Z" fill="currentColor" fill-rule="evenodd"/></svg>
