<svg xmlns="http://www.w3.org/2000/svg" viewBox="0 0 1000 1000" role="img" aria-label="Map of Suriname"><path d="M886.47,589.45L846.71,652.25L853.22,654.33L855.92,685.07L850.50,700.13L854.54,704.78L815.30,775.49L792.80,788.26L785.50,802.99L752.54,805.93L752.72,782.75L745.11,778.79L718.89,782.46L700.11,764.14L703.84,751.51L672.93,767.63L669.70,760.48L647.90,772.79L634.79,768.88L619.69,785.75L579.82,785.03L557.66,792.12L510.53,766.57L502.45,791.76L495.40,801.67L485.17,801.28L476.96,819.07L491.06,821.88L520.61,858.47L519.89,889.91L513.82,896.22L501.24,900.00L438.53,882.17L422.89,882.92L394.24,864.90L375.52,864.60L351.89,836.34L344.75,814.30L336.86,811.67L323.27,769.42L313.86,769.67L310.06,746.45L303.28,745.12L294.30,726.34L296.80,719.94L287.79,720.46L289.82,709.96L275.33,706.09L272.01,694.20L278.85,687.24L269.15,682.32L274.62,671.26L266.48,655.13L269.40,649.52L259.33,649.38L260.39,613.50L255.05,601.03L243.91,606.64L232.77,602.45L222.99,611.74L189.81,602.75L190.94,577.72L175.26,560.38L155.46,549.80L146.79,521.13L116.80,487.52L110.34,452.27L131.76,427.91L131.98,406.71L154.00,360.54L137.20,332.73L138.51,326.29L152.97,307.12L166.12,307.78L182.74,292.49L220.31,295.35L260.39,288.69L252.56,280.26L258.76,260.94L266.73,260.69L269.40,266.48L278.65,258.62L268.58,242.24L260.39,250.54L258.79,234.61L250.49,230.91L263.30,216.46L266.66,200.84L282.70,187.03L294.43,123.96L301.35,111.77L322.27,100.00L379.01,106.10L517.22,139.62L524.54,147.59L524.54,164.12L527.15,151.63L521.16,136.34L524.10,132.48L514.32,124.90L534.72,106.82L631.84,109.36L651.53,120.74L667.78,119.80L676.33,127.80L671.21,136.54L679.69,124.66L694.09,129.88L722.19,129.88L714.46,124.16L692.85,126.73L665.46,110.24L687.46,103.54L796.93,113.52L880.03,132.40L889.66,150.92L875.38,195.49L854.39,226.99L823.63,256.13L801.35,289.04L800.93,305.81L794.07,312.27L795.61,340.57L803.87,349.33L806.16,369.45L800.93,392.45L811.76,433.50L808.62,445.23L823.11,459.95L819.45,477.18L851.26,520.65L863.08,525.62L877.48,555.15L889.19,559.65L886.47,589.45Z" fill="currentColor" fill-rule="evenodd"/></svg>
