<svg xmlns="http://www.w3.org/2000/svg" viewBox="0 0 1000 1000" role="img" aria-label="Map of Sweden"><path d="M581.44,100.00L589.30,103.25L589.15,108.28L602.80,116.80L611.81,126.21L616.78,127.36L620.95,132.69L641.01,137.48L648.07,143.60L650.76,153.43L654.60,152.05L656.68,157.57L664.29,163.46L659.36,168.47L661.33,184.69L658.00,190.62L659.25,193.06L667.10,194.45L667.66,199.27L662.67,203.79L662.09,210.05L673.61,230.38L670.57,233.55L670.28,244.50L664.03,250.62L664.31,258.93L665.98,265.36L670.48,268.02L674.04,274.57L677.95,287.79L671.50,291.43L666.40,287.41L663.23,289.34L659.05,287.17L657.92,291.14L656.44,287.79L654.14,289.36L651.58,287.54L652.72,290.95L649.05,294.69L636.78,282.78L637.07,291.60L636.10,289.68L632.92,290.59L633.11,287.79L630.03,285.38L627.86,286.96L627.87,292.89L624.68,291.38L629.55,296.57L626.65,294.87L626.75,298.96L624.14,299.40L627.17,300.13L627.39,296.75L630.03,304.20L612.55,293.34L624.51,303.79L620.78,305.81L614.99,304.58L619.84,308.58L617.01,312.25L605.05,312.88L603.96,314.99L610.85,319.16L608.70,321.80L601.14,314.08L599.29,315.41L608.34,326.00L606.56,327.83L607.69,331.82L604.78,332.22L605.44,334.61L602.02,338.20L598.35,338.61L596.66,345.46L593.60,344.00L592.74,345.64L594.37,348.41L600.06,349.41L597.97,350.61L600.03,355.40L595.64,351.47L594.75,353.43L601.35,361.02L601.91,358.77L604.96,360.21L606.76,363.05L601.19,363.22L604.70,364.21L605.13,367.75L607.69,366.24L608.25,367.88L601.89,374.99L600.40,373.03L600.79,375.89L590.81,385.57L588.91,395.25L582.85,406.62L581.16,404.69L579.25,407.43L578.18,404.70L575.21,412.94L573.33,408.68L572.85,414.50L572.21,409.91L571.08,414.70L565.40,414.36L565.29,417.53L561.37,417.49L555.93,427.53L549.36,419.96L551.28,428.50L546.63,424.34L547.35,426.74L545.19,425.47L544.26,433.51L540.82,434.72L540.38,438.91L538.76,437.52L540.25,439.91L538.63,442.28L534.65,437.13L530.41,437.57L534.83,440.34L531.01,442.87L532.39,439.91L529.03,439.54L530.53,443.54L525.32,442.34L527.78,446.09L525.12,445.93L522.97,451.55L520.94,449.48L521.77,451.91L519.29,450.43L516.52,452.75L524.23,453.21L525.65,455.17L520.93,454.79L524.19,457.13L520.84,457.93L522.87,459.93L520.23,462.28L515.58,460.37L515.58,462.36L517.64,462.00L515.25,465.74L515.01,463.74L513.76,466.06L510.18,464.75L513.92,463.12L512.04,461.16L508.17,463.43L505.32,452.75L501.58,453.11L505.78,457.34L510.01,469.74L509.75,472.61L506.44,471.97L511.68,476.36L509.07,478.42L508.22,475.20L505.66,482.56L500.64,483.22L501.96,485.61L497.99,485.24L494.31,479.55L491.69,482.67L493.05,491.73L500.46,497.61L496.54,498.41L495.22,510.98L492.07,514.87L491.87,521.48L493.73,521.63L493.55,527.40L496.69,527.90L496.20,532.50L491.68,527.65L492.24,530.04L486.43,527.21L489.99,529.24L485.32,532.43L489.43,534.03L484.95,533.63L486.64,534.83L484.21,535.59L487.76,536.82L484.86,537.44L488.68,543.43L485.51,546.27L490.20,551.26L486.81,550.42L488.26,552.75L485.32,550.86L488.47,555.86L487.00,568.45L489.43,568.89L486.98,572.62L491.82,583.23L487.76,587.58L492.61,590.10L491.93,591.64L498.35,590.18L500.64,592.50L499.13,593.91L500.95,598.59L502.89,598.92L504.92,593.84L509.25,593.69L509.05,598.12L517.08,605.70L516.34,608.93L521.60,607.66L521.57,611.32L526.42,614.11L520.85,612.87L518.57,609.29L521.38,616.74L524.89,617.87L525.69,623.72L525.69,619.74L527.69,619.38L531.65,627.75L530.46,623.24L532.20,621.17L534.55,631.13L539.15,634.10L538.14,637.68L534.09,632.14L535.13,636.67L529.94,641.55L538.34,640.61L539.22,642.67L536.02,644.45L534.83,642.55L529.40,647.14L527.38,652.37L520.28,658.64L517.27,658.58L518.31,663.29L515.07,662.67L514.88,659.70L510.18,662.61L513.92,666.60L512.53,667.38L515.95,667.79L518.61,664.51L522.75,666.78L521.57,660.98L523.14,661.10L527.56,667.18L524.09,669.05L517.87,667.62L521.50,678.07L510.31,683.85L507.01,694.60L503.76,688.78L503.78,693.13L503.63,679.43L502.04,683.39L500.64,676.61L499.76,691.28L497.28,692.20L498.77,694.60L494.87,692.60L495.98,698.19L491.87,697.79L492.42,701.02L483.44,701.02L486.64,704.21L485.21,706.30L481.99,704.86L483.65,707.44L480.60,708.37L461.78,705.81L462.36,707.84L460.30,707.84L463.19,708.92L464.52,707.56L465.98,710.34L467.40,707.04L476.93,709.43L481.04,716.21L475.81,719.84L466.66,717.01L474.65,721.09L476.54,725.06L472.63,724.23L474.45,727.28L477.20,726.00L474.68,728.65L477.80,732.81L476.60,737.29L472.24,733.04L475.98,743.45L472.78,744.07L476.37,751.47L474.03,749.65L472.06,751.07L472.99,749.51L469.46,744.98L471.02,751.11L467.96,750.64L474.68,759.49L466.85,751.07L474.90,762.28L471.14,761.88L472.60,766.59L470.75,768.70L469.60,766.70L469.45,770.26L472.56,770.81L474.19,775.78L468.20,787.26L471.31,800.72L467.40,800.33L466.53,815.09L468.27,816.36L465.25,817.15L465.54,823.14L462.13,824.25L456.45,846.88L451.37,856.74L449.65,855.56L450.68,852.47L445.82,850.41L444.29,852.40L444.14,849.58L438.11,853.54L436.20,850.78L433.39,852.85L430.21,850.78L429.48,852.81L420.65,851.99L419.49,854.94L421.82,859.99L420.39,861.65L417.56,861.13L417.33,858.39L414.45,859.42L407.29,869.81L406.23,877.82L410.91,888.35L405.83,897.38L398.09,894.81L390.79,895.78L384.02,900.00L373.06,896.65L369.07,897.86L369.79,894.81L373.24,894.05L371.38,888.24L375.12,879.66L371.52,876.42L371.61,871.48L358.67,843.99L365.58,848.78L368.57,847.98L363.31,837.28L365.82,834.47L370.63,835.18L371.84,829.82L370.13,823.83L366.31,823.97L362.68,813.81L356.08,807.80L351.58,790.93L349.13,789.52L350.29,785.23L347.72,782.83L349.33,780.30L347.98,776.54L345.79,783.10L343.73,780.30L344.10,767.07L342.75,767.85L341.87,764.67L344.28,762.28L338.33,762.54L341.20,757.69L336.99,754.30L339.80,750.64L343.36,732.25L341.16,727.25L343.17,725.46L338.92,725.80L332.89,730.71L337.37,720.24L335.15,721.47L334.19,717.85L333.35,725.26L329.90,729.45L330.66,722.23L328.53,724.69L330.66,719.04L325.12,724.68L326.91,711.03L323.94,702.92L324.49,691.01L322.05,689.19L324.38,681.79L327.85,680.66L331.43,692.55L337.22,691.15L341.23,671.89L337.50,651.00L343.56,644.76L342.26,635.50L350.28,633.98L359.54,623.30L359.77,609.79L362.87,603.55L353.27,569.51L365.55,566.91L370.58,549.18L363.10,537.64L357.72,535.58L350.77,527.25L354.93,494.45L348.85,476.91L350.62,468.30L348.91,458.15L352.44,452.65L346.16,435.85L352.36,425.02L351.01,417.78L366.95,394.80L380.01,388.99L399.91,393.74L404.92,384.43L403.53,367.11L391.15,360.17L409.36,330.95L411.25,321.82L414.91,317.28L416.17,294.90L418.58,288.98L415.62,270.10L429.60,268.47L441.29,261.37L439.77,248.73L446.40,242.40L456.47,225.57L466.31,216.89L467.35,207.29L458.88,194.29L460.34,189.99L468.58,186.40L476.75,166.58L491.44,154.41L507.78,162.15L515.07,148.95L514.62,129.24L521.83,127.03L527.51,131.27L538.23,131.01L564.74,139.30L571.16,132.66L563.43,128.94L570.91,122.05L574.18,113.54L573.76,107.38L567.24,100.83L581.44,100.00Z M486.07,784.69L479.91,801.12L470.16,843.89L467.09,849.05L466.85,827.56L472.34,810.81L475.35,808.96L481.76,785.55L484.17,782.42L486.07,784.69Z M537.08,750.05L539.52,755.10L535.80,757.61L535.59,760.72L531.94,760.43L530.78,766.72L531.01,775.75L535.18,780.40L528.48,785.21L529.40,789.15L521.01,794.99L522.33,795.90L519.14,801.52L520.84,803.12L518.43,806.38L513.71,807.91L517.84,797.93L515.41,799.53L516.15,795.54L512.64,788.22L514.82,781.17L513.43,771.32L528.41,749.95L530.17,749.71L531.84,755.10L533.14,749.87L537.08,750.05Z M537.20,745.21L535.88,752.17L540.27,756.71L549.20,747.83L546.76,744.17L537.20,745.21Z M329.79,741.46L331.74,750.51L336.16,751.98L341.38,747.54L342.65,741.67L338.35,738.20L329.79,741.46Z M341.54,731.04L337.46,727.42L329.69,736.91L331.02,740.92L341.35,738.08L341.54,731.04Z M550.90,721.52L543.26,716.80L539.09,717.96L537.36,720.92L539.62,727.34L542.82,729.77L548.99,727.65L550.90,721.52Z M528.50,673.99L529.60,669.85L527.67,668.20L520.38,665.81L516.36,667.43L517.30,671.66L522.94,675.95L528.50,673.99Z M525.57,611.21L519.47,597.54L519.76,606.52L525.57,611.21Z M581.75,409.25L588.36,414.43L593.40,411.79L595.30,407.50L593.37,403.23L586.74,400.57L582.72,403.99L581.75,409.25Z M526.72,679.14L523.41,675.79L520.00,676.74L516.37,680.88L515.80,686.68L522.71,689.41L526.72,679.14Z M525.98,669.23L522.68,678.57L526.36,681.70L531.13,680.93L536.06,675.49L535.03,671.08L531.14,668.77L525.98,669.23Z M531.57,663.50L524.50,668.54L524.24,673.13L528.85,677.05L533.67,676.87L537.26,670.59L536.15,665.65L531.57,663.50Z M531.86,672.45L535.14,667.90L533.59,662.63L528.68,659.90L523.29,662.19L522.59,666.25L525.59,672.99L531.86,672.45Z M517.37,670.96L521.84,666.37L521.41,662.63L511.17,658.91L508.39,661.76L509.57,668.58L512.91,671.62L517.37,670.96Z M535.55,669.93L539.70,666.33L540.01,661.44L536.94,657.36L532.27,656.54L527.75,659.63L526.50,665.14L529.91,669.64L535.55,669.93Z M532.33,657.36L528.62,661.49L529.38,666.36L533.73,670.45L537.86,670.23L540.88,667.42L540.95,661.40L537.62,657.29L532.33,657.36Z M540.97,660.18L534.05,654.57L529.92,656.66L527.52,661.77L529.93,666.60L534.96,668.52L539.44,665.53L540.97,660.18Z M521.84,655.88L521.90,662.93L526.65,664.82L533.46,655.25L532.70,652.74L526.85,651.21L521.84,655.88Z M541.61,648.69L534.79,643.52L531.33,645.66L528.39,652.78L530.81,656.06L535.77,657.34L538.83,655.21L541.61,648.69Z M531.80,645.00L526.07,653.65L528.22,656.90L533.93,656.63L538.95,650.54L537.91,644.50L531.80,645.00Z M541.61,637.71L538.22,631.77L534.57,631.51L529.82,637.99L529.84,642.22L538.57,644.75L541.61,637.71Z M530.37,624.13L536.56,621.07L536.57,616.26L532.61,611.06L528.20,610.35L525.32,612.30L524.47,619.19L526.33,622.96L530.37,624.13Z M441.28,859.34L446.22,863.08L450.13,862.31L453.16,852.49L450.21,849.61L443.78,850.27L440.15,854.15L441.28,859.34Z M472.12,728.59L475.56,734.22L480.53,734.64L484.54,731.88L485.51,728.00L482.64,722.97L477.79,720.99L473.17,723.45L472.12,728.59Z M484.94,724.36L480.07,717.12L476.55,717.57L472.51,721.17L473.69,727.38L480.47,730.84L483.86,728.31L484.94,724.36Z M516.47,696.26L522.41,693.57L524.44,687.69L519.86,683.05L512.10,688.04L510.44,691.85L512.39,695.51L516.47,696.26Z M515.67,680.31L508.36,683.40L506.83,690.30L508.93,692.85L517.50,691.34L520.52,685.74L519.37,681.89L515.67,680.31Z M503.34,692.50L502.36,681.67L499.40,680.58L497.69,688.34L500.78,694.21L503.34,692.50Z M518.06,472.28L518.38,464.81L514.94,462.65L508.45,462.92L506.40,465.53L505.65,472.01L508.19,475.40L513.70,475.86L518.06,472.28Z M582.73,410.31L581.31,417.20L584.79,420.75L590.58,420.05L593.76,415.61L593.18,410.05L589.95,407.47L582.73,410.31Z M584.71,407.74L584.44,415.23L587.29,417.08L592.19,415.13L593.75,404.84L587.47,404.21L584.71,407.74Z M630.12,303.94L624.38,304.82L621.84,308.59L622.29,313.55L626.64,315.97L634.64,312.05L635.36,308.44L630.12,303.94Z M622.22,316.16L628.34,315.73L630.69,312.45L625.47,302.91L618.24,305.67L617.65,311.14L622.22,316.16Z M630.92,299.20L628.24,306.94L632.42,311.15L636.72,312.04L640.51,309.83L641.88,305.66L638.62,300.10L630.92,299.20Z M626.16,312.56L633.18,307.89L633.00,304.50L625.88,300.15L621.97,300.28L619.54,303.35L622.86,310.67L626.16,312.56Z M630.27,306.67L636.44,308.84L639.99,306.26L641.76,300.07L639.25,296.74L634.09,296.08L628.56,299.65L630.27,306.67Z M639.30,305.84L641.74,301.43L640.57,297.08L635.44,294.32L630.04,295.64L627.78,300.72L630.40,305.62L635.41,307.48L639.30,305.84Z M641.00,289.04L638.23,293.43L639.24,296.74L645.50,301.70L649.29,299.82L650.13,295.67L647.14,288.60L641.00,289.04Z M667.41,286.52L661.34,288.29L659.54,292.95L661.16,297.58L666.44,300.49L671.39,297.68L673.24,292.69L671.85,288.16L667.41,286.52Z M635.05,297.15L643.37,299.13L645.96,295.66L643.83,288.44L640.41,285.87L636.23,286.81L634.25,290.61L635.05,297.15Z" fill="currentColor" fill-rule="evenodd"/></svg>
