<svg xmlns="http://www.w3.org/2000/svg" viewBox="0 0 1000 1000" role="img" aria-label="Map of Switzerland"><path d="M899.89,467.36L892.56,503.14L894.60,514.36L884.02,535.98L900.00,548.67L897.32,570.96L870.90,567.49L852.55,547.82L834.01,553.65L824.22,572.19L823.08,594.72L843.42,605.98L834.82,622.81L846.65,642.46L839.36,650.59L825.98,653.35L812.00,618.14L803.90,614.22L768.64,619.48L760.50,634.83L736.00,633.06L719.63,613.15L717.90,581.19L709.01,589.48L699.47,580.37L687.42,584.62L682.94,597.24L689.55,624.55L680.61,650.58L656.74,674.73L651.16,694.57L641.02,700.41L643.40,712.41L637.18,719.87L651.85,736.86L641.07,757.18L622.86,755.71L625.01,740.90L617.70,724.37L599.39,715.01L611.20,693.38L606.68,687.31L569.86,678.72L540.76,649.49L542.12,603.52L533.84,593.18L519.10,597.99L512.93,614.49L478.41,640.03L475.87,644.75L485.90,659.70L482.54,677.65L467.39,686.95L460.37,710.80L444.79,715.31L432.88,732.84L381.32,714.74L349.44,734.55L297.03,739.13L270.04,697.99L258.63,697.73L261.88,681.45L245.02,675.61L254.50,640.63L240.75,620.88L247.28,603.05L216.46,592.21L160.98,608.16L145.43,628.69L157.36,648.27L126.55,674.61L100.06,676.73L104.34,666.25L100.00,655.57L123.31,646.63L131.62,617.29L117.01,601.69L118.78,588.26L133.27,567.35L128.42,559.08L183.66,513.02L186.05,465.40L225.65,445.37L229.97,430.56L277.35,387.21L277.77,375.43L291.62,365.32L285.84,355.28L261.42,358.91L283.52,333.45L280.38,323.87L317.27,324.08L315.05,335.69L327.45,342.65L357.36,337.08L358.77,323.59L371.25,322.87L374.92,312.46L370.93,310.06L398.36,296.37L402.39,295.95L400.05,302.46L393.51,304.22L406.61,309.54L430.83,296.27L444.79,298.22L447.27,305.31L470.40,305.31L504.29,289.36L525.83,299.99L555.73,289.38L562.55,297.82L570.84,280.44L544.34,284.71L532.44,278.06L545.30,252.49L562.11,242.82L569.83,244.52L572.64,254.20L577.38,245.45L589.65,254.18L590.35,270.51L604.66,263.89L619.61,280.48L643.59,274.57L689.20,282.05L737.96,312.06L756.24,333.48L754.37,348.43L727.27,396.35L731.72,422.84L725.43,434.30L793.15,446.88L796.20,469.75L838.18,490.60L854.20,485.48L860.19,470.81L870.95,470.98L885.76,452.06L899.89,467.36Z" fill="currentColor" fill-rule="evenodd"/></svg>
