<svg xmlns="http://www.w3.org/2000/svg" viewBox="0 0 1000 1000" role="img" aria-label="Map of Syria"><path d="M104.11,804.12L119.80,774.74L115.09,752.22L110.59,750.29L112.84,738.85L105.43,726.74L109.46,720.91L104.86,717.70L123.58,698.96L125.23,689.37L137.49,683.52L136.82,679.15L123.83,672.90L127.06,662.81L139.32,647.10L149.88,642.10L176.24,646.03L177.46,641.08L165.59,633.87L167.95,628.05L180.28,613.67L190.39,612.38L205.89,591.06L200.92,581.71L203.23,576.30L195.61,568.43L196.40,558.28L185.37,547.82L171.72,544.92L179.37,539.11L180.02,532.90L185.71,532.66L186.18,528.04L177.44,528.07L170.40,519.52L164.71,528.35L129.64,525.04L117.25,484.86L121.30,470.55L119.77,457.77L128.74,444.77L123.07,431.60L123.51,412.59L111.42,399.22L105.67,399.92L106.58,394.50L100.00,388.51L106.62,384.02L105.74,375.96L114.06,364.29L109.04,349.32L117.73,349.01L122.59,339.35L130.88,338.02L133.73,346.46L152.21,353.29L156.93,334.38L165.60,333.35L169.01,327.20L176.30,328.19L178.10,293.97L187.45,298.03L190.99,294.27L213.12,293.77L211.24,282.50L202.71,278.55L204.60,272.60L197.13,257.15L210.19,206.03L249.24,216.90L259.87,236.51L266.04,231.96L282.57,230.85L307.13,234.42L332.13,220.08L352.05,215.92L400.68,194.27L431.43,201.98L460.89,225.67L497.82,224.61L522.76,230.46L585.96,218.61L699.43,166.13L721.97,162.88L758.63,171.33L792.10,169.78L855.76,155.13L880.04,133.26L881.48,138.65L889.76,139.10L896.33,145.73L894.97,155.78L900.00,171.73L835.87,236.81L780.76,251.68L767.72,275.34L762.88,318.47L777.04,352.85L778.12,377.80L765.81,401.39L758.63,438.17L758.97,504.06L730.24,561.36L697.20,571.67L466.84,712.24L231.77,866.74L179.89,857.58L154.58,835.90L141.22,837.37L133.69,817.19L127.89,816.85L126.55,811.96L104.11,804.12Z" fill="currentColor" fill-rule="evenodd"/></svg>
