<svg xmlns="http://www.w3.org/2000/svg" viewBox="0 0 1000 1000" role="img" aria-label="Map of Taiwan"><path d="M878.60,182.00L860.92,204.32L857.34,222.18L859.08,253.69L873.46,264.60L864.64,266.36L864.47,291.91L851.58,303.32L850.01,332.26L826.40,359.49L814.50,386.75L819.16,401.26L769.94,605.11L748.35,648.80L724.86,676.00L722.10,691.13L690.23,719.52L672.86,750.18L658.49,792.58L658.03,860.60L648.68,876.68L649.68,896.06L634.01,883.23L622.61,888.35L615.58,868.41L618.87,847.14L602.61,804.51L579.12,774.10L550.95,760.24L540.29,751.84L530.39,737.69L540.81,750.38L520.60,719.16L522.05,707.24L499.65,643.85L504.83,631.79L493.64,637.44L492.31,627.84L480.98,628.98L490.70,616.49L481.88,613.28L488.28,611.62L481.88,603.82L494.16,564.69L501.12,563.67L495.07,559.22L504.48,554.42L497.17,533.49L502.97,524.00L495.98,524.43L495.82,517.30L508.74,460.01L619.99,262.45L636.30,248.68L646.74,248.59L668.09,197.33L696.73,158.52L765.36,133.27L779.21,138.32L769.02,127.44L777.72,113.69L808.78,103.94L835.22,133.52L875.82,143.65L881.48,165.14L900.00,169.86L878.60,182.00Z M805.72,854.42L810.25,870.44L794.25,865.47L789.70,854.42L805.72,854.42Z M124.10,282.21L135.99,286.24L138.95,303.59L100.40,310.68L100.00,292.84L121.34,293.74L124.10,282.21Z M393.48,497.74L397.88,510.55L391.90,507.10L375.43,518.11L367.51,512.62L380.42,510.55L372.95,500.80L393.48,497.74Z M349.31,507.35L361.97,486.74L359.91,505.34L349.31,507.35Z M378.02,492.68L383.32,486.01L376.02,479.03L370.46,483.16L378.02,492.68Z M792.68,725.25L793.75,715.47L780.98,713.52L780.66,716.60L788.95,726.28L792.68,725.25Z M470.76,537.80L493.88,510.76L495.93,510.17L470.76,537.80Z" fill="currentColor" fill-rule="evenodd"/></svg>
