<svg xmlns="http://www.w3.org/2000/svg" viewBox="0 0 1000 1000" role="img" aria-label="Map of Tajikistan"><path d="M427.94,216.10L427.96,220.57L436.52,228.38L438.88,228.02L435.46,218.28L430.27,215.02L427.94,216.10Z M469.67,318.82L471.78,322.01L466.64,327.73L452.60,328.94L439.69,336.46L434.37,353.33L422.80,357.96L420.38,363.17L417.68,358.37L424.85,350.97L425.32,345.72L404.73,339.96L396.26,332.70L386.60,332.15L372.01,322.71L328.10,336.53L322.22,333.71L316.60,346.81L320.54,360.34L310.69,363.80L301.34,351.87L293.84,372.63L292.37,382.87L298.63,392.49L299.95,413.80L306.22,408.91L318.05,411.86L337.71,405.63L369.37,411.33L375.67,406.18L386.79,408.72L392.08,400.15L394.39,413.35L420.38,402.56L435.21,407.51L443.15,419.51L444.53,429.21L450.35,431.35L463.98,426.26L471.54,429.67L483.69,414.23L499.38,413.97L520.90,401.12L528.25,408.88L524.23,416.69L526.36,421.27L549.63,422.65L550.43,431.68L546.62,439.39L550.75,445.52L581.30,433.09L585.90,445.42L597.01,449.92L599.63,456.70L608.58,438.35L629.32,432.19L635.13,434.35L641.06,429.72L661.68,434.75L695.72,434.86L711.94,430.20L716.16,423.24L740.38,421.16L743.28,422.65L744.42,435.40L740.74,454.32L751.13,472.96L763.08,484.60L761.39,490.41L751.93,492.26L748.21,498.26L762.08,535.89L774.00,543.38L783.83,543.69L786.89,541.09L784.69,534.33L793.50,525.00L815.07,525.33L858.68,544.65L866.10,552.05L866.65,563.12L859.78,574.67L861.79,602.28L870.97,610.14L874.37,628.64L871.55,635.25L879.64,643.54L871.55,658.52L872.14,665.65L900.00,691.75L892.60,694.67L890.21,703.38L878.24,707.43L872.18,714.03L861.57,700.88L848.45,692.62L834.20,695.04L813.17,688.30L811.96,691.81L803.79,691.39L800.07,699.93L751.12,715.88L739.66,709.99L754.17,699.94L755.64,688.10L728.20,681.19L708.86,683.30L692.06,693.88L685.45,702.99L657.12,715.45L643.51,740.61L602.79,748.70L559.48,783.94L540.70,785.53L530.45,774.68L517.99,735.60L524.41,703.98L528.06,644.37L534.28,637.20L535.04,626.34L528.83,620.28L508.79,627.00L500.30,622.64L510.62,588.79L510.53,579.96L468.83,550.81L467.35,556.08L451.08,554.31L439.58,559.70L441.62,562.17L432.94,567.37L431.21,576.83L427.54,578.47L419.67,597.14L397.53,616.48L398.31,620.96L389.16,620.07L388.45,627.45L396.84,636.75L400.51,651.77L396.95,662.48L387.70,673.25L372.32,672.27L363.23,663.30L351.30,667.98L321.26,668.31L307.93,686.92L311.15,712.12L314.46,715.01L302.36,728.50L294.35,730.75L281.86,722.16L267.70,702.30L257.74,699.96L260.60,707.72L252.41,701.14L249.79,703.39L250.83,711.43L235.32,707.83L231.03,717.29L208.19,724.47L206.98,730.54L196.38,730.84L195.30,743.08L185.95,741.99L170.23,754.22L154.40,735.93L144.91,731.71L144.42,719.58L148.52,704.54L146.54,683.10L149.40,675.02L172.01,644.47L179.39,625.03L192.33,619.69L202.11,597.81L203.33,585.04L185.68,568.89L172.52,542.50L170.73,522.09L174.65,517.46L173.71,509.43L184.54,501.90L177.21,484.29L135.21,482.93L132.86,464.25L100.37,452.68L100.00,444.66L104.14,442.90L108.27,418.93L114.81,417.16L114.45,410.86L137.98,399.64L201.42,412.19L219.83,409.49L218.73,406.98L228.31,397.08L230.96,369.91L236.98,367.49L242.77,373.85L247.45,365.69L244.54,352.70L252.66,367.94L257.01,366.14L247.66,350.94L246.15,339.65L250.09,345.04L257.11,340.84L266.88,341.62L267.88,338.10L262.11,330.86L237.19,335.65L226.35,328.57L271.18,319.65L289.46,326.10L298.40,324.53L290.53,310.94L300.45,311.54L301.21,305.10L289.52,275.70L300.87,271.85L301.36,254.31L305.55,247.60L311.96,244.46L321.32,248.34L336.76,266.21L342.65,266.53L351.42,257.42L372.53,250.53L400.24,234.80L405.92,228.33L408.74,214.47L417.15,215.32L443.70,244.04L435.88,242.93L436.77,248.88L450.05,253.21L446.46,261.44L420.44,283.72L409.37,287.66L409.55,302.19L425.17,304.97L431.08,321.01L435.21,323.92L469.67,318.82Z M422.58,365.67L443.06,368.75L443.67,373.53L431.06,380.83L421.70,369.84L422.58,365.67Z" fill="currentColor" fill-rule="evenodd"/></svg>
