<svg xmlns="http://www.w3.org/2000/svg" viewBox="0 0 1000 1000" role="img" aria-label="Map of Tanzania"><path d="M358.79,720.64L346.67,715.54L343.86,711.81L329.83,709.81L323.03,701.54L309.23,700.81L296.70,694.72L288.14,695.60L288.03,686.26L277.32,683.33L269.06,684.84L260.48,677.32L259.45,669.69L248.45,664.55L246.10,661.27L239.45,663.93L235.56,660.81L226.29,663.38L217.79,658.62L208.35,646.87L195.89,613.55L180.56,589.60L175.38,568.91L169.98,557.27L155.34,538.51L127.75,518.93L114.70,493.89L111.15,474.28L120.27,458.34L120.95,452.75L100.20,396.02L105.98,362.00L129.60,362.98L133.29,356.51L137.84,356.27L149.03,349.14L159.58,335.75L163.82,324.44L171.22,314.27L176.24,314.16L175.63,308.03L179.89,297.05L194.76,287.47L192.18,284.08L194.86,281.21L200.67,277.46L206.30,276.99L208.64,269.63L204.76,260.56L208.15,255.58L194.65,255.28L187.55,249.83L183.92,253.05L178.70,246.40L186.38,231.77L178.44,233.27L185.34,218.32L188.68,213.78L194.66,213.52L197.32,210.24L203.36,212.36L208.79,209.78L212.63,190.77L210.17,186.51L207.53,186.15L208.26,180.03L206.10,179.69L209.04,173.00L208.55,155.44L205.72,155.21L201.93,147.87L201.83,141.88L188.73,135.50L185.56,124.79L182.40,123.70L181.38,119.51L183.39,116.74L194.72,117.77L204.68,111.44L436.37,112.65L437.47,115.18L698.39,260.46L702.35,279.87L694.10,287.00L695.10,294.27L702.95,295.26L707.45,304.54L811.27,379.28L811.34,383.65L808.04,385.88L811.33,387.02L811.16,391.41L807.47,397.36L807.55,390.83L803.62,395.77L805.31,402.54L801.88,405.26L805.09,405.24L806.07,408.73L798.94,418.59L801.60,418.52L797.70,429.18L794.46,431.99L794.75,438.33L787.82,447.89L788.27,453.19L783.77,460.79L779.92,478.10L785.51,485.97L785.18,499.36L789.70,505.72L793.27,508.36L798.74,508.14L811.10,520.55L813.48,527.01L815.94,526.73L815.95,534.20L829.20,536.17L835.61,546.52L835.17,555.02L831.60,559.28L830.16,557.39L827.14,559.50L822.39,568.66L819.37,568.84L821.28,573.29L817.66,578.91L815.56,589.61L817.52,601.01L813.97,606.02L817.73,603.74L819.37,599.00L820.31,603.01L824.24,602.88L827.69,606.69L826.06,611.71L828.47,619.55L820.31,633.76L820.85,638.70L819.37,640.18L816.92,638.24L815.94,641.17L817.59,655.36L821.52,661.35L821.28,670.44L827.37,673.44L835.61,685.51L828.11,680.91L823.75,683.82L829.18,683.82L827.98,685.75L831.17,686.68L831.65,700.12L836.72,697.86L842.09,704.81L842.02,717.79L836.72,720.42L836.59,723.50L840.08,721.87L842.59,723.30L849.07,739.36L849.48,742.23L845.91,745.01L849.89,745.28L853.36,750.72L853.32,754.25L849.89,754.71L852.61,757.90L847.15,760.00L847.88,764.01L845.46,766.60L850.67,762.22L855.25,762.77L861.53,765.91L865.89,773.11L866.62,779.45L866.89,772.96L869.12,773.08L877.23,775.74L876.36,783.08L880.19,781.92L884.38,784.92L886.88,782.90L881.93,780.98L884.38,777.96L892.77,789.37L898.04,789.19L895.92,786.04L898.39,785.17L900.00,788.45L897.23,791.84L899.10,791.84L899.10,797.81L868.28,822.14L850.48,831.68L831.64,835.12L814.73,847.86L804.88,845.90L788.35,847.93L778.53,854.84L770.95,855.75L759.30,865.71L748.91,861.75L742.36,855.84L735.92,856.32L731.78,853.86L719.47,856.34L714.46,859.51L710.76,874.39L698.60,881.80L688.25,884.45L685.79,887.84L676.53,885.05L662.21,884.60L654.36,876.66L645.26,878.68L639.10,877.29L633.20,884.60L625.12,887.98L619.37,888.56L615.71,885.05L594.50,886.54L592.22,877.66L577.97,872.14L575.81,867.20L567.66,865.71L558.26,871.57L556.05,877.17L549.68,879.57L505.71,877.29L505.43,871.86L500.10,862.95L493.91,859.81L491.40,860.76L487.70,850.46L480.47,843.19L478.99,836.97L484.89,817.89L481.25,805.67L478.14,802.50L478.46,784.44L474.09,770.32L474.93,766.58L459.22,743.15L437.28,725.67L432.47,730.92L433.12,738.92L430.03,743.06L417.29,733.38L396.03,736.09L386.06,726.74L376.91,728.10L362.66,718.71L358.79,720.64Z M860.19,592.59L860.03,601.01L854.99,612.58L850.06,612.67L845.18,617.99L841.08,617.77L838.02,614.86L845.63,609.42L846.41,605.74L854.34,603.50L851.41,602.56L856.54,599.83L860.19,592.59Z M831.65,483.09L836.75,504.57L832.36,507.61L827.70,504.63L825.75,495.93L824.13,496.43L824.82,501.16L817.41,491.45L816.11,496.71L810.08,490.10L809.50,467.93L815.94,462.70L818.34,453.77L821.38,459.94L822.59,472.02L826.73,478.10L825.75,488.03L831.82,488.33L831.65,483.09Z M842.04,431.74L842.57,426.28L846.00,426.56L843.51,422.57L847.32,422.75L845.46,420.60L851.95,419.11L842.53,415.60L849.44,416.64L849.18,413.50L845.46,411.74L846.18,407.53L847.96,407.62L844.49,405.01L844.77,400.88L847.28,400.12L844.49,397.83L844.98,393.86L854.87,401.35L857.34,394.37L858.94,400.91L855.88,403.71L855.34,409.19L856.09,411.74L857.71,410.08L857.34,420.10L853.03,431.23L851.95,429.52L848.21,434.65L848.90,432.98L842.04,431.74Z M846.35,616.41L842.88,622.34L843.83,627.79L846.16,628.86L856.85,619.67L854.10,615.89L846.35,616.41Z M808.13,455.36L808.47,466.88L816.28,466.01L813.42,454.59L808.13,455.36Z M833.50,428.83L838.99,439.17L844.94,439.81L846.87,437.83L846.49,433.27L839.53,427.15L836.11,426.52L833.50,428.83Z" fill="currentColor" fill-rule="evenodd"/></svg>
