<svg xmlns="http://www.w3.org/2000/svg" viewBox="0 0 1000 1000" role="img" aria-label="Map of Thailand"><path d="M574.57,575.14L573.50,568.46L567.38,561.28L566.85,555.38L558.37,544.07L555.82,546.10L557.14,553.36L551.42,547.98L542.07,545.76L540.35,540.39L544.20,539.42L545.03,536.19L541.85,538.85L542.50,532.94L540.71,534.82L540.71,532.24L537.33,532.49L540.89,538.41L538.51,538.54L531.09,530.93L532.41,527.01L529.02,526.74L529.90,525.20L526.99,525.54L529.90,527.78L529.50,530.73L524.44,527.01L523.87,523.28L523.76,527.42L514.20,517.90L495.90,523.86L478.51,519.27L473.30,520.96L472.55,523.73L469.57,520.24L466.42,520.78L465.35,517.79L469.69,512.23L466.78,506.36L470.41,501.87L467.49,496.71L471.01,491.17L469.29,486.15L472.91,482.63L473.68,475.23L468.06,476.74L457.06,474.52L452.44,472.08L452.74,468.96L451.59,473.96L439.03,476.00L435.76,474.12L424.08,479.72L419.33,485.29L426.78,498.93L419.21,519.95L422.35,545.62L412.41,560.09L411.67,569.98L408.23,571.69L402.45,581.76L398.64,591.99L399.52,599.48L394.80,602.84L395.60,617.24L392.00,617.02L388.38,627.22L381.33,635.84L383.68,644.34L376.66,644.72L377.57,648.48L382.08,651.36L376.66,658.43L378.10,662.65L376.30,675.45L380.42,688.72L385.71,696.87L381.07,699.86L382.10,705.46L393.66,707.16L396.87,702.81L410.95,700.59L415.29,705.42L419.56,739.31L428.88,751.02L431.09,750.57L428.19,744.23L432.89,747.79L444.45,800.26L451.52,814.72L443.68,811.57L442.65,797.52L440.17,794.77L435.63,797.34L438.16,787.79L436.48,783.45L432.37,783.85L428.91,787.17L430.72,797.33L435.96,806.46L440.76,808.05L443.62,816.77L450.53,818.20L452.09,813.90L461.54,826.93L473.77,833.75L483.97,833.47L486.75,831.31L492.38,832.72L487.71,829.00L489.25,828.47L503.22,834.56L514.49,852.98L530.35,866.11L529.66,874.90L523.07,881.00L521.93,887.61L516.01,894.06L512.13,891.54L508.93,892.67L503.25,884.80L487.00,891.52L485.07,897.21L480.33,900.00L472.07,891.22L478.04,883.35L478.19,866.71L472.55,865.29L465.11,867.23L463.67,857.62L459.69,853.38L454.47,856.00L441.67,851.82L435.14,842.21L430.07,842.48L427.99,856.13L426.74,851.22L424.62,852.66L414.32,838.83L404.76,832.64L406.24,829.14L404.42,824.57L408.04,819.21L404.33,819.36L404.06,816.80L400.99,818.64L398.03,815.35L397.38,811.64L400.43,805.70L397.60,809.72L395.42,805.23L393.45,810.90L388.58,808.68L384.08,792.50L375.55,784.59L373.50,788.66L370.43,786.98L369.44,782.01L372.35,776.07L370.16,777.21L364.37,769.24L360.46,771.86L358.18,769.19L356.60,770.74L353.07,755.90L348.91,756.83L350.56,751.52L347.83,750.57L338.61,754.90L340.43,760.35L338.43,764.00L331.17,760.14L326.57,743.16L327.11,740.62L329.09,744.23L329.39,743.15L327.65,732.80L329.84,726.08L336.66,716.11L333.58,716.61L336.17,714.13L333.03,706.71L335.58,705.79L340.13,688.40L344.02,687.45L340.46,685.38L343.13,682.66L342.05,679.48L345.84,677.92L342.80,678.04L342.80,676.19L345.30,674.92L346.75,672.51L344.96,674.32L343.05,672.83L349.27,666.57L347.83,664.36L353.98,651.71L357.66,637.01L355.89,628.05L359.75,622.79L367.73,619.07L368.77,612.31L371.58,612.98L379.89,604.17L391.21,583.19L392.35,576.88L397.23,575.43L401.83,565.97L398.22,562.88L398.88,557.30L395.96,554.62L397.18,548.43L392.48,549.03L389.90,524.92L380.49,517.28L377.36,503.34L373.59,499.95L374.06,492.77L378.69,489.63L376.71,463.42L373.42,455.04L365.28,443.41L344.89,427.63L328.88,404.55L324.52,388.28L325.40,382.11L330.97,378.37L336.34,380.19L337.30,374.58L341.04,373.32L344.15,376.42L345.53,374.84L344.50,355.58L346.79,341.27L344.85,337.46L348.65,337.27L351.83,333.21L358.54,334.06L363.56,319.42L360.25,314.51L357.56,319.80L350.97,324.55L349.31,315.02L340.10,300.97L343.30,296.66L342.88,291.82L338.06,284.46L331.84,282.53L315.17,258.73L303.42,248.69L299.04,241.19L303.14,233.70L295.98,218.98L297.01,215.49L293.66,214.04L291.27,217.70L289.06,216.25L281.96,202.27L285.96,205.59L290.28,205.50L302.70,201.19L301.52,186.02L298.08,182.04L306.12,171.97L303.82,156.56L307.77,152.14L308.11,147.38L316.51,143.52L317.37,134.67L327.30,139.27L328.57,142.14L341.79,139.87L344.10,141.53L358.58,134.48L363.39,137.60L368.73,133.69L369.57,121.82L372.55,118.56L378.04,117.45L384.24,120.66L395.53,115.72L396.35,113.44L390.81,103.75L402.98,107.46L410.10,105.99L412.75,101.52L417.98,100.00L429.32,111.12L433.94,103.90L439.41,102.97L445.54,113.73L450.16,115.50L446.75,130.47L441.24,137.76L446.24,149.68L451.10,151.27L454.61,148.75L460.90,151.98L467.58,144.90L480.46,147.51L484.84,146.19L487.31,148.48L482.97,157.70L486.30,171.11L491.07,176.92L485.73,184.79L486.25,196.47L475.49,208.93L482.07,214.59L480.65,218.76L482.59,229.14L473.94,238.25L468.74,255.68L480.86,261.10L494.31,246.64L497.75,245.47L498.53,247.13L504.28,239.15L512.25,236.77L515.48,228.05L521.47,230.02L530.64,220.48L535.55,221.21L548.19,232.34L558.05,234.45L557.82,240.62L562.43,242.28L561.91,239.30L571.36,233.54L576.74,231.37L581.11,232.53L582.86,225.25L587.96,218.54L594.65,216.49L591.95,211.50L599.99,208.19L621.27,213.76L624.24,216.56L631.72,214.83L645.94,238.83L655.50,250.07L668.68,257.55L673.42,263.16L674.57,275.55L670.67,285.89L672.70,301.96L671.41,311.46L685.14,325.08L687.38,333.48L706.53,339.49L703.30,344.38L706.00,350.84L718.04,357.20L716.12,370.31L709.44,374.97L713.68,376.47L714.00,379.31L707.67,386.80L715.53,394.52L710.06,405.56L711.03,417.57L706.21,424.90L692.48,430.18L689.66,435.57L686.82,436.46L683.06,431.76L682.95,427.47L672.31,424.27L663.83,425.40L660.28,428.56L641.03,426.20L639.13,428.26L625.68,429.64L614.62,427.15L612.63,424.09L610.47,426.19L586.38,430.76L574.83,438.01L572.26,446.91L567.16,451.48L563.26,460.89L555.04,465.86L557.95,469.33L543.98,471.53L543.77,487.16L552.29,502.23L551.72,519.46L566.60,532.47L562.92,546.38L574.58,568.68L574.57,575.14Z M313.78,701.21L313.45,691.45L310.23,689.64L304.55,690.33L302.16,694.11L304.06,700.70L309.92,703.27L313.78,701.21Z M401.73,683.93L397.78,689.59L399.53,694.27L406.06,695.93L410.54,693.52L411.62,688.56L409.28,684.03L401.73,683.93Z M397.71,685.55L400.09,690.12L404.23,691.68L408.55,690.18L410.61,682.46L407.08,678.33L402.33,677.95L398.55,680.86L397.71,685.55Z M381.72,844.32L372.65,848.50L375.67,854.53L381.51,855.46L385.38,851.84L384.87,845.56L381.72,844.32Z M406.47,849.67L403.97,840.73L402.98,840.23L399.63,848.91L403.08,854.13L406.47,849.67Z M383.58,812.85L385.29,819.04L388.32,820.51L397.46,814.09L396.69,810.30L389.44,807.47L385.18,808.71L383.58,812.85Z M368.30,791.13L368.52,796.95L372.13,802.07L375.59,802.27L374.15,791.47L370.46,789.01L368.30,791.13Z M376.69,785.93L369.93,785.32L366.29,789.37L367.46,793.42L373.86,798.71L377.17,797.87L379.90,791.64L376.69,785.93Z M342.87,765.69L346.81,777.55L348.00,778.27L348.83,768.58L344.56,764.53L342.87,765.69Z M337.02,773.49L339.21,778.14L337.02,782.01L334.17,781.04L331.43,784.03L329.45,775.89L330.88,761.66L334.15,766.12L339.18,767.56L337.02,773.49Z M345.11,759.74L342.59,767.78L347.15,771.10L351.07,770.72L352.99,767.29L351.64,758.41L348.06,757.49L345.11,759.74Z M332.05,706.26L326.43,707.05L325.20,710.12L325.52,716.23L328.86,719.93L336.79,715.20L335.31,708.76L332.05,706.26Z M424.63,683.92L415.45,685.97L417.25,697.56L426.85,693.68L428.00,686.21L424.63,683.92Z M333.26,673.65L331.75,681.42L335.13,684.86L338.65,684.95L342.43,681.36L343.00,675.79L340.83,672.20L336.73,671.30L333.26,673.65Z M418.71,672.03L419.05,682.05L424.44,685.00L428.84,683.85L425.89,673.00L418.71,672.03Z M560.08,573.16L556.80,567.69L554.61,567.70L552.71,577.09L558.20,581.28L560.08,573.16Z M545.14,547.48L537.79,547.10L540.33,558.70L550.39,559.62L551.38,556.75L545.14,547.48Z M312.09,700.18L316.43,692.88L314.44,688.38L307.51,687.30L303.22,690.29L303.01,695.51L307.39,700.62L312.09,700.18Z M330.51,714.25L325.76,718.46L326.25,724.85L330.59,728.10L335.58,718.99L330.51,714.25Z" fill="currentColor" fill-rule="evenodd"/></svg>
