<svg xmlns="http://www.w3.org/2000/svg" viewBox="0 0 1000 1000" role="img" aria-label="Map of Timor-Leste"><path d="M202.46,588.32L196.95,617.73L177.45,636.26L168.23,664.39L155.43,667.48L144.02,637.30L114.68,647.83L100.00,628.21L131.51,616.99L146.58,603.35L202.46,588.32Z M316.73,534.52L359.85,493.54L362.28,467.13L371.51,453.00L429.19,438.22L543.61,416.60L596.85,425.91L638.55,419.31L680.31,400.65L713.74,417.33L755.50,399.10L774.78,398.42L815.65,373.50L845.33,386.74L873.88,379.32L900.00,399.69L828.83,463.92L786.20,482.86L722.13,496.01L695.12,529.78L620.42,541.02L567.12,574.89L480.84,590.64L428.63,613.18L387.79,647.35L351.36,663.67L342.05,629.10L328.06,616.23L326.09,596.14L373.05,589.60L375.91,558.83L357.50,540.49L348.97,552.51L320.03,562.25L313.91,553.13L316.73,534.52Z M459.07,364.07L494.88,332.52L476.11,375.55L459.07,364.07Z" fill="currentColor" fill-rule="evenodd"/></svg>
