<svg xmlns="http://www.w3.org/2000/svg" viewBox="0 0 1000 1000" role="img" aria-label="Map of Togo"><path d="M346.94,100.00L449.49,120.94L449.65,132.06L479.14,123.27L514.67,122.60L508.61,153.85L495.78,170.23L492.55,219.63L582.15,280.91L584.16,286.32L586.08,336.37L581.42,356.32L589.83,365.77L593.18,388.21L623.75,427.05L625.60,509.37L631.35,519.74L624.58,539.11L628.43,555.18L628.44,757.58L613.72,758.35L622.86,778.15L624.58,797.36L619.08,808.21L647.05,848.32L653.06,871.91L629.61,876.93L627.50,881.98L559.27,900.00L557.83,891.89L544.82,890.40L534.10,880.64L527.56,864.39L512.36,863.47L490.20,845.91L484.85,834.39L487.32,825.17L472.37,816.81L471.36,800.33L454.62,783.72L458.86,770.61L450.74,761.34L463.99,757.58L466.99,752.11L466.94,731.82L474.48,705.65L470.92,693.84L462.02,696.56L454.21,691.75L450.90,676.93L453.04,664.05L461.34,659.77L464.69,645.15L469.23,645.92L463.19,565.75L485.02,550.81L469.87,520.49L442.72,501.73L430.52,475.13L437.11,477.54L438.96,472.43L447.43,472.06L452.48,460.50L440.79,434.87L452.33,409.52L450.48,398.16L455.77,391.96L456.52,375.52L448.89,371.27L449.00,364.57L437.71,361.04L425.48,363.07L415.22,372.42L408.67,370.56L408.87,363.94L420.47,358.62L408.53,354.73L409.20,347.77L432.38,345.60L416.66,342.80L414.04,334.83L416.29,330.31L423.11,336.19L427.57,333.88L423.69,318.38L431.10,290.07L427.99,275.77L435.59,272.07L428.59,262.00L429.15,245.39L435.35,235.35L421.55,233.14L415.97,215.74L401.29,217.72L377.66,187.79L359.19,179.69L360.03,160.19L368.00,151.14L375.58,111.50L367.97,105.79L353.91,106.80L346.94,100.00Z" fill="currentColor" fill-rule="evenodd"/></svg>
