<svg xmlns="http://www.w3.org/2000/svg" viewBox="0 0 1000 1000" role="img" aria-label="Map of Tonga"><path d="M623.48,454.94L628.08,461.97L623.86,461.24L619.66,471.21L617.38,462.28L615.24,466.27L610.51,462.81L618.14,455.37L623.48,454.94Z M516.51,776.49L517.21,780.88L515.89,795.61L508.82,788.14L516.51,776.49Z M499.68,756.64L501.21,760.30L490.39,773.64L470.64,762.50L466.28,755.46L472.87,749.40L468.96,754.12L480.14,755.43L482.04,762.37L491.36,761.88L499.68,756.64Z M576.84,603.73L584.36,605.83L587.58,594.96L583.55,592.41L579.54,593.47L575.59,598.38L576.84,603.73Z M499.93,588.43L494.16,594.47L501.31,602.02L503.37,593.79L499.93,588.43Z M591.41,595.06L593.00,587.45L589.78,583.60L583.25,591.26L587.57,597.52L591.41,595.06Z M588.32,573.00L584.05,573.09L583.09,577.85L587.97,585.05L592.47,586.10L593.86,581.70L588.32,573.00Z M435.13,96.96L427.65,101.36L430.97,110.37L441.06,106.38L439.73,99.02L435.13,96.96Z M375.16,905.41L379.55,899.76L377.42,894.45L371.31,892.43L366.90,895.89L366.14,902.49L369.99,905.99L375.16,905.41Z M551.80,478.33L545.34,475.13L541.94,477.37L539.65,483.46L541.55,486.51L549.18,487.00L552.46,485.21L551.80,478.33Z" fill="currentColor" fill-rule="evenodd"/></svg>
