<svg xmlns="http://www.w3.org/2000/svg" viewBox="0 0 1000 1000" role="img" aria-label="Map of Trinidad and Tobago"><path d="M684.41,418.21L612.66,507.65L623.62,594.44L607.07,608.73L618.20,675.76L653.52,713.50L629.77,761.53L633.66,825.17L521.72,862.70L274.96,873.26L177.46,856.68L122.28,881.03L100.00,872.79L248.56,798.51L272.66,761.69L341.52,765.53L366.95,741.34L352.19,655.21L366.95,580.65L351.65,538.22L249.40,494.12L286.86,470.27L383.38,465.15L421.63,438.11L684.41,418.21Z M900.00,118.97L898.56,168.20L743.90,239.97L718.61,227.91L813.72,150.76L900.00,118.97Z" fill="currentColor" fill-rule="evenodd"/></svg>
