<svg xmlns="http://www.w3.org/2000/svg" viewBox="0 0 1000 1000" role="img" aria-label="Map of Tunisia"><path d="M685.21,568.11L680.68,599.48L680.06,629.18L690.40,643.84L689.07,652.08L626.18,685.53L616.80,700.39L610.28,705.15L601.20,706.11L599.21,718.85L591.20,729.64L574.06,732.84L569.25,736.81L555.51,757.73L554.52,765.07L567.46,804.53L568.31,831.10L532.57,885.81L520.62,888.49L499.72,900.00L455.36,692.82L388.68,641.58L384.16,606.87L365.84,577.88L332.03,562.46L329.06,537.43L315.96,514.42L309.60,492.36L312.64,465.38L323.29,453.68L335.80,448.55L341.99,429.48L366.51,416.46L379.82,403.25L377.41,399.48L382.63,391.72L380.98,374.67L385.80,356.03L398.02,336.47L385.23,327.10L389.22,303.17L387.96,290.32L380.28,270.59L391.15,202.84L373.41,195.99L373.60,192.11L397.94,176.73L400.87,168.85L396.32,163.10L417.68,157.20L414.02,145.61L434.75,141.11L454.78,121.74L470.84,112.52L483.16,112.35L520.73,100.00L531.41,101.84L531.66,108.32L523.27,114.83L527.39,121.74L536.58,118.76L537.58,114.85L527.73,113.22L533.61,109.18L550.18,109.03L570.02,118.74L556.56,120.97L565.80,125.58L560.88,130.24L561.63,135.77L577.03,152.27L572.51,158.84L568.22,156.08L562.20,161.56L567.69,162.83L570.02,159.48L577.79,169.03L593.05,166.26L599.24,152.73L613.12,150.52L627.51,138.13L628.88,133.32L642.79,129.78L642.54,136.52L650.22,155.22L640.09,162.61L619.33,200.42L596.06,208.81L590.47,222.21L588.94,238.58L593.04,253.48L602.71,268.92L614.07,277.12L621.49,275.90L623.18,285.09L641.85,291.95L643.16,294.56L639.62,295.94L639.41,301.23L645.97,306.67L642.76,311.96L641.97,326.05L652.89,339.05L643.90,346.37L639.51,353.21L639.71,359.80L630.33,368.43L630.20,377.86L624.59,382.66L626.01,386.42L611.61,401.33L603.01,404.87L600.37,414.83L584.94,420.27L579.97,428.50L571.51,429.52L556.43,439.45L545.08,456.88L551.25,482.11L575.45,509.47L590.30,515.73L611.55,509.01L613.44,520.71L607.57,527.14L613.55,534.74L629.56,527.82L631.74,523.95L629.29,519.18L632.06,516.95L642.02,519.02L648.45,527.77L647.56,547.55L665.46,556.24L650.51,553.47L649.40,557.00L654.80,564.75L678.49,566.72L670.90,559.38L685.21,568.11Z M631.48,487.72L643.66,498.46L633.98,510.04L632.52,506.61L627.54,516.52L621.78,506.44L613.74,508.05L613.36,489.02L631.48,487.72Z M634.61,402.37L643.16,406.39L648.52,401.93L636.84,400.40L634.61,402.37Z M662.86,389.12L665.77,394.14L650.24,401.50L654.19,390.85L658.77,392.01L661.78,383.22L666.44,385.53L662.86,389.12Z" fill="currentColor" fill-rule="evenodd"/></svg>
