<svg xmlns="http://www.w3.org/2000/svg" viewBox="0 0 1000 1000" role="img" aria-label="Map of Turkmenistan"><path d="M597.29,742.41L595.16,738.55L595.68,722.47L589.42,716.92L594.76,705.83L590.37,688.91L592.67,673.86L591.45,668.70L545.08,668.64L526.89,640.50L506.28,631.53L503.56,633.39L500.80,628.04L495.50,627.33L495.93,624.94L490.35,619.23L489.56,607.56L487.08,603.96L481.42,604.98L471.44,597.14L458.30,592.06L457.10,594.60L451.58,595.82L443.02,591.65L440.20,595.72L433.34,596.50L424.84,593.21L422.01,585.29L395.80,575.72L384.83,575.58L376.73,572.30L376.27,564.08L367.35,549.93L359.05,556.39L341.65,550.32L333.53,552.96L325.16,551.48L317.66,556.96L318.34,563.47L312.63,564.96L298.50,565.13L285.85,561.36L269.47,563.89L251.61,573.40L236.20,587.25L232.30,595.16L232.35,604.37L224.79,610.58L218.00,610.44L199.59,618.86L183.11,617.54L178.11,588.43L177.11,567.63L180.55,547.64L178.23,531.90L187.00,503.61L180.07,494.98L174.86,495.29L172.31,489.46L172.88,493.43L171.16,491.85L172.46,480.03L168.82,483.02L170.16,491.49L165.93,480.46L163.62,483.53L163.31,471.94L153.59,475.04L154.36,473.06L148.18,473.60L145.10,471.12L140.10,472.61L142.80,474.09L140.75,484.53L136.46,468.53L147.20,449.38L149.33,449.82L143.88,459.51L155.69,458.72L163.64,463.66L163.97,459.35L166.31,461.69L172.94,459.30L167.09,456.20L168.06,453.51L163.85,452.89L161.70,448.25L162.05,451.75L156.67,446.76L157.05,451.75L155.13,450.46L155.87,442.31L153.17,441.82L164.01,427.44L154.30,424.62L147.58,429.46L141.37,425.30L130.25,426.97L126.80,423.55L127.73,432.65L134.68,442.31L131.99,440.83L133.92,443.80L132.12,442.04L125.14,429.11L116.94,421.23L118.62,413.98L114.71,405.28L116.83,390.02L123.96,377.46L121.96,373.59L127.35,356.96L126.96,346.53L129.48,348.28L133.92,360.96L138.53,361.95L135.31,364.00L138.36,369.36L146.63,365.95L145.45,368.99L150.29,368.91L152.49,364.63L154.11,369.88L158.86,371.74L162.93,369.10L164.74,360.55L166.84,360.88L172.26,379.80L180.23,379.77L185.03,376.33L188.57,377.47L192.93,375.71L191.02,373.32L197.60,372.27L201.04,372.37L200.22,375.13L202.20,376.12L210.69,376.33L208.39,375.30L212.20,372.87L205.89,372.86L202.05,360.62L208.27,358.70L214.20,362.40L212.62,365.95L214.71,366.47L224.00,364.37L230.76,355.23L226.14,347.57L231.18,350.03L221.78,338.77L192.13,317.36L188.45,297.31L182.27,287.14L182.73,275.72L177.76,271.27L170.05,269.86L148.37,274.57L140.89,272.77L129.43,281.41L118.67,303.77L122.14,301.90L126.96,303.87L121.16,325.23L126.58,343.81L125.04,349.04L118.21,325.35L107.01,315.08L108.72,305.93L100.00,298.47L130.46,271.11L154.88,261.58L194.87,255.83L229.54,276.79L239.04,285.19L241.50,295.08L257.13,318.46L271.21,333.38L280.06,333.55L295.52,329.04L357.46,334.29L365.97,326.05L361.06,324.09L357.99,318.95L354.66,305.83L355.67,287.88L363.39,283.75L368.59,275.17L378.41,268.43L391.78,269.55L404.77,266.42L403.47,263.81L409.67,254.63L408.05,249.11L414.09,244.09L431.49,249.01L434.85,252.19L435.58,259.43L440.82,258.73L430.43,242.00L420.02,235.07L427.73,230.35L443.29,232.88L446.29,222.98L463.55,240.61L477.72,242.13L482.10,246.91L484.05,255.11L493.51,259.51L518.28,258.25L527.39,265.83L524.37,273.09L525.65,279.51L520.54,282.70L530.80,286.12L540.03,296.21L531.57,295.11L528.57,298.13L535.08,310.34L529.84,315.45L529.14,321.26L531.11,324.49L552.72,337.34L574.24,334.38L580.87,338.01L582.69,335.52L587.72,336.47L597.95,341.31L606.50,330.95L618.95,334.63L631.54,343.65L637.25,352.78L640.49,371.79L645.97,383.27L649.22,388.98L658.31,393.95L663.91,424.45L671.81,433.06L721.61,468.35L734.66,483.71L759.51,501.19L770.02,499.64L786.78,516.06L806.08,525.61L818.89,537.39L841.35,552.76L849.01,553.72L856.70,550.18L876.65,559.17L886.63,566.85L896.88,569.01L900.00,573.87L892.85,585.68L891.43,604.55L894.42,609.72L890.10,618.49L880.22,618.38L872.82,615.07L850.21,600.48L848.97,604.05L844.42,605.41L842.47,617.37L837.56,623.75L810.89,625.48L796.52,632.55L793.83,635.66L794.11,649.27L784.36,669.81L784.49,684.07L777.92,695.11L768.12,699.46L766.01,703.74L759.96,703.18L754.25,707.16L753.57,714.88L744.82,712.64L737.85,716.43L727.50,717.75L718.94,724.12L700.58,725.18L701.03,731.45L706.79,736.56L699.04,741.96L699.24,755.55L690.12,759.09L677.47,769.21L668.57,770.74L662.73,766.88L654.53,777.02L651.57,765.93L638.84,755.42L616.16,756.02L604.25,747.11L601.90,741.74L597.29,742.41Z M133.35,493.09L136.54,490.92L134.70,495.59L137.41,515.27L133.35,493.09Z M154.14,456.10L157.77,464.38L165.45,460.87L162.70,451.34L157.33,451.23L154.14,456.10Z" fill="currentColor" fill-rule="evenodd"/></svg>
