<svg xmlns="http://www.w3.org/2000/svg" viewBox="0 0 1000 1000" role="img" aria-label="Map of Turkiye"><path d="M842.77,381.93L843.73,389.10L851.07,393.90L854.60,403.07L854.04,411.18L847.87,418.39L854.63,434.97L852.29,438.15L867.63,443.61L879.88,442.21L888.10,447.64L900.00,463.42L889.92,456.65L885.48,460.28L882.49,475.54L866.90,477.71L869.52,487.06L874.08,490.01L872.63,499.71L877.77,506.22L876.49,516.14L878.69,518.11L878.38,531.01L883.37,531.04L885.45,533.37L874.72,557.08L881.62,559.07L884.51,564.03L887.44,563.41L891.19,566.80L888.88,571.29L890.82,573.91L889.93,581.26L899.77,589.57L898.29,597.67L891.78,595.71L878.18,606.95L873.80,600.59L876.65,596.18L876.10,592.57L869.96,588.57L865.87,588.50L858.31,594.56L844.53,592.22L829.29,585.35L821.86,588.09L815.31,585.12L805.48,597.72L797.63,599.38L797.19,592.41L791.52,587.83L783.08,595.86L760.96,601.23L749.32,601.80L736.58,598.70L728.75,599.90L689.31,619.15L667.34,623.50L645.84,621.74L635.60,613.05L624.91,610.22L592.40,624.95L583.86,623.64L575.97,625.72L572.28,618.52L558.70,614.53L554.16,633.29L559.96,646.28L550.80,648.29L547.55,646.80L546.92,659.36L540.19,661.63L537.75,668.72L532.13,666.07L531.14,662.97L528.26,663.46L530.94,658.04L523.08,642.68L540.79,624.51L539.86,615.95L532.81,609.25L523.83,617.38L515.53,619.25L514.39,622.22L517.26,619.63L519.81,620.35L516.19,622.45L515.61,624.27L519.24,621.08L516.23,626.66L510.65,626.04L512.36,627.72L508.79,626.99L504.63,629.96L489.43,620.30L486.01,620.35L480.59,615.18L477.34,615.30L459.93,627.49L451.62,636.79L451.64,641.36L448.38,642.76L446.67,647.56L443.00,642.11L435.36,651.67L433.64,648.69L429.67,652.18L425.75,650.54L413.15,651.67L410.26,654.59L404.13,653.47L398.39,657.58L380.08,649.47L365.59,629.66L357.15,627.36L337.26,615.58L313.65,613.38L309.92,611.14L305.04,617.05L305.04,630.66L299.09,646.87L297.89,647.97L297.29,644.30L287.85,642.99L285.85,646.14L283.24,645.13L267.54,652.41L266.27,648.99L263.82,649.07L265.51,648.34L257.01,646.64L256.64,644.67L254.05,646.54L243.47,638.03L244.24,629.33L240.04,629.59L241.18,625.49L244.32,624.95L243.47,623.29L236.89,618.66L232.29,626.66L232.86,624.76L228.84,621.54L223.70,621.45L223.16,615.18L217.99,615.95L216.54,611.55L213.39,613.12L215.40,614.48L214.20,616.61L209.27,616.23L210.81,614.48L208.40,613.56L209.98,620.35L207.41,620.35L199.15,628.69L195.95,626.66L201.40,624.42L196.23,622.02L202.51,620.41L202.60,616.01L194.21,619.25L185.92,618.39L183.91,623.69L172.76,623.29L170.73,620.75L182.83,615.70L198.80,617.05L199.40,608.58L204.56,610.05L206.53,605.27L211.41,603.32L179.35,606.74L174.19,603.80L171.88,605.64L171.59,603.80L166.86,607.26L165.42,601.97L168.17,599.37L166.43,598.63L171.88,597.13L175.08,600.48L179.48,598.54L177.92,594.93L181.35,594.57L181.60,590.53L177.37,592.97L177.12,590.89L175.24,591.75L176.40,587.70L172.44,587.93L172.88,583.11L169.67,586.40L163.83,586.09L164.57,573.22L156.34,569.52L166.29,565.29L165.85,552.20L161.76,552.30L154.83,548.05L150.56,549.67L145.84,539.91L140.65,540.61L138.94,545.97L135.77,541.90L131.52,540.80L130.38,537.49L128.87,539.29L123.81,536.49L126.93,534.19L126.36,531.68L130.16,534.44L133.96,531.84L132.94,528.65L135.51,528.29L130.28,527.14L128.66,517.40L131.38,515.04L135.20,516.48L140.42,523.65L138.65,529.05L142.20,535.04L143.42,528.44L147.30,532.28L162.72,527.55L153.16,528.18L148.12,522.38L151.26,524.25L149.55,519.45L144.12,516.48L144.12,512.81L151.83,512.08L151.57,507.67L154.22,508.23L154.14,506.17L158.48,503.89L157.59,501.03L150.27,502.47L147.77,500.49L147.24,496.63L150.65,492.93L144.11,483.68L139.53,483.02L152.93,471.60L153.26,466.92L124.49,472.79L118.79,473.13L117.00,471.14L120.62,462.92L121.08,445.49L127.07,443.02L131.12,433.66L135.00,432.63L144.81,422.38L155.50,423.19L159.89,419.76L167.85,418.91L168.17,422.24L174.76,426.76L187.73,427.12L192.78,423.31L188.95,422.96L184.46,417.41L187.62,415.21L199.09,418.57L193.64,422.58L195.34,424.40L212.19,422.36L241.60,424.33L245.77,420.74L242.18,418.17L235.96,418.76L230.00,415.98L230.77,414.34L238.87,409.42L259.94,404.99L262.84,406.93L278.69,404.57L267.28,401.96L255.23,403.41L252.62,399.76L250.08,400.50L250.47,397.33L239.76,388.69L246.53,377.80L286.95,382.60L293.03,378.75L316.05,386.03L332.68,385.38L339.43,380.20L339.88,373.32L371.57,357.44L375.81,351.63L420.16,335.56L477.39,339.49L485.54,336.17L488.01,331.28L491.17,331.61L493.58,335.02L499.21,335.32L495.05,336.22L494.02,340.45L502.64,351.89L514.27,356.49L530.16,350.76L528.42,355.60L530.83,351.17L533.84,352.63L537.58,358.13L537.58,365.51L548.47,376.55L553.61,376.21L557.87,370.17L563.64,370.64L573.12,374.50L575.41,380.57L579.42,382.45L586.26,382.78L595.68,388.33L599.16,387.62L602.58,382.78L606.51,383.74L606.56,387.10L611.19,391.29L629.37,394.74L638.08,394.26L642.16,391.62L645.53,392.76L653.50,388.30L664.36,386.04L668.75,387.62L675.31,384.28L683.66,389.87L687.84,389.41L694.76,392.76L699.09,391.29L705.09,394.48L718.55,387.62L722.41,388.05L733.70,379.69L737.65,380.08L757.22,369.94L762.67,362.69L770.27,364.05L774.88,367.66L780.52,363.16L802.05,367.12L806.32,359.85L810.32,358.71L816.96,359.57L814.73,363.22L817.38,364.94L818.97,363.45L832.18,374.26L828.80,376.96L834.12,381.05L842.77,381.93Z M198.35,338.06L199.53,342.49L196.71,342.64L196.48,346.14L207.38,362.44L235.61,376.00L244.00,377.68L239.12,389.89L223.78,392.03L220.72,386.00L220.27,390.89L204.56,385.75L195.20,391.88L186.69,389.65L177.77,390.91L167.89,406.26L142.63,419.59L139.21,425.47L128.51,433.33L129.78,435.82L120.65,441.10L125.44,431.69L123.23,426.26L148.71,411.72L147.10,408.57L135.20,411.90L117.89,411.53L116.32,408.57L115.46,404.57L118.76,403.93L123.52,395.74L129.08,392.23L127.47,377.10L140.47,371.11L138.96,357.41L128.00,352.01L128.04,347.90L136.06,346.03L139.38,338.34L153.31,336.79L157.81,332.13L163.13,333.52L167.28,331.66L178.70,341.90L184.57,338.27L189.93,339.45L189.79,336.87L198.35,338.06Z M108.40,453.66L117.67,460.41L120.55,459.08L121.13,449.74L117.50,448.13L109.51,449.85L108.40,453.66Z M114.58,435.12L104.29,438.85L100.00,437.29L104.00,432.96L110.98,431.02L112.53,435.63L114.58,435.12Z M182.97,406.30L175.67,408.17L177.11,414.15L182.31,415.49L188.99,411.45L187.64,408.05L182.97,406.30Z M176.89,413.71L174.87,419.82L177.86,423.37L185.60,424.80L188.51,421.33L185.69,413.86L181.33,411.51L176.89,413.71Z" fill="currentColor" fill-rule="evenodd"/></svg>
