<svg xmlns="http://www.w3.org/2000/svg" viewBox="0 0 1000 1000" role="img" aria-label="Map of Tuvalu"><path d="M748.74,711.78L751.46,706.84L750.47,694.39L754.31,707.19L748.74,711.78Z M579.51,611.54L581.64,602.27L578.47,599.54L573.91,608.84L576.35,613.22L579.51,611.54Z M311.79,426.53L314.06,430.02L318.09,431.04L321.74,429.05L322.27,421.02L319.57,417.78L315.38,417.28L311.99,419.79L311.79,426.53Z M148.04,232.66L146.23,226.29L141.14,224.54L136.65,226.35L134.78,229.96L136.18,235.22L140.38,238.36L145.50,237.25L148.04,232.66Z M364.77,191.06L354.31,187.81L351.82,190.51L352.44,195.54L357.00,198.57L363.75,197.39L364.77,191.06Z M99.16,106.39L104.72,110.64L108.95,106.89L100.43,96.66L95.98,100.13L99.16,106.39Z M895.09,892.73L896.50,899.95L900.94,902.50L903.30,898.10L901.71,891.31L897.71,888.77L895.09,892.73Z M887.11,881.30L891.98,891.64L898.23,889.40L897.95,882.45L893.82,878.41L889.84,878.41L887.11,881.30Z M645.64,480.81L640.16,476.26L633.85,477.24L633.92,482.76L640.97,487.88L646.47,486.44L645.64,480.81Z" fill="currentColor" fill-rule="evenodd"/></svg>
