<svg xmlns="http://www.w3.org/2000/svg" viewBox="0 0 1000 1000" role="img" aria-label="Map of Uganda"><path d="M269.32,843.85L227.01,842.85L224.19,852.80L202.86,872.53L200.28,882.03L170.95,900.00L162.84,897.28L155.03,879.06L147.97,885.01L142.34,882.47L120.30,888.12L117.03,823.50L124.92,814.42L126.05,777.24L130.85,772.49L127.53,755.18L139.46,694.06L137.88,682.82L146.06,668.81L151.10,669.85L157.06,642.63L171.24,622.97L168.29,606.14L172.19,577.12L201.35,565.31L210.64,550.07L213.16,533.36L246.79,518.94L275.37,482.16L323.72,443.10L358.23,397.46L359.49,390.38L346.80,380.81L345.04,369.37L327.85,371.15L315.60,354.96L310.38,354.94L302.08,365.27L292.68,350.90L279.43,349.39L282.90,328.59L299.49,292.01L298.17,280.85L284.10,263.61L292.58,236.83L307.45,216.12L305.53,198.33L297.55,202.52L312.29,175.94L339.97,161.07L350.27,160.05L393.67,179.21L416.58,171.23L429.38,156.67L446.80,172.43L450.75,187.32L464.82,189.06L471.28,196.48L484.18,199.42L486.96,184.39L512.82,168.67L566.85,163.33L600.69,146.96L624.18,164.17L670.01,166.04L738.35,100.00L742.41,101.96L751.30,118.50L750.15,129.78L756.61,136.57L753.48,148.11L770.36,148.50L762.49,155.79L766.72,159.53L762.99,162.40L775.42,161.28L780.75,171.67L788.92,168.17L803.34,177.57L802.61,197.46L795.14,204.39L802.54,245.83L816.57,254.76L823.71,281.43L831.55,291.06L837.81,288.14L844.14,292.09L856.59,327.90L864.59,328.85L871.32,344.86L863.50,354.11L863.18,363.10L877.49,397.62L876.73,415.06L882.97,423.62L879.21,430.17L878.22,460.53L851.01,497.87L853.67,519.88L837.64,523.09L823.12,531.04L820.42,539.35L809.99,540.88L796.08,578.36L783.49,586.30L776.99,600.96L762.58,608.17L752.20,633.67L753.54,644.24L726.61,677.57L735.04,714.70L726.79,786.14L728.11,833.90L288.78,831.55L269.32,843.85Z" fill="currentColor" fill-rule="evenodd"/></svg>
