<svg xmlns="http://www.w3.org/2000/svg" viewBox="0 0 1000 1000" role="img" aria-label="Map of Ukraine"><path d="M510.51,275.89L531.62,277.07L533.91,281.84L550.21,276.88L554.18,267.15L553.58,262.14L578.23,267.56L590.38,259.06L603.59,259.70L604.91,264.43L612.80,259.83L617.95,259.91L629.55,273.11L630.92,287.05L639.72,292.29L644.96,298.77L643.35,303.43L630.60,306.26L636.57,316.49L634.90,324.61L639.97,326.35L640.35,328.62L634.90,334.39L653.65,335.40L656.60,339.87L674.52,337.17L677.40,347.22L686.78,349.44L683.37,351.66L683.67,354.91L686.19,356.83L691.83,373.49L687.79,376.64L689.90,384.81L695.03,388.21L698.16,394.83L701.95,395.27L708.19,390.01L720.10,390.16L727.34,399.57L733.60,398.01L739.21,400.50L739.13,403.71L741.78,404.75L753.07,396.72L768.53,394.11L772.44,390.55L778.21,389.43L781.09,395.62L786.37,398.93L786.28,405.26L792.08,413.22L800.43,418.30L804.18,425.27L811.54,422.53L811.88,414.47L817.47,414.45L819.96,419.83L826.24,422.01L833.66,420.87L834.66,424.33L845.76,431.76L850.72,431.28L855.45,427.04L860.12,435.73L873.28,437.11L876.19,444.56L884.11,449.36L892.84,444.91L898.05,446.10L894.47,453.07L900.00,463.41L899.21,469.33L890.79,477.49L889.31,482.66L879.53,483.97L878.45,487.89L882.21,492.93L890.72,495.80L894.44,493.59L895.26,496.01L891.82,500.05L883.13,498.84L876.58,513.71L886.49,515.78L886.03,520.68L889.55,527.91L884.75,532.49L891.98,533.70L892.51,536.15L885.96,545.18L885.95,550.79L882.26,552.24L883.87,555.85L881.11,565.64L843.09,562.59L839.50,565.37L836.76,574.99L818.32,580.77L812.54,600.33L817.11,601.27L817.39,603.36L813.19,607.65L813.78,613.65L810.48,618.07L808.96,618.83L809.93,615.58L807.34,613.88L784.03,615.11L774.66,628.52L769.86,624.85L753.29,634.05L749.55,645.03L751.02,639.15L746.30,635.43L733.16,639.20L727.76,647.05L723.81,642.90L711.04,644.00L692.84,657.79L678.21,679.33L670.23,682.72L673.00,678.41L679.92,675.64L686.21,665.35L686.38,663.65L682.90,664.32L683.65,658.50L679.38,653.45L680.32,661.26L675.84,667.91L672.39,671.01L666.30,671.01L662.70,676.07L669.95,707.01L661.66,701.19L661.45,694.75L657.21,689.72L647.27,690.97L641.47,683.27L629.66,680.91L619.82,674.78L612.02,673.28L611.58,677.99L606.67,678.78L605.18,684.85L601.08,684.38L598.15,680.97L595.15,681.59L596.28,679.14L591.79,679.33L592.70,672.89L587.72,678.81L583.31,676.52L583.08,679.37L571.90,678.83L560.23,682.84L549.54,679.33L549.84,674.19L543.60,673.84L532.82,666.41L532.67,669.17L529.06,668.76L529.01,664.91L536.48,664.32L540.64,661.44L538.24,657.72L526.73,654.29L524.15,655.73L523.98,659.01L516.07,648.39L519.32,651.24L527.08,650.63L551.98,656.69L555.63,655.75L557.23,651.38L566.54,644.21L552.79,650.10L548.91,647.05L544.38,650.23L543.12,647.09L538.90,645.59L535.24,636.85L538.22,626.32L537.71,624.62L535.05,623.65L536.87,619.98L531.91,618.83L533.31,614.36L530.37,608.03L527.14,606.04L526.43,603.15L525.77,605.75L529.29,607.63L529.71,612.35L532.31,614.29L530.68,620.04L535.54,620.67L533.43,624.39L536.48,624.85L535.45,630.07L531.89,633.63L533.43,644.21L515.39,645.61L520.95,633.17L516.07,637.77L513.07,634.05L515.96,639.44L511.98,645.59L508.50,647.47L500.59,645.60L484.22,650.72L483.41,661.26L478.06,664.76L479.42,667.79L471.06,682.55L455.28,700.11L454.79,695.29L453.33,700.44L448.72,698.27L447.04,703.33L445.86,700.51L446.13,706.55L444.15,703.79L440.37,705.65L442.93,710.27L437.32,713.95L435.55,702.70L433.08,699.67L430.92,717.67L436.13,716.71L431.64,723.12L436.41,725.94L437.25,723.28L437.14,739.31L434.69,740.94L433.61,732.01L423.87,726.34L414.88,726.78L401.64,736.53L395.42,733.68L394.09,736.86L396.00,738.88L391.89,740.04L375.03,733.58L373.09,726.92L369.23,724.22L372.38,720.20L382.65,721.06L384.20,716.27L381.41,711.01L385.97,704.00L390.10,702.97L393.14,698.91L393.23,691.12L402.84,687.87L402.04,681.95L405.44,675.67L401.80,670.52L402.35,657.33L412.93,651.72L413.66,663.91L417.33,661.20L418.37,656.17L421.38,659.93L425.06,655.32L426.10,659.33L432.08,663.59L436.45,656.23L441.51,665.10L452.73,662.76L454.97,659.48L444.78,652.21L446.90,648.97L445.95,633.42L429.55,624.26L431.48,616.50L430.06,614.45L427.84,616.57L425.96,613.09L428.93,611.47L429.45,598.78L426.10,597.82L422.93,601.76L415.08,590.54L411.66,590.29L409.97,584.68L415.34,569.68L412.65,567.41L415.23,561.95L412.41,560.59L410.26,554.86L402.55,557.64L397.32,551.57L395.85,545.71L385.83,542.81L383.42,543.20L381.66,548.87L378.64,541.75L374.46,544.13L376.25,537.17L370.01,539.22L368.30,535.81L364.51,537.25L363.77,532.03L357.11,530.38L350.85,523.50L343.82,522.85L341.87,520.50L333.90,525.53L331.18,523.87L325.25,528.95L317.66,526.32L317.46,528.98L313.48,529.58L308.54,526.88L306.12,528.58L305.98,533.90L301.79,531.00L297.69,536.45L285.09,538.96L283.63,546.94L279.30,553.71L238.86,560.08L230.79,570.56L222.65,572.78L206.92,557.03L201.02,556.47L193.11,560.18L183.25,555.86L176.44,557.67L173.10,554.09L163.48,552.86L158.93,555.18L144.66,546.63L141.28,552.74L138.68,554.39L135.12,552.92L133.05,556.83L129.67,547.12L127.20,545.41L120.97,546.71L115.47,536.90L109.95,536.87L105.50,529.18L106.17,526.07L100.00,525.98L100.26,514.88L107.88,507.33L110.48,495.55L114.03,487.81L117.20,486.36L118.05,481.02L132.58,485.21L131.44,479.49L124.36,475.02L126.85,467.33L122.55,450.27L123.65,447.66L142.99,421.41L168.76,393.72L182.03,391.26L183.33,385.33L187.64,382.09L186.46,370.49L180.98,364.09L189.22,360.83L181.95,355.37L176.81,341.17L166.67,330.64L169.44,323.92L165.47,316.72L165.85,309.07L171.75,307.75L182.03,311.69L193.70,302.78L200.20,291.88L214.90,291.73L233.37,287.24L261.32,288.62L289.72,293.86L291.39,296.89L301.16,297.18L309.55,300.68L322.70,300.18L324.39,306.45L328.31,307.30L327.87,311.59L337.18,309.15L346.74,311.47L345.47,317.96L347.70,319.92L352.89,309.87L358.37,313.39L363.52,313.60L369.70,307.24L375.19,315.57L380.85,312.65L387.18,313.87L388.66,320.87L392.72,324.13L395.87,315.28L403.90,312.80L407.56,308.68L411.87,310.52L418.95,326.54L425.45,325.22L433.06,318.09L441.53,322.20L444.09,319.85L455.73,318.53L463.34,324.08L464.89,330.60L473.08,335.32L477.78,326.41L471.99,310.50L482.05,290.68L490.90,284.22L489.91,279.81L497.79,278.44L503.67,281.22L510.51,275.89Z M437.19,715.49L452.49,701.95L454.72,700.67L445.05,710.44L437.19,715.49Z M565.38,683.93L584.82,686.27L584.05,687.15L565.38,683.93Z M520.95,670.51L541.03,675.68L545.27,677.91L519.27,670.27L515.90,662.82L520.95,670.51Z" fill="currentColor" fill-rule="evenodd"/></svg>
