<svg xmlns="http://www.w3.org/2000/svg" viewBox="0 0 1000 1000" role="img" aria-label="Map of United Kingdom"><path d="M446.50,522.63L454.54,524.14L458.33,513.46L466.97,514.70L478.55,509.51L494.13,512.17L496.78,515.42L495.74,522.28L499.64,524.49L498.89,529.04L503.05,532.03L506.61,540.81L510.14,543.52L506.73,539.07L508.64,538.17L511.21,542.83L509.57,547.56L502.86,551.67L502.17,556.55L508.80,551.08L515.99,551.10L519.98,559.19L521.85,567.12L518.44,576.11L515.91,571.38L516.69,563.40L510.71,558.59L510.14,561.59L513.88,563.08L512.02,563.85L513.88,568.58L510.42,575.11L515.79,572.78L517.00,574.11L516.89,579.00L512.63,584.04L504.05,583.98L502.74,593.18L495.02,598.31L490.60,594.06L483.58,592.75L482.64,596.21L472.12,597.78L470.38,595.83L471.71,588.55L465.59,585.99L461.66,580.56L461.77,575.86L456.03,570.62L448.77,576.36L450.40,584.44L446.42,586.40L445.13,591.61L444.49,588.76L442.93,589.91L443.87,592.45L439.54,590.18L431.46,590.61L427.48,586.18L421.18,585.38L420.19,579.85L407.99,567.07L415.12,561.09L419.91,561.92L427.35,556.65L421.60,554.66L418.14,549.88L421.62,547.37L424.75,549.20L434.20,546.59L439.93,527.44L446.50,522.63Z M648.60,763.70L628.85,780.31L624.03,779.08L615.80,787.11L615.30,791.17L600.58,791.11L592.33,784.35L588.01,774.79L582.40,775.50L582.48,779.08L580.33,779.73L569.38,779.62L569.38,775.12L571.67,773.08L572.24,774.62L577.63,773.45L578.50,770.81L568.33,770.70L565.67,767.09L568.53,766.59L566.36,765.92L566.26,762.54L562.90,763.70L562.28,766.44L554.61,766.71L551.83,772.71L545.55,773.14L542.33,776.62L534.90,770.63L546.32,768.04L544.90,764.52L547.18,762.05L542.64,763.55L543.59,767.72L533.67,767.73L532.28,769.84L529.51,766.59L535.29,763.31L534.64,757.64L526.95,757.06L527.48,753.63L534.91,750.12L536.96,745.19L546.46,746.03L551.50,738.82L553.44,739.99L554.94,736.98L560.56,736.99L568.30,731.29L576.87,720.40L579.08,708.39L583.62,706.94L579.22,707.44L576.21,702.95L581.92,693.41L579.40,694.34L575.24,687.72L578.20,679.34L564.53,681.84L559.97,689.37L556.72,687.38L549.73,689.37L556.66,679.21L566.54,671.89L567.26,665.73L574.03,658.06L588.44,652.83L586.48,649.29L593.22,652.99L597.96,652.85L609.26,648.25L619.33,656.81L615.24,645.25L620.56,642.18L627.91,652.88L632.31,652.04L635.46,648.25L631.30,650.50L626.10,648.38L618.75,633.16L627.18,620.19L620.94,617.70L620.63,607.70L628.88,603.21L630.04,599.67L627.32,600.67L626.38,598.33L631.46,591.68L629.04,586.64L631.46,582.65L625.51,589.50L623.08,589.17L620.94,584.60L616.94,596.17L612.97,592.64L614.36,581.60L613.33,586.03L610.23,586.80L606.05,580.53L605.80,575.76L596.63,563.33L606.86,536.23L612.40,535.03L609.80,533.53L611.49,531.84L617.88,532.62L622.07,529.49L599.27,528.04L598.81,536.21L589.23,538.29L589.03,536.03L587.33,539.07L588.75,540.52L580.94,544.65L578.77,540.02L576.32,544.30L572.74,540.41L573.09,537.48L570.18,539.45L564.69,534.48L564.09,538.97L567.11,542.73L565.54,551.10L545.73,537.48L541.75,541.98L545.73,554.55L541.80,552.59L541.76,547.56L533.35,536.54L532.78,527.07L535.09,525.39L537.35,532.74L540.06,533.53L537.79,525.74L539.55,517.38L545.39,511.43L546.84,503.48L555.76,491.45L552.64,483.44L543.18,475.88L545.65,472.35L544.59,460.44L548.21,457.64L561.41,459.81L553.44,457.35L547.18,448.82L549.06,455.14L546.04,455.44L545.47,449.68L550.03,439.46L546.04,446.33L543.18,442.28L544.34,455.31L541.76,454.81L543.46,457.35L540.58,464.00L538.11,462.99L534.74,453.84L536.28,461.78L532.37,456.81L529.82,462.40L531.52,466.89L527.55,465.34L525.82,454.81L531.38,445.83L543.18,434.25L537.19,437.79L524.56,453.87L521.41,452.55L520.97,457.81L526.67,470.43L519.51,480.56L520.97,484.41L515.58,496.44L518.06,501.47L514.27,505.28L507.34,504.77L511.58,478.37L520.97,465.84L514.97,471.81L512.43,469.38L511.87,465.84L516.15,459.35L511.96,462.83L510.94,460.71L516.15,451.82L510.48,458.76L515.88,447.47L517.79,448.25L516.66,445.00L518.70,440.79L514.70,444.33L519.40,435.52L515.27,436.29L516.08,430.57L521.26,428.26L517.54,428.26L520.88,422.32L531.20,421.88L537.19,413.23L531.52,420.77L524.16,421.00L522.82,417.73L520.40,419.77L522.11,415.23L525.05,416.55L529.82,413.23L522.68,414.73L526.67,406.20L540.06,402.20L533.20,403.67L529.97,402.15L534.90,394.71L511.87,418.22L507.87,415.23L508.75,412.73L504.37,414.30L497.98,407.59L505.00,408.74L503.90,406.20L508.30,403.31L517.28,403.70L508.71,402.30L502.61,405.19L491.60,404.96L488.58,401.28L499.77,397.16L504.46,399.93L503.05,397.16L508.43,397.16L504.51,393.94L512.43,390.71L508.94,392.09L507.30,391.67L509.31,389.17L501.60,389.17L504.46,388.71L505.32,381.63L508.49,379.48L512.51,382.93L518.13,381.13L513.75,382.02L507.62,375.88L513.04,371.96L516.68,374.08L523.24,373.64L517.41,373.64L511.58,369.88L515.85,361.92L522.95,364.61L519.02,361.12L521.56,358.07L515.84,361.12L509.57,359.62L512.68,355.54L514.40,356.41L519.05,354.29L521.26,350.58L516.46,354.87L513.28,354.08L514.13,350.95L510.49,355.11L506.31,355.47L506.17,349.08L503.61,345.32L505.00,339.06L513.28,344.05L512.72,342.55L518.57,341.82L512.43,341.60L506.39,334.42L507.02,330.52L511.87,329.52L506.47,327.02L506.17,320.49L507.61,317.95L510.84,317.86L514.70,325.07L515.56,320.62L512.72,315.99L514.42,313.50L519.64,318.83L522.63,315.01L530.67,319.49L523.55,314.27L524.66,312.45L536.93,320.49L530.67,314.04L531.38,311.20L522.11,306.01L521.30,302.12L527.38,303.16L527.52,298.43L529.82,297.47L523.58,289.17L527.66,290.67L534.50,288.44L542.64,291.97L540.62,289.94L542.92,288.94L537.79,289.28L532.68,282.40L533.93,277.95L539.20,279.90L535.80,277.95L537.79,275.10L540.06,276.36L535.49,271.31L540.37,262.33L546.69,264.04L547.43,269.92L549.16,263.88L554.00,267.63L549.81,275.52L557.12,266.29L563.71,268.33L560.85,275.41L567.14,268.87L571.67,269.92L580.22,264.76L585.76,266.92L598.15,262.42L607.85,264.35L605.82,260.34L607.40,258.77L608.83,260.88L622.19,261.46L617.61,270.79L620.77,274.22L617.59,281.28L581.35,313.00L577.92,310.91L581.92,315.00L581.04,317.95L569.01,318.32L565.12,315.00L568.64,319.15L579.77,321.59L582.11,319.82L584.97,322.35L590.59,318.84L581.92,330.52L579.64,327.50L569.18,331.68L563.62,339.19L573.04,332.06L577.41,333.29L581.04,331.07L577.07,339.06L570.52,341.05L572.79,342.05L571.08,345.04L579.97,340.70L577.94,338.56L588.18,338.06L597.00,333.01L596.15,334.51L598.42,334.51L597.57,332.56L600.72,333.01L602.54,329.27L605.98,328.52L621.53,332.53L626.47,330.02L646.55,332.56L664.63,330.02L671.62,336.56L674.53,346.79L665.35,358.07L656.79,387.68L646.82,399.62L643.15,411.30L634.30,420.22L620.46,421.52L613.08,427.67L609.54,427.80L613.40,428.52L627.76,421.07L631.18,423.26L631.18,429.30L640.57,434.25L631.97,440.52L624.46,439.52L617.68,445.58L616.19,449.89L608.74,452.58L595.08,450.84L588.18,446.78L595.71,453.82L619.73,458.45L625.48,456.81L630.33,450.19L638.14,450.32L640.28,454.36L643.43,453.82L651.75,459.32L658.80,460.81L672.16,481.41L679.87,484.91L684.57,516.21L691.02,530.28L694.64,546.10L698.93,549.55L697.62,555.07L699.74,555.99L700.35,553.55L724.25,565.93L732.25,582.72L744.50,592.64L738.52,599.17L741.36,608.20L753.19,626.97L753.09,632.04L752.64,628.77L749.08,626.72L743.81,627.82L736.82,620.19L725.02,622.09L721.17,620.44L717.45,622.73L721.90,621.91L725.62,624.41L736.03,622.26L739.80,628.60L756.76,643.29L762.46,663.32L761.35,667.65L748.07,682.28L752.03,682.07L757.89,688.92L761.17,688.37L763.62,690.92L767.82,678.84L771.31,676.22L789.77,676.89L787.78,675.85L800.61,679.16L815.96,690.37L820.24,701.39L821.24,711.58L815.40,727.33L813.39,741.15L808.81,743.00L803.00,751.50L795.75,745.03L800.60,749.97L792.07,750.52L800.91,751.02L797.49,756.06L801.10,755.77L800.68,758.47L791.91,763.55L788.36,758.55L783.95,765.60L776.67,767.59L779.25,769.59L786.29,765.87L786.06,777.22L779.69,781.62L766.59,783.28L763.62,787.11L769.87,784.29L776.51,785.36L777.69,787.58L770.68,790.11L777.26,792.15L777.83,789.61L779.40,793.60L788.25,794.71L807.82,792.25L804.89,796.39L805.17,809.16L791.97,815.54L787.80,821.51L788.36,826.24L779.32,825.31L773.58,830.59L762.82,833.49L758.90,838.73L736.43,832.59L716.13,836.56L714.82,840.00L710.07,836.94L711.75,834.28L708.61,831.72L705.23,831.69L702.65,836.27L703.21,831.69L699.24,831.69L699.81,836.24L686.71,826.24L692.90,834.86L684.28,837.73L682.77,840.80L677.29,839.27L667.03,842.86L662.92,839.27L661.10,842.27L663.05,841.22L666.50,843.91L665.98,849.35L647.98,846.17L645.42,849.03L645.70,854.80L644.44,850.21L628.60,839.72L612.18,844.05L607.68,848.26L603.68,843.76L604.98,848.76L601.96,855.30L602.73,859.79L599.87,861.79L602.73,863.79L596.72,870.55L595.53,877.22L590.20,877.86L583.05,869.82L579.17,871.42L577.07,866.28L574.30,865.39L574.80,859.79L573.09,859.79L571.93,864.33L569.38,864.33L573.38,865.82L573.38,869.82L567.40,866.28L560.85,869.37L553.44,870.32L552.58,868.27L549.71,869.83L548.18,876.60L542.07,878.81L539.77,882.85L537.67,879.07L538.07,882.85L534.64,886.34L537.53,888.96L531.93,896.38L527.23,887.52L520.14,883.85L517.40,885.09L516.46,889.03L510.57,889.56L511.43,881.58L518.64,877.34L521.68,879.18L526.79,874.84L533.65,867.78L533.49,864.17L537.79,862.04L539.23,854.04L542.07,852.25L542.64,855.34L546.32,855.79L543.18,850.30L548.50,849.86L550.18,844.38L557.44,836.73L559.55,819.16L567.40,820.50L572.79,814.67L571.93,806.18L591.02,802.13L606.98,806.63L621.76,804.13L622.07,806.18L624.03,792.15L635.61,782.76L648.60,763.70Z M692.85,836.92L703.50,843.27L699.59,845.79L699.09,849.25L694.49,850.79L685.90,844.44L682.42,845.26L692.85,836.92Z M705.89,827.66L700.03,836.15L701.40,839.27L711.32,840.74L713.57,837.95L712.08,830.80L705.89,827.66Z M786.63,787.55L778.58,784.86L775.99,791.89L780.68,795.94L786.57,795.91L789.19,792.21L786.63,787.55Z M554.25,646.56L549.15,649.07L548.51,651.84L558.71,660.34L561.64,658.21L561.76,654.59L559.15,648.82L554.25,646.56Z M572.98,652.15L579.65,651.83L572.20,660.66L564.53,664.42L565.43,660.63L562.83,662.32L560.85,660.82L557.70,653.83L557.70,645.25L567.94,643.29L572.98,652.15Z M481.86,506.13L491.81,512.87L494.52,510.32L495.82,505.66L493.97,501.80L483.00,502.91L481.86,506.13Z M536.93,490.45L534.98,495.54L525.51,492.40L523.55,480.41L527.52,474.83L531.63,476.19L535.96,486.26L534.90,489.40L536.93,490.45Z M539.20,474.95L536.62,463.32L531.48,461.02L539.20,474.95Z M492.50,458.85L497.35,477.83L486.38,485.40L485.06,481.75L488.22,479.42L484.81,475.38L487.93,470.88L484.66,470.42L479.08,478.37L477.40,477.87L479.82,465.62L484.55,462.61L485.40,467.84L485.98,464.28L492.50,458.85Z M486.14,445.02L483.05,452.73L484.70,455.21L491.55,455.50L495.02,452.69L496.64,444.76L491.81,442.28L486.14,445.02Z M498.51,455.58L510.13,443.36L511.29,445.49L499.90,468.84L495.73,468.50L495.20,460.71L503.05,456.31L498.51,455.58Z M507.72,435.68L504.11,439.68L503.78,444.98L506.73,447.83L510.84,447.80L516.85,443.67L516.99,439.64L512.65,434.53L507.72,435.68Z M509.68,433.49L509.55,442.64L515.49,444.46L518.66,437.38L517.67,433.44L514.32,431.07L509.68,433.49Z M516.44,438.97L520.57,429.33L518.57,426.51L510.31,427.29L510.00,437.62L516.44,438.97Z M514.83,431.50L524.19,424.73L520.26,418.62L514.68,420.19L510.32,425.62L511.38,429.48L514.83,431.50Z M495.24,416.94L489.83,412.90L484.47,415.33L482.52,419.01L485.24,423.81L491.62,425.07L495.03,423.72L495.24,416.94Z M456.91,416.17L457.72,422.44L462.49,423.44L469.50,415.20L456.91,416.17Z M511.27,422.76L512.55,425.30L509.03,424.26L507.30,427.80L510.68,427.90L506.27,431.24L503.30,430.75L503.61,428.40L495.58,433.41L487.23,435.29L483.11,431.00L485.43,429.16L488.05,431.77L497.46,426.62L491.92,428.31L489.88,426.75L493.06,421.77L497.91,420.22L497.63,417.73L493.03,419.87L491.08,416.78L484.27,414.19L486.26,412.73L484.81,410.23L492.04,406.89L495.90,407.74L499.88,416.08L506.87,416.78L512.93,421.82L511.27,422.76Z M478.81,403.06L473.71,404.51L467.78,410.33L469.52,415.59L474.19,413.78L480.72,406.25L478.81,403.06Z M435.57,375.68L430.74,385.27L437.99,388.21L443.18,384.88L443.79,381.24L439.12,374.40L435.57,375.68Z M483.27,375.06L476.81,380.97L484.86,388.16L489.31,385.66L490.68,381.48L486.68,375.34L483.27,375.06Z M472.56,382.18L482.05,379.22L480.10,373.09L470.96,373.61L468.68,376.57L469.36,380.24L472.56,382.18Z M504.27,363.72L506.50,358.79L505.28,355.59L498.84,353.08L492.98,356.02L492.91,360.49L497.08,364.95L504.27,363.72Z M440.40,353.58L448.65,359.07L446.10,364.11L442.10,363.66L445.51,365.61L445.97,369.74L442.38,370.61L447.80,373.10L442.10,374.14L437.84,364.11L440.58,358.61L438.98,353.08L442.10,351.58L447.52,356.57L440.40,353.58Z M438.96,344.43L437.18,349.48L441.92,353.78L450.39,352.49L449.11,344.96L442.15,343.01L438.96,344.43Z M496.24,357.90L499.12,356.18L498.74,343.97L495.06,349.56L496.24,357.90Z M504.43,344.20L503.96,336.55L497.52,335.01L494.20,340.81L495.01,345.51L499.11,348.35L504.43,344.20Z M448.91,333.51L454.07,335.06L452.65,337.01L447.80,335.06L452.36,338.06L451.55,339.66L443.80,341.05L450.78,341.31L450.22,344.05L444.08,344.05L443.54,341.05L434.13,338.06L436.97,333.01L440.68,333.01L440.29,334.96L443.80,331.07L442.95,333.01L446.10,334.01L449.22,331.07L448.91,333.51Z M474.88,356.08L469.40,354.77L465.75,348.04L468.30,348.04L468.57,343.82L473.11,348.96L472.12,344.73L474.88,344.59L471.11,341.05L471.71,337.01L480.84,343.55L479.89,345.73L481.69,343.32L485.40,347.59L481.05,334.19L485.40,330.02L491.93,338.31L492.78,346.59L490.51,352.58L493.06,351.58L494.20,357.12L491.93,359.07L496.44,358.88L495.08,361.12L497.97,360.45L502.45,363.66L507.97,361.14L512.98,362.07L511.17,367.56L498.04,379.35L498.87,372.78L504.75,367.65L498.89,368.65L496.49,364.61L494.64,372.11L491.49,366.70L485.09,369.65L486.82,366.65L483.96,367.65L483.96,363.66L481.36,363.63L478.29,358.62L481.02,356.96L484.86,358.65L479.08,356.08L476.27,351.04L474.88,356.08Z M446.82,335.01L451.64,334.21L455.77,329.85L455.54,326.14L451.85,322.79L445.30,323.85L441.99,329.36L446.82,335.01Z M393.86,327.52L398.02,322.84L397.29,318.44L393.69,315.81L387.33,315.76L384.55,318.89L385.15,324.65L388.82,328.17L393.86,327.52Z M461.51,317.71L461.16,311.37L455.48,309.12L450.77,311.50L448.29,318.16L450.64,321.52L454.67,322.20L461.51,317.71Z M458.54,296.72L469.12,296.55L470.60,292.84L465.30,285.69L461.52,284.29L457.89,286.02L456.62,289.85L458.54,296.72Z M462.03,324.53L457.57,327.67L451.57,320.22L453.47,321.99L460.34,317.95L458.33,315.99L463.74,315.45L463.46,313.00L452.08,309.00L459.49,304.46L454.35,305.46L455.77,302.47L453.63,303.74L452.08,300.97L452.08,294.97L456.05,294.43L455.49,290.39L460.62,292.43L459.38,292.86L462.60,300.47L462.19,294.43L465.14,293.49L467.71,295.97L468.85,294.43L464.31,287.44L487.21,270.84L491.39,277.61L489.38,281.40L491.36,282.95L483.11,290.94L487.07,292.45L492.06,289.39L491.67,292.43L488.62,294.81L481.69,292.93L482.82,297.97L472.59,301.97L481.41,300.47L481.69,304.96L483.68,305.46L480.68,308.00L475.68,307.01L479.40,310.00L475.99,314.04L472.15,311.45L472.59,314.50L470.86,313.50L468.85,308.00L473.72,304.01L469.72,304.01L466.57,308.00L470.86,317.04L465.62,315.69L467.49,320.61L462.89,320.49L462.03,324.53Z M618.22,248.54L622.57,256.38L627.00,257.76L630.89,246.25L627.36,244.17L621.05,245.05L618.22,248.54Z M618.14,249.67L613.40,242.39L608.82,239.74L604.25,243.46L610.24,251.97L618.14,249.67Z M634.30,237.28L635.18,240.09L630.30,243.81L626.02,242.11L623.76,238.07L614.56,241.30L613.51,232.33L610.96,238.78L607.74,233.97L609.53,225.83L615.39,224.39L623.21,229.79L618.13,235.28L622.48,233.88L627.75,236.82L632.10,235.86L629.73,238.78L631.51,240.56L634.30,237.28Z M634.15,221.71L633.67,231.14L645.79,230.48L646.55,227.81L641.27,220.66L634.15,221.71Z M625.89,227.45L628.37,220.99L627.04,218.93L614.93,220.47L618.16,228.08L625.89,227.45Z M627.22,222.03L630.20,227.20L634.32,227.37L636.62,225.97L636.86,217.01L633.92,213.78L630.85,214.12L627.22,222.03Z M643.26,213.54L642.64,211.98L638.45,213.35L635.26,221.67L648.88,214.67L647.72,211.10L643.26,213.54Z M621.06,216.30L626.19,216.97L627.34,220.12L631.89,217.02L624.81,206.93L618.00,210.15L621.06,216.30Z M679.58,202.02L686.67,197.73L687.00,192.02L684.53,189.29L679.15,189.00L674.13,193.77L675.76,200.99L679.58,202.02Z M709.44,122.52L719.25,119.73L718.00,115.56L706.66,113.38L706.01,118.03L709.44,122.52Z M700.09,133.59L704.66,129.05L700.89,133.95L703.25,133.03L703.16,135.72L698.93,136.59L702.96,138.54L700.36,140.75L702.36,142.08L699.94,143.81L698.08,142.08L696.97,144.58L697.80,147.07L699.53,145.58L698.08,149.12L699.64,147.93L700.94,151.07L697.23,154.16L699.24,157.61L696.97,159.11L697.73,163.01L695.81,162.19L694.68,172.68L690.47,168.69L695.18,153.60L694.90,148.45L693.11,148.80L694.96,144.08L692.41,147.07L689.00,143.08L691.56,146.57L687.16,150.59L684.18,147.90L686.71,146.12L685.16,144.21L684.27,146.48L680.13,146.12L677.41,141.16L686.08,138.87L686.71,141.63L688.52,138.16L690.96,141.08L691.81,136.59L695.27,136.05L689.67,133.49L687.56,126.01L686.14,128.55L686.14,126.51L680.77,126.66L684.19,121.29L687.18,124.80L690.11,124.56L686.14,122.56L688.69,117.52L692.98,118.56L693.56,114.98L692.12,126.51L693.83,126.01L690.70,132.60L696.38,129.55L693.83,127.55L697.05,125.59L699.78,130.50L696.91,132.09L700.09,133.59Z M706.36,108.54L706.36,115.52L703.50,113.53L705.51,117.02L703.21,117.02L705.63,119.76L705.10,125.22L699.69,124.83L698.61,116.33L700.35,114.53L701.79,117.02L701.35,109.74L706.36,108.54Z M713.95,99.07L710.17,99.60L707.60,103.35L707.43,112.58L714.50,112.17L713.51,109.55L717.03,102.23L713.95,99.07Z M482.15,905.27L487.63,906.27L492.15,902.23L492.56,896.69L488.52,892.88L483.01,893.59L479.33,897.65L482.15,905.27Z M478.12,898.35L482.07,903.32L486.73,903.41L490.37,899.67L489.48,893.13L484.82,889.91L480.62,890.72L478.12,898.35Z M547.56,806.72L549.89,813.02L554.11,814.31L558.30,811.91L559.47,806.73L556.44,801.25L552.29,800.43L548.69,802.64L547.56,806.72Z M686.76,160.96L694.96,162.53L697.51,156.10L696.03,151.69L691.82,149.43L688.83,150.45L686.28,157.84L686.76,160.96Z M662.31,145.01L656.48,147.14L654.30,152.70L656.60,156.50L662.26,159.00L665.72,157.53L667.89,151.46L666.58,146.96L662.31,145.01Z M701.63,144.45L696.55,149.45L698.49,156.06L702.82,158.27L706.56,154.44L706.74,148.36L705.19,145.09L701.63,144.45Z M711.70,129.74L701.78,132.82L700.15,138.01L701.75,140.69L707.11,141.73L713.22,136.43L713.95,132.75L711.70,129.74Z M184.81,341.36L185.46,335.56L181.53,331.34L175.68,331.48L172.05,335.92L173.00,341.58L176.74,344.43L181.31,344.31L184.81,341.36Z" fill="currentColor" fill-rule="evenodd"/></svg>
