<svg xmlns="http://www.w3.org/2000/svg" viewBox="0 0 1000 1000" role="img" aria-label="Map of United Arab Emirates"><path d="M870.44,268.03L892.79,270.45L897.78,284.86L900.00,384.91L890.96,385.92L887.51,400.09L864.68,413.10L852.69,430.18L841.43,425.86L830.31,407.64L832.59,401.75L841.05,406.30L832.59,386.09L819.03,386.67L802.73,401.75L805.91,446.11L796.19,461.61L798.65,485.85L804.69,492.55L795.50,521.59L825.05,523.35L835.82,548.84L804.05,562.32L777.38,559.12L745.74,570.42L758.02,586.59L759.31,605.71L707.29,724.29L701.53,747.27L700.79,800.62L689.72,815.27L263.16,757.67L100.00,545.08L102.53,493.34L109.31,522.23L115.66,512.87L120.34,523.13L130.01,510.60L133.46,515.80L138.44,563.56L158.31,570.13L162.33,565.35L196.07,569.80L226.96,562.32L265.84,535.89L270.12,525.39L283.62,537.95L327.87,538.49L337.65,533.38L347.87,541.41L361.07,541.52L364.20,532.56L378.93,545.64L410.90,541.79L434.85,555.09L483.02,551.84L523.58,537.24L556.96,514.22L566.88,517.16L574.31,510.30L584.03,492.72L584.03,482.00L593.14,484.61L588.66,477.01L598.81,482.00L598.30,477.18L572.66,465.90L578.42,461.98L580.62,465.90L584.03,459.54L592.66,472.60L600.05,470.77L609.14,454.44L605.72,450.17L614.83,441.96L610.29,426.86L620.90,416.77L628.74,418.87L629.72,411.90L683.38,377.86L716.70,333.29L722.69,339.76L719.81,345.54L724.43,344.11L720.25,329.21L730.17,321.71L730.53,315.40L748.35,305.49L761.43,275.19L760.95,284.17L773.96,282.92L783.47,266.98L809.95,250.48L829.47,230.40L825.72,238.99L828.24,239.82L830.52,228.47L841.30,216.29L843.01,210.32L837.44,215.19L849.07,187.02L863.27,184.73L866.73,195.52L859.43,230.53L864.82,241.08L859.69,247.03L860.34,258.33L870.44,268.03Z M879.57,320.43L870.87,334.26L872.80,341.59L893.52,332.22L894.31,327.20L879.57,320.43Z M887.75,335.56L888.40,329.27L886.05,326.97L878.34,325.33L875.85,328.24L882.18,338.76L887.75,335.56Z M465.66,539.91L441.20,532.27L477.89,513.42L480.37,520.80L497.32,532.15L483.96,537.89L476.11,531.26L465.66,539.91Z M534.94,522.16L521.92,514.04L522.36,505.48L534.53,512.97L534.94,522.16Z M262.77,507.59L271.92,495.48L278.54,504.31L268.77,517.38L262.77,507.59Z M390.41,515.68L367.41,511.23L391.56,502.26L397.73,505.35L406.07,488.24L410.01,501.32L390.41,515.68Z M581.52,486.01L558.92,477.99L569.15,468.16L569.22,475.33L581.52,486.01Z M547.70,509.78L541.94,498.16L533.73,502.04L540.10,511.87L547.70,509.78Z M547.66,498.15L553.75,508.41L561.00,500.93L559.73,497.49L550.23,494.91L547.66,498.15Z M220.73,464.52L216.19,473.09L222.61,477.92L227.82,472.09L222.70,464.42L220.73,464.52Z" fill="currentColor" fill-rule="evenodd"/></svg>
