<svg xmlns="http://www.w3.org/2000/svg" viewBox="0 0 1000 1000" role="img" aria-label="Map of United States"><path d="M529.85,463.92L712.85,463.92L712.96,460.38L715.10,460.95L716.73,466.43L727.44,467.45L736.76,472.81L741.41,471.06L751.43,473.46L757.99,470.39L781.20,483.64L783.27,487.75L786.30,487.13L787.27,491.49L790.60,492.01L789.44,494.22L796.66,498.35L799.34,514.90L796.81,523.90L792.61,529.30L795.88,532.85L820.08,522.18L819.06,515.95L821.87,514.51L834.54,514.44L847.40,501.45L869.96,501.37L871.09,498.78L874.02,499.29L885.00,478.36L887.20,480.89L891.22,479.21L894.45,481.91L894.49,494.79L900.00,503.24L892.81,507.82L890.04,506.27L889.62,508.68L887.89,505.64L885.31,511.36L882.94,512.46L883.03,510.71L882.65,512.72L882.40,510.65L881.55,513.17L881.44,510.35L881.08,513.75L879.94,512.21L878.04,514.20L874.21,521.96L875.98,523.76L872.99,526.71L877.72,532.38L879.94,531.46L879.40,529.18L880.35,532.80L875.57,534.24L875.23,532.11L872.07,534.73L872.57,531.64L870.71,531.44L870.00,535.70L860.63,536.27L854.10,540.99L854.22,537.70L853.55,536.40L851.52,543.88L853.53,544.33L852.78,550.66L852.99,547.97L848.06,558.09L843.23,553.47L846.60,548.40L842.83,551.86L844.14,557.45L846.20,559.89L846.46,563.38L840.46,575.62L842.56,567.76L840.95,567.84L841.16,563.57L839.87,565.19L838.00,562.92L840.32,561.67L837.86,561.04L839.42,559.12L837.63,559.46L841.24,552.47L835.99,555.52L837.52,564.05L835.60,560.99L835.65,562.81L837.97,566.97L833.28,562.85L831.79,563.68L833.40,560.82L833.38,559.34L833.03,558.89L831.21,564.10L838.48,568.29L836.77,570.61L833.92,566.50L833.07,565.82L832.60,565.82L836.46,570.89L838.24,571.43L836.83,574.45L834.82,572.04L838.30,576.34L834.41,573.75L831.66,573.81L835.68,575.05L836.64,578.08L840.09,577.43L843.28,588.14L840.47,579.44L841.55,585.44L838.80,583.17L839.70,584.68L836.29,586.09L835.56,585.68L835.61,583.50L835.28,583.17L835.28,586.72L839.80,586.36L839.87,589.49L841.10,586.39L841.97,587.81L839.12,592.35L833.14,590.59L837.00,593.07L835.05,595.72L832.96,594.14L833.88,595.80L836.54,596.25L837.11,594.92L837.82,596.71L831.25,599.75L830.59,597.93L827.23,605.68L827.10,603.23L826.73,606.00L821.78,607.11L817.64,614.27L809.13,618.94L809.90,621.23L807.90,618.77L809.08,621.83L803.67,629.80L804.99,643.67L813.32,672.68L810.90,687.98L806.26,688.56L804.63,682.04L802.08,681.07L800.25,675.76L801.76,673.59L800.04,675.35L800.45,670.94L798.22,672.33L795.46,666.06L796.39,666.17L797.50,662.28L795.72,661.14L795.53,664.70L794.71,663.11L796.10,653.14L789.15,643.41L785.64,641.66L778.10,645.70L776.50,639.60L775.61,641.41L770.37,638.84L772.38,637.92L765.83,639.28L767.83,638.54L766.92,636.96L764.94,639.66L763.61,640.06L764.83,638.65L764.29,638.13L763.20,640.08L762.78,640.30L760.28,640.57L762.05,640.04L760.28,635.73L759.57,639.66L754.33,638.51L749.89,641.21L745.95,638.99L744.52,640.60L746.09,642.44L749.42,641.13L749.44,643.84L750.62,641.95L751.42,642.21L750.65,646.12L748.82,646.12L753.78,650.44L751.10,652.76L752.01,650.58L748.43,647.62L746.00,646.63L745.69,651.27L744.33,648.72L741.34,650.83L734.95,644.26L731.85,647.05L721.79,645.49L721.63,642.80L721.49,645.73L715.60,648.63L717.44,646.76L713.68,645.03L715.22,648.56L712.97,651.65L705.94,656.89L707.47,655.43L703.07,654.63L704.71,657.40L702.13,656.98L699.53,663.03L697.30,662.69L698.03,667.75L695.62,666.50L697.93,668.43L697.03,672.43L699.84,680.56L698.33,681.79L686.78,676.34L684.07,665.37L671.52,644.76L665.44,643.67L660.12,652.12L658.37,651.81L650.87,645.93L648.10,636.93L638.43,626.24L626.33,625.94L626.33,630.18L607.40,630.12L582.48,619.14L583.13,617.14L567.20,618.85L564.65,611.28L557.98,604.82L543.89,599.73L543.84,594.30L535.51,583.34L536.14,578.34L531.39,571.79L532.13,569.16L532.36,571.11L534.63,572.43L532.41,567.26L538.53,567.34L532.21,565.94L531.34,569.11L528.03,567.43L528.23,565.10L529.32,566.48L523.39,558.73L522.54,550.12L518.86,544.38L521.12,534.07L517.81,521.89L521.11,513.62L521.42,489.92L522.91,491.12L524.76,489.87L525.65,490.71L526.51,490.83L527.01,490.40L523.61,489.22L521.04,489.53L521.16,485.92L521.85,488.53L523.14,485.70L520.95,485.09L520.73,483.63L522.81,483.06L520.39,483.38L516.74,469.62L529.73,471.94L530.73,474.42L529.16,474.90L527.14,479.32L531.34,474.15L531.07,480.19L529.72,481.05L529.50,478.93L527.69,481.45L530.05,481.84L532.67,479.32L533.57,473.02L530.31,469.22L531.92,467.80L529.85,463.92Z M520.81,464.40L522.57,468.69L526.47,470.83L531.22,469.92L534.66,465.23L533.24,459.59L527.98,457.11L522.62,459.27L520.81,464.40Z M848.06,538.25L847.75,544.68L851.33,547.82L856.35,547.33L859.59,543.08L859.13,537.09L855.52,534.36L851.02,534.84L848.06,538.25Z M877.68,534.85L876.82,529.69L872.46,526.41L867.53,527.26L864.62,531.33L865.52,536.97L869.69,540.08L874.81,539.19L877.68,534.85Z M888.67,514.51L886.45,507.19L880.62,505.76L875.89,509.80L875.89,515.26L880.03,519.25L885.39,518.77L888.67,514.51Z M876.98,507.30L875.28,512.52L877.69,517.30L882.39,518.76L886.78,516.52L888.49,512.91L887.29,507.30L882.14,504.78L876.98,507.30Z M885.20,504.77L882.28,509.85L883.39,514.56L886.89,517.14L891.55,516.88L895.81,510.78L894.13,505.66L889.84,503.48L885.20,504.77Z M892.50,504.90L887.46,502.64L882.77,504.69L880.40,510.02L882.50,514.63L887.26,516.36L891.87,514.69L894.38,509.94L892.50,504.90Z M893.36,503.36L885.89,504.11L883.25,509.75L886.95,515.38L891.39,516.23L895.62,513.71L897.08,507.97L893.36,503.36Z M893.29,511.13L892.18,503.54L887.90,501.36L880.68,505.99L880.72,510.55L884.15,514.64L889.49,514.89L893.29,511.13Z M883.35,505.62L883.56,510.48L886.88,513.88L891.95,514.36L895.89,511.13L896.24,505.44L892.54,501.23L886.93,501.30L883.35,505.62Z M884.38,501.36L880.56,508.69L883.05,513.16L887.97,514.57L892.75,511.73L893.98,505.77L890.14,501.18L884.38,501.36Z M895.99,499.40L890.42,502.09L889.38,507.99L892.35,512.33L896.85,513.34L900.93,511.19L902.65,506.24L900.76,501.42L895.99,499.40Z M891.91,501.59L890.97,506.41L893.31,510.48L898.02,512.09L902.75,510.19L904.86,505.55L903.00,500.53L897.18,498.21L891.91,501.59Z M899.03,509.14L903.88,507.90L906.51,503.81L905.70,499.01L901.59,495.50L896.80,495.80L893.43,499.23L893.38,504.56L899.03,509.14Z M794.96,692.61L795.55,697.10L803.07,700.58L807.55,697.82L808.78,693.25L806.69,689.01L802.32,687.19L797.37,688.63L794.96,692.61Z M795.88,691.31L795.96,696.66L799.51,700.13L804.48,700.23L808.55,696.94L809.22,692.26L806.81,688.25L802.26,686.77L795.88,691.31Z M802.27,686.61L797.21,690.19L797.18,697.02L800.73,699.82L805.25,699.62L810.06,693.21L808.52,688.88L802.27,686.61Z M808.58,698.99L813.30,691.40L810.06,686.47L804.18,686.03L800.03,689.57L799.62,694.35L802.52,698.17L808.58,698.99Z M798.17,693.16L800.02,697.76L804.36,699.62L808.79,698.00L810.97,693.28L809.67,688.77L805.22,685.72L800.68,686.59L798.17,693.16Z M807.34,685.27L802.85,686.92L800.13,691.57L801.28,696.17L805.21,698.82L811.36,697.27L814.07,692.36L812.26,687.33L807.34,685.27Z M803.63,686.21L801.24,692.97L804.09,697.22L809.09,698.29L813.39,695.99L815.07,691.46L813.26,686.57L808.52,684.40L803.63,686.21Z M808.94,682.28L804.51,690.88L809.80,695.34L815.33,691.27L816.51,684.19L813.16,681.50L808.94,682.28Z M806.19,682.71L806.15,688.89L810.27,692.24L815.53,691.44L818.51,687.38L818.04,681.81L814.27,678.77L809.45,679.14L806.19,682.71Z M819.26,683.53L817.32,678.06L812.39,676.08L807.56,678.28L805.68,682.12L806.52,686.40L811.07,689.92L816.67,688.65L819.26,683.53Z M806.38,677.40L800.88,669.06L796.37,669.30L793.14,672.47L792.83,676.98L795.73,681.39L803.59,681.47L806.38,677.40Z M792.45,676.42L795.75,680.42L800.51,680.95L804.37,678.13L805.18,672.65L802.74,668.58L798.20,667.19L793.90,669.21L792.45,676.42Z M805.72,674.88L803.46,669.55L798.53,667.73L794.06,670.48L793.45,675.70L796.71,680.87L801.04,681.57L804.69,679.14L805.72,674.88Z M791.90,673.86L794.32,678.65L798.64,680.17L802.90,678.52L805.12,674.07L801.06,666.74L796.44,666.47L792.78,669.31L791.90,673.86Z M701.09,680.43L700.05,668.95L698.04,667.16L696.32,672.53L698.61,680.82L701.09,680.43Z M790.79,671.18L795.27,674.24L799.98,673.26L802.71,669.31L801.37,663.52L797.60,660.60L792.86,661.04L789.69,664.60L790.79,671.18Z M695.31,664.00L694.32,670.41L699.21,672.76L702.45,669.70L704.37,661.66L699.26,659.08L695.31,664.00Z M807.37,660.91L810.87,672.69L815.84,671.03L812.48,659.54L807.37,660.91Z M695.83,659.25L696.66,667.06L701.35,668.52L707.43,661.20L703.48,654.92L699.52,654.95L695.83,659.25Z M815.86,657.65L812.37,653.34L807.22,652.91L803.26,656.22L802.75,661.35L806.45,665.92L811.61,666.23L815.50,662.81L815.86,657.65Z M701.29,653.82L696.44,659.91L697.67,664.38L701.90,666.31L710.13,658.71L706.60,652.70L701.29,653.82Z M708.60,663.09L712.39,657.01L710.95,652.78L707.13,650.47L702.71,651.14L698.40,657.97L700.16,662.14L704.20,664.17L708.60,663.09Z M803.48,656.05L806.29,663.69L813.25,662.78L814.39,654.21L810.83,650.82L806.27,651.65L803.48,656.05Z M738.05,657.65L745.74,656.79L748.06,652.76L747.24,648.18L743.66,645.21L737.22,645.84L734.43,649.62L734.76,654.30L738.05,657.65Z M747.77,657.70L752.12,651.27L749.66,646.05L743.89,644.63L738.15,650.86L739.31,655.38L743.12,658.09L747.77,657.70Z M740.43,648.50L741.47,653.91L745.99,656.72L751.13,655.39L754.12,651.00L753.39,646.34L749.78,643.31L744.61,643.55L740.43,648.50Z M710.22,646.09L707.56,651.41L709.22,655.27L713.07,656.94L721.49,649.81L720.73,646.00L716.98,643.31L710.22,646.09Z M749.32,641.56L745.90,645.54L746.14,650.42L749.60,653.89L754.85,654.03L759.20,649.74L758.37,643.69L754.22,640.84L749.32,641.56Z M738.36,641.24L730.56,641.42L727.76,646.09L731.23,652.14L735.51,653.46L740.30,650.51L741.62,645.39L738.36,641.24Z M785.96,648.06L785.18,641.81L780.04,639.05L774.15,641.13L772.44,646.33L775.62,651.30L781.64,652.40L785.96,648.06Z M777.29,641.65L774.13,646.85L776.73,650.97L781.19,651.95L786.48,648.85L786.76,641.24L783.18,639.28L777.29,641.65Z M743.86,644.66L749.82,651.71L754.45,650.87L757.40,647.21L757.05,642.07L751.38,637.93L746.02,639.68L743.86,644.66Z M746.61,649.11L751.22,651.59L755.87,650.36L758.63,645.99L757.05,639.88L751.14,637.70L746.47,640.04L744.81,644.60L746.61,649.11Z M777.08,640.97L776.27,646.91L780.44,651.10L786.31,650.35L789.75,645.82L788.91,640.85L784.85,637.87L777.08,640.97Z M746.19,639.71L745.30,645.10L748.49,649.32L754.12,649.87L758.55,645.97L758.27,640.08L753.50,636.62L746.19,639.71Z M746.09,639.71L745.18,645.07L747.90,648.99L752.54,650.10L756.96,647.58L758.07,640.02L754.58,636.67L749.75,636.54L746.09,639.71Z M749.86,639.22L750.10,647.93L753.39,650.30L757.41,649.85L760.32,646.22L758.12,637.64L753.63,636.58L749.86,639.22Z M747.55,647.46L753.07,648.05L757.28,644.37L757.43,638.63L753.21,634.73L747.49,635.35L744.37,639.09L744.43,643.86L747.55,647.46Z M758.61,641.82L756.94,636.38L752.70,634.72L747.34,637.28L745.19,642.03L750.61,648.47L754.89,648.20L758.61,641.82Z M747.64,638.24L747.63,643.12L750.84,646.75L755.92,647.30L760.06,644.39L761.08,639.43L758.42,635.11L753.26,633.84L747.64,638.24Z M763.12,644.59L764.38,640.18L762.59,636.04L758.09,633.88L753.29,635.03L750.55,639.13L751.34,644.00L755.69,647.17L763.12,644.59Z M746.46,638.48L750.10,646.70L755.83,647.01L759.68,642.77L759.46,637.29L755.82,633.99L750.91,634.07L746.46,638.48Z M754.74,634.07L750.64,636.31L750.68,644.38L755.87,646.75L760.39,645.78L763.03,641.98L762.34,637.40L754.74,634.07Z M764.31,635.84L758.11,634.09L753.20,637.09L752.29,641.43L754.52,645.27L760.20,646.56L765.40,643.39L764.31,635.84Z M768.38,634.47L761.74,636.72L761.80,642.43L766.17,643.98L773.71,641.71L773.44,635.78L768.38,634.47Z M809.68,636.58L808.41,629.51L803.72,627.71L798.93,630.83L799.86,640.09L803.74,641.69L807.69,640.28L809.68,636.58Z M563.77,612.53L559.00,608.44L554.50,608.96L551.76,612.21L551.90,616.46L554.43,620.56L561.21,621.59L564.78,617.43L563.77,612.53Z M813.01,609.28L811.06,613.71L812.77,618.91L817.77,621.13L821.93,619.73L824.47,615.60L823.42,609.93L818.37,607.14L813.01,609.28Z M552.42,605.47L547.24,606.45L544.57,610.31L545.42,615.39L550.53,618.75L556.09,617.31L558.38,612.80L556.75,608.00L552.42,605.47Z M552.88,613.33L557.55,617.35L562.67,616.55L564.83,609.02L561.23,605.04L555.41,604.28L552.14,607.01L552.88,613.33Z M822.48,611.34L826.85,613.13L830.99,611.85L833.65,607.64L832.90,602.29L828.43,599.24L822.67,600.90L820.06,606.07L822.48,611.34Z M546.35,598.79L541.59,601.40L540.40,605.31L542.89,610.11L550.03,611.50L553.75,608.31L554.21,604.03L551.70,600.00L546.35,598.79Z M541.87,598.99L538.70,603.59L539.79,608.45L544.93,611.29L549.86,610.18L552.52,605.88L551.33,600.97L546.69,597.86L541.87,598.99Z M545.73,609.26L550.40,610.97L555.71,608.28L555.36,600.88L551.47,598.86L544.43,600.59L542.93,605.04L545.73,609.26Z M833.99,606.41L833.97,600.36L829.86,596.97L824.41,597.80L821.34,602.35L822.19,607.66L826.05,610.49L830.81,609.99L833.99,606.41Z M824.49,597.82L823.28,602.51L829.21,607.68L835.02,604.72L837.16,600.80L836.04,596.47L832.25,594.10L824.49,597.82Z M835.91,591.91L830.73,594.24L829.25,599.60L832.39,604.19L838.03,605.43L842.07,602.62L843.06,597.79L840.43,593.63L835.91,591.91Z M833.86,604.43L840.50,601.12L840.84,596.37L837.06,592.96L828.03,595.99L827.35,600.14L829.74,603.60L833.86,604.43Z M832.71,595.06L831.29,599.05L835.21,604.63L841.41,601.78L844.10,595.83L842.38,592.21L838.61,590.81L832.71,595.06Z M837.09,588.81L832.54,596.27L834.65,600.55L839.08,602.31L843.55,600.64L846.43,596.05L845.57,591.64L841.82,588.70L837.09,588.81Z M834.45,592.17L834.51,597.74L838.54,600.91L843.57,599.96L847.71,594.92L846.83,590.39L843.05,587.73L834.45,592.17Z M842.52,584.14L837.79,594.88L840.07,597.65L845.12,596.98L847.93,590.71L845.62,584.73L842.52,584.14Z M840.85,594.01L845.89,593.36L848.83,589.49L848.33,584.36L845.37,581.19L840.30,580.49L836.32,583.69L836.28,589.83L840.85,594.01Z M836.04,570.35L835.94,575.94L839.30,579.34L844.08,579.58L848.14,575.81L847.15,568.08L843.11,565.97L836.04,570.35Z M836.02,574.11L839.26,578.09L844.29,578.53L848.13,575.27L849.03,569.45L845.92,565.65L841.04,565.07L836.65,568.90L836.02,574.11Z M833.79,567.59L836.81,573.84L842.11,574.28L845.94,570.60L846.52,565.94L840.05,560.65L835.91,562.00L833.79,567.59Z M846.51,564.60L844.05,560.24L839.78,558.74L835.32,560.43L832.88,564.89L833.80,569.39L837.72,572.38L842.36,572.27L845.84,569.20L846.51,564.60Z M839.90,566.23L840.91,572.33L844.38,573.63L849.00,570.54L850.56,562.41L844.26,560.01L839.90,566.23Z M846.27,549.50L843.97,554.97L846.36,559.12L851.41,560.79L855.75,558.53L857.90,553.25L855.87,548.86L851.39,547.08L846.27,549.50Z M846.03,551.30L846.55,555.95L853.98,558.49L858.07,553.40L858.34,548.98L855.45,545.61L851.03,545.21L846.03,551.30Z M858.89,536.62L850.76,540.79L850.66,545.24L853.67,548.51L862.71,546.56L864.28,542.56L862.73,538.55L858.89,536.62Z M846.13,540.68L846.01,546.48L849.35,549.68L857.94,546.85L858.98,540.78L855.86,536.89L850.58,536.53L846.13,540.68Z M857.26,547.76L866.45,543.25L863.76,536.59L856.25,537.75L853.12,540.89L853.57,545.30L857.26,547.76Z M862.52,540.01L867.61,538.47L856.17,543.06L853.13,542.72L856.81,539.66L864.84,537.61L862.52,540.01Z M863.17,534.85L863.68,541.36L869.20,544.35L874.84,541.89L876.05,535.87L872.34,531.02L866.90,530.88L863.17,534.85Z M865.88,529.93L860.45,533.94L860.35,539.43L864.16,543.01L869.38,542.70L873.32,538.89L873.44,534.24L870.47,530.66L865.88,529.93Z M875.91,531.35L872.20,536.96L874.99,541.31L883.85,541.45L885.98,538.00L885.15,533.06L881.63,529.88L875.91,531.35Z M871.26,539.42L875.40,542.27L880.15,541.56L883.61,535.01L881.19,529.98L876.40,528.45L871.90,530.70L869.95,535.17L871.26,539.42Z M870.76,531.66L868.48,536.52L870.98,540.75L874.77,542.16L881.16,539.41L882.39,534.93L880.59,530.83L875.92,528.81L870.76,531.66Z M864.40,532.88L865.97,539.24L871.14,541.23L875.95,538.50L877.30,533.82L875.15,528.94L870.88,527.25L866.56,528.83L864.40,532.88Z M876.86,527.35L873.79,536.48L877.12,539.90L881.90,540.13L885.96,536.26L886.14,530.49L882.10,526.79L876.86,527.35Z M865.69,536.87L867.89,540.05L873.81,540.23L877.79,534.87L875.83,528.38L870.74,526.98L866.49,530.11L865.69,536.87Z M515.67,484.87L515.71,490.81L520.03,494.61L525.27,493.88L528.28,489.53L527.49,484.19L523.57,481.11L518.91,481.49L515.67,484.87Z M529.72,485.21L535.15,484.74L538.65,479.51L534.68,472.51L530.26,471.93L526.32,474.83L525.91,482.50L529.72,485.21Z M534.48,470.57L528.26,470.33L524.86,475.17L525.38,479.90L528.51,482.86L532.88,483.48L536.60,481.10L537.77,475.69L534.48,470.57Z M523.91,474.83L530.42,479.77L535.14,477.68L536.86,472.20L534.07,467.18L528.65,465.92L524.20,469.27L523.91,474.83Z M526.66,474.67L531.05,478.66L536.51,476.18L535.56,468.38L532.54,465.12L526.31,467.58L526.66,474.67Z M533.06,463.89L526.59,462.11L522.98,465.94L522.76,471.29L525.67,474.53L531.70,475.20L535.34,471.34L533.06,463.89Z M523.49,469.69L526.31,473.77L530.68,474.91L535.05,472.80L537.07,466.91L533.41,461.86L527.89,461.26L523.96,464.58L523.49,469.69Z M532.82,472.58L534.55,467.88L532.32,463.49L527.78,461.24L523.75,462.36L521.28,470.17L526.34,474.85L532.82,472.58Z M531.61,472.51L535.93,467.67L535.08,463.86L527.35,460.67L521.97,467.01L523.08,470.87L526.98,473.58L531.61,472.51Z M524.40,469.56L531.10,473.74L535.29,471.90L537.26,467.78L536.06,463.36L531.34,459.86L526.56,460.78L523.73,464.74L524.40,469.56Z M882.26,514.34L886.75,517.06L891.57,515.86L894.61,510.71L893.15,505.99L888.09,503.53L883.10,504.89L880.65,509.43L882.26,514.34Z M882.27,507.34L884.26,514.33L888.85,515.84L893.75,513.85L895.52,510.42L894.08,504.62L889.34,501.89L884.73,503.21L882.27,507.34Z M893.04,501.09L887.43,502.06L884.85,505.53L884.65,510.00L888.25,514.10L892.16,514.69L897.89,509.21L896.96,504.23L893.04,501.09Z M525.46,476.15L523.17,481.31L525.61,486.43L531.36,488.13L536.18,484.57L536.92,479.51L534.27,475.63L529.63,474.26L525.46,476.15Z M534.76,483.01L535.20,477.61L531.59,473.94L526.06,474.31L522.71,478.27L522.99,483.25L526.41,486.91L530.71,487.26L534.76,483.01Z M792.55,693.10L793.82,698.03L798.08,700.77L803.07,699.89L806.21,695.88L805.82,690.91L802.21,687.48L797.14,687.38L792.55,693.10Z M794.50,698.45L798.95,700.66L803.72,699.29L806.33,695.06L805.24,689.93L799.19,686.69L794.45,688.73L792.47,693.43L794.50,698.45Z M810.68,695.50L808.55,687.55L803.31,686.04L798.60,688.79L797.34,694.20L800.66,699.03L806.49,699.60L810.68,695.50Z M798.91,696.09L803.96,699.81L809.93,697.96L812.15,693.20L810.51,688.37L806.02,685.97L801.09,687.29L798.35,691.36L798.91,696.09Z M798.94,697.75L803.63,699.94L808.39,698.39L810.86,694.04L809.81,689.12L805.66,686.19L799.91,687.21L796.98,692.25L798.94,697.75Z M796.83,691.54L799.00,697.87L803.51,699.80L807.87,698.40L810.34,694.56L809.59,689.56L805.31,686.04L799.84,686.89L796.83,691.54Z M798.90,696.30L804.11,699.63L809.69,697.66L811.66,691.89L807.33,686.20L801.59,686.40L798.04,690.75L798.90,696.30Z M802.57,687.91L802.36,693.92L806.82,697.79L812.64,696.79L815.75,691.54L813.65,686.03L808.06,684.14L802.57,687.91Z M803.68,686.68L802.56,692.10L805.49,696.36L810.56,697.34L815.12,694.08L816.20,689.23L813.69,684.94L808.93,683.49L803.68,686.68Z M799.88,689.01L802.79,692.91L807.31,693.95L811.64,691.69L813.54,687.26L812.06,682.66L807.66,680.13L803.08,680.88L800.03,684.37L799.88,689.01Z M800.67,682.40L799.28,686.94L801.32,691.47L805.77,693.63L810.52,692.23L813.09,688.01L811.99,682.88L806.45,679.66L800.67,682.40Z M807.48,675.97L802.57,675.20L798.71,677.61L797.26,682.28L801.35,688.38L806.70,688.60L810.42,685.13L810.81,679.80L807.48,675.97Z M799.36,686.62L804.96,688.66L809.69,685.54L810.40,679.92L806.63,675.36L801.15,675.28L797.60,678.31L796.83,682.84L799.36,686.62Z M795.62,683.01L798.19,687.03L806.64,686.88L809.29,682.62L808.48,677.97L804.53,674.83L799.69,674.92L796.13,678.20L795.62,683.01Z M796.57,682.42L799.98,687.58L805.71,688.03L809.80,683.66L808.93,677.56L803.60,674.47L798.17,676.74L796.57,682.42Z M790.24,650.44L788.88,655.75L791.85,660.39L797.24,661.52L801.73,658.33L802.46,652.87L799.37,648.68L794.46,647.79L790.24,650.44Z M802.54,652.67L797.53,647.43L792.08,648.20L788.93,652.70L790.07,658.09L794.04,660.94L798.69,660.56L802.03,657.31L802.54,652.67Z M739.23,657.56L747.55,656.11L749.51,650.82L746.66,645.96L741.09,645.08L736.29,648.57L735.86,653.69L739.23,657.56Z M745.04,644.81L740.03,645.88L737.33,649.78L737.91,654.48L742.12,657.87L746.77,657.89L750.30,654.87L751.00,650.27L745.04,644.81Z M786.69,648.73L786.91,653.48L789.99,656.87L794.50,657.60L798.83,655.12L800.37,650.56L798.57,646.11L794.18,643.76L789.52,644.86L786.69,648.73Z M741.27,643.51L737.49,648.81L738.66,653.92L742.77,656.63L747.63,655.86L750.83,651.63L750.38,646.47L746.43,643.12L741.27,643.51Z M741.45,646.35L741.32,652.32L745.82,656.15L751.63,655.10L754.52,650.92L753.87,646.07L750.18,642.86L745.15,642.96L741.45,646.35Z M751.96,643.19L746.96,640.75L742.22,642.25L739.92,646.25L740.99,651.08L747.81,654.46L751.44,652.87L753.83,648.05L751.96,643.19Z M747.93,642.86L746.48,648.24L749.14,652.63L754.11,653.91L758.88,650.94L760.31,646.57L758.63,642.29L754.61,640.06L747.93,642.86Z M759.23,650.71L761.03,645.92L759.17,641.30L754.68,639.11L748.38,642.05L747.12,647.13L749.69,651.60L754.64,653.06L759.23,650.71Z M760.55,648.20L761.03,643.06L757.90,639.23L752.99,638.62L748.59,642.26L747.77,647.23L750.66,651.35L755.61,652.26L760.55,648.20Z M799.31,626.30L799.40,632.50L802.91,635.61L807.33,635.58L811.37,631.39L811.87,626.52L808.76,622.74L803.38,622.44L799.31,626.30Z M811.84,630.18L810.41,622.04L806.19,620.31L801.88,621.84L799.71,625.85L800.59,631.51L804.32,634.11L808.83,633.58L811.84,630.18Z M555.96,601.69L553.01,608.92L555.42,612.97L563.80,613.08L566.60,607.81L565.00,602.87L560.71,600.53L555.96,601.69Z M834.74,575.64L837.34,580.97L842.72,581.52L847.52,574.41L842.18,568.02L838.02,568.64L834.74,575.64Z M858.64,534.90L857.94,540.95L862.04,544.95L866.99,545.17L870.41,542.53L869.96,534.15L861.88,532.10L858.64,534.90Z M859.42,536.01L860.18,541.97L864.41,545.13L869.20,544.51L872.32,540.82L872.39,535.81L869.03,532.16L863.31,531.80L859.42,536.01Z M873.26,543.61L878.41,542.61L881.36,538.43L880.63,533.37L876.82,530.13L871.97,530.23L868.32,533.61L868.27,539.85L873.26,543.61Z M869.24,530.23L866.99,535.72L869.82,540.71L875.48,541.66L879.99,538.55L880.86,533.80L878.30,529.71L873.65,528.42L869.24,530.23Z M874.12,541.37L878.66,540.02L881.81,535.42L880.86,530.83L877.07,528.08L871.34,529.19L868.04,533.54L869.26,538.87L874.12,541.37Z M523.03,496.66L528.28,497.01L531.86,494.10L532.70,489.55L529.79,485.06L525.47,483.51L521.18,485.12L518.89,489.36L523.03,496.66Z M518.47,491.52L521.58,495.79L526.62,496.75L530.77,494.10L532.02,489.13L529.20,484.32L523.85,482.98L519.27,486.05L518.47,491.52Z M408.72,269.50L408.79,357.46L421.50,357.12L420.82,359.64L431.24,367.49L432.07,370.68L436.36,368.34L438.16,368.12L439.61,364.16L446.85,363.17L459.24,375.35L469.64,392.39L481.28,397.18L481.83,404.71L479.33,408.26L475.55,409.04L478.69,404.26L474.74,406.20L477.69,404.59L473.81,398.24L475.05,396.91L467.34,401.84L468.73,396.49L471.27,396.29L471.87,395.88L464.90,392.03L466.09,390.27L463.43,390.01L463.20,387.69L458.18,386.85L461.59,385.11L459.06,385.32L459.77,382.98L457.54,381.95L458.09,381.82L461.54,383.82L461.82,383.69L458.18,379.95L461.02,380.49L458.17,379.81L457.29,381.12L457.32,377.69L454.81,378.47L456.72,374.21L454.16,377.23L450.19,375.56L446.26,365.31L446.53,368.92L444.90,367.57L447.95,376.92L445.35,374.59L442.54,375.56L441.44,371.50L443.44,370.64L440.89,369.38L440.54,372.08L434.90,369.14L434.44,371.37L438.04,371.17L441.39,374.29L437.52,377.08L425.68,367.93L416.34,364.60L418.89,360.39L420.10,364.32L420.17,361.89L422.71,362.08L418.57,359.84L413.25,363.14L405.74,361.44L406.98,360.74L406.25,358.99L404.28,360.69L387.19,360.02L388.83,359.95L382.59,357.44L384.71,353.58L380.42,356.97L375.98,356.03L378.03,353.93L373.82,354.17L375.28,352.79L372.37,353.86L370.95,353.32L374.95,352.41L370.57,351.34L373.73,349.76L366.51,351.94L365.21,349.45L363.16,352.44L364.09,348.28L357.63,352.87L360.99,354.41L359.06,354.85L357.72,356.02L362.72,355.99L359.41,360.71L354.98,359.78L353.76,361.51L352.95,359.16L352.17,362.98L350.85,360.66L350.71,363.46L348.81,362.22L342.66,367.82L336.63,367.73L342.44,362.41L336.60,362.68L340.36,356.68L339.75,353.38L346.46,350.47L355.49,352.28L348.58,349.45L352.82,346.08L338.63,350.97L331.79,358.18L329.52,357.38L328.57,357.50L331.91,359.67L330.86,361.19L327.01,363.73L326.11,362.28L320.75,368.34L327.36,371.08L321.75,374.66L320.84,377.96L305.59,385.52L305.56,388.72L293.07,393.85L291.64,395.43L295.14,395.75L293.10,397.91L292.75,396.17L291.69,396.07L291.40,398.36L285.68,399.01L285.14,401.94L283.68,399.37L274.17,404.04L272.84,402.82L275.06,402.35L271.90,401.61L269.38,406.51L266.41,407.00L265.11,404.56L265.67,407.75L261.54,406.07L262.42,407.93L260.49,409.16L260.53,406.26L270.72,399.01L274.99,397.81L273.59,398.39L276.86,398.04L277.36,400.65L277.41,399.04L281.04,400.07L278.81,398.07L281.41,394.33L290.03,389.60L291.69,390.78L293.86,385.60L299.82,383.95L297.86,382.42L298.55,378.16L301.64,377.56L298.84,375.73L302.96,372.21L304.01,368.28L294.58,373.38L292.63,369.79L294.79,369.62L295.73,370.88L295.96,370.60L295.00,369.40L292.32,368.08L290.43,375.34L280.32,369.07L270.95,373.88L268.22,373.08L271.67,371.56L270.34,369.42L272.25,368.65L270.40,369.11L269.05,367.20L271.29,365.02L266.34,357.55L270.17,353.70L264.72,357.83L265.90,360.35L256.93,362.21L249.57,355.18L246.62,355.12L249.89,351.51L251.67,352.55L254.32,352.91L253.33,355.11L260.04,353.25L256.58,352.28L258.08,350.92L248.35,351.46L251.03,349.89L247.07,348.91L248.07,348.42L248.42,346.97L248.97,346.97L249.69,346.31L250.53,346.22L251.53,345.25L248.12,347.05L246.89,348.80L247.00,350.24L241.52,345.32L244.39,344.41L242.16,343.19L245.57,342.80L244.80,340.41L248.60,336.65L252.25,337.49L250.42,336.20L252.94,334.48L250.72,335.67L250.25,333.58L254.03,331.96L253.30,330.12L262.13,331.55L267.33,326.95L275.65,326.69L277.57,324.34L276.20,320.32L272.45,318.94L277.41,315.85L275.89,313.77L270.67,314.94L264.20,319.45L261.76,316.48L260.16,317.06L261.65,318.82L241.58,317.17L236.49,311.59L242.64,310.98L228.66,307.01L254.29,298.19L257.86,298.18L258.58,298.49L254.85,302.04L258.24,303.12L275.51,302.63L272.64,300.02L270.08,301.31L266.17,294.82L271.82,299.55L281.21,298.85L272.74,298.81L270.04,296.94L272.54,294.53L266.36,294.50L267.15,293.08L267.00,292.87L257.94,293.40L255.11,288.61L237.34,281.73L240.75,281.21L241.36,276.70L256.35,275.59L270.01,263.19L268.58,264.76L283.01,260.59L281.32,261.72L284.18,264.37L283.82,261.53L284.59,261.79L287.36,261.15L281.82,260.32L284.86,258.63L296.83,258.06L306.08,252.92L312.04,255.38L307.96,257.54L309.35,259.06L315.25,255.34L320.95,258.88L333.58,258.15L332.37,259.96L335.25,260.76L331.57,260.95L337.52,260.95L335.89,261.99L352.42,261.29L382.60,266.42L393.92,265.10L408.72,269.50Z M470.21,409.41L469.07,404.40L462.29,401.97L458.18,404.62L457.18,408.91L459.17,413.19L464.20,415.79L468.28,414.40L470.21,409.41Z M478.75,405.37L474.00,401.40L470.83,401.93L466.39,405.64L466.15,409.90L469.79,413.86L475.53,414.14L479.27,410.88L478.75,405.37Z M458.19,401.87L457.42,410.09L462.90,413.48L467.69,411.84L470.02,408.04L467.52,401.41L462.55,399.53L458.19,401.87Z M456.21,405.95L457.35,410.31L462.31,414.54L468.04,412.01L463.27,401.30L459.60,400.98L456.21,405.95Z M469.69,399.38L465.60,409.06L467.83,411.96L473.58,412.76L477.42,410.31L478.31,405.12L474.36,399.90L469.69,399.38Z M453.30,402.65L453.28,407.79L457.42,411.47L462.31,411.16L466.15,407.31L463.91,399.61L457.92,398.26L453.30,402.65Z M464.26,401.38L465.99,409.80L473.68,410.61L476.56,404.62L474.65,400.34L468.20,397.88L464.26,401.38Z M453.66,399.08L452.42,408.15L456.59,411.15L460.82,410.48L464.89,404.50L463.88,400.08L459.24,397.40L453.66,399.08Z M456.33,409.38L463.23,407.77L465.46,402.73L462.37,397.38L457.89,396.10L453.09,398.91L452.74,407.00L456.33,409.38Z M463.93,407.92L466.45,403.21L463.81,397.14L458.58,395.77L454.49,397.63L452.63,401.13L454.40,407.09L458.98,409.61L463.93,407.92Z M453.00,397.42L451.19,406.48L454.63,409.17L459.88,409.00L463.63,404.98L463.53,399.36L458.98,396.05L453.00,397.42Z M452.49,397.71L453.32,404.08L458.63,406.17L463.25,404.49L465.55,400.32L463.92,395.85L459.24,393.93L452.49,397.71Z M453.46,399.36L455.15,404.10L459.71,406.45L463.88,405.28L466.58,400.87L465.46,395.34L461.68,392.70L455.93,393.89L453.46,399.36Z M305.28,402.55L310.84,406.41L317.01,403.84L318.43,398.82L316.85,394.62L312.87,392.54L308.52,393.66L304.77,398.20L305.28,402.55Z M447.19,400.41L449.74,404.62L454.06,405.84L458.74,403.26L460.72,398.76L458.80,394.24L452.55,392.64L448.08,394.94L447.19,400.41Z M449.14,399.27L451.48,404.30L456.27,405.87L461.38,403.43L462.83,398.41L459.34,392.70L453.30,392.54L449.14,399.27Z M468.25,397.14L467.16,405.20L472.15,408.50L476.09,408.10L478.62,404.09L478.40,399.51L474.94,395.43L468.25,397.14Z M452.85,394.46L451.39,399.66L454.36,403.38L462.95,402.25L465.05,398.64L463.81,392.94L459.60,391.29L452.85,394.46Z M471.65,401.47L471.35,393.47L465.41,389.75L458.90,395.45L463.22,402.64L467.91,403.57L471.65,401.47Z M468.64,408.97L466.64,410.07L464.23,404.97L460.43,404.76L462.86,404.07L461.01,402.83L462.45,401.43L459.33,401.46L460.92,399.13L457.76,394.65L465.11,399.59L467.55,403.00L465.01,401.50L463.96,403.10L468.52,404.86L467.00,407.49L468.64,408.97Z M468.26,390.23L463.46,388.10L458.16,390.11L456.00,395.50L458.45,399.36L465.01,400.92L469.04,397.97L468.26,390.23Z M461.08,394.01L466.26,401.81L473.45,398.87L473.39,392.96L468.56,388.71L463.91,388.54L461.08,394.01Z M321.27,399.30L326.98,397.63L329.43,392.52L327.37,388.07L322.71,386.55L315.56,391.90L316.71,396.92L321.27,399.30Z M302.22,386.66L295.95,389.25L294.58,393.73L296.97,397.77L306.62,397.25L308.54,392.73L306.32,388.34L302.22,386.66Z M317.70,399.96L325.45,393.54L324.29,389.25L318.58,386.60L313.01,389.87L311.55,394.72L313.81,398.55L317.70,399.96Z M324.85,397.96L328.09,393.58L326.45,388.53L320.85,386.26L316.26,388.23L314.18,392.34L315.35,396.45L319.48,399.06L324.85,397.96Z M457.89,387.07L458.86,397.37L462.92,398.72L470.31,393.50L468.96,388.81L464.31,385.10L457.89,387.07Z M459.48,389.80L454.23,386.66L450.39,388.51L453.30,400.32L456.69,399.40L459.38,393.57L459.48,389.80Z M451.85,387.26L455.32,396.24L459.23,397.09L463.51,395.70L465.67,389.77L462.03,385.36L454.82,384.52L451.85,387.26Z M321.43,386.99L322.50,391.48L326.74,393.79L332.93,391.44L335.08,387.87L334.19,384.15L327.20,381.33L321.43,386.99Z M438.53,382.43L439.16,392.47L443.72,394.01L449.89,389.42L449.13,383.04L446.46,380.78L438.53,382.43Z M444.12,384.70L445.89,390.60L450.96,396.82L450.03,385.84L446.29,382.93L444.12,384.70Z M324.36,385.63L330.69,386.01L333.48,382.16L332.53,377.50L328.41,374.01L321.34,375.58L319.69,380.69L324.36,385.63Z M334.68,382.66L333.34,384.53L329.29,383.69L331.16,385.89L327.96,385.25L329.39,386.14L325.52,386.91L322.56,390.97L324.21,387.30L319.19,387.49L321.79,387.49L320.46,389.92L317.15,385.82L321.02,382.20L322.36,382.47L321.75,383.44L322.91,383.53L323.20,384.72L324.16,385.71L324.93,386.01L322.98,380.93L327.93,381.88L327.23,379.05L334.68,382.66Z M432.80,379.56L435.55,385.32L439.74,386.35L443.88,383.73L445.47,378.31L439.13,372.42L435.09,373.70L432.80,379.56Z M322.24,381.80L330.76,384.34L334.25,382.02L334.93,377.88L329.79,373.16L323.96,373.70L321.12,377.97L322.24,381.80Z M330.38,374.61L330.33,379.87L333.85,383.43L338.80,383.79L342.95,379.97L343.17,374.18L338.76,370.44L333.48,370.92L330.38,374.61Z M437.93,379.54L442.55,386.46L451.21,384.77L450.72,378.70L447.95,376.58L439.65,375.42L437.93,379.54Z M450.30,382.44L457.08,381.60L459.09,377.36L453.07,370.51L448.49,371.09L445.26,374.89L446.34,379.76L450.30,382.44Z M448.77,374.91L451.28,384.45L451.31,388.86L457.04,383.05L454.30,377.26L448.77,374.91Z M453.90,379.82L453.80,380.22L453.79,379.85L453.90,379.82Z M334.84,372.71L327.60,373.68L325.36,379.26L329.45,381.87L336.83,379.87L338.78,376.15L334.84,372.71Z M336.15,379.34L339.24,374.73L337.91,369.31L333.42,367.28L328.47,368.79L325.68,375.84L329.22,379.71L336.15,379.34Z M273.64,367.65L269.50,372.95L271.77,377.88L277.39,379.13L281.33,376.54L283.43,370.62L278.29,366.05L273.64,367.65Z M329.28,365.37L328.19,374.19L332.39,376.78L336.84,376.09L340.68,372.21L340.06,366.79L335.44,363.87L329.28,365.37Z M339.50,361.80L337.42,366.33L338.79,370.57L344.29,373.18L349.57,370.72L351.42,366.10L349.97,362.08L345.69,359.72L339.50,361.80Z M326.26,372.96L331.24,370.71L333.10,366.05L331.11,361.54L326.12,359.54L319.28,364.80L319.93,369.44L326.26,372.96Z M340.55,362.50L339.82,367.69L342.73,371.52L348.33,372.12L352.94,368.26L353.28,363.49L350.58,359.96L345.46,359.09L340.55,362.50Z M383.17,355.92L380.00,359.08L379.50,364.08L383.16,367.52L388.12,366.72L392.96,361.63L392.58,357.74L389.77,355.02L383.17,355.92Z M354.89,360.51L357.71,366.31L362.14,366.89L366.80,364.21L368.44,359.34L362.66,353.70L357.45,355.20L354.89,360.51Z M363.14,353.32L357.56,356.28L355.74,361.35L358.53,365.97L364.87,366.41L368.98,362.53L367.26,354.61L363.14,353.32Z M364.25,353.36L357.85,354.87L355.22,360.13L360.13,366.23L368.72,361.75L368.63,356.68L364.25,353.36Z M354.59,357.83L356.41,364.82L360.82,366.12L365.46,364.36L367.82,360.29L364.62,352.96L360.37,352.57L354.59,357.83Z M360.08,359.93L361.00,365.48L365.06,365.69L373.11,356.82L366.87,353.26L360.08,359.93Z M361.87,350.34L355.85,354.16L355.47,360.11L360.74,363.98L367.78,360.59L368.74,355.27L366.22,351.53L361.87,350.34Z M379.10,363.44L384.96,362.67L387.65,358.58L386.90,352.90L382.95,350.19L376.97,351.76L374.10,355.80L374.99,360.67L379.10,363.44Z M366.43,357.96L368.77,361.98L373.99,362.24L379.45,358.60L379.78,355.40L377.48,352.27L372.05,350.92L367.28,353.31L366.43,357.96Z M357.59,358.59L360.24,362.95L366.35,363.41L369.89,354.15L367.23,350.99L361.87,350.70L357.59,358.59Z M330.05,353.76L329.48,359.57L334.03,363.11L338.74,362.41L342.79,356.76L342.05,352.66L338.35,349.72L333.51,349.83L330.05,353.76Z M379.28,349.77L369.35,352.77L368.37,356.93L373.98,361.00L379.22,359.46L382.13,355.62L379.28,349.77Z M363.89,348.26L359.25,354.19L360.91,358.45L369.78,359.84L372.58,356.72L372.85,351.66L369.34,348.01L363.89,348.26Z M356.28,354.07L361.45,360.41L366.18,359.57L369.64,355.06L367.76,349.08L362.11,346.91L356.91,350.13L356.28,354.07Z M354.98,351.51L356.25,358.40L361.18,360.63L366.29,358.64L368.10,353.17L363.33,347.08L357.14,347.79L354.98,351.51Z M357.12,347.70L355.18,352.01L356.91,357.04L363.37,358.80L368.31,355.67L368.51,349.82L363.60,345.64L357.12,347.70Z M270.24,321.59L265.69,320.36L260.64,322.50L258.88,326.72L260.35,330.52L270.32,331.65L272.73,327.72L270.24,321.59Z M267.58,269.84L265.95,264.70L262.09,263.15L257.85,264.68L255.52,270.97L257.20,275.27L261.41,277.14L265.73,275.51L267.58,269.84Z M406.82,263.41L399.44,263.76L398.36,270.76L407.69,274.17L410.78,271.74L411.35,267.85L406.82,263.41Z M263.23,274.77L269.68,267.43L268.47,263.21L264.68,260.99L259.35,262.74L256.16,270.44L258.81,274.05L263.23,274.77Z M267.91,271.50L271.77,266.46L271.01,262.22L267.66,259.51L262.79,259.88L257.87,266.55L259.46,270.83L263.55,272.85L267.91,271.50Z M261.72,261.05L260.00,265.50L265.23,270.88L273.45,266.08L273.70,261.87L270.98,258.65L261.72,261.05Z M269.99,268.53L275.93,267.45L277.92,263.71L276.72,259.65L273.02,257.59L267.03,258.23L264.15,261.79L264.50,265.69L269.99,268.53Z M358.32,256.63L352.76,255.78L348.91,258.45L348.62,263.12L354.08,266.80L360.04,266.11L362.12,262.82L358.32,256.63Z M244.11,410.59L239.06,410.78L235.63,413.90L235.00,418.23L241.26,423.86L245.67,422.68L248.66,418.67L248.02,413.71L244.11,410.59Z M288.03,402.98L282.44,403.06L279.01,406.74L279.10,411.79L282.28,415.59L286.89,416.28L292.48,410.45L291.54,405.77L288.03,402.98Z M279.78,402.67L276.06,399.09L271.19,399.13L267.13,402.62L266.72,407.39L270.15,411.51L275.06,412.34L279.34,409.27L279.78,402.67Z M271.20,398.52L266.41,401.16L264.89,405.91L266.89,410.12L272.01,411.98L276.64,410.33L278.85,405.49L276.73,400.14L271.20,398.52Z M278.60,398.42L275.41,402.52L275.89,407.37L279.97,410.82L285.24,410.64L288.78,406.73L288.28,401.12L284.04,397.62L278.60,398.42Z M281.80,395.54L280.24,401.10L283.26,405.67L289.12,406.74L293.35,403.21L293.54,397.69L290.26,393.78L285.71,393.13L281.80,395.54Z M299.82,392.56L297.54,398.19L300.37,403.14L305.53,404.55L309.84,402.10L311.26,396.82L309.07,392.36L304.40,390.62L299.82,392.56Z M298.33,392.43L297.63,398.60L302.08,402.92L308.32,401.55L310.71,395.47L307.85,390.39L302.65,389.33L298.33,392.43Z M300.71,389.03L292.75,389.28L290.10,393.12L293.36,400.66L299.01,401.44L303.03,398.06L303.64,392.93L300.71,389.03Z M317.34,380.99L317.25,386.33L320.68,390.30L325.20,390.73L328.99,387.96L329.84,382.48L326.25,377.63L321.06,377.37L317.34,380.99Z M339.19,376.93L331.35,373.19L326.24,378.03L326.69,382.78L330.86,386.16L337.19,385.33L339.84,381.35L339.19,376.93Z M329.85,372.76L325.31,374.95L324.43,383.08L328.44,386.03L333.77,385.66L337.08,381.46L336.89,376.70L329.85,372.76Z M335.36,372.03L329.16,369.54L324.58,371.89L323.07,376.26L324.84,380.52L329.13,382.78L334.36,381.72L337.03,377.10L335.36,372.03Z M274.27,370.81L275.17,376.49L280.15,379.69L285.69,377.56L287.58,373.54L286.27,368.88L282.19,365.90L277.21,366.70L274.27,370.81Z M273.54,370.24L273.92,375.91L277.87,379.11L282.92,378.61L286.06,375.49L286.55,370.91L283.17,366.21L277.39,365.91L273.54,370.24Z M342.46,344.98L340.66,351.07L344.25,355.71L350.12,355.71L354.20,351.43L353.71,346.22L349.61,342.96L342.46,344.98Z M245.21,331.44L247.13,336.42L251.97,338.50L256.77,336.89L259.12,332.71L258.16,328.02L254.06,325.01L248.03,326.02L245.21,331.44Z M149.26,444.28L153.77,449.31L159.91,448.18L162.33,440.30L158.27,436.03L152.84,436.42L149.51,439.88L149.26,444.28Z M150.08,441.35L151.80,446.58L156.13,448.70L161.30,446.86L163.76,442.33L162.21,437.42L158.19,434.86L153.74,435.51L150.08,441.35Z M154.31,431.73L151.00,436.41L152.19,441.46L156.89,444.53L161.83,443.27L164.82,438.67L163.69,433.84L159.19,430.72L154.31,431.73Z M167.62,437.83L170.01,443.14L174.93,444.42L180.67,439.81L180.76,435.21L178.09,431.60L173.14,430.61L168.81,432.88L167.62,437.83Z M179.37,432.01L174.13,430.53L169.74,433.67L170.55,441.56L176.11,443.79L181.98,440.47L182.63,436.31L179.37,432.01Z M173.61,430.54L169.63,434.56L169.95,439.62L173.81,442.90L179.22,443.04L182.50,440.08L183.04,435.27L179.15,430.57L173.61,430.54Z M157.98,439.16L161.62,444.01L164.87,444.29L170.08,439.51L170.57,435.64L168.50,432.77L161.86,431.40L158.57,432.91L157.98,439.16Z M168.27,431.47L160.40,437.73L161.16,441.12L165.15,443.69L170.62,442.90L174.33,436.22L172.47,432.82L168.27,431.47Z M172.48,432.56L171.69,438.07L174.98,442.11L180.18,442.57L184.14,439.94L183.81,431.57L179.34,429.24L172.48,432.56Z M165.36,437.34L166.21,442.85L170.14,444.51L176.77,442.08L178.82,437.38L176.23,431.93L171.96,430.75L165.36,437.34Z M176.19,442.36L183.54,438.77L184.09,434.15L181.43,430.34L176.90,429.27L171.86,431.62L170.29,435.99L172.03,440.30L176.19,442.36Z M172.95,441.34L179.07,441.49L182.40,437.85L180.21,430.12L175.46,428.38L170.29,431.23L168.95,435.24L172.95,441.34Z M198.90,432.28L188.98,431.13L186.12,435.25L192.06,438.57L199.40,436.70L198.90,432.28Z M197.10,426.78L193.75,430.15L193.49,435.69L197.94,438.99L203.29,438.06L206.70,434.00L206.42,430.00L202.96,426.71L197.10,426.78Z M187.39,429.41L178.77,434.05L179.12,437.31L190.61,436.57L192.23,431.96L187.39,429.41Z M202.24,427.22L201.02,432.30L203.23,436.27L208.06,437.91L214.58,433.10L212.39,425.67L206.95,424.06L202.24,427.22Z M211.77,423.11L205.87,426.42L204.71,431.23L207.57,435.62L212.45,436.27L217.66,432.69L217.09,425.43L211.77,423.11Z M208.54,427.63L210.33,433.35L215.49,435.30L220.21,433.61L222.34,429.74L221.44,424.94L216.59,421.90L211.26,422.93L208.54,427.63Z M217.09,433.79L223.12,431.48L224.29,427.24L218.91,421.54L213.50,422.63L210.40,426.92L212.30,432.30L217.09,433.79Z M211.75,421.82L208.91,427.56L211.89,432.76L216.79,434.06L220.82,431.93L222.90,426.89L220.94,422.42L216.45,420.53L211.75,421.82Z M216.66,419.51L212.63,422.08L211.40,427.02L213.42,431.46L217.95,433.29L222.49,431.49L225.01,427.20L224.09,422.68L216.66,419.51Z M227.35,418.63L219.73,428.89L222.86,430.46L231.90,424.80L233.52,421.36L227.35,418.63Z M235.72,416.31L237.30,424.31L242.67,425.73L248.06,420.71L245.77,413.02L240.91,412.05L235.72,416.31Z M235.98,415.58L229.03,422.88L231.06,425.34L238.28,423.49L242.35,420.49L242.69,416.51L235.98,415.58Z M247.16,409.76L241.85,411.70L240.07,415.58L241.22,419.70L246.03,422.40L253.57,418.66L253.40,413.46L247.16,409.76Z M238.11,419.60L247.43,420.64L250.51,416.41L249.36,412.19L244.20,409.34L237.08,413.38L238.11,419.60Z M239.31,415.70L244.53,421.71L249.16,420.75L252.74,416.31L252.05,411.91L245.04,407.92L240.17,410.70L239.31,415.70Z M282.03,403.76L282.20,412.60L286.72,415.12L292.17,413.15L294.34,406.79L292.12,403.01L287.30,401.44L282.03,403.76Z M279.99,406.40L280.63,411.09L283.88,413.88L288.98,413.77L293.19,409.59L292.13,402.99L288.05,400.54L282.81,401.30L279.99,406.40Z M279.47,404.60L279.90,410.12L283.97,412.76L290.50,410.99L292.06,406.92L290.11,400.83L285.10,399.01L279.47,404.60Z M276.65,406.61L278.13,412.48L281.96,413.53L287.93,408.64L288.51,403.93L282.81,399.62L278.44,402.17L276.65,406.61Z M257.66,397.85L254.87,401.86L255.27,406.31L258.64,409.69L264.87,409.68L268.47,404.61L267.22,399.13L262.71,396.50L257.66,397.85Z M140.79,443.70L146.86,445.75L150.62,440.99L143.91,435.20L138.86,435.30L136.66,438.90L140.79,443.70Z M132.63,440.46L138.93,444.23L143.77,442.41L145.72,437.98L144.02,433.45L139.81,430.94L134.90,431.61L131.92,435.56L132.63,440.46Z M139.94,429.22L133.46,434.30L134.70,440.31L139.16,443.05L144.31,441.62L147.16,436.84L145.29,431.60L139.94,429.22Z M151.84,430.93L144.51,430.07L141.10,433.25L140.65,437.29L144.29,441.96L150.39,442.12L153.74,438.91L154.27,434.28L151.84,430.93Z M132.59,429.26L126.06,436.42L127.80,440.63L131.69,442.68L137.89,440.20L140.05,434.49L138.20,430.65L132.59,429.26Z M117.56,436.38L121.41,438.89L125.95,438.35L129.51,434.66L129.39,429.54L125.16,425.85L118.03,427.25L115.97,431.72L117.56,436.38Z M101.59,435.31L109.42,437.79L113.16,435.31L112.77,426.93L108.69,425.23L103.20,426.93L100.49,430.75L101.59,435.31Z M110.00,435.57L115.98,433.80L118.02,428.46L114.75,423.16L109.09,422.17L104.62,426.16L104.92,432.23L110.00,435.57Z M96.25,426.31L102.41,432.29L107.45,431.31L110.11,428.39L109.51,425.35L99.20,422.92L96.25,426.31Z M253.65,410.99L244.75,410.85L242.04,414.89L243.20,419.61L249.12,422.09L254.35,419.84L255.91,415.03L253.65,410.99Z M261.11,417.16L268.80,419.51L272.92,416.00L273.03,410.58L268.29,406.64L262.77,407.23L259.65,411.81L261.11,417.16Z M264.55,418.95L269.23,418.09L271.19,410.57L267.71,407.03L261.70,406.46L258.47,409.60L258.05,414.26L264.55,418.95Z M261.75,412.31L269.23,414.84L273.23,411.53L273.72,405.83L269.95,401.63L264.33,402.13L260.28,407.24L261.75,412.31Z M259.87,406.96L252.55,407.61L249.44,412.52L262.84,411.06L259.87,406.96Z M263.89,405.71L267.39,411.77L271.38,412.94L277.77,407.43L277.09,403.25L272.51,400.02L267.22,400.56L263.89,405.71Z M280.21,397.70L274.91,399.62L272.86,405.03L276.07,409.85L281.45,411.28L285.10,409.30L286.80,404.45L285.02,399.59L280.21,397.70Z M279.60,398.28L272.68,400.61L271.62,406.91L273.98,410.88L281.25,411.35L283.92,409.23L283.99,401.12L279.60,398.28Z M278.85,409.43L283.66,409.77L287.22,406.83L285.56,398.22L280.94,396.74L275.22,399.75L274.07,404.25L278.85,409.43Z M292.36,405.46L296.87,402.45L297.42,398.18L294.32,393.93L287.83,393.17L283.72,398.03L284.21,402.24L287.29,405.50L292.36,405.46Z M214.33,397.04L222.15,397.86L225.49,394.11L224.77,389.14L218.42,386.22L213.57,387.84L211.76,392.62L214.33,397.04Z M208.45,389.92L213.29,393.44L217.90,392.39L221.34,384.53L218.45,380.95L211.83,381.10L207.98,384.68L208.45,389.92Z M232.68,357.88L241.83,363.24L246.54,360.40L245.24,356.92L241.67,355.57L232.68,357.88Z M205.67,356.26L194.21,351.29L192.22,357.42L197.10,360.93L203.40,361.17L205.67,356.26Z M221.03,325.88L216.00,324.34L211.79,326.60L210.27,331.14L213.30,336.46L217.81,338.25L222.31,336.40L224.26,331.95L221.03,325.88Z M222.05,322.28L216.92,322.26L213.53,325.29L212.84,329.78L217.22,334.87L223.87,334.15L226.56,330.11L225.82,325.32L222.05,322.28Z M218.37,325.91L209.10,323.32L206.29,326.49L206.48,330.73L214.80,335.45L218.51,333.61L219.96,329.73L218.37,325.91Z M210.83,322.08L205.36,323.29L203.17,327.29L204.40,331.67L210.25,334.23L214.69,333.10L217.06,329.17L215.99,324.71L210.83,322.08Z M207.99,333.26L214.27,331.14L216.13,326.49L214.37,321.81L209.91,319.52L204.77,320.96L202.18,325.51L203.51,330.57L207.99,333.26Z M210.43,319.77L203.26,322.20L201.84,326.64L203.64,330.95L207.79,333.08L213.13,331.83L215.75,327.50L214.65,322.57L210.43,319.77Z M224.65,329.45L218.51,332.61L213.35,328.71L204.00,327.19L204.83,324.60L206.43,326.36L214.24,325.52L224.65,329.45Z M451.73,410.59L455.43,415.59L461.07,415.71L464.80,411.48L464.59,406.82L460.98,402.87L456.11,402.62L452.36,405.75L451.73,410.59Z M472.07,399.91L467.08,404.44L467.26,409.45L470.63,412.86L475.42,413.49L479.13,411.13L480.60,406.48L477.98,401.07L472.07,399.91Z M459.69,410.31L465.40,407.64L467.01,402.97L465.31,398.77L461.12,396.55L454.85,398.93L453.03,403.99L455.12,408.46L459.69,410.31Z M328.89,380.29L326.87,384.67L328.18,389.17L332.08,391.76L337.13,391.02L340.43,387.31L340.34,382.35L336.90,378.77L328.89,380.29Z M443.41,382.84L447.95,378.74L447.66,373.35L444.11,369.99L439.46,369.88L435.24,373.40L434.69,378.65L438.14,382.63L443.41,382.84Z M443.22,382.28L448.64,381.26L451.17,377.65L450.60,372.91L445.50,369.26L440.37,370.44L437.43,375.09L438.80,379.91L443.22,382.28Z M328.83,368.32L329.31,373.84L333.47,377.10L339.11,376.16L342.33,371.63L341.10,366.22L336.24,363.53L331.52,364.66L328.83,368.32Z M337.38,375.50L342.30,374.06L344.76,369.92L342.88,363.84L336.78,362.01L332.25,364.66L330.91,369.28L332.96,373.62L337.38,375.50Z M333.46,364.72L332.80,371.11L337.70,375.13L343.03,374.40L346.01,370.53L345.60,365.68L342.02,362.37L337.05,362.02L333.46,364.72Z M337.24,374.99L342.29,372.52L343.79,367.78L337.87,361.54L330.37,365.69L330.08,370.26L332.79,373.93L337.24,374.99Z M368.19,361.13L366.39,365.79L368.04,370.32L372.15,372.60L377.01,371.52L380.23,365.51L377.98,360.43L372.94,358.70L368.19,361.13Z M336.68,354.16L328.64,352.74L325.08,357.02L326.39,363.07L330.47,365.83L335.33,365.03L338.43,360.71L336.68,354.16Z M364.13,351.45L360.19,354.31L359.16,358.45L362.23,363.70L368.30,364.13L372.58,360.40L372.73,355.47L369.30,351.59L364.13,351.45Z M191.77,348.61L188.98,353.45L190.95,358.87L196.01,361.17L201.06,358.86L202.62,353.52L200.37,348.88L196.12,347.18L191.77,348.61Z M365.38,357.01L370.20,359.39L375.23,357.43L377.51,352.63L375.53,347.70L370.64,345.44L365.68,347.51L363.52,352.20L365.38,357.01Z M369.47,346.08L364.24,346.41L360.87,350.26L361.53,355.34L365.77,358.20L371.10,357.67L374.25,354.10L374.09,349.57L369.47,346.08Z M237.10,337.62L236.74,344.27L241.71,347.94L246.51,347.21L249.44,343.85L249.47,338.86L246.21,334.89L241.09,334.37L237.10,337.62Z M228.15,306.71L222.80,310.65L222.86,316.66L227.98,320.33L232.66,319.53L235.76,315.62L235.69,311.01L232.70,307.50L228.15,306.71Z M222.56,299.25L217.26,302.84L216.76,308.37L220.66,312.53L227.09,312.17L230.39,306.37L228.15,300.96L222.56,299.25Z M226.62,300.94L224.04,305.12L224.90,309.72L228.58,312.60L233.98,312.02L237.42,308.53L237.52,303.63L234.22,300.00L226.62,300.94Z M226.92,301.57L224.94,306.16L226.41,310.34L230.23,312.57L235.75,311.12L238.88,306.45L237.13,301.11L231.85,299.19L226.92,301.57Z M229.82,301.70L229.22,306.41L232.34,309.89L237.01,309.84L242.60,305.43L242.45,301.12L239.31,298.17L229.82,301.70Z M234.83,299.20L232.68,302.29L235.77,308.01L246.09,303.99L243.76,297.41L234.83,299.20Z M236.37,297.95L235.41,303.44L238.89,307.67L244.36,307.83L248.64,304.04L248.77,299.09L245.43,295.44L240.49,295.12L236.37,297.95Z M238.51,296.71L236.45,300.92L241.15,307.57L246.77,306.57L249.97,303.17L249.98,298.49L246.78,295.08L238.51,296.71Z M249.20,294.47L240.51,295.86L238.53,300.73L240.94,305.41L246.07,306.61L251.95,302.63L252.19,298.00L249.20,294.47Z M248.00,306.56L252.45,303.44L253.31,298.50L250.54,294.32L245.50,293.20L240.19,296.92L239.75,301.99L242.95,305.95L248.00,306.56Z M245.45,293.25L240.94,296.36L240.08,301.25L242.81,305.40L247.91,306.51L253.31,302.58L253.59,297.62L250.39,293.81L245.45,293.25Z M248.97,306.45L253.15,303.49L254.18,298.61L251.67,294.30L245.26,293.09L241.11,296.45L240.54,301.65L243.78,305.77L248.97,306.45Z M249.71,293.74L242.92,297.08L244.59,304.06L251.41,304.13L255.89,300.47L255.83,296.80L249.71,293.74Z M315.94,738.70L309.58,733.90L308.17,739.53L311.11,747.70L317.28,742.59L315.94,738.70Z M304.15,724.82L298.08,731.63L299.66,736.09L304.88,738.40L310.25,736.47L312.01,731.04L309.20,725.85L304.15,724.82Z M296.83,729.89L299.75,735.14L304.78,735.65L309.34,731.86L309.04,725.94L304.44,722.21L299.07,723.13L296.83,729.89Z M301.87,731.99L308.88,735.64L312.73,733.25L313.79,728.59L310.61,724.56L302.84,723.10L300.07,727.10L301.87,731.99Z M297.40,721.64L296.04,728.54L302.53,731.81L309.16,727.81L308.78,723.25L301.85,720.38L297.40,721.64Z M291.54,718.46L289.67,724.00L293.33,729.05L301.59,728.09L303.12,724.81L300.42,718.41L295.00,715.98L291.54,718.46Z M278.94,712.79L275.39,721.29L278.75,725.45L283.44,725.58L288.03,719.99L287.56,715.27L284.08,712.41L278.94,712.79Z M286.12,710.64L281.58,712.11L278.79,717.29L280.35,721.53L285.39,724.39L290.49,722.54L292.55,717.17L291.54,713.30L286.12,710.64Z M276.73,708.82L275.38,703.96L271.11,701.27L265.91,702.29L262.92,706.68L263.91,711.94L268.57,715.03L274.01,713.71L276.73,708.82Z M245.50,699.48L244.66,704.81L247.89,709.15L253.50,709.84L257.78,706.14L257.89,700.48L254.41,696.81L249.44,696.44L245.50,699.48Z M235.48,685.87L230.73,682.70L225.23,684.11L222.59,690.00L225.90,695.54L231.97,696.18L236.20,691.87L235.48,685.87Z M197.85,683.10L201.05,688.45L206.81,689.28L211.13,685.48L211.09,679.73L207.67,676.22L202.95,675.81L199.07,678.53L197.85,683.10Z M185.59,685.19L190.21,686.77L194.70,684.97L196.95,680.63L194.70,674.58L188.45,672.96L184.21,675.83L183.07,680.78L185.59,685.19Z M157.30,652.09L154.43,656.25L155.11,661.21L158.96,664.42L164.08,664.16L167.67,660.55L167.84,655.46L164.48,651.63L157.30,652.09Z" fill="currentColor" fill-rule="evenodd"/></svg>
