<svg xmlns="http://www.w3.org/2000/svg" viewBox="0 0 1000 1000" role="img" aria-label="Map of Uruguay"><path d="M247.39,114.54L256.65,128.33L296.96,131.44L305.46,127.19L320.23,100.66L354.29,100.00L380.54,121.67L381.99,130.01L389.79,132.93L415.98,161.42L439.66,178.86L467.89,214.41L470.99,223.87L467.89,261.07L489.60,259.83L502.21,248.96L506.61,238.60L517.57,237.55L518.00,224.72L526.01,222.65L556.94,253.72L574.15,287.77L595.92,301.28L603.94,291.75L628.81,317.43L662.80,323.14L677.97,340.53L682.31,357.99L708.57,382.89L726.29,397.11L739.67,393.37L759.61,405.23L766.22,415.40L780.18,420.96L793.87,453.71L795.90,470.36L807.34,485.80L827.52,504.63L857.19,516.64L868.51,528.17L867.53,535.97L843.71,558.03L841.29,570.13L814.22,592.60L810.73,604.34L813.89,641.16L810.34,682.96L814.24,689.71L821.83,689.25L832.59,697.99L819.57,713.42L810.37,750.86L780.37,784.59L779.13,804.76L750.41,820.68L729.29,840.93L726.34,850.31L710.58,853.34L714.37,848.76L713.50,837.53L701.03,832.93L707.75,836.30L698.81,844.24L706.49,849.11L704.10,856.91L616.42,900.00L599.64,886.51L571.95,888.12L555.78,872.32L511.93,866.28L484.82,872.65L447.83,895.28L439.73,885.16L426.33,889.53L413.63,881.08L411.16,876.72L419.40,871.52L417.35,869.24L392.15,866.34L348.38,850.74L309.85,814.71L265.14,811.20L256.38,815.15L248.47,810.53L212.40,818.00L206.55,802.45L181.69,772.16L163.44,764.87L148.51,738.39L136.57,727.91L131.49,691.05L132.34,662.99L139.91,649.99L134.32,640.34L143.76,626.51L143.67,596.26L173.27,591.90L180.76,584.07L185.64,561.75L174.24,543.83L165.01,489.13L178.99,458.09L166.51,437.05L172.23,414.86L164.29,394.36L171.18,384.96L185.59,378.58L195.19,345.98L194.19,338.64L181.94,325.67L193.71,313.20L205.51,287.18L204.59,275.61L212.41,257.27L205.66,236.02L219.07,232.38L220.60,225.95L217.59,200.25L208.18,180.17L209.39,167.84L240.47,137.32L244.49,125.65L241.90,114.96L247.39,114.54Z" fill="currentColor" fill-rule="evenodd"/></svg>
