<svg xmlns="http://www.w3.org/2000/svg" viewBox="0 0 1000 1000" role="img" aria-label="Map of Uzbekistan"><path d="M835.02,581.94L828.64,585.27L827.01,589.67L833.42,594.86L837.12,595.00L840.41,583.76L835.02,581.94Z M802.60,568.11L782.51,572.75L777.94,563.80L770.83,562.48L770.75,555.62L775.79,553.75L789.27,539.34L783.22,537.29L782.82,534.48L786.38,535.01L774.29,521.44L770.46,521.03L766.59,530.64L744.35,541.33L739.12,546.02L730.65,537.04L726.39,535.20L723.47,536.69L721.34,548.15L716.17,549.97L721.49,563.86L721.15,566.90L716.63,566.62L720.21,573.04L707.82,570.73L687.40,574.95L692.34,578.29L703.69,576.03L706.31,579.45L698.21,582.73L696.42,580.18L701.37,592.70L699.38,593.55L695.68,586.35L697.01,592.49L694.88,596.34L692.25,593.34L689.50,594.48L688.30,607.32L684.43,613.18L676.05,614.46L647.16,608.53L637.37,612.90L636.61,616.81L633.63,617.64L630.04,633.59L644.83,639.06L645.90,647.88L665.02,648.53L668.36,656.85L663.43,660.41L662.89,676.03L668.88,688.50L676.92,696.13L671.91,712.51L666.02,715.03L662.66,724.21L652.36,738.65L650.09,759.70L643.23,755.66L639.88,757.78L637.17,753.92L625.80,759.93L614.00,747.56L599.47,750.11L591.33,748.82L591.30,722.83L597.22,712.69L596.22,709.72L581.43,704.34L577.89,700.10L561.38,692.39L555.02,695.42L548.67,694.59L519.48,671.32L503.51,663.13L489.64,649.04L480.94,650.38L460.37,635.39L449.58,622.22L408.36,591.96L401.82,584.57L397.19,558.42L389.66,554.16L386.98,549.26L382.44,539.42L379.76,523.12L375.03,515.29L364.62,507.56L354.31,504.40L347.23,513.28L338.77,509.13L334.60,508.32L333.10,510.45L327.61,507.34L309.80,509.88L291.92,498.86L290.87,491.11L295.20,486.72L289.82,476.26L292.30,473.66L299.30,474.61L291.66,465.96L283.16,463.02L287.39,460.29L286.33,454.79L288.84,448.56L281.30,442.06L260.80,443.14L252.97,439.37L251.35,432.33L247.73,428.24L236.00,426.93L221.72,411.82L219.23,420.31L206.36,418.14L199.98,422.19L208.60,428.12L217.19,442.47L212.85,443.08L212.25,436.87L209.47,434.13L195.07,429.92L190.07,434.22L191.41,438.95L186.28,446.83L187.36,449.06L176.61,451.75L165.54,450.79L157.41,456.57L153.11,463.93L146.72,467.46L145.88,482.86L148.64,494.11L151.18,498.52L155.25,500.20L149.10,506.74L100.12,503.07L100.00,275.01L220.18,240.07L335.82,312.99L341.66,326.32L381.94,369.01L437.02,359.89L493.81,364.89L516.93,354.20L533.17,372.96L544.61,380.40L557.58,406.48L571.84,399.46L569.60,433.57L567.76,435.93L567.53,460.79L590.61,461.36L595.20,492.38L601.28,513.23L648.58,511.62L652.63,513.31L657.41,510.60L661.92,520.39L665.79,518.90L666.44,521.21L664.08,530.94L659.90,534.78L681.84,548.84L684.31,546.70L688.94,547.32L688.72,540.69L686.41,538.49L686.92,528.42L692.45,525.22L696.38,517.63L708.38,510.08L708.61,499.82L717.04,494.48L725.67,493.56L725.27,489.21L736.03,481.55L749.44,478.78L758.70,471.76L770.20,457.09L775.43,455.26L780.50,459.94L787.74,448.70L792.77,449.00L802.25,442.88L811.92,448.68L811.22,451.00L799.05,458.20L792.92,459.07L791.45,465.95L783.76,467.94L774.66,478.83L761.41,487.13L761.28,490.74L769.57,492.38L774.64,497.87L784.64,493.78L789.36,501.18L789.42,508.24L801.27,511.26L808.51,516.33L809.74,511.33L812.99,516.02L815.28,513.28L819.51,515.14L819.63,501.48L824.53,504.63L827.41,502.96L829.82,496.27L827.87,492.39L831.41,489.06L831.43,496.63L834.85,494.93L839.59,501.82L840.74,510.97L845.65,510.93L848.29,513.32L854.10,511.38L854.41,523.09L860.22,521.59L862.21,518.52L877.39,531.30L887.20,531.48L887.28,534.34L893.48,531.11L900.00,533.37L898.82,536.53L883.25,543.56L881.59,549.43L877.67,549.27L875.87,553.44L863.12,547.76L863.66,553.33L866.58,556.62L865.08,560.96L856.58,558.72L858.57,556.68L854.45,556.93L844.70,565.54L847.60,570.24L839.10,569.67L833.07,576.18L829.40,569.07L827.75,572.82L811.95,565.00L809.49,568.76L802.60,568.11Z M782.26,523.45L779.68,523.38L783.58,527.07L782.26,523.45Z M803.79,580.26L811.49,582.24L808.26,585.52L809.83,592.05L801.14,592.54L802.26,585.64L797.98,579.19L800.52,575.35L803.79,580.26Z" fill="currentColor" fill-rule="evenodd"/></svg>
