<svg xmlns="http://www.w3.org/2000/svg" viewBox="0 0 1000 1000" role="img" aria-label="Map of Vanuatu"><path d="M673.86,887.50L680.11,893.23L677.19,898.48L672.77,900.00L662.94,895.08L664.82,887.84L673.86,887.50Z M622.40,811.20L637.75,819.25L630.77,833.69L613.94,824.90L607.56,815.09L610.21,798.60L620.15,795.55L622.40,811.20Z M620.15,753.28L613.59,760.46L582.91,746.80L585.13,721.59L592.56,718.05L600.50,720.06L602.61,730.10L610.27,730.77L612.87,734.94L604.86,736.84L618.36,747.41L620.15,753.28Z M536.23,614.86L540.06,616.00L536.03,625.27L529.26,629.29L519.05,629.62L514.26,624.80L510.62,626.32L511.29,622.45L504.01,625.49L510.62,619.33L504.48,615.36L497.45,620.16L493.75,617.88L506.07,600.11L512.08,597.23L513.54,599.79L525.98,598.75L536.23,614.86Z M500.99,604.29L510.00,598.57L510.95,595.30L501.18,594.99L497.38,603.07L500.99,604.29Z M512.44,593.56L518.98,594.24L520.56,592.27L514.55,580.78L510.34,583.82L509.87,590.00L512.44,593.56Z M522.35,541.73L511.44,546.49L510.56,548.28L518.76,548.64L524.49,543.39L522.35,541.73Z M543.85,523.79L540.03,520.75L533.21,522.90L531.00,526.11L531.72,533.37L536.47,533.98L543.33,529.22L543.85,523.79Z M498.12,517.24L490.47,505.58L493.02,490.43L497.89,491.24L504.01,503.49L509.42,502.57L517.12,512.02L528.89,515.72L528.17,521.04L513.17,514.22L498.12,517.24Z M519.44,484.38L514.89,478.59L509.14,478.59L505.72,481.37L509.74,489.40L516.67,489.03L519.44,484.38Z M500.89,485.53L506.38,482.40L508.21,475.19L506.61,471.90L498.59,475.17L497.56,484.18L500.89,485.53Z M508.37,464.94L479.98,463.01L468.35,452.60L485.05,446.67L495.94,435.59L502.24,452.00L512.81,460.74L508.37,464.94Z M457.65,473.35L461.00,477.60L452.11,487.46L437.33,481.66L426.57,491.26L419.93,489.87L412.02,467.64L410.98,448.13L405.40,439.46L395.87,445.54L386.74,435.89L390.78,414.50L395.14,411.90L406.85,416.53L413.41,436.35L421.13,441.68L421.21,438.10L422.94,444.77L428.03,444.77L430.21,449.40L453.38,464.06L455.17,479.04L457.65,473.35Z M395.94,397.88L380.52,393.67L379.09,387.66L384.55,384.54L395.92,386.76L395.94,397.88Z M382.11,383.13L393.33,384.89L393.38,373.31L390.22,372.90L381.35,378.70L382.11,383.13Z M494.12,366.93L506.46,417.11L504.82,423.96L499.42,425.82L490.39,389.13L494.12,366.93Z M471.18,358.98L460.42,369.32L449.29,369.27L442.76,365.43L456.79,350.98L477.90,346.73L471.18,358.98Z M389.39,307.10L379.97,303.94L377.83,308.89L380.69,312.23L389.44,313.87L391.30,311.84L389.39,307.10Z M491.62,359.34L489.44,305.99L498.12,338.33L496.72,359.34L491.62,359.34Z M397.38,370.81L379.17,381.35L361.20,380.62L351.36,388.63L344.78,385.22L345.02,377.96L339.80,374.66L330.08,358.22L333.61,339.67L329.42,318.92L320.12,296.68L323.69,275.96L329.42,274.71L337.56,290.88L344.05,295.29L351.10,333.22L362.46,332.72L367.10,326.96L367.23,309.95L371.83,306.69L379.85,307.45L375.42,318.16L380.52,331.08L386.39,329.62L386.03,343.16L391.46,349.38L389.33,356.14L397.38,370.81Z M425.92,219.72L435.31,225.11L430.94,237.34L413.79,238.03L414.46,225.77L425.92,219.72Z M422.71,197.64L412.68,179.31L423.15,171.60L430.94,181.59L429.51,185.46L433.93,188.12L422.94,191.54L422.71,197.64Z M444.60,159.25L436.27,168.53L437.40,172.49L449.50,168.57L448.73,161.19L444.60,159.25Z M413.59,150.60L407.82,144.67L399.96,147.49L403.15,156.80L412.56,155.32L413.59,150.60Z M322.41,118.77L330.07,125.95L336.31,117.62L327.88,113.89L322.41,118.77Z M324.29,101.42L319.79,99.93L320.74,111.69L323.53,113.87L324.29,101.42Z M340.04,145.33L341.07,136.98L337.00,133.85L332.56,135.16L330.54,137.42L331.99,144.84L334.21,147.34L340.04,145.33Z" fill="currentColor" fill-rule="evenodd"/></svg>
