<svg xmlns="http://www.w3.org/2000/svg" viewBox="0 0 1000 1000" role="img" aria-label="Map of Venezuela"><path d="M846.30,479.64L857.11,494.00L856.39,496.27L849.66,498.66L845.85,507.02L835.25,511.21L827.69,518.67L819.74,519.22L815.77,528.76L808.97,534.52L815.75,544.90L814.34,552.29L818.57,555.78L822.40,552.43L827.83,553.29L831.63,556.02L831.43,559.57L827.55,565.72L813.76,571.08L810.56,574.83L799.66,572.27L798.28,576.71L787.96,577.55L783.64,585.76L787.44,592.15L788.40,605.68L780.62,609.90L773.92,618.49L808.48,658.01L812.46,659.70L815.91,668.92L815.17,674.04L809.62,680.22L800.28,684.25L795.99,693.47L785.92,695.85L778.19,694.22L779.38,698.09L768.39,700.55L764.95,708.70L755.98,708.51L749.19,713.56L740.34,713.41L734.10,717.11L719.66,712.17L713.93,715.24L712.67,719.90L703.02,720.10L700.68,727.25L702.75,739.96L695.39,745.25L689.73,743.21L671.07,724.10L667.19,723.59L662.70,729.64L654.24,724.76L643.53,724.57L634.98,728.15L629.24,716.03L617.76,713.83L605.94,715.59L600.14,707.87L595.31,706.79L594.18,710.71L598.71,714.42L603.14,723.34L626.28,743.45L624.04,752.79L625.23,768.47L637.09,790.21L634.44,803.16L669.32,805.85L669.97,814.03L667.91,820.27L657.08,822.83L648.37,829.54L635.03,832.07L632.07,848.27L618.39,861.92L616.19,860.51L617.78,854.94L615.44,854.39L598.51,868.20L592.80,866.97L583.16,873.92L577.15,874.62L573.67,885.41L567.13,886.13L560.61,897.83L555.80,900.00L553.45,895.23L557.07,887.39L552.99,882.23L545.13,882.73L524.67,895.65L516.74,894.87L510.32,891.88L485.70,869.53L480.13,845.96L472.15,828.70L473.09,822.73L467.69,814.07L469.14,807.25L462.00,802.98L452.80,792.31L448.84,791.48L446.16,784.97L439.61,783.45L434.09,786.23L435.00,781.11L462.84,754.65L452.83,736.90L445.89,734.56L437.76,712.71L437.40,699.10L433.09,693.59L437.40,665.39L435.22,650.72L446.66,639.97L446.23,627.06L456.90,616.76L453.28,609.52L455.45,605.08L448.93,601.45L435.60,598.94L427.67,604.02L402.89,605.24L393.09,608.38L370.69,604.02L360.95,611.31L356.47,607.29L350.56,609.11L314.49,563.91L304.50,565.73L294.42,561.93L290.85,557.89L284.29,557.14L259.00,564.44L253.29,561.08L236.04,559.68L224.05,563.31L216.39,561.77L210.90,557.84L205.22,542.15L194.25,540.46L190.88,536.70L192.30,518.19L190.22,512.62L194.65,506.97L197.65,507.04L198.40,503.78L195.36,490.41L180.53,474.67L174.45,450.09L172.57,448.62L165.81,450.62L162.94,440.45L152.29,446.93L142.89,445.81L164.22,412.98L167.93,379.99L189.80,343.42L202.02,341.61L217.59,314.66L249.86,304.62L251.00,307.89L248.78,309.53L218.14,318.42L219.26,329.61L223.59,338.31L235.72,349.05L228.24,349.03L233.21,360.35L238.36,364.67L235.56,378.86L228.98,383.28L221.45,395.60L217.69,397.38L209.52,412.24L216.12,421.35L218.86,427.38L216.71,423.72L215.63,425.54L218.14,428.62L215.27,428.44L216.32,431.74L220.33,429.56L224.25,432.79L221.29,433.05L221.05,435.70L221.77,433.52L230.03,435.70L229.75,440.77L225.72,443.75L229.50,443.52L228.60,449.19L231.40,452.07L239.34,453.94L256.00,447.87L260.70,440.81L265.40,438.79L263.93,426.63L266.80,416.60L264.87,410.55L257.79,404.03L254.59,394.92L249.53,391.30L243.99,381.64L244.15,376.31L240.19,372.97L242.37,369.62L240.90,363.61L238.00,359.98L245.22,360.68L246.98,354.14L242.31,351.97L253.21,350.55L275.53,339.41L294.25,336.39L295.70,334.16L309.13,331.16L312.92,328.51L313.16,324.86L319.37,326.41L318.45,322.92L312.79,319.62L332.08,326.63L334.78,323.09L330.97,312.97L310.15,317.47L310.35,308.69L308.63,309.35L305.40,304.23L310.46,290.74L320.36,286.12L325.22,288.21L329.95,295.88L334.59,316.24L341.09,324.98L359.67,321.35L370.65,325.74L381.10,325.77L401.07,338.85L405.29,339.20L411.86,353.80L406.70,354.14L413.95,355.96L409.05,358.90L411.41,368.03L419.70,377.07L433.60,378.96L478.47,370.51L514.17,370.51L517.22,368.33L529.29,372.35L525.31,376.05L537.94,386.54L535.42,385.82L535.79,388.00L546.59,391.29L538.66,386.54L579.93,400.47L586.27,397.82L596.10,398.19L599.24,390.90L601.83,393.04L603.74,389.81L612.32,389.78L617.14,387.01L612.58,385.31L616.94,384.73L616.90,382.47L618.16,384.99L619.11,382.23L627.04,377.61L644.13,379.28L655.11,376.71L635.28,371.63L628.06,372.69L624.65,375.62L621.30,370.05L622.72,367.24L629.34,370.18L634.39,368.33L641.43,369.45L646.84,365.07L649.75,367.62L660.46,369.56L669.18,365.82L676.35,366.82L681.07,363.95L693.35,365.82L705.06,362.49L734.07,366.52L750.30,363.61L744.16,368.33L728.89,369.38L724.56,374.81L707.34,372.86L693.60,374.78L689.00,378.89L697.09,374.74L698.46,381.37L689.82,381.32L691.88,384.00L689.36,388.36L693.17,387.81L692.60,381.46L695.90,383.28L701.96,381.98L706.67,387.40L709.22,396.04L707.64,398.63L701.28,398.40L698.90,400.76L694.75,397.50L688.64,397.50L692.04,398.31L692.94,402.56L694.06,398.55L700.04,403.21L700.88,399.29L704.48,400.42L709.64,398.13L709.59,391.07L711.67,391.07L716.14,394.93L718.95,406.57L722.32,409.13L725.41,418.61L729.40,411.35L728.65,404.36L730.50,406.27L732.78,411.17L730.83,422.24L734.07,417.55L731.91,406.57L740.74,409.67L730.53,405.56L731.85,401.95L740.85,405.26L751.05,414.05L750.30,421.54L753.75,415.79L755.69,424.45L756.33,419.26L751.22,412.18L763.62,414.58L759.49,408.50L761.29,408.38L772.58,417.01L768.33,411.52L771.69,412.65L783.95,425.46L791.99,425.25L802.04,431.90L806.08,439.48L790.30,450.70L788.90,453.94L796.94,446.45L794.45,453.55L789.55,458.25L783.77,476.93L760.12,476.53L763.29,479.77L775.90,483.44L779.85,488.19L785.27,483.07L793.39,482.67L790.69,484.51L791.01,487.86L796.08,478.68L810.97,477.16L822.21,481.00L827.84,475.53L846.30,479.64Z M789.61,477.27L795.19,478.64L792.13,479.77L792.61,481.74L780.57,481.95L782.82,478.92L788.15,480.90L789.61,477.27Z M798.70,454.45L793.66,462.28L789.69,465.77L802.06,459.57L803.61,455.99L798.70,454.45Z M790.89,462.58L802.12,454.18L803.37,450.69L790.73,456.52L790.89,462.58Z M801.27,442.36L794.55,446.49L793.26,451.55L795.58,455.93L804.05,452.21L805.91,444.41L801.27,442.36Z M800.62,444.06L799.73,452.22L802.76,453.88L812.83,447.07L808.54,440.10L800.62,444.06Z M634.84,357.22L632.50,362.80L635.02,365.77L643.89,367.67L645.82,359.55L639.95,356.01L634.84,357.22Z M572.73,350.78L566.14,349.73L561.36,354.67L572.17,357.36L575.03,355.45L572.73,350.78Z M643.22,340.32L648.13,351.24L645.22,351.56L642.32,355.96L633.82,357.41L627.71,351.57L615.46,351.57L617.46,346.52L625.38,344.98L627.40,348.03L634.38,350.34L638.19,343.56L643.22,340.32Z M499.56,302.12L492.26,305.12L491.26,310.17L496.67,313.08L502.29,311.86L504.56,309.39L502.65,303.88L499.56,302.12Z M519.54,310.53L527.65,312.57L530.75,307.53L529.96,303.49L526.24,301.70L517.88,303.57L517.04,307.45L519.54,310.53Z M601.09,299.70L598.67,307.65L602.10,310.24L610.05,310.13L612.20,304.94L610.61,300.77L604.25,297.54L601.09,299.70Z M486.08,313.51L494.69,311.73L496.95,307.21L492.56,304.71L485.90,306.34L483.51,311.59L486.08,313.51Z M486.42,300.00L485.52,306.29L497.16,306.79L497.40,300.88L486.42,300.00Z M439.69,301.81L443.67,303.65L449.22,302.55L450.81,294.77L444.93,291.37L439.91,292.50L437.60,297.11L439.69,301.81Z M449.68,298.09L449.44,291.83L444.42,288.35L438.47,290.33L436.38,295.98L439.50,301.12L445.34,301.98L449.68,298.09Z M438.67,300.19L444.02,302.16L448.99,299.50L450.33,294.02L447.90,289.77L443.44,288.18L439.00,289.84L436.65,294.09L438.67,300.19Z M437.25,297.13L441.21,300.81L446.50,300.56L450.13,296.42L449.53,290.56L444.64,287.30L439.01,289.01L437.25,297.13Z M442.72,286.42L437.49,289.31L436.42,295.04L440.12,299.55L445.26,300.03L449.20,296.99L450.08,292.09L447.46,287.80L442.72,286.42Z M449.82,294.06L447.34,287.75L441.56,286.24L436.77,289.81L436.55,295.79L440.98,299.83L446.74,298.99L449.82,294.06Z M662.84,101.25L661.28,95.55L656.18,93.24L650.77,95.38L648.96,100.46L651.44,105.25L656.30,107.11L660.65,105.39L662.84,101.25Z M766.38,479.25L778.24,478.93L780.92,485.06L776.99,482.19L766.38,479.25Z M804.93,477.49L816.13,476.82L816.78,471.99L810.55,467.45L803.60,474.36L804.93,477.49Z M788.14,469.09L808.87,461.88L811.31,467.36L802.87,475.40L785.85,477.66L788.14,469.09Z M720.11,405.48L719.98,412.96L724.38,416.20L727.88,415.36L730.39,410.16L729.35,405.30L726.60,402.60L720.11,405.48Z M718.36,395.61L714.81,398.27L714.57,402.22L718.44,408.89L722.08,409.21L724.96,406.95L724.56,399.26L722.24,396.10L718.36,395.61Z M726.83,395.80L721.50,402.45L724.90,408.81L732.07,406.93L734.95,401.52L733.13,396.53L726.83,395.80Z M708.77,382.09L702.67,375.36L699.71,375.16L699.27,381.69L707.57,388.66L709.60,386.32L708.77,382.09Z M627.98,353.37L621.93,355.43L619.71,360.18L624.45,365.68L630.95,365.15L633.26,361.69L632.43,355.41L627.98,353.37Z" fill="currentColor" fill-rule="evenodd"/></svg>
