<svg xmlns="http://www.w3.org/2000/svg" viewBox="0 0 1000 1000" role="img" aria-label="Map of Vietnam"><path d="M589.64,568.17L588.10,562.78L591.60,558.32L586.60,554.53L585.75,550.83L593.21,549.05L597.11,537.68L592.38,529.97L588.26,529.49L587.93,526.18L581.79,525.39L570.33,510.39L572.27,505.75L582.11,502.52L585.71,497.61L585.23,494.42L578.13,494.68L569.97,488.58L568.22,483.69L560.34,481.55L555.10,475.73L554.63,469.49L549.21,475.36L545.48,474.12L543.89,466.44L538.72,462.52L537.88,444.67L532.00,444.32L525.41,428.70L520.26,430.18L496.23,407.69L482.91,380.26L479.97,379.13L477.65,381.88L473.99,379.47L473.86,376.38L467.29,373.46L462.81,365.48L464.56,358.64L467.46,356.80L464.51,352.29L443.60,347.01L432.55,337.72L417.63,330.54L414.37,326.10L398.81,319.78L411.36,309.84L406.74,299.19L411.30,300.75L418.59,297.82L422.03,300.59L426.44,298.94L432.98,303.40L438.61,303.15L441.82,296.81L448.52,293.24L449.13,290.14L445.95,289.12L447.26,286.90L456.03,282.18L456.81,277.82L453.88,272.46L449.26,269.99L440.83,270.44L442.08,263.50L436.60,259.55L425.39,258.16L429.81,253.04L434.89,252.98L438.66,246.99L426.91,240.26L421.18,233.74L411.48,229.98L395.53,236.21L389.87,246.45L377.61,237.84L372.79,239.28L360.71,234.99L348.96,218.88L348.89,215.61L344.39,214.11L348.24,211.38L350.46,203.55L346.91,204.88L353.38,196.78L352.01,188.04L346.78,189.80L344.68,182.69L341.84,191.07L336.57,192.32L333.47,179.16L327.60,176.12L327.85,172.67L313.51,160.56L308.92,152.34L314.08,151.63L325.76,132.47L345.98,141.41L349.66,148.03L356.23,150.58L370.81,131.24L375.60,133.94L380.89,142.40L385.38,132.31L388.34,130.64L404.59,146.42L411.20,131.04L419.22,129.27L419.00,133.71L424.37,136.73L435.46,128.64L443.11,129.60L449.49,123.87L448.16,115.15L451.90,110.93L469.10,106.04L474.88,100.00L486.11,111.37L487.32,116.55L494.53,117.40L503.03,124.93L510.59,121.10L517.49,121.12L521.14,122.64L523.90,127.63L535.98,123.80L551.67,130.74L545.97,142.51L540.62,141.65L538.01,150.14L538.78,155.17L543.56,157.10L545.08,161.76L544.57,175.51L548.50,173.38L558.46,178.32L563.08,177.75L562.74,184.07L571.55,189.23L576.76,189.05L580.69,195.48L584.73,192.63L588.65,196.45L603.02,192.42L614.11,201.63L610.91,203.95L609.87,199.42L606.04,201.48L605.55,199.41L605.24,201.23L602.45,199.76L603.46,203.10L595.59,207.16L593.29,211.99L589.74,209.04L589.96,211.73L584.18,210.11L585.62,212.33L581.33,214.95L582.04,226.39L573.57,228.30L572.83,231.25L566.03,230.11L570.35,225.69L566.95,227.56L565.35,226.05L564.99,227.90L563.93,226.05L562.64,230.52L554.99,228.30L559.64,232.73L556.06,231.25L555.73,234.22L550.77,230.18L553.27,229.18L552.10,226.54L543.99,226.79L546.12,227.56L545.77,230.11L549.87,231.20L549.31,234.20L547.00,234.22L552.51,245.31L550.49,243.37L545.06,244.20L547.17,246.28L543.76,247.98L541.12,246.08L543.09,249.79L537.57,252.69L540.76,252.36L540.76,256.08L537.57,258.29L541.51,257.71L539.71,261.61L541.42,267.05L540.85,267.65L538.53,265.22L536.51,265.27L540.23,269.39L530.41,270.47L519.77,282.35L516.19,283.83L516.19,280.13L514.97,283.83L511.93,281.98L508.32,285.96L506.93,293.09L503.74,294.19L506.64,294.54L501.22,304.22L499.76,303.37L500.89,313.11L498.74,314.19L500.69,320.84L497.29,323.45L496.96,330.12L492.11,332.45L490.53,336.77L491.65,340.86L495.90,343.85L493.74,343.85L494.45,345.36L497.74,347.54L497.67,354.21L498.38,349.01L504.35,362.42L515.48,376.05L524.70,379.01L528.61,382.87L526.54,384.61L528.64,386.82L533.22,383.36L532.85,386.10L537.90,392.76L533.29,396.42L536.51,405.68L530.09,402.73L525.45,402.36L532.93,404.57L530.53,405.22L531.86,407.19L532.32,405.55L536.84,407.19L550.33,425.96L568.41,439.32L573.19,448.46L569.96,451.24L573.84,449.07L595.61,466.40L585.63,463.12L595.61,467.92L594.21,468.69L597.05,468.32L597.05,471.27L598.82,470.03L606.31,477.62L603.99,477.21L604.81,481.22L609.18,483.12L610.92,479.05L615.18,480.90L616.80,479.42L619.47,485.36L617.37,485.39L625.18,486.43L621.96,490.13L624.83,494.25L626.43,493.29L624.83,497.94L628.02,497.57L627.31,489.39L631.78,489.75L630.89,492.74L628.37,492.34L629.07,498.38L634.06,505.20L635.86,504.59L638.22,511.82L646.71,523.59L650.08,524.21L647.25,527.57L650.79,525.69L654.73,534.61L657.24,533.50L655.54,531.97L657.56,529.01L660.64,536.73L664.02,538.67L659.38,543.96L661.21,545.72L661.85,544.27L665.78,561.03L671.01,567.59L669.70,575.78L678.95,599.06L675.50,597.79L682.50,612.93L682.33,619.26L680.55,619.46L679.60,612.15L678.00,616.73L679.99,618.29L678.21,621.27L681.82,631.64L677.45,626.21L684.18,635.14L682.50,638.32L680.73,637.01L682.14,635.37L679.27,634.08L678.60,639.06L682.50,641.24L679.99,644.22L681.82,647.58L683.06,644.69L682.50,653.11L690.70,664.99L690.34,668.31L689.30,666.87L685.70,669.79L691.08,678.88L689.99,683.51L687.50,677.20L686.08,679.82L684.31,678.68L686.79,675.89L685.18,671.26L677.18,679.42L677.18,684.62L679.47,682.71L678.85,686.13L684.51,692.94L681.98,695.38L676.15,689.55L674.31,690.55L679.11,697.85L675.72,699.41L678.21,703.50L676.11,703.87L681.82,721.32L678.21,720.92L677.89,713.50L675.72,707.36L677.35,715.62L673.07,721.73L675.02,723.87L677.18,721.49L679.15,728.65L673.60,737.59L667.58,734.21L666.82,749.84L664.02,751.65L658.11,750.53L652.46,758.60L642.17,760.13L630.16,773.12L628.00,771.02L620.09,772.84L614.47,784.66L605.41,785.04L589.17,795.35L579.96,797.95L576.73,802.01L572.48,800.56L573.87,798.98L571.74,796.66L565.70,794.99L562.15,796.47L564.29,794.04L564.25,789.63L561.77,784.66L563.99,793.05L562.15,788.69L563.19,794.26L560.70,797.24L559.64,790.00L549.48,786.05L550.77,789.83L548.74,794.23L544.70,794.26L541.51,798.72L540.76,796.10L540.86,797.99L541.67,799.06L542.61,798.87L544.70,796.84L546.47,799.06L549.14,797.17L551.72,807.07L532.58,805.33L552.08,813.97L548.93,819.54L546.83,817.94L544.35,823.85L534.99,819.28L525.80,808.32L534.62,820.53L546.81,828.06L545.38,830.96L545.06,828.75L543.77,831.87L541.12,832.04L516.51,809.80L540.51,836.57L538.88,844.90L530.63,846.88L523.63,842.40L507.14,824.88L501.22,822.03L514.44,836.09L520.86,847.27L520.67,856.55L486.66,869.53L479.87,876.49L475.03,886.67L468.22,890.52L463.93,896.29L451.18,900.00L444.55,898.17L450.09,894.87L449.97,892.79L456.74,891.69L451.03,892.06L454.97,890.18L454.58,886.83L449.13,888.88L446.94,886.36L451.20,836.62L453.09,830.51L457.10,830.37L461.51,826.06L464.54,830.19L464.22,825.02L458.83,817.49L453.52,817.20L446.81,810.21L438.55,814.66L437.29,808.36L432.62,802.43L433.97,799.79L431.09,802.01L430.14,799.78L436.15,793.92L451.09,793.75L462.13,783.87L459.25,774.69L462.71,771.28L475.18,777.12L479.99,770.41L483.28,771.61L497.78,767.57L504.32,777.70L507.06,774.01L519.84,781.01L516.96,772.45L517.46,770.07L520.39,769.69L518.96,765.52L516.52,763.71L515.13,765.37L502.54,752.74L503.98,744.44L500.49,734.63L503.24,732.65L507.20,733.66L511.43,726.76L532.76,732.62L531.30,727.22L533.43,721.72L531.10,715.99L547.09,715.94L550.74,710.80L560.17,709.98L573.60,697.83L579.23,696.56L584.20,700.62L589.32,695.77L591.96,681.58L586.52,659.14L594.14,640.32L594.00,633.36L585.63,617.96L584.98,607.09L581.02,606.12L579.22,599.77L580.87,587.77L582.70,583.45L586.75,581.98L589.64,568.17Z M526.59,844.40L516.18,834.83L515.05,834.61L520.10,846.12L526.06,847.75L526.59,844.40Z M548.36,807.21L537.32,805.73L536.49,806.30L548.02,810.93L550.45,809.90L548.36,807.21Z M568.63,796.05L563.56,801.68L567.08,808.17L576.74,799.61L573.82,795.14L568.63,796.05Z M563.98,802.00L560.90,792.20L554.68,793.54L555.20,804.90L563.98,802.00Z M560.43,796.76L562.84,793.68L562.72,788.07L556.81,784.42L551.59,785.67L550.66,792.04L552.84,795.80L560.43,796.76Z M675.12,703.17L683.90,708.32L688.64,705.15L688.53,701.61L677.46,698.12L675.12,703.17Z M542.50,885.89L536.34,892.97L538.08,898.17L540.72,899.14L548.11,894.88L547.58,886.22L542.50,885.89Z M534.85,822.25L530.37,822.39L529.71,828.60L535.60,834.54L541.20,834.66L541.52,829.07L534.85,822.25Z M410.95,802.41L408.43,817.28L409.35,822.03L407.24,820.82L404.46,809.83L398.69,802.40L403.25,802.66L406.93,798.09L410.95,802.41Z M556.06,797.58L553.22,797.24L554.28,800.56L550.68,797.37L549.70,786.47L554.69,789.29L556.06,797.58Z M569.09,236.95L560.12,232.62L556.13,236.64L565.00,245.80L569.82,239.71L569.09,236.95Z M548.32,231.01L547.91,237.10L557.67,241.98L558.87,235.47L553.87,229.56L551.82,228.46L548.32,231.01Z M590.17,226.91L583.99,237.67L586.88,240.64L593.11,233.88L593.63,227.89L590.17,226.91Z M597.16,224.45L596.77,233.52L600.18,235.96L604.20,234.76L608.56,228.38L606.64,224.81L600.33,222.12L597.16,224.45Z M587.91,224.27L580.49,232.63L581.88,235.89L591.74,233.02L594.06,224.74L587.91,224.27Z M592.42,219.24L588.42,227.58L588.77,230.43L592.21,232.16L595.98,229.77L598.14,222.59L597.70,219.69L592.42,219.24Z M590.57,216.08L585.63,212.28L581.12,225.06L587.70,223.38L595.03,216.07L590.57,216.08Z M600.89,205.13L595.42,210.28L598.13,215.26L609.06,210.49L606.07,204.91L600.89,205.13Z M603.94,209.42L607.18,211.43L615.35,208.45L616.94,205.41L614.06,203.54L605.15,205.02L603.94,209.42Z M658.14,790.91L657.77,797.08L660.81,799.93L666.10,800.72L669.12,798.56L670.07,793.13L667.37,788.44L663.95,786.97L658.14,790.91Z M687.80,676.21L678.75,678.66L678.14,682.15L684.72,688.12L688.58,688.74L691.57,686.24L691.65,682.34L687.80,676.21Z M584.92,232.72L580.12,230.61L576.26,232.27L574.54,236.11L577.92,242.53L581.71,244.57L585.87,243.42L588.07,239.71L584.92,232.72Z M582.80,228.24L575.99,229.97L574.19,234.76L578.31,240.13L583.10,241.07L587.62,236.38L587.37,231.03L582.80,228.24Z M599.26,227.92L601.31,232.89L605.58,234.28L609.55,232.19L612.87,225.90L607.66,220.33L601.66,222.87L599.26,227.92Z" fill="currentColor" fill-rule="evenodd"/></svg>
