<svg xmlns="http://www.w3.org/2000/svg" viewBox="0 0 1000 1000" role="img" aria-label="Map of Yemen"><path d="M729.14,261.70L778.69,379.22L784.03,381.34L803.29,424.62L766.09,438.13L750.09,450.83L740.94,470.21L742.27,477.54L745.54,479.70L745.80,495.67L724.77,502.65L721.81,507.06L719.18,505.87L709.22,510.39L708.99,514.76L699.26,516.39L688.41,522.42L634.13,534.96L609.15,549.17L599.97,550.90L599.16,548.69L593.32,549.49L555.32,562.57L542.61,571.79L536.67,571.58L531.14,579.79L530.72,585.07L522.94,590.23L520.64,595.99L510.19,604.54L501.45,604.37L495.05,608.32L486.34,606.43L476.37,609.69L473.15,605.44L464.91,603.59L440.15,616.33L423.64,631.45L391.21,639.87L377.12,646.99L351.26,648.16L346.03,646.58L308.10,653.11L290.57,671.93L271.57,679.44L267.60,693.26L262.31,691.86L266.04,690.38L264.70,686.57L255.13,690.39L255.14,692.71L258.42,692.61L255.78,695.49L249.36,692.55L245.54,694.65L243.26,690.39L237.72,689.28L233.20,690.82L224.71,699.62L209.74,703.16L206.20,701.78L209.66,702.25L209.74,700.29L207.23,700.61L193.41,704.62L189.98,700.83L170.36,693.66L165.35,698.22L161.51,698.67L161.86,687.41L145.39,657.13L147.25,640.33L149.98,636.25L149.03,626.79L145.85,616.11L136.67,601.74L127.58,572.00L129.21,571.53L131.73,576.95L130.29,561.63L122.54,546.38L122.51,544.17L126.67,551.38L126.11,541.89L122.30,536.60L121.23,528.88L112.52,523.83L106.13,525.11L104.29,521.46L109.13,521.26L111.12,512.96L110.25,516.75L116.62,523.83L117.42,514.49L109.75,489.72L119.28,474.95L119.63,462.32L116.26,443.41L123.51,440.09L124.08,435.90L132.72,431.96L135.96,422.53L142.30,423.08L141.54,418.05L144.40,413.92L140.02,411.32L137.81,406.09L138.20,393.89L140.71,385.34L146.88,382.42L146.43,379.54L141.31,377.29L150.51,368.08L157.84,363.86L163.87,364.31L171.62,368.09L179.03,375.46L189.44,375.37L191.33,378.96L197.25,374.39L202.69,376.08L206.93,371.83L274.72,370.20L292.40,378.26L351.91,384.35L377.75,380.79L395.11,402.85L407.85,403.50L425.60,393.50L436.37,367.78L474.58,320.32L532.87,290.49L729.14,261.70Z M814.41,743.48L821.82,742.11L823.37,737.82L819.53,732.77L813.81,732.44L809.51,736.90L810.46,741.31L814.41,743.48Z M800.96,730.28L794.04,731.91L793.21,736.67L804.95,739.80L805.87,734.47L800.96,730.28Z M734.85,729.72L756.55,732.36L756.48,735.71L742.57,734.05L734.85,729.72Z M153.23,703.87L160.27,707.21L164.54,703.43L164.89,698.87L161.40,695.91L153.18,695.95L151.28,699.92L153.23,703.87Z M895.36,708.39L900.00,707.93L890.80,713.67L880.37,716.00L873.33,721.70L846.03,725.22L835.43,722.85L830.99,717.20L817.74,708.40L823.24,707.20L823.68,700.57L831.88,696.56L840.94,697.23L848.15,703.12L853.70,704.58L855.69,701.21L864.50,701.31L871.93,697.48L895.36,708.39Z M108.46,624.20L106.52,632.28L111.10,633.76L116.81,630.06L119.79,622.47L115.45,620.37L108.46,624.20Z M113.08,601.51L107.76,606.49L115.57,615.08L119.03,606.32L115.74,601.70L113.08,601.51Z M105.51,506.76L100.00,511.00L99.12,517.83L101.45,520.59L105.43,517.13L105.51,506.76Z" fill="currentColor" fill-rule="evenodd"/></svg>
