<svg xmlns="http://www.w3.org/2000/svg" viewBox="0 0 1000 1000" role="img" aria-label="Map of Zambia"><path d="M848.46,238.42L848.94,243.47L853.33,245.02L852.98,253.91L856.32,253.11L859.38,256.29L860.60,251.10L865.88,252.08L868.70,260.84L877.38,268.17L878.89,272.90L874.68,284.49L890.36,296.25L890.33,304.08L899.40,316.20L900.00,320.55L888.15,334.04L875.71,337.48L869.79,342.06L873.06,344.17L874.65,352.69L880.62,361.83L872.02,379.98L869.63,379.52L868.42,389.87L874.18,391.96L875.36,404.50L871.17,430.30L877.79,443.54L885.23,442.85L889.94,445.49L877.85,457.92L871.33,457.87L865.73,464.06L862.80,461.51L855.58,463.54L849.85,474.58L850.25,479.74L854.81,484.94L851.55,498.96L853.75,504.97L849.63,508.72L841.09,527.86L830.85,532.64L831.65,534.87L838.13,536.19L841.11,540.71L837.67,545.35L845.27,548.39L852.25,557.10L853.87,564.54L863.47,555.73L867.75,561.97L762.10,597.49L745.17,605.50L704.46,614.96L663.32,629.94L666.65,647.49L673.62,656.12L675.53,665.01L673.79,670.67L676.72,675.53L662.83,677.12L637.52,674.43L620.41,677.31L592.99,688.34L583.14,697.71L575.61,698.94L570.47,705.74L570.47,728.76L563.90,738.88L530.99,751.12L519.63,759.62L499.31,768.90L487.29,785.68L482.92,797.24L454.17,825.78L451.32,833.70L444.88,839.07L422.90,846.84L389.51,833.75L381.53,839.07L369.85,841.91L364.99,839.17L364.73,835.42L353.22,828.74L341.93,832.31L329.56,830.83L314.99,820.76L309.13,812.56L285.02,806.33L277.27,809.21L264.80,804.84L253.28,805.42L195.89,816.77L195.94,813.96L191.69,810.12L182.76,809.43L181.84,805.32L176.47,802.09L169.69,792.37L153.72,783.65L149.98,775.63L136.16,765.15L124.20,748.81L117.64,748.24L108.77,739.70L106.84,733.64L108.60,728.14L105.20,727.10L102.18,719.21L104.47,719.21L100.11,711.62L100.00,490.85L238.24,490.85L229.00,475.98L233.32,459.95L240.30,447.55L235.07,431.18L237.52,408.15L235.09,395.00L238.87,382.53L242.42,378.84L238.96,369.43L238.45,349.03L235.97,341.29L246.01,344.58L246.69,353.30L258.30,353.79L263.54,357.30L265.03,369.86L257.72,377.04L268.74,382.82L276.83,381.49L286.94,373.16L319.19,367.58L327.83,363.94L328.83,370.18L326.08,371.85L327.57,373.65L325.69,378.10L330.20,395.37L339.52,400.50L340.51,404.81L349.12,401.46L356.25,406.49L364.80,406.02L373.72,413.69L386.41,413.65L395.40,416.37L403.38,414.31L408.47,417.75L424.09,421.42L426.96,418.30L434.82,418.00L439.84,414.12L444.89,399.28L445.05,392.09L455.75,390.27L459.44,407.09L472.20,415.02L479.03,433.12L487.08,441.13L495.19,441.88L502.03,438.94L507.31,441.81L509.01,446.34L517.83,447.02L520.81,450.65L524.54,448.77L533.89,451.49L540.75,457.12L546.88,467.45L544.26,472.24L548.97,482.72L551.78,482.93L554.33,479.47L560.27,483.01L568.67,494.39L570.23,500.38L573.64,502.15L575.74,512.50L579.83,518.56L588.60,517.75L592.84,521.44L619.54,506.58L626.02,510.50L621.40,517.05L622.48,520.34L632.72,522.95L634.81,520.55L634.92,431.33L623.47,435.68L619.69,433.72L612.68,437.55L610.79,444.04L616.05,448.08L614.42,452.33L597.68,446.23L582.64,447.12L576.46,434.98L563.81,422.98L563.21,419.96L546.57,411.57L536.16,386.66L536.25,381.65L541.90,374.72L544.45,355.74L549.76,338.67L559.69,325.19L555.27,316.50L554.51,299.43L550.82,295.44L554.83,287.23L554.79,275.05L559.61,265.40L555.02,260.03L551.75,249.37L554.09,247.93L551.11,247.64L547.13,236.34L537.04,231.44L535.94,228.87L552.81,216.54L572.93,193.31L575.83,181.02L572.66,173.46L700.10,153.16L705.31,166.78L719.36,181.69L725.26,182.84L731.20,180.32L734.91,183.35L741.23,180.77L753.93,188.94L754.91,196.35L763.08,203.66L770.94,202.19L781.13,205.03L781.23,214.10L789.39,213.25L801.30,219.17L814.44,219.87L820.91,227.91L834.26,229.84L836.93,233.47L848.46,238.42Z" fill="currentColor" fill-rule="evenodd"/></svg>
