<svg xmlns="http://www.w3.org/2000/svg" viewBox="0 0 1000 1000" role="img" aria-label="Map of Zimbabwe"><path d="M104.13,368.92L111.88,374.02L130.38,376.30L147.25,370.80L164.45,381.09L164.84,386.86L172.10,391.08L189.56,386.71L201.50,378.51L251.41,398.68L284.26,386.71L297.32,374.15L298.15,366.24L341.12,322.31L347.65,304.50L365.62,278.67L395.99,264.39L412.98,251.30L459.28,235.24L467.05,227.48L472.00,216.87L469.91,208.01L472.71,199.89L472.00,181.42L479.68,170.96L490.93,169.07L505.65,154.64L546.64,137.65L555.40,138.47L572.22,133.22L589.94,136.62L629.38,135.51L630.02,175.02L676.53,174.68L690.07,181.84L702.78,174.55L717.70,177.42L732.48,192.43L763.79,198.45L780.27,212.78L784.19,221.27L823.07,223.74L862.06,239.75L868.15,251.54L884.72,251.93L892.41,248.60L887.06,266.59L878.12,276.02L890.94,301.12L892.89,315.26L897.84,320.41L889.14,336.93L898.13,350.01L895.53,368.94L890.11,373.31L890.73,384.73L888.20,388.26L893.13,411.02L891.02,418.91L900.00,429.26L894.13,435.80L895.26,441.71L882.41,449.13L887.68,466.16L885.66,474.96L864.07,481.42L866.56,490.67L863.02,494.47L864.84,501.75L876.63,501.92L880.89,508.40L878.11,530.12L871.99,538.67L871.43,549.52L878.47,553.51L877.18,572.27L882.56,573.99L889.82,569.57L891.78,578.88L898.98,584.15L896.37,610.96L890.90,610.77L883.90,618.64L880.59,637.11L862.06,665.01L859.47,667.84L845.84,668.56L842.62,672.72L843.58,708.77L828.12,730.15L839.10,749.58L835.15,747.05L735.47,856.47L720.66,866.78L706.72,858.02L700.07,860.24L674.54,854.34L653.52,859.57L638.80,857.35L623.11,861.09L611.53,855.26L602.67,855.55L564.20,837.96L523.10,844.45L511.07,831.66L497.64,831.29L490.74,826.07L488.01,817.36L492.49,805.33L490.56,801.94L472.37,797.56L447.30,785.64L431.85,787.07L417.26,780.92L383.36,775.34L372.58,749.20L350.25,723.35L354.64,689.34L351.87,676.43L353.47,662.56L342.50,658.69L309.53,661.11L309.28,632.82L302.72,617.55L292.04,614.95L284.81,608.59L252.83,599.65L240.73,591.88L235.99,584.14L211.75,569.79L213.92,565.64L210.86,561.78L195.72,557.44L174.57,510.51L176.53,499.45L173.76,490.83L160.93,479.23L155.48,459.36L129.57,434.36L117.20,406.22L103.65,391.31L100.00,378.19L104.13,368.92Z" fill="currentColor" fill-rule="evenodd"/></svg>
